solid Mockup
facet normal 0.866025403784439 0.499999999999999 1.03525591137919e-15
outer loop
vertex 385.685465434433 147.88638149428 10.0000000000047
vertex 381.935465434433 154.381572022663 20.9000000000047
vertex 385.685465434433 147.88638149428 89.6000000000045
endloop
endfacet
facet normal 0.866025403784439 0.499999999999999 1.03525591137919e-15
outer loop
vertex 381.935465434433 154.381572022663 20.9000000000047
vertex 385.685465434433 147.88638149428 10.0000000000047
vertex 381.892872717295 154.45534477278 20.2529523872484
endloop
endfacet
facet normal 0.866025403784439 0.499999999999999 1.03525591137919e-15
outer loop
vertex 381.892872717295 154.45534477278 20.2529523872484
vertex 385.685465434433 147.88638149428 10.0000000000047
vertex 381.767997189164 154.671635532124 19.6500000000047
endloop
endfacet
facet normal 0.866025403784439 0.499999999999999 1.03525591137919e-15
outer loop
vertex 381.767997189164 154.671635532124 19.6500000000047
vertex 385.685465434433 147.88638149428 10.0000000000047
vertex 381.569348910916 155.015704442885 19.1322330470383
endloop
endfacet
facet normal 0.866025403784439 0.499999999999999 1.03525591137919e-15
outer loop
vertex 381.569348910916 155.015704442885 19.1322330470383
vertex 385.685465434433 147.88638149428 10.0000000000047
vertex 375.685465434433 165.206889569969 10.0000000000047
endloop
endfacet
facet normal 0.866025403784439 0.499999999999999 1.03525591137919e-15
outer loop
vertex 381.569348910916 155.015704442885 19.1322330470383
vertex 375.685465434433 165.206889569969 10.0000000000047
vertex 381.310465434433 155.464103777393 18.7349364905436
endloop
endfacet
facet normal 0.866025403784439 0.499999999999999 1.03525591137919e-15
outer loop
vertex 381.310465434433 155.464103777393 18.7349364905436
vertex 375.685465434433 165.206889569969 10.0000000000047
vertex 381.008989240811 155.986275862019 18.485185434282
endloop
endfacet
facet normal 0.866025403784439 0.499999999999999 1.03525591137919e-15
outer loop
vertex 381.008989240811 155.986275862019 18.485185434282
vertex 375.685465434433 165.206889569969 10.0000000000047
vertex 380.685465434433 156.546635532124 18.4000000000047
endloop
endfacet
facet normal 0.866025403784439 0.499999999999999 1.03525591137919e-15
outer loop
vertex 380.685465434433 156.546635532124 18.4000000000047
vertex 375.685465434433 165.206889569969 10.0000000000047
vertex 380.361941628055 157.106995202229 18.485185434282
endloop
endfacet
facet normal 0.866025403784439 0.499999999999999 1.03525591137919e-15
outer loop
vertex 380.361941628055 157.106995202229 18.485185434282
vertex 375.685465434433 165.206889569969 10.0000000000047
vertex 380.060465434433 157.629167286855 18.7349364905436
endloop
endfacet
facet normal 0.866025403784439 0.499999999999999 1.03525591137919e-15
outer loop
vertex 380.060465434433 157.629167286855 18.7349364905436
vertex 375.685465434433 165.206889569969 10.0000000000047
vertex 379.80158195795 158.077566621364 19.1322330470383
endloop
endfacet
facet normal 0.866025403784439 0.499999999999999 1.03525591137919e-15
outer loop
vertex 379.80158195795 158.077566621364 19.1322330470383
vertex 375.685465434433 165.206889569969 10.0000000000047
vertex 379.602933679703 158.421635532124 19.6500000000047
endloop
endfacet
facet normal 0.866025403784439 0.499999999999999 1.03525591137919e-15
outer loop
vertex 379.602933679703 158.421635532124 19.6500000000047
vertex 375.685465434433 165.206889569969 10.0000000000047
vertex 379.478058151572 158.637926291469 20.2529523872484
endloop
endfacet
facet normal 0.866025403784439 0.499999999999999 1.03525591137919e-15
outer loop
vertex 379.478058151572 158.637926291469 20.2529523872484
vertex 375.685465434433 165.206889569969 10.0000000000047
vertex 379.435465434433 158.711699041585 20.9000000000047
endloop
endfacet
facet normal 0.866025403784439 0.499999999999999 1.03525591137919e-15
outer loop
vertex 379.435465434433 158.711699041585 20.9000000000047
vertex 375.685465434433 165.206889569969 10.0000000000047
vertex 379.435465434433 158.711699041585 78.7000000000045
endloop
endfacet
facet normal 0.866025403784439 0.499999999999999 1.03525591137919e-15
outer loop
vertex 385.685465434433 147.88638149428 89.6000000000045
vertex 381.569348910916 155.015704442885 80.4677669529708
vertex 375.685465434433 165.206889569969 89.6000000000045
endloop
endfacet
facet normal 0.866025403784439 0.499999999999999 1.03525591137919e-15
outer loop
vertex 381.569348910916 155.015704442885 80.4677669529708
vertex 385.685465434433 147.88638149428 89.6000000000045
vertex 381.767997189164 154.671635532124 79.9500000000045
endloop
endfacet
facet normal 0.866025403784439 0.499999999999999 1.03525591137919e-15
outer loop
vertex 381.767997189164 154.671635532124 79.9500000000045
vertex 385.685465434433 147.88638149428 89.6000000000045
vertex 381.892872717295 154.45534477278 79.3470476127608
endloop
endfacet
facet normal 0.866025403784439 0.499999999999999 1.03525591137919e-15
outer loop
vertex 381.892872717295 154.45534477278 79.3470476127608
vertex 385.685465434433 147.88638149428 89.6000000000045
vertex 381.935465434433 154.381572022663 78.7000000000045
endloop
endfacet
facet normal 0.866025403784439 0.499999999999999 1.03525591137919e-15
outer loop
vertex 381.935465434433 154.381572022663 78.7000000000045
vertex 385.685465434433 147.88638149428 89.6000000000045
vertex 381.935465434433 154.381572022663 20.9000000000047
endloop
endfacet
facet normal 0.866025403784439 0.499999999999999 1.03525591137919e-15
outer loop
vertex 375.685465434433 165.206889569969 89.6000000000045
vertex 381.569348910916 155.015704442885 80.4677669529708
vertex 381.310465434433 155.464103777393 80.8650635094656
endloop
endfacet
facet normal 0.866025403784439 0.499999999999999 1.03525591137919e-15
outer loop
vertex 375.685465434433 165.206889569969 89.6000000000045
vertex 381.310465434433 155.464103777393 80.8650635094656
vertex 381.008989240811 155.986275862019 81.1148145657272
endloop
endfacet
facet normal 0.866025403784439 0.499999999999999 1.03525591137919e-15
outer loop
vertex 375.685465434433 165.206889569969 89.6000000000045
vertex 381.008989240811 155.986275862019 81.1148145657272
vertex 380.685465434433 156.546635532124 81.2000000000045
endloop
endfacet
facet normal 0.866025403784439 0.499999999999999 1.03525591137919e-15
outer loop
vertex 375.685465434433 165.206889569969 89.6000000000045
vertex 380.685465434433 156.546635532124 81.2000000000045
vertex 380.361941628055 157.106995202229 81.1148145657272
endloop
endfacet
facet normal 0.866025403784439 0.499999999999999 1.03525591137919e-15
outer loop
vertex 375.685465434433 165.206889569969 89.6000000000045
vertex 380.361941628055 157.106995202229 81.1148145657272
vertex 380.060465434433 157.629167286855 80.8650635094656
endloop
endfacet
facet normal 0.866025403784439 0.499999999999999 1.03525591137919e-15
outer loop
vertex 375.685465434433 165.206889569969 89.6000000000045
vertex 380.060465434433 157.629167286855 80.8650635094656
vertex 379.80158195795 158.077566621364 80.4677669529709
endloop
endfacet
facet normal 0.866025403784439 0.499999999999999 1.03525591137919e-15
outer loop
vertex 375.685465434433 165.206889569969 89.6000000000045
vertex 379.80158195795 158.077566621364 80.4677669529709
vertex 379.602933679703 158.421635532124 79.9500000000045
endloop
endfacet
facet normal 0.866025403784439 0.499999999999999 1.03525591137919e-15
outer loop
vertex 375.685465434433 165.206889569969 89.6000000000045
vertex 379.602933679703 158.421635532124 79.9500000000045
vertex 379.478058151572 158.637926291469 79.3470476127608
endloop
endfacet
facet normal 0.866025403784439 0.499999999999999 1.03525591137919e-15
outer loop
vertex 375.685465434433 165.206889569969 89.6000000000045
vertex 379.478058151572 158.637926291469 79.3470476127608
vertex 379.435465434433 158.711699041585 78.7000000000045
endloop
endfacet
facet normal 0.866025403784439 0.499999999999999 1.03525591137919e-15
outer loop
vertex 375.685465434433 165.206889569969 89.6000000000045
vertex 379.435465434433 158.711699041585 78.7000000000045
vertex 375.685465434433 165.206889569969 10.0000000000047
endloop
endfacet
facet normal 0.866025403784439 0.499999999999999 1.03525591137919e-15
outer loop
vertex 381.892872717295 154.45534477278 21.547047612761
vertex 381.935465434433 154.381572022663 78.7000000000045
vertex 381.935465434433 154.381572022663 20.9000000000047
endloop
endfacet
facet normal 0.866025403784439 0.499999999999999 1.03525591137919e-15
outer loop
vertex 381.935465434433 154.381572022663 78.7000000000045
vertex 381.892872717295 154.45534477278 21.547047612761
vertex 381.892872717295 154.45534477278 78.0529523872482
endloop
endfacet
facet normal 0.866025403784439 0.499999999999999 1.03525591137919e-15
outer loop
vertex 381.892872717295 154.45534477278 78.0529523872482
vertex 381.892872717295 154.45534477278 21.547047612761
vertex 381.767997189164 154.671635532124 22.1500000000047
endloop
endfacet
facet normal 0.866025403784439 0.499999999999999 1.03525591137919e-15
outer loop
vertex 381.892872717295 154.45534477278 78.0529523872482
vertex 381.767997189164 154.671635532124 22.1500000000047
vertex 381.767997189164 154.671635532124 77.4500000000045
endloop
endfacet
facet normal 0.866025403784439 0.499999999999999 1.03525591137919e-15
outer loop
vertex 381.767997189164 154.671635532124 77.4500000000045
vertex 381.767997189164 154.671635532124 22.1500000000047
vertex 381.569348910916 155.015704442885 22.6677669529711
endloop
endfacet
facet normal 0.866025403784439 0.499999999999999 1.03525591137919e-15
outer loop
vertex 381.767997189164 154.671635532124 77.4500000000045
vertex 381.569348910916 155.015704442885 22.6677669529711
vertex 381.569348910916 155.015704442885 76.9322330470381
endloop
endfacet
facet normal 0.866025403784439 0.499999999999999 1.03525591137919e-15
outer loop
vertex 381.569348910916 155.015704442885 76.9322330470381
vertex 381.569348910916 155.015704442885 22.6677669529711
vertex 381.310465434433 155.464103777393 23.0650635094658
endloop
endfacet
facet normal 0.866025403784439 0.499999999999999 1.03525591137919e-15
outer loop
vertex 381.569348910916 155.015704442885 76.9322330470381
vertex 381.310465434433 155.464103777393 23.0650635094658
vertex 381.310465434433 155.464103777393 76.5349364905434
endloop
endfacet
facet normal 0.866025403784439 0.499999999999999 1.03525591137919e-15
outer loop
vertex 381.310465434433 155.464103777393 76.5349364905434
vertex 381.310465434433 155.464103777393 23.0650635094658
vertex 381.008989240811 155.986275862019 23.3148145657274
endloop
endfacet
facet normal 0.866025403784439 0.499999999999999 1.03525591137919e-15
outer loop
vertex 381.310465434433 155.464103777393 76.5349364905434
vertex 381.008989240811 155.986275862019 23.3148145657274
vertex 381.008989240811 155.986275862019 76.2851854342818
endloop
endfacet
facet normal 0.866025403784439 0.499999999999999 1.03525591137919e-15
outer loop
vertex 381.008989240811 155.986275862019 76.2851854342818
vertex 381.008989240811 155.986275862019 23.3148145657274
vertex 380.685465434433 156.546635532124 23.4000000000047
endloop
endfacet
facet normal 0.866025403784439 0.499999999999999 1.03525591137919e-15
outer loop
vertex 381.008989240811 155.986275862019 76.2851854342818
vertex 380.685465434433 156.546635532124 23.4000000000047
vertex 380.685465434433 156.546635532124 76.2000000000045
endloop
endfacet
facet normal 0.866025403784439 0.499999999999999 1.03525591137919e-15
outer loop
vertex 380.685465434433 156.546635532124 76.2000000000045
vertex 380.685465434433 156.546635532124 23.4000000000047
vertex 380.361941628055 157.106995202229 23.3148145657274
endloop
endfacet
facet normal 0.866025403784439 0.499999999999999 1.03525591137919e-15
outer loop
vertex 380.685465434433 156.546635532124 76.2000000000045
vertex 380.361941628055 157.106995202229 23.3148145657274
vertex 380.361941628055 157.106995202229 76.2851854342818
endloop
endfacet
facet normal 0.866025403784439 0.499999999999999 1.03525591137919e-15
outer loop
vertex 380.361941628055 157.106995202229 76.2851854342818
vertex 380.361941628055 157.106995202229 23.3148145657274
vertex 380.060465434433 157.629167286855 23.0650635094658
endloop
endfacet
facet normal 0.866025403784439 0.499999999999999 1.03525591137919e-15
outer loop
vertex 380.361941628055 157.106995202229 76.2851854342818
vertex 380.060465434433 157.629167286855 23.0650635094658
vertex 380.060465434433 157.629167286855 76.5349364905434
endloop
endfacet
facet normal 0.866025403784439 0.499999999999999 1.03525591137919e-15
outer loop
vertex 380.060465434433 157.629167286855 76.5349364905434
vertex 380.060465434433 157.629167286855 23.0650635094658
vertex 379.80158195795 158.077566621364 22.6677669529711
endloop
endfacet
facet normal 0.866025403784439 0.499999999999999 1.03525591137919e-15
outer loop
vertex 380.060465434433 157.629167286855 76.5349364905434
vertex 379.80158195795 158.077566621364 22.6677669529711
vertex 379.80158195795 158.077566621364 76.9322330470381
endloop
endfacet
facet normal 0.866025403784439 0.499999999999999 1.03525591137919e-15
outer loop
vertex 379.80158195795 158.077566621364 76.9322330470381
vertex 379.80158195795 158.077566621364 22.6677669529711
vertex 379.602933679703 158.421635532124 22.1500000000047
endloop
endfacet
facet normal 0.866025403784439 0.499999999999999 1.03525591137919e-15
outer loop
vertex 379.80158195795 158.077566621364 76.9322330470381
vertex 379.602933679703 158.421635532124 22.1500000000047
vertex 379.602933679703 158.421635532124 77.4500000000045
endloop
endfacet
facet normal 0.866025403784439 0.499999999999999 1.03525591137919e-15
outer loop
vertex 379.602933679703 158.421635532124 77.4500000000045
vertex 379.602933679703 158.421635532124 22.1500000000047
vertex 379.478058151572 158.637926291469 21.547047612761
endloop
endfacet
facet normal 0.866025403784439 0.499999999999999 1.03525591137919e-15
outer loop
vertex 379.602933679703 158.421635532124 77.4500000000045
vertex 379.478058151572 158.637926291469 21.547047612761
vertex 379.478058151572 158.637926291469 78.0529523872482
endloop
endfacet
facet normal 0.866025403784439 0.499999999999999 1.03525591137919e-15
outer loop
vertex 379.478058151572 158.637926291469 78.0529523872482
vertex 379.478058151572 158.637926291469 21.547047612761
vertex 379.435465434433 158.711699041585 20.9000000000047
endloop
endfacet
facet normal 0.866025403784439 0.499999999999999 1.03525591137919e-15
outer loop
vertex 379.478058151572 158.637926291469 78.0529523872482
vertex 379.435465434433 158.711699041585 20.9000000000047
vertex 379.435465434433 158.711699041585 78.7000000000045
endloop
endfacet
facet normal 0.353553390593276 -0.612372435695799 -0.707106781186542
outer loop
vertex 379.80158195795 158.077566621364 22.6677669529711
vertex 377.870882872134 157.421635532124 22.1500000000047
vertex 379.602933679703 158.421635532124 22.1500000000047
endloop
endfacet
facet normal 0.433012701892221 -0.750000000000005 -0.499999999999992
outer loop
vertex 377.870882872134 157.421635532124 22.1500000000047
vertex 379.80158195795 158.077566621364 22.6677669529711
vertex 378.069531150381 157.077566621364 22.6677669529711
endloop
endfacet
facet normal 0.433012701892222 -0.750000000000006 -0.499999999999988
outer loop
vertex 379.602933679703 158.421635532124 22.1500000000047
vertex 377.746007344003 157.637926291469 21.547047612761
vertex 379.478058151572 158.637926291469 21.547047612761
endloop
endfacet
facet normal 0.482962913144534 -0.83651630373781 -0.258819045102513
outer loop
vertex 377.746007344003 157.637926291469 21.547047612761
vertex 379.602933679703 158.421635532124 22.1500000000047
vertex 377.870882872134 157.421635532124 22.1500000000047
endloop
endfacet
facet normal 0.482962913144534 -0.83651630373781 -0.258819045102516
outer loop
vertex 379.478058151572 158.637926291469 21.547047612761
vertex 377.703414626864 157.711699041585 20.9000000000047
vertex 379.435465434433 158.711699041585 20.9000000000047
endloop
endfacet
facet normal 0.499999999999999 -0.866025403784439 2.67333296869407e-16
outer loop
vertex 377.703414626864 157.711699041585 20.9000000000047
vertex 379.478058151572 158.637926291469 21.547047612761
vertex 377.746007344003 157.637926291469 21.547047612761
endloop
endfacet
facet normal 0.499999999999999 -0.866025403784439 2.76244406765052e-16
outer loop
vertex 379.435465434433 158.711699041585 20.9000000000047
vertex 377.746007344003 157.637926291469 20.2529523872484
vertex 379.478058151572 158.637926291469 20.2529523872484
endloop
endfacet
facet normal 0.482962913144534 -0.83651630373781 0.258819045102513
outer loop
vertex 377.746007344003 157.637926291469 20.2529523872484
vertex 379.435465434433 158.711699041585 20.9000000000047
vertex 377.703414626864 157.711699041585 20.9000000000047
endloop
endfacet
facet normal -0.866025403784442 -0.499999999999994 -2.14274912422378e-18
outer loop
vertex 381.118478136325 151.796635532124 23.4000000000047
vertex 380.035946381595 153.671635532124 22.1500000000047
vertex 381.118478136325 151.796635532124 18.4000000000047
endloop
endfacet
facet normal -0.866025403784442 -0.499999999999994 -2.14274912422378e-18
outer loop
vertex 380.035946381595 153.671635532124 22.1500000000047
vertex 381.118478136325 151.796635532124 23.4000000000047
vertex 378.953414626864 155.546635532124 25.9000000000047
endloop
endfacet
facet normal -0.866025403784442 -0.499999999999994 -2.14274912422378e-18
outer loop
vertex 381.118478136325 151.796635532124 18.4000000000047
vertex 380.035946381595 153.671635532124 22.1500000000047
vertex 380.160821909726 153.45534477278 21.547047612761
endloop
endfacet
facet normal -0.866025403784442 -0.499999999999994 -2.14274912422378e-18
outer loop
vertex 381.118478136325 151.796635532124 18.4000000000047
vertex 380.160821909726 153.45534477278 21.547047612761
vertex 380.203414626864 153.381572022663 20.9000000000047
endloop
endfacet
facet normal -0.866025403784442 -0.499999999999994 -2.14274912422378e-18
outer loop
vertex 380.035946381595 153.671635532124 22.1500000000047
vertex 378.953414626864 155.546635532124 25.9000000000047
vertex 379.837298103347 154.015704442885 22.6677669529711
endloop
endfacet
facet normal -0.866025403784442 -0.499999999999994 -2.14274912422378e-18
outer loop
vertex 379.837298103347 154.015704442885 22.6677669529711
vertex 378.953414626864 155.546635532124 25.9000000000047
vertex 379.578414626864 154.464103777394 23.0650635094658
endloop
endfacet
facet normal -0.866025403784442 -0.499999999999994 -2.14274912422378e-18
outer loop
vertex 379.578414626864 154.464103777394 23.0650635094658
vertex 378.953414626864 155.546635532124 25.9000000000047
vertex 379.276938433242 154.986275862019 23.3148145657274
endloop
endfacet
facet normal -0.866025403784442 -0.499999999999994 -2.14274912422378e-18
outer loop
vertex 379.276938433242 154.986275862019 23.3148145657274
vertex 378.953414626864 155.546635532124 25.9000000000047
vertex 378.953414626864 155.546635532124 23.4000000000047
endloop
endfacet
facet normal -0.866025403784442 -0.499999999999994 -2.14274912422378e-18
outer loop
vertex 378.953414626864 155.546635532124 23.4000000000047
vertex 378.953414626864 155.546635532124 25.9000000000047
vertex 378.629890820486 156.106995202229 23.3148145657274
endloop
endfacet
facet normal -0.866025403784442 -0.499999999999994 -2.14274912422378e-18
outer loop
vertex 378.629890820486 156.106995202229 23.3148145657274
vertex 378.953414626864 155.546635532124 25.9000000000047
vertex 376.788351117403 159.296635532124 23.4000000000047
endloop
endfacet
facet normal -0.866025403784442 -0.499999999999994 -2.14274912422378e-18
outer loop
vertex 378.629890820486 156.106995202229 23.3148145657274
vertex 376.788351117403 159.296635532124 23.4000000000047
vertex 378.328414626864 156.629167286855 23.0650635094658
endloop
endfacet
facet normal -0.866025403784442 -0.499999999999994 -2.14274912422378e-18
outer loop
vertex 378.328414626864 156.629167286855 23.0650635094658
vertex 376.788351117403 159.296635532124 23.4000000000047
vertex 378.069531150381 157.077566621364 22.6677669529711
endloop
endfacet
facet normal -0.866025403784442 -0.499999999999994 -2.14274912422378e-18
outer loop
vertex 378.069531150381 157.077566621364 22.6677669529711
vertex 376.788351117403 159.296635532124 23.4000000000047
vertex 377.870882872134 157.421635532124 22.1500000000047
endloop
endfacet
facet normal -0.866025403784442 -0.499999999999994 -2.14274912422378e-18
outer loop
vertex 377.870882872134 157.421635532124 22.1500000000047
vertex 376.788351117403 159.296635532124 23.4000000000047
vertex 377.746007344003 157.637926291469 21.547047612761
endloop
endfacet
facet normal -0.866025403784442 -0.499999999999994 -2.14274912422378e-18
outer loop
vertex 377.746007344003 157.637926291469 21.547047612761
vertex 376.788351117403 159.296635532124 23.4000000000047
vertex 377.703414626864 157.711699041585 20.9000000000047
endloop
endfacet
facet normal -0.866025403784442 -0.499999999999994 -2.14274912422378e-18
outer loop
vertex 381.118478136325 151.796635532124 18.4000000000047
vertex 380.035946381595 153.671635532124 19.6500000000047
vertex 378.953414626864 155.546635532124 15.9000000000047
endloop
endfacet
facet normal -0.866025403784442 -0.499999999999994 -2.14274912422378e-18
outer loop
vertex 380.035946381595 153.671635532124 19.6500000000047
vertex 381.118478136325 151.796635532124 18.4000000000047
vertex 380.160821909726 153.45534477278 20.2529523872484
endloop
endfacet
facet normal -0.866025403784442 -0.499999999999994 -2.14274912422378e-18
outer loop
vertex 380.160821909726 153.45534477278 20.2529523872484
vertex 381.118478136325 151.796635532124 18.4000000000047
vertex 380.203414626864 153.381572022663 20.9000000000047
endloop
endfacet
facet normal -0.866025403784442 -0.499999999999994 -2.14274912422378e-18
outer loop
vertex 378.953414626864 155.546635532124 15.9000000000047
vertex 380.035946381595 153.671635532124 19.6500000000047
vertex 379.837298103347 154.015704442885 19.1322330470383
endloop
endfacet
facet normal -0.866025403784442 -0.499999999999994 -2.14274912422378e-18
outer loop
vertex 378.953414626864 155.546635532124 15.9000000000047
vertex 379.837298103347 154.015704442885 19.1322330470383
vertex 379.578414626864 154.464103777393 18.7349364905436
endloop
endfacet
facet normal -0.866025403784442 -0.499999999999994 -2.14274912422378e-18
outer loop
vertex 378.953414626864 155.546635532124 15.9000000000047
vertex 379.578414626864 154.464103777393 18.7349364905436
vertex 379.276938433242 154.986275862019 18.485185434282
endloop
endfacet
facet normal -0.866025403784442 -0.499999999999994 -2.14274912422378e-18
outer loop
vertex 378.953414626864 155.546635532124 15.9000000000047
vertex 379.276938433242 154.986275862019 18.485185434282
vertex 378.953414626864 155.546635532124 18.4000000000047
endloop
endfacet
facet normal -0.866025403784442 -0.499999999999994 -2.14274912422378e-18
outer loop
vertex 378.953414626864 155.546635532124 15.9000000000047
vertex 378.953414626864 155.546635532124 18.4000000000047
vertex 378.629890820486 156.106995202229 18.485185434282
endloop
endfacet
facet normal -0.866025403784442 -0.499999999999994 -2.14274912422378e-18
outer loop
vertex 378.953414626864 155.546635532124 15.9000000000047
vertex 378.629890820486 156.106995202229 18.485185434282
vertex 376.788351117403 159.296635532124 18.4000000000047
endloop
endfacet
facet normal -0.866025403784442 -0.499999999999994 -2.14274912422378e-18
outer loop
vertex 376.788351117403 159.296635532124 18.4000000000047
vertex 378.629890820486 156.106995202229 18.485185434282
vertex 378.328414626864 156.629167286855 18.7349364905436
endloop
endfacet
facet normal -0.866025403784442 -0.499999999999994 -2.14274912422378e-18
outer loop
vertex 376.788351117403 159.296635532124 18.4000000000047
vertex 378.328414626864 156.629167286855 18.7349364905436
vertex 378.069531150381 157.077566621363 19.1322330470383
endloop
endfacet
facet normal -0.866025403784442 -0.499999999999994 -2.14274912422378e-18
outer loop
vertex 376.788351117403 159.296635532124 18.4000000000047
vertex 378.069531150381 157.077566621363 19.1322330470383
vertex 377.870882872134 157.421635532124 19.6500000000047
endloop
endfacet
facet normal -0.866025403784442 -0.499999999999994 -2.14274912422378e-18
outer loop
vertex 376.788351117403 159.296635532124 18.4000000000047
vertex 377.870882872134 157.421635532124 19.6500000000047
vertex 377.746007344003 157.637926291469 20.2529523872484
endloop
endfacet
facet normal -0.866025403784442 -0.499999999999994 -2.14274912422378e-18
outer loop
vertex 376.788351117403 159.296635532124 18.4000000000047
vertex 377.746007344003 157.637926291469 20.2529523872484
vertex 377.703414626864 157.711699041585 20.9000000000047
endloop
endfacet
facet normal -0.866025403784442 -0.499999999999994 -2.14274912422378e-18
outer loop
vertex 376.788351117403 159.296635532124 18.4000000000047
vertex 377.703414626864 157.711699041585 20.9000000000047
vertex 376.788351117403 159.296635532124 23.4000000000047
endloop
endfacet
facet normal -0.866025403784442 -0.499999999999994 -1.13545092601024e-17
outer loop
vertex 381.118478136325 151.796635532124 81.2000000000045
vertex 380.035946381595 153.671635532124 79.9500000000045
vertex 381.118478136325 151.796635532124 76.2000000000045
endloop
endfacet
facet normal -0.866025403784442 -0.499999999999994 -1.13545092601024e-17
outer loop
vertex 380.035946381595 153.671635532124 79.9500000000045
vertex 381.118478136325 151.796635532124 81.2000000000045
vertex 378.953414626864 155.546635532124 83.7000000000045
endloop
endfacet
facet normal -0.866025403784442 -0.499999999999994 -1.13545092601024e-17
outer loop
vertex 381.118478136325 151.796635532124 76.2000000000045
vertex 380.035946381595 153.671635532124 79.9500000000045
vertex 380.160821909726 153.45534477278 79.3470476127608
endloop
endfacet
facet normal -0.866025403784442 -0.499999999999994 -1.13545092601024e-17
outer loop
vertex 381.118478136325 151.796635532124 76.2000000000045
vertex 380.160821909726 153.45534477278 79.3470476127608
vertex 380.203414626864 153.381572022663 78.7000000000045
endloop
endfacet
facet normal -0.866025403784442 -0.499999999999994 -1.13545092601024e-17
outer loop
vertex 380.035946381595 153.671635532124 79.9500000000045
vertex 378.953414626864 155.546635532124 83.7000000000045
vertex 379.837298103347 154.015704442885 80.4677669529708
endloop
endfacet
facet normal -0.866025403784442 -0.499999999999994 -1.13545092601024e-17
outer loop
vertex 379.837298103347 154.015704442885 80.4677669529708
vertex 378.953414626864 155.546635532124 83.7000000000045
vertex 379.578414626864 154.464103777393 80.8650635094656
endloop
endfacet
facet normal -0.866025403784442 -0.499999999999994 -1.13545092601024e-17
outer loop
vertex 379.578414626864 154.464103777393 80.8650635094656
vertex 378.953414626864 155.546635532124 83.7000000000045
vertex 379.276938433242 154.986275862019 81.1148145657272
endloop
endfacet
facet normal -0.866025403784442 -0.499999999999994 -1.13545092601024e-17
outer loop
vertex 379.276938433242 154.986275862019 81.1148145657272
vertex 378.953414626864 155.546635532124 83.7000000000045
vertex 378.953414626864 155.546635532124 81.2000000000045
endloop
endfacet
facet normal -0.866025403784442 -0.499999999999994 -1.13545092601024e-17
outer loop
vertex 378.953414626864 155.546635532124 81.2000000000045
vertex 378.953414626864 155.546635532124 83.7000000000045
vertex 378.629890820486 156.106995202229 81.1148145657272
endloop
endfacet
facet normal -0.866025403784442 -0.499999999999994 -1.13545092601024e-17
outer loop
vertex 378.629890820486 156.106995202229 81.1148145657272
vertex 378.953414626864 155.546635532124 83.7000000000045
vertex 376.788351117403 159.296635532124 81.2000000000045
endloop
endfacet
facet normal -0.866025403784442 -0.499999999999994 -1.13545092601024e-17
outer loop
vertex 378.629890820486 156.106995202229 81.1148145657272
vertex 376.788351117403 159.296635532124 81.2000000000045
vertex 378.328414626864 156.629167286855 80.8650635094656
endloop
endfacet
facet normal -0.866025403784442 -0.499999999999994 -1.13545092601024e-17
outer loop
vertex 378.328414626864 156.629167286855 80.8650635094656
vertex 376.788351117403 159.296635532124 81.2000000000045
vertex 378.069531150381 157.077566621363 80.4677669529709
endloop
endfacet
facet normal -0.866025403784442 -0.499999999999994 -1.13545092601024e-17
outer loop
vertex 378.069531150381 157.077566621363 80.4677669529709
vertex 376.788351117403 159.296635532124 81.2000000000045
vertex 377.870882872134 157.421635532124 79.9500000000045
endloop
endfacet
facet normal -0.866025403784442 -0.499999999999994 -1.13545092601024e-17
outer loop
vertex 377.870882872134 157.421635532124 79.9500000000045
vertex 376.788351117403 159.296635532124 81.2000000000045
vertex 377.746007344003 157.637926291469 79.3470476127608
endloop
endfacet
facet normal -0.866025403784442 -0.499999999999994 -1.13545092601024e-17
outer loop
vertex 377.746007344003 157.637926291469 79.3470476127608
vertex 376.788351117403 159.296635532124 81.2000000000045
vertex 377.703414626864 157.711699041585 78.7000000000045
endloop
endfacet
facet normal -0.866025403784442 -0.499999999999994 -1.13545092601024e-17
outer loop
vertex 381.118478136325 151.796635532124 76.2000000000045
vertex 380.035946381595 153.671635532124 77.4500000000045
vertex 378.953414626864 155.546635532124 73.7000000000045
endloop
endfacet
facet normal -0.866025403784442 -0.499999999999994 -1.13545092601024e-17
outer loop
vertex 380.035946381595 153.671635532124 77.4500000000045
vertex 381.118478136325 151.796635532124 76.2000000000045
vertex 380.160821909726 153.45534477278 78.0529523872482
endloop
endfacet
facet normal -0.866025403784442 -0.499999999999994 -1.13545092601024e-17
outer loop
vertex 380.160821909726 153.45534477278 78.0529523872482
vertex 381.118478136325 151.796635532124 76.2000000000045
vertex 380.203414626864 153.381572022663 78.7000000000045
endloop
endfacet
facet normal -0.866025403784442 -0.499999999999994 -1.13545092601024e-17
outer loop
vertex 378.953414626864 155.546635532124 73.7000000000045
vertex 380.035946381595 153.671635532124 77.4500000000045
vertex 379.837298103347 154.015704442885 76.9322330470381
endloop
endfacet
facet normal -0.866025403784442 -0.499999999999994 -1.13545092601024e-17
outer loop
vertex 378.953414626864 155.546635532124 73.7000000000045
vertex 379.837298103347 154.015704442885 76.9322330470381
vertex 379.578414626864 154.464103777394 76.5349364905434
endloop
endfacet
facet normal -0.866025403784442 -0.499999999999994 -1.13545092601024e-17
outer loop
vertex 378.953414626864 155.546635532124 73.7000000000045
vertex 379.578414626864 154.464103777394 76.5349364905434
vertex 379.276938433242 154.986275862019 76.2851854342818
endloop
endfacet
facet normal -0.866025403784442 -0.499999999999994 -1.13545092601024e-17
outer loop
vertex 378.953414626864 155.546635532124 73.7000000000045
vertex 379.276938433242 154.986275862019 76.2851854342818
vertex 378.953414626864 155.546635532124 76.2000000000045
endloop
endfacet
facet normal -0.866025403784442 -0.499999999999994 -1.13545092601024e-17
outer loop
vertex 378.953414626864 155.546635532124 73.7000000000045
vertex 378.953414626864 155.546635532124 76.2000000000045
vertex 378.629890820486 156.106995202229 76.2851854342818
endloop
endfacet
facet normal -0.866025403784442 -0.499999999999994 -1.13545092601024e-17
outer loop
vertex 378.953414626864 155.546635532124 73.7000000000045
vertex 378.629890820486 156.106995202229 76.2851854342818
vertex 376.788351117403 159.296635532124 76.2000000000045
endloop
endfacet
facet normal -0.866025403784442 -0.499999999999994 -1.13545092601024e-17
outer loop
vertex 376.788351117403 159.296635532124 76.2000000000045
vertex 378.629890820486 156.106995202229 76.2851854342818
vertex 378.328414626864 156.629167286855 76.5349364905434
endloop
endfacet
facet normal -0.866025403784442 -0.499999999999994 -1.13545092601024e-17
outer loop
vertex 376.788351117403 159.296635532124 76.2000000000045
vertex 378.328414626864 156.629167286855 76.5349364905434
vertex 378.069531150381 157.077566621364 76.9322330470381
endloop
endfacet
facet normal -0.866025403784442 -0.499999999999994 -1.13545092601024e-17
outer loop
vertex 376.788351117403 159.296635532124 76.2000000000045
vertex 378.069531150381 157.077566621364 76.9322330470381
vertex 377.870882872134 157.421635532124 77.4500000000045
endloop
endfacet
facet normal -0.866025403784442 -0.499999999999994 -1.13545092601024e-17
outer loop
vertex 376.788351117403 159.296635532124 76.2000000000045
vertex 377.870882872134 157.421635532124 77.4500000000045
vertex 377.746007344003 157.637926291469 78.0529523872482
endloop
endfacet
facet normal -0.866025403784442 -0.499999999999994 -1.13545092601024e-17
outer loop
vertex 376.788351117403 159.296635532124 76.2000000000045
vertex 377.746007344003 157.637926291469 78.0529523872482
vertex 377.703414626864 157.711699041585 78.7000000000045
endloop
endfacet
facet normal -0.866025403784442 -0.499999999999994 -1.13545092601024e-17
outer loop
vertex 376.788351117403 159.296635532124 76.2000000000045
vertex 377.703414626864 157.711699041585 78.7000000000045
vertex 376.788351117403 159.296635532124 81.2000000000045
endloop
endfacet
facet normal -0.499999999999997 0.86602540378444 -5.6522180770694e-16
outer loop
vertex 295.14510288248 118.706889569968 26.8000000000086
vertex 296.87715369005 119.706889569969 28.8000000000084
vertex 373.08738922308 163.706889569968 28.8000000000046
endloop
endfacet
facet normal -0.499999999999997 0.86602540378444 -5.6522180770694e-16
outer loop
vertex 296.87715369005 119.706889569969 28.8000000000084
vertex 295.14510288248 118.706889569968 26.8000000000086
vertex 295.145102882478 118.706889569967 72.7999999999987
endloop
endfacet
facet normal -0.499999999999997 0.86602540378444 -5.6522180770694e-16
outer loop
vertex 296.87715369005 119.706889569969 28.8000000000084
vertex 295.145102882478 118.706889569967 72.7999999999987
vertex 296.877153690051 119.70688956997 70.7999999999988
endloop
endfacet
facet normal -0.499999999999997 0.86602540378444 -5.6522180770694e-16
outer loop
vertex 296.877153690051 119.70688956997 70.7999999999988
vertex 295.145102882478 118.706889569967 72.7999999999987
vertex 373.08738922308 163.706889569968 70.8000000000046
endloop
endfacet
facet normal -0.499999999999997 0.86602540378444 -5.6522180770694e-16
outer loop
vertex 367.891236800374 160.706889569969 86.0000000000056
vertex 373.08738922308 163.706889569968 86.0000000000056
vertex 367.891236800374 160.706889569969 82.0000000000068
endloop
endfacet
facet normal -0.499999999999997 0.86602540378444 -5.6522180770694e-16
outer loop
vertex 367.891236800376 160.70688956997 12.6000000000066
vertex 375.685465434433 165.206889569969 10.0000000000047
vertex 367.891236800376 160.70688956997 10.0000000000045
endloop
endfacet
facet normal -0.499999999999997 0.86602540378444 -5.6522180770694e-16
outer loop
vertex 375.685465434433 165.206889569969 10.0000000000047
vertex 367.891236800376 160.70688956997 12.6000000000066
vertex 373.08738922308 163.706889569968 12.6000000000069
endloop
endfacet
facet normal -0.499999999999997 0.86602540378444 -5.6522180770694e-16
outer loop
vertex 375.685465434433 165.206889569969 10.0000000000047
vertex 373.08738922308 163.706889569968 12.6000000000069
vertex 375.685465434433 165.206889569969 89.6000000000045
endloop
endfacet
facet normal -0.499999999999997 0.86602540378444 -5.6522180770694e-16
outer loop
vertex 375.685465434433 165.206889569969 89.6000000000045
vertex 373.08738922308 163.706889569968 12.6000000000069
vertex 373.08738922308 163.706889569968 26.8000000000046
endloop
endfacet
facet normal -0.499999999999997 0.86602540378444 -5.6522180770694e-16
outer loop
vertex 375.685465434433 165.206889569969 89.6000000000045
vertex 373.08738922308 163.706889569968 26.8000000000046
vertex 373.08738922308 163.706889569968 28.8000000000046
endloop
endfacet
facet normal -0.499999999999997 0.86602540378444 -5.6522180770694e-16
outer loop
vertex 373.08738922308 163.706889569968 28.8000000000046
vertex 373.08738922308 163.706889569968 26.8000000000046
vertex 295.14510288248 118.706889569968 26.8000000000086
endloop
endfacet
facet normal -0.499999999999997 0.86602540378444 -5.6522180770694e-16
outer loop
vertex 375.685465434433 165.206889569969 89.6000000000045
vertex 373.08738922308 163.706889569968 28.8000000000046
vertex 373.08738922308 163.706889569968 70.8000000000046
endloop
endfacet
facet normal -0.499999999999997 0.86602540378444 -5.6522180770694e-16
outer loop
vertex 375.685465434433 165.206889569969 89.6000000000045
vertex 373.08738922308 163.706889569968 70.8000000000046
vertex 373.08738922308 163.706889569968 72.8000000000046
endloop
endfacet
facet normal -0.499999999999997 0.86602540378444 -5.6522180770694e-16
outer loop
vertex 373.08738922308 163.706889569968 72.8000000000046
vertex 373.08738922308 163.706889569968 70.8000000000046
vertex 295.145102882478 118.706889569967 72.7999999999987
endloop
endfacet
facet normal -0.499999999999997 0.86602540378444 -5.6522180770694e-16
outer loop
vertex 375.685465434433 165.206889569969 89.6000000000045
vertex 373.08738922308 163.706889569968 72.8000000000046
vertex 373.08738922308 163.706889569968 82.0000000000067
endloop
endfacet
facet normal -0.499999999999997 0.86602540378444 -5.6522180770694e-16
outer loop
vertex 375.685465434433 165.206889569969 89.6000000000045
vertex 373.08738922308 163.706889569968 82.0000000000067
vertex 373.08738922308 163.706889569968 86.0000000000056
endloop
endfacet
facet normal -0.499999999999997 0.86602540378444 -5.6522180770694e-16
outer loop
vertex 373.08738922308 163.706889569968 86.0000000000056
vertex 373.08738922308 163.706889569968 82.0000000000067
vertex 367.891236800374 160.706889569969 82.0000000000068
endloop
endfacet
facet normal -0.499999999999997 0.86602540378444 -5.6522180770694e-16
outer loop
vertex 375.685465434433 165.206889569969 89.6000000000045
vertex 373.08738922308 163.706889569968 86.0000000000056
vertex 373.08738922308 163.706889569968 89.6000000000045
endloop
endfacet
facet normal 0.482962913144533 -0.83651630373781 0.258819045102516
outer loop
vertex 379.478058151572 158.637926291469 20.2529523872484
vertex 377.870882872134 157.421635532124 19.6500000000047
vertex 379.602933679703 158.421635532124 19.6500000000047
endloop
endfacet
facet normal 0.433012701892217 -0.75 0.500000000000002
outer loop
vertex 377.870882872134 157.421635532124 19.6500000000047
vertex 379.478058151572 158.637926291469 20.2529523872484
vertex 377.746007344003 157.637926291469 20.2529523872484
endloop
endfacet
facet normal 0.433012701892216 -0.749999999999998 0.500000000000005
outer loop
vertex 379.602933679703 158.421635532124 19.6500000000047
vertex 378.069531150381 157.077566621363 19.1322330470383
vertex 379.80158195795 158.077566621364 19.1322330470383
endloop
endfacet
facet normal 0.353553390593264 -0.61237243569578 0.707106781186565
outer loop
vertex 378.069531150381 157.077566621363 19.1322330470383
vertex 379.602933679703 158.421635532124 19.6500000000047
vertex 377.870882872134 157.421635532124 19.6500000000047
endloop
endfacet
facet normal 0.25 -0.433012701892222 0.866025403784437
outer loop
vertex 378.328414626864 156.629167286855 18.7349364905436
vertex 379.80158195795 158.077566621364 19.1322330470383
vertex 378.069531150381 157.077566621363 19.1322330470383
endloop
endfacet
facet normal 0.353553390593267 -0.612372435695786 0.707106781186559
outer loop
vertex 379.80158195795 158.077566621364 19.1322330470383
vertex 378.328414626864 156.629167286855 18.7349364905436
vertex 380.060465434433 157.629167286855 18.7349364905436
endloop
endfacet
facet normal 0.129409522551262 -0.224143868042019 0.965925826289067
outer loop
vertex 378.629890820486 156.106995202229 18.485185434282
vertex 380.060465434433 157.629167286855 18.7349364905436
vertex 378.328414626864 156.629167286855 18.7349364905436
endloop
endfacet
facet normal 0.250000000000003 -0.433012701892227 0.866025403784434
outer loop
vertex 380.060465434433 157.629167286855 18.7349364905436
vertex 378.629890820486 156.106995202229 18.485185434282
vertex 380.361941628055 157.106995202229 18.485185434282
endloop
endfacet
facet normal 9.98044308312458e-16 -3.80504392544125e-15 1.0
outer loop
vertex 378.953414626864 155.546635532124 18.4000000000047
vertex 380.361941628055 157.106995202229 18.485185434282
vertex 378.629890820486 156.106995202229 18.485185434282
endloop
endfacet
facet normal 0.129409522551262 -0.224143868042019 0.965925826289067
outer loop
vertex 380.361941628055 157.106995202229 18.485185434282
vertex 378.953414626864 155.546635532124 18.4000000000047
vertex 380.685465434433 156.546635532124 18.4000000000047
endloop
endfacet
facet normal -0.129409522551259 0.22414386804201 0.965925826289069
outer loop
vertex 379.276938433242 154.986275862019 18.485185434282
vertex 380.685465434433 156.546635532124 18.4000000000047
vertex 378.953414626864 155.546635532124 18.4000000000047
endloop
endfacet
facet normal -1.88024418798151e-15 1.1762665062254e-15 1.0
outer loop
vertex 380.685465434433 156.546635532124 18.4000000000047
vertex 379.276938433242 154.986275862019 18.485185434282
vertex 381.008989240811 155.986275862019 18.485185434282
endloop
endfacet
facet normal -0.250000000000003 0.433012701892225 0.866025403784435
outer loop
vertex 379.578414626864 154.464103777393 18.7349364905436
vertex 381.008989240811 155.986275862019 18.485185434282
vertex 379.276938433242 154.986275862019 18.485185434282
endloop
endfacet
facet normal -0.129409522551261 0.224143868042013 0.965925826289068
outer loop
vertex 381.008989240811 155.986275862019 18.485185434282
vertex 379.578414626864 154.464103777393 18.7349364905436
vertex 381.310465434433 155.464103777393 18.7349364905436
endloop
endfacet
facet normal -0.353553390593274 0.612372435695796 0.707106781186546
outer loop
vertex 379.837298103347 154.015704442885 19.1322330470383
vertex 381.310465434433 155.464103777393 18.7349364905436
vertex 379.578414626864 154.464103777393 18.7349364905436
endloop
endfacet
facet normal -0.250000000000002 0.433012701892222 0.866025403784437
outer loop
vertex 381.310465434433 155.464103777393 18.7349364905436
vertex 379.837298103347 154.015704442885 19.1322330470383
vertex 381.569348910916 155.015704442885 19.1322330470383
endloop
endfacet
facet normal -0.433012701892222 0.750000000000005 0.49999999999999
outer loop
vertex 380.035946381595 153.671635532124 19.6500000000047
vertex 381.569348910916 155.015704442885 19.1322330470383
vertex 379.837298103347 154.015704442885 19.1322330470383
endloop
endfacet
facet normal -0.353553390593275 0.612372435695797 0.707106781186545
outer loop
vertex 381.569348910916 155.015704442885 19.1322330470383
vertex 380.035946381595 153.671635532124 19.6500000000047
vertex 381.767997189164 154.671635532124 19.6500000000047
endloop
endfacet
facet normal -0.482962913144534 0.83651630373781 0.258819045102513
outer loop
vertex 380.160821909726 153.45534477278 20.2529523872484
vertex 381.767997189164 154.671635532124 19.6500000000047
vertex 380.035946381595 153.671635532124 19.6500000000047
endloop
endfacet
facet normal -0.433012701892222 0.750000000000007 0.499999999999988
outer loop
vertex 381.767997189164 154.671635532124 19.6500000000047
vertex 380.160821909726 153.45534477278 20.2529523872484
vertex 381.892872717295 154.45534477278 20.2529523872484
endloop
endfacet
facet normal -0.499999999999999 0.866025403784439 -2.58422186973771e-16
outer loop
vertex 380.203414626864 153.381572022663 20.9000000000047
vertex 381.892872717295 154.45534477278 20.2529523872484
vertex 380.160821909726 153.45534477278 20.2529523872484
endloop
endfacet
facet normal -0.482962913144534 0.83651630373781 0.258819045102513
outer loop
vertex 381.892872717295 154.45534477278 20.2529523872484
vertex 380.203414626864 153.381572022663 20.9000000000047
vertex 381.935465434433 154.381572022663 20.9000000000047
endloop
endfacet
facet normal -0.482962913144534 0.83651630373781 -0.258819045102513
outer loop
vertex 380.160821909726 153.45534477278 21.547047612761
vertex 381.935465434433 154.381572022663 20.9000000000047
vertex 380.203414626864 153.381572022663 20.9000000000047
endloop
endfacet
facet normal -0.499999999999999 0.866025403784439 -2.67333296869406e-16
outer loop
vertex 381.935465434433 154.381572022663 20.9000000000047
vertex 380.160821909726 153.45534477278 21.547047612761
vertex 381.892872717295 154.45534477278 21.547047612761
endloop
endfacet
facet normal -0.433012701892217 0.749999999999999 -0.500000000000003
outer loop
vertex 380.035946381595 153.671635532124 22.1500000000047
vertex 381.892872717295 154.45534477278 21.547047612761
vertex 380.160821909726 153.45534477278 21.547047612761
endloop
endfacet
facet normal -0.482962913144534 0.83651630373781 -0.258819045102513
outer loop
vertex 381.892872717295 154.45534477278 21.547047612761
vertex 380.035946381595 153.671635532124 22.1500000000047
vertex 381.767997189164 154.671635532124 22.1500000000047
endloop
endfacet
facet normal -0.353553390593266 0.612372435695785 -0.707106781186559
outer loop
vertex 379.837298103347 154.015704442885 22.6677669529711
vertex 381.767997189164 154.671635532124 22.1500000000047
vertex 380.035946381595 153.671635532124 22.1500000000047
endloop
endfacet
facet normal -0.433012701892218 0.75 -0.500000000000001
outer loop
vertex 381.767997189164 154.671635532124 22.1500000000047
vertex 379.837298103347 154.015704442885 22.6677669529711
vertex 381.569348910916 155.015704442885 22.6677669529711
endloop
endfacet
facet normal -0.25 0.433012701892222 -0.866025403784437
outer loop
vertex 381.310465434433 155.464103777393 23.0650635094658
vertex 379.837298103347 154.015704442885 22.6677669529711
vertex 379.578414626864 154.464103777394 23.0650635094658
endloop
endfacet
facet normal -0.353553390593266 0.612372435695785 -0.707106781186559
outer loop
vertex 379.837298103347 154.015704442885 22.6677669529711
vertex 381.310465434433 155.464103777393 23.0650635094658
vertex 381.569348910916 155.015704442885 22.6677669529711
endloop
endfacet
facet normal -0.12940952255126 0.224143868042016 -0.965925826289068
outer loop
vertex 381.008989240811 155.986275862019 23.3148145657274
vertex 379.578414626864 154.464103777394 23.0650635094658
vertex 379.276938433242 154.986275862019 23.3148145657274
endloop
endfacet
facet normal -0.249999999999996 0.433012701892216 -0.866025403784441
outer loop
vertex 379.578414626864 154.464103777394 23.0650635094658
vertex 381.008989240811 155.986275862019 23.3148145657274
vertex 381.310465434433 155.464103777393 23.0650635094658
endloop
endfacet
facet normal 2.65105519395496e-15 -2.51293299057243e-15 -1.0
outer loop
vertex 380.685465434433 156.546635532124 81.2000000000045
vertex 379.276938433242 154.986275862019 81.1148145657272
vertex 378.953414626864 155.546635532124 81.2000000000045
endloop
endfacet
facet normal -0.129409522551259 0.224143868042014 -0.965925826289068
outer loop
vertex 379.276938433242 154.986275862019 81.1148145657272
vertex 380.685465434433 156.546635532124 81.2000000000045
vertex 381.008989240811 155.986275862019 81.1148145657272
endloop
endfacet
facet normal 0.12940952255126 -0.224143868042012 -0.965925826289069
outer loop
vertex 380.361941628055 157.106995202229 81.1148145657272
vertex 378.953414626864 155.546635532124 81.2000000000045
vertex 378.629890820486 156.106995202229 81.1148145657272
endloop
endfacet
facet normal 3.3817662053981e-15 -3.7783105957544e-15 -1.0
outer loop
vertex 378.953414626864 155.546635532124 81.2000000000045
vertex 380.361941628055 157.106995202229 81.1148145657272
vertex 380.685465434433 156.546635532124 81.2000000000045
endloop
endfacet
facet normal 0.250000000000001 -0.43301270189222 -0.866025403784438
outer loop
vertex 380.060465434433 157.629167286855 80.8650635094656
vertex 378.629890820486 156.106995202229 81.1148145657272
vertex 378.328414626864 156.629167286855 80.8650635094656
endloop
endfacet
facet normal 0.129409522551263 -0.224143868042017 -0.965925826289067
outer loop
vertex 378.629890820486 156.106995202229 81.1148145657272
vertex 380.060465434433 157.629167286855 80.8650635094656
vertex 380.361941628055 157.106995202229 81.1148145657272
endloop
endfacet
facet normal 0.353553390593269 -0.612372435695786 -0.707106781186557
outer loop
vertex 379.80158195795 158.077566621364 80.4677669529709
vertex 378.328414626864 156.629167286855 80.8650635094656
vertex 378.069531150381 157.077566621363 80.4677669529709
endloop
endfacet
facet normal 0.25 -0.433012701892219 -0.866025403784439
outer loop
vertex 378.328414626864 156.629167286855 80.8650635094656
vertex 379.80158195795 158.077566621364 80.4677669529709
vertex 380.060465434433 157.629167286855 80.8650635094656
endloop
endfacet
facet normal 0.353553390593269 -0.612372435695786 -0.707106781186557
outer loop
vertex 379.80158195795 158.077566621364 80.4677669529709
vertex 377.870882872134 157.421635532124 79.9500000000045
vertex 379.602933679703 158.421635532124 79.9500000000045
endloop
endfacet
facet normal 0.433012701892218 -0.749999999999998 -0.500000000000004
outer loop
vertex 377.870882872134 157.421635532124 79.9500000000045
vertex 379.80158195795 158.077566621364 80.4677669529709
vertex 378.069531150381 157.077566621363 80.4677669529709
endloop
endfacet
facet normal 0.433012701892217 -0.749999999999997 -0.500000000000007
outer loop
vertex 379.602933679703 158.421635532124 79.9500000000045
vertex 377.746007344003 157.637926291469 79.3470476127608
vertex 379.478058151572 158.637926291469 79.3470476127608
endloop
endfacet
facet normal 0.482962913144534 -0.83651630373781 -0.258819045102514
outer loop
vertex 377.746007344003 157.637926291469 79.3470476127608
vertex 379.602933679703 158.421635532124 79.9500000000045
vertex 377.870882872134 157.421635532124 79.9500000000045
endloop
endfacet
facet normal 0.482962913144534 -0.836516303737809 -0.258819045102517
outer loop
vertex 379.478058151572 158.637926291469 79.3470476127608
vertex 377.703414626864 157.711699041585 78.7000000000045
vertex 379.435465434433 158.711699041585 78.7000000000045
endloop
endfacet
facet normal 0.499999999999999 -0.866025403784439 2.67333296869407e-17
outer loop
vertex 377.703414626864 157.711699041585 78.7000000000045
vertex 379.478058151572 158.637926291469 79.3470476127608
vertex 377.746007344003 157.637926291469 79.3470476127608
endloop
endfacet
facet normal 0.499999999999999 -0.866025403784439 3.56444395825874e-17
outer loop
vertex 379.435465434433 158.711699041585 78.7000000000045
vertex 377.746007344003 157.637926291469 78.0529523872482
vertex 379.478058151572 158.637926291469 78.0529523872482
endloop
endfacet
facet normal 0.482962913144534 -0.83651630373781 0.258819045102514
outer loop
vertex 377.746007344003 157.637926291469 78.0529523872482
vertex 379.435465434433 158.711699041585 78.7000000000045
vertex 377.703414626864 157.711699041585 78.7000000000045
endloop
endfacet
facet normal -9.34655727016396e-15 -5.3962373559254e-15 -1.0
outer loop
vertex 379.559632409511 152.496635532127 82.0000000000067
vertex 377.891236800374 143.38638149428 82.0000000000068
vertex 374.363479986806 149.496635532128 82.0000000000068
endloop
endfacet
facet normal -9.34655727016396e-15 -5.3962373559254e-15 -1.0
outer loop
vertex 377.891236800374 143.38638149428 82.0000000000068
vertex 379.559632409511 152.496635532127 82.0000000000067
vertex 383.08738922308 146.38638149428 82.0000000000067
endloop
endfacet
facet normal 0.250000000000002 -0.433012701892226 0.866025403784435
outer loop
vertex 378.328414626864 156.629167286855 76.5349364905434
vertex 379.80158195795 158.077566621364 76.9322330470381
vertex 378.069531150381 157.077566621364 76.9322330470381
endloop
endfacet
facet normal 0.353553390593277 -0.612372435695803 0.707106781186538
outer loop
vertex 379.80158195795 158.077566621364 76.9322330470381
vertex 378.328414626864 156.629167286855 76.5349364905434
vertex 380.060465434433 157.629167286855 76.5349364905434
endloop
endfacet
facet normal 0.129409522551258 -0.224143868042013 0.965925826289069
outer loop
vertex 378.629890820486 156.106995202229 76.2851854342818
vertex 380.060465434433 157.629167286855 76.5349364905434
vertex 378.328414626864 156.629167286855 76.5349364905434
endloop
endfacet
facet normal 0.250000000000001 -0.433012701892225 0.866025403784435
outer loop
vertex 380.060465434433 157.629167286855 76.5349364905434
vertex 378.629890820486 156.106995202229 76.2851854342818
vertex 380.361941628055 157.106995202229 76.2851854342818
endloop
endfacet
facet normal -1.03368874789502e-15 -2.94066626556341e-16 1.0
outer loop
vertex 378.953414626864 155.546635532124 76.2000000000045
vertex 380.361941628055 157.106995202229 76.2851854342818
vertex 378.629890820486 156.106995202229 76.2851854342818
endloop
endfacet
facet normal 0.129409522551259 -0.224143868042014 0.965925826289068
outer loop
vertex 380.361941628055 157.106995202229 76.2851854342818
vertex 378.953414626864 155.546635532124 76.2000000000045
vertex 380.685465434433 156.546635532124 76.2000000000045
endloop
endfacet
facet normal -0.129409522551259 0.22414386804201 0.965925826289069
outer loop
vertex 379.276938433242 154.986275862019 76.2851854342818
vertex 380.685465434433 156.546635532124 76.2000000000045
vertex 378.953414626864 155.546635532124 76.2000000000045
endloop
endfacet
facet normal -1.93371084735539e-15 1.27428871507752e-15 1.0
outer loop
vertex 380.685465434433 156.546635532124 76.2000000000045
vertex 379.276938433242 154.986275862019 76.2851854342818
vertex 381.008989240811 155.986275862019 76.2851854342818
endloop
endfacet
facet normal -0.249999999999998 0.433012701892215 0.866025403784441
outer loop
vertex 379.578414626864 154.464103777394 76.5349364905434
vertex 381.008989240811 155.986275862019 76.2851854342818
vertex 379.276938433242 154.986275862019 76.2851854342818
endloop
endfacet
facet normal -0.129409522551262 0.224143868042015 0.965925826289068
outer loop
vertex 381.008989240811 155.986275862019 76.2851854342818
vertex 379.578414626864 154.464103777394 76.5349364905434
vertex 381.310465434433 155.464103777393 76.5349364905434
endloop
endfacet
facet normal 0.250000000000001 -0.433012701892221 -0.866025403784438
outer loop
vertex 376.788351117403 159.296635532124 23.4000000000047
vertex 378.08738922308 155.046635532124 25.9000000000047
vertex 375.922325713619 158.796635532124 23.4000000000047
endloop
endfacet
facet normal 0.250000000000001 -0.433012701892221 -0.866025403784438
outer loop
vertex 378.08738922308 155.046635532124 25.9000000000047
vertex 376.788351117403 159.296635532124 23.4000000000047
vertex 378.953414626864 155.546635532124 25.9000000000047
endloop
endfacet
facet normal -0.249999999999999 0.433012701892221 -0.866025403784438
outer loop
vertex 378.953414626864 155.546635532124 25.9000000000047
vertex 380.252452732541 151.296635532124 23.4000000000047
vertex 378.08738922308 155.046635532124 25.9000000000047
endloop
endfacet
facet normal -0.249999999999999 0.433012701892221 -0.866025403784438
outer loop
vertex 380.252452732541 151.296635532124 23.4000000000047
vertex 378.953414626864 155.546635532124 25.9000000000047
vertex 381.118478136325 151.796635532124 23.4000000000047
endloop
endfacet
facet normal 0.499999999999998 -0.86602540378444 1.77333480140824e-15
outer loop
vertex 305.14510288248 101.386381494279 26.8000000000084
vertex 306.877153690049 102.38638149428 28.8000000000085
vertex 305.145102882478 101.386381494278 72.7999999999989
endloop
endfacet
facet normal 0.499999999999998 -0.86602540378444 1.77333480140824e-15
outer loop
vertex 306.877153690049 102.38638149428 28.8000000000085
vertex 305.14510288248 101.386381494279 26.8000000000084
vertex 383.08738922308 146.386381494279 28.8000000000046
endloop
endfacet
facet normal 0.499999999999998 -0.86602540378444 1.77333480140824e-15
outer loop
vertex 305.145102882478 101.386381494278 72.7999999999989
vertex 306.877153690049 102.38638149428 28.8000000000085
vertex 306.877153690051 102.386381494281 70.7999999999988
endloop
endfacet
facet normal 0.499999999999998 -0.86602540378444 1.77333480140824e-15
outer loop
vertex 305.145102882478 101.386381494278 72.7999999999989
vertex 306.877153690051 102.386381494281 70.7999999999988
vertex 383.08738922308 146.38638149428 70.8000000000046
endloop
endfacet
facet normal 0.499999999999998 -0.86602540378444 1.77333480140824e-15
outer loop
vertex 385.685465434433 147.88638149428 10.0000000000047
vertex 377.891236800376 143.386381494281 12.6000000000075
vertex 377.891236800376 143.386381494281 10.0000000000045
endloop
endfacet
facet normal 0.499999999999998 -0.86602540378444 1.77333480140824e-15
outer loop
vertex 377.891236800376 143.386381494281 12.6000000000075
vertex 385.685465434433 147.88638149428 10.0000000000047
vertex 383.08738922308 146.38638149428 12.6000000000078
endloop
endfacet
facet normal 0.499999999999998 -0.86602540378444 1.77333480140824e-15
outer loop
vertex 383.08738922308 146.38638149428 12.6000000000078
vertex 385.685465434433 147.88638149428 10.0000000000047
vertex 385.685465434433 147.88638149428 89.6000000000045
endloop
endfacet
facet normal 0.499999999999998 -0.86602540378444 1.77333480140824e-15
outer loop
vertex 383.08738922308 146.38638149428 12.6000000000078
vertex 385.685465434433 147.88638149428 89.6000000000045
vertex 383.08738922308 146.386381494279 26.8000000000044
endloop
endfacet
facet normal 0.499999999999998 -0.86602540378444 1.77333480140824e-15
outer loop
vertex 383.08738922308 146.386381494279 26.8000000000044
vertex 385.685465434433 147.88638149428 89.6000000000045
vertex 383.08738922308 146.386381494279 28.8000000000046
endloop
endfacet
facet normal 0.499999999999998 -0.86602540378444 1.77333480140824e-15
outer loop
vertex 383.08738922308 146.386381494279 26.8000000000044
vertex 383.08738922308 146.386381494279 28.8000000000046
vertex 305.14510288248 101.386381494279 26.8000000000084
endloop
endfacet
facet normal 0.499999999999998 -0.86602540378444 1.77333480140824e-15
outer loop
vertex 383.08738922308 146.386381494279 28.8000000000046
vertex 385.685465434433 147.88638149428 89.6000000000045
vertex 383.08738922308 146.38638149428 70.8000000000046
endloop
endfacet
facet normal 0.499999999999998 -0.86602540378444 1.77333480140824e-15
outer loop
vertex 383.08738922308 146.38638149428 70.8000000000046
vertex 385.685465434433 147.88638149428 89.6000000000045
vertex 383.08738922308 146.38638149428 72.8000000000048
endloop
endfacet
facet normal 0.499999999999998 -0.86602540378444 1.77333480140824e-15
outer loop
vertex 383.08738922308 146.38638149428 70.8000000000046
vertex 383.08738922308 146.38638149428 72.8000000000048
vertex 305.145102882478 101.386381494278 72.7999999999989
endloop
endfacet
facet normal 0.499999999999998 -0.86602540378444 1.77333480140824e-15
outer loop
vertex 383.08738922308 146.38638149428 72.8000000000048
vertex 385.685465434433 147.88638149428 89.6000000000045
vertex 383.08738922308 146.38638149428 82.0000000000067
endloop
endfacet
facet normal 0.499999999999998 -0.86602540378444 1.77333480140824e-15
outer loop
vertex 383.08738922308 146.38638149428 82.0000000000067
vertex 385.685465434433 147.88638149428 89.6000000000045
vertex 383.08738922308 146.38638149428 86.0000000000056
endloop
endfacet
facet normal 0.499999999999998 -0.86602540378444 1.77333480140824e-15
outer loop
vertex 383.08738922308 146.38638149428 82.0000000000067
vertex 383.08738922308 146.38638149428 86.0000000000056
vertex 377.891236800374 143.38638149428 82.0000000000068
endloop
endfacet
facet normal 0.499999999999998 -0.86602540378444 1.77333480140824e-15
outer loop
vertex 383.08738922308 146.38638149428 86.0000000000056
vertex 385.685465434433 147.88638149428 89.6000000000045
vertex 383.08738922308 146.38638149428 89.6000000000045
endloop
endfacet
facet normal 0.499999999999998 -0.86602540378444 1.77333480140824e-15
outer loop
vertex 377.891236800374 143.38638149428 86.0000000000057
vertex 377.891236800374 143.38638149428 82.0000000000068
vertex 383.08738922308 146.38638149428 86.0000000000056
endloop
endfacet
facet normal 8.78256397365438e-15 6.37310240060825e-15 1.0
outer loop
vertex 377.891236800374 143.38638149428 86.0000000000057
vertex 373.08738922308 163.706889569968 86.0000000000056
vertex 367.891236800374 160.706889569969 86.0000000000056
endloop
endfacet
facet normal 8.78256397365438e-15 6.37310240060825e-15 1.0
outer loop
vertex 373.08738922308 163.706889569968 86.0000000000056
vertex 377.891236800374 143.38638149428 86.0000000000057
vertex 383.08738922308 146.38638149428 86.0000000000056
endloop
endfacet
facet normal -9.34655727016395e-15 -5.39623735592543e-15 -1.0
outer loop
vertex 373.08738922308 163.706889569968 82.0000000000067
vertex 371.418993613942 154.596635532121 82.0000000000068
vertex 367.891236800374 160.706889569969 82.0000000000068
endloop
endfacet
facet normal -9.34655727016395e-15 -5.39623735592543e-15 -1.0
outer loop
vertex 371.418993613942 154.596635532121 82.0000000000068
vertex 373.08738922308 163.706889569968 82.0000000000067
vertex 376.615146036648 157.596635532121 82.0000000000067
endloop
endfacet
facet normal 0.249999999999992 -0.433012701892225 -0.866025403784438
outer loop
vertex 376.615146036648 157.596635532121 82.0000000000067
vertex 372.891236800374 152.046635532124 83.7000000000046
vertex 371.418993613942 154.596635532121 82.0000000000068
endloop
endfacet
facet normal 0.249999999999992 -0.433012701892225 -0.866025403784438
outer loop
vertex 372.891236800374 152.046635532124 83.7000000000046
vertex 376.615146036648 157.596635532121 82.0000000000067
vertex 378.08738922308 155.046635532124 83.7000000000045
endloop
endfacet
facet normal -0.25000000000001 0.43301270189222 -0.866025403784436
outer loop
vertex 378.08738922308 155.046635532124 83.7000000000045
vertex 374.363479986806 149.496635532128 82.0000000000068
vertex 372.891236800374 152.046635532124 83.7000000000046
endloop
endfacet
facet normal -0.25000000000001 0.43301270189222 -0.866025403784436
outer loop
vertex 374.363479986806 149.496635532128 82.0000000000068
vertex 378.08738922308 155.046635532124 83.7000000000045
vertex 379.559632409511 152.496635532127 82.0000000000067
endloop
endfacet
facet normal 0.250000000000001 -0.433012701892221 -0.866025403784437
outer loop
vertex 380.060465434433 157.629167286855 23.0650635094658
vertex 378.629890820486 156.106995202229 23.3148145657274
vertex 378.328414626864 156.629167286855 23.0650635094658
endloop
endfacet
facet normal 0.129409522551258 -0.224143868042008 -0.96592582628907
outer loop
vertex 378.629890820486 156.106995202229 23.3148145657274
vertex 380.060465434433 157.629167286855 23.0650635094658
vertex 380.361941628055 157.106995202229 23.3148145657274
endloop
endfacet
facet normal -0.499999999999999 0.866025403784439 0.0
outer loop
vertex 380.252452732541 151.296635532124 23.4000000000047
vertex 381.118478136325 151.796635532124 18.4000000000047
vertex 380.252452732541 151.296635532124 18.4000000000047
endloop
endfacet
facet normal -0.499999999999999 0.866025403784439 0.0
outer loop
vertex 381.118478136325 151.796635532124 18.4000000000047
vertex 380.252452732541 151.296635532124 23.4000000000047
vertex 381.118478136325 151.796635532124 23.4000000000047
endloop
endfacet
facet normal -0.250000000000001 0.43301270189222 0.866025403784438
outer loop
vertex 380.252452732541 151.296635532124 18.4000000000047
vertex 378.953414626864 155.546635532124 15.9000000000047
vertex 378.08738922308 155.046635532124 15.9000000000047
endloop
endfacet
facet normal -0.250000000000001 0.43301270189222 0.866025403784438
outer loop
vertex 378.953414626864 155.546635532124 15.9000000000047
vertex 380.252452732541 151.296635532124 18.4000000000047
vertex 381.118478136325 151.796635532124 18.4000000000047
endloop
endfacet
facet normal 0.249999999999999 -0.433012701892221 0.866025403784438
outer loop
vertex 378.08738922308 155.046635532124 15.9000000000047
vertex 376.788351117403 159.296635532124 18.4000000000047
vertex 375.922325713619 158.796635532124 18.4000000000047
endloop
endfacet
facet normal 0.249999999999999 -0.433012701892221 0.866025403784438
outer loop
vertex 376.788351117403 159.296635532124 18.4000000000047
vertex 378.08738922308 155.046635532124 15.9000000000047
vertex 378.953414626864 155.546635532124 15.9000000000047
endloop
endfacet
facet normal 0.499999999999999 -0.866025403784439 0.0
outer loop
vertex 376.788351117403 159.296635532124 23.4000000000047
vertex 375.922325713619 158.796635532124 18.4000000000047
vertex 376.788351117403 159.296635532124 18.4000000000047
endloop
endfacet
facet normal 0.499999999999999 -0.866025403784439 0.0
outer loop
vertex 375.922325713619 158.796635532124 18.4000000000047
vertex 376.788351117403 159.296635532124 23.4000000000047
vertex 375.922325713619 158.796635532124 23.4000000000047
endloop
endfacet
facet normal -0.250000000000061 0.433012701892187 -0.866025403784437
outer loop
vertex 378.953414626864 155.546635532124 83.7000000000045
vertex 379.559632409511 152.496635532127 82.0000000000067
vertex 378.08738922308 155.046635532124 83.7000000000045
endloop
endfacet
facet normal -0.250000000000061 0.433012701892187 -0.866025403784437
outer loop
vertex 379.559632409511 152.496635532127 82.0000000000067
vertex 378.953414626864 155.546635532124 83.7000000000045
vertex 381.118478136325 151.796635532124 81.2000000000045
endloop
endfacet
facet normal -0.250000000000061 0.433012701892187 -0.866025403784437
outer loop
vertex 379.559632409511 152.496635532127 82.0000000000067
vertex 381.118478136325 151.796635532124 81.2000000000045
vertex 380.252452732541 151.296635532124 81.2000000000045
endloop
endfacet
facet normal -0.499999999999999 0.866025403784439 0.0
outer loop
vertex 380.252452732541 151.296635532124 81.2000000000045
vertex 381.118478136325 151.796635532124 76.2000000000045
vertex 380.252452732541 151.296635532124 76.2000000000045
endloop
endfacet
facet normal -0.499999999999999 0.866025403784439 0.0
outer loop
vertex 381.118478136325 151.796635532124 76.2000000000045
vertex 380.252452732541 151.296635532124 81.2000000000045
vertex 381.118478136325 151.796635532124 81.2000000000045
endloop
endfacet
facet normal -0.250000000000001 0.433012701892221 0.866025403784437
outer loop
vertex 380.252452732541 151.296635532124 76.2000000000045
vertex 378.953414626864 155.546635532124 73.7000000000045
vertex 378.08738922308 155.046635532124 73.7000000000045
endloop
endfacet
facet normal -0.250000000000001 0.433012701892221 0.866025403784437
outer loop
vertex 378.953414626864 155.546635532124 73.7000000000045
vertex 380.252452732541 151.296635532124 76.2000000000045
vertex 381.118478136325 151.796635532124 76.2000000000045
endloop
endfacet
facet normal 0.249999999999999 -0.433012701892221 0.866025403784438
outer loop
vertex 378.08738922308 155.046635532124 73.7000000000045
vertex 376.788351117403 159.296635532124 76.2000000000045
vertex 375.922325713619 158.796635532124 76.2000000000045
endloop
endfacet
facet normal 0.249999999999999 -0.433012701892221 0.866025403784438
outer loop
vertex 376.788351117403 159.296635532124 76.2000000000045
vertex 378.08738922308 155.046635532124 73.7000000000045
vertex 378.953414626864 155.546635532124 73.7000000000045
endloop
endfacet
facet normal 0.499999999999999 -0.866025403784439 0.0
outer loop
vertex 376.788351117403 159.296635532124 81.2000000000045
vertex 375.922325713619 158.796635532124 76.2000000000045
vertex 376.788351117403 159.296635532124 76.2000000000045
endloop
endfacet
facet normal 0.499999999999999 -0.866025403784439 0.0
outer loop
vertex 375.922325713619 158.796635532124 76.2000000000045
vertex 376.788351117403 159.296635532124 81.2000000000045
vertex 375.922325713619 158.796635532124 81.2000000000045
endloop
endfacet
facet normal 0.250000000000053 -0.433012701892193 -0.866025403784436
outer loop
vertex 376.788351117403 159.296635532124 81.2000000000045
vertex 376.615146036648 157.596635532121 82.0000000000067
vertex 375.922325713619 158.796635532124 81.2000000000045
endloop
endfacet
facet normal 0.250000000000053 -0.433012701892193 -0.866025403784436
outer loop
vertex 376.615146036648 157.596635532121 82.0000000000067
vertex 376.788351117403 159.296635532124 81.2000000000045
vertex 378.08738922308 155.046635532124 83.7000000000045
endloop
endfacet
facet normal 0.250000000000053 -0.433012701892193 -0.866025403784436
outer loop
vertex 378.08738922308 155.046635532124 83.7000000000045
vertex 376.788351117403 159.296635532124 81.2000000000045
vertex 378.953414626864 155.546635532124 83.7000000000045
endloop
endfacet
facet normal -0.866025403784437 -0.500000000000003 3.74108930167119e-15
outer loop
vertex 383.08738922308 146.38638149428 70.8000000000046
vertex 373.08738922308 163.706889569968 28.8000000000046
vertex 383.08738922308 146.386381494279 28.8000000000046
endloop
endfacet
facet normal -0.866025403784437 -0.500000000000003 3.74108930167119e-15
outer loop
vertex 373.08738922308 163.706889569968 28.8000000000046
vertex 383.08738922308 146.38638149428 70.8000000000046
vertex 373.08738922308 163.706889569968 70.8000000000046
endloop
endfacet
facet normal -4.44998738336438e-14 -1.26671468743205e-14 -1.0
outer loop
vertex 373.08738922308 163.706889569968 26.8000000000046
vertex 305.14510288248 101.386381494279 26.8000000000084
vertex 295.14510288248 118.706889569968 26.8000000000086
endloop
endfacet
facet normal -4.44998738336438e-14 -1.26671468743205e-14 -1.0
outer loop
vertex 305.14510288248 101.386381494279 26.8000000000084
vertex 373.08738922308 163.706889569968 26.8000000000046
vertex 383.08738922308 146.386381494279 26.8000000000044
endloop
endfacet
facet normal 3.71568070726894e-14 2.38946551773508e-14 1.0
outer loop
vertex 306.877153690049 102.38638149428 28.8000000000085
vertex 373.08738922308 163.706889569968 28.8000000000046
vertex 296.87715369005 119.706889569969 28.8000000000084
endloop
endfacet
facet normal 3.71568070726894e-14 2.38946551773508e-14 1.0
outer loop
vertex 373.08738922308 163.706889569968 28.8000000000046
vertex 306.877153690049 102.38638149428 28.8000000000085
vertex 383.08738922308 146.386381494279 28.8000000000046
endloop
endfacet
facet normal -0.866025403784441 -0.499999999999995 -5.98692427041764e-14
outer loop
vertex 295.145102882478 118.706889569967 72.7999999999987
vertex 305.14510288248 101.386381494279 26.8000000000084
vertex 305.145102882478 101.386381494278 72.7999999999989
endloop
endfacet
facet normal -0.866025403784441 -0.499999999999995 -5.98692427041764e-14
outer loop
vertex 305.14510288248 101.386381494279 26.8000000000084
vertex 295.145102882478 118.706889569967 72.7999999999987
vertex 295.14510288248 118.706889569968 26.8000000000086
endloop
endfacet
facet normal -6.24734738284724e-14 -2.30442096696412e-14 1.0
outer loop
vertex 305.145102882478 101.386381494278 72.7999999999989
vertex 373.08738922308 163.706889569968 72.8000000000046
vertex 295.145102882478 118.706889569967 72.7999999999987
endloop
endfacet
facet normal -6.24734738284724e-14 -2.30442096696412e-14 1.0
outer loop
vertex 373.08738922308 163.706889569968 72.8000000000046
vertex 305.145102882478 101.386381494278 72.7999999999989
vertex 383.08738922308 146.38638149428 72.8000000000048
endloop
endfacet
facet normal 5.80147965370012e-14 3.1541128308252e-14 -1.0
outer loop
vertex 373.08738922308 163.706889569968 70.8000000000046
vertex 306.877153690051 102.386381494281 70.7999999999988
vertex 296.877153690051 119.70688956997 70.7999999999988
endloop
endfacet
facet normal 5.80147965370012e-14 3.1541128308252e-14 -1.0
outer loop
vertex 306.877153690051 102.386381494281 70.7999999999988
vertex 373.08738922308 163.706889569968 70.8000000000046
vertex 383.08738922308 146.38638149428 70.8000000000046
endloop
endfacet
facet normal 0.866025403784456 0.499999999999971 -4.44451126376651e-14
outer loop
vertex 296.87715369005 119.706889569969 28.8000000000084
vertex 306.877153690051 102.386381494281 70.7999999999988
vertex 306.877153690049 102.38638149428 28.8000000000085
endloop
endfacet
facet normal 0.866025403784456 0.499999999999971 -4.44451126376651e-14
outer loop
vertex 306.877153690051 102.386381494281 70.7999999999988
vertex 296.87715369005 119.706889569969 28.8000000000084
vertex 296.877153690051 119.70688956997 70.7999999999988
endloop
endfacet
facet normal -0.866025403784438 -0.500000000000001 -1.22317384874404e-14
outer loop
vertex 383.08738922308 146.386381494279 26.8000000000044
vertex 380.252452732541 151.296635532124 23.4000000000047
vertex 383.08738922308 146.38638149428 12.6000000000078
endloop
endfacet
facet normal -0.866025403784438 -0.500000000000001 -1.22317384874404e-14
outer loop
vertex 380.252452732541 151.296635532124 23.4000000000047
vertex 383.08738922308 146.386381494279 26.8000000000044
vertex 378.08738922308 155.046635532124 25.9000000000047
endloop
endfacet
facet normal -0.866025403784438 -0.500000000000001 -1.22317384874404e-14
outer loop
vertex 378.08738922308 155.046635532124 25.9000000000047
vertex 383.08738922308 146.386381494279 26.8000000000044
vertex 373.08738922308 163.706889569968 26.8000000000046
endloop
endfacet
facet normal -0.866025403784438 -0.500000000000001 -1.22317384874404e-14
outer loop
vertex 378.08738922308 155.046635532124 25.9000000000047
vertex 373.08738922308 163.706889569968 26.8000000000046
vertex 375.922325713619 158.796635532124 23.4000000000047
endloop
endfacet
facet normal -0.866025403784438 -0.500000000000001 -1.22317384874404e-14
outer loop
vertex 375.922325713619 158.796635532124 23.4000000000047
vertex 373.08738922308 163.706889569968 26.8000000000046
vertex 375.922325713619 158.796635532124 18.4000000000047
endloop
endfacet
facet normal -0.866025403784438 -0.500000000000001 -1.22317384874404e-14
outer loop
vertex 383.08738922308 146.38638149428 12.6000000000078
vertex 378.08738922308 155.046635532124 15.9000000000047
vertex 373.08738922308 163.706889569968 12.6000000000069
endloop
endfacet
facet normal -0.866025403784438 -0.500000000000001 -1.22317384874404e-14
outer loop
vertex 378.08738922308 155.046635532124 15.9000000000047
vertex 383.08738922308 146.38638149428 12.6000000000078
vertex 380.252452732541 151.296635532124 18.4000000000047
endloop
endfacet
facet normal -0.866025403784438 -0.500000000000001 -1.22317384874404e-14
outer loop
vertex 380.252452732541 151.296635532124 18.4000000000047
vertex 383.08738922308 146.38638149428 12.6000000000078
vertex 380.252452732541 151.296635532124 23.4000000000047
endloop
endfacet
facet normal -0.866025403784438 -0.500000000000001 -1.22317384874404e-14
outer loop
vertex 373.08738922308 163.706889569968 12.6000000000069
vertex 378.08738922308 155.046635532124 15.9000000000047
vertex 375.922325713619 158.796635532124 18.4000000000047
endloop
endfacet
facet normal -0.866025403784438 -0.500000000000001 -1.22317384874404e-14
outer loop
vertex 373.08738922308 163.706889569968 12.6000000000069
vertex 375.922325713619 158.796635532124 18.4000000000047
vertex 373.08738922308 163.706889569968 26.8000000000046
endloop
endfacet
facet normal -0.866025403784439 -0.5 -3.44064516267958e-14
outer loop
vertex 367.891236800376 160.70688956997 12.6000000000066
vertex 377.891236800376 143.386381494281 10.0000000000045
vertex 377.891236800376 143.386381494281 12.6000000000075
endloop
endfacet
facet normal -0.866025403784439 -0.5 -3.44064516267958e-14
outer loop
vertex 377.891236800376 143.386381494281 10.0000000000045
vertex 367.891236800376 160.70688956997 12.6000000000066
vertex 367.891236800376 160.70688956997 10.0000000000045
endloop
endfacet
facet normal -5.23918426043006e-14 2.19324300392087e-14 1.0
outer loop
vertex 377.891236800376 143.386381494281 12.6000000000075
vertex 373.08738922308 163.706889569968 12.6000000000069
vertex 367.891236800376 160.70688956997 12.6000000000066
endloop
endfacet
facet normal -5.23918426043006e-14 2.19324300392087e-14 1.0
outer loop
vertex 373.08738922308 163.706889569968 12.6000000000069
vertex 377.891236800376 143.386381494281 12.6000000000075
vertex 383.08738922308 146.38638149428 12.6000000000078
endloop
endfacet
facet normal -0.866025403784439 -0.499999999999999 5.92449713535674e-15
outer loop
vertex 379.559632409511 152.496635532127 82.0000000000067
vertex 380.252452732541 151.296635532124 81.2000000000045
vertex 383.08738922308 146.38638149428 82.0000000000067
endloop
endfacet
facet normal -0.866025403784439 -0.499999999999999 5.92449713535674e-15
outer loop
vertex 373.08738922308 163.706889569968 82.0000000000067
vertex 375.922325713619 158.796635532124 81.2000000000045
vertex 376.615146036648 157.596635532121 82.0000000000067
endloop
endfacet
facet normal -0.866025403784439 -0.499999999999999 5.92449713535674e-15
outer loop
vertex 375.922325713619 158.796635532124 81.2000000000045
vertex 373.08738922308 163.706889569968 82.0000000000067
vertex 375.922325713619 158.796635532124 76.2000000000045
endloop
endfacet
facet normal -0.866025403784439 -0.499999999999999 5.92449713535674e-15
outer loop
vertex 375.922325713619 158.796635532124 76.2000000000045
vertex 373.08738922308 163.706889569968 82.0000000000067
vertex 373.08738922308 163.706889569968 72.8000000000046
endloop
endfacet
facet normal -0.866025403784439 -0.499999999999999 5.92449713535674e-15
outer loop
vertex 383.08738922308 146.38638149428 72.8000000000048
vertex 378.08738922308 155.046635532124 73.7000000000045
vertex 373.08738922308 163.706889569968 72.8000000000046
endloop
endfacet
facet normal -0.866025403784439 -0.499999999999999 5.92449713535674e-15
outer loop
vertex 378.08738922308 155.046635532124 73.7000000000045
vertex 383.08738922308 146.38638149428 72.8000000000048
vertex 380.252452732541 151.296635532124 76.2000000000045
endloop
endfacet
facet normal -0.866025403784439 -0.499999999999999 5.92449713535674e-15
outer loop
vertex 380.252452732541 151.296635532124 76.2000000000045
vertex 383.08738922308 146.38638149428 72.8000000000048
vertex 383.08738922308 146.38638149428 82.0000000000067
endloop
endfacet
facet normal -0.866025403784439 -0.499999999999999 5.92449713535674e-15
outer loop
vertex 380.252452732541 151.296635532124 76.2000000000045
vertex 383.08738922308 146.38638149428 82.0000000000067
vertex 380.252452732541 151.296635532124 81.2000000000045
endloop
endfacet
facet normal -0.866025403784439 -0.499999999999999 5.92449713535674e-15
outer loop
vertex 373.08738922308 163.706889569968 72.8000000000046
vertex 378.08738922308 155.046635532124 73.7000000000045
vertex 375.922325713619 158.796635532124 76.2000000000045
endloop
endfacet
facet normal -0.866025403784439 -0.499999999999999 3.02967871034165e-14
outer loop
vertex 373.08738922308 163.706889569968 89.6000000000045
vertex 383.08738922308 146.38638149428 86.0000000000056
vertex 383.08738922308 146.38638149428 89.6000000000045
endloop
endfacet
facet normal -0.866025403784439 -0.499999999999999 3.02967871034165e-14
outer loop
vertex 383.08738922308 146.38638149428 86.0000000000056
vertex 373.08738922308 163.706889569968 89.6000000000045
vertex 373.08738922308 163.706889569968 86.0000000000056
endloop
endfacet
facet normal -0.866025403784439 -0.499999999999999 1.07924747118508e-14
outer loop
vertex 367.891236800374 160.706889569969 86.0000000000056
vertex 377.891236800374 143.38638149428 82.0000000000068
vertex 377.891236800374 143.38638149428 86.0000000000057
endloop
endfacet
facet normal -0.866025403784439 -0.499999999999999 1.07924747118508e-14
outer loop
vertex 377.891236800374 143.38638149428 82.0000000000068
vertex 367.891236800374 160.706889569969 86.0000000000056
vertex 372.891236800374 152.046635532124 83.7000000000046
endloop
endfacet
facet normal -0.866025403784439 -0.499999999999999 1.07924747118508e-14
outer loop
vertex 377.891236800374 143.38638149428 82.0000000000068
vertex 372.891236800374 152.046635532124 83.7000000000046
vertex 374.363479986806 149.496635532128 82.0000000000068
endloop
endfacet
facet normal -0.866025403784439 -0.499999999999999 1.07924747118508e-14
outer loop
vertex 372.891236800374 152.046635532124 83.7000000000046
vertex 367.891236800374 160.706889569969 86.0000000000056
vertex 371.418993613942 154.596635532121 82.0000000000068
endloop
endfacet
facet normal -0.866025403784439 -0.499999999999999 1.07924747118508e-14
outer loop
vertex 371.418993613942 154.596635532121 82.0000000000068
vertex 367.891236800374 160.706889569969 86.0000000000056
vertex 367.891236800374 160.706889569969 82.0000000000068
endloop
endfacet
facet normal 0.129409522551259 -0.22414386804201 -0.965925826289069
outer loop
vertex 380.361941628055 157.106995202229 23.3148145657274
vertex 378.953414626864 155.546635532124 23.4000000000047
vertex 378.629890820486 156.106995202229 23.3148145657274
endloop
endfacet
facet normal 1.83568863850322e-15 -1.10497762706019e-15 -1.0
outer loop
vertex 378.953414626864 155.546635532124 23.4000000000047
vertex 380.361941628055 157.106995202229 23.3148145657274
vertex 380.685465434433 156.546635532124 23.4000000000047
endloop
endfacet
facet normal -0.353553390593275 0.612372435695801 -0.707106781186542
outer loop
vertex 379.837298103347 154.015704442885 80.4677669529708
vertex 381.767997189164 154.671635532124 79.9500000000045
vertex 380.035946381595 153.671635532124 79.9500000000045
endloop
endfacet
facet normal -0.433012701892222 0.750000000000008 -0.499999999999986
outer loop
vertex 381.767997189164 154.671635532124 79.9500000000045
vertex 379.837298103347 154.015704442885 80.4677669529708
vertex 381.569348910916 155.015704442885 80.4677669529708
endloop
endfacet
facet normal -0.250000000000002 0.433012701892227 -0.866025403784434
outer loop
vertex 381.310465434433 155.464103777393 80.8650635094656
vertex 379.837298103347 154.015704442885 80.4677669529708
vertex 379.578414626864 154.464103777393 80.8650635094656
endloop
endfacet
facet normal -0.353553390593275 0.612372435695801 -0.707106781186542
outer loop
vertex 379.837298103347 154.015704442885 80.4677669529708
vertex 381.310465434433 155.464103777393 80.8650635094656
vertex 381.569348910916 155.015704442885 80.4677669529708
endloop
endfacet
facet normal -0.129409522551261 0.224143868042018 -0.965925826289067
outer loop
vertex 381.008989240811 155.986275862019 81.1148145657272
vertex 379.578414626864 154.464103777393 80.8650635094656
vertex 379.276938433242 154.986275862019 81.1148145657272
endloop
endfacet
facet normal -0.250000000000004 0.43301270189223 -0.866025403784432
outer loop
vertex 379.578414626864 154.464103777393 80.8650635094656
vertex 381.008989240811 155.986275862019 81.1148145657272
vertex 381.310465434433 155.464103777393 80.8650635094656
endloop
endfacet
facet normal 1.53183928761798e-17 2.04397958800654e-15 -1.0
outer loop
vertex 375.685465434433 165.206889569969 10.0000000000047
vertex 377.891236800376 143.386381494281 10.0000000000045
vertex 367.891236800376 160.70688956997 10.0000000000045
endloop
endfacet
facet normal 1.53183928761798e-17 2.04397958800654e-15 -1.0
outer loop
vertex 377.891236800376 143.386381494281 10.0000000000045
vertex 375.685465434433 165.206889569969 10.0000000000047
vertex 385.685465434433 147.88638149428 10.0000000000047
endloop
endfacet
facet normal -0.353553390593268 0.612372435695786 0.707106781186558
outer loop
vertex 379.837298103347 154.015704442885 76.9322330470381
vertex 381.310465434433 155.464103777393 76.5349364905434
vertex 379.578414626864 154.464103777394 76.5349364905434
endloop
endfacet
facet normal -0.250000000000001 0.43301270189222 0.866025403784438
outer loop
vertex 381.310465434433 155.464103777393 76.5349364905434
vertex 379.837298103347 154.015704442885 76.9322330470381
vertex 381.569348910916 155.015704442885 76.9322330470381
endloop
endfacet
facet normal -8.96557918672392e-16 -5.17627955689595e-16 1.0
outer loop
vertex 383.08738922308 146.38638149428 89.6000000000045
vertex 375.685465434433 165.206889569969 89.6000000000045
vertex 373.08738922308 163.706889569968 89.6000000000045
endloop
endfacet
facet normal -8.96557918672392e-16 -5.17627955689595e-16 1.0
outer loop
vertex 375.685465434433 165.206889569969 89.6000000000045
vertex 383.08738922308 146.38638149428 89.6000000000045
vertex 385.685465434433 147.88638149428 89.6000000000045
endloop
endfacet
facet normal 9.31210984095109e-16 4.54466604677996e-16 -1.0
outer loop
vertex 380.685465434433 156.546635532124 23.4000000000047
vertex 379.276938433242 154.986275862019 23.3148145657274
vertex 378.953414626864 155.546635532124 23.4000000000047
endloop
endfacet
facet normal -0.129409522551257 0.224143868042011 -0.965925826289069
outer loop
vertex 379.276938433242 154.986275862019 23.3148145657274
vertex 380.685465434433 156.546635532124 23.4000000000047
vertex 381.008989240811 155.986275862019 23.3148145657274
endloop
endfacet
facet normal -0.433012701892217 0.749999999999998 0.500000000000005
outer loop
vertex 380.035946381595 153.671635532124 77.4500000000045
vertex 381.569348910916 155.015704442885 76.9322330470381
vertex 379.837298103347 154.015704442885 76.9322330470381
endloop
endfacet
facet normal -0.353553390593268 0.612372435695784 0.70710678118656
outer loop
vertex 381.569348910916 155.015704442885 76.9322330470381
vertex 380.035946381595 153.671635532124 77.4500000000045
vertex 381.767997189164 154.671635532124 77.4500000000045
endloop
endfacet
facet normal -0.482962913144534 0.83651630373781 0.258819045102514
outer loop
vertex 380.160821909726 153.45534477278 78.0529523872482
vertex 381.767997189164 154.671635532124 77.4500000000045
vertex 380.035946381595 153.671635532124 77.4500000000045
endloop
endfacet
facet normal -0.433012701892218 0.749999999999999 0.500000000000002
outer loop
vertex 381.767997189164 154.671635532124 77.4500000000045
vertex 380.160821909726 153.45534477278 78.0529523872482
vertex 381.892872717295 154.45534477278 78.0529523872482
endloop
endfacet
facet normal -0.499999999999999 0.866025403784439 -2.67333296869418e-17
outer loop
vertex 380.203414626864 153.381572022663 78.7000000000045
vertex 381.892872717295 154.45534477278 78.0529523872482
vertex 380.160821909726 153.45534477278 78.0529523872482
endloop
endfacet
facet normal -0.482962913144534 0.83651630373781 0.258819045102514
outer loop
vertex 381.892872717295 154.45534477278 78.0529523872482
vertex 380.203414626864 153.381572022663 78.7000000000045
vertex 381.935465434433 154.381572022663 78.7000000000045
endloop
endfacet
facet normal -0.482962913144534 0.83651630373781 -0.258819045102514
outer loop
vertex 380.160821909726 153.45534477278 79.3470476127608
vertex 381.935465434433 154.381572022663 78.7000000000045
vertex 380.203414626864 153.381572022663 78.7000000000045
endloop
endfacet
facet normal -0.499999999999999 0.866025403784439 -2.67333296869406e-17
outer loop
vertex 381.935465434433 154.381572022663 78.7000000000045
vertex 380.160821909726 153.45534477278 79.3470476127608
vertex 381.892872717295 154.45534477278 79.3470476127608
endloop
endfacet
facet normal -0.433012701892221 0.750000000000007 -0.499999999999988
outer loop
vertex 380.035946381595 153.671635532124 79.9500000000045
vertex 381.892872717295 154.45534477278 79.3470476127608
vertex 380.160821909726 153.45534477278 79.3470476127608
endloop
endfacet
facet normal -0.482962913144534 0.83651630373781 -0.258819045102514
outer loop
vertex 381.892872717295 154.45534477278 79.3470476127608
vertex 380.035946381595 153.671635532124 79.9500000000045
vertex 381.767997189164 154.671635532124 79.9500000000045
endloop
endfacet
facet normal 0.353553390593276 -0.612372435695799 -0.707106781186542
outer loop
vertex 379.80158195795 158.077566621364 22.6677669529711
vertex 378.328414626864 156.629167286855 23.0650635094658
vertex 378.069531150381 157.077566621364 22.6677669529711
endloop
endfacet
facet normal 0.250000000000002 -0.433012701892222 -0.866025403784437
outer loop
vertex 378.328414626864 156.629167286855 23.0650635094658
vertex 379.80158195795 158.077566621364 22.6677669529711
vertex 380.060465434433 157.629167286855 23.0650635094658
endloop
endfacet
facet normal 0.482962913144533 -0.836516303737809 0.258819045102517
outer loop
vertex 379.478058151572 158.637926291469 78.0529523872482
vertex 377.870882872134 157.421635532124 77.4500000000045
vertex 379.602933679703 158.421635532124 77.4500000000045
endloop
endfacet
facet normal 0.433012701892221 -0.750000000000006 0.499999999999989
outer loop
vertex 377.870882872134 157.421635532124 77.4500000000045
vertex 379.478058151572 158.637926291469 78.0529523872482
vertex 377.746007344003 157.637926291469 78.0529523872482
endloop
endfacet
facet normal 0.433012701892222 -0.750000000000008 0.499999999999985
outer loop
vertex 379.602933679703 158.421635532124 77.4500000000045
vertex 378.069531150381 157.077566621364 76.9322330470381
vertex 379.80158195795 158.077566621364 76.9322330470381
endloop
endfacet
facet normal 0.353553390593276 -0.612372435695801 0.70710678118654
outer loop
vertex 378.069531150381 157.077566621364 76.9322330470381
vertex 379.602933679703 158.421635532124 77.4500000000045
vertex 377.870882872134 157.421635532124 77.4500000000045
endloop
endfacet
endsolid Mockup
