solid Mockup
facet normal -0.250000000000003 -0.433012701892221 -0.866025403784437
outer loop
vertex 70.8337788245227 139.892420723695 23.0650635094648
vertex 72.2643534384697 138.37024863907 23.3148145657264
vertex 70.5323026309008 139.37024863907 23.3148145657264
endloop
endfacet
facet normal -0.12940952255126 -0.22414386804201 -0.965925826289069
outer loop
vertex 72.2643534384697 138.37024863907 23.3148145657264
vertex 70.8337788245227 139.892420723695 23.0650635094648
vertex 72.5658296320916 138.892420723695 23.0650635094648
endloop
endfacet
facet normal -0.129409522551258 -0.224143868042011 0.965925826289069
outer loop
vertex 72.2643534384697 138.37024863907 18.4851854342811
vertex 70.8337788245227 139.892420723695 18.7349364905426
vertex 70.5323026309008 139.37024863907 18.4851854342811
endloop
endfacet
facet normal -0.250000000000002 -0.433012701892224 0.866025403784436
outer loop
vertex 70.8337788245227 139.892420723695 18.7349364905426
vertex 72.2643534384697 138.37024863907 18.4851854342811
vertex 72.5658296320916 138.892420723695 18.7349364905426
endloop
endfacet
facet normal 0.500000000000001 0.866025403784438 0.0
outer loop
vertex 69.7757661226305 134.059888968965 23.4000000000037
vertex 70.6417915264149 133.559888968965 18.4000000000037
vertex 69.7757661226305 134.059888968965 18.4000000000037
endloop
endfacet
facet normal 0.500000000000001 0.866025403784438 0.0
outer loop
vertex 70.6417915264149 133.559888968965 18.4000000000037
vertex 69.7757661226305 134.059888968965 23.4000000000037
vertex 70.6417915264149 133.559888968965 23.4000000000037
endloop
endfacet
facet normal -0.129409522551262 -0.224143868042013 -0.965925826289068
outer loop
vertex 70.5323026309008 139.37024863907 81.1148145657262
vertex 71.9408296320916 137.809888968965 81.2000000000035
vertex 70.2087788245226 138.809888968965 81.2000000000035
endloop
endfacet
facet normal 2.46837744109425e-15 6.37144357538768e-15 -1.0
outer loop
vertex 71.9408296320916 137.809888968965 81.2000000000035
vertex 70.5323026309008 139.37024863907 81.1148145657262
vertex 72.2643534384697 138.37024863907 81.1148145657262
endloop
endfacet
facet normal 0.866025403784435 -0.500000000000006 -2.14274912422378e-18
outer loop
vertex 71.9408296320916 137.809888968965 15.9000000000037
vertex 69.7757661226305 134.059888968965 23.4000000000037
vertex 69.7757661226305 134.059888968965 18.4000000000037
endloop
endfacet
facet normal 0.866025403784435 -0.500000000000006 -2.14274912422378e-18
outer loop
vertex 69.7757661226305 134.059888968965 23.4000000000037
vertex 71.9408296320916 137.809888968965 15.9000000000037
vertex 70.858297877361 135.934888968965 19.6500000000037
endloop
endfacet
facet normal 0.866025403784435 -0.500000000000006 -2.14274912422378e-18
outer loop
vertex 69.7757661226305 134.059888968965 23.4000000000037
vertex 70.858297877361 135.934888968965 19.6500000000037
vertex 70.7334223492302 135.71859820962 20.2529523872474
endloop
endfacet
facet normal 0.866025403784435 -0.500000000000006 -2.14274912422378e-18
outer loop
vertex 69.7757661226305 134.059888968965 23.4000000000037
vertex 70.7334223492302 135.71859820962 20.2529523872474
vertex 70.6908296320915 135.644825459504 20.9000000000037
endloop
endfacet
facet normal 0.866025403784435 -0.500000000000006 -2.14274912422378e-18
outer loop
vertex 70.858297877361 135.934888968965 19.6500000000037
vertex 71.9408296320916 137.809888968965 15.9000000000037
vertex 71.0569461556084 136.278957879725 19.1322330470374
endloop
endfacet
facet normal 0.866025403784435 -0.500000000000006 -2.14274912422378e-18
outer loop
vertex 71.0569461556084 136.278957879725 19.1322330470374
vertex 71.9408296320916 137.809888968965 15.9000000000037
vertex 71.3158296320916 136.727357214234 18.7349364905426
endloop
endfacet
facet normal 0.866025403784435 -0.500000000000006 -2.14274912422378e-18
outer loop
vertex 71.3158296320916 136.727357214234 18.7349364905426
vertex 71.9408296320916 137.809888968965 15.9000000000037
vertex 71.6173058257135 137.24952929886 18.4851854342811
endloop
endfacet
facet normal 0.866025403784435 -0.500000000000006 -2.14274912422378e-18
outer loop
vertex 71.6173058257135 137.24952929886 18.4851854342811
vertex 71.9408296320916 137.809888968965 15.9000000000037
vertex 71.9408296320916 137.809888968965 18.4000000000037
endloop
endfacet
facet normal 0.866025403784435 -0.500000000000006 -2.14274912422378e-18
outer loop
vertex 71.9408296320916 137.809888968965 18.4000000000037
vertex 71.9408296320916 137.809888968965 15.9000000000037
vertex 74.1058931415527 141.559888968965 18.4000000000037
endloop
endfacet
facet normal 0.866025403784435 -0.500000000000006 -2.14274912422378e-18
outer loop
vertex 71.9408296320916 137.809888968965 18.4000000000037
vertex 74.1058931415527 141.559888968965 18.4000000000037
vertex 72.2643534384697 138.37024863907 18.4851854342811
endloop
endfacet
facet normal 0.866025403784435 -0.500000000000006 -2.14274912422378e-18
outer loop
vertex 72.2643534384697 138.37024863907 18.4851854342811
vertex 74.1058931415527 141.559888968965 18.4000000000037
vertex 72.5658296320916 138.892420723695 18.7349364905426
endloop
endfacet
facet normal 0.866025403784435 -0.500000000000006 -2.14274912422378e-18
outer loop
vertex 72.5658296320916 138.892420723695 18.7349364905426
vertex 74.1058931415527 141.559888968965 18.4000000000037
vertex 72.8247131085748 139.340820058204 19.1322330470374
endloop
endfacet
facet normal 0.866025403784435 -0.500000000000006 -2.14274912422378e-18
outer loop
vertex 72.8247131085748 139.340820058204 19.1322330470374
vertex 74.1058931415527 141.559888968965 18.4000000000037
vertex 73.0233613868221 139.684888968965 19.6500000000037
endloop
endfacet
facet normal 0.866025403784435 -0.500000000000006 -2.14274912422378e-18
outer loop
vertex 73.0233613868221 139.684888968965 19.6500000000037
vertex 74.1058931415527 141.559888968965 18.4000000000037
vertex 73.1482369149529 139.901179728309 20.2529523872474
endloop
endfacet
facet normal 0.866025403784435 -0.500000000000006 -2.14274912422378e-18
outer loop
vertex 73.1482369149529 139.901179728309 20.2529523872474
vertex 74.1058931415527 141.559888968965 18.4000000000037
vertex 73.1908296320916 139.974952478426 20.9000000000037
endloop
endfacet
facet normal 0.866025403784435 -0.500000000000006 -2.14274912422378e-18
outer loop
vertex 69.7757661226305 134.059888968965 23.4000000000037
vertex 70.858297877361 135.934888968965 22.1500000000037
vertex 71.9408296320916 137.809888968965 25.9000000000037
endloop
endfacet
facet normal 0.866025403784435 -0.500000000000006 -2.14274912422378e-18
outer loop
vertex 70.858297877361 135.934888968965 22.1500000000037
vertex 69.7757661226305 134.059888968965 23.4000000000037
vertex 70.7334223492302 135.71859820962 21.54704761276
endloop
endfacet
facet normal 0.866025403784435 -0.500000000000006 -2.14274912422378e-18
outer loop
vertex 70.7334223492302 135.71859820962 21.54704761276
vertex 69.7757661226305 134.059888968965 23.4000000000037
vertex 70.6908296320915 135.644825459504 20.9000000000037
endloop
endfacet
facet normal 0.866025403784435 -0.500000000000006 -2.14274912422378e-18
outer loop
vertex 71.9408296320916 137.809888968965 25.9000000000037
vertex 70.858297877361 135.934888968965 22.1500000000037
vertex 71.0569461556084 136.278957879725 22.6677669529701
endloop
endfacet
facet normal 0.866025403784435 -0.500000000000006 -2.14274912422378e-18
outer loop
vertex 71.9408296320916 137.809888968965 25.9000000000037
vertex 71.0569461556084 136.278957879725 22.6677669529701
vertex 71.3158296320915 136.727357214234 23.0650635094648
endloop
endfacet
facet normal 0.866025403784435 -0.500000000000006 -2.14274912422378e-18
outer loop
vertex 71.9408296320916 137.809888968965 25.9000000000037
vertex 71.3158296320915 136.727357214234 23.0650635094648
vertex 71.6173058257135 137.24952929886 23.3148145657264
endloop
endfacet
facet normal 0.866025403784435 -0.500000000000006 -2.14274912422378e-18
outer loop
vertex 71.9408296320916 137.809888968965 25.9000000000037
vertex 71.6173058257135 137.24952929886 23.3148145657264
vertex 71.9408296320916 137.809888968965 23.4000000000037
endloop
endfacet
facet normal 0.866025403784435 -0.500000000000006 -2.14274912422378e-18
outer loop
vertex 71.9408296320916 137.809888968965 25.9000000000037
vertex 71.9408296320916 137.809888968965 23.4000000000037
vertex 74.1058931415527 141.559888968965 23.4000000000037
endloop
endfacet
facet normal 0.866025403784435 -0.500000000000006 -2.14274912422378e-18
outer loop
vertex 74.1058931415527 141.559888968965 23.4000000000037
vertex 71.9408296320916 137.809888968965 23.4000000000037
vertex 72.2643534384697 138.37024863907 23.3148145657264
endloop
endfacet
facet normal 0.866025403784435 -0.500000000000006 -2.14274912422378e-18
outer loop
vertex 74.1058931415527 141.559888968965 23.4000000000037
vertex 72.2643534384697 138.37024863907 23.3148145657264
vertex 72.5658296320916 138.892420723695 23.0650635094648
endloop
endfacet
facet normal 0.866025403784435 -0.500000000000006 -2.14274912422378e-18
outer loop
vertex 74.1058931415527 141.559888968965 23.4000000000037
vertex 72.5658296320916 138.892420723695 23.0650635094648
vertex 72.8247131085748 139.340820058204 22.6677669529701
endloop
endfacet
facet normal 0.866025403784435 -0.500000000000006 -2.14274912422378e-18
outer loop
vertex 74.1058931415527 141.559888968965 23.4000000000037
vertex 72.8247131085748 139.340820058204 22.6677669529701
vertex 73.0233613868221 139.684888968965 22.1500000000037
endloop
endfacet
facet normal 0.866025403784435 -0.500000000000006 -2.14274912422378e-18
outer loop
vertex 74.1058931415527 141.559888968965 23.4000000000037
vertex 73.0233613868221 139.684888968965 22.1500000000037
vertex 73.1482369149529 139.901179728309 21.54704761276
endloop
endfacet
facet normal 0.866025403784435 -0.500000000000006 -2.14274912422378e-18
outer loop
vertex 74.1058931415527 141.559888968965 23.4000000000037
vertex 73.1482369149529 139.901179728309 21.54704761276
vertex 73.1908296320916 139.974952478426 20.9000000000037
endloop
endfacet
facet normal 0.866025403784435 -0.500000000000006 -2.14274912422378e-18
outer loop
vertex 74.1058931415527 141.559888968965 23.4000000000037
vertex 73.1908296320916 139.974952478426 20.9000000000037
vertex 74.1058931415527 141.559888968965 18.4000000000037
endloop
endfacet
facet normal -0.353553390593278 -0.612372435695798 -0.707106781186542
outer loop
vertex 72.8247131085748 139.340820058204 80.4677669529699
vertex 71.2913105792532 140.684888968965 79.9500000000035
vertex 73.0233613868221 139.684888968965 79.9500000000035
endloop
endfacet
facet normal -0.433012701892224 -0.750000000000006 -0.499999999999987
outer loop
vertex 71.2913105792532 140.684888968965 79.9500000000035
vertex 72.8247131085748 139.340820058204 80.4677669529699
vertex 71.0926623010058 140.340820058204 80.4677669529699
endloop
endfacet
facet normal -0.482962913144537 -0.83651630373781 0.258819045102508
outer loop
vertex 73.1482369149529 139.901179728309 78.0529523872472
vertex 71.2913105792532 140.684888968965 77.4500000000035
vertex 73.0233613868221 139.684888968965 77.4500000000035
endloop
endfacet
facet normal -0.433012701892219 -0.749999999999998 0.500000000000004
outer loop
vertex 71.2913105792532 140.684888968965 77.4500000000035
vertex 73.1482369149529 139.901179728309 78.0529523872472
vertex 71.4161861073839 140.901179728309 78.0529523872472
endloop
endfacet
facet normal 0.250000000000002 0.433012701892219 0.866025403784438
outer loop
vertex 70.6417915264149 133.559888968965 18.4000000000037
vertex 71.9408296320916 137.809888968965 15.9000000000037
vertex 69.7757661226305 134.059888968965 18.4000000000037
endloop
endfacet
facet normal 0.250000000000002 0.433012701892219 0.866025403784438
outer loop
vertex 71.9408296320916 137.809888968965 15.9000000000037
vertex 70.6417915264149 133.559888968965 18.4000000000037
vertex 72.8068550358761 137.309888968965 15.9000000000037
endloop
endfacet
facet normal -0.250000000000002 -0.433012701892223 0.866025403784436
outer loop
vertex 72.5658296320916 138.892420723695 18.7349364905426
vertex 71.0926623010058 140.340820058204 19.1322330470374
vertex 70.8337788245227 139.892420723695 18.7349364905426
endloop
endfacet
facet normal -0.353553390593274 -0.612372435695795 0.707106781186547
outer loop
vertex 71.0926623010058 140.340820058204 19.1322330470374
vertex 72.5658296320916 138.892420723695 18.7349364905426
vertex 72.8247131085748 139.340820058204 19.1322330470374
endloop
endfacet
facet normal -0.353553390593278 -0.612372435695798 -0.707106781186542
outer loop
vertex 71.0926623010058 140.340820058204 80.4677669529699
vertex 72.5658296320916 138.892420723695 80.8650635094646
vertex 70.8337788245227 139.892420723695 80.8650635094646
endloop
endfacet
facet normal -0.250000000000006 -0.433012701892227 -0.866025403784433
outer loop
vertex 72.5658296320916 138.892420723695 80.8650635094646
vertex 71.0926623010058 140.340820058204 80.4677669529699
vertex 72.8247131085748 139.340820058204 80.4677669529699
endloop
endfacet
facet normal 0.866025403784435 -0.500000000000006 -1.13545092601024e-17
outer loop
vertex 71.9408296320916 137.809888968965 73.7000000000035
vertex 69.7757661226305 134.059888968965 81.2000000000035
vertex 69.7757661226305 134.059888968965 76.2000000000035
endloop
endfacet
facet normal 0.866025403784435 -0.500000000000006 -1.13545092601024e-17
outer loop
vertex 69.7757661226305 134.059888968965 81.2000000000035
vertex 71.9408296320916 137.809888968965 73.7000000000035
vertex 70.858297877361 135.934888968965 77.4500000000035
endloop
endfacet
facet normal 0.866025403784435 -0.500000000000006 -1.13545092601024e-17
outer loop
vertex 69.7757661226305 134.059888968965 81.2000000000035
vertex 70.858297877361 135.934888968965 77.4500000000035
vertex 70.7334223492302 135.71859820962 78.0529523872472
endloop
endfacet
facet normal 0.866025403784435 -0.500000000000006 -1.13545092601024e-17
outer loop
vertex 69.7757661226305 134.059888968965 81.2000000000035
vertex 70.7334223492302 135.71859820962 78.0529523872472
vertex 70.6908296320915 135.644825459504 78.7000000000035
endloop
endfacet
facet normal 0.866025403784435 -0.500000000000006 -1.13545092601024e-17
outer loop
vertex 70.858297877361 135.934888968965 77.4500000000035
vertex 71.9408296320916 137.809888968965 73.7000000000035
vertex 71.0569461556084 136.278957879725 76.9322330470371
endloop
endfacet
facet normal 0.866025403784435 -0.500000000000006 -1.13545092601024e-17
outer loop
vertex 71.0569461556084 136.278957879725 76.9322330470371
vertex 71.9408296320916 137.809888968965 73.7000000000035
vertex 71.3158296320915 136.727357214234 76.5349364905424
endloop
endfacet
facet normal 0.866025403784435 -0.500000000000006 -1.13545092601024e-17
outer loop
vertex 71.3158296320915 136.727357214234 76.5349364905424
vertex 71.9408296320916 137.809888968965 73.7000000000035
vertex 71.6173058257135 137.24952929886 76.2851854342808
endloop
endfacet
facet normal 0.866025403784435 -0.500000000000006 -1.13545092601024e-17
outer loop
vertex 71.6173058257135 137.24952929886 76.2851854342808
vertex 71.9408296320916 137.809888968965 73.7000000000035
vertex 71.9408296320916 137.809888968965 76.2000000000035
endloop
endfacet
facet normal 0.866025403784435 -0.500000000000006 -1.13545092601024e-17
outer loop
vertex 71.9408296320916 137.809888968965 76.2000000000035
vertex 71.9408296320916 137.809888968965 73.7000000000035
vertex 74.1058931415527 141.559888968965 76.2000000000035
endloop
endfacet
facet normal 0.866025403784435 -0.500000000000006 -1.13545092601024e-17
outer loop
vertex 71.9408296320916 137.809888968965 76.2000000000035
vertex 74.1058931415527 141.559888968965 76.2000000000035
vertex 72.2643534384697 138.37024863907 76.2851854342808
endloop
endfacet
facet normal 0.866025403784435 -0.500000000000006 -1.13545092601024e-17
outer loop
vertex 72.2643534384697 138.37024863907 76.2851854342808
vertex 74.1058931415527 141.559888968965 76.2000000000035
vertex 72.5658296320916 138.892420723695 76.5349364905424
endloop
endfacet
facet normal 0.866025403784435 -0.500000000000006 -1.13545092601024e-17
outer loop
vertex 72.5658296320916 138.892420723695 76.5349364905424
vertex 74.1058931415527 141.559888968965 76.2000000000035
vertex 72.8247131085748 139.340820058204 76.9322330470371
endloop
endfacet
facet normal 0.866025403784435 -0.500000000000006 -1.13545092601024e-17
outer loop
vertex 72.8247131085748 139.340820058204 76.9322330470371
vertex 74.1058931415527 141.559888968965 76.2000000000035
vertex 73.0233613868221 139.684888968965 77.4500000000035
endloop
endfacet
facet normal 0.866025403784435 -0.500000000000006 -1.13545092601024e-17
outer loop
vertex 73.0233613868221 139.684888968965 77.4500000000035
vertex 74.1058931415527 141.559888968965 76.2000000000035
vertex 73.1482369149529 139.901179728309 78.0529523872472
endloop
endfacet
facet normal 0.866025403784435 -0.500000000000006 -1.13545092601024e-17
outer loop
vertex 73.1482369149529 139.901179728309 78.0529523872472
vertex 74.1058931415527 141.559888968965 76.2000000000035
vertex 73.1908296320916 139.974952478426 78.7000000000035
endloop
endfacet
facet normal 0.866025403784435 -0.500000000000006 -1.13545092601024e-17
outer loop
vertex 69.7757661226305 134.059888968965 81.2000000000035
vertex 70.858297877361 135.934888968965 79.9500000000035
vertex 71.9408296320916 137.809888968965 83.7000000000035
endloop
endfacet
facet normal 0.866025403784435 -0.500000000000006 -1.13545092601024e-17
outer loop
vertex 70.858297877361 135.934888968965 79.9500000000035
vertex 69.7757661226305 134.059888968965 81.2000000000035
vertex 70.7334223492302 135.71859820962 79.3470476127598
endloop
endfacet
facet normal 0.866025403784435 -0.500000000000006 -1.13545092601024e-17
outer loop
vertex 70.7334223492302 135.71859820962 79.3470476127598
vertex 69.7757661226305 134.059888968965 81.2000000000035
vertex 70.6908296320915 135.644825459504 78.7000000000035
endloop
endfacet
facet normal 0.866025403784435 -0.500000000000006 -1.13545092601024e-17
outer loop
vertex 71.9408296320916 137.809888968965 83.7000000000035
vertex 70.858297877361 135.934888968965 79.9500000000035
vertex 71.0569461556084 136.278957879725 80.4677669529699
endloop
endfacet
facet normal 0.866025403784435 -0.500000000000006 -1.13545092601024e-17
outer loop
vertex 71.9408296320916 137.809888968965 83.7000000000035
vertex 71.0569461556084 136.278957879725 80.4677669529699
vertex 71.3158296320916 136.727357214234 80.8650635094646
endloop
endfacet
facet normal 0.866025403784435 -0.500000000000006 -1.13545092601024e-17
outer loop
vertex 71.9408296320916 137.809888968965 83.7000000000035
vertex 71.3158296320916 136.727357214234 80.8650635094646
vertex 71.6173058257135 137.24952929886 81.1148145657262
endloop
endfacet
facet normal 0.866025403784435 -0.500000000000006 -1.13545092601024e-17
outer loop
vertex 71.9408296320916 137.809888968965 83.7000000000035
vertex 71.6173058257135 137.24952929886 81.1148145657262
vertex 71.9408296320916 137.809888968965 81.2000000000035
endloop
endfacet
facet normal 0.866025403784435 -0.500000000000006 -1.13545092601024e-17
outer loop
vertex 71.9408296320916 137.809888968965 83.7000000000035
vertex 71.9408296320916 137.809888968965 81.2000000000035
vertex 74.1058931415527 141.559888968965 81.2000000000035
endloop
endfacet
facet normal 0.866025403784435 -0.500000000000006 -1.13545092601024e-17
outer loop
vertex 74.1058931415527 141.559888968965 81.2000000000035
vertex 71.9408296320916 137.809888968965 81.2000000000035
vertex 72.2643534384697 138.37024863907 81.1148145657262
endloop
endfacet
facet normal 0.866025403784435 -0.500000000000006 -1.13545092601024e-17
outer loop
vertex 74.1058931415527 141.559888968965 81.2000000000035
vertex 72.2643534384697 138.37024863907 81.1148145657262
vertex 72.5658296320916 138.892420723695 80.8650635094646
endloop
endfacet
facet normal 0.866025403784435 -0.500000000000006 -1.13545092601024e-17
outer loop
vertex 74.1058931415527 141.559888968965 81.2000000000035
vertex 72.5658296320916 138.892420723695 80.8650635094646
vertex 72.8247131085748 139.340820058204 80.4677669529699
endloop
endfacet
facet normal 0.866025403784435 -0.500000000000006 -1.13545092601024e-17
outer loop
vertex 74.1058931415527 141.559888968965 81.2000000000035
vertex 72.8247131085748 139.340820058204 80.4677669529699
vertex 73.0233613868221 139.684888968965 79.9500000000035
endloop
endfacet
facet normal 0.866025403784435 -0.500000000000006 -1.13545092601024e-17
outer loop
vertex 74.1058931415527 141.559888968965 81.2000000000035
vertex 73.0233613868221 139.684888968965 79.9500000000035
vertex 73.1482369149529 139.901179728309 79.3470476127598
endloop
endfacet
facet normal 0.866025403784435 -0.500000000000006 -1.13545092601024e-17
outer loop
vertex 74.1058931415527 141.559888968965 81.2000000000035
vertex 73.1482369149529 139.901179728309 79.3470476127598
vertex 73.1908296320916 139.974952478426 78.7000000000035
endloop
endfacet
facet normal 0.866025403784435 -0.500000000000006 -1.13545092601024e-17
outer loop
vertex 74.1058931415527 141.559888968965 81.2000000000035
vertex 73.1908296320916 139.974952478426 78.7000000000035
vertex 74.1058931415527 141.559888968965 76.2000000000035
endloop
endfacet
facet normal 0.35355339059328 0.612372435695802 0.707106781186538
outer loop
vertex 71.0569461556084 136.278957879725 76.9322330470371
vertex 69.5837788245227 137.727357214234 76.5349364905424
vertex 69.3248953480395 137.278957879725 76.9322330470371
endloop
endfacet
facet normal 0.250000000000004 0.433012701892223 0.866025403784435
outer loop
vertex 69.5837788245227 137.727357214234 76.5349364905424
vertex 71.0569461556084 136.278957879725 76.9322330470371
vertex 71.3158296320915 136.727357214234 76.5349364905424
endloop
endfacet
facet normal -0.500000000000001 -0.866025403784438 -2.94066626556365e-16
outer loop
vertex 73.1908296320916 139.974952478426 20.9000000000037
vertex 71.4161861073839 140.901179728309 20.2529523872474
vertex 73.1482369149529 139.901179728309 20.2529523872474
endloop
endfacet
facet normal -0.482962913144536 -0.83651630373781 0.258819045102509
outer loop
vertex 71.4161861073839 140.901179728309 20.2529523872474
vertex 73.1908296320916 139.974952478426 20.9000000000037
vertex 71.4587788245226 140.974952478426 20.9000000000037
endloop
endfacet
facet normal -0.500000000000001 -0.866025403784438 -2.67333296869423e-17
outer loop
vertex 73.1908296320916 139.974952478426 78.7000000000035
vertex 71.4161861073839 140.901179728309 78.0529523872472
vertex 73.1482369149529 139.901179728309 78.0529523872472
endloop
endfacet
facet normal -0.482962913144536 -0.83651630373781 0.25881904510251
outer loop
vertex 71.4161861073839 140.901179728309 78.0529523872472
vertex 73.1908296320916 139.974952478426 78.7000000000035
vertex 71.4587788245226 140.974952478426 78.7000000000035
endloop
endfacet
facet normal 0.866025403784438 -0.500000000000001 3.02967871034165e-14
outer loop
vertex 77.806855035876 145.970143006809 86.0000000000046
vertex 67.8068550358759 128.649634931121 89.6000000000035
vertex 67.806855035876 128.649634931121 86.0000000000046
endloop
endfacet
facet normal 0.866025403784438 -0.500000000000001 3.02967871034165e-14
outer loop
vertex 67.8068550358759 128.649634931121 89.6000000000035
vertex 77.806855035876 145.970143006809 86.0000000000046
vertex 77.806855035876 145.970143006809 89.6000000000035
endloop
endfacet
facet normal 0.866025403784438 -0.500000000000001 1.07924747118508e-14
outer loop
vertex 76.5307642721504 131.759888968969 82.0000000000058
vertex 73.003007458582 125.649634931121 86.0000000000047
vertex 73.0030074585821 125.649634931121 82.0000000000058
endloop
endfacet
facet normal 0.866025403784438 -0.500000000000001 1.07924747118508e-14
outer loop
vertex 73.003007458582 125.649634931121 86.0000000000047
vertex 76.5307642721504 131.759888968969 82.0000000000058
vertex 78.003007458582 134.309888968965 83.7000000000036
endloop
endfacet
facet normal 0.866025403784438 -0.500000000000001 1.07924747118508e-14
outer loop
vertex 73.003007458582 125.649634931121 86.0000000000047
vertex 78.003007458582 134.309888968965 83.7000000000036
vertex 83.0030074585821 142.97014300681 86.0000000000047
endloop
endfacet
facet normal 0.866025403784438 -0.500000000000001 1.07924747118508e-14
outer loop
vertex 83.0030074585821 142.97014300681 86.0000000000047
vertex 78.003007458582 134.309888968965 83.7000000000036
vertex 79.4752506450136 136.859888968962 82.0000000000058
endloop
endfacet
facet normal 0.866025403784438 -0.500000000000001 1.07924747118508e-14
outer loop
vertex 83.0030074585821 142.97014300681 86.0000000000047
vertex 79.4752506450136 136.859888968962 82.0000000000058
vertex 83.0030074585821 142.97014300681 82.0000000000058
endloop
endfacet
facet normal -9.91055056667352e-15 4.41937231124258e-15 1.0
outer loop
vertex 73.003007458582 125.649634931121 86.0000000000047
vertex 77.806855035876 145.970143006809 86.0000000000046
vertex 67.806855035876 128.649634931121 86.0000000000046
endloop
endfacet
facet normal -9.91055056667352e-15 4.41937231124258e-15 1.0
outer loop
vertex 77.806855035876 145.970143006809 86.0000000000046
vertex 73.003007458582 125.649634931121 86.0000000000047
vertex 83.0030074585821 142.97014300681 86.0000000000047
endloop
endfacet
facet normal 9.34655727016397e-15 -5.3962373559254e-15 -1.0
outer loop
vertex 71.3346118494445 134.759888968968 82.0000000000058
vertex 73.0030074585821 125.649634931121 82.0000000000058
vertex 67.8068550358761 128.64963493112 82.0000000000058
endloop
endfacet
facet normal 9.34655727016397e-15 -5.3962373559254e-15 -1.0
outer loop
vertex 73.0030074585821 125.649634931121 82.0000000000058
vertex 71.3346118494445 134.759888968968 82.0000000000058
vertex 76.5307642721504 131.759888968969 82.0000000000058
endloop
endfacet
facet normal 0.250000000000009 0.433012701892215 -0.866025403784438
outer loop
vertex 72.8068550358761 137.309888968965 83.7000000000035
vertex 76.5307642721504 131.759888968969 82.0000000000058
vertex 71.3346118494445 134.759888968968 82.0000000000058
endloop
endfacet
facet normal 0.250000000000009 0.433012701892215 -0.866025403784438
outer loop
vertex 76.5307642721504 131.759888968969 82.0000000000058
vertex 72.8068550358761 137.309888968965 83.7000000000035
vertex 78.003007458582 134.309888968965 83.7000000000036
endloop
endfacet
facet normal -0.249999999999995 -0.433012701892229 -0.866025403784436
outer loop
vertex 74.2790982223077 139.859888968962 82.0000000000058
vertex 78.003007458582 134.309888968965 83.7000000000036
vertex 72.8068550358761 137.309888968965 83.7000000000035
endloop
endfacet
facet normal -0.249999999999995 -0.433012701892229 -0.866025403784436
outer loop
vertex 78.003007458582 134.309888968965 83.7000000000036
vertex 74.2790982223077 139.859888968962 82.0000000000058
vertex 79.4752506450136 136.859888968962 82.0000000000058
endloop
endfacet
facet normal 9.34655727016395e-15 -5.39623735592542e-15 -1.0
outer loop
vertex 77.8068550358761 145.970143006809 82.0000000000058
vertex 79.4752506450136 136.859888968962 82.0000000000058
vertex 74.2790982223077 139.859888968962 82.0000000000058
endloop
endfacet
facet normal 9.34655727016395e-15 -5.39623735592542e-15 -1.0
outer loop
vertex 79.4752506450136 136.859888968962 82.0000000000058
vertex 77.8068550358761 145.970143006809 82.0000000000058
vertex 83.0030074585821 142.97014300681 82.0000000000058
endloop
endfacet
facet normal -0.500000000000002 -0.866025403784438 5.7956130679297e-17
outer loop
vertex 73.003007458582 125.649634931121 86.0000000000047
vertex 67.806855035876 128.649634931121 86.0000000000046
vertex 73.0030074585821 125.649634931121 82.0000000000058
endloop
endfacet
facet normal -0.500000000000002 -0.866025403784438 5.7956130679297e-17
outer loop
vertex 73.0030074585801 125.649634931122 12.6000000000057
vertex 65.2087788245225 130.149634931121 10.0000000000037
vertex 73.00300745858 125.649634931122 10.0000000000035
endloop
endfacet
facet normal -0.500000000000002 -0.866025403784438 5.7956130679297e-17
outer loop
vertex 65.2087788245225 130.149634931121 10.0000000000037
vertex 73.0030074585801 125.649634931122 12.6000000000057
vertex 67.806855035876 128.649634931121 12.6000000000059
endloop
endfacet
facet normal -0.500000000000002 -0.866025403784438 5.7956130679297e-17
outer loop
vertex 65.2087788245225 130.149634931121 10.0000000000037
vertex 67.806855035876 128.649634931121 12.6000000000059
vertex 65.2087788245225 130.149634931121 89.6000000000035
endloop
endfacet
facet normal -0.500000000000002 -0.866025403784438 5.7956130679297e-17
outer loop
vertex 65.2087788245225 130.149634931121 89.6000000000035
vertex 67.806855035876 128.649634931121 12.6000000000059
vertex 67.8068550358763 128.649634931121 26.8000000000036
endloop
endfacet
facet normal -0.500000000000002 -0.866025403784438 5.7956130679297e-17
outer loop
vertex 65.2087788245225 130.149634931121 89.6000000000035
vertex 67.8068550358763 128.649634931121 26.8000000000036
vertex 67.8068550358762 128.649634931121 38.8000000000036
endloop
endfacet
facet normal -0.500000000000002 -0.866025403784438 5.7956130679297e-17
outer loop
vertex 67.8068550358762 128.649634931121 38.8000000000036
vertex 67.8068550358763 128.649634931121 26.8000000000036
vertex 153.543370010536 79.1496349311201 26.8000000000069
endloop
endfacet
facet normal -0.500000000000002 -0.866025403784438 5.7956130679297e-17
outer loop
vertex 67.8068550358762 128.649634931121 38.8000000000036
vertex 153.543370010536 79.1496349311201 26.8000000000069
vertex 153.543370010536 79.14963493112 28.8000000000068
endloop
endfacet
facet normal -0.500000000000002 -0.866025403784438 5.7956130679297e-17
outer loop
vertex 65.2087788245225 130.149634931121 89.6000000000035
vertex 67.8068550358762 128.649634931121 38.8000000000036
vertex 67.8068550358761 128.64963493112 82.0000000000058
endloop
endfacet
facet normal -0.500000000000002 -0.866025403784438 5.7956130679297e-17
outer loop
vertex 65.2087788245225 130.149634931121 89.6000000000035
vertex 67.8068550358761 128.64963493112 82.0000000000058
vertex 67.806855035876 128.649634931121 86.0000000000046
endloop
endfacet
facet normal -0.500000000000002 -0.866025403784438 5.7956130679297e-17
outer loop
vertex 67.806855035876 128.649634931121 86.0000000000046
vertex 67.8068550358761 128.64963493112 82.0000000000058
vertex 73.0030074585821 125.649634931121 82.0000000000058
endloop
endfacet
facet normal -0.500000000000002 -0.866025403784438 5.7956130679297e-17
outer loop
vertex 65.2087788245225 130.149634931121 89.6000000000035
vertex 67.806855035876 128.649634931121 86.0000000000046
vertex 67.8068550358759 128.649634931121 89.6000000000035
endloop
endfacet
facet normal 0.86602540378444 -0.499999999999997 -1.53365139112691e-14
outer loop
vertex 67.806855035876 128.649634931121 12.6000000000059
vertex 72.8068550358761 137.309888968965 15.9000000000037
vertex 70.6417915264149 133.559888968965 18.4000000000037
endloop
endfacet
facet normal 0.86602540378444 -0.499999999999997 -1.53365139112691e-14
outer loop
vertex 72.8068550358761 137.309888968965 15.9000000000037
vertex 67.806855035876 128.649634931121 12.6000000000059
vertex 77.806855035876 145.970143006809 12.6000000000068
endloop
endfacet
facet normal 0.86602540378444 -0.499999999999997 -1.53365139112691e-14
outer loop
vertex 72.8068550358761 137.309888968965 15.9000000000037
vertex 77.806855035876 145.970143006809 12.6000000000068
vertex 74.9719185453372 141.059888968965 18.4000000000037
endloop
endfacet
facet normal 0.86602540378444 -0.499999999999997 -1.53365139112691e-14
outer loop
vertex 74.9719185453372 141.059888968965 18.4000000000037
vertex 77.806855035876 145.970143006809 12.6000000000068
vertex 74.9719185453372 141.059888968965 23.4000000000037
endloop
endfacet
facet normal 0.86602540378444 -0.499999999999997 -1.53365139112691e-14
outer loop
vertex 74.9719185453372 141.059888968965 23.4000000000037
vertex 77.806855035876 145.970143006809 12.6000000000068
vertex 77.8068550358762 145.970143006809 26.8000000000034
endloop
endfacet
facet normal 0.86602540378444 -0.499999999999997 -1.53365139112691e-14
outer loop
vertex 67.8068550358763 128.649634931121 26.8000000000036
vertex 72.8068550358761 137.309888968965 25.9000000000037
vertex 77.8068550358762 145.970143006809 26.8000000000034
endloop
endfacet
facet normal 0.86602540378444 -0.499999999999997 -1.53365139112691e-14
outer loop
vertex 72.8068550358761 137.309888968965 25.9000000000037
vertex 67.8068550358763 128.649634931121 26.8000000000036
vertex 70.6417915264149 133.559888968965 23.4000000000037
endloop
endfacet
facet normal 0.86602540378444 -0.499999999999997 -1.53365139112691e-14
outer loop
vertex 70.6417915264149 133.559888968965 23.4000000000037
vertex 67.8068550358763 128.649634931121 26.8000000000036
vertex 67.806855035876 128.649634931121 12.6000000000059
endloop
endfacet
facet normal 0.86602540378444 -0.499999999999997 -1.53365139112691e-14
outer loop
vertex 70.6417915264149 133.559888968965 23.4000000000037
vertex 67.806855035876 128.649634931121 12.6000000000059
vertex 70.6417915264149 133.559888968965 18.4000000000037
endloop
endfacet
facet normal 0.86602540378444 -0.499999999999997 -1.53365139112691e-14
outer loop
vertex 77.8068550358762 145.970143006809 26.8000000000034
vertex 72.8068550358761 137.309888968965 25.9000000000037
vertex 74.9719185453372 141.059888968965 23.4000000000037
endloop
endfacet
facet normal 0.866025403784439 -0.5 -3.44064516267958e-14
outer loop
vertex 73.00300745858 125.649634931122 10.0000000000035
vertex 83.0030074585801 142.970143006811 12.6000000000066
vertex 73.0030074585801 125.649634931122 12.6000000000057
endloop
endfacet
facet normal 0.866025403784439 -0.5 -3.44064516267958e-14
outer loop
vertex 83.0030074585801 142.970143006811 12.6000000000066
vertex 73.00300745858 125.649634931122 10.0000000000035
vertex 83.0030074585801 142.970143006811 10.0000000000035
endloop
endfacet
facet normal 7.20187972147062e-15 -5.63388816660045e-14 1.0
outer loop
vertex 73.0030074585801 125.649634931122 12.6000000000057
vertex 77.806855035876 145.970143006809 12.6000000000068
vertex 67.806855035876 128.649634931121 12.6000000000059
endloop
endfacet
facet normal 7.20187972147062e-15 -5.63388816660045e-14 1.0
outer loop
vertex 77.806855035876 145.970143006809 12.6000000000068
vertex 73.0030074585801 125.649634931122 12.6000000000057
vertex 83.0030074585801 142.970143006811 12.6000000000066
endloop
endfacet
facet normal -0.25 -0.433012701892221 0.866025403784438
outer loop
vertex 72.8068550358761 137.309888968965 15.9000000000037
vertex 74.1058931415527 141.559888968965 18.4000000000037
vertex 71.9408296320916 137.809888968965 15.9000000000037
endloop
endfacet
facet normal -0.25 -0.433012701892221 0.866025403784438
outer loop
vertex 74.1058931415527 141.559888968965 18.4000000000037
vertex 72.8068550358761 137.309888968965 15.9000000000037
vertex 74.9719185453372 141.059888968965 18.4000000000037
endloop
endfacet
facet normal 0.250000000000004 0.433012701892224 0.866025403784435
outer loop
vertex 71.3158296320915 136.727357214234 76.5349364905424
vertex 69.8852550181445 138.24952929886 76.2851854342808
vertex 69.5837788245227 137.727357214234 76.5349364905424
endloop
endfacet
facet normal 0.129409522551259 0.224143868042009 0.965925826289069
outer loop
vertex 69.8852550181445 138.24952929886 76.2851854342808
vertex 71.3158296320915 136.727357214234 76.5349364905424
vertex 71.6173058257135 137.24952929886 76.2851854342808
endloop
endfacet
facet normal -6.81699907017014e-16 8.91110989564724e-16 -1.0
outer loop
vertex 70.2087788245226 138.809888968965 23.4000000000037
vertex 71.6173058257135 137.24952929886 23.3148145657264
vertex 69.8852550181445 138.24952929886 23.3148145657264
endloop
endfacet
facet normal 0.129409522551258 0.22414386804201 -0.965925826289069
outer loop
vertex 71.6173058257135 137.24952929886 23.3148145657264
vertex 70.2087788245226 138.809888968965 23.4000000000037
vertex 71.9408296320916 137.809888968965 23.4000000000037
endloop
endfacet
facet normal 0.482962913144536 0.836516303737809 0.258819045102514
outer loop
vertex 69.0013715416613 136.71859820962 20.2529523872474
vertex 70.858297877361 135.934888968965 19.6500000000037
vertex 69.1262470697921 136.934888968965 19.6500000000037
endloop
endfacet
facet normal 0.433012701892219 0.749999999999997 0.500000000000005
outer loop
vertex 70.858297877361 135.934888968965 19.6500000000037
vertex 69.0013715416613 136.71859820962 20.2529523872474
vertex 70.7334223492302 135.71859820962 20.2529523872474
endloop
endfacet
facet normal 0.250000000000001 0.433012701892221 -0.866025403784438
outer loop
vertex 71.9408296320916 137.809888968965 25.9000000000037
vertex 70.6417915264149 133.559888968965 23.4000000000037
vertex 69.7757661226305 134.059888968965 23.4000000000037
endloop
endfacet
facet normal 0.250000000000001 0.433012701892221 -0.866025403784438
outer loop
vertex 70.6417915264149 133.559888968965 23.4000000000037
vertex 71.9408296320916 137.809888968965 25.9000000000037
vertex 72.8068550358761 137.309888968965 25.9000000000037
endloop
endfacet
facet normal -0.129409522551258 -0.224143868042011 0.965925826289069
outer loop
vertex 72.2643534384697 138.37024863907 76.2851854342808
vertex 70.8337788245227 139.892420723695 76.5349364905424
vertex 70.5323026309008 139.37024863907 76.2851854342808
endloop
endfacet
facet normal -0.250000000000001 -0.433012701892221 0.866025403784437
outer loop
vertex 70.8337788245227 139.892420723695 76.5349364905424
vertex 72.2643534384697 138.37024863907 76.2851854342808
vertex 72.5658296320916 138.892420723695 76.5349364905424
endloop
endfacet
facet normal 0.433012701892224 0.750000000000006 0.499999999999987
outer loop
vertex 69.1262470697921 136.934888968965 77.4500000000035
vertex 71.0569461556084 136.278957879725 76.9322330470371
vertex 69.3248953480395 137.278957879725 76.9322330470371
endloop
endfacet
facet normal 0.35355339059328 0.612372435695802 0.707106781186538
outer loop
vertex 71.0569461556084 136.278957879725 76.9322330470371
vertex 69.1262470697921 136.934888968965 77.4500000000035
vertex 70.858297877361 135.934888968965 77.4500000000035
endloop
endfacet
facet normal -0.43301270189222 -0.749999999999999 0.500000000000001
outer loop
vertex 73.0233613868221 139.684888968965 77.4500000000035
vertex 71.0926623010058 140.340820058204 76.9322330470371
vertex 72.8247131085748 139.340820058204 76.9322330470371
endloop
endfacet
facet normal -0.353553390593267 -0.612372435695783 0.707106781186561
outer loop
vertex 71.0926623010058 140.340820058204 76.9322330470371
vertex 73.0233613868221 139.684888968965 77.4500000000035
vertex 71.2913105792532 140.684888968965 77.4500000000035
endloop
endfacet
facet normal 2.74907740280704e-15 2.67333296869404e-15 1.0
outer loop
vertex 71.9408296320916 137.809888968965 76.2000000000035
vertex 70.5323026309008 139.37024863907 76.2851854342808
vertex 70.2087788245226 138.809888968965 76.2000000000035
endloop
endfacet
facet normal -0.12940952255126 -0.224143868042014 0.965925826289068
outer loop
vertex 70.5323026309008 139.37024863907 76.2851854342808
vertex 71.9408296320916 137.809888968965 76.2000000000035
vertex 72.2643534384697 138.37024863907 76.2851854342808
endloop
endfacet
facet normal 0.129409522551258 0.22414386804201 -0.965925826289069
outer loop
vertex 69.8852550181445 138.24952929886 81.1148145657262
vertex 71.3158296320916 136.727357214234 80.8650635094646
vertex 69.5837788245227 137.727357214234 80.8650635094646
endloop
endfacet
facet normal 0.249999999999999 0.433012701892219 -0.866025403784439
outer loop
vertex 71.3158296320916 136.727357214234 80.8650635094646
vertex 69.8852550181445 138.24952929886 81.1148145657262
vertex 71.6173058257135 137.24952929886 81.1148145657262
endloop
endfacet
facet normal 8.96557918672391e-16 -5.17627955689597e-16 1.0
outer loop
vertex 67.8068550358759 128.649634931121 89.6000000000035
vertex 75.2087788245227 147.470143006809 89.6000000000035
vertex 65.2087788245225 130.149634931121 89.6000000000035
endloop
endfacet
facet normal 8.96557918672391e-16 -5.17627955689597e-16 1.0
outer loop
vertex 75.2087788245227 147.470143006809 89.6000000000035
vertex 67.8068550358759 128.649634931121 89.6000000000035
vertex 77.806855035876 145.970143006809 89.6000000000035
endloop
endfacet
facet normal -0.482962913144537 -0.83651630373781 -0.258819045102508
outer loop
vertex 73.1482369149529 139.901179728309 79.3470476127598
vertex 71.4587788245226 140.974952478426 78.7000000000035
vertex 73.1908296320916 139.974952478426 78.7000000000035
endloop
endfacet
facet normal -0.500000000000001 -0.866025403784438 -4.45555494782348e-17
outer loop
vertex 71.4587788245226 140.974952478426 78.7000000000035
vertex 73.1482369149529 139.901179728309 79.3470476127598
vertex 71.4161861073839 140.901179728309 79.3470476127598
endloop
endfacet
facet normal -0.500000000000002 -0.866025403784438 -0.0
outer loop
vertex 101.817459448015 129.557729769072 28.8000000000047
vertex 100.085408640446 130.557729769072 26.8000000000067
vertex 101.817459448015 129.557729769072 26.8000000000067
endloop
endfacet
facet normal -0.500000000000002 -0.866025403784438 -0.0
outer loop
vertex 100.085408640446 130.557729769072 26.8000000000067
vertex 101.817459448015 129.557729769072 28.8000000000047
vertex 100.085408640446 130.557729769072 28.8000000000047
endloop
endfacet
facet normal -0.500000000000001 -0.866025403784438 0.0
outer loop
vertex 74.9719185453372 141.059888968965 23.4000000000037
vertex 74.1058931415527 141.559888968965 18.4000000000037
vertex 74.9719185453372 141.059888968965 18.4000000000037
endloop
endfacet
facet normal -0.500000000000001 -0.866025403784438 0.0
outer loop
vertex 74.1058931415527 141.559888968965 18.4000000000037
vertex 74.9719185453372 141.059888968965 23.4000000000037
vertex 74.1058931415527 141.559888968965 23.4000000000037
endloop
endfacet
facet normal -0.500000000000001 -0.866025403784438 0.0
outer loop
vertex 74.9719185453372 141.059888968965 81.2000000000035
vertex 74.1058931415527 141.559888968965 76.2000000000035
vertex 74.9719185453372 141.059888968965 76.2000000000035
endloop
endfacet
facet normal -0.500000000000001 -0.866025403784438 0.0
outer loop
vertex 74.1058931415527 141.559888968965 76.2000000000035
vertex 74.9719185453372 141.059888968965 81.2000000000035
vertex 74.1058931415527 141.559888968965 81.2000000000035
endloop
endfacet
facet normal -0.249999999999998 -0.433012701892217 0.866025403784441
outer loop
vertex 72.5658296320916 138.892420723695 76.5349364905424
vertex 71.0926623010058 140.340820058204 76.9322330470371
vertex 70.8337788245227 139.892420723695 76.5349364905424
endloop
endfacet
facet normal -0.353553390593267 -0.612372435695783 0.707106781186561
outer loop
vertex 71.0926623010058 140.340820058204 76.9322330470371
vertex 72.5658296320916 138.892420723695 76.5349364905424
vertex 72.8247131085748 139.340820058204 76.9322330470371
endloop
endfacet
facet normal -0.249999999999941 -0.433012701892256 -0.866025403784437
outer loop
vertex 74.1058931415527 141.559888968965 81.2000000000035
vertex 72.8068550358761 137.309888968965 83.7000000000035
vertex 71.9408296320916 137.809888968965 83.7000000000035
endloop
endfacet
facet normal -0.249999999999941 -0.433012701892256 -0.866025403784437
outer loop
vertex 72.8068550358761 137.309888968965 83.7000000000035
vertex 74.1058931415527 141.559888968965 81.2000000000035
vertex 74.2790982223077 139.859888968962 82.0000000000058
endloop
endfacet
facet normal -0.249999999999941 -0.433012701892256 -0.866025403784437
outer loop
vertex 74.2790982223077 139.859888968962 82.0000000000058
vertex 74.1058931415527 141.559888968965 81.2000000000035
vertex 74.9719185453372 141.059888968965 81.2000000000035
endloop
endfacet
facet normal -1.77779744446861e-15 -1.00872367662735e-15 -1.0
outer loop
vertex 75.2087788245227 147.470143006809 10.0000000000037
vertex 73.00300745858 125.649634931122 10.0000000000035
vertex 65.2087788245225 130.149634931121 10.0000000000037
endloop
endfacet
facet normal -1.77779744446861e-15 -1.00872367662735e-15 -1.0
outer loop
vertex 73.00300745858 125.649634931122 10.0000000000035
vertex 75.2087788245227 147.470143006809 10.0000000000037
vertex 83.0030074585801 142.970143006811 10.0000000000035
endloop
endfacet
facet normal -0.433012701892224 -0.750000000000007 0.499999999999986
outer loop
vertex 73.0233613868221 139.684888968965 19.6500000000037
vertex 71.0926623010058 140.340820058204 19.1322330470374
vertex 72.8247131085748 139.340820058204 19.1322330470374
endloop
endfacet
facet normal -0.353553390593274 -0.612372435695795 0.707106781186547
outer loop
vertex 71.0926623010058 140.340820058204 19.1322330470374
vertex 73.0233613868221 139.684888968965 19.6500000000037
vertex 71.2913105792532 140.684888968965 19.6500000000037
endloop
endfacet
facet normal 0.500000000000002 -0.866025403784438 0.0
outer loop
vertex 100.085408640446 130.557729769072 28.8000000000047
vertex 98.3533578328768 129.557729769072 26.8000000000067
vertex 100.085408640446 130.557729769072 26.8000000000067
endloop
endfacet
facet normal 0.500000000000002 -0.866025403784438 0.0
outer loop
vertex 98.3533578328768 129.557729769072 26.8000000000067
vertex 100.085408640446 130.557729769072 28.8000000000047
vertex 98.3533578328768 129.557729769072 28.8000000000047
endloop
endfacet
facet normal -0.433012701892225 -0.750000000000007 -0.499999999999984
outer loop
vertex 73.0233613868221 139.684888968965 79.9500000000035
vertex 71.4161861073839 140.901179728309 79.3470476127598
vertex 73.1482369149529 139.901179728309 79.3470476127598
endloop
endfacet
facet normal -0.482962913144537 -0.83651630373781 -0.25881904510251
outer loop
vertex 71.4161861073839 140.901179728309 79.3470476127598
vertex 73.0233613868221 139.684888968965 79.9500000000035
vertex 71.2913105792532 140.684888968965 79.9500000000035
endloop
endfacet
facet normal 0.433012701892218 0.749999999999996 -0.500000000000007
outer loop
vertex 69.1262470697921 136.934888968965 79.9500000000035
vertex 70.7334223492302 135.71859820962 79.3470476127598
vertex 69.0013715416613 136.71859820962 79.3470476127598
endloop
endfacet
facet normal 0.482962913144536 0.836516303737809 -0.258819045102516
outer loop
vertex 70.7334223492302 135.71859820962 79.3470476127598
vertex 69.1262470697921 136.934888968965 79.9500000000035
vertex 70.858297877361 135.934888968965 79.9500000000035
endloop
endfacet
facet normal -0.482962913144537 -0.83651630373781 -0.258819045102507
outer loop
vertex 73.1482369149529 139.901179728309 21.54704761276
vertex 71.4587788245226 140.974952478426 20.9000000000037
vertex 73.1908296320916 139.974952478426 20.9000000000037
endloop
endfacet
facet normal -0.500000000000001 -0.866025403784438 -2.9406662655635e-16
outer loop
vertex 71.4587788245226 140.974952478426 20.9000000000037
vertex 73.1482369149529 139.901179728309 21.54704761276
vertex 71.4161861073839 140.901179728309 21.54704761276
endloop
endfacet
facet normal -0.250000000000002 -0.433012701892219 -0.866025403784438
outer loop
vertex 74.1058931415527 141.559888968965 23.4000000000037
vertex 72.8068550358761 137.309888968965 25.9000000000037
vertex 71.9408296320916 137.809888968965 25.9000000000037
endloop
endfacet
facet normal -0.250000000000002 -0.433012701892219 -0.866025403784438
outer loop
vertex 72.8068550358761 137.309888968965 25.9000000000037
vertex 74.1058931415527 141.559888968965 23.4000000000037
vertex 74.9719185453372 141.059888968965 23.4000000000037
endloop
endfacet
facet normal 0.250000000000002 0.433012701892219 0.866025403784438
outer loop
vertex 70.6417915264149 133.559888968965 76.2000000000035
vertex 71.9408296320916 137.809888968965 73.7000000000035
vertex 69.7757661226305 134.059888968965 76.2000000000035
endloop
endfacet
facet normal 0.250000000000002 0.433012701892219 0.866025403784438
outer loop
vertex 71.9408296320916 137.809888968965 73.7000000000035
vertex 70.6417915264149 133.559888968965 76.2000000000035
vertex 72.8068550358761 137.309888968965 73.7000000000035
endloop
endfacet
facet normal 3.52434396372835e-15 4.01891056293675e-15 1.0
outer loop
vertex 71.9408296320916 137.809888968965 18.4000000000037
vertex 70.5323026309008 139.37024863907 18.4851854342811
vertex 70.2087788245226 138.809888968965 18.4000000000037
endloop
endfacet
facet normal -0.129409522551258 -0.22414386804201 0.965925826289069
outer loop
vertex 70.5323026309008 139.37024863907 18.4851854342811
vertex 71.9408296320916 137.809888968965 18.4000000000037
vertex 72.2643534384697 138.37024863907 18.4851854342811
endloop
endfacet
facet normal 0.353553390593269 0.612372435695785 -0.707106781186558
outer loop
vertex 69.3248953480394 137.278957879725 80.4677669529699
vertex 70.858297877361 135.934888968965 79.9500000000035
vertex 69.1262470697921 136.934888968965 79.9500000000035
endloop
endfacet
facet normal 0.433012701892218 0.749999999999996 -0.500000000000007
outer loop
vertex 70.858297877361 135.934888968965 79.9500000000035
vertex 69.3248953480394 137.278957879725 80.4677669529699
vertex 71.0569461556084 136.278957879725 80.4677669529699
endloop
endfacet
facet normal 0.353553390593275 0.612372435695797 -0.707106781186545
outer loop
vertex 69.3248953480395 137.278957879725 22.6677669529701
vertex 70.858297877361 135.934888968965 22.1500000000037
vertex 69.1262470697921 136.934888968965 22.1500000000037
endloop
endfacet
facet normal 0.433012701892222 0.750000000000003 -0.499999999999994
outer loop
vertex 70.858297877361 135.934888968965 22.1500000000037
vertex 69.3248953480395 137.278957879725 22.6677669529701
vertex 71.0569461556084 136.278957879725 22.6677669529701
endloop
endfacet
facet normal -0.129409522551262 -0.224143868042013 -0.965925826289068
outer loop
vertex 70.5323026309008 139.37024863907 23.3148145657264
vertex 71.9408296320916 137.809888968965 23.4000000000037
vertex 70.2087788245226 138.809888968965 23.4000000000037
endloop
endfacet
facet normal 2.018366391364e-15 5.56053257488361e-15 -1.0
outer loop
vertex 71.9408296320916 137.809888968965 23.4000000000037
vertex 70.5323026309008 139.37024863907 23.3148145657264
vertex 72.2643534384697 138.37024863907 23.3148145657264
endloop
endfacet
facet normal 0.500000000000002 0.866025403784438 0.0
outer loop
vertex 98.3533578328768 127.557729769072 28.8000000000047
vertex 100.085408640446 126.557729769072 26.8000000000067
vertex 98.3533578328768 127.557729769072 26.8000000000067
endloop
endfacet
facet normal 0.500000000000002 0.866025403784438 0.0
outer loop
vertex 100.085408640446 126.557729769072 26.8000000000067
vertex 98.3533578328768 127.557729769072 28.8000000000047
vertex 100.085408640446 126.557729769072 28.8000000000047
endloop
endfacet
facet normal 0.129409522551256 0.224143868042007 -0.96592582628907
outer loop
vertex 69.8852550181445 138.24952929886 23.3148145657264
vertex 71.3158296320915 136.727357214234 23.0650635094648
vertex 69.5837788245227 137.727357214234 23.0650635094648
endloop
endfacet
facet normal 0.250000000000001 0.433012701892222 -0.866025403784437
outer loop
vertex 71.3158296320915 136.727357214234 23.0650635094648
vertex 69.8852550181445 138.24952929886 23.3148145657264
vertex 71.6173058257135 137.24952929886 23.3148145657264
endloop
endfacet
facet normal -0.250000000000006 -0.433012701892227 -0.866025403784433
outer loop
vertex 70.8337788245227 139.892420723695 80.8650635094646
vertex 72.2643534384697 138.37024863907 81.1148145657262
vertex 70.5323026309008 139.37024863907 81.1148145657262
endloop
endfacet
facet normal -0.129409522551262 -0.224143868042013 -0.965925826289068
outer loop
vertex 72.2643534384697 138.37024863907 81.1148145657262
vertex 70.8337788245227 139.892420723695 80.8650635094646
vertex 72.5658296320916 138.892420723695 80.8650635094646
endloop
endfacet
facet normal -0.353553390593268 -0.612372435695781 -0.707106781186563
outer loop
vertex 71.0926623010058 140.340820058204 22.6677669529701
vertex 72.5658296320916 138.892420723695 23.0650635094648
vertex 70.8337788245227 139.892420723695 23.0650635094648
endloop
endfacet
facet normal -0.25 -0.433012701892216 -0.86602540378444
outer loop
vertex 72.5658296320916 138.892420723695 23.0650635094648
vertex 71.0926623010058 140.340820058204 22.6677669529701
vertex 72.8247131085748 139.340820058204 22.6677669529701
endloop
endfacet
facet normal 0.866025403784436 -0.500000000000005 -7.98663587333671e-14
outer loop
vertex 153.543370010536 79.1496349311201 26.8000000000069
vertex 154.043370010536 80.0156603349044 28.8000000000068
vertex 153.543370010536 79.14963493112 28.8000000000068
endloop
endfacet
facet normal 0.866025403784436 -0.500000000000005 -7.98663587333671e-14
outer loop
vertex 154.043370010536 80.0156603349044 28.8000000000068
vertex 153.543370010536 79.1496349311201 26.8000000000069
vertex 163.543370010536 96.4701430068087 26.8000000000067
endloop
endfacet
facet normal 0.866025403784436 -0.500000000000005 -7.98663587333671e-14
outer loop
vertex 154.043370010536 80.0156603349044 28.8000000000068
vertex 163.543370010536 96.4701430068087 26.8000000000067
vertex 163.543370010536 96.4701430068086 28.8000000000069
endloop
endfacet
facet normal 0.249999999999951 0.433012701892252 -0.866025403784436
outer loop
vertex 71.9408296320916 137.809888968965 83.7000000000035
vertex 70.6417915264149 133.559888968965 81.2000000000035
vertex 69.7757661226305 134.059888968965 81.2000000000035
endloop
endfacet
facet normal 0.249999999999951 0.433012701892252 -0.866025403784436
outer loop
vertex 70.6417915264149 133.559888968965 81.2000000000035
vertex 71.9408296320916 137.809888968965 83.7000000000035
vertex 71.3346118494445 134.759888968968 82.0000000000058
endloop
endfacet
facet normal 0.249999999999951 0.433012701892252 -0.866025403784436
outer loop
vertex 71.3346118494445 134.759888968968 82.0000000000058
vertex 71.9408296320916 137.809888968965 83.7000000000035
vertex 72.8068550358761 137.309888968965 83.7000000000035
endloop
endfacet
facet normal -1.0 0.0 0.0
outer loop
vertex 101.817459448015 129.557729769072 28.8000000000047
vertex 101.817459448015 127.557729769072 26.8000000000067
vertex 101.817459448015 127.557729769072 28.8000000000047
endloop
endfacet
facet normal -1.0 0.0 0.0
outer loop
vertex 101.817459448015 127.557729769072 26.8000000000067
vertex 101.817459448015 129.557729769072 28.8000000000047
vertex 101.817459448015 129.557729769072 26.8000000000067
endloop
endfacet
facet normal 0.433012701892219 0.749999999999997 0.500000000000005
outer loop
vertex 69.1262470697921 136.934888968965 19.6500000000037
vertex 71.0569461556084 136.278957879725 19.1322330470374
vertex 69.3248953480394 137.278957879725 19.1322330470374
endloop
endfacet
facet normal 0.353553390593268 0.612372435695782 0.707106781186561
outer loop
vertex 71.0569461556084 136.278957879725 19.1322330470374
vertex 69.1262470697921 136.934888968965 19.6500000000037
vertex 70.858297877361 135.934888968965 19.6500000000037
endloop
endfacet
facet normal -0.433012701892221 -0.75 -0.499999999999999
outer loop
vertex 73.0233613868221 139.684888968965 22.1500000000037
vertex 71.4161861073839 140.901179728309 21.54704761276
vertex 73.1482369149529 139.901179728309 21.54704761276
endloop
endfacet
facet normal -0.482962913144537 -0.83651630373781 -0.25881904510251
outer loop
vertex 71.4161861073839 140.901179728309 21.54704761276
vertex 73.0233613868221 139.684888968965 22.1500000000037
vertex 71.2913105792532 140.684888968965 22.1500000000037
endloop
endfacet
facet normal 0.499999999999949 -0.866025403784468 0.0
outer loop
vertex 158.109110694003 97.0577297690717 28.8000000000069
vertex 156.377059886434 96.0577297690718 26.8000000000067
vertex 158.109110694003 97.0577297690717 26.8000000000067
endloop
endfacet
facet normal 0.499999999999949 -0.866025403784468 0.0
outer loop
vertex 156.377059886434 96.0577297690718 26.8000000000067
vertex 158.109110694003 97.0577297690717 28.8000000000069
vertex 156.377059886434 96.0577297690718 28.8000000000069
endloop
endfacet
facet normal 0.129409522551265 0.22414386804202 0.965925826289066
outer loop
vertex 71.6173058257135 137.24952929886 18.4851854342811
vertex 70.2087788245226 138.809888968965 18.4000000000037
vertex 69.8852550181445 138.24952929886 18.4851854342811
endloop
endfacet
facet normal 9.80222088521197e-17 -1.9247997374598e-15 1.0
outer loop
vertex 70.2087788245226 138.809888968965 18.4000000000037
vertex 71.6173058257135 137.24952929886 18.4851854342811
vertex 71.9408296320916 137.809888968965 18.4000000000037
endloop
endfacet
facet normal 1.0 0.0 0.0
outer loop
vertex 98.3533578328768 129.557729769072 26.8000000000067
vertex 98.3533578328768 127.557729769072 28.8000000000047
vertex 98.3533578328768 127.557729769072 26.8000000000067
endloop
endfacet
facet normal 1.0 0.0 0.0
outer loop
vertex 98.3533578328768 127.557729769072 28.8000000000047
vertex 98.3533578328768 129.557729769072 26.8000000000067
vertex 98.3533578328768 129.557729769072 28.8000000000047
endloop
endfacet
facet normal -0.353553390593268 -0.612372435695781 -0.707106781186562
outer loop
vertex 72.8247131085748 139.340820058204 22.6677669529701
vertex 71.2913105792532 140.684888968965 22.1500000000037
vertex 73.0233613868221 139.684888968965 22.1500000000037
endloop
endfacet
facet normal -0.43301270189222 -0.749999999999998 -0.500000000000002
outer loop
vertex 71.2913105792532 140.684888968965 22.1500000000037
vertex 72.8247131085748 139.340820058204 22.6677669529701
vertex 71.0926623010058 140.340820058204 22.6677669529701
endloop
endfacet
facet normal 0.482962913144536 0.836516303737809 0.258819045102515
outer loop
vertex 69.0013715416613 136.71859820962 78.0529523872472
vertex 70.858297877361 135.934888968965 77.4500000000035
vertex 69.1262470697921 136.934888968965 77.4500000000035
endloop
endfacet
facet normal 0.433012701892223 0.750000000000004 0.499999999999991
outer loop
vertex 70.858297877361 135.934888968965 77.4500000000035
vertex 69.0013715416613 136.71859820962 78.0529523872472
vertex 70.7334223492302 135.71859820962 78.0529523872472
endloop
endfacet
facet normal 0.25 0.43301270189222 -0.866025403784438
outer loop
vertex 69.5837788245227 137.727357214234 80.8650635094646
vertex 71.0569461556084 136.278957879725 80.4677669529699
vertex 69.3248953480394 137.278957879725 80.4677669529699
endloop
endfacet
facet normal 0.353553390593268 0.612372435695784 -0.70710678118656
outer loop
vertex 71.0569461556084 136.278957879725 80.4677669529699
vertex 69.5837788245227 137.727357214234 80.8650635094646
vertex 71.3158296320916 136.727357214234 80.8650635094646
endloop
endfacet
facet normal 0.129409522551261 0.224143868042013 0.965925826289068
outer loop
vertex 71.6173058257135 137.24952929886 76.2851854342808
vertex 70.2087788245226 138.809888968965 76.2000000000035
vertex 69.8852550181445 138.24952929886 76.2851854342808
endloop
endfacet
facet normal 4.45555494782363e-17 -2.02282194631193e-15 1.0
outer loop
vertex 70.2087788245226 138.809888968965 76.2000000000035
vertex 71.6173058257135 137.24952929886 76.2851854342808
vertex 71.9408296320916 137.809888968965 76.2000000000035
endloop
endfacet
facet normal 0.250000000000001 0.433012701892222 -0.866025403784437
outer loop
vertex 69.5837788245227 137.727357214234 23.0650635094648
vertex 71.0569461556084 136.278957879725 22.6677669529701
vertex 69.3248953480395 137.278957879725 22.6677669529701
endloop
endfacet
facet normal 0.353553390593277 0.612372435695799 -0.707106781186542
outer loop
vertex 71.0569461556084 136.278957879725 22.6677669529701
vertex 69.5837788245227 137.727357214234 23.0650635094648
vertex 71.3158296320915 136.727357214234 23.0650635094648
endloop
endfacet
facet normal -0.500000000000002 0.866025403784438 0.0
outer loop
vertex 100.085408640446 126.557729769072 28.8000000000047
vertex 101.817459448015 127.557729769072 26.8000000000067
vertex 100.085408640446 126.557729769072 26.8000000000067
endloop
endfacet
facet normal -0.500000000000002 0.866025403784438 0.0
outer loop
vertex 101.817459448015 127.557729769072 26.8000000000067
vertex 100.085408640446 126.557729769072 28.8000000000047
vertex 101.817459448015 127.557729769072 28.8000000000047
endloop
endfacet
facet normal -0.482962913144537 -0.836516303737811 0.258819045102507
outer loop
vertex 73.1482369149529 139.901179728309 20.2529523872474
vertex 71.2913105792532 140.684888968965 19.6500000000037
vertex 73.0233613868221 139.684888968965 19.6500000000037
endloop
endfacet
facet normal -0.433012701892223 -0.750000000000005 0.499999999999989
outer loop
vertex 71.2913105792532 140.684888968965 19.6500000000037
vertex 73.1482369149529 139.901179728309 20.2529523872474
vertex 71.4161861073839 140.901179728309 20.2529523872474
endloop
endfacet
facet normal 4.85655489312775e-16 2.9228440457723e-15 -1.0
outer loop
vertex 70.2087788245226 138.809888968965 81.2000000000035
vertex 71.6173058257135 137.24952929886 81.1148145657262
vertex 69.8852550181445 138.24952929886 81.1148145657262
endloop
endfacet
facet normal 0.12940952255126 0.224143868042015 -0.965925826289068
outer loop
vertex 71.6173058257135 137.24952929886 81.1148145657262
vertex 70.2087788245226 138.809888968965 81.2000000000035
vertex 71.9408296320916 137.809888968965 81.2000000000035
endloop
endfacet
facet normal 0.500000000000001 0.866025403784438 2.94066626556352e-16
outer loop
vertex 68.9587788245226 136.644825459504 20.9000000000037
vertex 70.7334223492302 135.71859820962 20.2529523872474
vertex 69.0013715416613 136.71859820962 20.2529523872474
endloop
endfacet
facet normal 0.482962913144536 0.836516303737808 0.258819045102515
outer loop
vertex 70.7334223492302 135.71859820962 20.2529523872474
vertex 68.9587788245226 136.644825459504 20.9000000000037
vertex 70.6908296320915 135.644825459504 20.9000000000037
endloop
endfacet
facet normal 0.250000000000003 0.433012701892221 0.866025403784437
outer loop
vertex 71.3158296320916 136.727357214234 18.7349364905426
vertex 69.8852550181445 138.24952929886 18.4851854342811
vertex 69.5837788245227 137.727357214234 18.7349364905426
endloop
endfacet
facet normal 0.12940952255126 0.22414386804201 0.965925826289069
outer loop
vertex 69.8852550181445 138.24952929886 18.4851854342811
vertex 71.3158296320916 136.727357214234 18.7349364905426
vertex 71.6173058257135 137.24952929886 18.4851854342811
endloop
endfacet
facet normal 0.433012701892223 0.750000000000005 -0.49999999999999
outer loop
vertex 69.1262470697921 136.934888968965 22.1500000000037
vertex 70.7334223492302 135.71859820962 21.54704761276
vertex 69.0013715416613 136.71859820962 21.54704761276
endloop
endfacet
facet normal 0.482962913144536 0.836516303737809 -0.258819045102515
outer loop
vertex 70.7334223492302 135.71859820962 21.54704761276
vertex 69.1262470697921 136.934888968965 22.1500000000037
vertex 70.858297877361 135.934888968965 22.1500000000037
endloop
endfacet
facet normal 0.86602540378444 -0.499999999999997 1.01660006609226e-15
outer loop
vertex 67.8068550358761 128.64963493112 82.0000000000058
vertex 70.6417915264149 133.559888968965 81.2000000000035
vertex 71.3346118494445 134.759888968968 82.0000000000058
endloop
endfacet
facet normal 0.86602540378444 -0.499999999999997 1.01660006609226e-15
outer loop
vertex 70.6417915264149 133.559888968965 81.2000000000035
vertex 67.8068550358761 128.64963493112 82.0000000000058
vertex 67.8068550358762 128.649634931121 38.8000000000036
endloop
endfacet
facet normal 0.86602540378444 -0.499999999999997 1.01660006609226e-15
outer loop
vertex 70.6417915264149 133.559888968965 81.2000000000035
vertex 67.8068550358762 128.649634931121 38.8000000000036
vertex 68.3068550358762 129.515660334905 38.8000000000036
endloop
endfacet
facet normal 0.86602540378444 -0.499999999999997 1.01660006609226e-15
outer loop
vertex 70.6417915264149 133.559888968965 81.2000000000035
vertex 68.3068550358762 129.515660334905 38.8000000000036
vertex 70.6417915264149 133.559888968965 76.2000000000035
endloop
endfacet
facet normal 0.86602540378444 -0.499999999999997 1.01660006609226e-15
outer loop
vertex 77.8068550358761 145.970143006809 28.8000000000036
vertex 68.3068550358762 129.515660334905 38.8000000000036
vertex 68.3068550358762 129.515660334905 28.8000000000036
endloop
endfacet
facet normal 0.86602540378444 -0.499999999999997 1.01660006609226e-15
outer loop
vertex 68.3068550358762 129.515660334905 38.8000000000036
vertex 77.8068550358761 145.970143006809 28.8000000000036
vertex 70.6417915264149 133.559888968965 76.2000000000035
endloop
endfacet
facet normal 0.86602540378444 -0.499999999999997 1.01660006609226e-15
outer loop
vertex 70.6417915264149 133.559888968965 76.2000000000035
vertex 77.8068550358761 145.970143006809 28.8000000000036
vertex 72.8068550358761 137.309888968965 73.7000000000035
endloop
endfacet
facet normal 0.86602540378444 -0.499999999999997 1.01660006609226e-15
outer loop
vertex 72.8068550358761 137.309888968965 73.7000000000035
vertex 77.8068550358761 145.970143006809 28.8000000000036
vertex 74.9719185453372 141.059888968965 76.2000000000035
endloop
endfacet
facet normal 0.86602540378444 -0.499999999999997 1.01660006609226e-15
outer loop
vertex 74.9719185453372 141.059888968965 76.2000000000035
vertex 77.8068550358761 145.970143006809 28.8000000000036
vertex 74.9719185453372 141.059888968965 81.2000000000035
endloop
endfacet
facet normal 0.86602540378444 -0.499999999999997 1.01660006609226e-15
outer loop
vertex 74.9719185453372 141.059888968965 81.2000000000035
vertex 77.8068550358761 145.970143006809 28.8000000000036
vertex 77.8068550358761 145.970143006809 82.0000000000058
endloop
endfacet
facet normal 0.86602540378444 -0.499999999999997 1.01660006609226e-15
outer loop
vertex 77.8068550358761 145.970143006809 82.0000000000058
vertex 74.2790982223077 139.859888968962 82.0000000000058
vertex 74.9719185453372 141.059888968965 81.2000000000035
endloop
endfacet
facet normal 0.482962913144536 0.836516303737809 -0.258819045102515
outer loop
vertex 69.0013715416613 136.71859820962 79.3470476127598
vertex 70.6908296320915 135.644825459504 78.7000000000035
vertex 68.9587788245226 136.644825459504 78.7000000000035
endloop
endfacet
facet normal 0.500000000000001 0.866025403784438 3.56444395825884e-17
outer loop
vertex 70.6908296320915 135.644825459504 78.7000000000035
vertex 69.0013715416613 136.71859820962 79.3470476127598
vertex 70.7334223492302 135.71859820962 79.3470476127598
endloop
endfacet
facet normal 0.500000000000001 0.866025403784438 3.56444395825881e-17
outer loop
vertex 68.9587788245226 136.644825459504 78.7000000000035
vertex 70.7334223492302 135.71859820962 78.0529523872472
vertex 69.0013715416613 136.71859820962 78.0529523872472
endloop
endfacet
facet normal 0.482962913144536 0.836516303737808 0.258819045102516
outer loop
vertex 70.7334223492302 135.71859820962 78.0529523872472
vertex 68.9587788245226 136.644825459504 78.7000000000035
vertex 70.6908296320915 135.644825459504 78.7000000000035
endloop
endfacet
facet normal -0.250000000000001 -0.433012701892221 0.866025403784437
outer loop
vertex 72.8068550358761 137.309888968965 73.7000000000035
vertex 74.1058931415527 141.559888968965 76.2000000000035
vertex 71.9408296320916 137.809888968965 73.7000000000035
endloop
endfacet
facet normal -0.250000000000001 -0.433012701892221 0.866025403784437
outer loop
vertex 74.1058931415527 141.559888968965 76.2000000000035
vertex 72.8068550358761 137.309888968965 73.7000000000035
vertex 74.9719185453372 141.059888968965 76.2000000000035
endloop
endfacet
facet normal 0.500000000000001 0.866025403784438 0.0
outer loop
vertex 69.7757661226305 134.059888968965 81.2000000000035
vertex 70.6417915264149 133.559888968965 76.2000000000035
vertex 69.7757661226305 134.059888968965 76.2000000000035
endloop
endfacet
facet normal 0.500000000000001 0.866025403784438 0.0
outer loop
vertex 70.6417915264149 133.559888968965 76.2000000000035
vertex 69.7757661226305 134.059888968965 81.2000000000035
vertex 70.6417915264149 133.559888968965 81.2000000000035
endloop
endfacet
facet normal 2.33101447497698e-14 -2.59945530862254e-14 -1.0
outer loop
vertex 77.8068550358762 145.970143006809 26.8000000000034
vertex 100.085408640446 130.557729769072 26.8000000000067
vertex 98.3533578328768 129.557729769072 26.8000000000067
endloop
endfacet
facet normal 2.33101447497698e-14 -2.59945530862254e-14 -1.0
outer loop
vertex 100.085408640446 130.557729769072 26.8000000000067
vertex 77.8068550358762 145.970143006809 26.8000000000034
vertex 163.543370010536 96.4701430068087 26.8000000000067
endloop
endfacet
facet normal 2.33101447497698e-14 -2.59945530862254e-14 -1.0
outer loop
vertex 100.085408640446 130.557729769072 26.8000000000067
vertex 163.543370010536 96.4701430068087 26.8000000000067
vertex 101.817459448015 129.557729769072 26.8000000000067
endloop
endfacet
facet normal 2.33101447497698e-14 -2.59945530862254e-14 -1.0
outer loop
vertex 101.817459448015 129.557729769072 26.8000000000067
vertex 163.543370010536 96.4701430068087 26.8000000000067
vertex 101.817459448015 127.557729769072 26.8000000000067
endloop
endfacet
facet normal 2.33101447497698e-14 -2.59945530862254e-14 -1.0
outer loop
vertex 101.817459448015 127.557729769072 26.8000000000067
vertex 163.543370010536 96.4701430068087 26.8000000000067
vertex 158.109110694003 97.0577297690717 26.8000000000067
endloop
endfacet
facet normal 2.33101447497698e-14 -2.59945530862254e-14 -1.0
outer loop
vertex 101.817459448015 127.557729769072 26.8000000000067
vertex 158.109110694003 97.0577297690717 26.8000000000067
vertex 156.377059886434 96.0577297690718 26.8000000000067
endloop
endfacet
facet normal 2.33101447497698e-14 -2.59945530862254e-14 -1.0
outer loop
vertex 101.817459448015 127.557729769072 26.8000000000067
vertex 156.377059886434 96.0577297690718 26.8000000000067
vertex 153.543370010536 79.1496349311201 26.8000000000069
endloop
endfacet
facet normal 2.33101447497698e-14 -2.59945530862254e-14 -1.0
outer loop
vertex 158.109110694003 97.0577297690717 26.8000000000067
vertex 163.543370010536 96.4701430068087 26.8000000000067
vertex 159.841161501572 96.0577297690717 26.8000000000067
endloop
endfacet
facet normal 2.33101447497698e-14 -2.59945530862254e-14 -1.0
outer loop
vertex 153.543370010536 79.1496349311201 26.8000000000069
vertex 159.841161501572 94.0577297690718 26.8000000000067
vertex 163.543370010536 96.4701430068087 26.8000000000067
endloop
endfacet
facet normal 2.33101447497698e-14 -2.59945530862254e-14 -1.0
outer loop
vertex 159.841161501572 94.0577297690718 26.8000000000067
vertex 153.543370010536 79.1496349311201 26.8000000000069
vertex 158.109110694003 93.0577297690719 26.8000000000067
endloop
endfacet
facet normal 2.33101447497698e-14 -2.59945530862254e-14 -1.0
outer loop
vertex 158.109110694003 93.0577297690719 26.8000000000067
vertex 153.543370010536 79.1496349311201 26.8000000000069
vertex 156.377059886434 94.0577297690718 26.8000000000067
endloop
endfacet
facet normal 2.33101447497698e-14 -2.59945530862254e-14 -1.0
outer loop
vertex 156.377059886434 94.0577297690718 26.8000000000067
vertex 153.543370010536 79.1496349311201 26.8000000000069
vertex 156.377059886434 96.0577297690718 26.8000000000067
endloop
endfacet
facet normal 2.33101447497698e-14 -2.59945530862254e-14 -1.0
outer loop
vertex 163.543370010536 96.4701430068087 26.8000000000067
vertex 159.841161501572 94.0577297690718 26.8000000000067
vertex 159.841161501572 96.0577297690717 26.8000000000067
endloop
endfacet
facet normal 2.33101447497698e-14 -2.59945530862254e-14 -1.0
outer loop
vertex 67.8068550358763 128.649634931121 26.8000000000036
vertex 98.3533578328768 127.557729769072 26.8000000000067
vertex 153.543370010536 79.1496349311201 26.8000000000069
endloop
endfacet
facet normal 2.33101447497698e-14 -2.59945530862254e-14 -1.0
outer loop
vertex 98.3533578328768 127.557729769072 26.8000000000067
vertex 67.8068550358763 128.649634931121 26.8000000000036
vertex 77.8068550358762 145.970143006809 26.8000000000034
endloop
endfacet
facet normal 2.33101447497698e-14 -2.59945530862254e-14 -1.0
outer loop
vertex 98.3533578328768 127.557729769072 26.8000000000067
vertex 77.8068550358762 145.970143006809 26.8000000000034
vertex 98.3533578328768 129.557729769072 26.8000000000067
endloop
endfacet
facet normal 2.33101447497698e-14 -2.59945530862254e-14 -1.0
outer loop
vertex 153.543370010536 79.1496349311201 26.8000000000069
vertex 98.3533578328768 127.557729769072 26.8000000000067
vertex 100.085408640446 126.557729769072 26.8000000000067
endloop
endfacet
facet normal 2.33101447497698e-14 -2.59945530862254e-14 -1.0
outer loop
vertex 153.543370010536 79.1496349311201 26.8000000000069
vertex 100.085408640446 126.557729769072 26.8000000000067
vertex 101.817459448015 127.557729769072 26.8000000000067
endloop
endfacet
facet normal 0.482962913144536 0.836516303737809 -0.258819045102514
outer loop
vertex 69.0013715416613 136.71859820962 21.54704761276
vertex 70.6908296320915 135.644825459504 20.9000000000037
vertex 68.9587788245226 136.644825459504 20.9000000000037
endloop
endfacet
facet normal 0.500000000000001 0.866025403784438 2.94066626556355e-16
outer loop
vertex 70.6908296320915 135.644825459504 20.9000000000037
vertex 69.0013715416613 136.71859820962 21.54704761276
vertex 70.7334223492302 135.71859820962 21.54704761276
endloop
endfacet
facet normal -0.866025403784436 0.500000000000004 2.93307948043225e-17
outer loop
vertex 65.2087788245225 130.149634931121 89.6000000000035
vertex 68.9587788245226 136.644825459504 78.7000000000035
vertex 65.2087788245225 130.149634931121 10.0000000000037
endloop
endfacet
facet normal -0.866025403784436 0.500000000000004 2.93307948043225e-17
outer loop
vertex 68.9587788245226 136.644825459504 78.7000000000035
vertex 65.2087788245225 130.149634931121 89.6000000000035
vertex 69.0013715416613 136.71859820962 79.3470476127598
endloop
endfacet
facet normal -0.866025403784436 0.500000000000004 2.93307948043225e-17
outer loop
vertex 69.0013715416613 136.71859820962 79.3470476127598
vertex 65.2087788245225 130.149634931121 89.6000000000035
vertex 69.1262470697921 136.934888968965 79.9500000000035
endloop
endfacet
facet normal -0.866025403784436 0.500000000000004 2.93307948043225e-17
outer loop
vertex 69.1262470697921 136.934888968965 79.9500000000035
vertex 65.2087788245225 130.149634931121 89.6000000000035
vertex 69.3248953480394 137.278957879725 80.4677669529699
endloop
endfacet
facet normal -0.866025403784436 0.500000000000004 2.93307948043225e-17
outer loop
vertex 69.3248953480394 137.278957879725 80.4677669529699
vertex 65.2087788245225 130.149634931121 89.6000000000035
vertex 75.2087788245227 147.470143006809 89.6000000000035
endloop
endfacet
facet normal -0.866025403784436 0.500000000000004 2.93307948043225e-17
outer loop
vertex 69.3248953480394 137.278957879725 80.4677669529699
vertex 75.2087788245227 147.470143006809 89.6000000000035
vertex 69.5837788245227 137.727357214234 80.8650635094646
endloop
endfacet
facet normal -0.866025403784436 0.500000000000004 2.93307948043225e-17
outer loop
vertex 69.5837788245227 137.727357214234 80.8650635094646
vertex 75.2087788245227 147.470143006809 89.6000000000035
vertex 69.8852550181445 138.24952929886 81.1148145657262
endloop
endfacet
facet normal -0.866025403784436 0.500000000000004 2.93307948043225e-17
outer loop
vertex 69.8852550181445 138.24952929886 81.1148145657262
vertex 75.2087788245227 147.470143006809 89.6000000000035
vertex 70.2087788245226 138.809888968965 81.2000000000035
endloop
endfacet
facet normal -0.866025403784436 0.500000000000004 2.93307948043225e-17
outer loop
vertex 70.2087788245226 138.809888968965 81.2000000000035
vertex 75.2087788245227 147.470143006809 89.6000000000035
vertex 70.5323026309008 139.37024863907 81.1148145657262
endloop
endfacet
facet normal -0.866025403784436 0.500000000000004 2.93307948043225e-17
outer loop
vertex 70.5323026309008 139.37024863907 81.1148145657262
vertex 75.2087788245227 147.470143006809 89.6000000000035
vertex 70.8337788245227 139.892420723695 80.8650635094646
endloop
endfacet
facet normal -0.866025403784436 0.500000000000004 2.93307948043225e-17
outer loop
vertex 70.8337788245227 139.892420723695 80.8650635094646
vertex 75.2087788245227 147.470143006809 89.6000000000035
vertex 71.0926623010058 140.340820058204 80.4677669529699
endloop
endfacet
facet normal -0.866025403784436 0.500000000000004 2.93307948043225e-17
outer loop
vertex 71.0926623010058 140.340820058204 80.4677669529699
vertex 75.2087788245227 147.470143006809 89.6000000000035
vertex 71.2913105792532 140.684888968965 79.9500000000035
endloop
endfacet
facet normal -0.866025403784436 0.500000000000004 2.93307948043225e-17
outer loop
vertex 71.2913105792532 140.684888968965 79.9500000000035
vertex 75.2087788245227 147.470143006809 89.6000000000035
vertex 71.4161861073839 140.901179728309 79.3470476127598
endloop
endfacet
facet normal -0.866025403784436 0.500000000000004 2.93307948043225e-17
outer loop
vertex 71.4161861073839 140.901179728309 79.3470476127598
vertex 75.2087788245227 147.470143006809 89.6000000000035
vertex 71.4587788245226 140.974952478426 78.7000000000035
endloop
endfacet
facet normal -0.866025403784436 0.500000000000004 2.93307948043225e-17
outer loop
vertex 71.4587788245226 140.974952478426 78.7000000000035
vertex 75.2087788245227 147.470143006809 89.6000000000035
vertex 71.4587788245226 140.974952478426 20.9000000000037
endloop
endfacet
facet normal -0.866025403784436 0.500000000000004 2.93307948043225e-17
outer loop
vertex 65.2087788245225 130.149634931121 10.0000000000037
vertex 69.3248953480394 137.278957879725 19.1322330470374
vertex 75.2087788245227 147.470143006809 10.0000000000037
endloop
endfacet
facet normal -0.866025403784436 0.500000000000004 2.93307948043225e-17
outer loop
vertex 69.3248953480394 137.278957879725 19.1322330470374
vertex 65.2087788245225 130.149634931121 10.0000000000037
vertex 69.1262470697921 136.934888968965 19.6500000000037
endloop
endfacet
facet normal -0.866025403784436 0.500000000000004 2.93307948043225e-17
outer loop
vertex 69.1262470697921 136.934888968965 19.6500000000037
vertex 65.2087788245225 130.149634931121 10.0000000000037
vertex 69.0013715416613 136.71859820962 20.2529523872474
endloop
endfacet
facet normal -0.866025403784436 0.500000000000004 2.93307948043225e-17
outer loop
vertex 69.0013715416613 136.71859820962 20.2529523872474
vertex 65.2087788245225 130.149634931121 10.0000000000037
vertex 68.9587788245226 136.644825459504 20.9000000000037
endloop
endfacet
facet normal -0.866025403784436 0.500000000000004 2.93307948043225e-17
outer loop
vertex 68.9587788245226 136.644825459504 20.9000000000037
vertex 65.2087788245225 130.149634931121 10.0000000000037
vertex 68.9587788245226 136.644825459504 78.7000000000035
endloop
endfacet
facet normal -0.866025403784436 0.500000000000004 2.93307948043225e-17
outer loop
vertex 75.2087788245227 147.470143006809 10.0000000000037
vertex 69.3248953480394 137.278957879725 19.1322330470374
vertex 69.5837788245227 137.727357214234 18.7349364905426
endloop
endfacet
facet normal -0.866025403784436 0.500000000000004 2.93307948043225e-17
outer loop
vertex 75.2087788245227 147.470143006809 10.0000000000037
vertex 69.5837788245227 137.727357214234 18.7349364905426
vertex 69.8852550181445 138.24952929886 18.4851854342811
endloop
endfacet
facet normal -0.866025403784436 0.500000000000004 2.93307948043225e-17
outer loop
vertex 75.2087788245227 147.470143006809 10.0000000000037
vertex 69.8852550181445 138.24952929886 18.4851854342811
vertex 70.2087788245226 138.809888968965 18.4000000000037
endloop
endfacet
facet normal -0.866025403784436 0.500000000000004 2.93307948043225e-17
outer loop
vertex 75.2087788245227 147.470143006809 10.0000000000037
vertex 70.2087788245226 138.809888968965 18.4000000000037
vertex 70.5323026309008 139.37024863907 18.4851854342811
endloop
endfacet
facet normal -0.866025403784436 0.500000000000004 2.93307948043225e-17
outer loop
vertex 75.2087788245227 147.470143006809 10.0000000000037
vertex 70.5323026309008 139.37024863907 18.4851854342811
vertex 70.8337788245227 139.892420723695 18.7349364905426
endloop
endfacet
facet normal -0.866025403784436 0.500000000000004 2.93307948043225e-17
outer loop
vertex 75.2087788245227 147.470143006809 10.0000000000037
vertex 70.8337788245227 139.892420723695 18.7349364905426
vertex 71.0926623010058 140.340820058204 19.1322330470374
endloop
endfacet
facet normal -0.866025403784436 0.500000000000004 2.93307948043225e-17
outer loop
vertex 75.2087788245227 147.470143006809 10.0000000000037
vertex 71.0926623010058 140.340820058204 19.1322330470374
vertex 71.2913105792532 140.684888968965 19.6500000000037
endloop
endfacet
facet normal -0.866025403784436 0.500000000000004 2.93307948043225e-17
outer loop
vertex 75.2087788245227 147.470143006809 10.0000000000037
vertex 71.2913105792532 140.684888968965 19.6500000000037
vertex 71.4161861073839 140.901179728309 20.2529523872474
endloop
endfacet
facet normal -0.866025403784436 0.500000000000004 2.93307948043225e-17
outer loop
vertex 75.2087788245227 147.470143006809 10.0000000000037
vertex 71.4161861073839 140.901179728309 20.2529523872474
vertex 71.4587788245226 140.974952478426 20.9000000000037
endloop
endfacet
facet normal -0.866025403784436 0.500000000000004 2.93307948043225e-17
outer loop
vertex 75.2087788245227 147.470143006809 10.0000000000037
vertex 71.4587788245226 140.974952478426 20.9000000000037
vertex 75.2087788245227 147.470143006809 89.6000000000035
endloop
endfacet
facet normal -0.866025403784436 0.500000000000004 2.93307948043225e-17
outer loop
vertex 69.0013715416613 136.71859820962 78.0529523872472
vertex 68.9587788245226 136.644825459504 20.9000000000037
vertex 68.9587788245226 136.644825459504 78.7000000000035
endloop
endfacet
facet normal -0.866025403784436 0.500000000000004 2.93307948043225e-17
outer loop
vertex 68.9587788245226 136.644825459504 20.9000000000037
vertex 69.0013715416613 136.71859820962 78.0529523872472
vertex 69.0013715416613 136.71859820962 21.54704761276
endloop
endfacet
facet normal -0.866025403784436 0.500000000000004 2.93307948043225e-17
outer loop
vertex 69.0013715416613 136.71859820962 21.54704761276
vertex 69.0013715416613 136.71859820962 78.0529523872472
vertex 69.1262470697921 136.934888968965 77.4500000000035
endloop
endfacet
facet normal -0.866025403784436 0.500000000000004 2.93307948043225e-17
outer loop
vertex 69.0013715416613 136.71859820962 21.54704761276
vertex 69.1262470697921 136.934888968965 77.4500000000035
vertex 69.1262470697921 136.934888968965 22.1500000000037
endloop
endfacet
facet normal -0.866025403784436 0.500000000000004 2.93307948043225e-17
outer loop
vertex 69.1262470697921 136.934888968965 22.1500000000037
vertex 69.1262470697921 136.934888968965 77.4500000000035
vertex 69.3248953480395 137.278957879725 76.9322330470371
endloop
endfacet
facet normal -0.866025403784436 0.500000000000004 2.93307948043225e-17
outer loop
vertex 69.1262470697921 136.934888968965 22.1500000000037
vertex 69.3248953480395 137.278957879725 76.9322330470371
vertex 69.3248953480395 137.278957879725 22.6677669529701
endloop
endfacet
facet normal -0.866025403784436 0.500000000000004 2.93307948043225e-17
outer loop
vertex 69.3248953480395 137.278957879725 22.6677669529701
vertex 69.3248953480395 137.278957879725 76.9322330470371
vertex 69.5837788245227 137.727357214234 76.5349364905424
endloop
endfacet
facet normal -0.866025403784436 0.500000000000004 2.93307948043225e-17
outer loop
vertex 69.3248953480395 137.278957879725 22.6677669529701
vertex 69.5837788245227 137.727357214234 76.5349364905424
vertex 69.5837788245227 137.727357214234 23.0650635094648
endloop
endfacet
facet normal -0.866025403784436 0.500000000000004 2.93307948043225e-17
outer loop
vertex 69.5837788245227 137.727357214234 23.0650635094648
vertex 69.5837788245227 137.727357214234 76.5349364905424
vertex 69.8852550181445 138.24952929886 76.2851854342808
endloop
endfacet
facet normal -0.866025403784436 0.500000000000004 2.93307948043225e-17
outer loop
vertex 69.5837788245227 137.727357214234 23.0650635094648
vertex 69.8852550181445 138.24952929886 76.2851854342808
vertex 69.8852550181445 138.24952929886 23.3148145657264
endloop
endfacet
facet normal -0.866025403784436 0.500000000000004 2.93307948043225e-17
outer loop
vertex 69.8852550181445 138.24952929886 23.3148145657264
vertex 69.8852550181445 138.24952929886 76.2851854342808
vertex 70.2087788245226 138.809888968965 76.2000000000035
endloop
endfacet
facet normal -0.866025403784436 0.500000000000004 2.93307948043225e-17
outer loop
vertex 69.8852550181445 138.24952929886 23.3148145657264
vertex 70.2087788245226 138.809888968965 76.2000000000035
vertex 70.2087788245226 138.809888968965 23.4000000000037
endloop
endfacet
facet normal -0.866025403784436 0.500000000000004 2.93307948043225e-17
outer loop
vertex 70.2087788245226 138.809888968965 23.4000000000037
vertex 70.2087788245226 138.809888968965 76.2000000000035
vertex 70.5323026309008 139.37024863907 76.2851854342808
endloop
endfacet
facet normal -0.866025403784436 0.500000000000004 2.93307948043225e-17
outer loop
vertex 70.2087788245226 138.809888968965 23.4000000000037
vertex 70.5323026309008 139.37024863907 76.2851854342808
vertex 70.5323026309008 139.37024863907 23.3148145657264
endloop
endfacet
facet normal -0.866025403784436 0.500000000000004 2.93307948043225e-17
outer loop
vertex 70.5323026309008 139.37024863907 23.3148145657264
vertex 70.5323026309008 139.37024863907 76.2851854342808
vertex 70.8337788245227 139.892420723695 76.5349364905424
endloop
endfacet
facet normal -0.866025403784436 0.500000000000004 2.93307948043225e-17
outer loop
vertex 70.5323026309008 139.37024863907 23.3148145657264
vertex 70.8337788245227 139.892420723695 76.5349364905424
vertex 70.8337788245227 139.892420723695 23.0650635094648
endloop
endfacet
facet normal -0.866025403784436 0.500000000000004 2.93307948043225e-17
outer loop
vertex 70.8337788245227 139.892420723695 23.0650635094648
vertex 70.8337788245227 139.892420723695 76.5349364905424
vertex 71.0926623010058 140.340820058204 76.9322330470371
endloop
endfacet
facet normal -0.866025403784436 0.500000000000004 2.93307948043225e-17
outer loop
vertex 70.8337788245227 139.892420723695 23.0650635094648
vertex 71.0926623010058 140.340820058204 76.9322330470371
vertex 71.0926623010058 140.340820058204 22.6677669529701
endloop
endfacet
facet normal -0.866025403784436 0.500000000000004 2.93307948043225e-17
outer loop
vertex 71.0926623010058 140.340820058204 22.6677669529701
vertex 71.0926623010058 140.340820058204 76.9322330470371
vertex 71.2913105792532 140.684888968965 77.4500000000035
endloop
endfacet
facet normal -0.866025403784436 0.500000000000004 2.93307948043225e-17
outer loop
vertex 71.0926623010058 140.340820058204 22.6677669529701
vertex 71.2913105792532 140.684888968965 77.4500000000035
vertex 71.2913105792532 140.684888968965 22.1500000000037
endloop
endfacet
facet normal -0.866025403784436 0.500000000000004 2.93307948043225e-17
outer loop
vertex 71.2913105792532 140.684888968965 22.1500000000037
vertex 71.2913105792532 140.684888968965 77.4500000000035
vertex 71.4161861073839 140.901179728309 78.0529523872472
endloop
endfacet
facet normal -0.866025403784436 0.500000000000004 2.93307948043225e-17
outer loop
vertex 71.2913105792532 140.684888968965 22.1500000000037
vertex 71.4161861073839 140.901179728309 78.0529523872472
vertex 71.4161861073839 140.901179728309 21.54704761276
endloop
endfacet
facet normal -0.866025403784436 0.500000000000004 2.93307948043225e-17
outer loop
vertex 71.4161861073839 140.901179728309 21.54704761276
vertex 71.4161861073839 140.901179728309 78.0529523872472
vertex 71.4587788245226 140.974952478426 78.7000000000035
endloop
endfacet
facet normal -0.866025403784436 0.500000000000004 2.93307948043225e-17
outer loop
vertex 71.4161861073839 140.901179728309 21.54704761276
vertex 71.4587788245226 140.974952478426 78.7000000000035
vertex 71.4587788245226 140.974952478426 20.9000000000037
endloop
endfacet
facet normal 0.353553390593268 0.612372435695782 0.707106781186561
outer loop
vertex 71.0569461556084 136.278957879725 19.1322330470374
vertex 69.5837788245227 137.727357214234 18.7349364905426
vertex 69.3248953480394 137.278957879725 19.1322330470374
endloop
endfacet
facet normal 0.250000000000005 0.433012701892224 0.866025403784435
outer loop
vertex 69.5837788245227 137.727357214234 18.7349364905426
vertex 71.0569461556084 136.278957879725 19.1322330470374
vertex 71.3158296320916 136.727357214234 18.7349364905426
endloop
endfacet
facet normal 0.500000000000003 0.866025403784437 1.63329762336298e-15
outer loop
vertex 68.3068550358762 129.515660334905 38.8000000000036
vertex 154.043370010536 80.0156603349044 28.8000000000068
vertex 68.3068550358762 129.515660334905 28.8000000000036
endloop
endfacet
facet normal -1.0 1.12798659301922e-14 0.0
outer loop
vertex 159.841161501572 96.0577297690717 28.8000000000069
vertex 159.841161501572 94.0577297690718 26.8000000000067
vertex 159.841161501572 94.0577297690718 28.8000000000069
endloop
endfacet
facet normal -1.0 1.12798659301922e-14 0.0
outer loop
vertex 159.841161501572 94.0577297690718 26.8000000000067
vertex 159.841161501572 96.0577297690717 28.8000000000069
vertex 159.841161501572 96.0577297690717 26.8000000000067
endloop
endfacet
facet normal -0.499999999999999 -0.866025403784439 -0.0
outer loop
vertex 159.841161501572 96.0577297690717 28.8000000000069
vertex 158.109110694003 97.0577297690717 26.8000000000067
vertex 159.841161501572 96.0577297690717 26.8000000000067
endloop
endfacet
facet normal -0.499999999999999 -0.866025403784439 -0.0
outer loop
vertex 158.109110694003 97.0577297690717 26.8000000000067
vertex 159.841161501572 96.0577297690717 28.8000000000069
vertex 158.109110694003 97.0577297690717 28.8000000000069
endloop
endfacet
facet normal 0.499999999999999 0.866025403784439 0.0
outer loop
vertex 156.377059886434 94.0577297690718 28.8000000000069
vertex 158.109110694003 93.0577297690719 26.8000000000067
vertex 156.377059886434 94.0577297690718 26.8000000000067
endloop
endfacet
facet normal 0.499999999999999 0.866025403784439 0.0
outer loop
vertex 158.109110694003 93.0577297690719 26.8000000000067
vertex 156.377059886434 94.0577297690718 28.8000000000069
vertex 158.109110694003 93.0577297690719 28.8000000000069
endloop
endfacet
facet normal -0.500000000000013 0.866025403784431 0.0
outer loop
vertex 158.109110694003 93.0577297690719 28.8000000000069
vertex 159.841161501572 94.0577297690718 26.8000000000067
vertex 158.109110694003 93.0577297690719 26.8000000000067
endloop
endfacet
facet normal -0.500000000000013 0.866025403784431 0.0
outer loop
vertex 159.841161501572 94.0577297690718 26.8000000000067
vertex 158.109110694003 93.0577297690719 28.8000000000069
vertex 159.841161501572 94.0577297690718 28.8000000000069
endloop
endfacet
facet normal 1.0 5.63993296509587e-14 0.0
outer loop
vertex 156.377059886434 96.0577297690718 26.8000000000067
vertex 156.377059886434 94.0577297690718 28.8000000000069
vertex 156.377059886434 94.0577297690718 26.8000000000067
endloop
endfacet
facet normal 1.0 5.63993296509587e-14 0.0
outer loop
vertex 156.377059886434 94.0577297690718 28.8000000000069
vertex 156.377059886434 96.0577297690718 26.8000000000067
vertex 156.377059886434 96.0577297690718 28.8000000000069
endloop
endfacet
facet normal -2.90207375365987e-14 1.47552494349978e-14 1.0
outer loop
vertex 68.3068550358762 129.515660334905 28.8000000000036
vertex 98.3533578328768 127.557729769072 28.8000000000047
vertex 77.8068550358761 145.970143006809 28.8000000000036
endloop
endfacet
facet normal -2.90207375365987e-14 1.47552494349978e-14 1.0
outer loop
vertex 98.3533578328768 127.557729769072 28.8000000000047
vertex 68.3068550358762 129.515660334905 28.8000000000036
vertex 154.043370010536 80.0156603349044 28.8000000000068
endloop
endfacet
facet normal -2.90207375365987e-14 1.47552494349978e-14 1.0
outer loop
vertex 98.3533578328768 127.557729769072 28.8000000000047
vertex 154.043370010536 80.0156603349044 28.8000000000068
vertex 100.085408640446 126.557729769072 28.8000000000047
endloop
endfacet
facet normal -2.90207375365987e-14 1.47552494349978e-14 1.0
outer loop
vertex 100.085408640446 126.557729769072 28.8000000000047
vertex 154.043370010536 80.0156603349044 28.8000000000068
vertex 101.817459448015 127.557729769072 28.8000000000047
endloop
endfacet
facet normal -2.90207375365987e-14 1.47552494349978e-14 1.0
outer loop
vertex 101.817459448015 127.557729769072 28.8000000000047
vertex 154.043370010536 80.0156603349044 28.8000000000068
vertex 101.817459448015 129.557729769072 28.8000000000047
endloop
endfacet
facet normal -2.90207375365987e-14 1.47552494349978e-14 1.0
outer loop
vertex 154.043370010536 80.0156603349044 28.8000000000068
vertex 156.377059886434 94.0577297690718 28.8000000000069
vertex 156.377059886434 96.0577297690718 28.8000000000069
endloop
endfacet
facet normal -2.90207375365987e-14 1.47552494349978e-14 1.0
outer loop
vertex 156.377059886434 94.0577297690718 28.8000000000069
vertex 154.043370010536 80.0156603349044 28.8000000000068
vertex 158.109110694003 93.0577297690719 28.8000000000069
endloop
endfacet
facet normal -2.90207375365987e-14 1.47552494349978e-14 1.0
outer loop
vertex 158.109110694003 93.0577297690719 28.8000000000069
vertex 154.043370010536 80.0156603349044 28.8000000000068
vertex 159.841161501572 94.0577297690718 28.8000000000069
endloop
endfacet
facet normal -2.90207375365987e-14 1.47552494349978e-14 1.0
outer loop
vertex 159.841161501572 94.0577297690718 28.8000000000069
vertex 154.043370010536 80.0156603349044 28.8000000000068
vertex 163.543370010536 96.4701430068086 28.8000000000069
endloop
endfacet
facet normal -2.90207375365987e-14 1.47552494349978e-14 1.0
outer loop
vertex 159.841161501572 94.0577297690718 28.8000000000069
vertex 163.543370010536 96.4701430068086 28.8000000000069
vertex 159.841161501572 96.0577297690717 28.8000000000069
endloop
endfacet
facet normal -2.90207375365987e-14 1.47552494349978e-14 1.0
outer loop
vertex 77.8068550358761 145.970143006809 28.8000000000036
vertex 100.085408640446 130.557729769072 28.8000000000047
vertex 163.543370010536 96.4701430068086 28.8000000000069
endloop
endfacet
facet normal -2.90207375365987e-14 1.47552494349978e-14 1.0
outer loop
vertex 100.085408640446 130.557729769072 28.8000000000047
vertex 77.8068550358761 145.970143006809 28.8000000000036
vertex 98.3533578328768 129.557729769072 28.8000000000047
endloop
endfacet
facet normal -2.90207375365987e-14 1.47552494349978e-14 1.0
outer loop
vertex 98.3533578328768 129.557729769072 28.8000000000047
vertex 77.8068550358761 145.970143006809 28.8000000000036
vertex 98.3533578328768 127.557729769072 28.8000000000047
endloop
endfacet
facet normal -2.90207375365987e-14 1.47552494349978e-14 1.0
outer loop
vertex 163.543370010536 96.4701430068086 28.8000000000069
vertex 100.085408640446 130.557729769072 28.8000000000047
vertex 101.817459448015 129.557729769072 28.8000000000047
endloop
endfacet
facet normal -2.90207375365987e-14 1.47552494349978e-14 1.0
outer loop
vertex 163.543370010536 96.4701430068086 28.8000000000069
vertex 101.817459448015 129.557729769072 28.8000000000047
vertex 158.109110694003 97.0577297690717 28.8000000000069
endloop
endfacet
facet normal -2.90207375365987e-14 1.47552494349978e-14 1.0
outer loop
vertex 158.109110694003 97.0577297690717 28.8000000000069
vertex 101.817459448015 129.557729769072 28.8000000000047
vertex 156.377059886434 96.0577297690718 28.8000000000069
endloop
endfacet
facet normal -2.90207375365987e-14 1.47552494349978e-14 1.0
outer loop
vertex 156.377059886434 96.0577297690718 28.8000000000069
vertex 101.817459448015 129.557729769072 28.8000000000047
vertex 154.043370010536 80.0156603349044 28.8000000000068
endloop
endfacet
facet normal -2.90207375365987e-14 1.47552494349978e-14 1.0
outer loop
vertex 163.543370010536 96.4701430068086 28.8000000000069
vertex 158.109110694003 97.0577297690717 28.8000000000069
vertex 159.841161501572 96.0577297690717 28.8000000000069
endloop
endfacet
facet normal 0.500000000000003 0.866025403784437 -6.69637804863838e-17
outer loop
vertex 75.2087788245227 147.470143006809 10.0000000000037
vertex 83.0030074585801 142.970143006811 12.6000000000066
vertex 83.0030074585801 142.970143006811 10.0000000000035
endloop
endfacet
facet normal 0.500000000000003 0.866025403784437 -6.69637804863838e-17
outer loop
vertex 83.0030074585801 142.970143006811 12.6000000000066
vertex 75.2087788245227 147.470143006809 10.0000000000037
vertex 77.806855035876 145.970143006809 12.6000000000068
endloop
endfacet
facet normal 0.500000000000003 0.866025403784437 -6.69637804863838e-17
outer loop
vertex 77.806855035876 145.970143006809 12.6000000000068
vertex 75.2087788245227 147.470143006809 10.0000000000037
vertex 75.2087788245227 147.470143006809 89.6000000000035
endloop
endfacet
facet normal 0.500000000000003 0.866025403784437 -6.69637804863838e-17
outer loop
vertex 77.806855035876 145.970143006809 12.6000000000068
vertex 75.2087788245227 147.470143006809 89.6000000000035
vertex 77.8068550358762 145.970143006809 26.8000000000034
endloop
endfacet
facet normal 0.500000000000003 0.866025403784437 -6.69637804863838e-17
outer loop
vertex 77.8068550358762 145.970143006809 26.8000000000034
vertex 75.2087788245227 147.470143006809 89.6000000000035
vertex 77.8068550358761 145.970143006809 28.8000000000036
endloop
endfacet
facet normal 0.500000000000003 0.866025403784437 -6.69637804863838e-17
outer loop
vertex 77.8068550358762 145.970143006809 26.8000000000034
vertex 77.8068550358761 145.970143006809 28.8000000000036
vertex 163.543370010536 96.4701430068087 26.8000000000067
endloop
endfacet
facet normal 0.500000000000003 0.866025403784437 -6.69637804863838e-17
outer loop
vertex 77.8068550358761 145.970143006809 28.8000000000036
vertex 75.2087788245227 147.470143006809 89.6000000000035
vertex 77.8068550358761 145.970143006809 82.0000000000058
endloop
endfacet
facet normal 0.500000000000003 0.866025403784437 -6.69637804863838e-17
outer loop
vertex 77.8068550358761 145.970143006809 82.0000000000058
vertex 75.2087788245227 147.470143006809 89.6000000000035
vertex 77.806855035876 145.970143006809 86.0000000000046
endloop
endfacet
facet normal 0.500000000000003 0.866025403784437 -6.69637804863838e-17
outer loop
vertex 77.8068550358761 145.970143006809 82.0000000000058
vertex 77.806855035876 145.970143006809 86.0000000000046
vertex 83.0030074585821 142.97014300681 82.0000000000058
endloop
endfacet
facet normal 0.500000000000003 0.866025403784437 -6.69637804863838e-17
outer loop
vertex 77.806855035876 145.970143006809 86.0000000000046
vertex 75.2087788245227 147.470143006809 89.6000000000035
vertex 77.806855035876 145.970143006809 89.6000000000035
endloop
endfacet
facet normal 0.500000000000003 0.866025403784437 -6.69637804863838e-17
outer loop
vertex 83.0030074585821 142.97014300681 86.0000000000047
vertex 83.0030074585821 142.97014300681 82.0000000000058
vertex 77.806855035876 145.970143006809 86.0000000000046
endloop
endfacet
facet normal 0.500000000000003 0.866025403784437 -6.69637804863838e-17
outer loop
vertex 163.543370010536 96.4701430068086 28.8000000000069
vertex 163.543370010536 96.4701430068087 26.8000000000067
vertex 77.8068550358761 145.970143006809 28.8000000000036
endloop
endfacet
facet normal 0.0870344324104546 -0.0502493529809009 0.994937189022498
outer loop
vertex 153.543370010536 79.14963493112 28.8000000000068
vertex 68.3068550358762 129.515660334905 38.8000000000036
vertex 67.8068550358762 128.649634931121 38.8000000000036
endloop
endfacet
facet normal 0.0870344324104546 -0.0502493529809009 0.994937189022498
outer loop
vertex 68.3068550358762 129.515660334905 38.8000000000036
vertex 153.543370010536 79.14963493112 28.8000000000068
vertex 154.043370010536 80.0156603349044 28.8000000000068
endloop
endfacet
endsolid Mockup
