solid Delta Mockup
facet normal 0.499999999999988 -0.866025403784445 0.0
outer loop
vertex 1177.80995078006 735.720929493284 14.0000000000004
vertex 1176.86934505596 735.331317845516 3.60955709766131e-13
vertex 1177.80995078006 735.720929493284 3.60955709766131e-13
endloop
endfacet
facet normal 0.258819045102553 -0.96592582628906 0.0
outer loop
vertex 1176.86934505596 735.331317845516 3.60955709766131e-13
vertex 1177.80995078006 735.720929493284 14.0000000000004
vertex 1176.86934505596 735.331317845516 14.0000000000004
endloop
endfacet
facet normal -0.866025403784419 -0.500000000000034 0.0
outer loop
vertex 1172.4824517053 737.148428568043 14.0000000000004
vertex 1173.10223433343 736.340712121416 3.60955709766131e-13
vertex 1173.10223433343 736.340712121416 14.0000000000004
endloop
endfacet
facet normal -0.707106781186498 -0.707106781186597 0.0
outer loop
vertex 1173.10223433343 736.340712121416 3.60955709766131e-13
vertex 1172.4824517053 737.148428568043 14.0000000000004
vertex 1172.4824517053 737.148428568043 3.60955709766131e-13
endloop
endfacet
facet normal 0.86602540378446 -0.499999999999963 0.0
outer loop
vertex 1179.23744985482 737.148428568043 3.60955709766131e-13
vertex 1178.61766722669 736.340712121416 14.0000000000004
vertex 1178.61766722669 736.340712121416 3.60955709766131e-13
endloop
endfacet
facet normal 0.707106781186498 -0.707106781186597 0.0
outer loop
vertex 1178.61766722669 736.340712121416 14.0000000000004
vertex 1179.23744985482 737.148428568043 3.60955709766131e-13
vertex 1179.23744985482 737.148428568043 14.0000000000004
endloop
endfacet
facet normal -0.499999999999988 0.866025403784445 0.0
outer loop
vertex 1173.90995078006 742.475927642803 14.0000000000004
vertex 1174.85055650416 742.865539290571 3.60955709766131e-13
vertex 1173.90995078006 742.475927642803 3.60955709766131e-13
endloop
endfacet
facet normal -0.258819045102553 0.96592582628906 0.0
outer loop
vertex 1174.85055650416 742.865539290571 3.60955709766131e-13
vertex 1173.90995078006 742.475927642803 14.0000000000004
vertex 1174.85055650416 742.865539290571 14.0000000000004
endloop
endfacet
facet normal 0.499999999999988 0.866025403784445 0.0
outer loop
vertex 1177.80995078006 742.475927642803 14.0000000000004
vertex 1178.61766722669 741.856145014671 3.60955709766131e-13
vertex 1177.80995078006 742.475927642803 3.60955709766131e-13
endloop
endfacet
facet normal 0.707106781186498 0.707106781186597 0.0
outer loop
vertex 1178.61766722669 741.856145014671 3.60955709766131e-13
vertex 1177.80995078006 742.475927642803 14.0000000000004
vertex 1178.61766722669 741.856145014671 14.0000000000004
endloop
endfacet
facet normal -0.86602540378446 0.499999999999963 0.0
outer loop
vertex 1172.4824517053 741.048428568043 14.0000000000004
vertex 1172.09284005753 740.107822843943 3.60955709766131e-13
vertex 1172.09284005753 740.107822843943 14.0000000000004
endloop
endfacet
facet normal -0.965925826289074 0.2588190451025 0.0
outer loop
vertex 1172.09284005753 740.107822843943 3.60955709766131e-13
vertex 1172.4824517053 741.048428568043 14.0000000000004
vertex 1172.4824517053 741.048428568043 3.60955709766131e-13
endloop
endfacet
facet normal -1.0 8.788136579087e-14 0.0
outer loop
vertex 1171.95995078006 739.098428568043 14.0000000000004
vertex 1172.09284005753 738.089034292144 3.60955709766131e-13
vertex 1172.09284005753 738.089034292144 14.0000000000004
endloop
endfacet
facet normal -0.965925826289075 -0.258819045102494 0.0
outer loop
vertex 1172.09284005753 738.089034292144 3.60955709766131e-13
vertex 1171.95995078006 739.098428568043 14.0000000000004
vertex 1171.95995078006 739.098428568043 3.60955709766131e-13
endloop
endfacet
facet normal 0.0 0.0 -1.0
outer loop
vertex 1172.09284005753 740.107822843943 3.60955709766131e-13
vertex 1172.09284005753 738.089034292144 3.60955709766131e-13
vertex 1171.95995078006 739.098428568043 3.60955709766131e-13
endloop
endfacet
facet normal 0.0 0.0 -1.0
outer loop
vertex 1172.09284005753 738.089034292144 3.60955709766131e-13
vertex 1172.09284005753 740.107822843943 3.60955709766131e-13
vertex 1172.4824517053 737.148428568043 3.60955709766131e-13
endloop
endfacet
facet normal 0.0 0.0 -1.0
outer loop
vertex 1172.4824517053 737.148428568043 3.60955709766131e-13
vertex 1172.09284005753 740.107822843943 3.60955709766131e-13
vertex 1172.4824517053 741.048428568043 3.60955709766131e-13
endloop
endfacet
facet normal 0.0 0.0 -1.0
outer loop
vertex 1172.4824517053 737.148428568043 3.60955709766131e-13
vertex 1172.4824517053 741.048428568043 3.60955709766131e-13
vertex 1173.10223433343 741.856145014671 3.60955709766131e-13
endloop
endfacet
facet normal 0.0 0.0 -1.0
outer loop
vertex 1172.4824517053 737.148428568043 3.60955709766131e-13
vertex 1173.10223433343 741.856145014671 3.60955709766131e-13
vertex 1173.10223433343 736.340712121416 3.60955709766131e-13
endloop
endfacet
facet normal 0.0 0.0 -1.0
outer loop
vertex 1173.10223433343 736.340712121416 3.60955709766131e-13
vertex 1173.10223433343 741.856145014671 3.60955709766131e-13
vertex 1173.35995078006 739.098428568043 3.60955709766131e-13
endloop
endfacet
facet normal 0.0 0.0 -1.0
outer loop
vertex 1173.35995078006 739.098428568043 3.60955709766131e-13
vertex 1173.10223433343 741.856145014671 3.60955709766131e-13
vertex 1173.90995078006 742.475927642803 3.60955709766131e-13
endloop
endfacet
facet normal 0.0 0.0 -1.0
outer loop
vertex 1173.35995078006 739.098428568043 3.60955709766131e-13
vertex 1173.90995078006 742.475927642803 3.60955709766131e-13
vertex 1174.60995078006 741.263492077504 3.60955709766131e-13
endloop
endfacet
facet normal 0.0 0.0 -1.0
outer loop
vertex 1174.60995078006 741.263492077504 3.60955709766131e-13
vertex 1173.90995078006 742.475927642803 3.60955709766131e-13
vertex 1174.85055650416 742.865539290571 3.60955709766131e-13
endloop
endfacet
facet normal 0.0 0.0 -1.0
outer loop
vertex 1174.60995078006 741.263492077504 3.60955709766131e-13
vertex 1174.85055650416 742.865539290571 3.60955709766131e-13
vertex 1177.10995078006 741.263492077504 3.60955709766131e-13
endloop
endfacet
facet normal 0.0 0.0 -1.0
outer loop
vertex 1177.10995078006 741.263492077504 3.60955709766131e-13
vertex 1174.85055650416 742.865539290571 3.60955709766131e-13
vertex 1175.85995078006 742.998428568043 3.60955709766131e-13
endloop
endfacet
facet normal 0.0 0.0 -1.0
outer loop
vertex 1177.10995078006 741.263492077504 3.60955709766131e-13
vertex 1175.85995078006 742.998428568043 3.60955709766131e-13
vertex 1176.86934505596 742.865539290571 3.60955709766131e-13
endloop
endfacet
facet normal 0.0 0.0 -1.0
outer loop
vertex 1177.10995078006 741.263492077504 3.60955709766131e-13
vertex 1176.86934505596 742.865539290571 3.60955709766131e-13
vertex 1177.80995078006 742.475927642803 3.60955709766131e-13
endloop
endfacet
facet normal 0.0 0.0 -1.0
outer loop
vertex 1177.10995078006 741.263492077504 3.60955709766131e-13
vertex 1177.80995078006 742.475927642803 3.60955709766131e-13
vertex 1178.35995078006 739.098428568043 3.60955709766131e-13
endloop
endfacet
facet normal 0.0 0.0 -1.0
outer loop
vertex 1178.35995078006 739.098428568043 3.60955709766131e-13
vertex 1177.80995078006 742.475927642803 3.60955709766131e-13
vertex 1178.61766722669 741.856145014671 3.60955709766131e-13
endloop
endfacet
facet normal 0.0 0.0 -1.0
outer loop
vertex 1173.35995078006 739.098428568043 3.60955709766131e-13
vertex 1173.90995078006 735.720929493284 3.60955709766131e-13
vertex 1173.10223433343 736.340712121416 3.60955709766131e-13
endloop
endfacet
facet normal 0.0 0.0 -1.0
outer loop
vertex 1173.90995078006 735.720929493284 3.60955709766131e-13
vertex 1173.35995078006 739.098428568043 3.60955709766131e-13
vertex 1174.60995078006 736.933365058582 3.60955709766131e-13
endloop
endfacet
facet normal 0.0 0.0 -1.0
outer loop
vertex 1173.90995078006 735.720929493284 3.60955709766131e-13
vertex 1174.60995078006 736.933365058582 3.60955709766131e-13
vertex 1174.85055650416 735.331317845516 3.60955709766131e-13
endloop
endfacet
facet normal 0.0 0.0 -1.0
outer loop
vertex 1174.85055650416 735.331317845516 3.60955709766131e-13
vertex 1174.60995078006 736.933365058582 3.60955709766131e-13
vertex 1177.10995078006 736.933365058582 3.60955709766131e-13
endloop
endfacet
facet normal 0.0 0.0 -1.0
outer loop
vertex 1174.85055650416 735.331317845516 3.60955709766131e-13
vertex 1177.10995078006 736.933365058582 3.60955709766131e-13
vertex 1175.85995078006 735.198428568043 3.60955709766131e-13
endloop
endfacet
facet normal 0.0 0.0 -1.0
outer loop
vertex 1175.85995078006 735.198428568043 3.60955709766131e-13
vertex 1177.10995078006 736.933365058582 3.60955709766131e-13
vertex 1176.86934505596 735.331317845516 3.60955709766131e-13
endloop
endfacet
facet normal 0.0 0.0 -1.0
outer loop
vertex 1176.86934505596 735.331317845516 3.60955709766131e-13
vertex 1177.10995078006 736.933365058582 3.60955709766131e-13
vertex 1177.80995078006 735.720929493284 3.60955709766131e-13
endloop
endfacet
facet normal 0.0 0.0 -1.0
outer loop
vertex 1177.80995078006 735.720929493284 3.60955709766131e-13
vertex 1177.10995078006 736.933365058582 3.60955709766131e-13
vertex 1178.35995078006 739.098428568043 3.60955709766131e-13
endloop
endfacet
facet normal 0.0 0.0 -1.0
outer loop
vertex 1177.80995078006 735.720929493284 3.60955709766131e-13
vertex 1178.35995078006 739.098428568043 3.60955709766131e-13
vertex 1178.61766722669 736.340712121416 3.60955709766131e-13
endloop
endfacet
facet normal 0.0 0.0 -1.0
outer loop
vertex 1178.61766722669 736.340712121416 3.60955709766131e-13
vertex 1178.35995078006 739.098428568043 3.60955709766131e-13
vertex 1178.61766722669 741.856145014671 3.60955709766131e-13
endloop
endfacet
facet normal 0.0 0.0 -1.0
outer loop
vertex 1178.61766722669 736.340712121416 3.60955709766131e-13
vertex 1178.61766722669 741.856145014671 3.60955709766131e-13
vertex 1179.23744985482 741.048428568043 3.60955709766131e-13
endloop
endfacet
facet normal 0.0 0.0 -1.0
outer loop
vertex 1178.61766722669 736.340712121416 3.60955709766131e-13
vertex 1179.23744985482 741.048428568043 3.60955709766131e-13
vertex 1179.23744985482 737.148428568043 3.60955709766131e-13
endloop
endfacet
facet normal 0.0 0.0 -1.0
outer loop
vertex 1179.23744985482 737.148428568043 3.60955709766131e-13
vertex 1179.23744985482 741.048428568043 3.60955709766131e-13
vertex 1179.62706150259 740.107822843943 3.60955709766131e-13
endloop
endfacet
facet normal 0.0 0.0 -1.0
outer loop
vertex 1179.23744985482 737.148428568043 3.60955709766131e-13
vertex 1179.62706150259 740.107822843943 3.60955709766131e-13
vertex 1179.62706150259 738.089034292144 3.60955709766131e-13
endloop
endfacet
facet normal 0.0 0.0 -1.0
outer loop
vertex 1179.62706150259 738.089034292144 3.60955709766131e-13
vertex 1179.62706150259 740.107822843943 3.60955709766131e-13
vertex 1179.75995078006 739.098428568043 3.60955709766131e-13
endloop
endfacet
facet normal 0.866025403784419 0.500000000000034 0.0
outer loop
vertex 1179.23744985482 741.048428568043 3.60955709766131e-13
vertex 1179.62706150259 740.107822843943 14.0000000000004
vertex 1179.62706150259 740.107822843943 3.60955709766131e-13
endloop
endfacet
facet normal 0.965925826289075 0.258819045102494 0.0
outer loop
vertex 1179.62706150259 740.107822843943 14.0000000000004
vertex 1179.23744985482 741.048428568043 3.60955709766131e-13
vertex 1179.23744985482 741.048428568043 14.0000000000004
endloop
endfacet
facet normal 0.0 0.0 1.0
outer loop
vertex 1172.09284005753 738.089034292144 14.0000000000004
vertex 1172.09284005753 740.107822843943 14.0000000000004
vertex 1171.95995078006 739.098428568043 14.0000000000004
endloop
endfacet
facet normal 0.0 0.0 1.0
outer loop
vertex 1172.09284005753 740.107822843943 14.0000000000004
vertex 1172.09284005753 738.089034292144 14.0000000000004
vertex 1172.4824517053 737.148428568043 14.0000000000004
endloop
endfacet
facet normal 0.0 0.0 1.0
outer loop
vertex 1172.09284005753 740.107822843943 14.0000000000004
vertex 1172.4824517053 737.148428568043 14.0000000000004
vertex 1172.4824517053 741.048428568043 14.0000000000004
endloop
endfacet
facet normal 0.0 0.0 1.0
outer loop
vertex 1172.4824517053 741.048428568043 14.0000000000004
vertex 1172.4824517053 737.148428568043 14.0000000000004
vertex 1173.10223433343 736.340712121416 14.0000000000004
endloop
endfacet
facet normal 0.0 0.0 1.0
outer loop
vertex 1172.4824517053 741.048428568043 14.0000000000004
vertex 1173.10223433343 736.340712121416 14.0000000000004
vertex 1173.10223433343 741.856145014671 14.0000000000004
endloop
endfacet
facet normal 0.0 0.0 1.0
outer loop
vertex 1173.10223433343 741.856145014671 14.0000000000004
vertex 1173.10223433343 736.340712121416 14.0000000000004
vertex 1173.35995078006 739.098428568043 14.0000000000004
endloop
endfacet
facet normal 0.0 0.0 1.0
outer loop
vertex 1173.35995078006 739.098428568043 14.0000000000004
vertex 1173.10223433343 736.340712121416 14.0000000000004
vertex 1173.90995078006 735.720929493284 14.0000000000004
endloop
endfacet
facet normal 0.0 0.0 1.0
outer loop
vertex 1173.35995078006 739.098428568043 14.0000000000004
vertex 1173.90995078006 735.720929493284 14.0000000000004
vertex 1174.60995078006 736.933365058582 14.0000000000004
endloop
endfacet
facet normal 0.0 0.0 1.0
outer loop
vertex 1174.60995078006 736.933365058582 14.0000000000004
vertex 1173.90995078006 735.720929493284 14.0000000000004
vertex 1174.85055650416 735.331317845516 14.0000000000004
endloop
endfacet
facet normal 0.0 0.0 1.0
outer loop
vertex 1174.60995078006 736.933365058582 14.0000000000004
vertex 1174.85055650416 735.331317845516 14.0000000000004
vertex 1177.10995078006 736.933365058582 14.0000000000004
endloop
endfacet
facet normal 0.0 0.0 1.0
outer loop
vertex 1177.10995078006 736.933365058582 14.0000000000004
vertex 1174.85055650416 735.331317845516 14.0000000000004
vertex 1175.85995078006 735.198428568043 14.0000000000004
endloop
endfacet
facet normal 0.0 0.0 1.0
outer loop
vertex 1177.10995078006 736.933365058582 14.0000000000004
vertex 1175.85995078006 735.198428568043 14.0000000000004
vertex 1176.86934505596 735.331317845516 14.0000000000004
endloop
endfacet
facet normal 0.0 0.0 1.0
outer loop
vertex 1177.10995078006 736.933365058582 14.0000000000004
vertex 1176.86934505596 735.331317845516 14.0000000000004
vertex 1177.80995078006 735.720929493284 14.0000000000004
endloop
endfacet
facet normal 0.0 0.0 1.0
outer loop
vertex 1177.10995078006 736.933365058582 14.0000000000004
vertex 1177.80995078006 735.720929493284 14.0000000000004
vertex 1178.35995078006 739.098428568043 14.0000000000004
endloop
endfacet
facet normal 0.0 0.0 1.0
outer loop
vertex 1178.35995078006 739.098428568043 14.0000000000004
vertex 1177.80995078006 735.720929493284 14.0000000000004
vertex 1178.61766722669 736.340712121416 14.0000000000004
endloop
endfacet
facet normal 0.0 0.0 1.0
outer loop
vertex 1173.35995078006 739.098428568043 14.0000000000004
vertex 1173.90995078006 742.475927642803 14.0000000000004
vertex 1173.10223433343 741.856145014671 14.0000000000004
endloop
endfacet
facet normal 0.0 0.0 1.0
outer loop
vertex 1173.90995078006 742.475927642803 14.0000000000004
vertex 1173.35995078006 739.098428568043 14.0000000000004
vertex 1174.60995078006 741.263492077504 14.0000000000004
endloop
endfacet
facet normal 0.0 0.0 1.0
outer loop
vertex 1173.90995078006 742.475927642803 14.0000000000004
vertex 1174.60995078006 741.263492077504 14.0000000000004
vertex 1174.85055650416 742.865539290571 14.0000000000004
endloop
endfacet
facet normal 0.0 0.0 1.0
outer loop
vertex 1174.85055650416 742.865539290571 14.0000000000004
vertex 1174.60995078006 741.263492077504 14.0000000000004
vertex 1177.10995078006 741.263492077504 14.0000000000004
endloop
endfacet
facet normal 0.0 0.0 1.0
outer loop
vertex 1174.85055650416 742.865539290571 14.0000000000004
vertex 1177.10995078006 741.263492077504 14.0000000000004
vertex 1175.85995078006 742.998428568043 14.0000000000004
endloop
endfacet
facet normal 0.0 0.0 1.0
outer loop
vertex 1175.85995078006 742.998428568043 14.0000000000004
vertex 1177.10995078006 741.263492077504 14.0000000000004
vertex 1176.86934505596 742.865539290571 14.0000000000004
endloop
endfacet
facet normal 0.0 0.0 1.0
outer loop
vertex 1176.86934505596 742.865539290571 14.0000000000004
vertex 1177.10995078006 741.263492077504 14.0000000000004
vertex 1177.80995078006 742.475927642803 14.0000000000004
endloop
endfacet
facet normal 0.0 0.0 1.0
outer loop
vertex 1177.80995078006 742.475927642803 14.0000000000004
vertex 1177.10995078006 741.263492077504 14.0000000000004
vertex 1178.35995078006 739.098428568043 14.0000000000004
endloop
endfacet
facet normal 0.0 0.0 1.0
outer loop
vertex 1177.80995078006 742.475927642803 14.0000000000004
vertex 1178.35995078006 739.098428568043 14.0000000000004
vertex 1178.61766722669 741.856145014671 14.0000000000004
endloop
endfacet
facet normal 0.0 0.0 1.0
outer loop
vertex 1178.61766722669 741.856145014671 14.0000000000004
vertex 1178.35995078006 739.098428568043 14.0000000000004
vertex 1178.61766722669 736.340712121416 14.0000000000004
endloop
endfacet
facet normal 0.0 0.0 1.0
outer loop
vertex 1178.61766722669 741.856145014671 14.0000000000004
vertex 1178.61766722669 736.340712121416 14.0000000000004
vertex 1179.23744985482 737.148428568043 14.0000000000004
endloop
endfacet
facet normal 0.0 0.0 1.0
outer loop
vertex 1178.61766722669 741.856145014671 14.0000000000004
vertex 1179.23744985482 737.148428568043 14.0000000000004
vertex 1179.23744985482 741.048428568043 14.0000000000004
endloop
endfacet
facet normal 0.0 0.0 1.0
outer loop
vertex 1179.23744985482 741.048428568043 14.0000000000004
vertex 1179.23744985482 737.148428568043 14.0000000000004
vertex 1179.62706150259 738.089034292144 14.0000000000004
endloop
endfacet
facet normal 0.0 0.0 1.0
outer loop
vertex 1179.23744985482 741.048428568043 14.0000000000004
vertex 1179.62706150259 738.089034292144 14.0000000000004
vertex 1179.62706150259 740.107822843943 14.0000000000004
endloop
endfacet
facet normal 0.0 0.0 1.0
outer loop
vertex 1179.62706150259 740.107822843943 14.0000000000004
vertex 1179.62706150259 738.089034292144 14.0000000000004
vertex 1179.75995078006 739.098428568043 14.0000000000004
endloop
endfacet
facet normal 0.866025403784453 0.499999999999975 0.0
outer loop
vertex 1173.35995078006 739.098428568043 3.60955709766131e-13
vertex 1174.60995078006 736.933365058582 14.0000000000004
vertex 1174.60995078006 736.933365058582 3.60955709766131e-13
endloop
endfacet
facet normal 0.866025403784453 0.499999999999975 0.0
outer loop
vertex 1174.60995078006 736.933365058582 14.0000000000004
vertex 1173.35995078006 739.098428568043 3.60955709766131e-13
vertex 1173.35995078006 739.098428568043 14.0000000000004
endloop
endfacet
facet normal -0.707106781186498 0.707106781186597 0.0
outer loop
vertex 1173.10223433343 741.856145014671 14.0000000000004
vertex 1173.90995078006 742.475927642803 3.60955709766131e-13
vertex 1173.10223433343 741.856145014671 3.60955709766131e-13
endloop
endfacet
facet normal -0.499999999999988 0.866025403784445 0.0
outer loop
vertex 1173.90995078006 742.475927642803 3.60955709766131e-13
vertex 1173.10223433343 741.856145014671 14.0000000000004
vertex 1173.90995078006 742.475927642803 14.0000000000004
endloop
endfacet
facet normal 0.866025403784422 -0.500000000000029 0.0
outer loop
vertex 1174.60995078006 741.263492077504 3.60955709766131e-13
vertex 1173.35995078006 739.098428568043 14.0000000000004
vertex 1173.35995078006 739.098428568043 3.60955709766131e-13
endloop
endfacet
facet normal 0.866025403784422 -0.500000000000029 0.0
outer loop
vertex 1173.35995078006 739.098428568043 14.0000000000004
vertex 1174.60995078006 741.263492077504 3.60955709766131e-13
vertex 1174.60995078006 741.263492077504 14.0000000000004
endloop
endfacet
facet normal -0.965925826289075 -0.258819045102494 0.0
outer loop
vertex 1172.09284005753 738.089034292144 14.0000000000004
vertex 1172.4824517053 737.148428568043 3.60955709766131e-13
vertex 1172.4824517053 737.148428568043 14.0000000000004
endloop
endfacet
facet normal -0.866025403784419 -0.500000000000034 0.0
outer loop
vertex 1172.4824517053 737.148428568043 3.60955709766131e-13
vertex 1172.09284005753 738.089034292144 14.0000000000004
vertex 1172.09284005753 738.089034292144 3.60955709766131e-13
endloop
endfacet
facet normal 0.965925826289075 0.258819045102494 0.0
outer loop
vertex 1179.62706150259 740.107822843943 3.60955709766131e-13
vertex 1179.75995078006 739.098428568043 14.0000000000004
vertex 1179.75995078006 739.098428568043 3.60955709766131e-13
endloop
endfacet
facet normal 1.0 -8.788136579087e-14 0.0
outer loop
vertex 1179.75995078006 739.098428568043 14.0000000000004
vertex 1179.62706150259 740.107822843943 3.60955709766131e-13
vertex 1179.62706150259 740.107822843943 14.0000000000004
endloop
endfacet
facet normal -0.258819045102553 0.96592582628906 0.0
outer loop
vertex 1174.85055650416 742.865539290571 14.0000000000004
vertex 1175.85995078006 742.998428568043 3.60955709766131e-13
vertex 1174.85055650416 742.865539290571 3.60955709766131e-13
endloop
endfacet
facet normal 0.0 1.0 0.0
outer loop
vertex 1175.85995078006 742.998428568043 3.60955709766131e-13
vertex 1174.85055650416 742.865539290571 14.0000000000004
vertex 1175.85995078006 742.998428568043 14.0000000000004
endloop
endfacet
facet normal 0.707106781186498 -0.707106781186597 0.0
outer loop
vertex 1178.61766722669 736.340712121416 14.0000000000004
vertex 1177.80995078006 735.720929493284 3.60955709766131e-13
vertex 1178.61766722669 736.340712121416 3.60955709766131e-13
endloop
endfacet
facet normal 0.499999999999988 -0.866025403784445 0.0
outer loop
vertex 1177.80995078006 735.720929493284 3.60955709766131e-13
vertex 1178.61766722669 736.340712121416 14.0000000000004
vertex 1177.80995078006 735.720929493284 14.0000000000004
endloop
endfacet
facet normal -0.0 1.0 0.0
outer loop
vertex 1174.60995078006 736.933365058582 14.0000000000004
vertex 1177.10995078006 736.933365058582 3.60955709766131e-13
vertex 1174.60995078006 736.933365058582 3.60955709766131e-13
endloop
endfacet
facet normal -0.0 1.0 0.0
outer loop
vertex 1177.10995078006 736.933365058582 3.60955709766131e-13
vertex 1174.60995078006 736.933365058582 14.0000000000004
vertex 1177.10995078006 736.933365058582 14.0000000000004
endloop
endfacet
facet normal -0.707106781186498 0.707106781186597 0.0
outer loop
vertex 1173.10223433343 741.856145014671 14.0000000000004
vertex 1172.4824517053 741.048428568043 3.60955709766131e-13
vertex 1172.4824517053 741.048428568043 14.0000000000004
endloop
endfacet
facet normal -0.86602540378446 0.499999999999963 0.0
outer loop
vertex 1172.4824517053 741.048428568043 3.60955709766131e-13
vertex 1173.10223433343 741.856145014671 14.0000000000004
vertex 1173.10223433343 741.856145014671 3.60955709766131e-13
endloop
endfacet
facet normal 0.965925826289074 -0.2588190451025 0.0
outer loop
vertex 1179.62706150259 738.089034292144 3.60955709766131e-13
vertex 1179.23744985482 737.148428568043 14.0000000000004
vertex 1179.23744985482 737.148428568043 3.60955709766131e-13
endloop
endfacet
facet normal 0.86602540378446 -0.499999999999963 0.0
outer loop
vertex 1179.23744985482 737.148428568043 14.0000000000004
vertex 1179.62706150259 738.089034292144 3.60955709766131e-13
vertex 1179.62706150259 738.089034292144 14.0000000000004
endloop
endfacet
facet normal -0.965925826289074 0.2588190451025 0.0
outer loop
vertex 1172.09284005753 740.107822843943 14.0000000000004
vertex 1171.95995078006 739.098428568043 3.60955709766131e-13
vertex 1171.95995078006 739.098428568043 14.0000000000004
endloop
endfacet
facet normal -1.0 8.788136579087e-14 0.0
outer loop
vertex 1171.95995078006 739.098428568043 3.60955709766131e-13
vertex 1172.09284005753 740.107822843943 14.0000000000004
vertex 1172.09284005753 740.107822843943 3.60955709766131e-13
endloop
endfacet
facet normal -0.499999999999988 -0.866025403784445 0.0
outer loop
vertex 1173.90995078006 735.720929493284 14.0000000000004
vertex 1173.10223433343 736.340712121416 3.60955709766131e-13
vertex 1173.90995078006 735.720929493284 3.60955709766131e-13
endloop
endfacet
facet normal -0.707106781186498 -0.707106781186597 0.0
outer loop
vertex 1173.10223433343 736.340712121416 3.60955709766131e-13
vertex 1173.90995078006 735.720929493284 14.0000000000004
vertex 1173.10223433343 736.340712121416 14.0000000000004
endloop
endfacet
facet normal 0.0 1.0 0.0
outer loop
vertex 1175.85995078006 742.998428568043 14.0000000000004
vertex 1176.86934505596 742.865539290571 3.60955709766131e-13
vertex 1175.85995078006 742.998428568043 3.60955709766131e-13
endloop
endfacet
facet normal 0.258819045102553 0.96592582628906 0.0
outer loop
vertex 1176.86934505596 742.865539290571 3.60955709766131e-13
vertex 1175.85995078006 742.998428568043 14.0000000000004
vertex 1176.86934505596 742.865539290571 14.0000000000004
endloop
endfacet
facet normal 0.258819045102553 0.96592582628906 0.0
outer loop
vertex 1176.86934505596 742.865539290571 14.0000000000004
vertex 1177.80995078006 742.475927642803 3.60955709766131e-13
vertex 1176.86934505596 742.865539290571 3.60955709766131e-13
endloop
endfacet
facet normal 0.499999999999988 0.866025403784445 0.0
outer loop
vertex 1177.80995078006 742.475927642803 3.60955709766131e-13
vertex 1176.86934505596 742.865539290571 14.0000000000004
vertex 1177.80995078006 742.475927642803 14.0000000000004
endloop
endfacet
facet normal -0.258819045102553 -0.96592582628906 0.0
outer loop
vertex 1174.85055650416 735.331317845516 14.0000000000004
vertex 1173.90995078006 735.720929493284 3.60955709766131e-13
vertex 1174.85055650416 735.331317845516 3.60955709766131e-13
endloop
endfacet
facet normal -0.499999999999988 -0.866025403784445 0.0
outer loop
vertex 1173.90995078006 735.720929493284 3.60955709766131e-13
vertex 1174.85055650416 735.331317845516 14.0000000000004
vertex 1173.90995078006 735.720929493284 14.0000000000004
endloop
endfacet
facet normal 0.258819045102553 -0.96592582628906 0.0
outer loop
vertex 1176.86934505596 735.331317845516 14.0000000000004
vertex 1175.85995078006 735.198428568043 3.60955709766131e-13
vertex 1176.86934505596 735.331317845516 3.60955709766131e-13
endloop
endfacet
facet normal 0.0 -1.0 0.0
outer loop
vertex 1175.85995078006 735.198428568043 3.60955709766131e-13
vertex 1176.86934505596 735.331317845516 14.0000000000004
vertex 1175.85995078006 735.198428568043 14.0000000000004
endloop
endfacet
facet normal 0.0 -1.0 0.0
outer loop
vertex 1175.85995078006 735.198428568043 14.0000000000004
vertex 1174.85055650416 735.331317845516 3.60955709766131e-13
vertex 1175.85995078006 735.198428568043 3.60955709766131e-13
endloop
endfacet
facet normal -0.258819045102553 -0.96592582628906 0.0
outer loop
vertex 1174.85055650416 735.331317845516 3.60955709766131e-13
vertex 1175.85995078006 735.198428568043 14.0000000000004
vertex 1174.85055650416 735.331317845516 14.0000000000004
endloop
endfacet
facet normal -0.866025403784453 -0.499999999999975 -0.0
outer loop
vertex 1177.10995078006 741.263492077504 14.0000000000004
vertex 1178.35995078006 739.098428568043 3.60955709766131e-13
vertex 1178.35995078006 739.098428568043 14.0000000000004
endloop
endfacet
facet normal -0.866025403784453 -0.499999999999975 -0.0
outer loop
vertex 1178.35995078006 739.098428568043 3.60955709766131e-13
vertex 1177.10995078006 741.263492077504 14.0000000000004
vertex 1177.10995078006 741.263492077504 3.60955709766131e-13
endloop
endfacet
facet normal 1.0 -8.788136579087e-14 0.0
outer loop
vertex 1179.75995078006 739.098428568043 3.60955709766131e-13
vertex 1179.62706150259 738.089034292144 14.0000000000004
vertex 1179.62706150259 738.089034292144 3.60955709766131e-13
endloop
endfacet
facet normal 0.965925826289074 -0.2588190451025 0.0
outer loop
vertex 1179.62706150259 738.089034292144 14.0000000000004
vertex 1179.75995078006 739.098428568043 3.60955709766131e-13
vertex 1179.75995078006 739.098428568043 14.0000000000004
endloop
endfacet
facet normal -0.0 -1.0 -0.0
outer loop
vertex 1177.10995078006 741.263492077504 14.0000000000004
vertex 1174.60995078006 741.263492077504 3.60955709766131e-13
vertex 1177.10995078006 741.263492077504 3.60955709766131e-13
endloop
endfacet
facet normal -0.0 -1.0 -0.0
outer loop
vertex 1174.60995078006 741.263492077504 3.60955709766131e-13
vertex 1177.10995078006 741.263492077504 14.0000000000004
vertex 1174.60995078006 741.263492077504 14.0000000000004
endloop
endfacet
facet normal 0.707106781186498 0.707106781186597 0.0
outer loop
vertex 1178.61766722669 741.856145014671 3.60955709766131e-13
vertex 1179.23744985482 741.048428568043 14.0000000000004
vertex 1179.23744985482 741.048428568043 3.60955709766131e-13
endloop
endfacet
facet normal 0.866025403784419 0.500000000000034 0.0
outer loop
vertex 1179.23744985482 741.048428568043 14.0000000000004
vertex 1178.61766722669 741.856145014671 3.60955709766131e-13
vertex 1178.61766722669 741.856145014671 14.0000000000004
endloop
endfacet
facet normal -0.866025403784422 0.500000000000029 0.0
outer loop
vertex 1178.35995078006 739.098428568043 14.0000000000004
vertex 1177.10995078006 736.933365058582 3.60955709766131e-13
vertex 1177.10995078006 736.933365058582 14.0000000000004
endloop
endfacet
facet normal -0.866025403784422 0.500000000000029 0.0
outer loop
vertex 1177.10995078006 736.933365058582 3.60955709766131e-13
vertex 1178.35995078006 739.098428568043 14.0000000000004
vertex 1178.35995078006 739.098428568043 3.60955709766131e-13
endloop
endfacet
endsolid Delta Mockup
