solid Mockup
facet normal 0.38395891050464803 -0.5943070619676947 -0.7066644685700636
  outer loop
    vertex 47.00915499471602 55.34197858939978 543.4852085611487
    vertex 43.64813070610154 53.17055020393965 543.4852085611487
    vertex 46.75915499471595 55.77499129129202 542.9852085611531
  endloop
endfacet
facet normal -0.322705558060165 0.62967170149032 -0.70666446857003
  outer loop
    vertex 46.2591549947159 56.64101669507655 542.9852085611531
    vertex 42.448130706101345 55.24901117302243 543.4852085611487
    vertex 46.00915499471594 57.07402939696883 543.4852085611489
  endloop
endfacet
facet normal -0.38395891050467923 0.5943070619676378 -0.7066644685700945
  outer loop
    vertex 42.448130706101345 55.24901117302243 543.4852085611487
    vertex 39.337106417487014 52.64457008566972 542.9852085611532
    vertex 39.08710641748711 53.077582787562164 543.4852085611489
  endloop
endfacet
facet normal 0.29061909685813186 -0.503367041408093 -0.8137334712087411
  outer loop
    vertex 46.75915499471595 55.77499129129202 542.9852085611531
    vertex 43.64813070610154 53.17055020393965 543.4852085611487
    vertex 39.83710641748698 51.7785446818853 542.9852085611532
  endloop
endfacet
facet normal 0.3227055580601798 -0.6296717014903191 -0.7066644685700239
  outer loop
    vertex 43.64813070610154 53.17055020393965 543.4852085611487
    vertex 40.0871064174872 51.34553197999318 543.4852085611489
    vertex 39.83710641748698 51.7785446818853 542.9852085611532
  endloop
endfacet
facet normal -0.4619397662553756 0.8001031451910628 0.38268343236583674
  outer loop
    vertex 53.68143307160063 23.785253958003963 559.5973893924934
    vertex 58.14259027170182 26.072516589252185 560.200341779737
    vertex 58.01771474357056 26.2888073485977 559.5973893924933
  endloop
endfacet
facet normal -0.4619397662553756 0.8001031451910628 0.38268343236583674
  outer loop
    vertex 58.14259027170182 26.072516589252185 560.200341779737
    vertex 53.68143307160063 23.785253958003963 559.5973893924934
    vertex 53.80630859973141 23.568963198659414 560.200341779737
  endloop
endfacet
facet normal 0.1305261922199965 0.9914448613738176 9.440981570944271e-13
  outer loop
    vertex 44.36691685357684 41.38293538962156 575.9095702238338
    vertex 45.0139644663405 41.29774995537721 540.285208561152
    vertex 44.3669168535842 41.3829353896545 540.2852085611512
  endloop
endfacet
facet normal 0.1305261922199965 0.9914448613738176 9.440981570944271e-13
  outer loop
    vertex 45.0139644663405 41.29774995537721 540.285208561152
    vertex 44.36691685357684 41.38293538962156 575.9095702238338
    vertex 45.013964466333135 41.29774995534426 575.9095702238344
  endloop
endfacet
facet normal 0.3043807145047888 -0.5272028623654273 0.7933533402912316
  outer loop
    vertex 32.47390059686963 60.517777707405074 558.682325883032
    vertex 36.55129879235557 63.46973043250918 559.0796224395245
    vertex 32.215017120386406 60.96617704191402 559.0796224395265
  endloop
endfacet
facet normal 0.3043807145047888 -0.5272028623654273 0.7933533402912316
  outer loop
    vertex 36.55129879235557 63.46973043250918 559.0796224395245
    vertex 32.47390059686963 60.517777707405074 558.682325883032
    vertex 36.81018226883881 63.02133109800024 558.6823258830298
  endloop
endfacet
facet normal 0.02021000940766854 0.6168313745847941 -0.7868358220414061
  outer loop
    vertex 54.60338362877601 66.07736149664832 569.4284798081653
    vertex 52.024085751664494 65.74290371135685 569.1000355729572
    vertex 52.46271030275001 65.9961437139991 569.3098264602166
  endloop
endfacet
facet normal -0.4560894600774857 0.8899339326074873 -2.0605719850921575e-14
  outer loop
    vertex 42.448130706101374 55.24901117302252 551.4852085611523
    vertex 46.00915499471594 57.07402939696883 543.4852085611489
    vertex 42.448130706101345 55.24901117302243 543.4852085611487
  endloop
endfacet
facet normal -0.4560894600774857 0.8899339326074873 -2.0605719850921575e-14
  outer loop
    vertex 46.00915499471594 57.07402939696883 543.4852085611489
    vertex 42.448130706101374 55.24901117302252 551.4852085611523
    vertex 46.009154994715864 57.07402939696906 551.4852085611523
  endloop
endfacet
facet normal 0.3314135740357282 0.19134171618261364 -0.9238795325112236
  outer loop
    vertex 66.27562681520938 43.37147051371152 568.183993435297
    vertex 68.81547278011868 37.33229776578693 567.8443319987813
    vertex 65.56547278011868 42.96146289038576 567.8443319987812
  endloop
endfacet
facet normal 0.3314135740357282 0.19134171618261364 -0.9238795325112236
  outer loop
    vertex 68.81547278011868 37.33229776578693 567.8443319987813
    vertex 66.27562681520938 43.37147051371152 568.183993435297
    vertex 69.52562681520939 37.74230538911266 568.183993435299
  endloop
endfacet
facet normal -0.29061909685809106 0.5033670414079666 -0.8137334712088337
  outer loop
    vertex 46.2591549947159 56.64101669507655 542.9852085611531
    vertex 39.337106417487014 52.64457008566972 542.9852085611532
    vertex 42.448130706101345 55.24901117302243 543.4852085611487
  endloop
endfacet
facet normal 0.8858097601208051 0.39471088190176273 -0.2440171891139122
  outer loop
    vertex 52.904093715594676 28.1458587797055 541.7852085611527
    vertex 57.46576203130004 27.244817489625156 556.8870935047082
    vertex 57.96018298883981 26.388455270839426 557.2966852369772
  endloop
endfacet
facet normal 0.30438071450448256 -0.5272028623656391 -0.7933533402912083
  outer loop
    vertex 36.55129879235572 63.46973043250869 562.6151563454598
    vertex 32.47390059686954 60.517777707405244 563.0124529019544
    vertex 32.2150171203863 60.96617704191416 562.6151563454592
  endloop
endfacet
facet normal 0.30438071450448256 -0.5272028623656391 -0.7933533402912083
  outer loop
    vertex 32.47390059686954 60.517777707405244 563.0124529019544
    vertex 36.55129879235572 63.46973043250869 562.6151563454598
    vertex 36.81018226883896 63.021331097999806 563.0124529019546
  endloop
endfacet
facet normal 0.7495856845012091 0.4327734967274482 -0.5008277170057097
  outer loop
    vertex 61.510884432894095 34.15322579085768 563.7465271953616
    vertex 59.047333895460824 39.198213650713235 564.418803927896
    vertex 62.2619561901274 33.606357393950915 564.3980935480131
  endloop
endfacet
facet normal 0.7495856845012091 0.4327734967274482 -0.5008277170057097
  outer loop
    vertex 59.047333895460824 39.198213650713235 564.418803927896
    vertex 61.510884432894095 34.15322579085768 563.7465271953616
    vertex 58.710452974326266 39.00371536021133 563.7465271953602
  endloop
endfacet
facet normal -0.3535533905931317 0.612372435695743 -0.7071067811866634
  outer loop
    vertex 45.5450533795776 49.8778769742625 541.2852085611527
    vertex 42.58710641748675 47.01540496107141 540.2852085611538
    vertex 42.087106417486766 47.88143036485589 541.2852085611527
  endloop
endfacet
facet normal -0.3535533905931317 0.612372435695743 -0.7071067811866634
  outer loop
    vertex 42.58710641748675 47.01540496107141 540.2852085611538
    vertex 45.5450533795776 49.8778769742625 541.2852085611527
    vertex 45.179027975792515 48.51185157047767 540.2852085611538
  endloop
endfacet
facet normal -0.1913417161825042 0.33141357403561356 -0.9238795325112874
  outer loop
    vertex 57.25870679521836 27.60344767849259 563.2622039582161
    vertex 53.22390131687015 24.577722203273527 563.0124529019548
    vertex 52.92242512324837 25.099894287899094 563.2622039582163
  endloop
endfacet
facet normal -0.1913417161825042 0.33141357403561356 -0.9238795325112874
  outer loop
    vertex 53.22390131687015 24.577722203273527 563.0124529019548
    vertex 57.25870679521836 27.60344767849259 563.2622039582161
    vertex 57.56018298884014 27.081275593867026 563.0124529019545
  endloop
endfacet
facet normal 0.628887875317766 0.3638830010415758 -0.6870874775683826
  outer loop
    vertex 45.53219851954743 64.30421194710397 565.3789513066514
    vertex 47.40281473886521 60.188060302171095 564.9111706301956
    vertex 45.14875128482701 64.08282858291811 564.9152206640368
  endloop
endfacet
facet normal 0.628887875317766 0.3638830010415758 -0.6870874775683826
  outer loop
    vertex 47.40281473886521 60.188060302171095 564.9111706301956
    vertex 45.53219851954743 64.30421194710397 565.3789513066514
    vertex 47.78219851954729 60.40709763007409 565.3789513066512
  endloop
endfacet
facet normal 0.9475682876287072 0.08251004637295194 0.308717399133792
  outer loop
    vertex 52.904093715594826 28.145858779706046 579.9024634426484
    vertex 58.710535066598005 25.088807348597744 562.8973893924936
    vertex 58.384751890271794 25.65308036224471 563.7465271953583
  endloop
endfacet
facet normal 0.8573054489516672 0.4597524795113116 0.23163554300016612
  outer loop
    vertex 56.93518298883999 28.163807348597786 564.9473893924933
    vertex 52.904093715594826 28.145858779706046 579.9024634426484
    vertex 57.46576203129988 27.24481748962557 564.8076852802785
  endloop
endfacet
facet normal -0.495722430687951 0.8586164364006509 -0.13052619222009254
  outer loop
    vertex 34.30630787973129 57.34395519333025 561.4944370052493
    vertex 38.68518226883688 59.77373583381282 560.847389392493
    vertex 34.34890059686998 57.270182443213656 560.847389392493
  endloop
endfacet
facet normal -0.495722430687951 0.8586164364006509 -0.13052619222009254
  outer loop
    vertex 38.68518226883688 59.77373583381282 560.847389392493
    vertex 34.30630787973129 57.34395519333025 561.4944370052493
    vertex 38.64258955169818 59.84750858392941 561.4944370052493
  endloop
endfacet
facet normal 0.8001031451913031 0.4619397662556031 -0.38268343236506036
  outer loop
    vertex 54.60338362877601 66.07736149664832 569.4284798081653
    vertex 56.64753906148441 63.21610330166051 570.2484950548154
    vertex 56.35338362877597 63.04627258340266 569.428479808164
  endloop
endfacet
facet normal 0.8001031451913031 0.4619397662556031 -0.38268343236506036
  outer loop
    vertex 56.64753906148441 63.21610330166051 570.2484950548154
    vertex 54.60338362877601 66.07736149664832 569.4284798081653
    vertex 54.897539061484565 66.24719221490614 570.2484950548168
  endloop
endfacet
facet normal 0.826810051185487 0.5125720578393375 0.2316355430002046
  outer loop
    vertex 36.904603226379514 62.85778920224065 564.8076852802781
    vertex 35.4040937155946 58.4567479121614 579.9024634426479
    vertex 37.43518226883956 61.93879934326838 564.9473893924941
  endloop
endfacet
facet normal 2.331135461696845e-15 -6.669421244402007e-15 -1.0
  outer loop
    vertex 52.83757376293636 68.52197231040587 573.228479808164
    vertex 51.553383628775975 65.4711437139992 573.2284798081641
    vertex 50.55338362877597 67.203194521568 573.2284798081652
  endloop
endfacet
facet normal 2.331135461696845e-15 -6.669421244402007e-15 -1.0
  outer loop
    vertex 51.553383628775975 65.4711437139992 573.2284798081641
    vertex 52.83757376293636 68.52197231040587 573.228479808164
    vertex 54.337573762936366 65.92389609905254 573.2284798081653
  endloop
endfacet
facet normal 0.33141357403539684 0.19134171618232 -0.9238795325114033
  outer loop
    vertex 50.08268150588769 66.93143452421036 573.1569240433722
    vertex 51.34405695480158 63.73370814870117 572.9471331561114
    vertex 49.64405695480218 66.67819452156812 572.9471331561111
  endloop
endfacet
facet normal 0.33141357403539684 0.19134171618232 -0.9238795325114033
  outer loop
    vertex 51.34405695480158 63.73370814870117 572.9471331561114
    vertex 50.08268150588769 66.93143452421036 573.1569240433722
    vertex 51.78268150588707 63.986948151343455 573.1569240433709
  endloop
endfacet
facet normal 0.6263668576902439 0.3616330738989153 -0.6905693878602435
  outer loop
    vertex 59.782198519547315 39.6224879392475 565.3789513066514
    vertex 62.648751284826986 33.771939450462796 564.9152206640388
    vertex 59.39875128482689 39.401104575061645 564.9152206640367
  endloop
endfacet
facet normal 0.6263668576902439 0.3616330738989153 -0.6905693878602435
  outer loop
    vertex 62.648751284826986 33.771939450462796 564.9152206640388
    vertex 59.782198519547315 39.6224879392475 565.3789513066514
    vertex 63.03219851954737 33.99332281464863 565.3789513066533
  endloop
endfacet
facet normal 0.1270927479514865 0.0733770322419514 0.9891730104271464
  outer loop
    vertex 56.10223305655066 29.992305389112822 581.4095702238377
    vertex 54.162340625970714 36.37786147158374 581.1851333533677
    vertex 52.85223305655062 35.621470513711664 581.4095702238347
  endloop
endfacet
facet normal 0.1270927479514865 0.0733770322419514 0.9891730104271464
  outer loop
    vertex 54.162340625970714 36.37786147158374 581.1851333533677
    vertex 56.10223305655066 29.992305389112822 581.4095702238377
    vertex 57.41234062597079 30.748696346984833 581.1851333533662
  endloop
endfacet
facet normal -0.8660254037844396 -0.4999999999999983 2.7812669465508473e-14
  outer loop
    vertex 51.598900956871475 27.392305389112874 581.4095702238349
    vertex 52.275377510492135 26.22061362810926 563.262203958216
    vertex 52.59890131687022 25.660253958004162 563.3473893924934
  endloop
endfacet
facet normal -0.8660254037844396 -0.4999999999999983 2.7812669465508473e-14
  outer loop
    vertex 52.275377510492135 26.22061362810926 563.262203958216
    vertex 51.598900956871475 27.392305389112874 581.4095702238349
    vertex 51.973901316870304 26.7427857127348 563.0124529019544
  endloop
endfacet
facet normal -0.8660254037844396 -0.4999999999999983 2.7812669465508473e-14
  outer loop
    vertex 51.973901316870304 26.7427857127348 563.0124529019544
    vertex 51.598900956871475 27.392305389112874 581.4095702238349
    vertex 51.715017840387134 27.19118504724375 562.6151563454597
  endloop
endfacet
facet normal -0.8660254037844396 -0.4999999999999983 2.7812669465508473e-14
  outer loop
    vertex 51.715017840387134 27.19118504724375 562.6151563454597
    vertex 51.598900956871475 27.392305389112874 581.4095702238349
    vertex 51.51636956213951 27.53525395800414 562.0973893924934
  endloop
endfacet
facet normal -0.8660254037844396 -0.4999999999999983 2.7812669465508473e-14
  outer loop
    vertex 51.51636956213951 27.53525395800414 562.0973893924934
    vertex 51.598900956871475 27.392305389112874 581.4095702238349
    vertex 45.09890095687169 38.650635638310526 579.4095702238392
  endloop
endfacet
facet normal -0.8660254037844396 -0.4999999999999983 2.7812669465508473e-14
  outer loop
    vertex 45.09890095687169 38.650635638310526 579.4095702238392
    vertex 51.598900956871475 27.392305389112874 581.4095702238349
    vertex 34.09890095687148 57.70319452156815 581.4095702238345
  endloop
endfacet
facet normal -0.8660254037844396 -0.4999999999999983 2.7812669465508473e-14
  outer loop
    vertex 51.51636956213951 27.53525395800414 562.0973893924934
    vertex 45.09890095687169 38.650635638310526 579.4095702238392
    vertex 51.391494034009 27.751544717348793 561.4944370052494
  endloop
endfacet
facet normal -0.8660254037844396 -0.4999999999999983 2.7812669465508473e-14
  outer loop
    vertex 51.391494034009 27.751544717348793 561.4944370052494
    vertex 45.09890095687169 38.650635638310526 579.4095702238392
    vertex 51.34890131687035 27.825317467465364 560.8473893924933
  endloop
endfacet
facet normal -0.8660254037844396 -0.4999999999999983 2.7812669465508473e-14
  outer loop
    vertex 51.34890131687035 27.825317467465364 560.8473893924933
    vertex 45.09890095687169 38.650635638310526 579.4095702238392
    vertex 45.098900956871596 38.65063563831043 575.9095702238391
  endloop
endfacet
facet normal -0.8660254037844396 -0.4999999999999983 2.7812669465508473e-14
  outer loop
    vertex 45.09890095687169 38.650635638310526 579.4095702238392
    vertex 34.09890095687148 57.70319452156815 581.4095702238345
    vertex 40.59890095687152 46.44486427237056 579.4095702238391
  endloop
endfacet
facet normal -0.8660254037844396 -0.4999999999999983 2.7812669465508473e-14
  outer loop
    vertex 34.09890095687148 57.70319452156815 581.4095702238345
    vertex 34.34890059686998 57.270182443213656 560.847389392493
    vertex 40.59890095687152 46.44486427237056 579.4095702238391
  endloop
endfacet
facet normal -0.8660254037844396 -0.4999999999999983 2.7812669465508473e-14
  outer loop
    vertex 34.34890059686998 57.270182443213656 560.847389392493
    vertex 34.09890095687148 57.70319452156815 581.4095702238345
    vertex 34.30630787973129 57.34395519333025 561.4944370052493
