solid untitled
facet normal 0.707106781186547 -0.707106781186548 -8.60213257345445e-17
outer loop
vertex 22.2 0.0 0.0
vertex 19.2 -3.0 -2.0
vertex 22.2 1.37912364292726e-16 -2.0
endloop
endfacet
facet normal 0.707106781186547 -0.707106781186548 -8.60213257345445e-17
outer loop
vertex 19.2 -3.0 -2.0
vertex 22.2 0.0 0.0
vertex 19.2 -3.0 0.0
endloop
endfacet
facet normal 0.994618408890778 -8.65145950158479e-31 0.103606084259456
outer loop
vertex 23.2 14.6 -3.52495810318487e-15
vertex 21.2 12.6 19.2
vertex 23.2 12.6 -3.52495810318487e-15
endloop
endfacet
facet normal 0.994618408890778 -8.65145950158479e-31 0.103606084259456
outer loop
vertex 21.2 12.6 19.2
vertex 23.2 14.6 -3.52495810318487e-15
vertex 21.2 14.6 19.2
endloop
endfacet
facet normal 1.0 -0.0 -0.0
outer loop
vertex 22.2 1.37912364292726e-16 -2.0
vertex 22.2 4.6 -3.52495810318487e-15
vertex 22.2 0.0 0.0
endloop
endfacet
facet normal 1.0 -0.0 -0.0
outer loop
vertex 22.2 4.6 -3.52495810318487e-15
vertex 22.2 1.37912364292726e-16 -2.0
vertex 22.2 4.6 -2.0
endloop
endfacet
facet normal 0.965925826289068 0.258819045102521 0.0
outer loop
vertex 32.0296291314453 10.8940952255126 -2.0
vertex 32.2 9.6 -3.52495810318487e-15
vertex 32.2 9.6 -2.0
endloop
endfacet
facet normal 1.0 1.42577758330351e-16 0.0
outer loop
vertex 32.2 9.6 -3.52495810318487e-15
vertex 32.0296291314453 10.8940952255126 -2.0
vertex 32.0296291314453 10.8940952255126 -3.52495810318487e-15
endloop
endfacet
facet normal -1.0 0.0 0.0
outer loop
vertex 19.2 19.2 19.2
vertex 19.2 0.0 0.0
vertex 19.2 0.0 19.2
endloop
endfacet
facet normal -1.0 0.0 0.0
outer loop
vertex 19.2 0.0 0.0
vertex 19.2 19.2 19.2
vertex 19.2 19.2 0.0
endloop
endfacet
facet normal -0.0 1.0 -0.0
outer loop
vertex 21.2 6.6 19.2
vertex 23.2 6.6 -3.52495810318487e-15
vertex 22.2 6.6 -3.52495810318487e-15
endloop
endfacet
facet normal -0.0 1.0 -0.0
outer loop
vertex 21.2 14.6 19.2
vertex 23.2 14.6 -3.52495810318487e-15
vertex 22.2 14.6 -3.52495810318487e-15
endloop
endfacet
facet normal 0.998646416445549 1.10040495232016e-17 0.0520128341898724
outer loop
vertex 22.2 4.6 -3.52495810318487e-15
vertex 21.2 0.0 19.2
vertex 22.2 0.0 0.0
endloop
endfacet
facet normal 0.998646416445549 1.10040495232016e-17 0.0520128341898724
outer loop
vertex 21.2 0.0 19.2
vertex 22.2 4.6 -3.52495810318487e-15
vertex 21.2 4.6 19.2
endloop
endfacet
facet normal -0.5 -0.866025403784439 0.0
outer loop
vertex -10.5 5.26987298107781 -3.52495810318487e-15
vertex -11.5355339059327 6.06446609406726 -2.0
vertex -10.5 5.26987298107781 -2.0
endloop
endfacet
facet normal -0.707106781186547 -0.707106781186548 1.38283609123949e-16
outer loop
vertex -11.5355339059327 6.06446609406726 -2.0
vertex -10.5 5.26987298107781 -3.52495810318487e-15
vertex -11.5355339059327 6.06446609406726 -3.52495810318487e-15
endloop
endfacet
facet normal -0.994618408890778 0.0 0.103606084259456
outer loop
vertex -2.0 6.6 19.2
vertex -4.0 4.6 -3.52495810318487e-15
vertex -2.0 4.6 19.2
endloop
endfacet
facet normal -0.994618408890778 0.0 0.103606084259456
outer loop
vertex -4.0 4.6 -3.52495810318487e-15
vertex -2.0 6.6 19.2
vertex -4.0 6.6 -3.52495810318487e-15
endloop
endfacet
facet normal -0.0 -0.0 1.0
outer loop
vertex -9.2940952255126 4.77037086855466 -3.52495810318487e-15
vertex -10.5 9.6 -3.52495810318487e-15
vertex -10.5 5.26987298107781 -3.52495810318487e-15
endloop
endfacet
facet normal -0.0 -0.0 1.0
outer loop
vertex -10.5 9.6 -3.52495810318487e-15
vertex -9.2940952255126 4.77037086855466 -3.52495810318487e-15
vertex -9.25 7.4349364905389 -3.52495810318487e-15
endloop
endfacet
facet normal -0.0 -0.0 1.0
outer loop
vertex -9.25 7.4349364905389 -3.52495810318487e-15
vertex -9.2940952255126 4.77037086855466 -3.52495810318487e-15
vertex -8.0 4.6 -3.52495810318487e-15
endloop
endfacet
facet normal -0.0 -0.0 1.0
outer loop
vertex -9.25 7.4349364905389 -3.52495810318487e-15
vertex -8.0 4.6 -3.52495810318487e-15
vertex -6.75 7.4349364905389 -3.52495810318487e-15
endloop
endfacet
facet normal -0.0 -0.0 1.0
outer loop
vertex -6.75 7.4349364905389 -3.52495810318487e-15
vertex -8.0 4.6 -3.52495810318487e-15
vertex -4.0 4.6 -3.52495810318487e-15
endloop
endfacet
facet normal -0.0 -0.0 1.0
outer loop
vertex -6.75 7.4349364905389 -3.52495810318487e-15
vertex -4.0 4.6 -3.52495810318487e-15
vertex -5.5 9.6 -3.52495810318487e-15
endloop
endfacet
facet normal -0.0 -0.0 1.0
outer loop
vertex -3.0 6.6 -3.52495810318487e-15
vertex -4.0 12.6 -3.52495810318487e-15
vertex -4.0 6.6 -3.52495810318487e-15
endloop
endfacet
facet normal -0.0 -0.0 1.0
outer loop
vertex -4.0 12.6 -3.52495810318487e-15
vertex -3.0 6.6 -3.52495810318487e-15
vertex -3.0 12.6 -3.52495810318487e-15
endloop
endfacet
facet normal -0.0 -0.0 1.0
outer loop
vertex -12.8296291314453 8.3059047744874 -3.52495810318487e-15
vertex -12.8296291314453 10.8940952255126 -3.52495810318487e-15
vertex -13.0 9.6 -3.52495810318487e-15
endloop
endfacet
facet normal -0.0 -0.0 1.0
outer loop
vertex -12.8296291314453 10.8940952255126 -3.52495810318487e-15
vertex -12.8296291314453 8.3059047744874 -3.52495810318487e-15
vertex -12.3301270189222 7.1 -3.52495810318487e-15
endloop
endfacet
facet normal -0.0 -0.0 1.0
outer loop
vertex -12.8296291314453 10.8940952255126 -3.52495810318487e-15
vertex -12.3301270189222 7.1 -3.52495810318487e-15
vertex -12.3301270189222 12.1 -3.52495810318487e-15
endloop
endfacet
facet normal -0.0 -0.0 1.0
outer loop
vertex -12.3301270189222 12.1 -3.52495810318487e-15
vertex -12.3301270189222 7.1 -3.52495810318487e-15
vertex -11.9464635249327 6.6 -3.52495810318487e-15
endloop
endfacet
facet normal -0.0 -0.0 1.0
outer loop
vertex -12.3301270189222 12.1 -3.52495810318487e-15
vertex -11.9464635249327 6.6 -3.52495810318487e-15
vertex -11.9464635249327 12.6 -3.52495810318487e-15
endloop
endfacet
facet normal -0.0 -0.0 1.0
outer loop
vertex -11.9464635249327 12.6 -3.52495810318487e-15
vertex -11.9464635249327 6.6 -3.52495810318487e-15
vertex -11.5355339059327 6.06446609406726 -3.52495810318487e-15
endloop
endfacet
facet normal -0.0 -0.0 1.0
outer loop
vertex -11.9464635249327 12.6 -3.52495810318487e-15
vertex -11.5355339059327 6.06446609406726 -3.52495810318487e-15
vertex -11.5355339059327 13.1355339059327 -3.52495810318487e-15
endloop
endfacet
facet normal -0.0 -0.0 1.0
outer loop
vertex -11.5355339059327 13.1355339059327 -3.52495810318487e-15
vertex -11.5355339059327 6.06446609406726 -3.52495810318487e-15
vertex -10.5 5.26987298107781 -3.52495810318487e-15
endloop
endfacet
facet normal -0.0 -0.0 1.0
outer loop
vertex -11.5355339059327 13.1355339059327 -3.52495810318487e-15
vertex -10.5 5.26987298107781 -3.52495810318487e-15
vertex -10.5 13.9301270189222 -3.52495810318487e-15
endloop
endfacet
facet normal -0.0 -0.0 1.0
outer loop
vertex -10.5 13.9301270189222 -3.52495810318487e-15
vertex -10.5 5.26987298107781 -3.52495810318487e-15
vertex -10.5 9.6 -3.52495810318487e-15
endloop
endfacet
facet normal -0.0 -0.0 1.0
outer loop
vertex -10.5 13.9301270189222 -3.52495810318487e-15
vertex -10.5 9.6 -3.52495810318487e-15
vertex -9.29409522551261 14.4296291314453 -3.52495810318487e-15
endloop
endfacet
facet normal -0.0 -0.0 1.0
outer loop
vertex -9.29409522551261 14.4296291314453 -3.52495810318487e-15
vertex -10.5 9.6 -3.52495810318487e-15
vertex -9.25 11.7650635094611 -3.52495810318487e-15
endloop
endfacet
facet normal -0.0 -0.0 1.0
outer loop
vertex -9.29409522551261 14.4296291314453 -3.52495810318487e-15
vertex -9.25 11.7650635094611 -3.52495810318487e-15
vertex -8.0 14.6 -3.52495810318487e-15
endloop
endfacet
facet normal -0.0 -0.0 1.0
outer loop
vertex -8.0 14.6 -3.52495810318487e-15
vertex -9.25 11.7650635094611 -3.52495810318487e-15
vertex -6.75 11.7650635094611 -3.52495810318487e-15
endloop
endfacet
facet normal -0.0 -0.0 1.0
outer loop
vertex -8.0 14.6 -3.52495810318487e-15
vertex -6.75 11.7650635094611 -3.52495810318487e-15
vertex -4.0 14.6 -3.52495810318487e-15
endloop
endfacet
facet normal -0.0 -0.0 1.0
outer loop
vertex -4.0 14.6 -3.52495810318487e-15
vertex -6.75 11.7650635094611 -3.52495810318487e-15
vertex -5.5 9.6 -3.52495810318487e-15
endloop
endfacet
facet normal -0.0 -0.0 1.0
outer loop
vertex -4.0 14.6 -3.52495810318487e-15
vertex -5.5 9.6 -3.52495810318487e-15
vertex -4.0 4.6 -3.52495810318487e-15
endloop
endfacet
facet normal -0.0 -0.0 1.0
outer loop
vertex -4.0 14.6 -3.52495810318487e-15
vertex -4.0 4.6 -3.52495810318487e-15
vertex -4.0 6.6 -3.52495810318487e-15
endloop
endfacet
facet normal -0.0 -0.0 1.0
outer loop
vertex -4.0 14.6 -3.52495810318487e-15
vertex -4.0 6.6 -3.52495810318487e-15
vertex -4.0 12.6 -3.52495810318487e-15
endloop
endfacet
facet normal -0.998646416445549 -2.20080990464032e-17 0.0520128341898724
outer loop
vertex -2.0 19.2 19.2
vertex -3.0 14.6 -3.52495810318487e-15
vertex -2.0 14.6 19.2
endloop
endfacet
facet normal -0.998646416445549 -2.20080990464032e-17 0.0520128341898724
outer loop
vertex -3.0 14.6 -3.52495810318487e-15
vertex -2.0 19.2 19.2
vertex -3.0 19.2 0.0
endloop
endfacet
facet normal -0.998646416445549 1.10040495232016e-17 0.0520128341898724
outer loop
vertex -2.0 4.6 19.2
vertex -3.0 -3.52495810318487e-16 0.0
vertex -2.0 -3.52495810318487e-16 19.2
endloop
endfacet
facet normal -0.998646416445549 1.10040495232016e-17 0.0520128341898724
outer loop
vertex -3.0 -3.52495810318487e-16 0.0
vertex -2.0 4.6 19.2
vertex -3.0 4.6 -3.52495810318487e-15
endloop
endfacet
facet normal -0.0 1.0 -0.0
outer loop
vertex -2.0 6.6 19.2
vertex -3.0 6.6 -3.52495810318487e-15
vertex -4.0 6.6 -3.52495810318487e-15
endloop
endfacet
facet normal 1.0 -0.0 -0.0
outer loop
vertex 7.04991620636974e-16 19.2 0.0
vertex 7.04991620636974e-16 -3.52495810318487e-16 19.2
vertex 7.04991620636974e-16 -3.52495810318487e-16 0.0
endloop
endfacet
facet normal 1.0 -0.0 -0.0
outer loop
vertex 7.04991620636974e-16 -3.52495810318487e-16 19.2
vertex 7.04991620636974e-16 19.2 0.0
vertex 7.04991620636974e-16 19.2 19.2
endloop
endfacet
facet normal 0.998646416445549 -2.20080990464032e-17 0.0520128341898724
outer loop
vertex 22.2 19.2 0.0
vertex 21.2 14.6 19.2
vertex 22.2 14.6 -3.52495810318487e-15
endloop
endfacet
facet normal 0.998646416445549 -2.20080990464032e-17 0.0520128341898724
outer loop
vertex 21.2 14.6 19.2
vertex 22.2 19.2 0.0
vertex 21.2 19.2 19.2
endloop
endfacet
facet normal -0.707106781186547 -0.707106781186548 0.0
outer loop
vertex 7.04991620636974e-16 -3.0 0.0
vertex -3.0 -3.52495810318487e-16 -2.0
vertex 7.04991620636974e-16 -3.0 -2.0
endloop
endfacet
facet normal -0.707106781186547 -0.707106781186548 0.0
outer loop
vertex -3.0 -3.52495810318487e-16 -2.0
vertex 7.04991620636974e-16 -3.0 0.0
vertex -3.0 -3.52495810318487e-16 0.0
endloop
endfacet
facet normal -1.0 2.3168885728682e-16 0.0
outer loop
vertex -13.0 9.6 -3.52495810318487e-15
vertex -12.8296291314453 8.3059047744874 -2.0
vertex -12.8296291314453 8.3059047744874 -3.52495810318487e-15
endloop
endfacet
facet normal -0.965925826289068 -0.258819045102521 0.0
outer loop
vertex -12.8296291314453 8.3059047744874 -2.0
vertex -13.0 9.6 -3.52495810318487e-15
vertex -13.0 9.6 -2.0
endloop
endfacet
facet normal -0.0 1.0 -0.0
outer loop
vertex -8.0 14.6 -3.52495810318487e-15
vertex -3.0 14.6 -2.0
vertex -8.0 14.6 -2.0
endloop
endfacet
facet normal -0.0 1.0 -0.0
outer loop
vertex -3.0 14.6 -2.0
vertex -8.0 14.6 -3.52495810318487e-15
vertex -3.0 14.6 -3.52495810318487e-15
endloop
endfacet
facet normal -0.0 1.0 -0.0
outer loop
vertex -3.0 14.6 -3.52495810318487e-15
vertex -8.0 14.6 -3.52495810318487e-15
vertex -4.0 14.6 -3.52495810318487e-15
endloop
endfacet
facet normal -0.866025403784438 0.5 0.0
outer loop
vertex -5.5 9.6 -3.52495810318487e-15
vertex -6.75 7.4349364905389 -2.0
vertex -6.75 7.4349364905389 -3.52495810318487e-15
endloop
endfacet
facet normal -0.866025403784438 0.5 0.0
outer loop
vertex -6.75 7.4349364905389 -2.0
vertex -5.5 9.6 -3.52495810318487e-15
vertex -5.5 9.6 -2.0
endloop
endfacet
facet normal -0.866025403784438 -0.5 0.0
outer loop
vertex -6.75 11.7650635094611 -3.52495810318487e-15
vertex -5.5 9.6 -2.0
vertex -5.5 9.6 -3.52495810318487e-15
endloop
endfacet
facet normal -0.866025403784438 -0.5 0.0
outer loop
vertex -5.5 9.6 -2.0
vertex -6.75 11.7650635094611 -3.52495810318487e-15
vertex -6.75 11.7650635094611 -2.0
endloop
endfacet
facet normal 0.0 -1.0 0.0
outer loop
vertex -6.75 11.7650635094611 -3.52495810318487e-15
vertex -9.25 11.7650635094611 -2.0
vertex -6.75 11.7650635094611 -2.0
endloop
endfacet
facet normal 0.0 -1.0 0.0
outer loop
vertex -9.25 11.7650635094611 -2.0
vertex -6.75 11.7650635094611 -3.52495810318487e-15
vertex -9.25 11.7650635094611 -3.52495810318487e-15
endloop
endfacet
facet normal 0.866025403784439 -0.5 -0.0
outer loop
vertex -9.25 11.7650635094611 -2.0
vertex -10.5 9.6 -3.52495810318487e-15
vertex -10.5 9.6 -2.0
endloop
endfacet
facet normal 0.866025403784439 -0.5 -0.0
outer loop
vertex -10.5 9.6 -3.52495810318487e-15
vertex -9.25 11.7650635094611 -2.0
vertex -9.25 11.7650635094611 -3.52495810318487e-15
endloop
endfacet
facet normal 0.866025403784439 0.5 -0.0
outer loop
vertex -10.5 9.6 -2.0
vertex -9.25 7.4349364905389 -3.52495810318487e-15
vertex -9.25 7.4349364905389 -2.0
endloop
endfacet
facet normal 0.866025403784439 0.5 -0.0
outer loop
vertex -9.25 7.4349364905389 -3.52495810318487e-15
vertex -10.5 9.6 -2.0
vertex -10.5 9.6 -3.52495810318487e-15
endloop
endfacet
facet normal 5.63993296509581e-16 1.0 -0.0
outer loop
vertex -9.25 7.4349364905389 -3.52495810318487e-15
vertex -6.75 7.4349364905389 -2.0
vertex -9.25 7.4349364905389 -2.0
endloop
endfacet
facet normal 5.63993296509581e-16 1.0 -0.0
outer loop
vertex -6.75 7.4349364905389 -2.0
vertex -9.25 7.4349364905389 -3.52495810318487e-15
vertex -6.75 7.4349364905389 -3.52495810318487e-15
endloop
endfacet
facet normal -0.994618408890778 -8.65145950158479e-31 0.103606084259456
outer loop
vertex -2.0 12.6 19.2
vertex -4.0 14.6 -3.52495810318487e-15
vertex -4.0 12.6 -3.52495810318487e-15
endloop
endfacet
facet normal -0.994618408890778 -8.65145950158479e-31 0.103606084259456
outer loop
vertex -4.0 14.6 -3.52495810318487e-15
vertex -2.0 12.6 19.2
vertex -2.0 14.6 19.2
endloop
endfacet
facet normal -0.0 -0.0 1.0
outer loop
vertex 27.2 4.6 -3.52495810318487e-15
vertex 23.2 6.6 -3.52495810318487e-15
vertex 23.2 4.6 -3.52495810318487e-15
endloop
endfacet
facet normal -0.0 -0.0 1.0
outer loop
vertex 23.2 6.6 -3.52495810318487e-15
vertex 27.2 4.6 -3.52495810318487e-15
vertex 24.7 9.6 -3.52495810318487e-15
endloop
endfacet
facet normal -0.0 -0.0 1.0
outer loop
vertex 23.2 6.6 -3.52495810318487e-15
vertex 24.7 9.6 -3.52495810318487e-15
vertex 23.2 12.6 -3.52495810318487e-15
endloop
endfacet
facet normal -0.0 -0.0 1.0
outer loop
vertex 23.2 12.6 -3.52495810318487e-15
vertex 24.7 9.6 -3.52495810318487e-15
vertex 23.2 14.6 -3.52495810318487e-15
endloop
endfacet
facet normal -0.0 -0.0 1.0
outer loop
vertex 24.7 9.6 -3.52495810318487e-15
vertex 27.2 4.6 -3.52495810318487e-15
vertex 25.95 7.4349364905389 -3.52495810318487e-15
endloop
endfacet
facet normal -0.0 -0.0 1.0
outer loop
vertex 25.95 7.4349364905389 -3.52495810318487e-15
vertex 27.2 4.6 -3.52495810318487e-15
vertex 28.45 7.4349364905389 -3.52495810318487e-15
endloop
endfacet
facet normal -0.0 -0.0 1.0
outer loop
vertex 28.45 7.4349364905389 -3.52495810318487e-15
vertex 27.2 4.6 -3.52495810318487e-15
vertex 28.4940952255126 4.77037086855466 -3.52495810318487e-15
endloop
endfacet
facet normal -0.0 -0.0 1.0
outer loop
vertex 28.45 7.4349364905389 -3.52495810318487e-15
vertex 28.4940952255126 4.77037086855466 -3.52495810318487e-15
vertex 29.7 9.6 -3.52495810318487e-15
endloop
endfacet
facet normal -0.0 -0.0 1.0
outer loop
vertex 29.7 9.6 -3.52495810318487e-15
vertex 28.4940952255126 4.77037086855466 -3.52495810318487e-15
vertex 29.7 5.26987298107781 -3.52495810318487e-15
endloop
endfacet
facet normal -0.0 -0.0 1.0
outer loop
vertex 29.7 9.6 -3.52495810318487e-15
vertex 29.7 5.26987298107781 -3.52495810318487e-15
vertex 30.7355339059327 6.06446609406726 -3.52495810318487e-15
endloop
endfacet
facet normal -0.0 -0.0 1.0
outer loop
vertex 29.7 9.6 -3.52495810318487e-15
vertex 30.7355339059327 6.06446609406726 -3.52495810318487e-15
vertex 29.7 13.9301270189222 -3.52495810318487e-15
endloop
endfacet
facet normal -0.0 -0.0 1.0
outer loop
vertex 29.7 13.9301270189222 -3.52495810318487e-15
vertex 30.7355339059327 6.06446609406726 -3.52495810318487e-15
vertex 30.7355339059327 13.1355339059327 -3.52495810318487e-15
endloop
endfacet
facet normal -0.0 -0.0 1.0
outer loop
vertex 30.7355339059327 13.1355339059327 -3.52495810318487e-15
vertex 30.7355339059327 6.06446609406726 -3.52495810318487e-15
vertex 31.1464635249327 6.6 -3.52495810318487e-15
endloop
endfacet
facet normal -0.0 -0.0 1.0
outer loop
vertex 30.7355339059327 13.1355339059327 -3.52495810318487e-15
vertex 31.1464635249327 6.6 -3.52495810318487e-15
vertex 31.1464635249327 12.6 -3.52495810318487e-15
endloop
endfacet
facet normal -0.0 -0.0 1.0
outer loop
vertex 31.1464635249327 12.6 -3.52495810318487e-15
vertex 31.1464635249327 6.6 -3.52495810318487e-15
vertex 31.5301270189222 7.1 -3.52495810318487e-15
endloop
endfacet
facet normal -0.0 -0.0 1.0
outer loop
vertex 31.1464635249327 12.6 -3.52495810318487e-15
vertex 31.5301270189222 7.1 -3.52495810318487e-15
vertex 31.5301270189222 12.1 -3.52495810318487e-15
endloop
endfacet
facet normal -0.0 -0.0 1.0
outer loop
vertex 31.5301270189222 12.1 -3.52495810318487e-15
vertex 31.5301270189222 7.1 -3.52495810318487e-15
vertex 32.0296291314453 8.3059047744874 -3.52495810318487e-15
endloop
endfacet
facet normal -0.0 -0.0 1.0
outer loop
vertex 31.5301270189222 12.1 -3.52495810318487e-15
vertex 32.0296291314453 8.3059047744874 -3.52495810318487e-15
vertex 32.0296291314453 10.8940952255126 -3.52495810318487e-15
endloop
endfacet
facet normal -0.0 -0.0 1.0
outer loop
vertex 32.0296291314453 10.8940952255126 -3.52495810318487e-15
vertex 32.0296291314453 8.3059047744874 -3.52495810318487e-15
vertex 32.2 9.6 -3.52495810318487e-15
endloop
endfacet
facet normal -0.0 -0.0 1.0
outer loop
vertex 24.7 9.6 -3.52495810318487e-15
vertex 27.2 14.6 -3.52495810318487e-15
vertex 23.2 14.6 -3.52495810318487e-15
endloop
endfacet
facet normal -0.0 -0.0 1.0
outer loop
vertex 27.2 14.6 -3.52495810318487e-15
vertex 24.7 9.6 -3.52495810318487e-15
vertex 25.95 11.7650635094611 -3.52495810318487e-15
endloop
endfacet
facet normal -0.0 -0.0 1.0
outer loop
vertex 27.2 14.6 -3.52495810318487e-15
vertex 25.95 11.7650635094611 -3.52495810318487e-15
vertex 28.45 11.7650635094611 -3.52495810318487e-15
endloop
endfacet
facet normal -0.0 -0.0 1.0
outer loop
vertex 27.2 14.6 -3.52495810318487e-15
vertex 28.45 11.7650635094611 -3.52495810318487e-15
vertex 28.4940952255126 14.4296291314453 -3.52495810318487e-15
endloop
endfacet
facet normal -0.0 -0.0 1.0
outer loop
vertex 28.4940952255126 14.4296291314453 -3.52495810318487e-15
vertex 28.45 11.7650635094611 -3.52495810318487e-15
vertex 29.7 9.6 -3.52495810318487e-15
endloop
endfacet
facet normal -0.0 -0.0 1.0
outer loop
vertex 28.4940952255126 14.4296291314453 -3.52495810318487e-15
vertex 29.7 9.6 -3.52495810318487e-15
vertex 29.7 13.9301270189222 -3.52495810318487e-15
endloop
endfacet
facet normal -0.0 -0.0 1.0
outer loop
vertex 23.2 6.6 -3.52495810318487e-15
vertex 22.2 12.6 -3.52495810318487e-15
vertex 22.2 6.6 -3.52495810318487e-15
endloop
endfacet
facet normal -0.0 -0.0 1.0
outer loop
vertex 22.2 12.6 -3.52495810318487e-15
vertex 23.2 6.6 -3.52495810318487e-15
vertex 23.2 12.6 -3.52495810318487e-15
endloop
endfacet
facet normal -6.52370252570009e-31 -1.0 1.4687325429937e-16
outer loop
vertex -2.0 12.6 19.2
vertex -4.0 12.6 -3.52495810318487e-15
vertex -3.0 12.6 -3.52495810318487e-15
endloop
endfacet
facet normal -0.965925826289068 0.258819045102521 0.0
outer loop
vertex -12.8296291314453 10.8940952255126 -3.52495810318487e-15
vertex -13.0 9.6 -2.0
vertex -13.0 9.6 -3.52495810318487e-15
endloop
endfacet
facet normal -1.0 2.3168885728682e-16 0.0
outer loop
vertex -13.0 9.6 -2.0
vertex -12.8296291314453 10.8940952255126 -3.52495810318487e-15
vertex -12.8296291314453 10.8940952255126 -2.0
endloop
endfacet
facet normal 2.7286604052064e-17 -0.998646416445549 0.0520128341898723
outer loop
vertex 19.2 -2.0 19.2
vertex 7.04991620636974e-16 -3.0 0.0
vertex 19.2 -3.0 0.0
endloop
endfacet
facet normal 2.7286604052064e-17 -0.998646416445549 0.0520128341898723
outer loop
vertex 7.04991620636974e-16 -3.0 0.0
vertex 19.2 -2.0 19.2
vertex 7.04991620636974e-16 -2.0 19.2
endloop
endfacet
facet normal 6.52370252570009e-31 -1.0 1.4687325429937e-16
outer loop
vertex 21.2 12.6 19.2
vertex 22.2 12.6 -3.52495810318487e-15
vertex 23.2 12.6 -3.52495810318487e-15
endloop
endfacet
facet normal -1.0 0.0 0.0
outer loop
vertex -3.0 4.6 -3.52495810318487e-15
vertex -3.0 -3.52495810318487e-16 -2.0
vertex -3.0 -3.52495810318487e-16 0.0
endloop
endfacet
facet normal -1.0 0.0 0.0
outer loop
vertex -3.0 -3.52495810318487e-16 -2.0
vertex -3.0 4.6 -3.52495810318487e-15
vertex -3.0 4.6 -2.0
endloop
endfacet
facet normal -0.0 1.0 -0.0
outer loop
vertex -2.0 14.6 19.2
vertex -3.0 14.6 -3.52495810318487e-15
vertex -4.0 14.6 -3.52495810318487e-15
endloop
endfacet
facet normal -0.998646416445549 2.58717431012162e-17 0.0520128341898724
outer loop
vertex -2.0 12.6 19.2
vertex -3.0 6.6 -3.52495810318487e-15
vertex -2.0 6.6 19.2
endloop
endfacet
facet normal -0.998646416445549 2.58717431012162e-17 0.0520128341898724
outer loop
vertex -3.0 6.6 -3.52495810318487e-15
vertex -2.0 12.6 19.2
vertex -3.0 12.6 -3.52495810318487e-15
endloop
endfacet
facet normal -0.965925826289068 -0.258819045102521 0.0
outer loop
vertex -12.8296291314453 8.3059047744874 -3.52495810318487e-15
vertex -12.3301270189222 7.1 -2.0
vertex -12.3301270189222 7.1 -3.52495810318487e-15
endloop
endfacet
facet normal -0.866025403784438 -0.500000000000001 1.38283609123949e-16
outer loop
vertex -12.3301270189222 7.1 -2.0
vertex -12.8296291314453 8.3059047744874 -3.52495810318487e-15
vertex -12.8296291314453 8.3059047744874 -2.0
endloop
endfacet
facet normal -1.0 0.0 0.0
outer loop
vertex -3.0 19.2 0.0
vertex -3.0 14.6 -2.0
vertex -3.0 14.6 -3.52495810318487e-15
endloop
endfacet
facet normal -1.0 0.0 0.0
outer loop
vertex -3.0 14.6 -2.0
vertex -3.0 19.2 0.0
vertex -3.0 19.2 -2.0
endloop
endfacet
facet normal -0.707106781186548 0.707106781186547 -4.19560176289379e-17
outer loop
vertex -11.5355339059327 13.1355339059327 -3.52495810318487e-15
vertex -10.5 13.9301270189222 -2.0
vertex -11.5355339059327 13.1355339059327 -2.0
endloop
endfacet
facet normal -0.500000000000001 0.866025403784438 0.0
outer loop
vertex -10.5 13.9301270189222 -2.0
vertex -11.5355339059327 13.1355339059327 -3.52495810318487e-15
vertex -10.5 13.9301270189222 -3.52495810318487e-15
endloop
endfacet
facet normal -0.500000000000001 0.866025403784438 0.0
outer loop
vertex -10.5 13.9301270189222 -3.52495810318487e-15
vertex -9.29409522551261 14.4296291314453 -2.0
vertex -10.5 13.9301270189222 -2.0
endloop
endfacet
facet normal -0.258819045102521 0.965925826289068 0.0
outer loop
vertex -9.29409522551261 14.4296291314453 -2.0
vertex -10.5 13.9301270189222 -3.52495810318487e-15
vertex -9.29409522551261 14.4296291314453 -3.52495810318487e-15
endloop
endfacet
facet normal -0.258819045102521 0.965925826289068 0.0
outer loop
vertex -9.29409522551261 14.4296291314453 -3.52495810318487e-15
vertex -8.0 14.6 -2.0
vertex -9.29409522551261 14.4296291314453 -2.0
endloop
endfacet
facet normal -0.130526192220051 0.99144486137381 -0.0
outer loop
vertex -8.0 14.6 -2.0
vertex -9.29409522551261 14.4296291314453 -3.52495810318487e-15
vertex -8.0 14.6 -3.52495810318487e-15
endloop
endfacet
facet normal -0.866025403784439 0.5 -4.19560176289379e-17
outer loop
vertex -12.3301270189222 12.1 -3.52495810318487e-15
vertex -12.8296291314453 10.8940952255126 -2.0
vertex -12.8296291314453 10.8940952255126 -3.52495810318487e-15
endloop
endfacet
facet normal -0.965925826289068 0.258819045102521 0.0
outer loop
vertex -12.8296291314453 10.8940952255126 -2.0
vertex -12.3301270189222 12.1 -3.52495810318487e-15
vertex -12.3301270189222 12.1 -2.0
endloop
endfacet
facet normal -0.793353340291235 0.608761429008721 -8.3194156163839e-17
outer loop
vertex -11.9464635249327 12.6 -3.52495810318487e-15
vertex -12.3301270189222 12.1 -2.0
vertex -12.3301270189222 12.1 -3.52495810318487e-15
endloop
endfacet
facet normal -0.866025403784439 0.5 -4.19560176289379e-17
outer loop
vertex -12.3301270189222 12.1 -2.0
vertex -11.9464635249327 12.6 -3.52495810318487e-15
vertex -11.5355339059327 13.1355339059327 -2.0
endloop
endfacet
facet normal -0.707106781186548 0.707106781186547 -4.19560176289379e-17
outer loop
vertex -11.5355339059327 13.1355339059327 -2.0
vertex -11.9464635249327 12.6 -3.52495810318487e-15
vertex -11.5355339059327 13.1355339059327 -3.52495810318487e-15
endloop
endfacet
facet normal 0.0 -1.0 0.0
outer loop
vertex -3.0 4.6 -3.52495810318487e-15
vertex -8.0 4.6 -2.0
vertex -3.0 4.6 -2.0
endloop
endfacet
facet normal 0.0 -1.0 0.0
outer loop
vertex -8.0 4.6 -2.0
vertex -3.0 4.6 -3.52495810318487e-15
vertex -8.0 4.6 -3.52495810318487e-15
endloop
endfacet
facet normal 0.0 -1.0 0.0
outer loop
vertex -8.0 4.6 -3.52495810318487e-15
vertex -3.0 4.6 -3.52495810318487e-15
vertex -4.0 4.6 -3.52495810318487e-15
endloop
endfacet
facet normal -0.793353340291235 -0.608761429008721 2.74201147356327e-16
outer loop
vertex -11.9464635249327 6.6 -3.52495810318487e-15
vertex -11.5355339059327 6.06446609406726 -2.0
vertex -11.5355339059327 6.06446609406726 -3.52495810318487e-15
endloop
endfacet
facet normal -0.707106781186547 -0.707106781186548 1.38283609123949e-16
outer loop
vertex -11.5355339059327 6.06446609406726 -2.0
vertex -11.9464635249327 6.6 -3.52495810318487e-15
vertex -12.3301270189222 7.1 -2.0
endloop
endfacet
facet normal -0.866025403784438 -0.500000000000001 1.38283609123949e-16
outer loop
vertex -12.3301270189222 7.1 -2.0
vertex -11.9464635249327 6.6 -3.52495810318487e-15
vertex -12.3301270189222 7.1 -3.52495810318487e-15
endloop
endfacet
facet normal -0.130526192220051 -0.99144486137381 0.0
outer loop
vertex -8.0 4.6 -3.52495810318487e-15
vertex -9.2940952255126 4.77037086855466 -2.0
vertex -8.0 4.6 -2.0
endloop
endfacet
facet normal -0.258819045102521 -0.965925826289068 0.0
outer loop
vertex -9.2940952255126 4.77037086855466 -2.0
vertex -8.0 4.6 -3.52495810318487e-15
vertex -9.2940952255126 4.77037086855466 -3.52495810318487e-15
endloop
endfacet
facet normal -0.258819045102521 -0.965925826289068 0.0
outer loop
vertex -9.2940952255126 4.77037086855466 -3.52495810318487e-15
vertex -10.5 5.26987298107781 -2.0
vertex -9.2940952255126 4.77037086855466 -2.0
endloop
endfacet
facet normal -0.5 -0.866025403784439 0.0
outer loop
vertex -10.5 5.26987298107781 -2.0
vertex -9.2940952255126 4.77037086855466 -3.52495810318487e-15
vertex -10.5 5.26987298107781 -3.52495810318487e-15
endloop
endfacet
facet normal 0.0 -1.0 0.0
outer loop
vertex -2.0 4.6 19.2
vertex -4.0 4.6 -3.52495810318487e-15
vertex -3.0 4.6 -3.52495810318487e-15
endloop
endfacet
facet normal -0.706627730970193 -0.706627730970195 0.0368035276546976
outer loop
vertex 7.04991620636974e-16 -2.0 19.2
vertex -3.0 -3.52495810318487e-16 0.0
vertex 7.04991620636974e-16 -3.0 0.0
endloop
endfacet
facet normal -0.706627730970193 -0.706627730970195 0.0368035276546976
outer loop
vertex -3.0 -3.52495810318487e-16 0.0
vertex 7.04991620636974e-16 -2.0 19.2
vertex -2.0 -3.52495810318487e-16 19.2
endloop
endfacet
facet normal -0.0 1.0 -0.0
outer loop
vertex -2.0 19.2 19.2
vertex 7.04991620636974e-16 19.2 0.0
vertex -3.0 19.2 0.0
endloop
endfacet
facet normal -0.0 1.0 -0.0
outer loop
vertex 7.04991620636974e-16 19.2 0.0
vertex -2.0 19.2 19.2
vertex 7.04991620636974e-16 19.2 19.2
endloop
endfacet
facet normal -0.0 1.0 -0.0
outer loop
vertex -3.0 19.2 0.0
vertex 22.2 19.2 -2.0
vertex -3.0 19.2 -2.0
endloop
endfacet
facet normal -0.0 1.0 -0.0
outer loop
vertex 22.2 19.2 -2.0
vertex -3.0 19.2 0.0
vertex 22.2 19.2 0.0
endloop
endfacet
facet normal -0.0 1.0 -0.0
outer loop
vertex 22.2 19.2 0.0
vertex -3.0 19.2 0.0
vertex 7.04991620636974e-16 19.2 0.0
endloop
endfacet
facet normal -0.0 1.0 -0.0
outer loop
vertex 22.2 19.2 0.0
vertex 7.04991620636974e-16 19.2 0.0
vertex 19.2 19.2 0.0
endloop
endfacet
facet normal -0.0 1.0 -0.0
outer loop
vertex 22.2 19.2 0.0
vertex 19.2 19.2 0.0
vertex 19.2 19.2 19.2
endloop
endfacet
facet normal -0.0 1.0 -0.0
outer loop
vertex 22.2 19.2 0.0
vertex 19.2 19.2 19.2
vertex 21.2 19.2 19.2
endloop
endfacet
facet normal -5.77606066509478e-17 2.40236662545873e-16 1.0
outer loop
vertex 19.2 -2.0 19.2
vertex 7.04991620636974e-16 -3.52495810318487e-16 19.2
vertex 7.04991620636974e-16 -2.0 19.2
endloop
endfacet
facet normal -5.77606066509478e-17 2.40236662545873e-16 1.0
outer loop
vertex 7.04991620636974e-16 -3.52495810318487e-16 19.2
vertex 19.2 -2.0 19.2
vertex 19.2 0.0 19.2
endloop
endfacet
facet normal -5.77606066509478e-17 2.40236662545873e-16 1.0
outer loop
vertex 19.2 0.0 19.2
vertex 19.2 -2.0 19.2
vertex 21.2 0.0 19.2
endloop
endfacet
facet normal -5.77606066509478e-17 2.40236662545873e-16 1.0
outer loop
vertex 19.2 0.0 19.2
vertex 21.2 0.0 19.2
vertex 19.2 19.2 19.2
endloop
endfacet
facet normal -5.77606066509478e-17 2.40236662545873e-16 1.0
outer loop
vertex 19.2 19.2 19.2
vertex 21.2 0.0 19.2
vertex 21.2 19.2 19.2
endloop
endfacet
facet normal -5.77606066509478e-17 2.40236662545873e-16 1.0
outer loop
vertex 21.2 19.2 19.2
vertex 21.2 0.0 19.2
vertex 21.2 4.6 19.2
endloop
endfacet
facet normal -5.77606066509478e-17 2.40236662545873e-16 1.0
outer loop
vertex 21.2 19.2 19.2
vertex 21.2 4.6 19.2
vertex 21.2 6.6 19.2
endloop
endfacet
facet normal -5.77606066509478e-17 2.40236662545873e-16 1.0
outer loop
vertex 21.2 19.2 19.2
vertex 21.2 6.6 19.2
vertex 21.2 12.6 19.2
endloop
endfacet
facet normal -5.77606066509478e-17 2.40236662545873e-16 1.0
outer loop
vertex 21.2 19.2 19.2
vertex 21.2 12.6 19.2
vertex 21.2 14.6 19.2
endloop
endfacet
facet normal -5.77606066509478e-17 2.40236662545873e-16 1.0
outer loop
vertex 7.04991620636974e-16 -2.0 19.2
vertex -2.0 4.6 19.2
vertex -2.0 -3.52495810318487e-16 19.2
endloop
endfacet
facet normal -5.77606066509478e-17 2.40236662545873e-16 1.0
outer loop
vertex -2.0 4.6 19.2
vertex 7.04991620636974e-16 -2.0 19.2
vertex -2.0 6.6 19.2
endloop
endfacet
facet normal -5.77606066509478e-17 2.40236662545873e-16 1.0
outer loop
vertex -2.0 6.6 19.2
vertex 7.04991620636974e-16 -2.0 19.2
vertex -2.0 12.6 19.2
endloop
endfacet
facet normal -5.77606066509478e-17 2.40236662545873e-16 1.0
outer loop
vertex -2.0 12.6 19.2
vertex 7.04991620636974e-16 -2.0 19.2
vertex -2.0 14.6 19.2
endloop
endfacet
facet normal -5.77606066509478e-17 2.40236662545873e-16 1.0
outer loop
vertex -2.0 14.6 19.2
vertex 7.04991620636974e-16 -2.0 19.2
vertex -2.0 19.2 19.2
endloop
endfacet
facet normal -5.77606066509478e-17 2.40236662545873e-16 1.0
outer loop
vertex -2.0 19.2 19.2
vertex 7.04991620636974e-16 -2.0 19.2
vertex 7.04991620636974e-16 19.2 19.2
endloop
endfacet
facet normal -5.77606066509478e-17 2.40236662545873e-16 1.0
outer loop
vertex 7.04991620636974e-16 19.2 19.2
vertex 7.04991620636974e-16 -2.0 19.2
vertex 7.04991620636974e-16 -3.52495810318487e-16 19.2
endloop
endfacet
facet normal 1.83591567874212e-17 -1.0 0.0
outer loop
vertex 19.2 -3.0 0.0
vertex 7.04991620636974e-16 -3.0 -2.0
vertex 19.2 -3.0 -2.0
endloop
endfacet
facet normal 1.83591567874212e-17 -1.0 0.0
outer loop
vertex 7.04991620636974e-16 -3.0 -2.0
vertex 19.2 -3.0 0.0
vertex 7.04991620636974e-16 -3.0 0.0
endloop
endfacet
facet normal -5.03119876895052e-33 1.06739135609542e-17 -1.0
outer loop
vertex 27.2 14.6 -2.0
vertex 22.2 4.6 -2.0
vertex 22.2 14.6 -2.0
endloop
endfacet
facet normal -5.03119876895052e-33 1.06739135609542e-17 -1.0
outer loop
vertex 22.2 4.6 -2.0
vertex 27.2 14.6 -2.0
vertex 24.7 9.6 -2.0
endloop
endfacet
facet normal -5.03119876895052e-33 1.06739135609542e-17 -1.0
outer loop
vertex 24.7 9.6 -2.0
vertex 27.2 14.6 -2.0
vertex 25.95 11.7650635094611 -2.0
endloop
endfacet
facet normal -5.03119876895052e-33 1.06739135609542e-17 -1.0
outer loop
vertex 25.95 11.7650635094611 -2.0
vertex 27.2 14.6 -2.0
vertex 28.45 11.7650635094611 -2.0
endloop
endfacet
facet normal -5.03119876895052e-33 1.06739135609542e-17 -1.0
outer loop
vertex 28.45 11.7650635094611 -2.0
vertex 27.2 14.6 -2.0
vertex 28.4940952255126 14.4296291314453 -2.0
endloop
endfacet
facet normal -5.03119876895052e-33 1.06739135609542e-17 -1.0
outer loop
vertex 28.45 11.7650635094611 -2.0
vertex 28.4940952255126 14.4296291314453 -2.0
vertex 29.7 9.6 -2.0
endloop
endfacet
facet normal -5.03119876895052e-33 1.06739135609542e-17 -1.0
outer loop
vertex 29.7 9.6 -2.0
vertex 28.4940952255126 14.4296291314453 -2.0
vertex 29.7 13.9301270189222 -2.0
endloop
endfacet
facet normal -5.03119876895052e-33 1.06739135609542e-17 -1.0
outer loop
vertex 29.7 9.6 -2.0
vertex 29.7 13.9301270189222 -2.0
vertex 29.7 5.26987298107781 -2.0
endloop
endfacet
facet normal -5.03119876895052e-33 1.06739135609542e-17 -1.0
outer loop
vertex 29.7 5.26987298107781 -2.0
vertex 29.7 13.9301270189222 -2.0
vertex 30.7355339059327 6.06446609406726 -2.0
endloop
endfacet
facet normal -5.03119876895052e-33 1.06739135609542e-17 -1.0
outer loop
vertex 30.7355339059327 6.06446609406726 -2.0
vertex 29.7 13.9301270189222 -2.0
vertex 30.7355339059327 13.1355339059327 -2.0
endloop
endfacet
facet normal -5.03119876895052e-33 1.06739135609542e-17 -1.0
outer loop
vertex 30.7355339059327 6.06446609406726 -2.0
vertex 30.7355339059327 13.1355339059327 -2.0
vertex 31.5301270189222 12.1 -2.0
endloop
endfacet
facet normal -5.03119876895052e-33 1.06739135609542e-17 -1.0
outer loop
vertex 30.7355339059327 6.06446609406726 -2.0
vertex 31.5301270189222 12.1 -2.0
vertex 31.5301270189222 7.1 -2.0
endloop
endfacet
facet normal -5.03119876895052e-33 1.06739135609542e-17 -1.0
outer loop
vertex 31.5301270189222 7.1 -2.0
vertex 31.5301270189222 12.1 -2.0
vertex 32.0296291314453 10.8940952255126 -2.0
endloop
endfacet
facet normal -5.03119876895052e-33 1.06739135609542e-17 -1.0
outer loop
vertex 31.5301270189222 7.1 -2.0
vertex 32.0296291314453 10.8940952255126 -2.0
vertex 32.0296291314453 8.3059047744874 -2.0
endloop
endfacet
facet normal -5.03119876895052e-33 1.06739135609542e-17 -1.0
outer loop
vertex 32.0296291314453 8.3059047744874 -2.0
vertex 32.0296291314453 10.8940952255126 -2.0
vertex 32.2 9.6 -2.0
endloop
endfacet
facet normal -5.03119876895052e-33 1.06739135609542e-17 -1.0
outer loop
vertex 24.7 9.6 -2.0
vertex 27.2 4.6 -2.0
vertex 22.2 4.6 -2.0
endloop
endfacet
facet normal -5.03119876895052e-33 1.06739135609542e-17 -1.0
outer loop
vertex 27.2 4.6 -2.0
vertex 24.7 9.6 -2.0
vertex 25.95 7.4349364905389 -2.0
endloop
endfacet
facet normal -5.03119876895052e-33 1.06739135609542e-17 -1.0
outer loop
vertex 27.2 4.6 -2.0
vertex 25.95 7.4349364905389 -2.0
vertex 28.45 7.4349364905389 -2.0
endloop
endfacet
facet normal -5.03119876895052e-33 1.06739135609542e-17 -1.0
outer loop
vertex 27.2 4.6 -2.0
vertex 28.45 7.4349364905389 -2.0
vertex 28.4940952255126 4.77037086855466 -2.0
endloop
endfacet
facet normal -5.03119876895052e-33 1.06739135609542e-17 -1.0
outer loop
vertex 28.4940952255126 4.77037086855466 -2.0
vertex 28.45 7.4349364905389 -2.0
vertex 29.7 9.6 -2.0
endloop
endfacet
facet normal -5.03119876895052e-33 1.06739135609542e-17 -1.0
outer loop
vertex 28.4940952255126 4.77037086855466 -2.0
vertex 29.7 9.6 -2.0
vertex 29.7 5.26987298107781 -2.0
endloop
endfacet
facet normal -5.03119876895052e-33 1.06739135609542e-17 -1.0
outer loop
vertex -9.29409522551261 14.4296291314453 -2.0
vertex -10.5 9.6 -2.0
vertex -10.5 13.9301270189222 -2.0
endloop
endfacet
facet normal -5.03119876895052e-33 1.06739135609542e-17 -1.0
outer loop
vertex -10.5 9.6 -2.0
vertex -9.29409522551261 14.4296291314453 -2.0
vertex -9.25 11.7650635094611 -2.0
endloop
endfacet
facet normal -5.03119876895052e-33 1.06739135609542e-17 -1.0
outer loop
vertex -9.25 11.7650635094611 -2.0
vertex -9.29409522551261 14.4296291314453 -2.0
vertex -8.0 14.6 -2.0
endloop
endfacet
facet normal -5.03119876895052e-33 1.06739135609542e-17 -1.0
outer loop
vertex -9.25 11.7650635094611 -2.0
vertex -8.0 14.6 -2.0
vertex -6.75 11.7650635094611 -2.0
endloop
endfacet
facet normal -5.03119876895052e-33 1.06739135609542e-17 -1.0
outer loop
vertex -6.75 11.7650635094611 -2.0
vertex -8.0 14.6 -2.0
vertex -3.0 14.6 -2.0
endloop
endfacet
facet normal -5.03119876895052e-33 1.06739135609542e-17 -1.0
outer loop
vertex -6.75 11.7650635094611 -2.0
vertex -3.0 14.6 -2.0
vertex -5.5 9.6 -2.0
endloop
endfacet
facet normal -5.03119876895052e-33 1.06739135609542e-17 -1.0
outer loop
vertex 22.2 19.2 -2.0
vertex -3.0 14.6 -2.0
vertex -3.0 19.2 -2.0
endloop
endfacet
facet normal -5.03119876895052e-33 1.06739135609542e-17 -1.0
outer loop
vertex -3.0 14.6 -2.0
vertex 22.2 19.2 -2.0
vertex -3.0 4.6 -2.0
endloop
endfacet
facet normal -5.03119876895052e-33 1.06739135609542e-17 -1.0
outer loop
vertex -3.0 4.6 -2.0
vertex 22.2 19.2 -2.0
vertex -3.0 -3.52495810318487e-16 -2.0
endloop
endfacet
facet normal -5.03119876895052e-33 1.06739135609542e-17 -1.0
outer loop
vertex -3.0 -3.52495810318487e-16 -2.0
vertex 22.2 19.2 -2.0
vertex 7.04991620636974e-16 -3.0 -2.0
endloop
endfacet
facet normal -5.03119876895052e-33 1.06739135609542e-17 -1.0
outer loop
vertex 7.04991620636974e-16 -3.0 -2.0
vertex 22.2 19.2 -2.0
vertex 19.2 -3.0 -2.0
endloop
endfacet
facet normal -5.03119876895052e-33 1.06739135609542e-17 -1.0
outer loop
vertex 19.2 -3.0 -2.0
vertex 22.2 19.2 -2.0
vertex 22.2 1.37912364292726e-16 -2.0
endloop
endfacet
facet normal -5.03119876895052e-33 1.06739135609542e-17 -1.0
outer loop
vertex 22.2 1.37912364292726e-16 -2.0
vertex 22.2 19.2 -2.0
vertex 22.2 14.6 -2.0
endloop
endfacet
facet normal -5.03119876895052e-33 1.06739135609542e-17 -1.0
outer loop
vertex 22.2 1.37912364292726e-16 -2.0
vertex 22.2 14.6 -2.0
vertex 22.2 4.6 -2.0
endloop
endfacet
facet normal -5.03119876895052e-33 1.06739135609542e-17 -1.0
outer loop
vertex -12.8296291314453 10.8940952255126 -2.0
vertex -12.8296291314453 8.3059047744874 -2.0
vertex -13.0 9.6 -2.0
endloop
endfacet
facet normal -5.03119876895052e-33 1.06739135609542e-17 -1.0
outer loop
vertex -12.8296291314453 8.3059047744874 -2.0
vertex -12.8296291314453 10.8940952255126 -2.0
vertex -12.3301270189222 12.1 -2.0
endloop
endfacet
facet normal -5.03119876895052e-33 1.06739135609542e-17 -1.0
outer loop
vertex -12.8296291314453 8.3059047744874 -2.0
vertex -12.3301270189222 12.1 -2.0
vertex -12.3301270189222 7.1 -2.0
endloop
endfacet
facet normal -5.03119876895052e-33 1.06739135609542e-17 -1.0
outer loop
vertex -12.3301270189222 7.1 -2.0
vertex -12.3301270189222 12.1 -2.0
vertex -11.5355339059327 13.1355339059327 -2.0
endloop
endfacet
facet normal -5.03119876895052e-33 1.06739135609542e-17 -1.0
outer loop
vertex -12.3301270189222 7.1 -2.0
vertex -11.5355339059327 13.1355339059327 -2.0
vertex -11.5355339059327 6.06446609406726 -2.0
endloop
endfacet
facet normal -5.03119876895052e-33 1.06739135609542e-17 -1.0
outer loop
vertex -11.5355339059327 6.06446609406726 -2.0
vertex -11.5355339059327 13.1355339059327 -2.0
vertex -10.5 13.9301270189222 -2.0
endloop
endfacet
facet normal -5.03119876895052e-33 1.06739135609542e-17 -1.0
outer loop
vertex -11.5355339059327 6.06446609406726 -2.0
vertex -10.5 13.9301270189222 -2.0
vertex -10.5 5.26987298107781 -2.0
endloop
endfacet
facet normal -5.03119876895052e-33 1.06739135609542e-17 -1.0
outer loop
vertex -10.5 5.26987298107781 -2.0
vertex -10.5 13.9301270189222 -2.0
vertex -10.5 9.6 -2.0
endloop
endfacet
facet normal -5.03119876895052e-33 1.06739135609542e-17 -1.0
outer loop
vertex -10.5 5.26987298107781 -2.0
vertex -10.5 9.6 -2.0
vertex -9.25 7.4349364905389 -2.0
endloop
endfacet
facet normal -5.03119876895052e-33 1.06739135609542e-17 -1.0
outer loop
vertex -10.5 5.26987298107781 -2.0
vertex -9.25 7.4349364905389 -2.0
vertex -9.2940952255126 4.77037086855466 -2.0
endloop
endfacet
facet normal -5.03119876895052e-33 1.06739135609542e-17 -1.0
outer loop
vertex -9.2940952255126 4.77037086855466 -2.0
vertex -9.25 7.4349364905389 -2.0
vertex -8.0 4.6 -2.0
endloop
endfacet
facet normal -5.03119876895052e-33 1.06739135609542e-17 -1.0
outer loop
vertex -8.0 4.6 -2.0
vertex -9.25 7.4349364905389 -2.0
vertex -6.75 7.4349364905389 -2.0
endloop
endfacet
facet normal -5.03119876895052e-33 1.06739135609542e-17 -1.0
outer loop
vertex -8.0 4.6 -2.0
vertex -6.75 7.4349364905389 -2.0
vertex -3.0 4.6 -2.0
endloop
endfacet
facet normal -5.03119876895052e-33 1.06739135609542e-17 -1.0
outer loop
vertex -3.0 4.6 -2.0
vertex -6.75 7.4349364905389 -2.0
vertex -5.5 9.6 -2.0
endloop
endfacet
facet normal -5.03119876895052e-33 1.06739135609542e-17 -1.0
outer loop
vertex -3.0 4.6 -2.0
vertex -5.5 9.6 -2.0
vertex -3.0 14.6 -2.0
endloop
endfacet
facet normal -0.0 -2.44788757165616e-17 1.0
outer loop
vertex 19.2 0.0 0.0
vertex 7.04991620636974e-16 19.2 0.0
vertex 7.04991620636974e-16 -3.52495810318487e-16 0.0
endloop
endfacet
facet normal -0.0 -2.44788757165616e-17 1.0
outer loop
vertex 7.04991620636974e-16 19.2 0.0
vertex 19.2 0.0 0.0
vertex 19.2 19.2 0.0
endloop
endfacet
facet normal 0.0 -1.0 0.0
outer loop
vertex 21.2 4.6 19.2
vertex 22.2 4.6 -3.52495810318487e-15
vertex 23.2 4.6 -3.52495810318487e-15
endloop
endfacet
facet normal 0.706627730970194 -0.706627730970194 0.0368035276546976
outer loop
vertex 22.2 0.0 0.0
vertex 19.2 -2.0 19.2
vertex 19.2 -3.0 0.0
endloop
endfacet
facet normal 0.706627730970194 -0.706627730970194 0.0368035276546976
outer loop
vertex 19.2 -2.0 19.2
vertex 22.2 0.0 0.0
vertex 21.2 0.0 19.2
endloop
endfacet
facet normal 0.707106781186547 -0.707106781186548 0.0
outer loop
vertex 30.7355339059327 6.06446609406726 -3.52495810318487e-15
vertex 29.7 5.26987298107781 -2.0
vertex 30.7355339059327 6.06446609406726 -2.0
endloop
endfacet
facet normal 0.5 -0.866025403784439 0.0
outer loop
vertex 29.7 5.26987298107781 -2.0
vertex 30.7355339059327 6.06446609406726 -3.52495810318487e-15
vertex 29.7 5.26987298107781 -3.52495810318487e-15
endloop
endfacet
facet normal 0.994618408890778 -0.0 0.103606084259456
outer loop
vertex 23.2 6.6 -3.52495810318487e-15
vertex 21.2 4.6 19.2
vertex 23.2 4.6 -3.52495810318487e-15
endloop
endfacet
facet normal 0.994618408890778 -0.0 0.103606084259456
outer loop
vertex 21.2 4.6 19.2
vertex 23.2 6.6 -3.52495810318487e-15
vertex 21.2 6.6 19.2
endloop
endfacet
facet normal 1.0 -0.0 -0.0
outer loop
vertex 22.2 19.2 -2.0
vertex 22.2 14.6 -3.52495810318487e-15
vertex 22.2 14.6 -2.0
endloop
endfacet
facet normal 1.0 -0.0 -0.0
outer loop
vertex 22.2 14.6 -3.52495810318487e-15
vertex 22.2 19.2 -2.0
vertex 22.2 19.2 0.0
endloop
endfacet
facet normal 0.500000000000001 0.866025403784438 0.0
outer loop
vertex 29.7 13.9301270189222 -3.52495810318487e-15
vertex 30.7355339059327 13.1355339059327 -2.0
vertex 29.7 13.9301270189222 -2.0
endloop
endfacet
facet normal 0.707106781186548 0.707106781186547 0.0
outer loop
vertex 30.7355339059327 13.1355339059327 -2.0
vertex 29.7 13.9301270189222 -3.52495810318487e-15
vertex 30.7355339059327 13.1355339059327 -3.52495810318487e-15
endloop
endfacet
facet normal 0.258819045102521 0.965925826289068 0.0
outer loop
vertex 28.4940952255126 14.4296291314453 -3.52495810318487e-15
vertex 29.7 13.9301270189222 -2.0
vertex 28.4940952255126 14.4296291314453 -2.0
endloop
endfacet
facet normal 0.500000000000001 0.866025403784438 0.0
outer loop
vertex 29.7 13.9301270189222 -2.0
vertex 28.4940952255126 14.4296291314453 -3.52495810318487e-15
vertex 29.7 13.9301270189222 -3.52495810318487e-15
endloop
endfacet
facet normal 0.130526192220051 0.99144486137381 0.0
outer loop
vertex 27.2 14.6 -3.52495810318487e-15
vertex 28.4940952255126 14.4296291314453 -2.0
vertex 27.2 14.6 -2.0
endloop
endfacet
facet normal 0.258819045102521 0.965925826289068 0.0
outer loop
vertex 28.4940952255126 14.4296291314453 -2.0
vertex 27.2 14.6 -3.52495810318487e-15
vertex 28.4940952255126 14.4296291314453 -3.52495810318487e-15
endloop
endfacet
facet normal 0.866025403784439 0.5 0.0
outer loop
vertex 31.5301270189222 12.1 -2.0
vertex 32.0296291314453 10.8940952255126 -3.52495810318487e-15
vertex 32.0296291314453 10.8940952255126 -2.0
endloop
endfacet
facet normal 0.965925826289068 0.258819045102521 0.0
outer loop
vertex 32.0296291314453 10.8940952255126 -3.52495810318487e-15
vertex 31.5301270189222 12.1 -2.0
vertex 31.5301270189222 12.1 -3.52495810318487e-15
endloop
endfacet
facet normal 0.707106781186548 0.707106781186547 0.0
outer loop
vertex 30.7355339059327 13.1355339059327 -2.0
vertex 31.5301270189222 12.1 -3.52495810318487e-15
vertex 31.5301270189222 12.1 -2.0
endloop
endfacet
facet normal 0.866025403784439 0.5 0.0
outer loop
vertex 31.5301270189222 12.1 -3.52495810318487e-15
vertex 30.7355339059327 13.1355339059327 -2.0
vertex 31.1464635249327 12.6 -3.52495810318487e-15
endloop
endfacet
facet normal 0.793353340291235 0.608761429008721 0.0
outer loop
vertex 31.1464635249327 12.6 -3.52495810318487e-15
vertex 30.7355339059327 13.1355339059327 -2.0
vertex 30.7355339059327 13.1355339059327 -3.52495810318487e-15
endloop
endfacet
facet normal -1.83591567874212e-17 1.0 -0.0
outer loop
vertex 7.04991620636974e-16 -3.52495810318487e-16 19.2
vertex 19.2 0.0 0.0
vertex 7.04991620636974e-16 -3.52495810318487e-16 0.0
endloop
endfacet
facet normal -1.83591567874212e-17 1.0 -0.0
outer loop
vertex 19.2 0.0 0.0
vertex 7.04991620636974e-16 -3.52495810318487e-16 19.2
vertex 19.2 0.0 19.2
endloop
endfacet
facet normal 0.0 -1.0 0.0
outer loop
vertex 27.2 4.6 -3.52495810318487e-15
vertex 22.2 4.6 -2.0
vertex 27.2 4.6 -2.0
endloop
endfacet
facet normal 0.0 -1.0 0.0
outer loop
vertex 22.2 4.6 -2.0
vertex 27.2 4.6 -3.52495810318487e-15
vertex 22.2 4.6 -3.52495810318487e-15
endloop
endfacet
facet normal 0.0 -1.0 0.0
outer loop
vertex 22.2 4.6 -3.52495810318487e-15
vertex 27.2 4.6 -3.52495810318487e-15
vertex 23.2 4.6 -3.52495810318487e-15
endloop
endfacet
facet normal 0.866025403784439 -0.5 0.0
outer loop
vertex 31.5301270189222 7.1 -2.0
vertex 30.7355339059327 6.06446609406726 -3.52495810318487e-15
vertex 30.7355339059327 6.06446609406726 -2.0
endloop
endfacet
facet normal 0.707106781186547 -0.707106781186548 0.0
outer loop
vertex 30.7355339059327 6.06446609406726 -3.52495810318487e-15
vertex 31.5301270189222 7.1 -2.0
vertex 31.1464635249327 6.6 -3.52495810318487e-15
endloop
endfacet
facet normal 0.793353340291235 -0.608761429008721 0.0
outer loop
vertex 31.1464635249327 6.6 -3.52495810318487e-15
vertex 31.5301270189222 7.1 -2.0
vertex 31.5301270189222 7.1 -3.52495810318487e-15
endloop
endfacet
facet normal 0.258819045102521 -0.965925826289068 0.0
outer loop
vertex 28.4940952255126 4.77037086855466 -3.52495810318487e-15
vertex 27.2 4.6 -2.0
vertex 28.4940952255126 4.77037086855466 -2.0
endloop
endfacet
facet normal 0.130526192220051 -0.99144486137381 0.0
outer loop
vertex 27.2 4.6 -2.0
vertex 28.4940952255126 4.77037086855466 -3.52495810318487e-15
vertex 27.2 4.6 -3.52495810318487e-15
endloop
endfacet
facet normal 0.5 -0.866025403784439 0.0
outer loop
vertex 29.7 5.26987298107781 -3.52495810318487e-15
vertex 28.4940952255126 4.77037086855466 -2.0
vertex 29.7 5.26987298107781 -2.0
endloop
endfacet
facet normal 0.258819045102521 -0.965925826289068 0.0
outer loop
vertex 28.4940952255126 4.77037086855466 -2.0
vertex 29.7 5.26987298107781 -3.52495810318487e-15
vertex 28.4940952255126 4.77037086855466 -3.52495810318487e-15
endloop
endfacet
facet normal 0.998646416445549 1.29358715506082e-17 0.0520128341898724
outer loop
vertex 22.2 12.6 -3.52495810318487e-15
vertex 21.2 6.6 19.2
vertex 22.2 6.6 -3.52495810318487e-15
endloop
endfacet
facet normal 0.998646416445549 1.29358715506082e-17 0.0520128341898724
outer loop
vertex 21.2 6.6 19.2
vertex 22.2 12.6 -3.52495810318487e-15
vertex 21.2 12.6 19.2
endloop
endfacet
facet normal 0.965925826289068 -0.258819045102521 0.0
outer loop
vertex 32.0296291314453 8.3059047744874 -2.0
vertex 31.5301270189222 7.1 -3.52495810318487e-15
vertex 31.5301270189222 7.1 -2.0
endloop
endfacet
facet normal 0.866025403784439 -0.5 0.0
outer loop
vertex 31.5301270189222 7.1 -3.52495810318487e-15
vertex 32.0296291314453 8.3059047744874 -2.0
vertex 32.0296291314453 8.3059047744874 -3.52495810318487e-15
endloop
endfacet
facet normal 1.0 1.42577758330351e-16 0.0
outer loop
vertex 32.2 9.6 -2.0
vertex 32.0296291314453 8.3059047744874 -3.52495810318487e-15
vertex 32.0296291314453 8.3059047744874 -2.0
endloop
endfacet
facet normal 0.965925826289068 -0.258819045102521 0.0
outer loop
vertex 32.0296291314453 8.3059047744874 -3.52495810318487e-15
vertex 32.2 9.6 -2.0
vertex 32.2 9.6 -3.52495810318487e-15
endloop
endfacet
facet normal -0.0 1.0 -0.0
outer loop
vertex 22.2 14.6 -3.52495810318487e-15
vertex 27.2 14.6 -2.0
vertex 22.2 14.6 -2.0
endloop
endfacet
facet normal -0.0 1.0 -0.0
outer loop
vertex 27.2 14.6 -2.0
vertex 22.2 14.6 -3.52495810318487e-15
vertex 27.2 14.6 -3.52495810318487e-15
endloop
endfacet
facet normal -0.0 1.0 -0.0
outer loop
vertex 27.2 14.6 -3.52495810318487e-15
vertex 22.2 14.6 -3.52495810318487e-15
vertex 23.2 14.6 -3.52495810318487e-15
endloop
endfacet
facet normal 0.866025403784439 0.5 0.0
outer loop
vertex 24.7 9.6 -2.0
vertex 25.95 7.4349364905389 -3.52495810318487e-15
vertex 25.95 7.4349364905389 -2.0
endloop
endfacet
facet normal 0.866025403784439 0.5 0.0
outer loop
vertex 25.95 7.4349364905389 -3.52495810318487e-15
vertex 24.7 9.6 -2.0
vertex 24.7 9.6 -3.52495810318487e-15
endloop
endfacet
facet normal 0.866025403784438 -0.5 0.0
outer loop
vertex 25.95 11.7650635094611 -2.0
vertex 24.7 9.6 -3.52495810318487e-15
vertex 24.7 9.6 -2.0
endloop
endfacet
facet normal 0.866025403784438 -0.5 0.0
outer loop
vertex 24.7 9.6 -3.52495810318487e-15
vertex 25.95 11.7650635094611 -2.0
vertex 25.95 11.7650635094611 -3.52495810318487e-15
endloop
endfacet
facet normal 0.0 -1.0 0.0
outer loop
vertex 28.45 11.7650635094611 -3.52495810318487e-15
vertex 25.95 11.7650635094611 -2.0
vertex 28.45 11.7650635094611 -2.0
endloop
endfacet
facet normal 0.0 -1.0 0.0
outer loop
vertex 25.95 11.7650635094611 -2.0
vertex 28.45 11.7650635094611 -3.52495810318487e-15
vertex 25.95 11.7650635094611 -3.52495810318487e-15
endloop
endfacet
facet normal -0.866025403784439 -0.5 -0.0
outer loop
vertex 28.45 11.7650635094611 -3.52495810318487e-15
vertex 29.7 9.6 -2.0
vertex 29.7 9.6 -3.52495810318487e-15
endloop
endfacet
facet normal -0.866025403784439 -0.5 -0.0
outer loop
vertex 29.7 9.6 -2.0
vertex 28.45 11.7650635094611 -3.52495810318487e-15
vertex 28.45 11.7650635094611 -2.0
endloop
endfacet
facet normal -0.866025403784439 0.5 0.0
outer loop
vertex 29.7 9.6 -3.52495810318487e-15
vertex 28.45 7.4349364905389 -2.0
vertex 28.45 7.4349364905389 -3.52495810318487e-15
endloop
endfacet
facet normal -0.866025403784439 0.5 0.0
outer loop
vertex 28.45 7.4349364905389 -2.0
vertex 29.7 9.6 -3.52495810318487e-15
vertex 29.7 9.6 -2.0
endloop
endfacet
facet normal -5.63993296509581e-16 1.0 0.0
outer loop
vertex 25.95 7.4349364905389 -3.52495810318487e-15
vertex 28.45 7.4349364905389 -2.0
vertex 25.95 7.4349364905389 -2.0
endloop
endfacet
facet normal -5.63993296509581e-16 1.0 0.0
outer loop
vertex 28.45 7.4349364905389 -2.0
vertex 25.95 7.4349364905389 -3.52495810318487e-15
vertex 28.45 7.4349364905389 -3.52495810318487e-15
endloop
endfacet
endsolid untitled
