solid Delta Dev
facet normal -0.892287581240983 0.357847711437536 -0.275259673366867
outer loop
vertex 26.7645829088908 771.927257762687 -3.00008086538822
vertex 27.2677423469442 771.682141734861 -4.94979300806726
vertex 26.7655209345382 770.973746762246 -4.24272100148395
endloop
endfacet
facet normal -0.892287581240983 0.357847711437536 -0.275259673366867
outer loop
vertex 27.2677423469442 771.682141734861 -4.94979300806726
vertex 26.7645829088908 771.927257762687 -3.00008086538822
vertex 27.2666479836889 772.794571235375 -3.50004618262223
endloop
endfacet
facet normal -0.999999611216512 -0.000878059569673035 -8.110620369433e-05
outer loop
vertex 26.7738650093987 760.935558856727 1.55283241791528
vertex 26.774116911361 760.935558856727 -1.5529949158201
vertex 26.7741704752359 760.731113972086 -8.12343926343606e-05
endloop
endfacet
facet normal -0.999999611216512 -0.000878059569673035 -8.110620369433e-05
outer loop
vertex 26.774116911361 760.935558856727 -1.5529949158201
vertex 26.7738650093987 760.935558856727 1.55283241791528
vertex 26.7732213308415 761.534960929622 2.99991754201001
endloop
endfacet
facet normal -0.999999611216512 -0.000878059569673035 -8.110620369433e-05
outer loop
vertex 26.774116911361 760.935558856727 -1.5529949158201
vertex 26.7732213308415 761.534960929622 2.99991754201001
vertex 26.7737079680636 761.534960929622 -3.00008012528902
endloop
endfacet
facet normal -0.999999611216512 -0.000878059569673035 -8.110620369433e-05
outer loop
vertex 26.7737079680636 761.534960929622 -3.00008012528902
vertex 26.7732213308415 761.534960929622 2.99991754201001
vertex 26.7722833051941 762.488471930063 4.24255767810574
endloop
endfacet
facet normal -0.999999611216512 -0.000878059569673035 -8.110620369433e-05
outer loop
vertex 26.7737079680636 761.534960929622 -3.00008012528902
vertex 26.7722833051941 762.488471930063 4.24255767810574
vertex 26.7729715141536 762.488471930063 -4.24272039719549
endloop
endfacet
facet normal -0.999999611216512 -0.000878059569673035 -8.110620369433e-05
outer loop
vertex 26.7729715141536 762.488471930063 -4.24272039719549
vertex 26.7722833051941 762.488471930063 4.24255767810574
vertex 26.7723265508565 762.83111235301 -8.13839463984001e-05
endloop
endfacet
facet normal -0.999999611216512 -0.000878059569673035 -8.110620369433e-05
outer loop
vertex 26.7723265508565 762.83111235301 -8.13839463984001e-05
vertex 26.7722833051941 762.488471930063 4.24255767810574
vertex 26.7721279980623 762.964001528026 1.00931249005376
endloop
endfacet
facet normal -0.999999611216512 -0.000878059569673035 -8.110620369433e-05
outer loop
vertex 26.7721279980623 762.964001528026 1.00931249005376
vertex 26.7722833051941 762.488471930063 4.24255767810574
vertex 26.7711148573542 763.73111165912 5.19606895448747
endloop
endfacet
facet normal -0.999999611216512 -0.000878059569673035 -8.110620369433e-05
outer loop
vertex 26.7721279980623 762.964001528026 1.00931249005376
vertex 26.7711148573542 763.73111165912 5.19606895448747
vertex 26.7717096070001 763.353612875408 1.94991782071536
endloop
endfacet
facet normal -0.999999611216512 -0.000878059569673035 -8.110620369433e-05
outer loop
vertex 26.7717096070001 763.353612875408 1.94991782071536
vertex 26.7711148573542 763.73111165912 5.19606895448747
vertex 26.7710998903293 763.973395025695 2.75763390917759
endloop
endfacet
facet normal -0.999999611216512 -0.000878059569673035 -8.110620369433e-05
outer loop
vertex 26.7710998903293 763.973395025695 2.75763390917759
vertex 26.7711148573542 763.73111165912 5.19606895448747
vertex 26.7697956151113 765.178196272818 5.79547115342166
endloop
endfacet
facet normal -0.999999611216512 -0.000878059569673035 -8.110620369433e-05
outer loop
vertex 26.7710998903293 763.973395025695 2.75763390917759
vertex 26.7697956151113 765.178196272818 5.79547115342166
vertex 26.7703403992334 764.781110849582 3.37741623882573
endloop
endfacet
facet normal -0.999999611216512 -0.000878059569673035 -8.110620369433e-05
outer loop
vertex 26.7703403992334 764.781110849582 3.37741623882573
vertex 26.7697956151113 765.178196272818 5.79547115342166
vertex 26.7694828917755 765.721715848486 3.76702766813296
endloop
endfacet
facet normal -0.999999611216512 -0.000878059569673035 -8.110620369433e-05
outer loop
vertex 26.7694828917755 765.721715848486 3.76702766813296
vertex 26.7697956151113 765.178196272818 5.79547115342166
vertex 26.768415482644 766.731109346154 5.99991600560993
endloop
endfacet
facet normal -0.999999611216512 -0.000878059569673035 -8.110620369433e-05
outer loop
vertex 26.7694828917755 765.721715848486 3.76702766813296
vertex 26.768415482644 766.731109346154 5.99991600560993
vertex 26.7685858056717 766.731109346154 3.89991682205534
endloop
endfacet
facet normal -0.999999611216512 -0.000878059569673035 -8.110620369433e-05
outer loop
vertex 26.7685858056717 766.731109346154 3.89991682205534
vertex 26.768415482644 766.731109346154 5.99991600560993
vertex 26.7670685136992 768.28402241949 5.79547093223674
endloop
endfacet
facet normal -0.999999611216512 -0.000878059569673035 -8.110620369433e-05
outer loop
vertex 26.7685858056717 766.731109346154 3.89991682205534
vertex 26.7670685136992 768.28402241949 5.79547093223674
vertex 26.7677102758576 767.740502843823 3.76702752436276
endloop
endfacet
facet normal -0.999999611216512 -0.000878059569673035 -8.110620369433e-05
outer loop
vertex 26.7677102758576 767.740502843823 3.76702752436276
vertex 26.7670685136992 768.28402241949 5.79547093223674
vertex 26.766915968243 768.681107842726 3.37741596108302
endloop
endfacet
facet normal -0.999999611216512 -0.000878059569673035 -8.110620369433e-05
outer loop
vertex 26.766915968243 768.681107842726 3.37741596108302
vertex 26.7670685136992 768.28402241949 5.79547093223674
vertex 26.7658465019844 769.731107033188 5.196068527191
endloop
endfacet
facet normal -0.999999611216512 -0.000878059569673035 -8.110620369433e-05
outer loop
vertex 26.766915968243 768.681107842726 3.37741596108302
vertex 26.7658465019844 769.731107033188 5.196068527191
vertex 26.7662570135793 769.488823666614 2.75763351639009
endloop
endfacet
facet normal -0.999999611216512 -0.000878059569673035 -8.110620369433e-05
outer loop
vertex 26.7662570135793 769.488823666614 2.75763351639009
vertex 26.7658465019844 769.731107033188 5.196068527191
vertex 26.7657783185378 770.1086058169 1.94991733965088
endloop
endfacet
facet normal -0.999999611216512 -0.000878059569673035 -8.110620369433e-05
outer loop
vertex 26.7657783185378 770.1086058169 1.94991733965088
vertex 26.7658465019844 769.731107033188 5.196068527191
vertex 26.7648327255787 770.973746762246 4.24255707381728
endloop
endfacet
facet normal -0.999999611216512 -0.000878059569673035 -8.110620369433e-05
outer loop
vertex 26.7657783185378 770.1086058169 1.94991733965088
vertex 26.7648327255787 770.973746762246 4.24255707381728
vertex 26.7655125053945 770.498217164282 1.00931195349606
endloop
endfacet
facet normal -0.999999611216512 -0.000878059569673035 -8.110620369433e-05
outer loop
vertex 26.7655125053945 770.498217164282 1.00931195349606
vertex 26.7648327255787 770.973746762246 4.24255707381728
vertex 26.7654776888758 770.631106339299 -8.19394318102073e-05
endloop
endfacet
facet normal -0.999999611216512 -0.000878059569673035 -8.110620369433e-05
outer loop
vertex 26.7729715141536 762.488471930063 -4.24272039719549
vertex 26.7722917343378 762.964001528026 -1.00947527687427
vertex 26.7719577377479 763.73111165912 -5.19623185056921
endloop
endfacet
facet normal -0.999999611216512 -0.000878059569673035 -8.110620369433e-05
outer loop
vertex 26.7722917343378 762.964001528026 -1.00947527687427
vertex 26.7729715141536 762.488471930063 -4.24272039719549
vertex 26.7723265508565 762.83111235301 -8.13839463984001e-05
endloop
endfacet
facet normal -0.999999611216512 -0.000878059569673035 -8.110620369433e-05
outer loop
vertex 26.7719577377479 763.73111165912 -5.19623185056921
vertex 26.7722917343378 762.964001528026 -1.00947527687427
vertex 26.7720259211945 763.353612875408 -1.95008066302909
endloop
endfacet
facet normal -0.999999611216512 -0.000878059569673035 -8.110620369433e-05
outer loop
vertex 26.7719577377479 763.73111165912 -5.19623185056921
vertex 26.7720259211945 763.353612875408 -1.95008066302909
vertex 26.771547226153 763.973395025695 -2.7577968397683
endloop
endfacet
facet normal -0.999999611216512 -0.000878059569673035 -8.110620369433e-05
outer loop
vertex 26.7719577377479 763.73111165912 -5.19623185056921
vertex 26.771547226153 763.973395025695 -2.7577968397683
vertex 26.7707357260331 765.178196272818 -5.79563425561494
endloop
endfacet
facet normal -0.999999611216512 -0.000878059569673035 -8.110620369433e-05
outer loop
vertex 26.7707357260331 765.178196272818 -5.79563425561494
vertex 26.771547226153 763.973395025695 -2.7577968397683
vertex 26.7708882714893 764.781110849582 -3.37757928446123
endloop
endfacet
facet normal -0.999999611216512 -0.000878059569673035 -8.110620369433e-05
outer loop
vertex 26.7707357260331 765.178196272818 -5.79563425561494
vertex 26.7708882714893 764.781110849582 -3.37757928446123
vertex 26.7700939638747 765.721715848486 -3.76719084774097
endloop
endfacet
facet normal -0.999999611216512 -0.000878059569673035 -8.110620369433e-05
outer loop
vertex 26.7707357260331 765.178196272818 -5.79563425561494
vertex 26.7700939638747 765.721715848486 -3.76719084774097
vertex 26.7693887570883 766.731109346154 -6.00007932898814
endloop
endfacet
facet normal -0.999999611216512 -0.000878059569673035 -8.110620369433e-05
outer loop
vertex 26.7693887570883 766.731109346154 -6.00007932898814
vertex 26.7700939638747 765.721715848486 -3.76719084774097
vertex 26.7692184340605 766.731109346154 -3.90008014543355
endloop
endfacet
facet normal -0.999999611216512 -0.000878059569673035 -8.110620369433e-05
outer loop
vertex 26.7693887570883 766.731109346154 -6.00007932898814
vertex 26.7692184340605 766.731109346154 -3.90008014543355
vertex 26.7683213479568 767.740502843823 -3.76719099151117
endloop
endfacet
facet normal -0.999999611216512 -0.000878059569673035 -8.110620369433e-05
outer loop
vertex 26.7693887570883 766.731109346154 -6.00007932898814
vertex 26.7683213479568 767.740502843823 -3.76719099151117
vertex 26.768008624621 768.28402241949 -5.79563447679987
endloop
endfacet
facet normal -0.999999611216512 -0.000878059569673035 -8.110620369433e-05
outer loop
vertex 26.768008624621 768.28402241949 -5.79563447679987
vertex 26.7683213479568 767.740502843823 -3.76719099151117
vertex 26.7674638404989 768.681107842726 -3.37757956220394
endloop
endfacet
facet normal -0.999999611216512 -0.000878059569673035 -8.110620369433e-05
outer loop
vertex 26.768008624621 768.28402241949 -5.79563447679987
vertex 26.7674638404989 768.681107842726 -3.37757956220394
vertex 26.7666893823781 769.731107033188 -5.19623227786568
endloop
endfacet
facet normal -0.999999611216512 -0.000878059569673035 -8.110620369433e-05
outer loop
vertex 26.7666893823781 769.731107033188 -5.19623227786568
vertex 26.7674638404989 768.681107842726 -3.37757956220394
vertex 26.766704349403 769.488823666614 -2.7577972325558
endloop
endfacet
facet normal -0.999999611216512 -0.000878059569673035 -8.110620369433e-05
outer loop
vertex 26.7666893823781 769.731107033188 -5.19623227786568
vertex 26.766704349403 769.488823666614 -2.7577972325558
vertex 26.7660946327322 770.1086058169 -1.95008114409357
endloop
endfacet
facet normal -0.999999611216512 -0.000878059569673035 -8.110620369433e-05
outer loop
vertex 26.7666893823781 769.731107033188 -5.19623227786568
vertex 26.7660946327322 770.1086058169 -1.95008114409357
vertex 26.7655209345382 770.973746762246 -4.24272100148395
endloop
endfacet
facet normal -0.999999611216512 -0.000878059569673035 -8.110620369433e-05
outer loop
vertex 26.7655209345382 770.973746762246 -4.24272100148395
vertex 26.7660946327322 770.1086058169 -1.95008114409357
vertex 26.76567624167 770.498217164282 -1.00947581343197
endloop
endfacet
facet normal -0.999999611216512 -0.000878059569673035 -8.110620369433e-05
outer loop
vertex 26.7655209345382 770.973746762246 -4.24272100148395
vertex 26.76567624167 770.498217164282 -1.00947581343197
vertex 26.7654776888758 770.631106339299 -8.19394318102073e-05
endloop
endfacet
facet normal -0.999999611216512 -0.000878059569673035 -8.110620369433e-05
outer loop
vertex 26.7655209345382 770.973746762246 -4.24272100148395
vertex 26.7654776888758 770.631106339299 -8.19394318102073e-05
vertex 26.7648327255787 770.973746762246 4.24255707381728
endloop
endfacet
facet normal -0.999999611216512 -0.000878059569673035 -8.110620369433e-05
outer loop
vertex 26.7655209345382 770.973746762246 -4.24272100148395
vertex 26.7648327255787 770.973746762246 4.24255707381728
vertex 26.7640962716687 771.927257762687 2.99991680191082
endloop
endfacet
facet normal -0.999999611216512 -0.000878059569673035 -8.110620369433e-05
outer loop
vertex 26.7655209345382 770.973746762246 -4.24272100148395
vertex 26.7640962716687 771.927257762687 2.99991680191082
vertex 26.7645829088908 771.927257762687 -3.00008086538822
endloop
endfacet
facet normal -0.999999611216512 -0.000878059569673035 -8.110620369433e-05
outer loop
vertex 26.7645829088908 771.927257762687 -3.00008086538822
vertex 26.7640962716687 771.927257762687 2.99991680191082
vertex 26.7636873283712 772.526659835582 1.55283159244189
endloop
endfacet
facet normal -0.999999611216512 -0.000878059569673035 -8.110620369433e-05
outer loop
vertex 26.7645829088908 771.927257762687 -3.00008086538822
vertex 26.7636873283712 772.526659835582 1.55283159244189
vertex 26.7639392303336 772.526659835582 -1.55299574129349
endloop
endfacet
facet normal -0.999999611216512 -0.000878059569673035 -8.110620369433e-05
outer loop
vertex 26.7639392303336 772.526659835582 -1.55299574129349
vertex 26.7636873283712 772.526659835582 1.55283159244189
vertex 26.7636337644964 772.731104720223 -8.20889855742468e-05
endloop
endfacet
facet normal -0.892394888787568 0.416816360021165 0.172903107214794
outer loop
vertex 27.2660802402631 772.794571235375 3.49995109589339
vertex 26.7636873283712 772.526659835582 1.55283159244189
vertex 26.7640962716687 771.927257762687 2.99991680191082
endloop
endfacet
facet normal -0.892394888787568 0.416816360021165 0.172903107214794
outer loop
vertex 26.7636873283712 772.526659835582 1.55283159244189
vertex 27.2660802402631 772.794571235375 3.49995109589339
vertex 27.2656031397494 773.493873653753 1.81168501817962
endloop
endfacet
facet normal -0.891410031298687 -0.359800961817954 -0.275556571278836
outer loop
vertex 26.7737079680636 761.534960929622 -3.00008012528902
vertex 27.2764346898288 761.782654430647 -4.94979230306405
vertex 27.2772938860572 760.670224930133 -3.50004531917316
endloop
endfacet
facet normal -0.891410031298687 -0.359800961817954 -0.275556571278836
outer loop
vertex 27.2764346898288 761.782654430647 -4.94979230306405
vertex 26.7737079680636 761.534960929622 -3.00008012528902
vertex 26.7729715141536 762.488471930063 -4.24272039719549
endloop
endfacet
facet normal -0.891626164315188 -0.173911027028356 -0.418040354256056
outer loop
vertex 26.7719577377479 763.73111165912 -5.19623185056921
vertex 27.2738262703549 764.920666163862 -6.76152513788677
vertex 27.2752519506888 763.232400781214 -6.06222233200007
endloop
endfacet
facet normal -0.891626164315188 -0.173911027028356 -0.418040354256056
outer loop
vertex 27.2738262703549 764.920666163862 -6.76152513788677
vertex 26.7719577377479 763.73111165912 -5.19623185056921
vertex 26.7707357260331 765.178196272818 -5.79563425561494
endloop
endfacet
facet normal -0.891562078422941 -0.27623455063681 0.358903236754206
outer loop
vertex 27.2742685902295 763.232400781214 6.06212860723285
vertex 26.7722833051941 762.488471930063 4.24255767810574
vertex 27.275631779376 761.782654430647 4.94969878478749
endloop
endfacet
facet normal -0.891562078422941 -0.27623455063681 0.358903236754206
outer loop
vertex 26.7722833051941 762.488471930063 4.24255767810574
vertex 27.2742685902295 763.232400781214 6.06212860723285
vertex 26.7711148573542 763.73111165912 5.19606895448747
endloop
endfacet
facet normal -0.892049465843899 0.172254745109568 -0.417822992755128
outer loop
vertex 26.7666893823781 769.731107033188 -5.19623227786568
vertex 27.2706446520408 768.544130001646 -6.76152539593586
vertex 26.768008624621 768.28402241949 -5.79563447679987
endloop
endfacet
facet normal -0.892049465843899 0.172254745109568 -0.417822992755128
outer loop
vertex 27.2706446520408 768.544130001646 -6.76152539593586
vertex 26.7666893823781 769.731107033188 -5.19623227786568
vertex 27.2691055360907 770.232395384294 -6.06222283051262
endloop
endfacet
facet normal -0.891326609617035 -0.44950583484678 0.0590032153979876
outer loop
vertex 27.2774771009481 759.970922511755 1.81168598123192
vertex 26.7741704752359 760.731113972086 -8.12343926343606e-05
vertex 27.2778334777582 759.732403479674 -4.66131273383352e-05
endloop
endfacet
facet normal -0.891326609617035 -0.44950583484678 0.0590032153979876
outer loop
vertex 26.7741704752359 760.731113972086 -8.12343926343606e-05
vertex 27.2774771009481 759.970922511755 1.81168598123192
vertex 26.7738650093987 760.935558856727 1.55283241791528
endloop
endfacet
facet normal -0.891345784250464 -0.418905837433224 -0.173264515303321
outer loop
vertex 26.774116911361 760.935558856727 -1.5529949158201
vertex 27.2772938860572 760.670224930133 -3.50004531917316
vertex 27.2777709865708 759.970922511755 -1.8117792414594
endloop
endfacet
facet normal -0.891345784250464 -0.418905837433224 -0.173264515303321
outer loop
vertex 27.2772938860572 760.670224930133 -3.50004531917316
vertex 26.774116911361 760.935558856727 -1.5529949158201
vertex 26.7737079680636 761.534960929622 -3.00008012528902
endloop
endfacet
facet normal -0.891505671293243 -0.276232367374834 -0.359045007299195
outer loop
vertex 26.7729715141536 762.488471930063 -4.24272039719549
vertex 27.2752519506888 763.232400781214 -6.06222233200007
vertex 27.2764346898288 761.782654430647 -4.94979230306405
endloop
endfacet
facet normal -0.891505671293243 -0.276232367374834 -0.359045007299195
outer loop
vertex 27.2752519506888 763.232400781214 -6.06222233200007
vertex 26.7729715141536 762.488471930063 -4.24272039719549
vertex 26.7719577377479 763.73111165912 -5.19623185056921
endloop
endfacet
facet normal -0.89241397227135 0.447334601140278 -0.059068237806271
outer loop
vertex 26.7636337644964 772.731104720223 -8.20889855742468e-05
vertex 27.2658970253721 773.493873653753 -1.81178020451169
vertex 26.7639392303336 772.526659835582 -1.55299574129349
endloop
endfacet
facet normal -0.89241397227135 0.447334601140278 -0.059068237806271
outer loop
vertex 27.2658970253721 773.493873653753 -1.81178020451169
vertex 26.7636337644964 772.731104720223 -8.20889855742468e-05
vertex 27.265540648562 773.732392685834 -4.76101524354566e-05
endloop
endfacet
facet normal -0.892423244025861 0.447335185725494 0.0589235533067759
outer loop
vertex 27.2656031397494 773.493873653753 1.81168501817962
vertex 26.7636337644964 772.731104720223 -8.20889855742468e-05
vertex 26.7636873283712 772.526659835582 1.55283159244189
endloop
endfacet
facet normal -0.892423244025861 0.447335185725494 0.0589235533067759
outer loop
vertex 26.7636337644964 772.731104720223 -8.20889855742468e-05
vertex 27.2656031397494 773.493873653753 1.81168501817962
vertex 27.265540648562 773.732392685834 -4.76101524354566e-05
endloop
endfacet
facet normal -0.892367704313739 0.416814762724405 -0.173047201285736
outer loop
vertex 26.7639392303336 772.526659835582 -1.55299574129349
vertex 27.2666479836889 772.794571235375 -3.50004618262223
vertex 26.7645829088908 771.927257762687 -3.00008086538822
endloop
endfacet
facet normal -0.892367704313739 0.416814762724405 -0.173047201285736
outer loop
vertex 27.2666479836889 772.794571235375 -3.50004618262223
vertex 26.7639392303336 772.526659835582 -1.55299574129349
vertex 27.2658970253721 773.493873653753 -1.81178020451169
endloop
endfacet
facet normal -0.891691843193975 -0.173912624168027 0.417899576377295
outer loop
vertex 27.2727294742794 764.920666163862 6.76143117265609
vertex 26.7711148573542 763.73111165912 5.19606895448747
vertex 27.2742685902295 763.232400781214 6.06212860723285
endloop
endfacet
facet normal -0.891691843193975 -0.173912624168027 0.417899576377295
outer loop
vertex 26.7711148573542 763.73111165912 5.19606895448747
vertex 27.2727294742794 764.920666163862 6.76143117265609
vertex 26.7697956151113 765.178196272818 5.79547115342166
endloop
endfacet
facet normal -0.892115115570601 0.172256344519508 0.417682142715283
outer loop
vertex 27.2695478559653 768.544130001646 6.761430914607
vertex 26.7658465019844 769.731107033188 5.196068527191
vertex 26.7670685136992 768.28402241949 5.79547093223674
endloop
endfacet
facet normal -0.892115115570601 0.172256344519508 0.417682142715283
outer loop
vertex 26.7658465019844 769.731107033188 5.196068527191
vertex 27.2695478559653 768.544130001646 6.761430914607
vertex 27.2681221756314 770.232395384294 6.0621281087203
endloop
endfacet
facet normal -0.8914533186474 -0.359803145929452 0.275413646814761
outer loop
vertex 27.275631779376 761.782654430647 4.94969878478749
vertex 26.7732213308415 761.534960929622 2.99991754201001
vertex 27.2767261426313 760.670224930133 3.49995195934246
endloop
endfacet
facet normal -0.8914533186474 -0.359803145929452 0.275413646814761
outer loop
vertex 26.7732213308415 761.534960929622 2.99991754201001
vertex 27.275631779376 761.782654430647 4.94969878478749
vertex 26.7722833051941 762.488471930063 4.24255767810574
endloop
endfacet
facet normal -0.891833751022606 -0.0598242641381148 0.448390028833472
outer loop
vertex 27.2711193197343 766.732398082754 6.99995016687573
vertex 26.7697956151113 765.178196272818 5.79547115342166
vertex 27.2727294742794 764.920666163862 6.76143117265609
endloop
endfacet
facet normal -0.891833751022606 -0.0598242641381148 0.448390028833472
outer loop
vertex 26.7697956151113 765.178196272818 5.79547115342166
vertex 27.2711193197343 766.732398082754 6.99995016687573
vertex 26.768415482644 766.731109346154 5.99991600560993
endloop
endfacet
facet normal -0.891907659835241 0.0582469713166443 -0.448450684757713
outer loop
vertex 26.768008624621 768.28402241949 -5.79563447679987
vertex 27.272254806586 766.732398082754 -7.00004439015551
vertex 26.7693887570883 766.731109346154 -6.00007932898814
endloop
endfacet
facet normal -0.891907659835241 0.0582469713166443 -0.448450684757713
outer loop
vertex 27.272254806586 766.732398082754 -7.00004439015551
vertex 26.768008624621 768.28402241949 -5.79563447679987
vertex 27.2706446520408 768.544130001646 -6.76152539593586
endloop
endfacet
facet normal -0.892179043587145 0.274438262125743 -0.358748093326402
outer loop
vertex 26.7655209345382 770.973746762246 -4.24272100148395
vertex 27.2691055360907 770.232395384294 -6.06222283051262
vertex 26.7666893823781 769.731107033188 -5.19623227786568
endloop
endfacet
facet normal -0.892179043587145 0.274438262125743 -0.358748093326402
outer loop
vertex 27.2691055360907 770.232395384294 -6.06222283051262
vertex 26.7655209345382 770.973746762246 -4.24272100148395
vertex 27.2677423469442 771.682141734861 -4.94979300806726
endloop
endfacet
facet normal -0.999999611216512 -0.000878059569672491 -8.11062036943346e-05
outer loop
vertex 19.7721307195468 762.957855111039 1.0087447466279
vertex 19.7710999902675 764.224963892903 -0.000649227074699893
vertex 19.7723292723409 762.824965936022 -0.000649127372258917
endloop
endfacet
facet normal -0.999999611216512 -0.000878059569672491 -8.11062036943346e-05
outer loop
vertex 19.7710999902675 764.224963892903 -0.000649227074699893
vertex 19.7721307195468 762.957855111039 1.0087447466279
vertex 19.7717123284845 763.347466458421 1.9493500772895
endloop
endfacet
facet normal -0.999999611216512 -0.000878059569672491 -8.11062036943346e-05
outer loop
vertex 19.7710999902675 764.224963892903 -0.000649227074699893
vertex 19.7717123284845 763.347466458421 1.9493500772895
vertex 19.7711026118137 763.967248608707 2.75706616575174
endloop
endfacet
facet normal -0.999999611216512 -0.000878059569672491 -8.11062036943346e-05
outer loop
vertex 19.7710999902675 764.224963892903 -0.000649227074699893
vertex 19.7711026118137 763.967248608707 2.75706616575174
vertex 19.7703431207178 764.774964432594 3.37684849539987
endloop
endfacet
facet normal -0.999999611216512 -0.000878059569672491 -8.11062036943346e-05
outer loop
vertex 19.7710999902675 764.224963892903 -0.000649227074699893
vertex 19.7703431207178 764.774964432594 3.37684849539987
vertex 19.7698268156593 765.474963411035 2.1644141862451
endloop
endfacet
facet normal -0.999999611216512 -0.000878059569672491 -8.11062036943346e-05
outer loop
vertex 19.7698268156593 765.474963411035 2.1644141862451
vertex 19.7703431207178 764.774964432594 3.37684849539987
vertex 19.7694856132599 765.715569431498 3.7664599247071
endloop
endfacet
facet normal -0.999999611216512 -0.000878059569672491 -8.11062036943346e-05
outer loop
vertex 19.7698268156593 765.474963411035 2.1644141862451
vertex 19.7694856132599 765.715569431498 3.7664599247071
vertex 19.7676316667424 767.974962447299 2.16441400820484
endloop
endfacet
facet normal -0.999999611216512 -0.000878059569672491 -8.11062036943346e-05
outer loop
vertex 19.7676316667424 767.974962447299 2.16441400820484
vertex 19.7694856132599 765.715569431498 3.7664599247071
vertex 19.7685885271562 766.724962929167 3.89934907862948
endloop
endfacet
facet normal -0.999999611216512 -0.000878059569672491 -8.11062036943346e-05
outer loop
vertex 19.7676316667424 767.974962447299 2.16441400820484
vertex 19.7685885271562 766.724962929167 3.89934907862948
vertex 19.767712997342 767.734356426835 3.7664597809369
endloop
endfacet
facet normal -0.999999611216512 -0.000878059569672491 -8.11062036943346e-05
outer loop
vertex 19.7676316667424 767.974962447299 2.16441400820484
vertex 19.767712997342 767.734356426835 3.7664597809369
vertex 19.7669186897275 768.674961425739 3.37684821765716
endloop
endfacet
facet normal -0.999999611216512 -0.000878059569672491 -8.11062036943346e-05
outer loop
vertex 19.7676316667424 767.974962447299 2.16441400820484
vertex 19.7669186897275 768.674961425739 3.37684821765716
vertex 19.7667096924336 769.224961965431 -0.000649583155229749
endloop
endfacet
facet normal -0.999999611216512 -0.000878059569672491 -8.11062036943346e-05
outer loop
vertex 19.7667096924336 769.224961965431 -0.000649583155229749
vertex 19.7669186897275 768.674961425739 3.37684821765716
vertex 19.7662597350637 769.482677249626 2.75706577296424
endloop
endfacet
facet normal -0.999999611216512 -0.000878059569672491 -8.11062036943346e-05
outer loop
vertex 19.7667096924336 769.224961965431 -0.000649583155229749
vertex 19.7662597350637 769.482677249626 2.75706577296424
vertex 19.7654804103602 770.624959922311 -0.00064968285767002
endloop
endfacet
facet normal -0.999999611216512 -0.000878059569672491 -8.11062036943346e-05
outer loop
vertex 19.7654804103602 770.624959922311 -0.00064968285767002
vertex 19.7662597350637 769.482677249626 2.75706577296424
vertex 19.7657810400222 770.102459399913 1.94934959622502
endloop
endfacet
facet normal -0.999999611216512 -0.000878059569672491 -8.11062036943346e-05
outer loop
vertex 19.7654804103602 770.624959922311 -0.00064968285767002
vertex 19.7657810400222 770.102459399913 1.94934959622502
vertex 19.7655152268789 770.492070747295 1.0087442100702
endloop
endfacet
facet normal -0.892235410894352 0.274440445432568 0.358606209451205
outer loop
vertex 27.2681221756314 770.232395384294 6.0621281087203
vertex 26.7648327255787 770.973746762246 4.24255707381728
vertex 26.7658465019844 769.731107033188 5.196068527191
endloop
endfacet
facet normal -0.892235410894352 0.274440445432568 0.358606209451205
outer loop
vertex 26.7648327255787 770.973746762246 4.24255707381728
vertex 27.2681221756314 770.232395384294 6.0621281087203
vertex 27.2669394364914 771.682141734861 4.94969807978428
endloop
endfacet
facet normal -0.999999611216512 -0.000878059569672491 -8.11062036915887e-05
outer loop
vertex 19.7710999902675 764.224963892903 -0.000649227074699893
vertex 19.7722944558222 762.957855111039 -1.01004302030013
vertex 19.7723292723409 762.824965936022 -0.000649127372258917
endloop
endfacet
facet normal -0.999999611216512 -0.000878059569672491 -8.11062036915887e-05
outer loop
vertex 19.7722944558222 762.957855111039 -1.01004302030013
vertex 19.7710999902675 764.224963892903 -0.000649227074699893
vertex 19.7720286426789 763.347466458421 -1.95064840645495
endloop
endfacet
facet normal -0.999999611216512 -0.000878059569672491 -8.11062036915887e-05
outer loop
vertex 19.7720286426789 763.347466458421 -1.95064840645495
vertex 19.7710999902675 764.224963892903 -0.000649227074699893
vertex 19.7715499476374 763.967248608707 -2.75836458319416
endloop
endfacet
facet normal -0.999999611216512 -0.000878059569672491 -8.11062036915887e-05
outer loop
vertex 19.7715499476374 763.967248608707 -2.75836458319416
vertex 19.7710999902675 764.224963892903 -0.000649227074699893
vertex 19.7708909929737 764.774964432594 -3.37814702788709
endloop
endfacet
facet normal -0.999999611216512 -0.000878059569672491 -8.11062036915887e-05
outer loop
vertex 19.7708909929737 764.774964432594 -3.37814702788709
vertex 19.7710999902675 764.224963892903 -0.000649227074699893
vertex 19.7701780159587 765.474963411035 -2.16571281843476
endloop
endfacet
facet normal -0.999999611216512 -0.000878059569672491 -8.11062036915887e-05
outer loop
vertex 19.7708909929737 764.774964432594 -3.37814702788709
vertex 19.7701780159587 765.474963411035 -2.16571281843476
vertex 19.7700966853591 765.715569431498 -3.76775859116683
endloop
endfacet
facet normal -0.999999611216512 -0.000878059569672491 -8.11062036915887e-05
outer loop
vertex 19.7700966853591 765.715569431498 -3.76775859116683
vertex 19.7701780159587 765.474963411035 -2.16571281843476
vertex 19.7679828670418 767.974962447298 -2.16571299647503
endloop
endfacet
facet normal -0.999999611216512 -0.000878059569672491 -8.11062036915887e-05
outer loop
vertex 19.7700966853591 765.715569431498 -3.76775859116683
vertex 19.7679828670418 767.974962447298 -2.16571299647503
vertex 19.769221155545 766.724962929167 -3.90064788885941
endloop
endfacet
facet normal -0.999999611216512 -0.000878059569672491 -8.11062036915887e-05
outer loop
vertex 19.769221155545 766.724962929167 -3.90064788885941
vertex 19.7679828670418 767.974962447298 -2.16571299647503
vertex 19.7683240694412 767.734356426835 -3.76775873493703
endloop
endfacet
facet normal -0.999999611216512 -0.000878059569672491 -8.11062036915887e-05
outer loop
vertex 19.7683240694412 767.734356426835 -3.76775873493703
vertex 19.7679828670418 767.974962447298 -2.16571299647503
vertex 19.7674665619833 768.674961425739 -3.3781473056298
endloop
endfacet
facet normal -0.999999611216512 -0.000878059569672491 -8.11062036915887e-05
outer loop
vertex 19.7674665619833 768.674961425739 -3.3781473056298
vertex 19.7679828670418 767.974962447298 -2.16571299647503
vertex 19.7667096924336 769.224961965431 -0.000649583155229749
endloop
endfacet
facet normal -0.999999611216512 -0.000878059569672491 -8.11062036915887e-05
outer loop
vertex 19.7674665619833 768.674961425739 -3.3781473056298
vertex 19.7667096924336 769.224961965431 -0.000649583155229749
vertex 19.7667070708874 769.482677249626 -2.75836497598166
endloop
endfacet
facet normal -0.999999611216512 -0.000878059569672491 -8.11062036915887e-05
outer loop
vertex 19.7667070708874 769.482677249626 -2.75836497598166
vertex 19.7667096924336 769.224961965431 -0.000649583155229749
vertex 19.7654804103602 770.624959922311 -0.00064968285767002
endloop
endfacet
facet normal -0.999999611216512 -0.000878059569672491 -8.11062036915887e-05
outer loop
vertex 19.7667070708874 769.482677249626 -2.75836497598166
vertex 19.7654804103602 770.624959922311 -0.00064968285767002
vertex 19.7660973542166 770.102459399913 -1.95064888751943
endloop
endfacet
facet normal -0.999999611216512 -0.000878059569672491 -8.11062036915887e-05
outer loop
vertex 19.7660973542166 770.102459399913 -1.95064888751943
vertex 19.7654804103602 770.624959922311 -0.00064968285767002
vertex 19.7656789631544 770.492070747295 -1.01004355685783
endloop
endfacet
facet normal -0.891978120974296 0.0582475582310373 0.448310443401988
outer loop
vertex 27.2711193197343 766.732398082754 6.99995016687573
vertex 26.7670685136992 768.28402241949 5.79547093223674
vertex 26.768415482644 766.731109346154 5.99991600560993
endloop
endfacet
facet normal -0.891978120974296 0.0582475582310373 0.448310443401988
outer loop
vertex 26.7670685136992 768.28402241949 5.79547093223674
vertex 27.2711193197343 766.732398082754 6.99995016687573
vertex 27.2695478559653 768.544130001646 6.761430914607
endloop
endfacet
facet normal 8.11062345884643e-05 2.72995781063011e-13 -0.999999996710889
outer loop
vertex 29.2676281499126 767.982992002709 2.16518451715071
vertex 19.7698268156593 765.474963411035 2.1644141862451
vertex 19.7676316667424 767.974962447299 2.16441400820484
endloop
endfacet
facet normal 8.11062345884643e-05 2.72995781063011e-13 -0.999999996710889
outer loop
vertex 19.7698268156593 765.474963411035 2.1644141862451
vertex 29.2676281499126 767.982992002709 2.16518451715071
vertex 29.2698232988295 765.482992966445 2.16518469519098
endloop
endfacet
facet normal 0.000691425726132254 -0.866025094560936 0.500000057521184
outer loop
vertex 29.267979350212 767.982992002709 -2.16494248752915
vertex 19.7667096924336 769.224961965431 -0.000649583155229749
vertex 19.7679828670418 767.974962447298 -2.16571299647503
endloop
endfacet
facet normal 0.000691425726132254 -0.866025094560936 0.500000057521184
outer loop
vertex 19.7667096924336 769.224961965431 -0.000649583155229749
vertex 29.267979350212 767.982992002709 -2.16494248752915
vertex 29.2667061756038 769.232991520841 0.000120925790647147
endloop
endfacet
facet normal 0.000772531960707602 -0.866025094560868 -0.499999938785206
outer loop
vertex 29.2667061756038 769.232991520841 0.000120925790647147
vertex 19.7676316667424 767.974962447299 2.16441400820484
vertex 19.7667096924336 769.224961965431 -0.000649583155229749
endloop
endfacet
facet normal 0.000772531960707602 -0.866025094560868 -0.499999938785206
outer loop
vertex 19.7676316667424 767.974962447299 2.16441400820484
vertex 29.2667061756038 769.232991520841 0.000120925790647147
vertex 29.2676281499126 767.982992002709 2.16518451715071
endloop
endfacet
facet normal -0.000691425726132239 0.866025094560855 -0.500000057521324
outer loop
vertex 19.7698268156593 765.474963411035 2.1644141862451
vertex 29.2710964734377 764.232993448313 0.000121281871177004
vertex 19.7710999902675 764.224963892903 -0.000649227074699893
endloop
endfacet
facet normal -0.000691425726132239 0.866025094560855 -0.500000057521324
outer loop
vertex 29.2710964734377 764.232993448313 0.000121281871177004
vertex 19.7698268156593 765.474963411035 2.1644141862451
vertex 29.2698232988295 765.482992966445 2.16518469519098
endloop
endfacet
facet normal -0.000772531960707669 0.866025094560955 0.499999938785056
outer loop
vertex 19.7710999902675 764.224963892903 -0.000649227074699893
vertex 29.2701744991289 765.482992966445 -2.16494230948889
vertex 19.7701780159587 765.474963411035 -2.16571281843476
endloop
endfacet
facet normal -0.000772531960707669 0.866025094560955 0.499999938785056
outer loop
vertex 29.2701744991289 765.482992966445 -2.16494230948889
vertex 19.7710999902675 764.224963892903 -0.000649227074699893
vertex 29.2710964734377 764.232993448313 0.000121281871177004
endloop
endfacet
facet normal 0.000148916049747616 -0.2588190766385 0.96592580635989
outer loop
vertex 27.2727294742794 764.920666163862 6.76143117265609
vertex 28.2683329519515 766.733273715982 7.00003727607614
vertex 27.2711193197343 766.732398082754 6.99995016687573
endloop
endfacet
facet normal -8.1106236417825e-05 1.65937611508698e-09 0.999999996710889
outer loop
vertex 28.2683329519515 766.733273715982 7.00003727607614
vertex 27.2727294742794 764.920666163862 6.76143117265609
vertex 28.2699431064967 764.92154179709 6.76151828185649
endloop
endfacet
facet normal 0.000368789932532654 -0.500000033250071 0.866025306064386
outer loop
vertex 27.2742685902295 763.232400781214 6.06212860723285
vertex 28.2699431064967 764.92154179709 6.76151828185649
vertex 27.2727294742794 764.920666163862 6.76143117265609
endloop
endfacet
facet normal 0.000148915813445363 -0.258818814019825 0.96592587672836
outer loop
vertex 28.2699431064967 764.92154179709 6.76151828185649
vertex 27.2742685902295 763.232400781214 6.06212860723285
vertex 28.2714822224467 763.233276414442 6.06221571643328
endloop
endfacet
facet normal 0.000563531354942268 -0.707106768952645 0.707106568866223
outer loop
vertex 27.275631779376 761.782654430647 4.94969878478749
vertex 28.2714822224467 763.233276414442 6.06221571643328
vertex 27.2742685902295 763.232400781214 6.06212860723285
endloop
endfacet
facet normal 0.000368789514488735 -0.499999581255301 0.866025567023756
outer loop
vertex 28.2714822224467 763.233276414442 6.06221571643328
vertex 27.275631779376 761.782654430647 4.94969878478749
vertex 28.2728454115932 761.783530063875 4.94978589398792
endloop
endfacet
facet normal 0.000719868544048337 -0.866024844768674 0.500000450032471
outer loop
vertex 28.2739397748485 760.67110056336 3.50003906854288
vertex 27.275631779376 761.782654430647 4.94969878478749
vertex 27.2767261426313 760.670224930133 3.49995195934246
endloop
endfacet
facet normal 0.000563531354942268 -0.707106768952645 0.707106568866223
outer loop
vertex 27.275631779376 761.782654430647 4.94969878478749
vertex 28.2739397748485 760.67110056336 3.50003906854288
vertex 28.2728454115932 761.783530063875 4.94978589398792
endloop
endfacet
facet normal 0.000827148420945604 -0.965925324057676 0.258819597730859
outer loop
vertex 28.2746907331654 759.971798144983 1.81177309043235
vertex 27.2767261426313 760.670224930133 3.49995195934246
vertex 27.2774771009481 759.970922511755 1.81168598123192
endloop
endfacet
facet normal 0.000719869002732986 -0.866025295104069 0.49999967002842
outer loop
vertex 27.2767261426313 760.670224930133 3.49995195934246
vertex 28.2746907331654 759.971798144983 1.81177309043235
vertex 28.2739397748485 760.67110056336 3.50003906854288
endloop
endfacet
facet normal 0.000878059524686449 -0.999999614505487 5.90260786615959e-07
outer loop
vertex 28.2750471099754 759.733279112902 4.04960730854498e-05
vertex 27.2774771009481 759.970922511755 1.81168598123192
vertex 27.2778334777582 759.732403479674 -4.66131273383352e-05
endloop
endfacet
facet normal 0.000827148727639667 -0.965925583802232 0.258818628350627
outer loop
vertex 27.2774771009481 759.970922511755 1.81168598123192
vertex 28.2750471099754 759.733279112902 4.04960730854498e-05
vertex 28.2746907331654 759.971798144983 1.81177309043235
endloop
endfacet
facet normal 0.000869132325457804 -0.965925583579918 -0.258818491601346
outer loop
vertex 28.274984618788 759.971798144983 -1.81169213225897
vertex 27.2778334777582 759.732403479674 -4.66131273383352e-05
vertex 27.2777709865708 759.970922511755 -1.8117792414594
endloop
endfacet
facet normal 0.00087805960888197 -0.999999614505487 -4.47828577197866e-07
outer loop
vertex 27.2778334777582 759.732403479674 -4.66131273383352e-05
vertex 28.274984618788 759.971798144983 -1.81169213225897
vertex 28.2750471099754 759.733279112902 4.04960730854498e-05
endloop
endfacet
facet normal 0.000800975173818632 -0.866025294274383 -0.499999548115535
outer loop
vertex 28.2745075182744 760.67110056336 -3.49995820997274
vertex 27.2777709865708 759.970922511755 -1.8117792414594
vertex 27.2772938860572 760.670224930133 -3.50004531917316
endloop
endfacet
facet normal 0.000869132176265131 -0.96592532427999 -0.25881945932224
outer loop
vertex 27.2777709865708 759.970922511755 -1.8117792414594
vertex 28.2745075182744 760.67110056336 -3.49995820997274
vertex 28.274984618788 759.971798144983 -1.81169213225897
endloop
endfacet
facet normal 0.000678232848862059 -0.707106767293271 -0.707106469810779
outer loop
vertex 28.273648322046 761.783530063875 -4.94970519386363
vertex 27.2772938860572 760.670224930133 -3.50004531917316
vertex 27.2764346898288 761.782654430647 -4.94979230306405
endloop
endfacet
facet normal 0.000800974842884293 -0.866024845598361 -0.50000032524553
outer loop
vertex 27.2772938860572 760.670224930133 -3.50004531917316
vertex 28.273648322046 761.783530063875 -4.94970519386363
vertex 28.2745075182744 760.67110056336 -3.49995820997274
endloop
endfacet
facet normal 0.000509270029060949 -0.50000003076101 -0.86602523628531
outer loop
vertex 28.272465582906 763.233276414442 -6.06213522279965
vertex 27.2764346898288 761.782654430647 -4.94979230306405
vertex 27.2752519506888 763.232400781214 -6.06222233200007
endloop
endfacet
facet normal 0.000678232436530113 -0.707106249908162 -0.707106987196123
outer loop
vertex 27.2764346898288 761.782654430647 -4.94979230306405
vertex 28.272465582906 763.233276414442 -6.06213522279965
vertex 28.273648322046 761.783530063875 -4.94970519386363
endloop
endfacet
facet normal 0.000305601255432134 -0.258819073542068 -0.96592577032539
outer loop
vertex 28.2710399025722 764.92154179709 -6.76143802868636
vertex 27.2752519506888 763.232400781214 -6.06222233200007
vertex 27.2738262703549 764.920666163862 -6.76152513788677
endloop
endfacet
facet normal 0.00050926965748588 -0.499999583744363 -0.866025494370621
outer loop
vertex 27.2752519506888 763.232400781214 -6.06222233200007
vertex 28.2710399025722 764.92154179709 -6.76143802868636
vertex 28.272465582906 763.233276414442 -6.06213522279965
endloop
endfacet
facet normal 8.11062335037642e-05 1.65937333208565e-09 -0.999999996710889
outer loop
vertex 28.2694684388032 766.733273715982 -6.99995728095509
vertex 27.2738262703549 764.920666163862 -6.76152513788677
vertex 27.272254806586 766.732398082754 -7.00004439015551
endloop
endfacet
facet normal 0.000305601035847652 -0.258818817116262 -0.965925839034522
outer loop
vertex 27.2738262703549 764.920666163862 -6.76152513788677
vertex 28.2694684388032 766.733273715982 -6.99995728095509
vertex 28.2710399025722 764.92154179709 -6.76143802868636
endloop
endfacet
facet normal -0.000148916049747617 0.258819076638501 -0.96592580635989
outer loop
vertex 28.267858284258 768.545005634873 -6.76143828673545
vertex 27.272254806586 766.732398082754 -7.00004439015551
vertex 27.2706446520408 768.544130001646 -6.76152539593586
endloop
endfacet
facet normal 8.11062364178244e-05 -1.65937535764225e-09 -0.999999996710889
outer loop
vertex 27.272254806586 766.732398082754 -7.00004439015551
vertex 28.267858284258 768.545005634873 -6.76143828673545
vertex 28.2694684388032 766.733273715982 -6.99995728095509
endloop
endfacet
facet normal -0.000368789932532654 0.500000033250071 -0.866025306064386
outer loop
vertex 28.2663191683079 770.233271017521 -6.0621357213122
vertex 27.2706446520408 768.544130001646 -6.76152539593586
vertex 27.2691055360907 770.232395384294 -6.06222283051262
endloop
endfacet
facet normal -0.000148915813445364 0.258818814019826 -0.96592587672836
outer loop
vertex 27.2706446520408 768.544130001646 -6.76152539593586
vertex 28.2663191683079 770.233271017521 -6.0621357213122
vertex 28.267858284258 768.545005634873 -6.76143828673545
endloop
endfacet
facet normal -0.000563531354942268 0.707106768952645 -0.707106568866223
outer loop
vertex 28.2649559791614 771.683017368088 -4.94970589886684
vertex 27.2691055360907 770.232395384294 -6.06222283051262
vertex 27.2677423469442 771.682141734861 -4.94979300806726
endloop
endfacet
facet normal -0.000368789514488735 0.499999581255301 -0.866025567023756
outer loop
vertex 27.2691055360907 770.232395384294 -6.06222283051262
vertex 28.2649559791614 771.683017368088 -4.94970589886684
vertex 28.2663191683079 770.233271017521 -6.0621357213122
endloop
endfacet
facet normal -0.000719868544048337 0.866024844768674 -0.500000450032471
outer loop
vertex 27.2666479836889 772.794571235375 -3.50004618262223
vertex 28.2649559791614 771.683017368088 -4.94970589886684
vertex 27.2677423469442 771.682141734861 -4.94979300806726
endloop
endfacet
facet normal -0.000563531354942268 0.707106768952645 -0.707106568866223
outer loop
vertex 28.2649559791614 771.683017368088 -4.94970589886684
vertex 27.2666479836889 772.794571235375 -3.50004618262223
vertex 28.2638616159061 772.795446868603 -3.4999590734218
endloop
endfacet
facet normal -0.000827148420945604 0.965925324057676 -0.258819597730858
outer loop
vertex 27.2658970253721 773.493873653753 -1.81178020451169
vertex 28.2638616159061 772.795446868603 -3.4999590734218
vertex 27.2666479836889 772.794571235375 -3.50004618262223
endloop
endfacet
facet normal -0.000719869002732986 0.86602529510407 -0.499999670028419
outer loop
vertex 28.2638616159061 772.795446868603 -3.4999590734218
vertex 27.2658970253721 773.493873653753 -1.81178020451169
vertex 28.2631106575893 773.49474928698 -1.81169309531126
endloop
endfacet
facet normal -0.00087805952468645 0.999999614505487 -5.90260786696159e-07
outer loop
vertex 27.265540648562 773.732392685834 -4.76101524354566e-05
vertex 28.2631106575893 773.49474928698 -1.81169309531126
vertex 27.2658970253721 773.493873653753 -1.81178020451169
endloop
endfacet
facet normal -0.000827148727639667 0.965925583802232 -0.258818628350627
outer loop
vertex 28.2631106575893 773.49474928698 -1.81169309531126
vertex 27.265540648562 773.732392685834 -4.76101524354566e-05
vertex 28.2627542807792 773.733268319061 3.94990479883284e-05
endloop
endfacet
facet normal -0.000869132325457804 0.965925583579918 0.258818491601346
outer loop
vertex 27.2656031397494 773.493873653753 1.81168501817962
vertex 28.2627542807792 773.733268319061 3.94990479883284e-05
vertex 27.265540648562 773.732392685834 -4.76101524354566e-05
endloop
endfacet
facet normal -0.00087805960888197 0.999999614505487 4.47828577117666e-07
outer loop
vertex 28.2627542807792 773.733268319061 3.94990479883284e-05
vertex 27.2656031397494 773.493873653753 1.81168501817962
vertex 28.2628167719666 773.49474928698 1.81177212738005
endloop
endfacet
facet normal -0.000800975173818632 0.866025294274383 0.499999548115536
outer loop
vertex 27.2660802402631 772.794571235375 3.49995109589339
vertex 28.2628167719666 773.49474928698 1.81177212738005
vertex 27.2656031397494 773.493873653753 1.81168501817962
endloop
endfacet
facet normal -0.000869132176265131 0.96592532427999 0.258819459322239
outer loop
vertex 28.2628167719666 773.49474928698 1.81177212738005
vertex 27.2660802402631 772.794571235375 3.49995109589339
vertex 28.2632938724803 772.795446868603 3.50003820509382
endloop
endfacet
facet normal -0.000678232848862058 0.707106767293271 0.70710646981078
outer loop
vertex 27.2669394364914 771.682141734861 4.94969807978428
vertex 28.2632938724803 772.795446868603 3.50003820509382
vertex 27.2660802402631 772.794571235375 3.49995109589339
endloop
endfacet
facet normal -0.000800974842884293 0.866024845598361 0.50000032524553
outer loop
vertex 28.2632938724803 772.795446868603 3.50003820509382
vertex 27.2669394364914 771.682141734861 4.94969807978428
vertex 28.2641530687086 771.683017368088 4.9497851889847
endloop
endfacet
facet normal -0.000509270029060949 0.50000003076101 0.86602523628531
outer loop
vertex 27.2681221756314 770.232395384294 6.0621281087203
vertex 28.2641530687086 771.683017368088 4.9497851889847
vertex 27.2669394364914 771.682141734861 4.94969807978428
endloop
endfacet
facet normal -0.000678232436530113 0.707106249908162 0.707106987196123
outer loop
vertex 28.2641530687086 771.683017368088 4.9497851889847
vertex 27.2681221756314 770.232395384294 6.0621281087203
vertex 28.2653358078487 770.233271017521 6.06221521792072
endloop
endfacet
facet normal -0.000305601255432134 0.258819073542069 0.96592577032539
outer loop
vertex 27.2695478559653 768.544130001646 6.761430914607
vertex 28.2653358078487 770.233271017521 6.06221521792072
vertex 27.2681221756314 770.232395384294 6.0621281087203
endloop
endfacet
facet normal -0.00050926965748588 0.499999583744364 0.866025494370621
outer loop
vertex 28.2653358078487 770.233271017521 6.06221521792072
vertex 27.2695478559653 768.544130001646 6.761430914607
vertex 28.2667614881825 768.545005634873 6.76151802380741
endloop
endfacet
facet normal -8.11062335037648e-05 -1.6593725746417e-09 0.999999996710889
outer loop
vertex 27.2711193197343 766.732398082754 6.99995016687573
vertex 28.2667614881825 768.545005634873 6.76151802380741
vertex 27.2695478559653 768.544130001646 6.761430914607
endloop
endfacet
facet normal -0.000305601035847652 0.258818817116262 0.965925839034522
outer loop
vertex 28.2667614881825 768.545005634873 6.76151802380741
vertex 27.2711193197343 766.732398082754 6.99995016687573
vertex 28.2683329519515 766.733273715982 7.00003727607614
endloop
endfacet
facet normal 0.999999611216512 0.00087805956967592 8.1106203698035e-05
outer loop
vertex 29.2732469840998 761.903367076721 -1.29397327461161
vertex 29.2730370657979 761.903367076721 1.29421617016792
vertex 29.2732916206622 761.73299633952 0.000121459911303401
endloop
endfacet
facet normal 0.999999611216512 0.00087805956967592 8.1106203698035e-05
outer loop
vertex 29.2730370657979 761.903367076721 1.29421617016792
vertex 29.2732469840998 761.903367076721 -1.29397327461161
vertex 29.2729061980187 762.402868804134 -2.49987761583574
endloop
endfacet
facet normal 0.999999611216512 0.00087805956967592 8.1106203698035e-05
outer loop
vertex 29.2730370657979 761.903367076721 1.29421617016792
vertex 29.2729061980187 762.402868804134 -2.49987761583574
vertex 29.2725006670002 762.402868804134 2.5001204402469
endloop
endfacet
facet normal 0.999999611216512 0.00087805956967592 8.1106203698035e-05
outer loop
vertex 29.2725006670002 762.402868804134 2.5001204402469
vertex 29.2729061980187 762.402868804134 -2.49987761583574
vertex 29.272292486427 763.197461304501 -3.53541117575782
endloop
endfacet
facet normal 0.999999611216512 0.00087805956967592 8.1106203698035e-05
outer loop
vertex 29.2725006670002 762.402868804134 2.5001204402469
vertex 29.272292486427 763.197461304501 -3.53541117575782
vertex 29.2717189789606 763.197461304501 3.53565388699336
endloop
endfacet
facet normal 0.999999611216512 0.00087805956967592 8.1106203698035e-05
outer loop
vertex 29.2717189789606 763.197461304501 3.53565388699336
vertex 29.272292486427 763.197461304501 -3.53541117575782
vertex 29.2714476727555 764.232994412049 -4.33000405356927
endloop
endfacet
facet normal 0.999999611216512 0.00087805956967592 8.1106203698035e-05
outer loop
vertex 29.2717189789606 763.197461304501 3.53565388699336
vertex 29.2714476727555 764.232994412049 -4.33000405356927
vertex 29.2710964734377 764.232993448313 0.000121281871177004
endloop
endfacet
facet normal 0.999999611216512 0.00087805956967592 8.1106203698035e-05
outer loop
vertex 29.2710964734377 764.232993448313 0.000121281871177004
vertex 29.2714476727555 764.232994412049 -4.33000405356927
vertex 29.2701744991289 765.482992966445 -2.16494230948889
endloop
endfacet
facet normal 0.999999611216512 0.00087805956967592 8.1106203698035e-05
outer loop
vertex 29.2701744991289 765.482992966445 -2.16494230948889
vertex 29.2714476727555 764.232994412049 -4.33000405356927
vertex 29.2704293296599 765.438898256798 -4.82950605777406
endloop
endfacet
facet normal 0.999999611216512 0.00087805956967592 8.1106203698035e-05
outer loop
vertex 29.2701744991289 765.482992966445 -2.16494230948889
vertex 29.2704293296599 765.438898256798 -4.82950605777406
vertex 29.2693068555392 766.732992484577 -4.99987695225173
endloop
endfacet
facet normal 0.999999611216512 0.00087805956967592 8.1106203698035e-05
outer loop
vertex 29.2701744991289 765.482992966445 -2.16494230948889
vertex 29.2693068555392 766.732992484577 -4.99987695225173
vertex 29.267979350212 767.982992002709 -2.16494248752915
endloop
endfacet
facet normal 0.999999611216512 0.00087805956967592 8.1106203698035e-05
outer loop
vertex 29.267979350212 767.982992002709 -2.16494248752915
vertex 29.2693068555392 766.732992484577 -4.99987695225173
vertex 29.2681567451498 768.027086712357 -4.82950624209483
endloop
endfacet
facet normal 0.999999611216512 0.00087805956967592 8.1106203698035e-05
outer loop
vertex 29.267979350212 767.982992002709 -2.16494248752915
vertex 29.2681567451498 768.027086712357 -4.82950624209483
vertex 29.2667061756038 769.232991520841 0.000120925790647147
endloop
endfacet
facet normal 0.999999611216512 0.00087805956967592 8.1106203698035e-05
outer loop
vertex 29.2667061756038 769.232991520841 0.000120925790647147
vertex 29.2681567451498 768.027086712357 -4.82950624209483
vertex 29.267057376614 769.232990557106 -4.33000440964966
endloop
endfacet
facet normal 0.999999611216512 0.00087805956967592 8.1106203698035e-05
outer loop
vertex 29.2667061756038 769.232991520841 0.000120925790647147
vertex 29.267057376614 769.232990557106 -4.33000440964966
vertex 29.2660836700808 770.268523664654 -3.53541167933154
endloop
endfacet
facet normal 0.999999611216512 0.00087805956967592 8.1106203698035e-05
outer loop
vertex 29.2710964734377 764.232993448313 0.000121281871177004
vertex 29.2707452724274 764.232994412049 4.33024661731148
vertex 29.2717189789606 763.197461304501 3.53565388699336
endloop
endfacet
facet normal 0.999999611216512 0.00087805956967592 8.1106203698035e-05
outer loop
vertex 29.2707452724274 764.232994412049 4.33024661731148
vertex 29.2710964734377 764.232993448313 0.000121281871177004
vertex 29.2698232988295 765.482992966445 2.16518469519098
endloop
endfacet
facet normal 0.999999611216512 0.00087805956967592 8.1106203698035e-05
outer loop
vertex 29.2707452724274 764.232994412049 4.33024661731148
vertex 29.2698232988295 765.482992966445 2.16518469519098
vertex 29.2696459038917 765.438898256798 4.82974844975665
endloop
endfacet
facet normal 0.999999611216512 0.00087805956967592 8.1106203698035e-05
outer loop
vertex 29.2696459038917 765.438898256798 4.82974844975665
vertex 29.2698232988295 765.482992966445 2.16518469519098
vertex 29.2684957935022 766.732992484577 5.00011915991355
endloop
endfacet
facet normal 0.999999611216512 0.00087805956967592 8.1106203698035e-05
outer loop
vertex 29.2684957935022 766.732992484577 5.00011915991355
vertex 29.2698232988295 765.482992966445 2.16518469519098
vertex 29.2676281499126 767.982992002709 2.16518451715071
endloop
endfacet
facet normal 0.999999611216512 0.00087805956967592 8.1106203698035e-05
outer loop
vertex 29.2684957935022 766.732992484577 5.00011915991355
vertex 29.2676281499126 767.982992002709 2.16518451715071
vertex 29.2673733193815 768.027086712357 4.82974826543588
endloop
endfacet
facet normal 0.999999611216512 0.00087805956967592 8.1106203698035e-05
outer loop
vertex 29.2673733193815 768.027086712357 4.82974826543588
vertex 29.2676281499126 767.982992002709 2.16518451715071
vertex 29.2667061756038 769.232991520841 0.000120925790647147
endloop
endfacet
facet normal 0.999999611216512 0.00087805956967592 8.1106203698035e-05
outer loop
vertex 29.2673733193815 768.027086712357 4.82974826543588
vertex 29.2667061756038 769.232991520841 0.000120925790647147
vertex 29.2663549762859 769.232990557106 4.33024626123109
endloop
endfacet
facet normal 0.999999611216512 0.00087805956967592 8.1106203698035e-05
outer loop
vertex 29.2663549762859 769.232990557106 4.33024626123109
vertex 29.2667061756038 769.232991520841 0.000120925790647147
vertex 29.2655101626145 770.268523664654 3.53565338341964
endloop
endfacet
facet normal 0.999999611216512 0.00087805956967592 8.1106203698035e-05
outer loop
vertex 29.2655101626145 770.268523664654 3.53565338341964
vertex 29.2667061756038 769.232991520841 0.000120925790647147
vertex 29.2660836700808 770.268523664654 -3.53541167933154
endloop
endfacet
facet normal 0.999999611216512 0.00087805956967592 8.1106203698035e-05
outer loop
vertex 29.2655101626145 770.268523664654 3.53565338341964
vertex 29.2660836700808 770.268523664654 -3.53541167933154
vertex 29.2653019820413 771.063116165021 -2.49987823258507
endloop
endfacet
facet normal 0.999999611216512 0.00087805956967592 8.1106203698035e-05
outer loop
vertex 29.2655101626145 770.268523664654 3.53565338341964
vertex 29.2653019820413 771.063116165021 -2.49987823258507
vertex 29.2648964510228 771.063116165021 2.50011982349757
endloop
endfacet
facet normal 0.999999611216512 0.00087805956967592 8.1106203698035e-05
outer loop
vertex 29.2648964510228 771.063116165021 2.50011982349757
vertex 29.2653019820413 771.063116165021 -2.49987823258507
vertex 29.2647655832436 771.562617892434 -1.2939739625061
endloop
endfacet
facet normal 0.999999611216512 0.00087805956967592 8.1106203698035e-05
outer loop
vertex 29.2648964510228 771.063116165021 2.50011982349757
vertex 29.2647655832436 771.562617892434 -1.2939739625061
vertex 29.2645556649416 771.562617892434 1.29421548227344
endloop
endfacet
facet normal 0.999999611216512 0.00087805956967592 8.1106203698035e-05
outer loop
vertex 29.2645556649416 771.562617892434 1.29421548227344
vertex 29.2647655832436 771.562617892434 -1.2939739625061
vertex 29.2645110283792 771.732988629634 0.00012074775052075
endloop
endfacet
facet normal -0.000195022131670372 0.130526141902938 0.991444848817271
outer loop
vertex 19.7685885271562 766.724962929167 3.89934907862948
vertex 26.7677102758576 767.740502843823 3.76702752436276
vertex 19.767712997342 767.734356426835 3.7664597809369
endloop
endfacet
facet normal -0.000195022131670372 0.130526141902938 0.991444848817271
outer loop
vertex 26.7677102758576 767.740502843823 3.76702752436276
vertex 19.7685885271562 766.724962929167 3.89934907862948
vertex 26.7685858056717 766.731109346154 3.89991682205534
endloop
endfacet
facet normal -0.000410951239273435 0.382683284842765 0.923879502219326
outer loop
vertex 19.767712997342 767.734356426835 3.7664597809369
vertex 26.766915968243 768.681107842726 3.37741596108302
vertex 19.7669186897275 768.674961425739 3.37684821765716
endloop
endfacet
facet normal -0.000410951239273435 0.382683284842765 0.923879502219326
outer loop
vertex 26.766915968243 768.681107842726 3.37741596108302
vertex 19.767712997342 767.734356426835 3.7664597809369
vertex 26.7677102758576 767.740502843823 3.76702752436276
endloop
endfacet
facet normal -0.000598874699049017 0.60876119433465 0.793353294328161
outer loop
vertex 19.7669186897275 768.674961425739 3.37684821765716
vertex 26.7662570135793 769.488823666614 2.75763351639009
vertex 19.7662597350637 769.482677249626 2.75706577296424
endloop
endfacet
facet normal -0.000598874699049017 0.60876119433465 0.793353294328161
outer loop
vertex 26.7662570135793 769.488823666614 2.75763351639009
vertex 19.7669186897275 768.674961425739 3.37684821765716
vertex 26.766915968243 768.681107842726 3.37741596108302
endloop
endfacet
facet normal 3.41974119167244e-05 -0.130526141902937 0.991444867408406
outer loop
vertex 19.7694856132599 765.715569431498 3.7664599247071
vertex 26.7685858056717 766.731109346154 3.89991682205534
vertex 19.7685885271562 766.724962929167 3.89934907862948
endloop
endfacet
facet normal 3.41974119167244e-05 -0.130526141902937 0.991444867408406
outer loop
vertex 26.7685858056717 766.731109346154 3.89991682205534
vertex 19.7694856132599 765.715569431498 3.7664599247071
vertex 26.7694828917755 765.721715848486 3.76702766813296
endloop
endfacet
facet normal 0.000261086458395707 -0.382683284842797 0.923879556725761
outer loop
vertex 19.7703431207178 764.774964432594 3.37684849539987
vertex 26.7694828917755 765.721715848486 3.76702766813296
vertex 19.7694856132599 765.715569431498 3.7664599247071
endloop
endfacet
facet normal 0.000261086458395707 -0.382683284842797 0.923879556725761
outer loop
vertex 26.7694828917755 765.721715848486 3.76702766813296
vertex 19.7703431207178 764.774964432594 3.37684849539987
vertex 26.7703403992334 764.781110849582 3.37741623882573
endloop
endfacet
facet normal 0.000470182894200651 -0.608761194334608 0.79335338103543
outer loop
vertex 19.7711026118137 763.967248608707 2.75706616575174
vertex 26.7703403992334 764.781110849582 3.37741623882573
vertex 19.7703431207178 764.774964432594 3.37684849539987
endloop
endfacet
facet normal 0.000470182894200651 -0.608761194334608 0.79335338103543
outer loop
vertex 26.7703403992334 764.781110849582 3.37741623882573
vertex 19.7711026118137 763.967248608707 2.75706616575174
vertex 26.7710998903293 763.973395025695 2.75763390917759
endloop
endfacet
facet normal 0.000647237142779875 -0.793353034457979 0.608761483505977
outer loop
vertex 26.7717096070001 763.353612875408 1.94991782071536
vertex 19.7711026118137 763.967248608707 2.75706616575174
vertex 19.7717123284845 763.347466458421 1.9493500772895
endloop
endfacet
facet normal 0.000647237142779875 -0.793353034457979 0.608761483505977
outer loop
vertex 19.7711026118137 763.967248608707 2.75706616575174
vertex 26.7717096070001 763.353612875408 1.94991782071536
vertex 26.7710998903293 763.973395025695 2.75763390917759
endloop
endfacet
facet normal 0.000780183249688531 -0.92387917636092 0.382683496901506
outer loop
vertex 26.7721279980623 762.964001528026 1.00931249005376
vertex 19.7717123284845 763.347466458421 1.9493500772895
vertex 19.7721307195468 762.957855111039 1.0087447466279
endloop
endfacet
facet normal 0.000780183249688531 -0.92387917636092 0.382683496901506
outer loop
vertex 19.7717123284845 763.347466458421 1.9493500772895
vertex 26.7721279980623 762.964001528026 1.00931249005376
vertex 26.7717096070001 763.353612875408 1.94991782071536
endloop
endfacet
facet normal 0.000859961157444661 -0.991444479177387 0.130526262397605
outer loop
vertex 26.7723265508565 762.83111235301 -8.13839463984001e-05
vertex 19.7721307195468 762.957855111039 1.0087447466279
vertex 19.7723292723409 762.824965936022 -0.000649127372258917
endloop
endfacet
facet normal 0.000859961157444661 -0.991444479177387 0.130526262397605
outer loop
vertex 19.7721307195468 762.957855111039 1.0087447466279
vertex 26.7723265508565 762.83111235301 -8.13839463984001e-05
vertex 26.7721279980623 762.964001528026 1.00931249005376
endloop
endfacet
facet normal 0.000881134133474013 -0.991444479177386 -0.130526121183921
outer loop
vertex 26.7722917343378 762.964001528026 -1.00947527687427
vertex 19.7723292723409 762.824965936022 -0.000649127372258917
vertex 19.7722944558222 762.957855111039 -1.01004302030013
endloop
endfacet
facet normal 0.000881134133474013 -0.991444479177386 -0.130526121183921
outer loop
vertex 19.7723292723409 762.824965936022 -0.000649127372258917
vertex 26.7722917343378 762.964001528026 -1.00947527687427
vertex 26.7723265508565 762.83111235301 -8.13839463984001e-05
endloop
endfacet
facet normal 0.00084225927445011 -0.92387917636092 -0.382683365311301
outer loop
vertex 26.7720259211945 763.353612875408 -1.95008066302909
vertex 19.7722944558222 762.957855111039 -1.01004302030013
vertex 19.7720286426789 763.347466458421 -1.95064840645495
endloop
endfacet
facet normal 0.00084225927445011 -0.92387917636092 -0.382683365311301
outer loop
vertex 19.7722944558222 762.957855111039 -1.01004302030013
vertex 26.7720259211945 763.353612875408 -1.95008066302909
vertex 26.7722917343378 762.964001528026 -1.00947527687427
endloop
endfacet
facet normal 0.000745985837771693 -0.79335303445798 -0.608761370506906
outer loop
vertex 26.771547226153 763.973395025695 -2.7577968397683
vertex 19.7720286426789 763.347466458421 -1.95064840645495
vertex 19.7715499476374 763.967248608707 -2.75836458319416
endloop
endfacet
facet normal 0.000745985837771693 -0.79335303445798 -0.608761370506906
outer loop
vertex 19.7720286426789 763.347466458421 -1.95064840645495
vertex 26.771547226153 763.973395025695 -2.7577968397683
vertex 26.7720259211945 763.353612875408 -1.95008066302909
endloop
endfacet
facet normal 0.000598874699049019 -0.608761194334652 -0.793353294328159
outer loop
vertex 26.7708882714893 764.781110849582 -3.37757928446123
vertex 19.7715499476374 763.967248608707 -2.75836458319416
vertex 19.7708909929737 764.774964432594 -3.37814702788709
endloop
endfacet
facet normal 0.000598874699049019 -0.608761194334652 -0.793353294328159
outer loop
vertex 19.7715499476374 763.967248608707 -2.75836458319416
vertex 26.7708882714893 764.781110849582 -3.37757928446123
vertex 26.771547226153 763.973395025695 -2.7577968397683
endloop
endfacet
facet normal 0.000410951239273342 -0.382683284842766 -0.923879502219326
outer loop
vertex 26.7700939638747 765.721715848486 -3.76719084774097
vertex 19.7708909929737 764.774964432594 -3.37814702788709
vertex 19.7700966853591 765.715569431498 -3.76775859116683
endloop
endfacet
facet normal 0.000410951239273342 -0.382683284842766 -0.923879502219326
outer loop
vertex 19.7708909929737 764.774964432594 -3.37814702788709
vertex 26.7700939638747 765.721715848486 -3.76719084774097
vertex 26.7708882714893 764.781110849582 -3.37757928446123
endloop
endfacet
facet normal 0.000195022131670471 -0.130526141902937 -0.991444848817272
outer loop
vertex 26.7692184340605 766.731109346154 -3.90008014543355
vertex 19.7700966853591 765.715569431498 -3.76775859116683
vertex 19.769221155545 766.724962929167 -3.90064788885941
endloop
endfacet
facet normal 0.000195022131670471 -0.130526141902937 -0.991444848817272
outer loop
vertex 19.7700966853591 765.715569431498 -3.76775859116683
vertex 26.7692184340605 766.731109346154 -3.90008014543355
vertex 26.7700939638747 765.721715848486 -3.76719084774097
endloop
endfacet
facet normal -3.41974119165254e-05 0.130526141902937 -0.991444867408406
outer loop
vertex 26.7683213479568 767.740502843823 -3.76719099151117
vertex 19.769221155545 766.724962929167 -3.90064788885941
vertex 19.7683240694412 767.734356426835 -3.76775873493703
endloop
endfacet
facet normal -3.41974119165254e-05 0.130526141902937 -0.991444867408406
outer loop
vertex 19.769221155545 766.724962929167 -3.90064788885941
vertex 26.7683213479568 767.740502843823 -3.76719099151117
vertex 26.7692184340605 766.731109346154 -3.90008014543355
endloop
endfacet
facet normal -0.00026108645839552 0.382683284842796 -0.923879556725761
outer loop
vertex 26.7674638404989 768.681107842726 -3.37757956220394
vertex 19.7683240694412 767.734356426835 -3.76775873493703
vertex 19.7674665619833 768.674961425739 -3.3781473056298
endloop
endfacet
facet normal -0.00026108645839552 0.382683284842796 -0.923879556725761
outer loop
vertex 19.7683240694412 767.734356426835 -3.76775873493703
vertex 26.7674638404989 768.681107842726 -3.37757956220394
vertex 26.7683213479568 767.740502843823 -3.76719099151117
endloop
endfacet
facet normal -0.000470182894200531 0.608761194334609 -0.793353381035429
outer loop
vertex 26.766704349403 769.488823666614 -2.7577972325558
vertex 19.7674665619833 768.674961425739 -3.3781473056298
vertex 19.7667070708874 769.482677249626 -2.75836497598166
endloop
endfacet
facet normal -0.000470182894200531 0.608761194334609 -0.793353381035429
outer loop
vertex 19.7674665619833 768.674961425739 -3.3781473056298
vertex 26.766704349403 769.488823666614 -2.7577972325558
vertex 26.7674638404989 768.681107842726 -3.37757956220394
endloop
endfacet
facet normal -0.000647237142779724 0.79335303445798 -0.608761483505977
outer loop
vertex 19.7660973542166 770.102459399913 -1.95064888751943
vertex 26.766704349403 769.488823666614 -2.7577972325558
vertex 19.7667070708874 769.482677249626 -2.75836497598166
endloop
endfacet
facet normal -0.000647237142779724 0.79335303445798 -0.608761483505977
outer loop
vertex 26.766704349403 769.488823666614 -2.7577972325558
vertex 19.7660973542166 770.102459399913 -1.95064888751943
vertex 26.7660946327322 770.1086058169 -1.95008114409357
endloop
endfacet
facet normal -0.000780183249688454 0.92387917636092 -0.382683496901506
outer loop
vertex 19.7656789631544 770.492070747295 -1.01004355685783
vertex 26.7660946327322 770.1086058169 -1.95008114409357
vertex 19.7660973542166 770.102459399913 -1.95064888751943
endloop
endfacet
facet normal -0.000780183249688454 0.92387917636092 -0.382683496901506
outer loop
vertex 26.7660946327322 770.1086058169 -1.95008114409357
vertex 19.7656789631544 770.492070747295 -1.01004355685783
vertex 26.76567624167 770.498217164282 -1.00947581343197
endloop
endfacet
facet normal -0.000859961157444668 0.991444479177387 -0.130526262397605
outer loop
vertex 19.7654804103602 770.624959922311 -0.00064968285767002
vertex 26.76567624167 770.498217164282 -1.00947581343197
vertex 19.7656789631544 770.492070747295 -1.01004355685783
endloop
endfacet
facet normal -0.000859961157444668 0.991444479177387 -0.130526262397605
outer loop
vertex 26.76567624167 770.498217164282 -1.00947581343197
vertex 19.7654804103602 770.624959922311 -0.00064968285767002
vertex 26.7654776888758 770.631106339299 -8.19394318102073e-05
endloop
endfacet
facet normal -0.000881134133474005 0.991444479177386 0.130526121183921
outer loop
vertex 19.7655152268789 770.492070747295 1.0087442100702
vertex 26.7654776888758 770.631106339299 -8.19394318102073e-05
vertex 19.7654804103602 770.624959922311 -0.00064968285767002
endloop
endfacet
facet normal -0.000881134133474005 0.991444479177386 0.130526121183921
outer loop
vertex 26.7654776888758 770.631106339299 -8.19394318102073e-05
vertex 19.7655152268789 770.492070747295 1.0087442100702
vertex 26.7655125053945 770.498217164282 1.00931195349606
endloop
endfacet
facet normal -0.000745985837771604 0.79335303445798 0.608761370506905
outer loop
vertex 19.7662597350637 769.482677249626 2.75706577296424
vertex 26.7657783185378 770.1086058169 1.94991733965088
vertex 19.7657810400222 770.102459399913 1.94934959622502
endloop
endfacet
facet normal -0.000745985837771604 0.79335303445798 0.608761370506905
outer loop
vertex 26.7657783185378 770.1086058169 1.94991733965088
vertex 19.7662597350637 769.482677249626 2.75706577296424
vertex 26.7662570135793 769.488823666614 2.75763351639009
endloop
endfacet
facet normal -0.000842259274450088 0.92387917636092 0.382683365311301
outer loop
vertex 19.7657810400222 770.102459399913 1.94934959622502
vertex 26.7655125053945 770.498217164282 1.00931195349606
vertex 19.7655152268789 770.492070747295 1.0087442100702
endloop
endfacet
facet normal -0.000842259274450088 0.92387917636092 0.382683365311301
outer loop
vertex 26.7655125053945 770.498217164282 1.00931195349606
vertex 19.7657810400222 770.102459399913 1.94934959622502
vertex 26.7657783185378 770.1086058169 1.94991733965088
endloop
endfacet
facet normal -8.11062345873094e-05 9.54641786618837e-16 0.999999996710889
outer loop
vertex 19.7701780159587 765.474963411035 -2.16571281843476
vertex 29.267979350212 767.982992002709 -2.16494248752915
vertex 19.7679828670418 767.974962447298 -2.16571299647503
endloop
endfacet
facet normal -8.11062345873094e-05 9.54641786618837e-16 0.999999996710889
outer loop
vertex 29.267979350212 767.982992002709 -2.16494248752915
vertex 19.7701780159587 765.474963411035 -2.16571281843476
vertex 29.2701744991289 765.482992966445 -2.16494230948889
endloop
endfacet
facet normal 0.892806540477743 0.0595554384068661 0.446485868798028
outer loop
vertex 29.2673733193815 768.027086712357 4.82974826543588
vertex 28.2683329519515 766.733273715982 7.00003727607614
vertex 29.2684957935022 766.732992484577 5.00011915991355
endloop
endfacet
facet normal 0.892806540477743 0.0595554384068661 0.446485868798028
outer loop
vertex 28.2683329519515 766.733273715982 7.00003727607614
vertex 29.2673733193815 768.027086712357 4.82974826543588
vertex 28.2667614881825 768.545005634873 6.76151802380741
endloop
endfacet
facet normal 0.892736017255512 0.173072885099985 0.416014639090903
outer loop
vertex 29.2663549762859 769.232990557106 4.33024626123109
vertex 28.2667614881825 768.545005634873 6.76151802380741
vertex 29.2673733193815 768.027086712357 4.82974826543588
endloop
endfacet
facet normal 0.892736017255512 0.173072885099985 0.416014639090903
outer loop
vertex 28.2667614881825 768.545005634873 6.76151802380741
vertex 29.2663549762859 769.232990557106 4.33024626123109
vertex 28.2653358078487 770.233271017521 6.06221521792072
endloop
endfacet
facet normal 0.892675353204579 0.274827161642227 0.357212464794773
outer loop
vertex 29.2655101626145 770.268523664654 3.53565338341964
vertex 28.2653358078487 770.233271017521 6.06221521792072
vertex 29.2663549762859 769.232990557106 4.33024626123109
endloop
endfacet
facet normal 0.892675353204579 0.274827161642227 0.357212464794773
outer loop
vertex 28.2653358078487 770.233271017521 6.06221521792072
vertex 29.2655101626145 770.268523664654 3.53565338341964
vertex 28.2641530687086 771.683017368088 4.9497851889847
endloop
endfacet
facet normal 0.892628677101229 0.357893281651869 0.274092035208917
outer loop
vertex 29.2648964510228 771.063116165021 2.50011982349757
vertex 28.2641530687086 771.683017368088 4.9497851889847
vertex 29.2655101626145 770.268523664654 3.53565338341964
endloop
endfacet
facet normal 0.892628677101229 0.357893281651869 0.274092035208917
outer loop
vertex 28.2641530687086 771.683017368088 4.9497851889847
vertex 29.2648964510228 771.063116165021 2.50011982349757
vertex 28.2632938724803 772.795446868603 3.50003820509382
endloop
endfacet
facet normal 0.892599164144335 0.416621273847786 0.172317864269156
outer loop
vertex 29.2645556649416 771.562617892434 1.29421548227344
vertex 28.2632938724803 772.795446868603 3.50003820509382
vertex 29.2648964510228 771.063116165021 2.50011982349757
endloop
endfacet
facet normal 0.892599164144335 0.416621273847786 0.172317864269156
outer loop
vertex 28.2632938724803 772.795446868603 3.50003820509382
vertex 29.2645556649416 771.562617892434 1.29421548227344
vertex 28.2628167719666 773.49474928698 1.81177212738005
endloop
endfacet
facet normal 0.892588821097375 0.447018313570531 0.0588202667841397
outer loop
vertex 29.2645110283792 771.732988629634 0.00012074775052075
vertex 28.2628167719666 773.49474928698 1.81177212738005
vertex 29.2645556649416 771.562617892434 1.29421548227344
endloop
endfacet
facet normal 0.892588821097375 0.447018313570531 0.0588202667841397
outer loop
vertex 28.2628167719666 773.49474928698 1.81177212738005
vertex 29.2645110283792 771.732988629634 0.00012074775052075
vertex 28.2627542807792 773.733268319061 3.94990479883284e-05
endloop
endfacet
facet normal 0.892598350734427 0.447018313571277 -0.0586754769735529
outer loop
vertex 28.2631106575893 773.49474928698 -1.81169309531126
vertex 29.2645110283792 771.732988629634 0.00012074775052075
vertex 29.2647655832436 771.562617892434 -1.2939739625061
endloop
endfacet
facet normal 0.892598350734427 0.447018313571277 -0.0586754769735529
outer loop
vertex 29.2645110283792 771.732988629634 0.00012074775052075
vertex 28.2631106575893 773.49474928698 -1.81169309531126
vertex 28.2627542807792 773.733268319061 3.94990479883284e-05
endloop
endfacet
facet normal 0.892627104506075 0.416621273849822 -0.172173071288318
outer loop
vertex 28.2638616159061 772.795446868603 -3.4999590734218
vertex 29.2647655832436 771.562617892434 -1.2939739625061
vertex 29.2653019820413 771.063116165021 -2.49987823258507
endloop
endfacet
facet normal 0.892627104506075 0.416621273849822 -0.172173071288318
outer loop
vertex 29.2647655832436 771.562617892434 -1.2939739625061
vertex 28.2638616159061 772.795446868603 -3.4999590734218
vertex 28.2631106575893 773.49474928698 -1.81169309531126
endloop
endfacet
facet normal 0.892673126501512 0.35789328165465 -0.273947236103014
outer loop
vertex 28.2649559791614 771.683017368088 -4.94970589886684
vertex 29.2653019820413 771.063116165021 -2.49987823258507
vertex 29.2660836700808 770.268523664654 -3.53541167933154
endloop
endfacet
facet normal 0.892673126501512 0.35789328165465 -0.273947236103014
outer loop
vertex 29.2653019820413 771.063116165021 -2.49987823258507
vertex 28.2649559791614 771.683017368088 -4.94970589886684
vertex 28.2638616159061 772.795446868603 -3.4999590734218
endloop
endfacet
facet normal 0.892733285773852 0.274827161645005 -0.357067657025348
outer loop
vertex 28.2663191683079 770.233271017521 -6.0621357213122
vertex 29.2660836700808 770.268523664654 -3.53541167933154
vertex 29.267057376614 769.232990557106 -4.33000440964966
endloop
endfacet
facet normal 0.892733285773852 0.274827161645005 -0.357067657025348
outer loop
vertex 29.2660836700808 770.268523664654 -3.53541167933154
vertex 28.2663191683079 770.233271017521 -6.0621357213122
vertex 28.2649559791614 771.683017368088 -4.94970589886684
endloop
endfacet
facet normal 0.892803488269507 0.173072885102025 -0.41586982070867
outer loop
vertex 28.267858284258 768.545005634873 -6.76143828673545
vertex 29.267057376614 769.232990557106 -4.33000440964966
vertex 29.2681567451498 768.027086712357 -4.82950624209483
endloop
endfacet
facet normal 0.892803488269507 0.173072885102025 -0.41586982070867
outer loop
vertex 29.267057376614 769.232990557106 -4.33000440964966
vertex 28.267858284258 768.545005634873 -6.76143828673545
vertex 28.2663191683079 770.233271017521 -6.0621357213122
endloop
endfacet
facet normal 0.892878954304032 0.0595554384076071 -0.446341038575904
outer loop
vertex 28.2694684388032 766.733273715982 -6.99995728095509
vertex 29.2681567451498 768.027086712357 -4.82950624209483
vertex 29.2693068555392 766.732992484577 -4.99987695225173
endloop
endfacet
facet normal 0.892878954304032 0.0595554384076071 -0.446341038575904
outer loop
vertex 29.2681567451498 768.027086712357 -4.82950624209483
vertex 28.2694684388032 766.733273715982 -6.99995728095509
vertex 28.267858284258 768.545005634873 -6.76143828673545
endloop
endfacet
facet normal 0.892954543083828 -0.0579945847718096 -0.446395354056353
outer loop
vertex 28.2694684388032 766.733273715982 -6.99995728095509
vertex 29.2704293296599 765.438898256798 -4.82950605777406
vertex 28.2710399025722 764.92154179709 -6.76143802868636
endloop
endfacet
facet normal 0.892954543083828 -0.0579945847718096 -0.446395354056353
outer loop
vertex 29.2704293296599 765.438898256798 -4.82950605777406
vertex 28.2694684388032 766.733273715982 -6.99995728095509
vertex 29.2693068555392 766.732992484577 -4.99987695225173
endloop
endfacet
facet normal 0.893025102481344 -0.171566353074163 -0.416018212138623
outer loop
vertex 28.2710399025722 764.92154179709 -6.76143802868636
vertex 29.2714476727555 764.232994412049 -4.33000405356927
vertex 28.272465582906 763.233276414442 -6.06213522279965
endloop
endfacet
facet normal 0.893025102481344 -0.171566353074163 -0.416018212138623
outer loop
vertex 29.2714476727555 764.232994412049 -4.33000405356927
vertex 28.2710399025722 764.92154179709 -6.76143802868636
vertex 29.2704293296599 765.438898256798 -4.82950605777406
endloop
endfacet
facet normal 0.893085820378068 -0.273414717406514 -0.357270359455061
outer loop
vertex 28.272465582906 763.233276414442 -6.06213522279965
vertex 29.272292486427 763.197461304501 -3.53541117575782
vertex 28.273648322046 761.783530063875 -4.94970519386363
endloop
endfacet
facet normal 0.893085820378068 -0.273414717406514 -0.357270359455061
outer loop
vertex 29.272292486427 763.197461304501 -3.53541117575782
vertex 28.272465582906 763.233276414442 -6.06213522279965
vertex 29.2714476727555 764.232994412049 -4.33000405356927
endloop
endfacet
facet normal 0.893132553569777 -0.356589480644242 -0.274149929870133
outer loop
vertex 28.273648322046 761.783530063875 -4.94970519386363
vertex 29.2729061980187 762.402868804134 -2.49987761583574
vertex 28.2745075182744 760.67110056336 -3.49995820997274
endloop
endfacet
facet normal 0.893132553569777 -0.356589480644242 -0.274149929870133
outer loop
vertex 29.2729061980187 762.402868804134 -2.49987761583574
vertex 28.273648322046 761.783530063875 -4.94970519386363
vertex 29.272292486427 763.197461304501 -3.53541117575782
endloop
endfacet
facet normal 0.89316211156081 -0.415411560640992 -0.172321437314258
outer loop
vertex 28.2745075182744 760.67110056336 -3.49995820997274
vertex 29.2732469840998 761.903367076721 -1.29397327461161
vertex 28.274984618788 759.971798144983 -1.81169213225897
endloop
endfacet
facet normal 0.89316211156081 -0.415411560640992 -0.172321437314258
outer loop
vertex 29.2732469840998 761.903367076721 -1.29397327461161
vertex 28.2745075182744 760.67110056336 -3.49995820997274
vertex 29.2729061980187 762.402868804134 -2.49987761583574
endloop
endfacet
facet normal 0.893172475520842 -0.445862921982594 -0.0587297520266731
outer loop
vertex 28.274984618788 759.971798144983 -1.81169213225897
vertex 29.2732916206622 761.73299633952 0.000121459911303401
vertex 28.2750471099754 759.733279112902 4.04960730854498e-05
endloop
endfacet
facet normal 0.893172475520842 -0.445862921982594 -0.0587297520266731
outer loop
vertex 29.2732916206622 761.73299633952 0.000121459911303401
vertex 28.274984618788 759.971798144983 -1.81169213225897
vertex 29.2732469840998 761.903367076721 -1.29397327461161
endloop
endfacet
facet normal 0.893162937072146 -0.445862921981846 0.0588746349667449
outer loop
vertex 29.2732916206622 761.73299633952 0.000121459911303401
vertex 28.2746907331654 759.971798144983 1.81177309043235
vertex 28.2750471099754 759.733279112902 4.04960730854498e-05
endloop
endfacet
facet normal 0.893162937072146 -0.445862921981846 0.0588746349667449
outer loop
vertex 28.2746907331654 759.971798144983 1.81177309043235
vertex 29.2732916206622 761.73299633952 0.000121459911303401
vertex 29.2730370657979 761.903367076721 1.29421617016792
endloop
endfacet
facet normal 0.893134147125211 -0.415411560638949 0.172466317077958
outer loop
vertex 29.2730370657979 761.903367076721 1.29421617016792
vertex 28.2739397748485 760.67110056336 3.50003906854288
vertex 28.2746907331654 759.971798144983 1.81177309043235
endloop
endfacet
facet normal 0.893134147125211 -0.415411560638949 0.172466317077958
outer loop
vertex 28.2739397748485 760.67110056336 3.50003906854288
vertex 29.2730370657979 761.903367076721 1.29421617016792
vertex 29.2725006670002 762.402868804134 2.5001204402469
endloop
endfacet
facet normal 0.893088071283992 -0.356589480641453 0.274294803498166
outer loop
vertex 29.2725006670002 762.402868804134 2.5001204402469
vertex 28.2728454115932 761.783530063875 4.94978589398792
vertex 28.2739397748485 760.67110056336 3.50003906854288
endloop
endfacet
facet normal 0.893088071283992 -0.356589480641453 0.274294803498166
outer loop
vertex 28.2728454115932 761.783530063875 4.94978589398792
vertex 29.2725006670002 762.402868804134 2.5001204402469
vertex 29.2717189789606 763.197461304501 3.53565388699336
endloop
endfacet
facet normal 0.893027854923296 -0.273414717403727 0.357415224407323
outer loop
vertex 29.2717189789606 763.197461304501 3.53565388699336
vertex 28.2714822224467 763.233276414442 6.06221571643328
vertex 28.2728454115932 761.783530063875 4.94978589398792
endloop
endfacet
facet normal 0.893027854923296 -0.273414717403727 0.357415224407323
outer loop
vertex 28.2714822224467 763.233276414442 6.06221571643328
vertex 29.2717189789606 763.197461304501 3.53565388699336
vertex 29.2707452724274 764.232994412049 4.33024661731148
endloop
endfacet
facet normal 0.892882120445897 -0.0579945847710628 0.446540196539203
outer loop
vertex 29.2696459038917 765.438898256798 4.82974844975665
vertex 28.2683329519515 766.733273715982 7.00003727607614
vertex 28.2699431064967 764.92154179709 6.76151828185649
endloop
endfacet
facet normal 0.892882120445897 -0.0579945847710628 0.446540196539203
outer loop
vertex 28.2683329519515 766.733273715982 7.00003727607614
vertex 29.2696459038917 765.438898256798 4.82974844975665
vertex 29.2684957935022 766.732992484577 5.00011915991355
endloop
endfacet
facet normal 0.892957607393493 -0.171566353072116 0.416163066467488
outer loop
vertex 29.2707452724274 764.232994412049 4.33024661731148
vertex 28.2699431064967 764.92154179709 6.76151828185649
vertex 28.2714822224467 763.233276414442 6.06221571643328
endloop
endfacet
facet normal 0.892957607393493 -0.171566353072116 0.416163066467488
outer loop
vertex 28.2699431064967 764.92154179709 6.76151828185649
vertex 29.2707452724274 764.232994412049 4.33024661731148
vertex 29.2696459038917 765.438898256798 4.82974844975665
endloop
endfacet
facet normal -0.89176327921315 -0.0598236810342804 -0.448530245395467
outer loop
vertex 26.7707357260331 765.178196272818 -5.79563425561494
vertex 27.272254806586 766.732398082754 -7.00004439015551
vertex 27.2738262703549 764.920666163862 -6.76152513788677
endloop
endfacet
facet normal -0.89176327921315 -0.0598236810342804 -0.448530245395467
outer loop
vertex 27.272254806586 766.732398082754 -7.00004439015551
vertex 26.7707357260331 765.178196272818 -5.79563425561494
vertex 26.7693887570883 766.731109346154 -6.00007932898814
endloop
endfacet
facet normal -0.891372997876375 -0.418907436688002 0.173120588447393
outer loop
vertex 27.2767261426313 760.670224930133 3.49995195934246
vertex 26.7738650093987 760.935558856727 1.55283241791528
vertex 27.2774771009481 759.970922511755 1.81168598123192
endloop
endfacet
facet normal -0.891372997876375 -0.418907436688002 0.173120588447393
outer loop
vertex 26.7738650093987 760.935558856727 1.55283241791528
vertex 27.2767261426313 760.670224930133 3.49995195934246
vertex 26.7732213308415 761.534960929622 2.99991754201001
endloop
endfacet
facet normal -0.891317327192122 -0.449505249412796 -0.0591477218279163
outer loop
vertex 26.7741704752359 760.731113972086 -8.12343926343606e-05
vertex 27.2777709865708 759.970922511755 -1.8117792414594
vertex 27.2778334777582 759.732403479674 -4.66131273383352e-05
endloop
endfacet
facet normal -0.891317327192122 -0.449505249412796 -0.0591477218279163
outer loop
vertex 27.2777709865708 759.970922511755 -1.8117792414594
vertex 26.7741704752359 760.731113972086 -8.12343926343606e-05
vertex 26.774116911361 760.935558856727 -1.5529949158201
endloop
endfacet
facet normal -0.892330828767214 0.357849893895804 0.275116603407319
outer loop
vertex 27.2669394364914 771.682141734861 4.94969807978428
vertex 26.7640962716687 771.927257762687 2.99991680191082
vertex 26.7648327255787 770.973746762246 4.24255707381728
endloop
endfacet
facet normal -0.892330828767214 0.357849893895804 0.275116603407319
outer loop
vertex 26.7640962716687 771.927257762687 2.99991680191082
vertex 27.2669394364914 771.682141734861 4.94969807978428
vertex 27.2660802402631 772.794571235375 3.49995109589339
endloop
endfacet
endsolid Delta Dev
