solid Delta v7
facet normal 0.880215115054514 0.28193940789966 0.381747981661669
outer loop
vertex 536.27899828133 577.10362218692 3.89711438000001
vertex 534.481103320882 576.267326210416 8.66025446
vertex 536.403634859861 576.714506663381 3.89711438000001
endloop
endfacet
facet normal 0.989360176790814 0.145486908622218 0.0
outer loop
vertex 535.942656962878 578.70124249604 2.89711384000002
vertex 536.00210134836 578.297000572928 3.89711438000001
vertex 536.00210134836 578.297000572928 2.89711384000002
endloop
endfacet
facet normal 0.989360176790814 0.145486908622218 0.0
outer loop
vertex 536.00210134836 578.297000572928 3.89711438000001
vertex 535.942656962878 578.70124249604 2.89711384000002
vertex 535.942656962878 578.70124249604 3.89711438000001
endloop
endfacet
facet normal 0.691633585584816 0.505098773472563 0.516254019187844
outer loop
vertex 536.00210134836 578.297000572928 3.89711438000001
vertex 532.678226734478 577.980058815336 8.66025446
vertex 533.048206545783 577.473444115548 8.66025446
endloop
endfacet
facet normal -1.0 0.0 0.0
outer loop
vertex 522.871627969006 578.582338465966 9.66025499999998
vertex 522.871627969006 580.332337505966 8.66025446
vertex 522.871627969006 577.832337425966 8.66025446
endloop
endfacet
facet normal -1.0 0.0 0.0
outer loop
vertex 522.871627969006 580.332337505966 8.66025446
vertex 522.871627969006 578.582338465966 9.66025499999998
vertex 522.871627969006 582.082339085966 9.66025499999998
endloop
endfacet
facet normal -1.0 0.0 0.0
outer loop
vertex 522.871627969006 580.332337505966 8.66025446
vertex 522.871627969006 582.082339085966 9.66025499999998
vertex 522.871627969006 582.832337585966 8.66025446
endloop
endfacet
facet normal 0.327848832519558 0.929318679903237 0.1699468569832
outer loop
vertex 535.635007348001 575.780496776601 8.66025446
vertex 536.544113724275 576.330825994047 3.89711438000001
vertex 535.043411618733 575.989202329775 8.66025446
endloop
endfacet
facet normal 0.384110698443606 -0.512148031543215 0.7682209090669
outer loop
vertex 526.871627589006 579.332336965966 8.66025446
vertex 522.871627969006 579.332336965966 10.66025554
vertex 524.871626509006 577.832337425966 8.66025446
endloop
endfacet
facet normal 1.0 0.0 0.0
outer loop
vertex 518.871628349006 580.332337505966 8.66025446
vertex 518.871628349006 578.582338465966 9.66025499999998
vertex 518.871628349006 577.832337425966 8.66025446
endloop
endfacet
facet normal 1.0 0.0 0.0
outer loop
vertex 518.871628349006 578.582338465966 9.66025499999998
vertex 518.871628349006 580.332337505966 8.66025446
vertex 518.871628349006 582.082339085966 9.66025499999998
endloop
endfacet
facet normal 1.0 0.0 0.0
outer loop
vertex 518.871628349006 582.082339085966 9.66025499999998
vertex 518.871628349006 580.332337505966 8.66025446
vertex 518.871628349006 582.832337585966 8.66025446
endloop
endfacet
facet normal 8.15664615627204e-15 1.48798976743249e-14 1.0
outer loop
vertex 546.621628729006 572.332337775966 2.33826880129578
vertex 545.471628729006 575.582337775966 2.33826880129573
vertex 545.471628729006 572.332337775966 2.33826880129578
endloop
endfacet
facet normal 8.15664615627204e-15 1.48798976743249e-14 1.0
outer loop
vertex 545.471628729006 575.582337775966 2.33826880129573
vertex 546.621628729006 572.332337775966 2.33826880129578
vertex 546.621628729006 575.582337775966 2.33826880129573
endloop
endfacet
facet normal 0.0 0.0 1.0
outer loop
vertex 526.410089269006 576.832336885966 8.66025446
vertex 515.871626729006 577.832337425966 8.66025446
vertex 515.871626729006 576.832336885966 8.66025446
endloop
endfacet
facet normal 0.0 0.0 1.0
outer loop
vertex 515.871626729006 577.832337425966 8.66025446
vertex 526.410089269006 576.832336885966 8.66025446
vertex 518.871628349006 577.832337425966 8.66025446
endloop
endfacet
facet normal 0.0 0.0 1.0
outer loop
vertex 518.871628349006 577.832337425966 8.66025446
vertex 526.410089269006 576.832336885966 8.66025446
vertex 522.871627969006 577.832337425966 8.66025446
endloop
endfacet
facet normal 0.0 0.0 1.0
outer loop
vertex 518.871628349006 577.832337425966 8.66025446
vertex 522.871627969006 577.832337425966 8.66025446
vertex 518.871628349006 580.332337505966 8.66025446
endloop
endfacet
facet normal 0.0 0.0 1.0
outer loop
vertex 522.871627969006 577.832337425966 8.66025446
vertex 526.410089269006 576.832336885966 8.66025446
vertex 524.871626509006 577.832337425966 8.66025446
endloop
endfacet
facet normal 0.0 0.0 1.0
outer loop
vertex 524.871626509006 577.832337425966 8.66025446
vertex 526.410089269006 576.832336885966 8.66025446
vertex 526.871627589006 579.332336965966 8.66025446
endloop
endfacet
facet normal 0.0 0.0 1.0
outer loop
vertex 526.871627589006 579.332336965966 8.66025446
vertex 526.410089269006 576.832336885966 8.66025446
vertex 531.871627749006 580.332337505966 8.66025446
endloop
endfacet
facet normal 0.0 0.0 1.0
outer loop
vertex 522.871627969006 580.332337505966 8.66025446
vertex 518.871628349006 580.332337505966 8.66025446
vertex 522.871627969006 577.832337425966 8.66025446
endloop
endfacet
facet normal -0.866025403784434 5.75842357366095e-17 -0.500000000000008
outer loop
vertex 547.771628729006 572.332337775966 6.32198565870414
vertex 548.921628729006 575.582337775966 4.33012722999995
vertex 548.921628729006 572.332337775966 4.33012723
endloop
endfacet
facet normal -0.866025403784434 5.75842357366095e-17 -0.500000000000008
outer loop
vertex 548.921628729006 575.582337775966 4.33012722999995
vertex 547.771628729006 572.332337775966 6.32198565870414
vertex 547.771628729006 575.582337775966 6.32198565870418
endloop
endfacet
facet normal 0.716753541246531 0.197586365935804 -0.668748075964963
outer loop
vertex 536.170413413807 577.497518739218 2.89711384000002
vertex 536.27899828133 577.10362218692 2.89711384000002
vertex 533.774636769723 576.382776273939 0.0
endloop
endfacet
facet normal 0.586563083983768 0.00854666965241144 -0.809858446239405
outer loop
vertex 535.871627369006 580.332337505966 2.89711384000002
vertex 531.881146864609 579.679034870892 0.0
vertex 531.871627749006 580.332337505966 0.0
endloop
endfacet
facet normal 7.2931933558375e-15 1.49952457183123e-14 -1.0
outer loop
vertex 546.621628729006 575.582337775966 6.32198565870418
vertex 545.471628729006 572.332337775966 6.32198565870414
vertex 545.471628729006 575.582337775966 6.32198565870418
endloop
endfacet
facet normal 7.2931933558375e-15 1.49952457183123e-14 -1.0
outer loop
vertex 545.471628729006 572.332337775966 6.32198565870414
vertex 546.621628729006 575.582337775966 6.32198565870418
vertex 546.621628729006 572.332337775966 6.32198565870414
endloop
endfacet
facet normal 0.575032201846342 0.092433411348056 -0.812892386055072
outer loop
vertex 535.871627369006 580.332337505966 2.89711384000002
vertex 531.984841847801 579.033943949379 0.0
vertex 531.881146864609 579.679034870892 0.0
endloop
endfacet
facet normal 0.939037623609239 0.343814399707623 0.0
outer loop
vertex 536.403634859861 576.714506663381 2.89711384000002
vertex 536.544113724275 576.330825994047 3.89711438000001
vertex 536.544113724275 576.330825994047 2.89711384000002
endloop
endfacet
facet normal 0.939037623609239 0.343814399707623 0.0
outer loop
vertex 536.544113724275 576.330825994047 3.89711438000001
vertex 536.403634859861 576.714506663381 2.89711384000002
vertex 536.403634859861 576.714506663381 3.89711438000001
endloop
endfacet
facet normal -2.79553074123162e-30 1.0 -2.26519430651098e-14
outer loop
vertex 546.621628729006 572.332337775966 2.33826880129578
vertex 548.921628729006 572.332337775966 4.33012723
vertex 547.771628729006 572.332337775966 2.33826880129578
endloop
endfacet
facet normal -2.79553074123162e-30 1.0 -2.26519430651098e-14
outer loop
vertex 548.921628729006 572.332337775966 4.33012723
vertex 546.621628729006 572.332337775966 2.33826880129578
vertex 545.471628729006 572.332337775966 2.33826880129578
endloop
endfacet
facet normal -2.79553074123162e-30 1.0 -2.26519430651098e-14
outer loop
vertex 548.921628729006 572.332337775966 4.33012723
vertex 545.471628729006 572.332337775966 2.33826880129578
vertex 544.321628729006 572.332337775966 4.33012723
endloop
endfacet
facet normal -2.79553074123162e-30 1.0 -2.26519430651098e-14
outer loop
vertex 548.921628729006 572.332337775966 4.33012723
vertex 544.321628729006 572.332337775966 4.33012723
vertex 545.471628729006 572.332337775966 6.32198565870414
endloop
endfacet
facet normal -2.79553074123162e-30 1.0 -2.26519430651098e-14
outer loop
vertex 548.921628729006 572.332337775966 4.33012723
vertex 545.471628729006 572.332337775966 6.32198565870414
vertex 547.771628729006 572.332337775966 6.32198565870414
endloop
endfacet
facet normal -2.79553074123162e-30 1.0 -2.26519430651098e-14
outer loop
vertex 547.771628729006 572.332337775966 6.32198565870414
vertex 545.471628729006 572.332337775966 6.32198565870414
vertex 546.621628729006 572.332337775966 6.32198565870414
endloop
endfacet
facet normal 0.431040944703022 0.714952209012803 -0.550497087019759
outer loop
vertex 536.27899828133 577.10362218692 2.89711384000002
vertex 534.334182758399 576.04542892607 0.0
vertex 533.774636769723 576.382776273939 0.0
endloop
endfacet
facet normal 0.678560794237054 0.157444952046417 -0.717472184547582
outer loop
vertex 536.170413413807 577.497518739218 2.89711384000002
vertex 533.269628741403 576.797338498328 0.0
vertex 536.078062710946 577.89553446133 2.89711384000002
endloop
endfacet
facet normal 0.0 0.0 1.0
outer loop
vertex 526.410089269006 576.832336885966 8.66025446
vertex 531.965421585598 579.712058350237 8.66025446
vertex 531.871627749006 580.332337505966 8.66025446
endloop
endfacet
facet normal 0.0 0.0 1.0
outer loop
vertex 531.965421585598 579.712058350237 8.66025446
vertex 526.410089269006 576.832336885966 8.66025446
vertex 532.132901237919 579.107497285602 8.66025446
endloop
endfacet
facet normal 0.0 0.0 1.0
outer loop
vertex 532.132901237919 579.107497285602 8.66025446
vertex 526.410089269006 576.832336885966 8.66025446
vertex 532.371650900237 578.52737478685 8.66025446
endloop
endfacet
facet normal 0.0 0.0 1.0
outer loop
vertex 532.371650900237 578.52737478685 8.66025446
vertex 526.410089269006 576.832336885966 8.66025446
vertex 532.678226734478 577.980058815336 8.66025446
endloop
endfacet
facet normal 0.0 0.0 1.0
outer loop
vertex 532.678226734478 577.980058815336 8.66025446
vertex 526.410089269006 576.832336885966 8.66025446
vertex 537.025473169006 571.532337985966 8.66025446
endloop
endfacet
facet normal 0.0 0.0 1.0
outer loop
vertex 532.678226734478 577.980058815336 8.66025446
vertex 537.025473169006 571.532337985966 8.66025446
vertex 533.048206545783 577.473444115548 8.66025446
endloop
endfacet
facet normal 0.0 0.0 1.0
outer loop
vertex 533.048206545783 577.473444115548 8.66025446
vertex 537.025473169006 571.532337985966 8.66025446
vertex 533.476253570329 577.014838337572 8.66025446
endloop
endfacet
facet normal 0.0 0.0 1.0
outer loop
vertex 533.476253570329 577.014838337572 8.66025446
vertex 537.025473169006 571.532337985966 8.66025446
vertex 533.956193455342 576.6108566281 8.66025446
endloop
endfacet
facet normal 0.0 0.0 1.0
outer loop
vertex 533.956193455342 576.6108566281 8.66025446
vertex 537.025473169006 571.532337985966 8.66025446
vertex 534.481103320882 576.267326210416 8.66025446
endloop
endfacet
facet normal 0.0 0.0 1.0
outer loop
vertex 534.481103320882 576.267326210416 8.66025446
vertex 537.025473169006 571.532337985966 8.66025446
vertex 535.043411618733 575.989202329775 8.66025446
endloop
endfacet
facet normal 0.0 0.0 1.0
outer loop
vertex 535.043411618733 575.989202329775 8.66025446
vertex 537.025473169006 571.532337985966 8.66025446
vertex 535.635007348001 575.780496776601 8.66025446
endloop
endfacet
facet normal 0.0 0.0 1.0
outer loop
vertex 535.635007348001 575.780496776601 8.66025446
vertex 537.025473169006 571.532337985966 8.66025446
vertex 536.247357052029 575.644220018523 8.66025446
endloop
endfacet
facet normal 0.0 0.0 1.0
outer loop
vertex 536.247357052029 575.644220018523 8.66025446
vertex 537.025473169006 571.532337985966 8.66025446
vertex 536.871627909006 575.582337775966 8.66025446
endloop
endfacet
facet normal 0.0 0.0 1.0
outer loop
vertex 536.871627909006 575.582337775966 8.66025446
vertex 537.025473169006 571.532337985966 8.66025446
vertex 548.121628269006 575.582337775966 8.66025446
endloop
endfacet
facet normal 0.0 0.0 1.0
outer loop
vertex 548.121628269006 575.582337775966 8.66025446
vertex 537.025473169006 571.532337985966 8.66025446
vertex 548.121628269006 571.532337985966 8.66025446
endloop
endfacet
facet normal -2.39616920676996e-30 -1.0 -2.26519430651098e-14
outer loop
vertex 548.921628729006 588.332337235967 4.33012723
vertex 546.621628729006 588.332337235967 2.33826880129578
vertex 547.771628729006 588.332337235967 2.33826880129578
endloop
endfacet
facet normal -2.39616920676996e-30 -1.0 -2.26519430651098e-14
outer loop
vertex 546.621628729006 588.332337235967 2.33826880129578
vertex 548.921628729006 588.332337235967 4.33012723
vertex 545.471628729006 588.332337235967 2.33826880129578
endloop
endfacet
facet normal -2.39616920676996e-30 -1.0 -2.26519430651098e-14
outer loop
vertex 545.471628729006 588.332337235967 2.33826880129578
vertex 548.921628729006 588.332337235967 4.33012723
vertex 544.321628729006 588.332337235967 4.33012723
endloop
endfacet
facet normal -2.39616920676996e-30 -1.0 -2.26519430651098e-14
outer loop
vertex 544.321628729006 588.332337235967 4.33012723
vertex 548.921628729006 588.332337235967 4.33012723
vertex 547.771628729006 588.332337235966 6.32198565870414
endloop
endfacet
facet normal -2.39616920676996e-30 -1.0 -2.26519430651098e-14
outer loop
vertex 544.321628729006 588.332337235967 4.33012723
vertex 547.771628729006 588.332337235966 6.32198565870414
vertex 545.471628729006 588.332337235966 6.32198565870414
endloop
endfacet
facet normal -2.39616920676996e-30 -1.0 -2.26519430651098e-14
outer loop
vertex 545.471628729006 588.332337235966 6.32198565870414
vertex 547.771628729006 588.332337235966 6.32198565870414
vertex 546.621628729006 588.332337235966 6.32198565870414
endloop
endfacet
facet normal 0.570180897402051 0.179000551631739 -0.80178085955785
outer loop
vertex 535.907142165942 579.516790001003 2.89711384000002
vertex 532.18054197028 578.410568934946 0.0
vertex 531.984841847801 579.033943949379 0.0
endloop
endfacet
facet normal 0.924158260811871 0.382009828372488 0.0
outer loop
vertex 536.544113724275 576.330825994047 2.89711384000002
vertex 536.700198829873 575.953224872257 3.89711438000001
vertex 536.700198829873 575.953224872257 2.89711384000002
endloop
endfacet
facet normal 0.924158260811871 0.382009828372488 0.0
outer loop
vertex 536.700198829873 575.953224872257 3.89711438000001
vertex 536.544113724275 576.330825994047 2.89711384000002
vertex 536.544113724275 576.330825994047 3.89711438000001
endloop
endfacet
facet normal 0.761608615777708 0.24394886944238 -0.600367608612381
outer loop
vertex 536.27899828133 577.10362218692 2.89711384000002
vertex 536.403634859861 576.714506663381 2.89711384000002
vertex 534.334182758399 576.04542892607 0.0
endloop
endfacet
facet normal 0.347874226822357 0.828026860040555 -0.439721549806381
outer loop
vertex 536.403634859861 576.714506663381 2.89711384000002
vertex 534.936553292993 575.792358410976 0.0
vertex 534.334182758399 576.04542892607 0.0
endloop
endfacet
facet normal 0.0 0.258818308921041 0.965926023548001
outer loop
vertex 531.410089269006 578.582338465966 1.29903727999996
vertex 515.871626729006 580.332337505966 0.83012788
vertex 515.871626729006 578.582338465966 1.29903727999996
endloop
endfacet
facet normal 0.0 0.258818308921041 0.965926023548001
outer loop
vertex 515.871626729006 580.332337505966 0.83012788
vertex 531.410089269006 578.582338465966 1.29903727999996
vertex 531.410089269006 580.332337505966 0.83012788
endloop
endfacet
facet normal 0.238411846237532 0.922443607057274 -0.303739334582759
outer loop
vertex 536.544113724275 576.330825994047 2.89711384000002
vertex 535.569138479307 575.628862451963 0.0
vertex 534.936553292993 575.792358410976 0.0
endloop
endfacet
facet normal 0.810546814840565 0.296769436679462 -0.504917579813547
outer loop
vertex 536.403634859861 576.714506663381 2.89711384000002
vertex 536.544113724275 576.330825994047 2.89711384000002
vertex 534.936553292993 575.792358410976 0.0
endloop
endfacet
facet normal 0.0 0.707106781186548 0.707106781186548
outer loop
vertex 515.871626729006 577.301248825966 2.58012691999999
vertex 531.410089269006 578.582338465966 1.29903727999996
vertex 515.871626729006 578.582338465966 1.29903727999996
endloop
endfacet
facet normal 0.0 0.707106781186548 0.707106781186548
outer loop
vertex 531.410089269006 578.582338465966 1.29903727999996
vertex 515.871626729006 577.301248825966 2.58012691999999
vertex 531.410089269006 577.301248825966 2.58012691999999
endloop
endfacet
facet normal 0.0 0.258818308921087 -0.965926023547988
outer loop
vertex 531.410089269006 580.332337505966 7.83012658
vertex 515.871626729006 578.582338465966 7.36121717999994
vertex 515.871626729006 580.332337505966 7.83012658
endloop
endfacet
facet normal 0.0 0.258818308921087 -0.965926023547988
outer loop
vertex 515.871626729006 578.582338465966 7.36121717999994
vertex 531.410089269006 580.332337505966 7.83012658
vertex 531.410089269006 578.582338465966 7.36121717999994
endloop
endfacet
facet normal 0.0 0.965925673054814 -0.258819616979866
outer loop
vertex 515.871626729006 577.301248825966 6.08012754
vertex 531.410089269006 576.832336885966 4.33012850000001
vertex 515.871626729006 576.832336885966 4.33012850000001
endloop
endfacet
facet normal 0.0 0.965925673054814 -0.258819616979866
outer loop
vertex 531.410089269006 576.832336885966 4.33012850000001
vertex 515.871626729006 577.301248825966 6.08012754
vertex 531.410089269006 577.301248825966 6.08012754
endloop
endfacet
facet normal 0.0 0.965925766969415 0.258819266486378
outer loop
vertex 515.871626729006 576.832336885966 4.33012850000001
vertex 531.410089269006 577.301248825966 2.58012691999999
vertex 515.871626729006 577.301248825966 2.58012691999999
endloop
endfacet
facet normal 0.0 0.965925766969415 0.258819266486378
outer loop
vertex 531.410089269006 577.301248825966 2.58012691999999
vertex 515.871626729006 576.832336885966 4.33012850000001
vertex 531.410089269006 576.832336885966 4.33012850000001
endloop
endfacet
facet normal 0.0 0.707106781186523 -0.707106781186572
outer loop
vertex 531.410089269006 578.582338465966 7.36121717999994
vertex 515.871626729006 577.301248825966 6.08012754
vertex 515.871626729006 578.582338465966 7.36121717999994
endloop
endfacet
facet normal 0.0 0.707106781186523 -0.707106781186572
outer loop
vertex 515.871626729006 577.301248825966 6.08012754
vertex 531.410089269006 578.582338465966 7.36121717999994
vertex 531.410089269006 577.301248825966 6.08012754
endloop
endfacet
facet normal 0.516279292383995 -0.788867826531865 0.333381529959854
outer loop
vertex 533.956193455342 584.053818383832 8.66025446
vertex 536.27899828133 583.561052825012 3.89711438
vertex 534.481103320882 584.397348801517 8.66025446
endloop
endfacet
facet normal 0.347874226822358 -0.828026860040555 -0.439721549806381
outer loop
vertex 536.403634859861 583.950168348552 2.89711384000002
vertex 534.334182758399 584.619246085862 0.0
vertex 534.936553292993 584.872316600957 0.0
endloop
endfacet
facet normal 0.863084131895836 0.237925098802547 0.445508056750279
outer loop
vertex 536.170413413807 577.497518739218 3.89711438000001
vertex 533.956193455342 576.6108566281 8.66025446
vertex 536.27899828133 577.10362218692 3.89711438000001
endloop
endfacet
facet normal -0.0366929385395001 -0.999326587388396 1.15386999941041e-18
outer loop
vertex 536.871627909006 585.082337235966 2.89711384000002
vertex 536.218695916172 585.106311373937 0.0
vertex 536.871627909006 585.082337235966 0.0
endloop
endfacet
facet normal 0.974121887611176 -0.226023335248462 0.0
outer loop
vertex 536.170413413807 583.167156272714 2.89711384000002
vertex 536.078062710946 582.769140550603 3.89711438
vertex 536.078062710946 582.769140550603 2.89711384000002
endloop
endfacet
facet normal 0.974121887611176 -0.226023335248462 0.0
outer loop
vertex 536.078062710946 582.769140550603 3.89711438
vertex 536.170413413807 583.167156272714 2.89711384000002
vertex 536.170413413807 583.167156272714 3.89711438
endloop
endfacet
facet normal 0.863084131895836 0.237925098802547 0.445508056750279
outer loop
vertex 536.170413413807 577.497518739218 3.89711438000001
vertex 533.956193455342 576.6108566281 8.66025446
vertex 536.27899828133 577.10362218692 3.89711438000001
endloop
endfacet
facet normal 0.0 -1.0 0.0
outer loop
vertex 548.121628269006 585.082337235966 0.0
vertex 547.771628729006 585.082337235966 2.33826880129573
vertex 536.871627909006 585.082337235966 0.0
endloop
endfacet
facet normal 0.0 -1.0 0.0
outer loop
vertex 547.771628729006 585.082337235966 2.33826880129573
vertex 548.121628269006 585.082337235966 0.0
vertex 550.121626809006 585.082337235966 3.46410280000003
endloop
endfacet
facet normal 0.0 -1.0 0.0
outer loop
vertex 547.771628729006 585.082337235966 2.33826880129573
vertex 550.121626809006 585.082337235966 3.46410280000003
vertex 548.921628729006 585.082337235966 4.33012722999995
endloop
endfacet
facet normal 0.0 -1.0 0.0
outer loop
vertex 548.921628729006 585.082337235966 4.33012722999995
vertex 550.121626809006 585.082337235966 3.46410280000003
vertex 550.121626809006 585.082337235966 5.19615165999997
endloop
endfacet
facet normal 0.0 -1.0 0.0
outer loop
vertex 548.921628729006 585.082337235966 4.33012722999995
vertex 550.121626809006 585.082337235966 5.19615165999997
vertex 547.771628729006 585.082337235966 6.32198565870418
endloop
endfacet
facet normal 0.0 -1.0 0.0
outer loop
vertex 547.771628729006 585.082337235966 6.32198565870418
vertex 550.121626809006 585.082337235966 5.19615165999997
vertex 548.121628269006 585.082337235966 8.66025446
endloop
endfacet
facet normal 0.0 -1.0 0.0
outer loop
vertex 547.771628729006 585.082337235966 6.32198565870418
vertex 548.121628269006 585.082337235966 8.66025446
vertex 546.621628729006 585.082337235966 6.32198565870418
endloop
endfacet
facet normal 0.0 -1.0 0.0
outer loop
vertex 546.621628729006 585.082337235966 6.32198565870418
vertex 548.121628269006 585.082337235966 8.66025446
vertex 545.471628729006 585.082337235966 6.32198565870418
endloop
endfacet
facet normal 0.0 -1.0 0.0
outer loop
vertex 536.871627909006 585.082337235966 0.0
vertex 545.471628729006 585.082337235966 2.33826880129573
vertex 536.871627909006 585.082337235966 2.89711384000002
endloop
endfacet
facet normal 0.0 -1.0 0.0
outer loop
vertex 545.471628729006 585.082337235966 2.33826880129573
vertex 536.871627909006 585.082337235966 0.0
vertex 546.621628729006 585.082337235966 2.33826880129573
endloop
endfacet
facet normal 0.0 -1.0 0.0
outer loop
vertex 546.621628729006 585.082337235966 2.33826880129573
vertex 536.871627909006 585.082337235966 0.0
vertex 547.771628729006 585.082337235966 2.33826880129573
endloop
endfacet
facet normal 0.0 -1.0 0.0
outer loop
vertex 536.871627909006 585.082337235966 2.89711384000002
vertex 545.471628729006 585.082337235966 2.33826880129573
vertex 544.321628729006 585.082337235966 4.33012722999995
endloop
endfacet
facet normal 0.0 -1.0 0.0
outer loop
vertex 536.871627909006 585.082337235966 2.89711384000002
vertex 544.321628729006 585.082337235966 4.33012722999995
vertex 536.871627909006 585.082337235966 3.89711438
endloop
endfacet
facet normal 0.0 -1.0 0.0
outer loop
vertex 536.871627909006 585.082337235966 3.89711438
vertex 544.321628729006 585.082337235966 4.33012722999995
vertex 536.871627909006 585.082337235966 8.66025446
endloop
endfacet
facet normal 0.0 -1.0 0.0
outer loop
vertex 536.871627909006 585.082337235966 8.66025446
vertex 544.321628729006 585.082337235966 4.33012722999995
vertex 545.471628729006 585.082337235966 6.32198565870418
endloop
endfacet
facet normal 0.0 -1.0 0.0
outer loop
vertex 536.871627909006 585.082337235966 8.66025446
vertex 545.471628729006 585.082337235966 6.32198565870418
vertex 548.121628269006 585.082337235966 8.66025446
endloop
endfacet
facet normal 0.999053167836477 -0.0435059517296168 -1.00407141097597e-18
outer loop
vertex 535.907142165942 581.147885010929 2.89711384000002
vertex 535.871627369006 580.332337505966 3.89711438000001
vertex 535.871627369006 580.332337505966 2.89711384000002
endloop
endfacet
facet normal 0.999053167836477 -0.0435059517296168 -1.00407141097597e-18
outer loop
vertex 535.871627369006 580.332337505966 3.89711438000001
vertex 535.907142165942 581.147885010929 2.89711384000002
vertex 535.907142165942 581.147885010929 3.89711438
endloop
endfacet
facet normal 0.999053167836477 -0.0435059517296168 -1.00407141097597e-18
outer loop
vertex 535.907142165942 581.147885010929 3.89711438
vertex 535.907142165942 581.147885010929 2.89711384000002
vertex 535.942656962878 581.963432515892 2.89711384000002
endloop
endfacet
facet normal 0.999053167836477 -0.0435059517296168 -1.00407141097597e-18
outer loop
vertex 535.907142165942 581.147885010929 3.89711438
vertex 535.942656962878 581.963432515892 2.89711384000002
vertex 535.942656962878 581.963432515892 3.89711438
endloop
endfacet
facet normal 0.810546814840565 -0.296769436679462 -0.504917579813547
outer loop
vertex 534.936553292993 584.872316600957 0.0
vertex 536.544113724275 584.333849017885 2.89711384000002
vertex 536.403634859861 583.950168348552 2.89711384000002
endloop
endfacet
facet normal 0.0 -0.258818308921041 0.965926023548001
outer loop
vertex 531.410089269006 580.332337505966 0.83012788
vertex 515.871626729006 582.082336545966 1.29903727999996
vertex 515.871626729006 580.332337505966 0.83012788
endloop
endfacet
facet normal 0.0 -0.258818308921041 0.965926023548001
outer loop
vertex 515.871626729006 582.082336545966 1.29903727999996
vertex 531.410089269006 580.332337505966 0.83012788
vertex 531.410089269006 582.082336545966 1.29903727999996
endloop
endfacet
facet normal 0.810481702107952 -0.119182558688626 0.573511053295949
outer loop
vertex 532.678226734478 582.684616196596 8.66025446
vertex 535.942656962878 581.963432515892 3.89711438
vertex 536.00210134836 582.367674439005 3.89711438
endloop
endfacet
facet normal 0.866025403784438 -7.52333766272785e-15 0.5
outer loop
vertex 545.471628729006 588.332337235967 2.33826880129578
vertex 544.321628729006 585.082337235966 4.33012722999995
vertex 545.471628729006 585.082337235966 2.33826880129573
endloop
endfacet
facet normal 0.866025403784438 -7.52333766272785e-15 0.5
outer loop
vertex 544.321628729006 585.082337235966 4.33012722999995
vertex 545.471628729006 588.332337235967 2.33826880129578
vertex 544.321628729006 588.332337235967 4.33012723
endloop
endfacet
facet normal 0.608630692923381 -0.0265041525315712 -0.793010850827521
outer loop
vertex 535.942656962878 581.963432515892 2.89711384000002
vertex 535.907142165942 581.147885010929 2.89711384000002
vertex 532.18054197028 582.254106076987 0.0
endloop
endfacet
facet normal 0.0 -0.258818308921086 -0.965926023547988
outer loop
vertex 531.410089269006 582.082336545966 7.36121717999994
vertex 515.871626729006 580.332337505966 7.83012658
vertex 515.871626729006 582.082336545966 7.36121717999994
endloop
endfacet
facet normal 0.0 -0.258818308921086 -0.965926023547988
outer loop
vertex 515.871626729006 580.332337505966 7.83012658
vertex 531.410089269006 582.082336545966 7.36121717999994
vertex 531.410089269006 580.332337505966 7.83012658
endloop
endfacet
facet normal 0.952339134438664 -0.305041264448953 0.0
outer loop
vertex 536.403634859861 583.950168348552 2.89711384000002
vertex 536.27899828133 583.561052825012 3.89711438
vertex 536.27899828133 583.561052825012 2.89711384000002
endloop
endfacet
facet normal 0.952339134438664 -0.305041264448953 0.0
outer loop
vertex 536.27899828133 583.561052825012 3.89711438
vertex 536.403634859861 583.950168348552 2.89711384000002
vertex 536.403634859861 583.950168348552 3.89711438
endloop
endfacet
facet normal -1.71073685779577e-18 0.944911188812036 0.327326817199302
outer loop
vertex 515.871626729006 583.832338125966 8.66025446
vertex 524.871626509006 585.332337665966 4.33012850000001
vertex 515.871626729006 585.332337665966 4.33012850000001
endloop
endfacet
facet normal -1.71073685779577e-18 0.944911188812036 0.327326817199302
outer loop
vertex 524.871626509006 585.332337665966 4.33012850000001
vertex 515.871626729006 583.832338125966 8.66025446
vertex 526.410089269006 583.832338125966 8.66025446
endloop
endfacet
facet normal 0.647570640867434 0.122526775810312 -0.752090057304357
outer loop
vertex 536.078062710946 577.89553446133 2.89711384000002
vertex 532.829730402036 577.280437243492 0.0
vertex 536.00210134836 578.297000572928 2.89711384000002
endloop
endfacet
facet normal 2.2809799444259e-18 0.944911248198438 -0.327326645765464
outer loop
vertex 515.871626729006 585.332337665966 4.33012850000001
vertex 526.410089269006 583.832338125966 0.0
vertex 515.871626729006 583.832338125966 0.0
endloop
endfacet
facet normal 2.2809799444259e-18 0.944911248198438 -0.327326645765464
outer loop
vertex 526.410089269006 583.832338125966 0.0
vertex 515.871626729006 585.332337665966 4.33012850000001
vertex 524.871626509006 585.332337665966 4.33012850000001
endloop
endfacet
facet normal 0.490129999604647 -0.5970625642173 -0.635050295565487
outer loop
vertex 536.170413413807 583.167156272714 2.89711384000002
vertex 533.269628741403 583.867336513605 0.0
vertex 533.774636769723 584.281898737993 0.0
endloop
endfacet
facet normal 0.0 1.0 0.0
outer loop
vertex 537.025473169006 589.132337025966 8.66025446
vertex 548.121628269006 589.132337025966 0.0
vertex 537.025473169006 589.132337025966 0.0
endloop
endfacet
facet normal 0.0 1.0 0.0
outer loop
vertex 548.121628269006 589.132337025966 0.0
vertex 537.025473169006 589.132337025966 8.66025446
vertex 550.121626809006 589.132337025966 3.46410280000003
endloop
endfacet
facet normal 0.0 1.0 0.0
outer loop
vertex 550.121626809006 589.132337025966 3.46410280000003
vertex 537.025473169006 589.132337025966 8.66025446
vertex 550.121626809006 589.132337025966 5.19615165999997
endloop
endfacet
facet normal 0.0 1.0 0.0
outer loop
vertex 550.121626809006 589.132337025966 5.19615165999997
vertex 537.025473169006 589.132337025966 8.66025446
vertex 548.121628269006 589.132337025966 8.66025446
endloop
endfacet
facet normal 0.0 0.0 -1.0
outer loop
vertex 531.871627749006 580.332337505966 0.0
vertex 515.871626729006 576.832336885966 0.0
vertex 515.871626729006 580.332337505966 0.0
endloop
endfacet
facet normal 0.0 0.0 -1.0
outer loop
vertex 515.871626729006 576.832336885966 0.0
vertex 531.871627749006 580.332337505966 0.0
vertex 526.410089269006 576.832336885966 0.0
endloop
endfacet
facet normal 0.0 0.0 -1.0
outer loop
vertex 526.410089269006 576.832336885966 0.0
vertex 531.871627749006 580.332337505966 0.0
vertex 531.881146864609 579.679034870892 0.0
endloop
endfacet
facet normal 0.0 0.0 -1.0
outer loop
vertex 526.410089269006 576.832336885966 0.0
vertex 531.881146864609 579.679034870892 0.0
vertex 531.984841847801 579.033943949379 0.0
endloop
endfacet
facet normal 0.0 0.0 -1.0
outer loop
vertex 526.410089269006 576.832336885966 0.0
vertex 531.984841847801 579.033943949379 0.0
vertex 532.18054197028 578.410568934946 0.0
endloop
endfacet
facet normal 0.0 0.0 -1.0
outer loop
vertex 526.410089269006 576.832336885966 0.0
vertex 532.18054197028 578.410568934946 0.0
vertex 532.464150488104 577.82195942502 0.0
endloop
endfacet
facet normal 0.0 0.0 -1.0
outer loop
vertex 526.410089269006 576.832336885966 0.0
vertex 532.464150488104 577.82195942502 0.0
vertex 532.829730402036 577.280437243492 0.0
endloop
endfacet
facet normal 0.0 0.0 -1.0
outer loop
vertex 526.410089269006 576.832336885966 0.0
vertex 532.829730402036 577.280437243492 0.0
vertex 537.025473169006 571.532337985966 0.0
endloop
endfacet
facet normal 0.0 0.0 -1.0
outer loop
vertex 537.025473169006 571.532337985966 0.0
vertex 532.829730402036 577.280437243492 0.0
vertex 533.269628741403 576.797338498328 0.0
endloop
endfacet
facet normal 0.0 0.0 -1.0
outer loop
vertex 537.025473169006 571.532337985966 0.0
vertex 533.269628741403 576.797338498328 0.0
vertex 533.774636769723 576.382776273939 0.0
endloop
endfacet
facet normal 0.0 0.0 -1.0
outer loop
vertex 537.025473169006 571.532337985966 0.0
vertex 533.774636769723 576.382776273939 0.0
vertex 534.334182758399 576.04542892607 0.0
endloop
endfacet
facet normal 0.0 0.0 -1.0
outer loop
vertex 537.025473169006 571.532337985966 0.0
vertex 534.334182758399 576.04542892607 0.0
vertex 534.936553292993 575.792358410976 0.0
endloop
endfacet
facet normal 0.0 0.0 -1.0
outer loop
vertex 537.025473169006 571.532337985966 0.0
vertex 534.936553292993 575.792358410976 0.0
vertex 535.569138479307 575.628862451963 0.0
endloop
endfacet
facet normal 0.0 0.0 -1.0
outer loop
vertex 537.025473169006 571.532337985966 0.0
vertex 535.569138479307 575.628862451963 0.0
vertex 536.218695916172 575.558363637996 0.0
endloop
endfacet
facet normal 0.0 0.0 -1.0
outer loop
vertex 537.025473169006 571.532337985966 0.0
vertex 536.218695916172 575.558363637996 0.0
vertex 536.871627909006 575.582337775966 0.0
endloop
endfacet
facet normal 0.0 0.0 -1.0
outer loop
vertex 537.025473169006 571.532337985966 0.0
vertex 536.871627909006 575.582337775966 0.0
vertex 548.121628269006 575.582337775966 0.0
endloop
endfacet
facet normal 0.0 0.0 -1.0
outer loop
vertex 537.025473169006 571.532337985966 0.0
vertex 548.121628269006 575.582337775966 0.0
vertex 548.121628269006 571.532337985966 0.0
endloop
endfacet
facet normal 0.866025635887863 0.0 -0.49999959798486
outer loop
vertex 548.121628269006 589.132337025966 0.0
vertex 550.121626809006 585.082337235966 3.46410280000003
vertex 548.121628269006 585.082337235966 0.0
endloop
endfacet
facet normal 0.866025635887863 0.0 -0.49999959798486
outer loop
vertex 550.121626809006 585.082337235966 3.46410280000003
vertex 548.121628269006 589.132337025966 0.0
vertex 550.121626809006 589.132337025966 3.46410280000003
endloop
endfacet
facet normal 0.106651900533117 0.982662420108393 -0.151657311790068
outer loop
vertex 536.700198829873 575.953224872257 2.89711384000002
vertex 536.218695916172 575.558363637996 0.0
vertex 535.569138479307 575.628862451963 0.0
endloop
endfacet
facet normal 0.698263036782397 -0.3911279483218 0.599539539567662
outer loop
vertex 532.678226734478 582.684616196596 8.66025446
vertex 532.371650900237 582.137300225083 8.66025446
vertex 535.907142165942 581.147885010929 3.89711438
endloop
endfacet
facet normal 0.216470842883912 -0.972695993358974 0.0836832043156024
outer loop
vertex 535.635007348001 584.884178235332 8.66025446
vertex 536.700198829873 584.711450139676 3.89711438
vertex 536.247357052029 585.02045499341 8.66025446
endloop
endfacet
facet normal -0.866025403784433 1.53507439332218e-15 -0.500000000000009
outer loop
vertex 547.771628729006 588.332337235966 6.32198565870414
vertex 548.921628729006 585.082337235966 4.33012722999995
vertex 547.771628729006 585.082337235966 6.32198565870418
endloop
endfacet
facet normal -0.866025403784433 1.53507439332218e-15 -0.500000000000009
outer loop
vertex 548.921628729006 585.082337235966 4.33012722999995
vertex 547.771628729006 588.332337235966 6.32198565870414
vertex 548.921628729006 588.332337235967 4.33012723
endloop
endfacet
facet normal 0.880215115054514 -0.281939407899658 0.381747981661669
outer loop
vertex 534.481103320882 584.397348801517 8.66025446
vertex 536.27899828133 583.561052825012 3.89711438
vertex 536.403634859861 583.950168348552 3.89711438
endloop
endfacet
facet normal 0.734313648560803 -0.302207095925997 0.607827555075695
outer loop
vertex 532.371650900237 582.137300225083 8.66025446
vertex 532.132901237919 581.557177726331 8.66025446
vertex 535.907142165942 581.147885010929 3.89711438
endloop
endfacet
facet normal 0.982566528694315 -0.185911314044098 0.0
outer loop
vertex 536.078062710946 582.769140550603 2.89711384000002
vertex 536.00210134836 582.367674439005 3.89711438
vertex 536.00210134836 582.367674439005 2.89711384000002
endloop
endfacet
facet normal 0.982566528694315 -0.185911314044098 0.0
outer loop
vertex 536.00210134836 582.367674439005 3.89711438
vertex 536.078062710946 582.769140550603 2.89711384000002
vertex 536.078062710946 582.769140550603 3.89711438
endloop
endfacet
facet normal 0.844875937791267 -0.196034684939735 0.497749989494631
outer loop
vertex 533.476253570329 583.64983667436 8.66025446
vertex 536.078062710946 582.769140550603 3.89711438
vertex 536.170413413807 583.167156272714 3.89711438
endloop
endfacet
facet normal 0.647134882149468 -0.604013673806925 0.465170856954362
outer loop
vertex 533.476253570329 583.64983667436 8.66025446
vertex 533.048206545783 583.191230896385 8.66025446
vertex 536.078062710946 582.769140550603 3.89711438
endloop
endfacet
facet normal 0.902474599757282 -0.373046675642918 0.215350353110231
outer loop
vertex 535.635007348001 584.884178235332 8.66025446
vertex 536.544113724275 584.333849017885 3.89711438
vertex 536.700198829873 584.711450139676 3.89711438
endloop
endfacet
facet normal 0.428753999682181 -0.866850883866998 0.254439684199491
outer loop
vertex 534.481103320882 584.397348801517 8.66025446
vertex 536.403634859861 583.950168348552 3.89711438
vertex 535.043411618733 584.675472682158 8.66025446
endloop
endfacet
facet normal 0.827027745340065 -0.156481836493473 0.539943092636029
outer loop
vertex 533.048206545783 583.191230896385 8.66025446
vertex 536.00210134836 582.367674439005 3.89711438
vertex 536.078062710946 582.769140550603 3.89711438
endloop
endfacet
facet normal -0.298412515631052 -0.954436991380126 2.64132250546277e-17
outer loop
vertex 537.025473169006 571.532337985966 8.66025446
vertex 524.871626509006 575.332337345966 4.33012850000001
vertex 537.025473169006 571.532337985966 0.0
endloop
endfacet
facet normal 0.0986437704091869 -0.995122809787546 0.0
outer loop
vertex 536.247357052029 585.02045499341 8.66025446
vertex 536.871627909006 585.082337235966 3.89711438
vertex 536.871627909006 585.082337235966 8.66025446
endloop
endfacet
facet normal 0.530206500795969 0.482793552159628 -0.696987412014581
outer loop
vertex 536.078062710946 577.89553446133 2.89711384000002
vertex 533.269628741403 576.797338498328 0.0
vertex 532.829730402036 577.280437243492 0.0
endloop
endfacet
facet normal -0.866025403784438 -7.77300920717503e-15 0.5
outer loop
vertex 548.921628729006 588.332337235967 4.33012723
vertex 547.771628729006 585.082337235966 2.33826880129573
vertex 548.921628729006 585.082337235966 4.33012722999995
endloop
endfacet
facet normal -0.866025403784438 -7.77300920717503e-15 0.5
outer loop
vertex 547.771628729006 585.082337235966 2.33826880129573
vertex 548.921628729006 588.332337235967 4.33012723
vertex 547.771628729006 588.332337235967 2.33826880129578
endloop
endfacet
facet normal 0.716753541246532 -0.197586365935799 -0.668748075964964
outer loop
vertex 533.774636769723 584.281898737993 0.0
vertex 536.27899828133 583.561052825012 2.89711384000002
vertex 536.170413413807 583.167156272714 2.89711384000002
endloop
endfacet
facet normal -9.26050868022382e-41 -1.50398212402557e-14 -1.0
outer loop
vertex 546.621628729006 588.332337235966 6.32198565870414
vertex 545.471628729006 585.082337235966 6.32198565870418
vertex 545.471628729006 588.332337235966 6.32198565870414
endloop
endfacet
facet normal -9.26050868022382e-41 -1.50398212402557e-14 -1.0
outer loop
vertex 545.471628729006 585.082337235966 6.32198565870418
vertex 546.621628729006 588.332337235966 6.32198565870414
vertex 546.621628729006 585.082337235966 6.32198565870418
endloop
endfacet
facet normal 0.591876511627082 -0.0257745551225333 -0.805616451726498
outer loop
vertex 535.907142165942 581.147885010929 2.89711384000002
vertex 535.871627369006 580.332337505966 2.89711384000002
vertex 531.984841847801 581.630731062554 0.0
endloop
endfacet
facet normal 0.431040944703023 -0.714952209012802 -0.550497087019759
outer loop
vertex 536.27899828133 583.561052825012 2.89711384000002
vertex 533.774636769723 584.281898737993 0.0
vertex 534.334182758399 584.619246085862 0.0
endloop
endfacet
facet normal 1.07745841449603e-17 -7.35746920302417e-17 1.0
outer loop
vertex 526.410089269006 583.832338125966 8.66025446
vertex 532.678226734478 582.684616196596 8.66025446
vertex 537.025473169006 589.132337025966 8.66025446
endloop
endfacet
facet normal 1.07745841449603e-17 -7.35746920302417e-17 1.0
outer loop
vertex 532.678226734478 582.684616196596 8.66025446
vertex 526.410089269006 583.832338125966 8.66025446
vertex 532.371650900237 582.137300225083 8.66025446
endloop
endfacet
facet normal 1.07745841449603e-17 -7.35746920302417e-17 1.0
outer loop
vertex 532.371650900237 582.137300225083 8.66025446
vertex 526.410089269006 583.832338125966 8.66025446
vertex 532.132901237919 581.557177726331 8.66025446
endloop
endfacet
facet normal 1.07745841449603e-17 -7.35746920302417e-17 1.0
outer loop
vertex 532.132901237919 581.557177726331 8.66025446
vertex 526.410089269006 583.832338125966 8.66025446
vertex 531.965421585598 580.952616661696 8.66025446
endloop
endfacet
facet normal 1.07745841449603e-17 -7.35746920302417e-17 1.0
outer loop
vertex 531.965421585598 580.952616661696 8.66025446
vertex 526.410089269006 583.832338125966 8.66025446
vertex 531.871627749006 580.332337505966 8.66025446
endloop
endfacet
facet normal 1.07745841449603e-17 -7.35746920302417e-17 1.0
outer loop
vertex 537.025473169006 589.132337025966 8.66025446
vertex 532.678226734478 582.684616196596 8.66025446
vertex 533.048206545783 583.191230896385 8.66025446
endloop
endfacet
facet normal 1.07745841449603e-17 -7.35746920302417e-17 1.0
outer loop
vertex 537.025473169006 589.132337025966 8.66025446
vertex 533.048206545783 583.191230896385 8.66025446
vertex 533.476253570329 583.64983667436 8.66025446
endloop
endfacet
facet normal 1.07745841449603e-17 -7.35746920302417e-17 1.0
outer loop
vertex 537.025473169006 589.132337025966 8.66025446
vertex 533.476253570329 583.64983667436 8.66025446
vertex 533.956193455342 584.053818383832 8.66025446
endloop
endfacet
facet normal 1.07745841449603e-17 -7.35746920302417e-17 1.0
outer loop
vertex 537.025473169006 589.132337025966 8.66025446
vertex 533.956193455342 584.053818383832 8.66025446
vertex 534.481103320882 584.397348801517 8.66025446
endloop
endfacet
facet normal 1.07745841449603e-17 -7.35746920302417e-17 1.0
outer loop
vertex 537.025473169006 589.132337025966 8.66025446
vertex 534.481103320882 584.397348801517 8.66025446
vertex 535.043411618733 584.675472682158 8.66025446
endloop
endfacet
facet normal 1.07745841449603e-17 -7.35746920302417e-17 1.0
outer loop
vertex 537.025473169006 589.132337025966 8.66025446
vertex 535.043411618733 584.675472682158 8.66025446
vertex 535.635007348001 584.884178235332 8.66025446
endloop
endfacet
facet normal 1.07745841449603e-17 -7.35746920302417e-17 1.0
outer loop
vertex 537.025473169006 589.132337025966 8.66025446
vertex 535.635007348001 584.884178235332 8.66025446
vertex 536.247357052029 585.02045499341 8.66025446
endloop
endfacet
facet normal 1.07745841449603e-17 -7.35746920302417e-17 1.0
outer loop
vertex 537.025473169006 589.132337025966 8.66025446
vertex 536.247357052029 585.02045499341 8.66025446
vertex 536.871627909006 585.082337235966 8.66025446
endloop
endfacet
facet normal 1.07745841449603e-17 -7.35746920302417e-17 1.0
outer loop
vertex 537.025473169006 589.132337025966 8.66025446
vertex 536.871627909006 585.082337235966 8.66025446
vertex 548.121628269006 585.082337235966 8.66025446
endloop
endfacet
facet normal 1.07745841449603e-17 -7.35746920302417e-17 1.0
outer loop
vertex 537.025473169006 589.132337025966 8.66025446
vertex 548.121628269006 585.082337235966 8.66025446
vertex 548.121628269006 589.132337025966 8.66025446
endloop
endfacet
facet normal 0.866025635887864 -1.93926667119011e-30 0.49999959798486
outer loop
vertex 550.121626809006 589.132337025966 5.19615165999997
vertex 548.121628269006 585.082337235966 8.66025446
vertex 550.121626809006 585.082337235966 5.19615165999997
endloop
endfacet
facet normal 0.866025635887864 -1.93926667119011e-30 0.49999959798486
outer loop
vertex 548.121628269006 585.082337235966 8.66025446
vertex 550.121626809006 589.132337025966 5.19615165999997
vertex 548.121628269006 589.132337025966 8.66025446
endloop
endfacet
facet normal -1.0 6.00436207495105e-22 7.46569318352809e-15
outer loop
vertex 515.871626729006 577.832337425966 8.66025446
vertex 515.871626729006 576.832336885966 4.33012850000001
vertex 515.871626729006 576.832336885966 8.66025446
endloop
endfacet
facet normal -1.0 6.00436207495105e-22 7.46569318352809e-15
outer loop
vertex 515.871626729006 576.832336885966 4.33012850000001
vertex 515.871626729006 577.832337425966 8.66025446
vertex 515.871626729006 577.301248825966 6.08012754
endloop
endfacet
facet normal -1.0 6.00436207495105e-22 7.46569318352809e-15
outer loop
vertex 515.871626729006 577.301248825966 6.08012754
vertex 515.871626729006 577.832337425966 8.66025446
vertex 515.871626729006 578.582338465966 7.36121717999994
endloop
endfacet
facet normal -1.0 6.00436207495105e-22 7.46569318352809e-15
outer loop
vertex 515.871626729006 578.582338465966 7.36121717999994
vertex 515.871626729006 577.832337425966 8.66025446
vertex 515.871626729006 578.582338465966 9.66025499999998
endloop
endfacet
facet normal -1.0 6.00436207495105e-22 7.46569318352809e-15
outer loop
vertex 515.871626729006 578.582338465966 7.36121717999994
vertex 515.871626729006 578.582338465966 9.66025499999998
vertex 515.871626729006 582.082339085966 9.66025499999998
endloop
endfacet
facet normal -1.0 6.00436207495105e-22 7.46569318352809e-15
outer loop
vertex 515.871626729006 578.582338465966 7.36121717999994
vertex 515.871626729006 582.082339085966 9.66025499999998
vertex 515.871626729006 580.332337505966 7.83012658
endloop
endfacet
facet normal -1.0 6.00436207495105e-22 7.46569318352809e-15
outer loop
vertex 515.871626729006 580.332337505966 7.83012658
vertex 515.871626729006 582.082339085966 9.66025499999998
vertex 515.871626729006 582.082336545966 7.36121717999994
endloop
endfacet
facet normal -1.0 6.00436207495105e-22 7.46569318352809e-15
outer loop
vertex 515.871626729006 582.082336545966 7.36121717999994
vertex 515.871626729006 582.082339085966 9.66025499999998
vertex 515.871626729006 583.363426185966 6.08012754000001
endloop
endfacet
facet normal -1.0 6.00436207495105e-22 7.46569318352809e-15
outer loop
vertex 515.871626729006 583.363426185966 6.08012754000001
vertex 515.871626729006 582.082339085966 9.66025499999998
vertex 515.871626729006 582.832337585966 8.66025446
endloop
endfacet
facet normal -1.0 6.00436207495105e-22 7.46569318352809e-15
outer loop
vertex 515.871626729006 583.363426185966 6.08012754000001
vertex 515.871626729006 582.832337585966 8.66025446
vertex 515.871626729006 583.832338125966 8.66025446
endloop
endfacet
facet normal -1.0 6.00436207495105e-22 7.46569318352809e-15
outer loop
vertex 515.871626729006 583.363426185966 6.08012754000001
vertex 515.871626729006 583.832338125966 8.66025446
vertex 515.871626729006 583.832338125966 4.33012850000001
endloop
endfacet
facet normal -1.0 6.00436207495105e-22 7.46569318352809e-15
outer loop
vertex 515.871626729006 583.832338125966 4.33012850000001
vertex 515.871626729006 583.832338125966 8.66025446
vertex 515.871626729006 585.332337665966 4.33012850000001
endloop
endfacet
facet normal -1.0 6.00436207495105e-22 7.46569318352809e-15
outer loop
vertex 515.871626729006 583.832338125966 4.33012850000001
vertex 515.871626729006 585.332337665966 4.33012850000001
vertex 515.871626729006 583.832338125966 0.0
endloop
endfacet
facet normal -1.0 6.00436207495105e-22 7.46569318352809e-15
outer loop
vertex 515.871626729006 576.832336885966 8.66025446
vertex 515.871626729006 576.832336885966 0.0
vertex 515.871626729006 575.332337345966 4.33012850000001
endloop
endfacet
facet normal -1.0 6.00436207495105e-22 7.46569318352809e-15
outer loop
vertex 515.871626729006 576.832336885966 0.0
vertex 515.871626729006 576.832336885966 8.66025446
vertex 515.871626729006 576.832336885966 4.33012850000001
endloop
endfacet
facet normal -1.0 6.00436207495105e-22 7.46569318352809e-15
outer loop
vertex 515.871626729006 576.832336885966 0.0
vertex 515.871626729006 576.832336885966 4.33012850000001
vertex 515.871626729006 577.301248825966 2.58012691999999
endloop
endfacet
facet normal -1.0 6.00436207495105e-22 7.46569318352809e-15
outer loop
vertex 515.871626729006 576.832336885966 0.0
vertex 515.871626729006 577.301248825966 2.58012691999999
vertex 515.871626729006 578.582338465966 1.29903727999996
endloop
endfacet
facet normal -1.0 6.00436207495105e-22 7.46569318352809e-15
outer loop
vertex 515.871626729006 576.832336885966 0.0
vertex 515.871626729006 578.582338465966 1.29903727999996
vertex 515.871626729006 580.332337505966 0.0
endloop
endfacet
facet normal -1.0 6.00436207495105e-22 7.46569318352809e-15
outer loop
vertex 515.871626729006 580.332337505966 0.0
vertex 515.871626729006 578.582338465966 1.29903727999996
vertex 515.871626729006 580.332337505966 0.83012788
endloop
endfacet
facet normal -1.0 6.00436207495105e-22 7.46569318352809e-15
outer loop
vertex 515.871626729006 580.332337505966 0.0
vertex 515.871626729006 580.332337505966 0.83012788
vertex 515.871626729006 582.082336545966 1.29903727999996
endloop
endfacet
facet normal -1.0 6.00436207495105e-22 7.46569318352809e-15
outer loop
vertex 515.871626729006 580.332337505966 0.0
vertex 515.871626729006 582.082336545966 1.29903727999996
vertex 515.871626729006 583.832338125966 0.0
endloop
endfacet
facet normal -1.0 6.00436207495105e-22 7.46569318352809e-15
outer loop
vertex 515.871626729006 583.832338125966 0.0
vertex 515.871626729006 582.082336545966 1.29903727999996
vertex 515.871626729006 583.363426185966 2.58012691999999
endloop
endfacet
facet normal -1.0 6.00436207495105e-22 7.46569318352809e-15
outer loop
vertex 515.871626729006 583.832338125966 0.0
vertex 515.871626729006 583.363426185966 2.58012691999999
vertex 515.871626729006 583.832338125966 4.33012850000001
endloop
endfacet
facet normal 0.623489081929014 0.0916850114018018 -0.776437520602635
outer loop
vertex 536.00210134836 578.297000572928 2.89711384000002
vertex 532.464150488104 577.82195942502 0.0
vertex 535.942656962878 578.70124249604 2.89711384000002
endloop
endfacet
facet normal 0.821804602483237 0.0357872759106909 0.568644411051635
outer loop
vertex 535.907142165942 579.516790001003 3.89711438000001
vertex 532.678226734478 577.980058815336 8.66025446
vertex 535.942656962878 578.70124249604 3.89711438000001
endloop
endfacet
facet normal 0.907726047634632 0.41956337119154 0.0
outer loop
vertex 536.700198829873 575.953224872257 2.89711384000002
vertex 536.871627909006 575.582337775966 3.89711438000001
vertex 536.871627909006 575.582337775966 2.89711384000002
endloop
endfacet
facet normal 0.907726047634632 0.41956337119154 0.0
outer loop
vertex 536.871627909006 575.582337775966 3.89711438000001
vertex 536.700198829873 575.953224872257 2.89711384000002
vertex 536.700198829873 575.953224872257 3.89711438000001
endloop
endfacet
facet normal 0.964040442955124 0.265755572560368 0.0
outer loop
vertex 536.170413413807 577.497518739218 2.89711384000002
vertex 536.27899828133 577.10362218692 3.89711438000001
vertex 536.27899828133 577.10362218692 2.89711384000002
endloop
endfacet
facet normal 0.964040442955124 0.265755572560368 0.0
outer loop
vertex 536.27899828133 577.10362218692 3.89711438000001
vertex 536.170413413807 577.497518739218 2.89711384000002
vertex 536.170413413807 577.497518739218 3.89711438000001
endloop
endfacet
facet normal -0.404481541860813 -0.810137309144843 0.42434917535616
outer loop
vertex 526.410089269006 576.832336885966 8.66025446
vertex 524.871626509006 575.332337345966 4.33012850000001
vertex 537.025473169006 571.532337985966 8.66025446
endloop
endfacet
facet normal 0.90193331466493 0.416885890932476 0.112793837770366
outer loop
vertex 536.700198829873 575.953224872257 3.89711438000001
vertex 536.247357052029 575.644220018523 8.66025446
vertex 536.871627909006 575.582337775966 3.89711438000001
endloop
endfacet
facet normal 0.939037623609239 -0.343814399707623 0.0
outer loop
vertex 536.544113724275 584.333849017885 2.89711384000002
vertex 536.403634859861 583.950168348552 3.89711438
vertex 536.403634859861 583.950168348552 2.89711384000002
endloop
endfacet
facet normal 0.939037623609239 -0.343814399707623 0.0
outer loop
vertex 536.403634859861 583.950168348552 3.89711438
vertex 536.544113724275 584.333849017885 2.89711384000002
vertex 536.544113724275 584.333849017885 3.89711438
endloop
endfacet
facet normal 0.821804602483237 0.0357872759106909 0.568644411051635
outer loop
vertex 535.907142165942 579.516790001003 3.89711438000001
vertex 532.678226734478 577.980058815336 8.66025446
vertex 535.942656962878 578.70124249604 3.89711438000001
endloop
endfacet
facet normal 6.13036191858234e-16 -1.52748184471342e-14 1.0
outer loop
vertex 547.771628729006 585.082337235966 2.33826880129573
vertex 546.621628729006 588.332337235967 2.33826880129578
vertex 546.621628729006 585.082337235966 2.33826880129573
endloop
endfacet
facet normal 6.13036191858234e-16 -1.52748184471342e-14 1.0
outer loop
vertex 546.621628729006 588.332337235967 2.33826880129578
vertex 547.771628729006 585.082337235966 2.33826880129573
vertex 547.771628729006 588.332337235967 2.33826880129578
endloop
endfacet
facet normal 0.924158260811871 -0.382009828372488 0.0
outer loop
vertex 536.700198829873 584.711450139676 2.89711384000002
vertex 536.544113724275 584.333849017885 3.89711438
vertex 536.544113724275 584.333849017885 2.89711384000002
endloop
endfacet
facet normal 0.924158260811871 -0.382009828372488 0.0
outer loop
vertex 536.544113724275 584.333849017885 3.89711438
vertex 536.700198829873 584.711450139676 2.89711384000002
vertex 536.700198829873 584.711450139676 3.89711438
endloop
endfacet
facet normal 0.327848832519558 -0.929318679903237 0.1699468569832
outer loop
vertex 535.043411618733 584.675472682158 8.66025446
vertex 536.544113724275 584.333849017885 3.89711438
vertex 535.635007348001 584.884178235332 8.66025446
endloop
endfacet
facet normal 0.572942061643101 -0.276059503221221 -0.771704959606588
outer loop
vertex 535.942656962878 581.963432515892 2.89711384000002
vertex 532.18054197028 582.254106076987 0.0
vertex 532.464150488104 582.842715586913 0.0
endloop
endfacet
facet normal 0.857000336212478 0.354249445397035 -0.374242907972339
outer loop
vertex 536.544113724275 576.330825994047 2.89711384000002
vertex 536.700198829873 575.953224872257 2.89711384000002
vertex 535.569138479307 575.628862451963 0.0
endloop
endfacet
facet normal 0.691633585584816 -0.505098773472565 0.516254019187844
outer loop
vertex 533.048206545783 583.191230896385 8.66025446
vertex 532.678226734478 582.684616196596 8.66025446
vertex 536.00210134836 582.367674439005 3.89711438
endloop
endfacet
facet normal 0.106651900533117 -0.982662420108393 -0.151657311790068
outer loop
vertex 536.700198829873 584.711450139676 2.89711384000002
vertex 535.569138479307 585.03581255997 0.0
vertex 536.218695916172 585.106311373937 0.0
endloop
endfacet
facet normal -0.298412515631052 0.954436991380126 -1.62779887728418e-17
outer loop
vertex 537.025473169006 589.132337025966 8.66025446
vertex 537.025473169006 589.132337025966 0.0
vertex 524.871626509006 585.332337665966 4.33012850000001
endloop
endfacet
facet normal 0.530206500795969 -0.482793552159627 -0.696987412014581
outer loop
vertex 536.078062710946 582.769140550603 2.89711384000002
vertex 532.829730402036 583.384237768441 0.0
vertex 533.269628741403 583.867336513605 0.0
endloop
endfacet
facet normal 0.623489081929014 -0.0916850114018018 -0.776437520602635
outer loop
vertex 536.00210134836 582.367674439005 2.89711384000002
vertex 535.942656962878 581.963432515892 2.89711384000002
vertex 532.464150488104 582.842715586913 0.0
endloop
endfacet
facet normal 0.821804602483237 -0.0357872759106918 0.568644411051635
outer loop
vertex 532.678226734478 582.684616196596 8.66025446
vertex 535.907142165942 581.147885010929 3.89711438
vertex 535.942656962878 581.963432515892 3.89711438
endloop
endfacet
facet normal 0.907726047634632 -0.41956337119154 0.0
outer loop
vertex 536.871627909006 585.082337235966 2.89711384000002
vertex 536.700198829873 584.711450139676 3.89711438
vertex 536.700198829873 584.711450139676 2.89711384000002
endloop
endfacet
facet normal 0.907726047634632 -0.41956337119154 0.0
outer loop
vertex 536.700198829873 584.711450139676 3.89711438
vertex 536.871627909006 585.082337235966 2.89711384000002
vertex 536.871627909006 585.082337235966 3.89711438
endloop
endfacet
facet normal 0.964040442955124 -0.265755572560368 0.0
outer loop
vertex 536.27899828133 583.561052825012 2.89711384000002
vertex 536.170413413807 583.167156272714 3.89711438
vertex 536.170413413807 583.167156272714 2.89711384000002
endloop
endfacet
facet normal 0.964040442955124 -0.265755572560368 0.0
outer loop
vertex 536.170413413807 583.167156272714 3.89711438
vertex 536.27899828133 583.561052825012 2.89711384000002
vertex 536.27899828133 583.561052825012 3.89711438
endloop
endfacet
facet normal -0.404481541860813 0.810137309144843 0.42434917535616
outer loop
vertex 537.025473169006 589.132337025966 8.66025446
vertex 524.871626509006 585.332337665966 4.33012850000001
vertex 526.410089269006 583.832338125966 8.66025446
endloop
endfacet
facet normal 0.90193331466493 -0.416885890932476 0.112793837770366
outer loop
vertex 536.871627909006 585.082337235966 3.89711438
vertex 536.247357052029 585.02045499341 8.66025446
vertex 536.700198829873 584.711450139676 3.89711438
endloop
endfacet
facet normal 0.857000336212478 -0.354249445397035 -0.374242907972339
outer loop
vertex 535.569138479307 585.03581255997 0.0
vertex 536.700198829873 584.711450139676 2.89711384000002
vertex 536.544113724275 584.333849017885 2.89711384000002
endloop
endfacet
facet normal 0.556440865059827 -0.375651470052332 -0.741120460342982
outer loop
vertex 536.00210134836 582.367674439005 2.89711384000002
vertex 532.464150488104 582.842715586913 0.0
vertex 532.829730402036 583.384237768441 0.0
endloop
endfacet
facet normal 0.757465008339558 -0.209838151450653 0.618235158606275
outer loop
vertex 532.132901237919 581.557177726331 8.66025446
vertex 531.965421585598 580.952616661696 8.66025446
vertex 535.907142165942 581.147885010929 3.89711438
endloop
endfacet
facet normal 0.589049107165496 -0.699804357800503 0.404097773009155
outer loop
vertex 533.476253570329 583.64983667436 8.66025446
vertex 536.170413413807 583.167156272714 3.89711438
vertex 533.956193455342 584.053818383832 8.66025446
endloop
endfacet
facet normal 0.89422761920769 -0.327407895455962 0.305222926791622
outer loop
vertex 535.043411618733 584.675472682158 8.66025446
vertex 536.403634859861 583.950168348552 3.89711438
vertex 536.544113724275 584.333849017885 3.89711438
endloop
endfacet
facet normal 0.767534752774084 -0.116060693826795 0.630412816043954
outer loop
vertex 535.907142165942 581.147885010929 3.89711438
vertex 531.965421585598 580.952616661696 8.66025446
vertex 531.871627749006 580.332337505966 8.66025446
endloop
endfacet
facet normal 0.866025403784434 4.59210858346312e-18 -0.500000000000008
outer loop
vertex 544.321628729006 588.332337235967 4.33012723
vertex 545.471628729006 585.082337235966 6.32198565870418
vertex 544.321628729006 585.082337235966 4.33012722999995
endloop
endfacet
facet normal 0.866025403784434 4.59210858346312e-18 -0.500000000000008
outer loop
vertex 545.471628729006 585.082337235966 6.32198565870418
vertex 544.321628729006 588.332337235967 4.33012723
vertex 545.471628729006 588.332337235966 6.32198565870414
endloop
endfacet
facet normal 1.0 0.0 0.0
outer loop
vertex 550.121626809006 589.132337025966 3.46410280000003
vertex 550.121626809006 585.082337235966 5.19615165999997
vertex 550.121626809006 585.082337235966 3.46410280000003
endloop
endfacet
facet normal 1.0 0.0 0.0
outer loop
vertex 550.121626809006 585.082337235966 5.19615165999997
vertex 550.121626809006 589.132337025966 3.46410280000003
vertex 550.121626809006 589.132337025966 5.19615165999997
endloop
endfacet
facet normal 0.0 -0.707106781186523 -0.707106781186572
outer loop
vertex 531.410089269006 583.363426185966 6.08012754000001
vertex 515.871626729006 582.082336545966 7.36121717999994
vertex 515.871626729006 583.363426185966 6.08012754000001
endloop
endfacet
facet normal 0.0 -0.707106781186523 -0.707106781186572
outer loop
vertex 515.871626729006 582.082336545966 7.36121717999994
vertex 531.410089269006 583.363426185966 6.08012754000001
vertex 531.410089269006 582.082336545966 7.36121717999994
endloop
endfacet
facet normal 0.863084131895837 -0.237925098802543 0.445508056750278
outer loop
vertex 533.956193455342 584.053818383832 8.66025446
vertex 536.170413413807 583.167156272714 3.89711438
vertex 536.27899828133 583.561052825012 3.89711438
endloop
endfacet
facet normal 0.647570640867434 -0.122526775810312 -0.752090057304356
outer loop
vertex 536.078062710946 582.769140550603 2.89711384000002
vertex 536.00210134836 582.367674439005 2.89711384000002
vertex 532.829730402036 583.384237768441 0.0
endloop
endfacet
facet normal 0.0 0.0 -1.0
outer loop
vertex 526.410089269006 583.832338125966 0.0
vertex 515.871626729006 580.332337505966 0.0
vertex 515.871626729006 583.832338125966 0.0
endloop
endfacet
facet normal 0.0 0.0 -1.0
outer loop
vertex 515.871626729006 580.332337505966 0.0
vertex 526.410089269006 583.832338125966 0.0
vertex 531.871627749006 580.332337505966 0.0
endloop
endfacet
facet normal 0.0 0.0 -1.0
outer loop
vertex 531.871627749006 580.332337505966 0.0
vertex 526.410089269006 583.832338125966 0.0
vertex 531.881146864609 580.985640141041 0.0
endloop
endfacet
facet normal 0.0 0.0 -1.0
outer loop
vertex 531.881146864609 580.985640141041 0.0
vertex 526.410089269006 583.832338125966 0.0
vertex 531.984841847801 581.630731062554 0.0
endloop
endfacet
facet normal 0.0 0.0 -1.0
outer loop
vertex 531.984841847801 581.630731062554 0.0
vertex 526.410089269006 583.832338125966 0.0
vertex 532.18054197028 582.254106076987 0.0
endloop
endfacet
facet normal 0.0 0.0 -1.0
outer loop
vertex 532.18054197028 582.254106076987 0.0
vertex 526.410089269006 583.832338125966 0.0
vertex 532.464150488104 582.842715586913 0.0
endloop
endfacet
facet normal 0.0 0.0 -1.0
outer loop
vertex 532.464150488104 582.842715586913 0.0
vertex 526.410089269006 583.832338125966 0.0
vertex 532.829730402036 583.384237768441 0.0
endloop
endfacet
facet normal 0.0 0.0 -1.0
outer loop
vertex 532.829730402036 583.384237768441 0.0
vertex 526.410089269006 583.832338125966 0.0
vertex 537.025473169006 589.132337025966 0.0
endloop
endfacet
facet normal 0.0 0.0 -1.0
outer loop
vertex 532.829730402036 583.384237768441 0.0
vertex 537.025473169006 589.132337025966 0.0
vertex 533.269628741403 583.867336513605 0.0
endloop
endfacet
facet normal 0.0 0.0 -1.0
outer loop
vertex 533.269628741403 583.867336513605 0.0
vertex 537.025473169006 589.132337025966 0.0
vertex 533.774636769723 584.281898737993 0.0
endloop
endfacet
facet normal 0.0 0.0 -1.0
outer loop
vertex 533.774636769723 584.281898737993 0.0
vertex 537.025473169006 589.132337025966 0.0
vertex 534.334182758399 584.619246085862 0.0
endloop
endfacet
facet normal 0.0 0.0 -1.0
outer loop
vertex 534.334182758399 584.619246085862 0.0
vertex 537.025473169006 589.132337025966 0.0
vertex 534.936553292993 584.872316600957 0.0
endloop
endfacet
facet normal 0.0 0.0 -1.0
outer loop
vertex 534.936553292993 584.872316600957 0.0
vertex 537.025473169006 589.132337025966 0.0
vertex 535.569138479307 585.03581255997 0.0
endloop
endfacet
facet normal 0.0 0.0 -1.0
outer loop
vertex 535.569138479307 585.03581255997 0.0
vertex 537.025473169006 589.132337025966 0.0
vertex 536.218695916172 585.106311373937 0.0
endloop
endfacet
facet normal 0.0 0.0 -1.0
outer loop
vertex 536.218695916172 585.106311373937 0.0
vertex 537.025473169006 589.132337025966 0.0
vertex 536.871627909006 585.082337235966 0.0
endloop
endfacet
facet normal 0.0 0.0 -1.0
outer loop
vertex 536.871627909006 585.082337235966 0.0
vertex 537.025473169006 589.132337025966 0.0
vertex 548.121628269006 585.082337235966 0.0
endloop
endfacet
facet normal 0.0 0.0 -1.0
outer loop
vertex 548.121628269006 585.082337235966 0.0
vertex 537.025473169006 589.132337025966 0.0
vertex 548.121628269006 589.132337025966 0.0
endloop
endfacet
facet normal 0.765361597794732 -0.0333293420223752 0.642736944310385
outer loop
vertex 535.907142165942 581.147885010929 3.89711438
vertex 531.871627749006 580.332337505966 8.66025446
vertex 535.871627369006 580.332337505966 3.89711438000001
endloop
endfacet
facet normal 0.888696422152026 -0.410767618507347 -0.203687586366945
outer loop
vertex 536.218695916172 585.106311373937 0.0
vertex 536.871627909006 585.082337235966 2.89711384000002
vertex 536.700198829873 584.711450139676 2.89711384000002
endloop
endfacet
facet normal -0.404481584585443 0.810137394718134 -0.424348971261347
outer loop
vertex 524.871626509006 585.332337665966 4.33012850000001
vertex 537.025473169006 589.132337025966 0.0
vertex 526.410089269006 583.832338125966 0.0
endloop
endfacet
facet normal 0.556440865059827 0.375651470052332 -0.741120460342982
outer loop
vertex 536.00210134836 578.297000572928 2.89711384000002
vertex 532.829730402036 577.280437243492 0.0
vertex 532.464150488104 577.82195942502 0.0
endloop
endfacet
facet normal 0.761608615777708 -0.24394886944238 -0.60036760861238
outer loop
vertex 534.334182758399 584.619246085862 0.0
vertex 536.403634859861 583.950168348552 2.89711384000002
vertex 536.27899828133 583.561052825012 2.89711384000002
endloop
endfacet
facet normal 9.19554287787351e-16 -1.51573198436947e-14 1.0
outer loop
vertex 546.621628729006 585.082337235966 2.33826880129573
vertex 545.471628729006 588.332337235967 2.33826880129578
vertex 545.471628729006 585.082337235966 2.33826880129573
endloop
endfacet
facet normal 9.19554287787351e-16 -1.51573198436947e-14 1.0
outer loop
vertex 545.471628729006 588.332337235967 2.33826880129578
vertex 546.621628729006 585.082337235966 2.33826880129573
vertex 546.621628729006 588.332337235967 2.33826880129578
endloop
endfacet
facet normal 0.0 -0.707106781186548 0.707106781186548
outer loop
vertex 531.410089269006 583.363426185966 2.58012691999999
vertex 515.871626729006 582.082336545966 1.29903727999996
vertex 531.410089269006 582.082336545966 1.29903727999996
endloop
endfacet
facet normal 0.0 -0.707106781186548 0.707106781186548
outer loop
vertex 515.871626729006 582.082336545966 1.29903727999996
vertex 531.410089269006 583.363426185966 2.58012691999999
vertex 515.871626729006 583.363426185966 2.58012691999999
endloop
endfacet
facet normal 0.989360176790814 -0.145486908622218 0.0
outer loop
vertex 536.00210134836 582.367674439005 2.89711384000002
vertex 535.942656962878 581.963432515892 3.89711438
vertex 535.942656962878 581.963432515892 2.89711384000002
endloop
endfacet
facet normal 0.989360176790814 -0.145486908622218 0.0
outer loop
vertex 535.942656962878 581.963432515892 3.89711438
vertex 536.00210134836 582.367674439005 2.89711384000002
vertex 536.00210134836 582.367674439005 3.89711438
endloop
endfacet
facet normal -1.0 0.0 0.0
outer loop
vertex 531.410089269006 577.301248825966 6.08012754
vertex 531.410089269006 577.301248825966 2.58012691999999
vertex 531.410089269006 576.832336885966 4.33012850000001
endloop
endfacet
facet normal -1.0 0.0 0.0
outer loop
vertex 531.410089269006 577.301248825966 2.58012691999999
vertex 531.410089269006 577.301248825966 6.08012754
vertex 531.410089269006 578.582338465966 7.36121717999994
endloop
endfacet
facet normal -1.0 0.0 0.0
outer loop
vertex 531.410089269006 577.301248825966 2.58012691999999
vertex 531.410089269006 578.582338465966 7.36121717999994
vertex 531.410089269006 578.582338465966 1.29903727999996
endloop
endfacet
facet normal -1.0 0.0 0.0
outer loop
vertex 531.410089269006 578.582338465966 1.29903727999996
vertex 531.410089269006 578.582338465966 7.36121717999994
vertex 531.410089269006 580.332337505966 7.83012658
endloop
endfacet
facet normal -1.0 0.0 0.0
outer loop
vertex 531.410089269006 578.582338465966 1.29903727999996
vertex 531.410089269006 580.332337505966 7.83012658
vertex 531.410089269006 580.332337505966 0.83012788
endloop
endfacet
facet normal -1.0 0.0 0.0
outer loop
vertex 531.410089269006 580.332337505966 0.83012788
vertex 531.410089269006 580.332337505966 7.83012658
vertex 531.410089269006 582.082336545966 7.36121717999994
endloop
endfacet
facet normal -1.0 0.0 0.0
outer loop
vertex 531.410089269006 580.332337505966 0.83012788
vertex 531.410089269006 582.082336545966 7.36121717999994
vertex 531.410089269006 582.082336545966 1.29903727999996
endloop
endfacet
facet normal -1.0 0.0 0.0
outer loop
vertex 531.410089269006 582.082336545966 1.29903727999996
vertex 531.410089269006 582.082336545966 7.36121717999994
vertex 531.410089269006 583.363426185966 6.08012754000001
endloop
endfacet
facet normal -1.0 0.0 0.0
outer loop
vertex 531.410089269006 582.082336545966 1.29903727999996
vertex 531.410089269006 583.363426185966 6.08012754000001
vertex 531.410089269006 583.363426185966 2.58012691999999
endloop
endfacet
facet normal -1.0 0.0 0.0
outer loop
vertex 531.410089269006 583.363426185966 2.58012691999999
vertex 531.410089269006 583.363426185966 6.08012754000001
vertex 531.410089269006 583.832338125966 4.33012850000001
endloop
endfacet
facet normal 9.26050868022382e-41 -1.50398212402557e-14 -1.0
outer loop
vertex 547.771628729006 588.332337235966 6.32198565870414
vertex 546.621628729006 585.082337235966 6.32198565870418
vertex 546.621628729006 588.332337235966 6.32198565870414
endloop
endfacet
facet normal 9.26050868022382e-41 -1.50398212402557e-14 -1.0
outer loop
vertex 546.621628729006 585.082337235966 6.32198565870418
vertex 547.771628729006 588.332337235966 6.32198565870414
vertex 547.771628729006 585.082337235966 6.32198565870418
endloop
endfacet
facet normal 0.757465008339558 0.209838151450653 0.618235158606275
outer loop
vertex 531.965421585598 579.712058350237 8.66025446
vertex 532.132901237919 579.107497285602 8.66025446
vertex 535.907142165942 579.516790001003 3.89711438000001
endloop
endfacet
facet normal 4.75609692280875e-08 0.80000039321398 0.599999475714334
outer loop
vertex 515.871626729006 582.082339085966 9.66025499999998
vertex 518.871628349006 582.832337585966 8.66025446
vertex 515.871626729006 582.832337585966 8.66025446
endloop
endfacet
facet normal 4.75609692280875e-08 0.80000039321398 0.599999475714334
outer loop
vertex 518.871628349006 582.832337585966 8.66025446
vertex 515.871626729006 582.082339085966 9.66025499999998
vertex 518.871628349006 582.082339085966 9.66025499999998
endloop
endfacet
facet normal 4.75609692280875e-08 0.80000039321398 0.599999475714334
outer loop
vertex 518.871628349006 582.082339085966 9.66025499999998
vertex 515.871626729006 582.082339085966 9.66025499999998
vertex 515.871626729006 581.332338858768 10.6602561495995
endloop
endfacet
facet normal 4.75609692280875e-08 0.80000039321398 0.599999475714334
outer loop
vertex 518.871628349006 582.082339085966 9.66025499999998
vertex 515.871626729006 581.332338858768 10.6602561495995
vertex 522.871627969006 582.082339085966 9.66025499999998
endloop
endfacet
facet normal 4.75609692280875e-08 0.80000039321398 0.599999475714334
outer loop
vertex 522.871627969006 582.082339085966 9.66025499999998
vertex 515.871626729006 581.332338858768 10.6602561495995
vertex 522.871627969006 581.332338045966 10.66025554
endloop
endfacet
facet normal 4.75609692280875e-08 0.80000039321398 0.599999475714334
outer loop
vertex 522.871627969006 582.082339085966 9.66025499999998
vertex 524.871626509006 582.832337585966 8.66025446
vertex 522.871627969006 582.832337585966 8.66025446
endloop
endfacet
facet normal 4.75609692280875e-08 0.80000039321398 0.599999475714334
outer loop
vertex 524.871626509006 582.832337585966 8.66025446
vertex 522.871627969006 582.082339085966 9.66025499999998
vertex 522.871627969006 581.332338045966 10.66025554
endloop
endfacet
facet normal -0.0366929385395001 0.999326587388396 0.0
outer loop
vertex 536.871627909006 575.582337775966 2.89711384000002
vertex 536.871627909006 575.582337775966 0.0
vertex 536.218695916172 575.558363637996 0.0
endloop
endfacet
facet normal 0.866025628681296 -5.27512042791255e-08 -0.499999610467012
outer loop
vertex 548.121628269006 575.582337775966 0.0
vertex 550.121626809006 571.532337985966 3.46410280000003
vertex 548.121628269006 571.532337985966 0.0
endloop
endfacet
facet normal 0.866025628681296 -5.27512042791255e-08 -0.499999610467012
outer loop
vertex 550.121626809006 571.532337985966 3.46410280000003
vertex 548.121628269006 575.582337775966 0.0
vertex 550.121626809006 575.582337775966 3.46410280000003
endloop
endfacet
facet normal -4.75609242764266e-08 -0.80000009446583 0.599999874045538
outer loop
vertex 522.871627969006 579.332336965966 10.66025554
vertex 522.871627969006 577.832337425966 8.66025446
vertex 524.871626509006 577.832337425966 8.66025446
endloop
endfacet
facet normal -4.75609242764266e-08 -0.80000009446583 0.599999874045538
outer loop
vertex 522.871627969006 577.832337425966 8.66025446
vertex 522.871627969006 579.332336965966 10.66025554
vertex 522.871627969006 578.582338465966 9.66025499999998
endloop
endfacet
facet normal -4.75609242764266e-08 -0.80000009446583 0.599999874045538
outer loop
vertex 522.871627969006 578.582338465966 9.66025499999998
vertex 522.871627969006 579.332336965966 10.66025554
vertex 518.871628349006 578.582338465966 9.66025499999998
endloop
endfacet
facet normal -4.75609242764266e-08 -0.80000009446583 0.599999874045538
outer loop
vertex 518.871628349006 578.582338465966 9.66025499999998
vertex 522.871627969006 579.332336965966 10.66025554
vertex 515.871626729006 578.582338465966 9.66025499999998
endloop
endfacet
facet normal -4.75609242764266e-08 -0.80000009446583 0.599999874045538
outer loop
vertex 515.871626729006 578.582338465966 9.66025499999998
vertex 522.871627969006 579.332336965966 10.66025554
vertex 515.871626729006 579.332337778766 10.6602549303998
endloop
endfacet
facet normal -4.75609242764266e-08 -0.80000009446583 0.599999874045538
outer loop
vertex 518.871628349006 578.582338465966 9.66025499999998
vertex 515.871626729006 577.832337425966 8.66025446
vertex 518.871628349006 577.832337425966 8.66025446
endloop
endfacet
facet normal -4.75609242764266e-08 -0.80000009446583 0.599999874045538
outer loop
vertex 515.871626729006 577.832337425966 8.66025446
vertex 518.871628349006 578.582338465966 9.66025499999998
vertex 515.871626729006 578.582338465966 9.66025499999998
endloop
endfacet
facet normal 0.572942061643101 0.276059503221221 -0.771704959606588
outer loop
vertex 535.942656962878 578.70124249604 2.89711384000002
vertex 532.464150488104 577.82195942502 0.0
vertex 532.18054197028 578.410568934946 0.0
endloop
endfacet
facet normal 0.866025628681297 -5.27512003688167e-08 0.499999610467011
outer loop
vertex 550.121626809006 575.582337775966 5.19615165999997
vertex 548.121628269006 571.532337985966 8.66025446
vertex 550.121626809006 571.532337985966 5.19615165999997
endloop
endfacet
facet normal 0.866025628681297 -5.27512003688167e-08 0.499999610467011
outer loop
vertex 548.121628269006 571.532337985966 8.66025446
vertex 550.121626809006 575.582337775966 5.19615165999997
vertex 548.121628269006 575.582337775966 8.66025446
endloop
endfacet
facet normal 0.952339134438664 0.305041264448953 0.0
outer loop
vertex 536.27899828133 577.10362218692 2.89711384000002
vertex 536.403634859861 576.714506663381 3.89711438000001
vertex 536.403634859861 576.714506663381 2.89711384000002
endloop
endfacet
facet normal 0.952339134438664 0.305041264448953 0.0
outer loop
vertex 536.403634859861 576.714506663381 3.89711438000001
vertex 536.27899828133 577.10362218692 2.89711384000002
vertex 536.27899828133 577.10362218692 3.89711438000001
endloop
endfacet
facet normal 0.589049107165486 0.699804357800513 0.404097773009151
outer loop
vertex 533.956193455342 576.6108566281 8.66025446
vertex 536.170413413807 577.497518739218 3.89711438000001
vertex 533.476253570329 577.014838337572 8.66025446
endloop
endfacet
facet normal 0.89422761920769 0.327407895455962 0.305222926791622
outer loop
vertex 536.403634859861 576.714506663381 3.89711438000001
vertex 535.043411618733 575.989202329775 8.66025446
vertex 536.544113724275 576.330825994047 3.89711438000001
endloop
endfacet
facet normal 0.767534752774084 0.116060693826794 0.630412816043954
outer loop
vertex 531.871627749006 580.332337505966 8.66025446
vertex 531.965421585598 579.712058350237 8.66025446
vertex 535.907142165942 579.516790001003 3.89711438000001
endloop
endfacet
facet normal 0.0 0.0 -1.0
outer loop
vertex 522.871627969006 582.082339085966 9.66025499999998
vertex 518.871628349006 578.582338465966 9.66025499999998
vertex 518.871628349006 582.082339085966 9.66025499999998
endloop
endfacet
facet normal 0.0 0.0 -1.0
outer loop
vertex 518.871628349006 578.582338465966 9.66025499999998
vertex 522.871627969006 582.082339085966 9.66025499999998
vertex 522.871627969006 578.582338465966 9.66025499999998
endloop
endfacet
facet normal -4.56196495412206e-18 -0.944911188812036 0.327326817199302
outer loop
vertex 526.410089269006 576.832336885966 8.66025446
vertex 515.871626729006 575.332337345966 4.33012850000001
vertex 524.871626509006 575.332337345966 4.33012850000001
endloop
endfacet
facet normal -4.56196495412206e-18 -0.944911188812036 0.327326817199302
outer loop
vertex 515.871626729006 575.332337345966 4.33012850000001
vertex 526.410089269006 576.832336885966 8.66025446
vertex 515.871626729006 576.832336885966 8.66025446
endloop
endfacet
facet normal 0.89422761920769 0.327407895455962 0.305222926791622
outer loop
vertex 536.403634859861 576.714506663381 3.89711438000001
vertex 535.043411618733 575.989202329775 8.66025446
vertex 536.544113724275 576.330825994047 3.89711438000001
endloop
endfacet
facet normal 0.447213822684437 0.0 0.89442707740764
outer loop
vertex 526.871627589006 579.332336965966 8.66025446
vertex 522.871627969006 581.332338045966 10.66025554
vertex 522.871627969006 579.332336965966 10.66025554
endloop
endfacet
facet normal 0.447213822684437 0.0 0.89442707740764
outer loop
vertex 522.871627969006 581.332338045966 10.66025554
vertex 526.871627589006 579.332336965966 8.66025446
vertex 526.871627589006 581.332338045966 8.66025446
endloop
endfacet
facet normal 0.384110698443606 0.512148031543215 0.7682209090669
outer loop
vertex 526.871627589006 581.332338045966 8.66025446
vertex 524.871626509006 582.832337585966 8.66025446
vertex 522.871627969006 581.332338045966 10.66025554
endloop
endfacet
facet normal 0.844875937791267 0.196034684939736 0.497749989494632
outer loop
vertex 536.078062710946 577.89553446133 3.89711438000001
vertex 533.476253570329 577.014838337572 8.66025446
vertex 536.170413413807 577.497518739218 3.89711438000001
endloop
endfacet
facet normal 0.698263036782397 0.3911279483218 0.599539539567662
outer loop
vertex 535.907142165942 579.516790001003 3.89711438000001
vertex 532.371650900237 578.52737478685 8.66025446
vertex 532.678226734478 577.980058815336 8.66025446
endloop
endfacet
facet normal 0.844875937791267 0.196034684939736 0.497749989494632
outer loop
vertex 536.078062710946 577.89553446133 3.89711438000001
vertex 533.476253570329 577.014838337572 8.66025446
vertex 536.170413413807 577.497518739218 3.89711438000001
endloop
endfacet
facet normal 0.888696422152025 0.410767618507347 -0.203687586366945
outer loop
vertex 536.700198829873 575.953224872257 2.89711384000002
vertex 536.871627909006 575.582337775966 2.89711384000002
vertex 536.218695916172 575.558363637996 0.0
endloop
endfacet
facet normal 1.0 0.0 0.0
outer loop
vertex 550.121626809006 575.582337775966 3.46410280000003
vertex 550.121626809006 571.532337985966 5.19615165999997
vertex 550.121626809006 571.532337985966 3.46410280000003
endloop
endfacet
facet normal 1.0 0.0 0.0
outer loop
vertex 550.121626809006 571.532337985966 5.19615165999997
vertex 550.121626809006 575.582337775966 3.46410280000003
vertex 550.121626809006 575.582337775966 5.19615165999997
endloop
endfacet
facet normal 0.0 -0.944911248198435 -0.327326645765473
outer loop
vertex 524.871626509006 575.332337345966 4.33012850000001
vertex 515.871626729006 576.832336885966 0.0
vertex 526.410089269006 576.832336885966 0.0
endloop
endfacet
facet normal 0.0 -0.944911248198435 -0.327326645765473
outer loop
vertex 515.871626729006 576.832336885966 0.0
vertex 524.871626509006 575.332337345966 4.33012850000001
vertex 515.871626729006 575.332337345966 4.33012850000001
endloop
endfacet
facet normal 0.591876511627082 0.0257745551225326 -0.805616451726498
outer loop
vertex 535.907142165942 579.516790001003 2.89711384000002
vertex 531.984841847801 579.033943949379 0.0
vertex 535.871627369006 580.332337505966 2.89711384000002
endloop
endfacet
facet normal 0.0 1.0 0.0
outer loop
vertex 536.871627909006 575.582337775966 2.89711384000002
vertex 548.121628269006 575.582337775966 0.0
vertex 536.871627909006 575.582337775966 0.0
endloop
endfacet
facet normal 0.0 1.0 0.0
outer loop
vertex 548.121628269006 575.582337775966 0.0
vertex 536.871627909006 575.582337775966 2.89711384000002
vertex 545.471628729006 575.582337775966 2.33826880129573
endloop
endfacet
facet normal 0.0 1.0 0.0
outer loop
vertex 548.121628269006 575.582337775966 0.0
vertex 545.471628729006 575.582337775966 2.33826880129573
vertex 546.621628729006 575.582337775966 2.33826880129573
endloop
endfacet
facet normal 0.0 1.0 0.0
outer loop
vertex 548.121628269006 575.582337775966 0.0
vertex 546.621628729006 575.582337775966 2.33826880129573
vertex 547.771628729006 575.582337775966 2.33826880129573
endloop
endfacet
facet normal 0.0 1.0 0.0
outer loop
vertex 545.471628729006 575.582337775966 2.33826880129573
vertex 536.871627909006 575.582337775966 2.89711384000002
vertex 544.321628729006 575.582337775966 4.33012722999995
endloop
endfacet
facet normal 0.0 1.0 0.0
outer loop
vertex 544.321628729006 575.582337775966 4.33012722999995
vertex 536.871627909006 575.582337775966 2.89711384000002
vertex 536.871627909006 575.582337775966 3.89711438000001
endloop
endfacet
facet normal 0.0 1.0 0.0
outer loop
vertex 544.321628729006 575.582337775966 4.33012722999995
vertex 536.871627909006 575.582337775966 3.89711438000001
vertex 536.871627909006 575.582337775966 8.66025446
endloop
endfacet
facet normal 0.0 1.0 0.0
outer loop
vertex 544.321628729006 575.582337775966 4.33012722999995
vertex 536.871627909006 575.582337775966 8.66025446
vertex 545.471628729006 575.582337775966 6.32198565870418
endloop
endfacet
facet normal 0.0 1.0 0.0
outer loop
vertex 545.471628729006 575.582337775966 6.32198565870418
vertex 536.871627909006 575.582337775966 8.66025446
vertex 546.621628729006 575.582337775966 6.32198565870418
endloop
endfacet
facet normal 0.0 1.0 0.0
outer loop
vertex 546.621628729006 575.582337775966 6.32198565870418
vertex 536.871627909006 575.582337775966 8.66025446
vertex 547.771628729006 575.582337775966 6.32198565870418
endloop
endfacet
facet normal 0.0 1.0 0.0
outer loop
vertex 547.771628729006 575.582337775966 2.33826880129573
vertex 550.121626809006 575.582337775966 3.46410280000003
vertex 548.121628269006 575.582337775966 0.0
endloop
endfacet
facet normal 0.0 1.0 0.0
outer loop
vertex 550.121626809006 575.582337775966 3.46410280000003
vertex 547.771628729006 575.582337775966 2.33826880129573
vertex 548.921628729006 575.582337775966 4.33012722999995
endloop
endfacet
facet normal 0.0 1.0 0.0
outer loop
vertex 550.121626809006 575.582337775966 3.46410280000003
vertex 548.921628729006 575.582337775966 4.33012722999995
vertex 550.121626809006 575.582337775966 5.19615165999997
endloop
endfacet
facet normal 0.0 1.0 0.0
outer loop
vertex 550.121626809006 575.582337775966 5.19615165999997
vertex 548.921628729006 575.582337775966 4.33012722999995
vertex 547.771628729006 575.582337775966 6.32198565870418
endloop
endfacet
facet normal 0.0 1.0 0.0
outer loop
vertex 550.121626809006 575.582337775966 5.19615165999997
vertex 547.771628729006 575.582337775966 6.32198565870418
vertex 548.121628269006 575.582337775966 8.66025446
endloop
endfacet
facet normal 0.0 1.0 0.0
outer loop
vertex 548.121628269006 575.582337775966 8.66025446
vertex 547.771628729006 575.582337775966 6.32198565870418
vertex 536.871627909006 575.582337775966 8.66025446
endloop
endfacet
facet normal 0.608630692923381 0.0265041525315716 -0.793010850827521
outer loop
vertex 535.942656962878 578.70124249604 2.89711384000002
vertex 532.18054197028 578.410568934946 0.0
vertex 535.907142165942 579.516790001003 2.89711384000002
endloop
endfacet
facet normal -6.62405567662646e-15 1.48798976743249e-14 1.0
outer loop
vertex 547.771628729006 572.332337775966 2.33826880129578
vertex 546.621628729006 575.582337775966 2.33826880129573
vertex 546.621628729006 572.332337775966 2.33826880129578
endloop
endfacet
facet normal -6.62405567662646e-15 1.48798976743249e-14 1.0
outer loop
vertex 546.621628729006 575.582337775966 2.33826880129573
vertex 547.771628729006 572.332337775966 2.33826880129578
vertex 547.771628729006 575.582337775966 2.33826880129573
endloop
endfacet
facet normal 0.866025403784438 7.55442583488788e-15 0.5
outer loop
vertex 545.471628729006 575.582337775966 2.33826880129573
vertex 544.321628729006 572.332337775966 4.33012723
vertex 545.471628729006 572.332337775966 2.33826880129578
endloop
endfacet
facet normal 0.866025403784438 7.55442583488788e-15 0.5
outer loop
vertex 544.321628729006 572.332337775966 4.33012723
vertex 545.471628729006 575.582337775966 2.33826880129573
vertex 544.321628729006 575.582337775966 4.33012722999995
endloop
endfacet
facet normal 0.866025403784434 5.7584235735827e-17 -0.500000000000009
outer loop
vertex 544.321628729006 575.582337775966 4.33012722999995
vertex 545.471628729006 572.332337775966 6.32198565870414
vertex 544.321628729006 572.332337775966 4.33012723
endloop
endfacet
facet normal 0.866025403784434 5.7584235735827e-17 -0.500000000000009
outer loop
vertex 545.471628729006 572.332337775966 6.32198565870414
vertex 544.321628729006 575.582337775966 4.33012722999995
vertex 545.471628729006 575.582337775966 6.32198565870418
endloop
endfacet
facet normal -7.66839825578346e-14 -3.04799766863497e-07 0.999999999999954
outer loop
vertex 522.871627969006 579.332336965966 10.66025554
vertex 515.871626729006 581.332338858768 10.6602561495995
vertex 515.871626729006 579.332337778766 10.6602549303998
endloop
endfacet
facet normal -7.66839825578346e-14 -3.04799766863497e-07 0.999999999999954
outer loop
vertex 515.871626729006 581.332338858768 10.6602561495995
vertex 522.871627969006 579.332336965966 10.66025554
vertex 522.871627969006 581.332338045966 10.66025554
endloop
endfacet
facet normal -7.2931933558375e-15 1.49952457183123e-14 -1.0
outer loop
vertex 547.771628729006 575.582337775966 6.32198565870418
vertex 546.621628729006 572.332337775966 6.32198565870414
vertex 546.621628729006 575.582337775966 6.32198565870418
endloop
endfacet
facet normal -7.2931933558375e-15 1.49952457183123e-14 -1.0
outer loop
vertex 546.621628729006 572.332337775966 6.32198565870414
vertex 547.771628729006 575.582337775966 6.32198565870418
vertex 547.771628729006 572.332337775966 6.32198565870414
endloop
endfacet
facet normal 0.999053167836477 0.0435059517296168 0.0
outer loop
vertex 535.907142165942 579.516790001003 2.89711384000002
vertex 535.942656962878 578.70124249604 3.89711438000001
vertex 535.942656962878 578.70124249604 2.89711384000002
endloop
endfacet
facet normal 0.999053167836477 0.0435059517296168 0.0
outer loop
vertex 535.942656962878 578.70124249604 3.89711438000001
vertex 535.907142165942 579.516790001003 2.89711384000002
vertex 535.907142165942 579.516790001003 3.89711438000001
endloop
endfacet
facet normal 0.999053167836477 0.0435059517296168 0.0
outer loop
vertex 535.907142165942 579.516790001003 3.89711438000001
vertex 535.907142165942 579.516790001003 2.89711384000002
vertex 535.871627369006 580.332337505966 2.89711384000002
endloop
endfacet
facet normal 0.999053167836477 0.0435059517296168 0.0
outer loop
vertex 535.907142165942 579.516790001003 3.89711438000001
vertex 535.871627369006 580.332337505966 2.89711384000002
vertex 535.871627369006 580.332337505966 3.89711438000001
endloop
endfacet
facet normal -1.0 0.0 0.0
outer loop
vertex 515.871626729006 579.332337778766 10.6602549303998
vertex 515.871626729006 582.082339085966 9.66025499999998
vertex 515.871626729006 578.582338465966 9.66025499999998
endloop
endfacet
facet normal -1.0 0.0 0.0
outer loop
vertex 515.871626729006 582.082339085966 9.66025499999998
vertex 515.871626729006 579.332337778766 10.6602549303998
vertex 515.871626729006 581.332338858768 10.6602561495995
endloop
endfacet
facet normal -0.866025403784439 7.55442583488788e-15 0.5
outer loop
vertex 548.921628729006 575.582337775966 4.33012722999995
vertex 547.771628729006 572.332337775966 2.33826880129578
vertex 548.921628729006 572.332337775966 4.33012723
endloop
endfacet
facet normal -0.866025403784439 7.55442583488788e-15 0.5
outer loop
vertex 547.771628729006 572.332337775966 2.33826880129578
vertex 548.921628729006 575.582337775966 4.33012722999995
vertex 547.771628729006 575.582337775966 2.33826880129573
endloop
endfacet
facet normal 0.490129999604647 0.5970625642173 -0.635050295565486
outer loop
vertex 536.170413413807 577.497518739218 2.89711384000002
vertex 533.774636769723 576.382776273939 0.0
vertex 533.269628741403 576.797338498328 0.0
endloop
endfacet
facet normal 0.0 -1.0 0.0
outer loop
vertex 550.121626809006 571.532337985966 3.46410280000003
vertex 537.025473169006 571.532337985966 0.0
vertex 548.121628269006 571.532337985966 0.0
endloop
endfacet
facet normal 0.0 -1.0 0.0
outer loop
vertex 537.025473169006 571.532337985966 0.0
vertex 550.121626809006 571.532337985966 3.46410280000003
vertex 537.025473169006 571.532337985966 8.66025446
endloop
endfacet
facet normal 0.0 -1.0 0.0
outer loop
vertex 537.025473169006 571.532337985966 8.66025446
vertex 550.121626809006 571.532337985966 3.46410280000003
vertex 550.121626809006 571.532337985966 5.19615165999997
endloop
endfacet
facet normal 0.0 -1.0 0.0
outer loop
vertex 537.025473169006 571.532337985966 8.66025446
vertex 550.121626809006 571.532337985966 5.19615165999997
vertex 548.121628269006 571.532337985966 8.66025446
endloop
endfacet
facet normal -0.404481584585443 -0.810137394718134 -0.424348971261347
outer loop
vertex 524.871626509006 575.332337345966 4.33012850000001
vertex 526.410089269006 576.832336885966 0.0
vertex 537.025473169006 571.532337985966 0.0
endloop
endfacet
facet normal 0.974121887611176 0.226023335248462 0.0
outer loop
vertex 536.078062710946 577.89553446133 2.89711384000002
vertex 536.170413413807 577.497518739218 3.89711438000001
vertex 536.170413413807 577.497518739218 2.89711384000002
endloop
endfacet
facet normal 0.974121887611176 0.226023335248462 0.0
outer loop
vertex 536.170413413807 577.497518739218 3.89711438000001
vertex 536.078062710946 577.89553446133 2.89711384000002
vertex 536.078062710946 577.89553446133 3.89711438000001
endloop
endfacet
facet normal 0.982566528694315 0.185911314044098 0.0
outer loop
vertex 536.00210134836 578.297000572928 2.89711384000002
vertex 536.078062710946 577.89553446133 3.89711438000001
vertex 536.078062710946 577.89553446133 2.89711384000002
endloop
endfacet
facet normal 0.982566528694315 0.185911314044098 0.0
outer loop
vertex 536.078062710946 577.89553446133 3.89711438000001
vertex 536.00210134836 578.297000572928 2.89711384000002
vertex 536.00210134836 578.297000572928 3.89711438000001
endloop
endfacet
facet normal 0.0 0.0 1.0
outer loop
vertex 531.871627749006 580.332337505966 8.66025446
vertex 526.871627589006 581.332338045966 8.66025446
vertex 526.871627589006 579.332336965966 8.66025446
endloop
endfacet
facet normal 0.0 -0.965925673054814 -0.258819616979865
outer loop
vertex 531.410089269006 583.363426185966 6.08012754000001
vertex 515.871626729006 583.832338125966 4.33012850000001
vertex 531.410089269006 583.832338125966 4.33012850000001
endloop
endfacet
facet normal 0.0 -0.965925673054814 -0.258819616979865
outer loop
vertex 515.871626729006 583.832338125966 4.33012850000001
vertex 531.410089269006 583.363426185966 6.08012754000001
vertex 515.871626729006 583.363426185966 6.08012754000001
endloop
endfacet
facet normal 0.0 -0.965925766969415 0.258819266486378
outer loop
vertex 531.410089269006 583.832338125966 4.33012850000001
vertex 515.871626729006 583.363426185966 2.58012691999999
vertex 531.410089269006 583.363426185966 2.58012691999999
endloop
endfacet
facet normal 0.0 -0.965925766969415 0.258819266486378
outer loop
vertex 515.871626729006 583.363426185966 2.58012691999999
vertex 531.410089269006 583.832338125966 4.33012850000001
vertex 515.871626729006 583.832338125966 4.33012850000001
endloop
endfacet
facet normal 0.678560794237055 -0.157444952046415 -0.717472184547582
outer loop
vertex 536.170413413807 583.167156272714 2.89711384000002
vertex 536.078062710946 582.769140550603 2.89711384000002
vertex 533.269628741403 583.867336513605 0.0
endloop
endfacet
facet normal 0.516279292383996 0.788867826531864 0.333381529959854
outer loop
vertex 534.481103320882 576.267326210416 8.66025446
vertex 536.27899828133 577.10362218692 3.89711438000001
vertex 533.956193455342 576.6108566281 8.66025446
endloop
endfacet
facet normal 0.586563083983768 -0.00854666965241144 -0.809858446239405
outer loop
vertex 535.871627369006 580.332337505966 2.89711384000002
vertex 531.871627749006 580.332337505966 0.0
vertex 531.881146864609 580.985640141041 0.0
endloop
endfacet
facet normal 0.238411846237532 -0.922443607057274 -0.303739334582759
outer loop
vertex 536.544113724275 584.333849017885 2.89711384000002
vertex 534.936553292993 584.872316600957 0.0
vertex 535.569138479307 585.03581255997 0.0
endloop
endfacet
facet normal 0.575032201846342 -0.0924334113480551 -0.812892386055072
outer loop
vertex 535.871627369006 580.332337505966 2.89711384000002
vertex 531.881146864609 580.985640141041 0.0
vertex 531.984841847801 581.630731062554 0.0
endloop
endfacet
facet normal 0.0986437704091869 0.995122809787546 -1.35173464083216e-18
outer loop
vertex 536.871627909006 575.582337775966 8.66025446
vertex 536.871627909006 575.582337775966 3.89711438000001
vertex 536.247357052029 575.644220018523 8.66025446
endloop
endfacet
facet normal -1.21921789584216e-17 -2.81284240454932e-16 1.0
outer loop
vertex 522.871627969006 580.332337505966 8.66025446
vertex 518.871628349006 582.832337585966 8.66025446
vertex 518.871628349006 580.332337505966 8.66025446
endloop
endfacet
facet normal -1.21921789584216e-17 -2.81284240454932e-16 1.0
outer loop
vertex 515.871626729006 582.832337585966 8.66025446
vertex 526.410089269006 583.832338125966 8.66025446
vertex 515.871626729006 583.832338125966 8.66025446
endloop
endfacet
facet normal -1.21921789584216e-17 -2.81284240454932e-16 1.0
outer loop
vertex 526.410089269006 583.832338125966 8.66025446
vertex 515.871626729006 582.832337585966 8.66025446
vertex 518.871628349006 582.832337585966 8.66025446
endloop
endfacet
facet normal -1.21921789584216e-17 -2.81284240454932e-16 1.0
outer loop
vertex 526.410089269006 583.832338125966 8.66025446
vertex 518.871628349006 582.832337585966 8.66025446
vertex 522.871627969006 582.832337585966 8.66025446
endloop
endfacet
facet normal -1.21921789584216e-17 -2.81284240454932e-16 1.0
outer loop
vertex 522.871627969006 582.832337585966 8.66025446
vertex 518.871628349006 582.832337585966 8.66025446
vertex 522.871627969006 580.332337505966 8.66025446
endloop
endfacet
facet normal -1.21921789584216e-17 -2.81284240454932e-16 1.0
outer loop
vertex 526.410089269006 583.832338125966 8.66025446
vertex 522.871627969006 582.832337585966 8.66025446
vertex 524.871626509006 582.832337585966 8.66025446
endloop
endfacet
facet normal -1.21921789584216e-17 -2.81284240454932e-16 1.0
outer loop
vertex 526.410089269006 583.832338125966 8.66025446
vertex 524.871626509006 582.832337585966 8.66025446
vertex 526.871627589006 581.332338045966 8.66025446
endloop
endfacet
facet normal -1.21921789584216e-17 -2.81284240454932e-16 1.0
outer loop
vertex 526.410089269006 583.832338125966 8.66025446
vertex 526.871627589006 581.332338045966 8.66025446
vertex 531.871627749006 580.332337505966 8.66025446
endloop
endfacet
facet normal 0.570180897402051 -0.179000551631739 -0.80178085955785
outer loop
vertex 535.907142165942 581.147885010929 2.89711384000002
vertex 531.984841847801 581.630731062554 0.0
vertex 532.18054197028 582.254106076987 0.0
endloop
endfacet
facet normal 0.810481702107952 0.119182558688625 0.573511053295949
outer loop
vertex 535.942656962878 578.70124249604 3.89711438000001
vertex 532.678226734478 577.980058815336 8.66025446
vertex 536.00210134836 578.297000572928 3.89711438000001
endloop
endfacet
facet normal 0.810481702107952 0.119182558688625 0.573511053295949
outer loop
vertex 535.942656962878 578.70124249604 3.89711438000001
vertex 532.678226734478 577.980058815336 8.66025446
vertex 536.00210134836 578.297000572928 3.89711438000001
endloop
endfacet
facet normal 0.880215115054514 0.28193940789966 0.381747981661669
outer loop
vertex 536.27899828133 577.10362218692 3.89711438000001
vertex 534.481103320882 576.267326210416 8.66025446
vertex 536.403634859861 576.714506663381 3.89711438000001
endloop
endfacet
facet normal 0.647134882149467 0.604013673806926 0.465170856954362
outer loop
vertex 536.078062710946 577.89553446133 3.89711438000001
vertex 533.048206545783 577.473444115548 8.66025446
vertex 533.476253570329 577.014838337572 8.66025446
endloop
endfacet
facet normal 0.902474599757282 0.373046675642918 0.215350353110231
outer loop
vertex 536.544113724275 576.330825994047 3.89711438000001
vertex 535.635007348001 575.780496776601 8.66025446
vertex 536.700198829873 575.953224872257 3.89711438000001
endloop
endfacet
facet normal 0.428753999682182 0.866850883866997 0.254439684199491
outer loop
vertex 535.043411618733 575.989202329775 8.66025446
vertex 536.403634859861 576.714506663381 3.89711438000001
vertex 534.481103320882 576.267326210416 8.66025446
endloop
endfacet
facet normal 0.827027745340065 0.15648183649347 0.539943092636029
outer loop
vertex 536.00210134836 578.297000572928 3.89711438000001
vertex 533.048206545783 577.473444115548 8.66025446
vertex 536.078062710946 577.89553446133 3.89711438000001
endloop
endfacet
facet normal 0.902474599757282 0.373046675642918 0.215350353110231
outer loop
vertex 536.544113724275 576.330825994047 3.89711438000001
vertex 535.635007348001 575.780496776601 8.66025446
vertex 536.700198829873 575.953224872257 3.89711438000001
endloop
endfacet
facet normal 0.216470842883912 0.972695993358974 0.0836832043156024
outer loop
vertex 536.247357052029 575.644220018523 8.66025446
vertex 536.700198829873 575.953224872257 3.89711438000001
vertex 535.635007348001 575.780496776601 8.66025446
endloop
endfacet
facet normal 0.734313648560802 0.302207095925997 0.607827555075696
outer loop
vertex 535.907142165942 579.516790001003 3.89711438000001
vertex 532.132901237919 579.107497285602 8.66025446
vertex 532.371650900237 578.52737478685 8.66025446
endloop
endfacet
facet normal 0.827027745340065 0.15648183649347 0.539943092636029
outer loop
vertex 536.00210134836 578.297000572928 3.89711438000001
vertex 533.048206545783 577.473444115548 8.66025446
vertex 536.078062710946 577.89553446133 3.89711438000001
endloop
endfacet
facet normal 0.765361597794732 0.0333293420223769 0.642736944310384
outer loop
vertex 531.871627749006 580.332337505966 8.66025446
vertex 535.907142165942 579.516790001003 3.89711438000001
vertex 535.871627369006 580.332337505966 3.89711438000001
endloop
endfacet
endsolid Delta v7
