solid Delta Dev
facet normal 0.000678232642689368 -0.707106508600875 -0.707106728503387
outer loop
vertex 26.771547226153 763.973395025695 -2.7577968397683
vertex 19.7720286426789 763.347466458421 -1.95064840645495
vertex 19.7715499476374 763.967248608707 -2.75836458319416
endloop
endfacet
facet normal 0.000800975008343393 -0.866025069936512 -0.499999936680491
outer loop
vertex 19.7720286426789 763.347466458421 -1.95064840645495
vertex 26.771547226153 763.973395025695 -2.7577968397683
vertex 26.7720259211945 763.353612875408 -1.95008066302909
endloop
endfacet
facet normal 0.704394434682542 -0.431687275261332 0.563448823555173
outer loop
vertex 29.2717189789606 763.197461304501 3.53565388699336
vertex 28.2711144490863 763.732119050937 5.19618660763087
vertex 28.2722828960253 762.489480279941 4.24267606639547
endloop
endfacet
facet normal 0.704394434682542 -0.431687275261332 0.563448823555173
outer loop
vertex 28.2711144490863 763.732119050937 5.19618660763087
vertex 29.2717189789606 763.197461304501 3.53565388699336
vertex 29.2707452724274 764.232994412049 4.33024661731148
endloop
endfacet
facet normal 0.704352371933756 -0.271140379899646 -0.656026394697018
outer loop
vertex 28.2707353180575 765.17920254895 -5.79550812799362
vertex 29.2714476727555 764.232994412049 -4.33000405356927
vertex 28.2719573288301 763.732119050937 -5.1961061850803
endloop
endfacet
facet normal 0.704352371933756 -0.271140379899646 -0.656026394697018
outer loop
vertex 29.2714476727555 764.232994412049 -4.33000405356927
vertex 28.2707353180575 765.17920254895 -5.79550812799362
vertex 29.2704293296599 765.438898256798 -4.82950605777406
endloop
endfacet
facet normal 0.000184543212514215 -0.382683350931277 0.923879547811191
outer loop
vertex 26.7711148573542 763.73111165912 5.19606895448747
vertex 28.2697952078605 765.17920254895 5.7955883444328
vertex 26.7697956151113 765.178196272818 5.79547115342166
endloop
endfacet
facet normal 0.000184543212514215 -0.382683350931277 0.923879547811191
outer loop
vertex 28.2697952078605 765.17920254895 5.7955883444328
vertex 26.7711148573542 763.73111165912 5.19606895448747
vertex 28.2711144490863 763.732119050937 5.19618660763087
endloop
endfacet
facet normal 0.704686267466046 -0.703445862495317 -0.0926346748415085
outer loop
vertex 28.2741165007786 760.936568403883 -1.55287205922536
vertex 29.2732916206622 761.73299633952 0.000121459911303299
vertex 28.2741700646122 760.732123676867 4.0424923354018e-05
endloop
endfacet
facet normal 0.704686267466046 -0.703445862495317 -0.0926346748415085
outer loop
vertex 29.2732916206622 761.73299633952 0.000121459911303299
vertex 28.2741165007786 760.936568403883 -1.55287205922536
vertex 29.2732469840998 761.903367076721 -1.29397327461161
endloop
endfacet
facet normal 0.704614578237263 -0.655465059657318 0.271815841525015
outer loop
vertex 29.2730370657979 761.903367076721 1.29421617016792
vertex 28.2732209209495 761.535970014646 3.00003688836113
vertex 28.2738645990105 760.936568403883 1.55295287995254
endloop
endfacet
facet normal 0.704614578237263 -0.655465059657318 0.271815841525015
outer loop
vertex 28.2732209209495 761.535970014646 3.00003688836113
vertex 29.2730370657979 761.903367076721 1.29421617016792
vertex 29.2725006670002 762.402868804134 2.50012044024689
endloop
endfacet
facet normal 0.70377034950535 0.272376172843763 0.656139097771274
outer loop
vertex 29.2663549762859 769.232990557106 4.33024626123109
vertex 28.2670681071372 768.285027498343 5.79559259155305
vertex 29.2673733193815 768.027086712357 4.82974826543588
endloop
endfacet
facet normal 0.70377034950535 0.272376172843763 0.656139097771274
outer loop
vertex 28.2670681071372 768.285027498343 5.79559259155305
vertex 29.2663549762859 769.232990557106 4.33024626123109
vertex 28.2658460954225 769.732112112042 5.19619018650732
endloop
endfacet
facet normal 0.000169401514962733 -0.130527615891388 -0.991444659470632
outer loop
vertex 28.2693883505264 766.732114425007 -5.99995766967183
vertex 26.7707357260331 765.178196272818 -5.79563425561495
vertex 26.7693887570883 766.731109346154 -6.00007932898814
endloop
endfacet
facet normal 0.000169401514962733 -0.130527615891388 -0.991444659470632
outer loop
vertex 26.7707357260331 765.178196272818 -5.79563425561495
vertex 28.2693883505264 766.732114425007 -5.99995766967183
vertex 28.2707353180575 765.17920254895 -5.79550812799362
endloop
endfacet
facet normal 0.704199854238834 -0.0920746955947813 -0.704006261137735
outer loop
vertex 28.2693883505264 766.732114425007 -5.99995766967183
vertex 29.2704293296599 765.438898256798 -4.82950605777406
vertex 28.2707353180575 765.17920254895 -5.79550812799362
endloop
endfacet
facet normal 0.704199854238834 -0.0920746955947813 -0.704006261137735
outer loop
vertex 29.2704293296599 765.438898256798 -4.82950605777406
vertex 28.2693883505264 766.732114425007 -5.99995766967183
vertex 29.2693068555392 766.732992484577 -4.99987695225173
endloop
endfacet
facet normal 0.000148915931594655 -0.258818945329243 0.965925841544113
outer loop
vertex 19.7694856132599 765.715569431498 3.7664599247071
vertex 26.7685858056717 766.731109346154 3.89991682205534
vertex 19.7685885271562 766.724962929167 3.89934907862948
endloop
endfacet
facet normal -8.11062349603566e-05 -3.74266615617172e-16 0.999999996710889
outer loop
vertex 26.7685858056717 766.731109346154 3.89991682205534
vertex 19.7694856132599 765.715569431498 3.7664599247071
vertex 26.7694828917755 765.721715848486 3.76702766813296
endloop
endfacet
facet normal -0.000509269843268528 0.499999807252826 0.866025365327924
outer loop
vertex 19.7669186897275 768.674961425739 3.37684821765716
vertex 26.7662570135793 769.488823666614 2.75763351639009
vertex 19.7662597350637 769.482677249626 2.75706577296424
endloop
endfacet
facet normal -0.000678232642689321 0.707106508600874 0.707106728503389
outer loop
vertex 26.7662570135793 769.488823666614 2.75763351639009
vertex 19.7669186897275 768.674961425739 3.37684821765716
vertex 26.766915968243 768.681107842726 3.37741596108302
endloop
endfacet
facet normal 0.000827148574284049 -0.965925453930089 0.258819113040726
outer loop
vertex 26.7721279980623 762.964001528026 1.00931249005376
vertex 19.7717123284845 763.347466458421 1.9493500772895
vertex 19.7721307195468 762.957855111039 1.0087447466279
endloop
endfacet
facet normal 0.000719868773383161 -0.866025069936512 0.500000060030405
outer loop
vertex 19.7717123284845 763.347466458421 1.9493500772895
vertex 26.7721279980623 762.964001528026 1.00931249005376
vertex 26.7717096070001 763.353612875408 1.94991782071536
endloop
endfacet
facet normal 8.11062345884643e-05 2.72995781063011e-13 -0.999999996710889
outer loop
vertex 29.2676281499126 767.982992002709 2.16518451715071
vertex 19.7698268156593 765.474963411035 2.1644141862451
vertex 19.7676316667424 767.974962447299 2.16441400820484
endloop
endfacet
facet normal 8.11062345884643e-05 2.72995781063011e-13 -0.999999996710889
outer loop
vertex 19.7698268156593 765.474963411035 2.1644141862451
vertex 29.2676281499126 767.982992002709 2.16518451715071
vertex 29.2698232988295 765.482992966445 2.16518469519098
endloop
endfacet
facet normal -0.000305601145637152 0.258818945329228 0.965925804679948
outer loop
vertex 19.767712997342 767.734356426835 3.7664597809369
vertex 26.766915968243 768.681107842726 3.37741596108302
vertex 19.7669186897275 768.674961425739 3.37684821765716
endloop
endfacet
facet normal -0.000509269843268528 0.499999807252825 0.866025365327924
outer loop
vertex 26.766915968243 768.681107842726 3.37741596108302
vertex 19.767712997342 767.734356426835 3.7664597809369
vertex 26.7677102758576 767.740502843823 3.76702752436276
endloop
endfacet
facet normal -0.999999611216512 -0.000878059569672491 -8.11062036943345e-05
outer loop
vertex 19.7721307195468 762.957855111039 1.0087447466279
vertex 19.7710999902675 764.224963892903 -0.000649227074699893
vertex 19.7723292723409 762.824965936022 -0.000649127372258917
endloop
endfacet
facet normal -0.999999611216512 -0.000878059569672491 -8.11062036943345e-05
outer loop
vertex 19.7710999902675 764.224963892903 -0.000649227074699893
vertex 19.7721307195468 762.957855111039 1.0087447466279
vertex 19.7717123284845 763.347466458421 1.9493500772895
endloop
endfacet
facet normal -0.999999611216512 -0.000878059569672491 -8.11062036943345e-05
outer loop
vertex 19.7710999902675 764.224963892903 -0.000649227074699893
vertex 19.7717123284845 763.347466458421 1.9493500772895
vertex 19.7711026118137 763.967248608707 2.75706616575174
endloop
endfacet
facet normal -0.999999611216512 -0.000878059569672491 -8.11062036943345e-05
outer loop
vertex 19.7710999902675 764.224963892903 -0.000649227074699893
vertex 19.7711026118137 763.967248608707 2.75706616575174
vertex 19.7703431207178 764.774964432594 3.37684849539987
endloop
endfacet
facet normal -0.999999611216512 -0.000878059569672491 -8.11062036943345e-05
outer loop
vertex 19.7710999902675 764.224963892903 -0.000649227074699893
vertex 19.7703431207178 764.774964432594 3.37684849539987
vertex 19.7698268156593 765.474963411035 2.1644141862451
endloop
endfacet
facet normal -0.999999611216512 -0.000878059569672491 -8.11062036943345e-05
outer loop
vertex 19.7698268156593 765.474963411035 2.1644141862451
vertex 19.7703431207178 764.774964432594 3.37684849539987
vertex 19.7694856132599 765.715569431498 3.7664599247071
endloop
endfacet
facet normal -0.999999611216512 -0.000878059569672491 -8.11062036943345e-05
outer loop
vertex 19.7698268156593 765.474963411035 2.1644141862451
vertex 19.7694856132599 765.715569431498 3.7664599247071
vertex 19.7676316667424 767.974962447299 2.16441400820484
endloop
endfacet
facet normal -0.999999611216512 -0.000878059569672491 -8.11062036943345e-05
outer loop
vertex 19.7676316667424 767.974962447299 2.16441400820484
vertex 19.7694856132599 765.715569431498 3.7664599247071
vertex 19.7685885271562 766.724962929167 3.89934907862948
endloop
endfacet
facet normal -0.999999611216512 -0.000878059569672491 -8.11062036943345e-05
outer loop
vertex 19.7676316667424 767.974962447299 2.16441400820484
vertex 19.7685885271562 766.724962929167 3.89934907862948
vertex 19.767712997342 767.734356426835 3.7664597809369
endloop
endfacet
facet normal -0.999999611216512 -0.000878059569672491 -8.11062036943345e-05
outer loop
vertex 19.7676316667424 767.974962447299 2.16441400820484
vertex 19.767712997342 767.734356426835 3.7664597809369
vertex 19.7669186897275 768.674961425739 3.37684821765716
endloop
endfacet
facet normal -0.999999611216512 -0.000878059569672491 -8.11062036943345e-05
outer loop
vertex 19.7676316667424 767.974962447299 2.16441400820484
vertex 19.7669186897275 768.674961425739 3.37684821765716
vertex 19.7667096924336 769.224961965431 -0.000649583155229749
endloop
endfacet
facet normal -0.999999611216512 -0.000878059569672491 -8.11062036943345e-05
outer loop
vertex 19.7667096924336 769.224961965431 -0.000649583155229749
vertex 19.7669186897275 768.674961425739 3.37684821765716
vertex 19.7662597350637 769.482677249626 2.75706577296424
endloop
endfacet
facet normal -0.999999611216512 -0.000878059569672491 -8.11062036943345e-05
outer loop
vertex 19.7667096924336 769.224961965431 -0.000649583155229749
vertex 19.7662597350637 769.482677249626 2.75706577296424
vertex 19.7654804103602 770.624959922311 -0.00064968285767002
endloop
endfacet
facet normal -0.999999611216512 -0.000878059569672491 -8.11062036943345e-05
outer loop
vertex 19.7654804103602 770.624959922311 -0.00064968285767002
vertex 19.7662597350637 769.482677249626 2.75706577296424
vertex 19.7657810400222 770.102459399913 1.94934959622502
endloop
endfacet
facet normal -0.999999611216512 -0.000878059569672491 -8.11062036943345e-05
outer loop
vertex 19.7654804103602 770.624959922311 -0.00064968285767002
vertex 19.7657810400222 770.102459399913 1.94934959622502
vertex 19.7655152268789 770.492070747295 1.0087442100702
endloop
endfacet
facet normal 0.000859961157444662 -0.991444479177386 0.130526262397605
outer loop
vertex 26.7723265508565 762.83111235301 -8.13839463984001e-05
vertex 19.7721307195468 762.957855111039 1.0087447466279
vertex 19.7723292723409 762.824965936022 -0.000649127372258917
endloop
endfacet
facet normal 0.000827148574284049 -0.965925453930089 0.258819113040726
outer loop
vertex 19.7721307195468 762.957855111039 1.0087447466279
vertex 26.7723265508565 762.83111235301 -8.13839463984001e-05
vertex 26.7721279980623 762.964001528026 1.00931249005376
endloop
endfacet
facet normal 0.703532428686741 0.564008390606476 0.432361720220036
outer loop
vertex 29.2648964510228 771.063116165021 2.50011982349757
vertex 28.2648323190168 770.974751841099 4.2426787331336
vertex 29.2655101626145 770.268523664654 3.53565338341964
endloop
endfacet
facet normal 0.703532428686741 0.564008390606476 0.432361720220036
outer loop
vertex 28.2648323190168 770.974751841099 4.2426787331336
vertex 29.2648964510228 771.063116165021 2.50011982349757
vertex 28.2640958651067 771.92826284154 3.00003846122714
endloop
endfacet
facet normal 0.000509269843268481 -0.499999807252827 -0.866025365327923
outer loop
vertex 26.7708882714893 764.781110849582 -3.37757928446123
vertex 19.7715499476374 763.967248608707 -2.75836458319416
vertex 19.7708909929737 764.774964432594 -3.37814702788709
endloop
endfacet
facet normal 0.000678232642689367 -0.707106508600874 -0.707106728503388
outer loop
vertex 19.7715499476374 763.967248608707 -2.75836458319416
vertex 26.7708882714893 764.781110849582 -3.37757928446123
vertex 26.771547226153 763.973395025695 -2.7577968397683
endloop
endfacet
facet normal 0.999999611216512 0.00087805956967592 8.1106203698035e-05
outer loop
vertex 29.2732469840998 761.903367076721 -1.29397327461161
vertex 29.2730370657979 761.903367076721 1.29421617016792
vertex 29.2732916206622 761.73299633952 0.000121459911303299
endloop
endfacet
facet normal 0.999999611216512 0.00087805956967592 8.1106203698035e-05
outer loop
vertex 29.2730370657979 761.903367076721 1.29421617016792
vertex 29.2732469840998 761.903367076721 -1.29397327461161
vertex 29.2729061980187 762.402868804134 -2.49987761583574
endloop
endfacet
facet normal 0.999999611216512 0.00087805956967592 8.1106203698035e-05
outer loop
vertex 29.2730370657979 761.903367076721 1.29421617016792
vertex 29.2729061980187 762.402868804134 -2.49987761583574
vertex 29.2725006670002 762.402868804134 2.50012044024689
endloop
endfacet
facet normal 0.999999611216512 0.00087805956967592 8.1106203698035e-05
outer loop
vertex 29.2725006670002 762.402868804134 2.50012044024689
vertex 29.2729061980187 762.402868804134 -2.49987761583574
vertex 29.272292486427 763.197461304501 -3.53541117575782
endloop
endfacet
facet normal 0.999999611216512 0.00087805956967592 8.1106203698035e-05
outer loop
vertex 29.2725006670002 762.402868804134 2.50012044024689
vertex 29.272292486427 763.197461304501 -3.53541117575782
vertex 29.2717189789606 763.197461304501 3.53565388699336
endloop
endfacet
facet normal 0.999999611216512 0.00087805956967592 8.1106203698035e-05
outer loop
vertex 29.2717189789606 763.197461304501 3.53565388699336
vertex 29.272292486427 763.197461304501 -3.53541117575782
vertex 29.2714476727555 764.232994412049 -4.33000405356927
endloop
endfacet
facet normal 0.999999611216512 0.00087805956967592 8.1106203698035e-05
outer loop
vertex 29.2717189789606 763.197461304501 3.53565388699336
vertex 29.2714476727555 764.232994412049 -4.33000405356927
vertex 29.2710964734377 764.232993448313 0.000121281871177255
endloop
endfacet
facet normal 0.999999611216512 0.00087805956967592 8.1106203698035e-05
outer loop
vertex 29.2710964734377 764.232993448313 0.000121281871177255
vertex 29.2714476727555 764.232994412049 -4.33000405356927
vertex 29.2701744991289 765.482992966445 -2.16494230948889
endloop
endfacet
facet normal 0.999999611216512 0.00087805956967592 8.1106203698035e-05
outer loop
vertex 29.2701744991289 765.482992966445 -2.16494230948889
vertex 29.2714476727555 764.232994412049 -4.33000405356927
vertex 29.2704293296599 765.438898256798 -4.82950605777406
endloop
endfacet
facet normal 0.999999611216512 0.00087805956967592 8.1106203698035e-05
outer loop
vertex 29.2701744991289 765.482992966445 -2.16494230948889
vertex 29.2704293296599 765.438898256798 -4.82950605777406
vertex 29.2693068555392 766.732992484577 -4.99987695225173
endloop
endfacet
facet normal 0.999999611216512 0.00087805956967592 8.1106203698035e-05
outer loop
vertex 29.2701744991289 765.482992966445 -2.16494230948889
vertex 29.2693068555392 766.732992484577 -4.99987695225173
vertex 29.267979350212 767.982992002709 -2.16494248752915
endloop
endfacet
facet normal 0.999999611216512 0.00087805956967592 8.1106203698035e-05
outer loop
vertex 29.267979350212 767.982992002709 -2.16494248752915
vertex 29.2693068555392 766.732992484577 -4.99987695225173
vertex 29.2681567451498 768.027086712357 -4.82950624209483
endloop
endfacet
facet normal 0.999999611216512 0.00087805956967592 8.1106203698035e-05
outer loop
vertex 29.267979350212 767.982992002709 -2.16494248752915
vertex 29.2681567451498 768.027086712357 -4.82950624209483
vertex 29.2667061756038 769.232991520841 0.000120925790647398
endloop
endfacet
facet normal 0.999999611216512 0.00087805956967592 8.1106203698035e-05
outer loop
vertex 29.2667061756038 769.232991520841 0.000120925790647398
vertex 29.2681567451498 768.027086712357 -4.82950624209483
vertex 29.267057376614 769.232990557106 -4.33000440964966
endloop
endfacet
facet normal 0.999999611216512 0.00087805956967592 8.1106203698035e-05
outer loop
vertex 29.2667061756038 769.232991520841 0.000120925790647398
vertex 29.267057376614 769.232990557106 -4.33000440964966
vertex 29.2660836700808 770.268523664654 -3.53541167933154
endloop
endfacet
facet normal 0.999999611216512 0.00087805956967592 8.1106203698035e-05
outer loop
vertex 29.2710964734377 764.232993448313 0.000121281871177255
vertex 29.2707452724274 764.232994412049 4.33024661731148
vertex 29.2717189789606 763.197461304501 3.53565388699336
endloop
endfacet
facet normal 0.999999611216512 0.00087805956967592 8.1106203698035e-05
outer loop
vertex 29.2707452724274 764.232994412049 4.33024661731148
vertex 29.2710964734377 764.232993448313 0.000121281871177255
vertex 29.2698232988295 765.482992966445 2.16518469519098
endloop
endfacet
facet normal 0.999999611216512 0.00087805956967592 8.1106203698035e-05
outer loop
vertex 29.2707452724274 764.232994412049 4.33024661731148
vertex 29.2698232988295 765.482992966445 2.16518469519098
vertex 29.2696459038917 765.438898256798 4.82974844975665
endloop
endfacet
facet normal 0.999999611216512 0.00087805956967592 8.1106203698035e-05
outer loop
vertex 29.2696459038917 765.438898256798 4.82974844975665
vertex 29.2698232988295 765.482992966445 2.16518469519098
vertex 29.2684957935022 766.732992484577 5.00011915991355
endloop
endfacet
facet normal 0.999999611216512 0.00087805956967592 8.1106203698035e-05
outer loop
vertex 29.2684957935022 766.732992484577 5.00011915991355
vertex 29.2698232988295 765.482992966445 2.16518469519098
vertex 29.2676281499126 767.982992002709 2.16518451715071
endloop
endfacet
facet normal 0.999999611216512 0.00087805956967592 8.1106203698035e-05
outer loop
vertex 29.2684957935022 766.732992484577 5.00011915991355
vertex 29.2676281499126 767.982992002709 2.16518451715071
vertex 29.2673733193815 768.027086712357 4.82974826543588
endloop
endfacet
facet normal 0.999999611216512 0.00087805956967592 8.1106203698035e-05
outer loop
vertex 29.2673733193815 768.027086712357 4.82974826543588
vertex 29.2676281499126 767.982992002709 2.16518451715071
vertex 29.2667061756038 769.232991520841 0.000120925790647398
endloop
endfacet
facet normal 0.999999611216512 0.00087805956967592 8.1106203698035e-05
outer loop
vertex 29.2673733193815 768.027086712357 4.82974826543588
vertex 29.2667061756038 769.232991520841 0.000120925790647398
vertex 29.2663549762859 769.232990557106 4.33024626123109
endloop
endfacet
facet normal 0.999999611216512 0.00087805956967592 8.1106203698035e-05
outer loop
vertex 29.2663549762859 769.232990557106 4.33024626123109
vertex 29.2667061756038 769.232991520841 0.000120925790647398
vertex 29.2655101626145 770.268523664654 3.53565338341964
endloop
endfacet
facet normal 0.999999611216512 0.00087805956967592 8.1106203698035e-05
outer loop
vertex 29.2655101626145 770.268523664654 3.53565338341964
vertex 29.2667061756038 769.232991520841 0.000120925790647398
vertex 29.2660836700808 770.268523664654 -3.53541167933154
endloop
endfacet
facet normal 0.999999611216512 0.00087805956967592 8.1106203698035e-05
outer loop
vertex 29.2655101626145 770.268523664654 3.53565338341964
vertex 29.2660836700808 770.268523664654 -3.53541167933154
vertex 29.2653019820413 771.063116165021 -2.49987823258507
endloop
endfacet
facet normal 0.999999611216512 0.00087805956967592 8.1106203698035e-05
outer loop
vertex 29.2655101626145 770.268523664654 3.53565338341964
vertex 29.2653019820413 771.063116165021 -2.49987823258507
vertex 29.2648964510228 771.063116165021 2.50011982349757
endloop
endfacet
facet normal 0.999999611216512 0.00087805956967592 8.1106203698035e-05
outer loop
vertex 29.2648964510228 771.063116165021 2.50011982349757
vertex 29.2653019820413 771.063116165021 -2.49987823258507
vertex 29.2647655832436 771.562617892434 -1.2939739625061
endloop
endfacet
facet normal 0.999999611216512 0.00087805956967592 8.1106203698035e-05
outer loop
vertex 29.2648964510228 771.063116165021 2.50011982349757
vertex 29.2647655832436 771.562617892434 -1.2939739625061
vertex 29.2645556649416 771.562617892434 1.29421548227344
endloop
endfacet
facet normal 0.999999611216512 0.00087805956967592 8.1106203698035e-05
outer loop
vertex 29.2645556649416 771.562617892434 1.29421548227344
vertex 29.2647655832436 771.562617892434 -1.2939739625061
vertex 29.2645110283792 771.732988629634 0.000120747750520741
endloop
endfacet
facet normal -0.00014891593159446 0.258818945329242 -0.965925841544114
outer loop
vertex 26.7683213479568 767.740502843823 -3.76719099151117
vertex 19.769221155545 766.724962929167 -3.90064788885941
vertex 19.7683240694412 767.734356426835 -3.76775873493703
endloop
endfacet
facet normal 8.11062349605078e-05 7.39622121338695e-16 -0.999999996710889
outer loop
vertex 19.769221155545 766.724962929167 -3.90064788885941
vertex 26.7683213479568 767.740502843823 -3.76719099151117
vertex 26.7692184340605 766.731109346154 -3.90008014543355
endloop
endfacet
facet normal -0.000869132250852581 0.965925453930089 0.258818975461774
outer loop
vertex 19.7655152268789 770.492070747295 1.0087442100702
vertex 26.7654776888758 770.631106339299 -8.19394318102073e-05
vertex 19.7654804103602 770.624959922311 -0.00064968285767002
endloop
endfacet
facet normal -0.000881134133474006 0.991444479177387 0.130526121183921
outer loop
vertex 26.7654776888758 770.631106339299 -8.19394318102073e-05
vertex 19.7655152268789 770.492070747295 1.0087442100702
vertex 26.7655125053945 770.498217164282 1.00931195349606
endloop
endfacet
facet normal 0.703636897904867 0.432922700057021 0.563447470206544
outer loop
vertex 29.2655101626145 770.268523664654 3.53565338341964
vertex 28.2658460954225 769.732112112042 5.19619018650732
vertex 29.2663549762859 769.232990557106 4.33024626123109
endloop
endfacet
facet normal 0.703636897904867 0.432922700057021 0.563447470206544
outer loop
vertex 28.2658460954225 769.732112112042 5.19619018650732
vertex 29.2655101626145 770.268523664654 3.53565338341964
vertex 28.2648323190168 770.974751841099 4.2426787331336
endloop
endfacet
facet normal 0.000584020383395451 -0.793353166267395 -0.60876137565855
outer loop
vertex 28.2729711044542 762.489480279941 -4.24259546685305
vertex 26.7737079680636 761.534960929622 -3.00008012528903
vertex 26.7729715141536 762.488471930063 -4.24272039719549
endloop
endfacet
facet normal 0.000584020383395451 -0.793353166267395 -0.60876137565855
outer loop
vertex 26.7737079680636 761.534960929622 -3.00008012528903
vertex 28.2729711044542 762.489480279941 -4.24259546685305
vertex 28.2737075577965 761.535970014646 -2.99995615300808
endloop
endfacet
facet normal 0.703923688982144 0.0933097894805875 0.704119821675869
outer loop
vertex 28.2684150760821 766.732114425007 6.00003766492625
vertex 29.2673733193815 768.027086712357 4.82974826543588
vertex 28.2670681071372 768.285027498343 5.79559259155305
endloop
endfacet
facet normal 0.703923688982144 0.0933097894805875 0.704119821675869
outer loop
vertex 29.2673733193815 768.027086712357 4.82974826543588
vertex 28.2684150760821 766.732114425007 6.00003766492625
vertex 29.2684957935022 766.732992484577 5.00011915991355
endloop
endfacet
facet normal 0.703508143803074 0.656699971310551 -0.271701010825273
outer loop
vertex 28.2645825023289 771.92826284154 -2.9999592060719
vertex 29.2647655832436 771.562617892434 -1.2939739625061
vertex 29.2653019820413 771.063116165021 -2.49987823258507
endloop
endfacet
facet normal 0.703508143803074 0.656699971310551 -0.271701010825273
outer loop
vertex 29.2647655832436 771.562617892434 -1.2939739625061
vertex 28.2645825023289 771.92826284154 -2.9999592060719
vertex 28.2639388237716 772.527664914435 -1.55287408197717
endloop
endfacet
facet normal 0.000485271692577916 -0.793353166267393 0.608761462384805
outer loop
vertex 28.2732209209495 761.535970014646 3.00003688836113
vertex 26.7722833051941 762.488471930063 4.24255767810574
vertex 26.7732213308415 761.534960929622 2.99991754201001
endloop
endfacet
facet normal 0.000485271692577916 -0.793353166267393 0.608761462384805
outer loop
vertex 26.7722833051941 762.488471930063 4.24255767810574
vertex 28.2732209209495 761.535970014646 3.00003688836113
vertex 28.2722828960253 762.489480279941 4.24267606639547
endloop
endfacet
facet normal 0.00047530564996811 -0.608761298187936 -0.793353298293438
outer loop
vertex 28.2719573288301 763.732119050937 -5.1961061850803
vertex 26.7729715141536 762.488471930063 -4.24272039719549
vertex 26.7719577377479 763.73111165912 -5.19623185056921
endloop
endfacet
facet normal 0.00047530564996811 -0.608761298187936 -0.793353298293438
outer loop
vertex 26.7729715141536 762.488471930063 -4.24272039719549
vertex 28.2719573288301 763.732119050937 -5.1961061850803
vertex 28.2729711044542 762.489480279941 -4.24259546685305
endloop
endfacet
facet normal 0.000346613849853451 -0.608761298187961 0.793353364956214
outer loop
vertex 26.7722833051941 762.488471930063 4.24255767810574
vertex 28.2711144490863 763.732119050937 5.19618660763087
vertex 26.7711148573542 763.73111165912 5.19606895448747
endloop
endfacet
facet normal 0.000346613849853451 -0.608761298187961 0.793353364956214
outer loop
vertex 28.2711144490863 763.732119050937 5.19618660763087
vertex 26.7722833051941 762.488471930063 4.24255767810574
vertex 28.2722828960253 762.489480279941 4.24267606639547
endloop
endfacet
facet normal 0.704520167930823 -0.562773266402673 0.432362791647468
outer loop
vertex 29.2725006670002 762.402868804134 2.50012044024689
vertex 28.2722828960253 762.489480279941 4.24267606639547
vertex 28.2732209209495 761.535970014646 3.00003688836113
endloop
endfacet
facet normal 0.704520167930823 -0.562773266402673 0.432362791647468
outer loop
vertex 28.2722828960253 762.489480279941 4.24267606639547
vertex 29.2725006670002 762.402868804134 2.50012044024689
vertex 29.2717189789606 763.197461304501 3.53565388699336
endloop
endfacet
facet normal 8.57683094893874e-06 -0.130527615891383 0.991444673905786
outer loop
vertex 26.7697956151113 765.178196272818 5.79547115342166
vertex 28.2684150760821 766.732114425007 6.00003766492625
vertex 26.768415482644 766.731109346154 5.99991600560993
endloop
endfacet
facet normal 8.57683094893874e-06 -0.130527615891383 0.991444673905786
outer loop
vertex 28.2684150760821 766.732114425007 6.00003766492625
vertex 26.7697956151113 765.178196272818 5.79547115342166
vertex 28.2697952078605 765.17920254895 5.7955883444328
endloop
endfacet
facet normal 0.704085646378435 -0.0920746955948029 0.704120481874364
outer loop
vertex 28.2697952078605 765.17920254895 5.7955883444328
vertex 29.2684957935022 766.732992484577 5.00011915991355
vertex 28.2684150760821 766.732114425007 6.00003766492625
endloop
endfacet
facet normal 0.704085646378435 -0.0920746955948029 0.704120481874364
outer loop
vertex 29.2684957935022 766.732992484577 5.00011915991355
vertex 28.2697952078605 765.17920254895 5.7955883444328
vertex 29.2696459038917 765.438898256798 4.82974844975665
endloop
endfacet
facet normal 0.704245947005519 -0.271140379899635 0.656140640803617
outer loop
vertex 29.2707452724274 764.232994412049 4.33024661731148
vertex 28.2697952078605 765.17920254895 5.7955883444328
vertex 28.2711144490863 763.732119050937 5.19618660763087
endloop
endfacet
facet normal 0.704245947005519 -0.271140379899635 0.656140640803617
outer loop
vertex 28.2697952078605 765.17920254895 5.7955883444328
vertex 29.2707452724274 764.232994412049 4.33024661731148
vertex 29.2696459038917 765.438898256798 4.82974844975665
endloop
endfacet
facet normal 0.703876774189541 0.272376172843754 -0.656024928812553
outer loop
vertex 28.2680082180591 768.285027498343 -5.79551281748356
vertex 29.267057376614 769.232990557106 -4.33000440964966
vertex 29.2681567451498 768.027086712357 -4.82950624209483
endloop
endfacet
facet normal 0.703876774189541 0.272376172843754 -0.656024928812553
outer loop
vertex 29.267057376614 769.232990557106 -4.33000440964966
vertex 28.2680082180591 768.285027498343 -5.79551281748356
vertex 28.2666889758161 769.732112112042 -5.19611061854936
endloop
endfacet
facet normal 0.703602553893056 0.564008390606485 -0.43224759279914
outer loop
vertex 28.2655205279763 770.974751841099 -4.24259934216764
vertex 29.2653019820413 771.063116165021 -2.49987823258507
vertex 29.2660836700808 770.268523664654 -3.53541167933154
endloop
endfacet
facet normal 0.703602553893056 0.564008390606485 -0.43224759279914
outer loop
vertex 29.2653019820413 771.063116165021 -2.49987823258507
vertex 28.2655205279763 770.974751841099 -4.24259934216764
vertex 28.2645825023289 771.92826284154 -2.9999592060719
endloop
endfacet
facet normal 0.703464061255515 0.656699971310544 0.271815125043893
outer loop
vertex 29.2645556649416 771.562617892434 1.29421548227344
vertex 28.2640958651067 771.92826284154 3.00003846122714
vertex 29.2648964510228 771.063116165021 2.50011982349757
endloop
endfacet
facet normal 0.703464061255515 0.656699971310544 0.271815125043893
outer loop
vertex 28.2640958651067 771.92826284154 3.00003846122714
vertex 29.2645556649416 771.562617892434 1.29421548227344
vertex 28.2636869218093 772.527664914435 1.55295325175821
endloop
endfacet
facet normal 0.70459029329795 -0.562773266402673 -0.432248504002934
outer loop
vertex 28.2729711044542 762.489480279941 -4.24259546685305
vertex 29.2729061980187 762.402868804134 -2.49987761583574
vertex 28.2737075577965 761.535970014646 -2.99995615300808
endloop
endfacet
facet normal 0.70459029329795 -0.562773266402673 -0.432248504002934
outer loop
vertex 29.2729061980187 762.402868804134 -2.49987761583574
vertex 28.2729711044542 762.489480279941 -4.24259546685305
vertex 29.272292486427 763.197461304501 -3.53541117575782
endloop
endfacet
facet normal 0.703436454738681 0.704680664124278 0.0927486698235754
outer loop
vertex 28.2636869218093 772.527664914435 1.55295325175821
vertex 29.2645110283792 771.732988629634 0.000120747750520741
vertex 28.2636333579344 772.732109799076 3.95703307443485e-05
endloop
endfacet
facet normal 0.703436454738681 0.704680664124278 0.0927486698235754
outer loop
vertex 29.2645110283792 771.732988629634 0.000120747750520741
vertex 28.2636869218093 772.527664914435 1.55295325175821
vertex 29.2645556649416 771.562617892434 1.29421548227344
endloop
endfacet
facet normal 0.703451490474721 0.704680664124281 -0.0926345624389524
outer loop
vertex 28.2636333579344 772.732109799076 3.95703307443485e-05
vertex 29.2647655832436 771.562617892434 -1.2939739625061
vertex 28.2639388237716 772.527664914435 -1.55287408197717
endloop
endfacet
facet normal 0.703451490474721 0.704680664124281 -0.0926345624389524
outer loop
vertex 29.2647655832436 771.562617892434 -1.2939739625061
vertex 28.2636333579344 772.732109799076 3.95703307443485e-05
vertex 29.2645110283792 771.732988629634 0.000120747750520741
endloop
endfacet
facet normal 0.00033440798858523 -0.382683350931302 -0.923879505721004
outer loop
vertex 28.2707353180575 765.17920254895 -5.79550812799362
vertex 26.7719577377479 763.73111165912 -5.19623185056921
vertex 26.7707357260331 765.178196272818 -5.79563425561495
endloop
endfacet
facet normal 0.00033440798858523 -0.382683350931302 -0.923879505721004
outer loop
vertex 26.7719577377479 763.73111165912 -5.19623185056921
vertex 28.2707353180575 765.17920254895 -5.79550812799362
vertex 28.2719573288301 763.732119050937 -5.1961061850803
endloop
endfacet
facet normal 0.704037896736015 0.0933097894805926 -0.704005627212323
outer loop
vertex 28.2680082180591 768.285027498343 -5.79551281748356
vertex 29.2693068555392 766.732992484577 -4.99987695225173
vertex 28.2693883505264 766.732114425007 -5.99995766967183
endloop
endfacet
facet normal 0.704037896736015 0.0933097894805926 -0.704005627212323
outer loop
vertex 29.2693068555392 766.732992484577 -4.99987695225173
vertex 28.2680082180591 768.285027498343 -5.79551281748356
vertex 29.2681567451498 768.027086712357 -4.82950624209483
endloop
endfacet
facet normal 0.703728286853024 0.432922700057028 -0.563333324114809
outer loop
vertex 28.2666889758161 769.732112112042 -5.19611061854936
vertex 29.2660836700808 770.268523664654 -3.53541167933154
vertex 29.267057376614 769.232990557106 -4.33000440964966
endloop
endfacet
facet normal 0.703728286853024 0.432922700057028 -0.563333324114809
outer loop
vertex 29.2660836700808 770.268523664654 -3.53541167933154
vertex 28.2666889758161 769.732112112042 -5.19611061854936
vertex 28.2655205279763 770.974751841099 -4.24259934216764
endloop
endfacet
facet normal 0.704485823840252 -0.431687275261326 -0.563334554581533
outer loop
vertex 28.2719573288301 763.732119050937 -5.1961061850803
vertex 29.272292486427 763.197461304501 -3.53541117575782
vertex 28.2729711044542 762.489480279941 -4.24259546685305
endloop
endfacet
facet normal 0.704485823840252 -0.431687275261326 -0.563334554581533
outer loop
vertex 29.272292486427 763.197461304501 -3.53541117575782
vertex 28.2719573288301 763.732119050937 -5.1961061850803
vertex 29.2714476727555 764.232994412049 -4.33000405356927
endloop
endfacet
facet normal 0.704671231695524 -0.703445862495317 0.0927489825223608
outer loop
vertex 29.2732916206622 761.73299633952 0.000121459911303299
vertex 28.2738645990105 760.936568403883 1.55295287995254
vertex 28.2741700646122 760.732123676867 4.0424923354018e-05
endloop
endfacet
facet normal 0.704671231695524 -0.703445862495317 0.0927489825223608
outer loop
vertex 28.2738645990105 760.936568403883 1.55295287995254
vertex 29.2732916206622 761.73299633952 0.000121459911303299
vertex 29.2730370657979 761.903367076721 1.29421617016792
endloop
endfacet
facet normal 0.000691565582108114 -0.866035517026077 0.499982004662589
outer loop
vertex 29.267979350212 767.982992002709 -2.16494248752915
vertex 19.7667096924336 769.224961965431 -0.000649583155229749
vertex 19.7679828670418 767.974962447298 -2.16571299647503
endloop
endfacet
facet normal 0.000691565582108114 -0.866035517026077 0.499982004662589
outer loop
vertex 19.7667096924336 769.224961965431 -0.000649583155229749
vertex 29.267979350212 767.982992002709 -2.16494248752915
vertex 29.2667061756038 769.232991520841 0.000120925790647398
endloop
endfacet
facet normal 0.000776236738115699 -0.866030387041672 -0.499990766091712
outer loop
vertex 29.2667061756038 769.232991520841 0.000120925790647398
vertex 19.7676316667424 767.974962447299 2.16441400820484
vertex 19.7667096924336 769.224961965431 -0.000649583155229749
endloop
endfacet
facet normal 0.000776236738115699 -0.866030387041672 -0.499990766091712
outer loop
vertex 19.7676316667424 767.974962447299 2.16441400820484
vertex 29.2667061756038 769.232991520841 0.000120925790647398
vertex 29.2676281499126 767.982992002709 2.16518451715071
endloop
endfacet
facet normal -8.11062346356699e-05 -1.38486240935398e-13 0.999999996710889
outer loop
vertex 19.7701780159587 765.474963411035 -2.16571281843476
vertex 29.267979350212 767.982992002709 -2.16494248752915
vertex 19.7679828670418 767.974962447298 -2.16571299647503
endloop
endfacet
facet normal -8.11062346356699e-05 -1.38486240935398e-13 0.999999996710889
outer loop
vertex 29.267979350212 767.982992002709 -2.16494248752915
vertex 19.7701780159587 765.474963411035 -2.16571281843476
vertex 29.2701744991289 765.482992966445 -2.16494230948889
endloop
endfacet
facet normal -0.000264776952494787 0.499986932307332 -0.866032907813017
outer loop
vertex 28.2666889758161 769.732112112042 -5.19611061854936
vertex 26.768008624621 768.28402241949 -5.79563447679988
vertex 26.7666893823781 769.731107033188 -5.19623227786568
endloop
endfacet
facet normal -9.50909279124211e-05 0.258835118700958 -0.965921514557356
outer loop
vertex 26.768008624621 768.28402241949 -5.79563447679988
vertex 28.2666889758161 769.732112112042 -5.19611061854936
vertex 28.2680082180591 768.285027498343 -5.79551281748356
endloop
endfacet
facet normal -0.000670052595626942 0.999999775514733 -5.43452472747619e-08
outer loop
vertex 26.7636337644964 772.731104720223 -8.20889855742468e-05
vertex 28.2639388237716 772.527664914435 -1.55287408197717
vertex 26.7639392303336 772.526659835582 -1.55299574129349
endloop
endfacet
facet normal -0.000626228144461051 0.965924452975699 -0.258823412739087
outer loop
vertex 28.2639388237716 772.527664914435 -1.55287408197717
vertex 26.7636337644964 772.731104720223 -8.20889855742468e-05
vertex 28.2636333579344 772.732109799076 3.95703307443485e-05
endloop
endfacet
facet normal -0.000531154595367451 0.707115272120072 0.707098090655994
outer loop
vertex 26.7648327255787 770.973746762246 4.24255707381728
vertex 28.2640958651067 771.92826284154 3.00003846122714
vertex 26.7640962716687 771.927257762687 2.99991680191082
endloop
endfacet
facet normal -0.000620833400045696 0.866020892817237 0.500007427714754
outer loop
vertex 28.2640958651067 771.92826284154 3.00003846122714
vertex 26.7648327255787 770.973746762246 4.24255707381728
vertex 28.2648323190168 770.974751841099 4.2426787331336
endloop
endfacet
facet normal -0.000692970144624167 0.866025093241813 -0.500000057667884
outer loop
vertex 19.7698268156593 765.474963411035 2.1644141862451
vertex 29.2710964734377 764.232993448313 0.000121281871177255
vertex 19.7710999902675 764.224963892903 -0.000649227074699893
endloop
endfacet
facet normal -0.000692970144624167 0.866025093241813 -0.500000057667884
outer loop
vertex 29.2710964734377 764.232993448313 0.000121281871177255
vertex 19.7698268156593 765.474963411035 2.1644141862451
vertex 29.2698232988295 765.482992966445 2.16518469519098
endloop
endfacet
facet normal -0.000668213370601224 0.965926768653617 0.258814665522016
outer loop
vertex 26.7636873283713 772.526659835582 1.55283159244189
vertex 28.2636333579344 772.732109799076 3.95703307443485e-05
vertex 26.7636337644964 772.731104720223 -8.20889855742468e-05
endloop
endfacet
facet normal -0.000670052595626911 0.999999775514733 -5.43456399464681e-08
outer loop
vertex 28.2636333579344 772.732109799076 3.95703307443485e-05
vertex 26.7636873283713 772.526659835582 1.55283159244189
vertex 28.2636869218093 772.527664914435 1.55295325175821
endloop
endfacet
facet normal -9.50686156051871e-05 0.25880286546624 -0.965930156785894
outer loop
vertex 28.2680082180591 768.285027498343 -5.79551281748356
vertex 26.7693887570883 766.731109346154 -6.00007932898814
vertex 26.768008624621 768.28402241949 -5.79563447679988
endloop
endfacet
facet normal -7.04705825144132e-06 0.130526165694465 -0.991444864840925
outer loop
vertex 26.7693887570883 766.731109346154 -6.00007932898814
vertex 28.2680082180591 768.285027498343 -5.79551281748356
vertex 28.2693883505264 766.732114425007 -5.99995766967183
endloop
endfacet
facet normal 0.000869132250852596 -0.965925453930089 -0.258818975461774
outer loop
vertex 26.7722917343378 762.964001528026 -1.00947527687427
vertex 19.7723292723409 762.824965936022 -0.000649127372258917
vertex 19.7722944558222 762.957855111039 -1.01004302030013
endloop
endfacet
facet normal 0.000881134133474013 -0.991444479177386 -0.130526121183921
outer loop
vertex 19.7723292723409 762.824965936022 -0.000649127372258917
vertex 26.7722917343378 762.964001528026 -1.00947527687427
vertex 26.7723265508565 762.83111235301 -8.13839463984001e-05
endloop
endfacet
facet normal -0.000368789723506537 0.499999807252817 -0.866025436544035
outer loop
vertex 26.7674638404989 768.681107842726 -3.37757956220394
vertex 19.7683240694412 767.734356426835 -3.76775873493703
vertex 19.7674665619833 768.674961425739 -3.3781473056298
endloop
endfacet
facet normal -0.000148915931594461 0.258818945329243 -0.965925841544113
outer loop
vertex 19.7683240694412 767.734356426835 -3.76775873493703
vertex 26.7674638404989 768.681107842726 -3.37757956220394
vertex 26.7683213479568 767.740502843823 -3.76719099151117
endloop
endfacet
facet normal -0.000778689733668229 0.866025089289279 0.499999938363791
outer loop
vertex 19.7710999902675 764.224963892903 -0.000649227074699893
vertex 29.2701744991289 765.482992966445 -2.16494230948889
vertex 19.7701780159587 765.474963411035 -2.16571281843476
endloop
endfacet
facet normal -0.000778689733668229 0.866025089289279 0.499999938363791
outer loop
vertex 29.2701744991289 765.482992966445 -2.16494230948889
vertex 19.7710999902675 764.224963892903 -0.000649227074699893
vertex 29.2710964734377 764.232993448313 0.000121281871177255
endloop
endfacet
facet normal -0.000800975008343336 0.866025069936513 0.49999993668049
outer loop
vertex 19.7657810400222 770.102459399913 1.94934959622502
vertex 26.7655125053945 770.498217164282 1.00931195349606
vertex 19.7655152268789 770.492070747295 1.0087442100702
endloop
endfacet
facet normal -0.000869132250852581 0.965925453930089 0.258818975461775
outer loop
vertex 26.7655125053945 770.498217164282 1.00931195349606
vertex 19.7657810400222 770.102459399913 1.94934959622502
vertex 26.7657783185378 770.1086058169 1.94991733965088
endloop
endfacet
facet normal 0.000563531105215554 -0.707106508600854 0.707106829218191
outer loop
vertex 19.7711026118137 763.967248608707 2.75706616575174
vertex 26.7703403992334 764.781110849582 3.37741623882573
vertex 19.7703431207178 764.774964432594 3.37684849539987
endloop
endfacet
facet normal 0.000368789723506692 -0.499999807252818 0.866025436544034
outer loop
vertex 26.7703403992334 764.781110849582 3.37741623882573
vertex 19.7711026118137 763.967248608707 2.75706616575174
vertex 26.7710998903293 763.973395025695 2.75763390917759
endloop
endfacet
facet normal -0.000678232642689321 0.707106508600874 0.707106728503388
outer loop
vertex 19.7662597350637 769.482677249626 2.75706577296424
vertex 26.7657783185378 770.1086058169 1.94991733965088
vertex 19.7657810400222 770.102459399913 1.94934959622502
endloop
endfacet
facet normal -0.000800975008343336 0.866025069936512 0.499999936680491
outer loop
vertex 26.7657783185378 770.1086058169 1.94991733965088
vertex 19.7662597350637 769.482677249626 2.75706577296424
vertex 26.7662570135793 769.488823666614 2.75763351639009
endloop
endfacet
facet normal -0.000165287620113345 0.130533678088018 0.991443862033961
outer loop
vertex 26.768415482644 766.731109346154 5.99991600560993
vertex 28.2670681071372 768.285027498343 5.79559259155305
vertex 26.7670685136992 768.28402241949 5.79547093223674
endloop
endfacet
facet normal -0.000250451009766754 0.258806525499165 0.965929148350614
outer loop
vertex 28.2670681071372 768.285027498343 5.79559259155305
vertex 26.768415482644 766.731109346154 5.99991600560993
vertex 28.2684150760821 766.732114425007 6.00003766492625
endloop
endfacet
facet normal -0.000250472250723897 0.258838777758288 0.96592050624896
outer loop
vertex 26.7670685136992 768.28402241949 5.79547093223674
vertex 28.2658460954225 769.732112112042 5.19619018650732
vertex 26.7658465019844 769.731107033188 5.196068527191
endloop
endfacet
facet normal -0.000405258281462304 0.499986932307499 0.866032853468886
outer loop
vertex 28.2658460954225 769.732112112042 5.19619018650732
vertex 26.7670685136992 768.28402241949 5.79547093223674
vertex 28.2670681071372 768.285027498343 5.79559259155305
endloop
endfacet
facet normal -0.000539732959491345 0.866029535044988 -0.499992553062638
outer loop
vertex 26.7645829088908 771.927257762687 -3.00008086538822
vertex 28.2655205279763 770.974751841099 -4.24259934216764
vertex 26.7655209345382 770.973746762246 -4.24272100148395
endloop
endfacet
facet normal -0.000416441480965332 0.707097987664272 -0.707115451972045
outer loop
vertex 28.2655205279763 770.974751841099 -4.24259934216764
vertex 26.7645829088908 771.927257762687 -3.00008086538822
vertex 28.2645825023289 771.92826284154 -2.9999592060719
endloop
endfacet
facet normal -0.000626230397026191 0.965926768653714 -0.258814770509111
outer loop
vertex 26.7639392303336 772.526659835582 -1.55299574129349
vertex 28.2645825023289 771.92826284154 -2.9999592060719
vertex 26.7645829088908 771.927257762687 -3.00008086538822
endloop
endfacet
facet normal -0.000539725954681317 0.866020892817066 -0.500007521843649
outer loop
vertex 28.2645825023289 771.92826284154 -2.9999592060719
vertex 26.7639392303336 772.526659835582 -1.55299574129349
vertex 28.2639388237716 772.527664914435 -1.55287408197717
endloop
endfacet
facet normal -0.000405274439646629 0.500012858991503 0.86601788468586
outer loop
vertex 26.7658465019844 769.731107033188 5.196068527191
vertex 28.2648323190168 770.974751841099 4.2426787331336
vertex 26.7648327255787 770.973746762246 4.24255707381728
endloop
endfacet
facet normal -0.000531144415747925 0.707097987664458 0.707115375116737
outer loop
vertex 28.2648323190168 770.974751841099 4.2426787331336
vertex 26.7658465019844 769.731107033188 5.196068527191
vertex 28.2658460954225 769.732112112042 5.19619018650732
endloop
endfacet
facet normal 0.000591067438734236 -0.923879325894751 0.382683474719701
outer loop
vertex 28.2738645990105 760.936568403883 1.55295287995254
vertex 26.7732213308415 761.534960929622 2.99991754201001
vertex 26.7738650093987 760.935558856727 1.55283241791528
endloop
endfacet
facet normal 0.000591067438734236 -0.923879325894751 0.382683474719701
outer loop
vertex 26.7732213308415 761.534960929622 2.99991754201001
vertex 28.2738645990105 760.936568403883 1.55295287995254
vertex 28.2732209209495 761.535970014646 3.00003688836113
endloop
endfacet
facet normal 0.000800975008343394 -0.866025069936513 -0.49999993668049
outer loop
vertex 26.7720259211945 763.353612875408 -1.95008066302909
vertex 19.7722944558222 762.957855111039 -1.01004302030013
vertex 19.7720286426789 763.347466458421 -1.95064840645495
endloop
endfacet
facet normal 0.000869132250852596 -0.965925453930088 -0.258818975461775
outer loop
vertex 19.7722944558222 762.957855111039 -1.01004302030013
vertex 26.7720259211945 763.353612875408 -1.95008066302909
vertex 26.7722917343378 762.964001528026 -1.00947527687427
endloop
endfacet
facet normal -0.999999611216512 -0.000878059569672491 -8.11062036915887e-05
outer loop
vertex 19.7710999902675 764.224963892903 -0.000649227074699893
vertex 19.7722944558222 762.957855111039 -1.01004302030013
vertex 19.7723292723409 762.824965936022 -0.000649127372258917
endloop
endfacet
facet normal -0.999999611216512 -0.000878059569672491 -8.11062036915887e-05
outer loop
vertex 19.7722944558222 762.957855111039 -1.01004302030013
vertex 19.7710999902675 764.224963892903 -0.000649227074699893
vertex 19.7720286426789 763.347466458421 -1.95064840645495
endloop
endfacet
facet normal -0.999999611216512 -0.000878059569672491 -8.11062036915887e-05
outer loop
vertex 19.7720286426789 763.347466458421 -1.95064840645495
vertex 19.7710999902675 764.224963892903 -0.000649227074699893
vertex 19.7715499476374 763.967248608707 -2.75836458319416
endloop
endfacet
facet normal -0.999999611216512 -0.000878059569672491 -8.11062036915887e-05
outer loop
vertex 19.7715499476374 763.967248608707 -2.75836458319416
vertex 19.7710999902675 764.224963892903 -0.000649227074699893
vertex 19.7708909929737 764.774964432594 -3.37814702788709
endloop
endfacet
facet normal -0.999999611216512 -0.000878059569672491 -8.11062036915887e-05
outer loop
vertex 19.7708909929737 764.774964432594 -3.37814702788709
vertex 19.7710999902675 764.224963892903 -0.000649227074699893
vertex 19.7701780159587 765.474963411035 -2.16571281843476
endloop
endfacet
facet normal -0.999999611216512 -0.000878059569672491 -8.11062036915887e-05
outer loop
vertex 19.7708909929737 764.774964432594 -3.37814702788709
vertex 19.7701780159587 765.474963411035 -2.16571281843476
vertex 19.7700966853591 765.715569431498 -3.76775859116683
endloop
endfacet
facet normal -0.999999611216512 -0.000878059569672491 -8.11062036915887e-05
outer loop
vertex 19.7700966853591 765.715569431498 -3.76775859116683
vertex 19.7701780159587 765.474963411035 -2.16571281843476
vertex 19.7679828670418 767.974962447298 -2.16571299647503
endloop
endfacet
facet normal -0.999999611216512 -0.000878059569672491 -8.11062036915887e-05
outer loop
vertex 19.7700966853591 765.715569431498 -3.76775859116683
vertex 19.7679828670418 767.974962447298 -2.16571299647503
vertex 19.769221155545 766.724962929167 -3.90064788885941
endloop
endfacet
facet normal -0.999999611216512 -0.000878059569672491 -8.11062036915887e-05
outer loop
vertex 19.769221155545 766.724962929167 -3.90064788885941
vertex 19.7679828670418 767.974962447298 -2.16571299647503
vertex 19.7683240694412 767.734356426835 -3.76775873493703
endloop
endfacet
facet normal -0.999999611216512 -0.000878059569672491 -8.11062036915887e-05
outer loop
vertex 19.7683240694412 767.734356426835 -3.76775873493703
vertex 19.7679828670418 767.974962447298 -2.16571299647503
vertex 19.7674665619833 768.674961425739 -3.3781473056298
endloop
endfacet
facet normal -0.999999611216512 -0.000878059569672491 -8.11062036915887e-05
outer loop
vertex 19.7674665619833 768.674961425739 -3.3781473056298
vertex 19.7679828670418 767.974962447298 -2.16571299647503
vertex 19.7667096924336 769.224961965431 -0.000649583155229749
endloop
endfacet
facet normal -0.999999611216512 -0.000878059569672491 -8.11062036915887e-05
outer loop
vertex 19.7674665619833 768.674961425739 -3.3781473056298
vertex 19.7667096924336 769.224961965431 -0.000649583155229749
vertex 19.7667070708874 769.482677249626 -2.75836497598166
endloop
endfacet
facet normal -0.999999611216512 -0.000878059569672491 -8.11062036915887e-05
outer loop
vertex 19.7667070708874 769.482677249626 -2.75836497598166
vertex 19.7667096924336 769.224961965431 -0.000649583155229749
vertex 19.7654804103602 770.624959922311 -0.00064968285767002
endloop
endfacet
facet normal -0.999999611216512 -0.000878059569672491 -8.11062036915887e-05
outer loop
vertex 19.7667070708874 769.482677249626 -2.75836497598166
vertex 19.7654804103602 770.624959922311 -0.00064968285767002
vertex 19.7660973542166 770.102459399913 -1.95064888751943
endloop
endfacet
facet normal -0.999999611216512 -0.000878059569672491 -8.11062036915887e-05
outer loop
vertex 19.7660973542166 770.102459399913 -1.95064888751943
vertex 19.7654804103602 770.624959922311 -0.00064968285767002
vertex 19.7656789631544 770.492070747295 -1.01004355685783
endloop
endfacet
facet normal 8.11062349605092e-05 -9.35666539042925e-16 -0.999999996710889
outer loop
vertex 26.7692184340605 766.731109346154 -3.90008014543355
vertex 19.7700966853591 765.715569431498 -3.76775859116683
vertex 19.769221155545 766.724962929167 -3.90064788885941
endloop
endfacet
facet normal 0.000305601145637153 -0.258818945329226 -0.965925804679949
outer loop
vertex 19.7700966853591 765.715569431498 -3.76775859116683
vertex 26.7692184340605 766.731109346154 -3.90008014543355
vertex 26.7700939638747 765.721715848486 -3.76719084774097
endloop
endfacet
facet normal -0.000719868773383044 0.866025069936512 -0.500000060030404
outer loop
vertex 19.7660973542166 770.102459399913 -1.95064888751943
vertex 26.766704349403 769.488823666614 -2.7577972325558
vertex 19.7667070708874 769.482677249626 -2.75836497598166
endloop
endfacet
facet normal -0.000563531105215416 0.707106508600855 -0.70710682921819
outer loop
vertex 26.766704349403 769.488823666614 -2.7577972325558
vertex 19.7660973542166 770.102459399913 -1.95064888751943
vertex 26.7660946327322 770.1086058169 -1.95008114409357
endloop
endfacet
facet normal -0.000416441480965332 0.707097987664272 -0.707115451972045
outer loop
vertex 28.2655205279763 770.974751841099 -4.24259934216764
vertex 26.7666893823781 769.731107033188 -5.19623227786568
vertex 26.7655209345382 770.973746762246 -4.24272100148395
endloop
endfacet
facet normal -0.00026479553880233 0.500012858991675 -0.866017939032612
outer loop
vertex 26.7666893823781 769.731107033188 -5.19623227786568
vertex 28.2655205279763 770.974751841099 -4.24259934216764
vertex 28.2666889758161 769.732112112042 -5.19611061854936
endloop
endfacet
facet normal -0.00062083797673259 0.866029535044819 0.499992458933394
outer loop
vertex 26.7640962716687 771.927257762687 2.99991680191082
vertex 28.2636869218093 772.527664914435 1.55295325175821
vertex 26.7636873283713 772.526659835582 1.55283159244189
endloop
endfacet
facet normal -0.00066821251991361 0.965924452975798 0.258823307751511
outer loop
vertex 28.2636869218093 772.527664914435 1.55295325175821
vertex 26.7640962716687 771.927257762687 2.99991680191082
vertex 28.2640958651067 771.92826284154 3.00003846122714
endloop
endfacet
facet normal -8.1106234960358e-05 1.30102204476444e-15 0.999999996710889
outer loop
vertex 19.7685885271562 766.724962929167 3.89934907862948
vertex 26.7677102758576 767.740502843823 3.76702752436276
vertex 19.767712997342 767.734356426835 3.7664597809369
endloop
endfacet
facet normal -0.00030560114563715 0.258818945329226 0.965925804679949
outer loop
vertex 26.7677102758576 767.740502843823 3.76702752436276
vertex 19.7685885271562 766.724962929167 3.89934907862948
vertex 26.7685858056717 766.731109346154 3.89991682205534
endloop
endfacet
facet normal 0.000368789723506691 -0.499999807252817 0.866025436544035
outer loop
vertex 19.7703431207178 764.774964432594 3.37684849539987
vertex 26.7694828917755 765.721715848486 3.76702766813296
vertex 19.7694856132599 765.715569431498 3.7664599247071
endloop
endfacet
facet normal 0.000148915931594656 -0.258818945329243 0.965925841544113
outer loop
vertex 26.7694828917755 765.721715848486 3.76702766813296
vertex 19.7703431207178 764.774964432594 3.37684849539987
vertex 26.7703403992334 764.781110849582 3.37741623882573
endloop
endfacet
facet normal 0.000719868773383162 -0.866025069936513 0.500000060030404
outer loop
vertex 26.7717096070001 763.353612875408 1.94991782071536
vertex 19.7711026118137 763.967248608707 2.75706616575174
vertex 19.7717123284845 763.347466458421 1.9493500772895
endloop
endfacet
facet normal 0.000563531105215554 -0.707106508600854 0.707106829218191
outer loop
vertex 19.7711026118137 763.967248608707 2.75706616575174
vertex 26.7717096070001 763.353612875408 1.94991782071536
vertex 26.7710998903293 763.973395025695 2.75763390917759
endloop
endfacet
facet normal -0.000827148574284012 0.965925453930089 -0.258819113040726
outer loop
vertex 19.7656789631544 770.492070747295 -1.01004355685783
vertex 26.7660946327322 770.1086058169 -1.95008114409357
vertex 19.7660973542166 770.102459399913 -1.95064888751943
endloop
endfacet
facet normal -0.000719868773383044 0.866025069936512 -0.500000060030405
outer loop
vertex 26.7660946327322 770.1086058169 -1.95008114409357
vertex 19.7656789631544 770.492070747295 -1.01004355685783
vertex 26.76567624167 770.498217164282 -1.00947581343197
endloop
endfacet
facet normal -0.000563531105215416 0.707106508600855 -0.70710682921819
outer loop
vertex 26.766704349403 769.488823666614 -2.7577972325558
vertex 19.7674665619833 768.674961425739 -3.3781473056298
vertex 19.7667070708874 769.482677249626 -2.75836497598166
endloop
endfacet
facet normal -0.000368789723506538 0.499999807252818 -0.866025436544034
outer loop
vertex 19.7674665619833 768.674961425739 -3.3781473056298
vertex 26.766704349403 769.488823666614 -2.7577972325558
vertex 26.7674638404989 768.681107842726 -3.37757956220394
endloop
endfacet
facet normal -0.000859961157444668 0.991444479177387 -0.130526262397605
outer loop
vertex 19.7654804103602 770.624959922311 -0.00064968285767002
vertex 26.76567624167 770.498217164282 -1.00947581343197
vertex 19.7656789631544 770.492070747295 -1.01004355685783
endloop
endfacet
facet normal -0.000827148574284012 0.965925453930089 -0.258819113040726
outer loop
vertex 26.76567624167 770.498217164282 -1.00947581343197
vertex 19.7654804103602 770.624959922311 -0.00064968285767002
vertex 26.7654776888758 770.631106339299 -8.19394318102073e-05
endloop
endfacet
facet normal -0.999999611216512 -0.00087805956967198 -8.11062036934686e-05
outer loop
vertex 26.7738650093987 760.935558856727 1.55283241791528
vertex 26.774116911361 760.935558856727 -1.5529949158201
vertex 26.7741704752359 760.731113972086 -8.12343926357706e-05
endloop
endfacet
facet normal -0.999999611216512 -0.00087805956967198 -8.11062036934686e-05
outer loop
vertex 26.774116911361 760.935558856727 -1.5529949158201
vertex 26.7738650093987 760.935558856727 1.55283241791528
vertex 26.7732213308415 761.534960929622 2.99991754201001
endloop
endfacet
facet normal -0.999999611216512 -0.00087805956967198 -8.11062036934686e-05
outer loop
vertex 26.774116911361 760.935558856727 -1.5529949158201
vertex 26.7732213308415 761.534960929622 2.99991754201001
vertex 26.7737079680636 761.534960929622 -3.00008012528903
endloop
endfacet
facet normal -0.999999611216512 -0.00087805956967198 -8.11062036934686e-05
outer loop
vertex 26.7737079680636 761.534960929622 -3.00008012528903
vertex 26.7732213308415 761.534960929622 2.99991754201001
vertex 26.7722833051941 762.488471930063 4.24255767810574
endloop
endfacet
facet normal -0.999999611216512 -0.00087805956967198 -8.11062036934686e-05
outer loop
vertex 26.7737079680636 761.534960929622 -3.00008012528903
vertex 26.7722833051941 762.488471930063 4.24255767810574
vertex 26.7729715141536 762.488471930063 -4.24272039719549
endloop
endfacet
facet normal -0.999999611216512 -0.00087805956967198 -8.11062036934686e-05
outer loop
vertex 26.7729715141536 762.488471930063 -4.24272039719549
vertex 26.7722833051941 762.488471930063 4.24255767810574
vertex 26.7723265508565 762.83111235301 -8.13839463984001e-05
endloop
endfacet
facet normal -0.999999611216512 -0.00087805956967198 -8.11062036934686e-05
outer loop
vertex 26.7723265508565 762.83111235301 -8.13839463984001e-05
vertex 26.7722833051941 762.488471930063 4.24255767810574
vertex 26.7721279980623 762.964001528026 1.00931249005376
endloop
endfacet
facet normal -0.999999611216512 -0.00087805956967198 -8.11062036934686e-05
outer loop
vertex 26.7721279980623 762.964001528026 1.00931249005376
vertex 26.7722833051941 762.488471930063 4.24255767810574
vertex 26.7711148573542 763.73111165912 5.19606895448747
endloop
endfacet
facet normal -0.999999611216512 -0.00087805956967198 -8.11062036934686e-05
outer loop
vertex 26.7721279980623 762.964001528026 1.00931249005376
vertex 26.7711148573542 763.73111165912 5.19606895448747
vertex 26.7717096070001 763.353612875408 1.94991782071536
endloop
endfacet
facet normal -0.999999611216512 -0.00087805956967198 -8.11062036934686e-05
outer loop
vertex 26.7717096070001 763.353612875408 1.94991782071536
vertex 26.7711148573542 763.73111165912 5.19606895448747
vertex 26.7710998903293 763.973395025695 2.75763390917759
endloop
endfacet
facet normal -0.999999611216512 -0.00087805956967198 -8.11062036934686e-05
outer loop
vertex 26.7710998903293 763.973395025695 2.75763390917759
vertex 26.7711148573542 763.73111165912 5.19606895448747
vertex 26.7697956151113 765.178196272818 5.79547115342166
endloop
endfacet
facet normal -0.999999611216512 -0.00087805956967198 -8.11062036934686e-05
outer loop
vertex 26.7710998903293 763.973395025695 2.75763390917759
vertex 26.7697956151113 765.178196272818 5.79547115342166
vertex 26.7703403992334 764.781110849582 3.37741623882573
endloop
endfacet
facet normal -0.999999611216512 -0.00087805956967198 -8.11062036934686e-05
outer loop
vertex 26.7703403992334 764.781110849582 3.37741623882573
vertex 26.7697956151113 765.178196272818 5.79547115342166
vertex 26.7694828917755 765.721715848486 3.76702766813296
endloop
endfacet
facet normal -0.999999611216512 -0.00087805956967198 -8.11062036934686e-05
outer loop
vertex 26.7694828917755 765.721715848486 3.76702766813296
vertex 26.7697956151113 765.178196272818 5.79547115342166
vertex 26.768415482644 766.731109346154 5.99991600560993
endloop
endfacet
facet normal -0.999999611216512 -0.00087805956967198 -8.11062036934686e-05
outer loop
vertex 26.7694828917755 765.721715848486 3.76702766813296
vertex 26.768415482644 766.731109346154 5.99991600560993
vertex 26.7685858056717 766.731109346154 3.89991682205534
endloop
endfacet
facet normal -0.999999611216512 -0.00087805956967198 -8.11062036934686e-05
outer loop
vertex 26.7685858056717 766.731109346154 3.89991682205534
vertex 26.768415482644 766.731109346154 5.99991600560993
vertex 26.7670685136992 768.28402241949 5.79547093223674
endloop
endfacet
facet normal -0.999999611216512 -0.00087805956967198 -8.11062036934686e-05
outer loop
vertex 26.7685858056717 766.731109346154 3.89991682205534
vertex 26.7670685136992 768.28402241949 5.79547093223674
vertex 26.7677102758576 767.740502843823 3.76702752436276
endloop
endfacet
facet normal -0.999999611216512 -0.00087805956967198 -8.11062036934686e-05
outer loop
vertex 26.7677102758576 767.740502843823 3.76702752436276
vertex 26.7670685136992 768.28402241949 5.79547093223674
vertex 26.766915968243 768.681107842726 3.37741596108302
endloop
endfacet
facet normal -0.999999611216512 -0.00087805956967198 -8.11062036934686e-05
outer loop
vertex 26.766915968243 768.681107842726 3.37741596108302
vertex 26.7670685136992 768.28402241949 5.79547093223674
vertex 26.7658465019844 769.731107033188 5.196068527191
endloop
endfacet
facet normal -0.999999611216512 -0.00087805956967198 -8.11062036934686e-05
outer loop
vertex 26.766915968243 768.681107842726 3.37741596108302
vertex 26.7658465019844 769.731107033188 5.196068527191
vertex 26.7662570135793 769.488823666614 2.75763351639009
endloop
endfacet
facet normal -0.999999611216512 -0.00087805956967198 -8.11062036934686e-05
outer loop
vertex 26.7662570135793 769.488823666614 2.75763351639009
vertex 26.7658465019844 769.731107033188 5.196068527191
vertex 26.7657783185378 770.1086058169 1.94991733965088
endloop
endfacet
facet normal -0.999999611216512 -0.00087805956967198 -8.11062036934686e-05
outer loop
vertex 26.7657783185378 770.1086058169 1.94991733965088
vertex 26.7658465019844 769.731107033188 5.196068527191
vertex 26.7648327255787 770.973746762246 4.24255707381728
endloop
endfacet
facet normal -0.999999611216512 -0.00087805956967198 -8.11062036934686e-05
outer loop
vertex 26.7657783185378 770.1086058169 1.94991733965088
vertex 26.7648327255787 770.973746762246 4.24255707381728
vertex 26.7655125053945 770.498217164282 1.00931195349606
endloop
endfacet
facet normal -0.999999611216512 -0.00087805956967198 -8.11062036934686e-05
outer loop
vertex 26.7655125053945 770.498217164282 1.00931195349606
vertex 26.7648327255787 770.973746762246 4.24255707381728
vertex 26.7654776888758 770.631106339299 -8.19394318102073e-05
endloop
endfacet
facet normal -0.999999611216512 -0.00087805956967198 -8.11062036934686e-05
outer loop
vertex 26.7729715141536 762.488471930063 -4.24272039719549
vertex 26.7722917343378 762.964001528026 -1.00947527687427
vertex 26.7719577377479 763.73111165912 -5.19623185056921
endloop
endfacet
facet normal -0.999999611216512 -0.00087805956967198 -8.11062036934686e-05
outer loop
vertex 26.7722917343378 762.964001528026 -1.00947527687427
vertex 26.7729715141536 762.488471930063 -4.24272039719549
vertex 26.7723265508565 762.83111235301 -8.13839463984001e-05
endloop
endfacet
facet normal -0.999999611216512 -0.00087805956967198 -8.11062036934686e-05
outer loop
vertex 26.7719577377479 763.73111165912 -5.19623185056921
vertex 26.7722917343378 762.964001528026 -1.00947527687427
vertex 26.7720259211945 763.353612875408 -1.95008066302909
endloop
endfacet
facet normal -0.999999611216512 -0.00087805956967198 -8.11062036934686e-05
outer loop
vertex 26.7719577377479 763.73111165912 -5.19623185056921
vertex 26.7720259211945 763.353612875408 -1.95008066302909
vertex 26.771547226153 763.973395025695 -2.7577968397683
endloop
endfacet
facet normal -0.999999611216512 -0.00087805956967198 -8.11062036934686e-05
outer loop
vertex 26.7719577377479 763.73111165912 -5.19623185056921
vertex 26.771547226153 763.973395025695 -2.7577968397683
vertex 26.7707357260331 765.178196272818 -5.79563425561495
endloop
endfacet
facet normal -0.999999611216512 -0.00087805956967198 -8.11062036934686e-05
outer loop
vertex 26.7707357260331 765.178196272818 -5.79563425561495
vertex 26.771547226153 763.973395025695 -2.7577968397683
vertex 26.7708882714893 764.781110849582 -3.37757928446123
endloop
endfacet
facet normal -0.999999611216512 -0.00087805956967198 -8.11062036934686e-05
outer loop
vertex 26.7707357260331 765.178196272818 -5.79563425561495
vertex 26.7708882714893 764.781110849582 -3.37757928446123
vertex 26.7700939638747 765.721715848486 -3.76719084774097
endloop
endfacet
facet normal -0.999999611216512 -0.00087805956967198 -8.11062036934686e-05
outer loop
vertex 26.7707357260331 765.178196272818 -5.79563425561495
vertex 26.7700939638747 765.721715848486 -3.76719084774097
vertex 26.7693887570883 766.731109346154 -6.00007932898814
endloop
endfacet
facet normal -0.999999611216512 -0.00087805956967198 -8.11062036934686e-05
outer loop
vertex 26.7693887570883 766.731109346154 -6.00007932898814
vertex 26.7700939638747 765.721715848486 -3.76719084774097
vertex 26.7692184340605 766.731109346154 -3.90008014543355
endloop
endfacet
facet normal -0.999999611216512 -0.00087805956967198 -8.11062036934686e-05
outer loop
vertex 26.7693887570883 766.731109346154 -6.00007932898814
vertex 26.7692184340605 766.731109346154 -3.90008014543355
vertex 26.7683213479568 767.740502843823 -3.76719099151117
endloop
endfacet
facet normal -0.999999611216512 -0.00087805956967198 -8.11062036934686e-05
outer loop
vertex 26.7693887570883 766.731109346154 -6.00007932898814
vertex 26.7683213479568 767.740502843823 -3.76719099151117
vertex 26.768008624621 768.28402241949 -5.79563447679988
endloop
endfacet
facet normal -0.999999611216512 -0.00087805956967198 -8.11062036934686e-05
outer loop
vertex 26.768008624621 768.28402241949 -5.79563447679988
vertex 26.7683213479568 767.740502843823 -3.76719099151117
vertex 26.7674638404989 768.681107842726 -3.37757956220394
endloop
endfacet
facet normal -0.999999611216512 -0.00087805956967198 -8.11062036934686e-05
outer loop
vertex 26.768008624621 768.28402241949 -5.79563447679988
vertex 26.7674638404989 768.681107842726 -3.37757956220394
vertex 26.7666893823781 769.731107033188 -5.19623227786568
endloop
endfacet
facet normal -0.999999611216512 -0.00087805956967198 -8.11062036934686e-05
outer loop
vertex 26.7666893823781 769.731107033188 -5.19623227786568
vertex 26.7674638404989 768.681107842726 -3.37757956220394
vertex 26.766704349403 769.488823666614 -2.7577972325558
endloop
endfacet
facet normal -0.999999611216512 -0.00087805956967198 -8.11062036934686e-05
outer loop
vertex 26.7666893823781 769.731107033188 -5.19623227786568
vertex 26.766704349403 769.488823666614 -2.7577972325558
vertex 26.7660946327322 770.1086058169 -1.95008114409357
endloop
endfacet
facet normal -0.999999611216512 -0.00087805956967198 -8.11062036934686e-05
outer loop
vertex 26.7666893823781 769.731107033188 -5.19623227786568
vertex 26.7660946327322 770.1086058169 -1.95008114409357
vertex 26.7655209345382 770.973746762246 -4.24272100148395
endloop
endfacet
facet normal -0.999999611216512 -0.00087805956967198 -8.11062036934686e-05
outer loop
vertex 26.7655209345382 770.973746762246 -4.24272100148395
vertex 26.7660946327322 770.1086058169 -1.95008114409357
vertex 26.76567624167 770.498217164282 -1.00947581343197
endloop
endfacet
facet normal -0.999999611216512 -0.00087805956967198 -8.11062036934686e-05
outer loop
vertex 26.7655209345382 770.973746762246 -4.24272100148395
vertex 26.76567624167 770.498217164282 -1.00947581343197
vertex 26.7654776888758 770.631106339299 -8.19394318102073e-05
endloop
endfacet
facet normal -0.999999611216512 -0.00087805956967198 -8.11062036934686e-05
outer loop
vertex 26.7655209345382 770.973746762246 -4.24272100148395
vertex 26.7654776888758 770.631106339299 -8.19394318102073e-05
vertex 26.7648327255787 770.973746762246 4.24255707381728
endloop
endfacet
facet normal -0.999999611216512 -0.00087805956967198 -8.11062036934686e-05
outer loop
vertex 26.7655209345382 770.973746762246 -4.24272100148395
vertex 26.7648327255787 770.973746762246 4.24255707381728
vertex 26.7640962716687 771.927257762687 2.99991680191082
endloop
endfacet
facet normal -0.999999611216512 -0.00087805956967198 -8.11062036934686e-05
outer loop
vertex 26.7655209345382 770.973746762246 -4.24272100148395
vertex 26.7640962716687 771.927257762687 2.99991680191082
vertex 26.7645829088908 771.927257762687 -3.00008086538822
endloop
endfacet
facet normal -0.999999611216512 -0.00087805956967198 -8.11062036934686e-05
outer loop
vertex 26.7645829088908 771.927257762687 -3.00008086538822
vertex 26.7640962716687 771.927257762687 2.99991680191082
vertex 26.7636873283713 772.526659835582 1.55283159244189
endloop
endfacet
facet normal -0.999999611216512 -0.00087805956967198 -8.11062036934686e-05
outer loop
vertex 26.7645829088908 771.927257762687 -3.00008086538822
vertex 26.7636873283713 772.526659835582 1.55283159244189
vertex 26.7639392303336 772.526659835582 -1.55299574129349
endloop
endfacet
facet normal -0.999999611216512 -0.00087805956967198 -8.11062036934686e-05
outer loop
vertex 26.7639392303336 772.526659835582 -1.55299574129349
vertex 26.7636873283713 772.526659835582 1.55283159244189
vertex 26.7636337644964 772.731104720223 -8.20889855742468e-05
endloop
endfacet
facet normal 0.000305601145637155 -0.258818945329228 -0.965925804679949
outer loop
vertex 26.7700939638747 765.721715848486 -3.76719084774097
vertex 19.7708909929737 764.774964432594 -3.37814702788709
vertex 19.7700966853591 765.715569431498 -3.76775859116683
endloop
endfacet
facet normal 0.00050926984326848 -0.499999807252826 -0.866025365327923
outer loop
vertex 19.7708909929737 764.774964432594 -3.37814702788709
vertex 26.7700939638747 765.721715848486 -3.76719084774097
vertex 26.7708882714893 764.781110849582 -3.37757928446123
endloop
endfacet
facet normal 0.000677964259466606 -0.991444637110259 -0.13052613496833
outer loop
vertex 28.2741165007786 760.936568403883 -1.55287205922536
vertex 26.7741704752359 760.731113972086 -8.12343926357706e-05
vertex 26.774116911361 760.935558856727 -1.5529949158201
endloop
endfacet
facet normal 0.000677964259466606 -0.991444637110259 -0.13052613496833
outer loop
vertex 26.7741704752359 760.731113972086 -8.12343926357706e-05
vertex 28.2741165007786 760.936568403883 -1.55287205922536
vertex 28.2741700646122 760.732123676867 4.0424923354018e-05
endloop
endfacet
facet normal 0.704658660885916 -0.655465059657318 -0.271701540678179
outer loop
vertex 28.2737075577965 761.535970014646 -2.99995615300808
vertex 29.2732469840998 761.903367076721 -1.29397327461161
vertex 28.2741165007786 760.936568403883 -1.55287205922536
endloop
endfacet
facet normal 0.704658660885916 -0.655465059657318 -0.271701540678179
outer loop
vertex 29.2732469840998 761.903367076721 -1.29397327461161
vertex 28.2737075577965 761.535970014646 -2.99995615300808
vertex 29.2729061980187 762.402868804134 -2.49987761583574
endloop
endfacet
facet normal 0.000656791284491507 -0.991444637110258 0.130526243225327
outer loop
vertex 28.2741700646122 760.732123676867 4.0424923354018e-05
vertex 26.7738650093987 760.935558856727 1.55283241791528
vertex 26.7741704752359 760.731113972086 -8.12343926357706e-05
endloop
endfacet
facet normal 0.000656791284491507 -0.991444637110258 0.130526243225327
outer loop
vertex 26.7738650093987 760.935558856727 1.55283241791528
vertex 28.2741700646122 760.732123676867 4.0424923354018e-05
vertex 28.2738645990105 760.936568403883 1.55295287995254
endloop
endfacet
facet normal 0.000653143460575789 -0.923879325894752 -0.382683373806439
outer loop
vertex 28.2737075577965 761.535970014646 -2.99995615300808
vertex 26.774116911361 760.935558856727 -1.5529949158201
vertex 26.7737079680636 761.534960929622 -3.00008012528903
endloop
endfacet
facet normal 0.000653143460575789 -0.923879325894752 -0.382683373806439
outer loop
vertex 26.774116911361 760.935558856727 -1.5529949158201
vertex 28.2737075577965 761.535970014646 -2.99995615300808
vertex 28.2741165007786 760.936568403883 -1.55287205922536
endloop
endfacet
endsolid Delta Dev
