solid Delta Dev
facet normal -0.000745985837771604 0.79335303445798 0.608761370506905
outer loop
vertex 19.7662597350637 769.482677249626 2.75706577296424
vertex 26.7657783185378 770.1086058169 1.94991733965088
vertex 19.7657810400222 770.102459399913 1.94934959622502
endloop
endfacet
facet normal -0.000745985837771604 0.79335303445798 0.608761370506905
outer loop
vertex 26.7657783185378 770.1086058169 1.94991733965088
vertex 19.7662597350637 769.482677249626 2.75706577296424
vertex 26.7662570135793 769.488823666614 2.75763351639009
endloop
endfacet
facet normal 0.892733285773852 0.274827161645005 -0.357067657025348
outer loop
vertex 28.2663191683079 770.233271017521 -6.0621357213122
vertex 29.2660836700808 770.268523664654 -3.53541167933154
vertex 29.267057376614 769.232990557106 -4.33000440964966
endloop
endfacet
facet normal 0.892733285773852 0.274827161645005 -0.357067657025348
outer loop
vertex 29.2660836700808 770.268523664654 -3.53541167933154
vertex 28.2663191683079 770.233271017521 -6.0621357213122
vertex 28.2649559791614 771.683017368088 -4.94970589886684
endloop
endfacet
facet normal 0.892878954304032 0.0595554384076071 -0.446341038575904
outer loop
vertex 28.2694684388032 766.733273715982 -6.99995728095509
vertex 29.2681567451498 768.027086712357 -4.82950624209483
vertex 29.2693068555392 766.732992484577 -4.99987695225173
endloop
endfacet
facet normal 0.892878954304032 0.0595554384076071 -0.446341038575904
outer loop
vertex 29.2681567451498 768.027086712357 -4.82950624209483
vertex 28.2694684388032 766.733273715982 -6.99995728095509
vertex 28.267858284258 768.545005634873 -6.76143828673545
endloop
endfacet
facet normal 0.892627104506075 0.416621273849822 -0.172173071288318
outer loop
vertex 28.2638616159061 772.795446868603 -3.4999590734218
vertex 29.2647655832436 771.562617892434 -1.2939739625061
vertex 29.2653019820413 771.063116165021 -2.49987823258507
endloop
endfacet
facet normal 0.892627104506075 0.416621273849822 -0.172173071288318
outer loop
vertex 29.2647655832436 771.562617892434 -1.2939739625061
vertex 28.2638616159061 772.795446868603 -3.4999590734218
vertex 28.2631106575893 773.49474928698 -1.81169309531126
endloop
endfacet
facet normal 0.000878059566784328 -0.999999614505622 7.12161056505418e-08
outer loop
vertex 28.2750471099754 759.733279112902 4.04960730854498e-05
vertex 26.777477294856 759.970483501883 1.81165165708703
vertex 26.7778336716661 759.731964469802 -8.09372722280932e-05
endloop
endfacet
facet normal 0.000827148574292765 -0.965925453930097 0.258819113040697
outer loop
vertex 26.777477294856 759.970483501883 1.81165165708703
vertex 28.2750471099754 759.733279112902 4.04960730854498e-05
vertex 28.2746907331654 759.971798144983 1.81177309043235
endloop
endfacet
facet normal -0.000878059566784328 0.999999614505622 -7.12161057307418e-08
outer loop
vertex 26.7655408424699 773.731953675962 -8.19342973252146e-05
vertex 28.2631106575893 773.49474928698 -1.81169309531126
vertex 26.7658972192799 773.493434643881 -1.81181452865658
endloop
endfacet
facet normal -0.000827148574292765 0.965925453930097 -0.258819113040696
outer loop
vertex 28.2631106575893 773.49474928698 -1.81169309531126
vertex 26.7655408424699 773.731953675962 -8.19342973252146e-05
vertex 28.2627542807792 773.733268319061 3.94990479883284e-05
endloop
endfacet
facet normal 0.892599164144335 0.416621273847785 0.172317864269156
outer loop
vertex 29.2645556649416 771.562617892434 1.29421548227344
vertex 28.2632938724803 772.795446868603 3.50003820509382
vertex 29.2648964510228 771.063116165021 2.50011982349757
endloop
endfacet
facet normal 0.892599164144335 0.416621273847785 0.172317864269156
outer loop
vertex 28.2632938724803 772.795446868603 3.50003820509382
vertex 29.2645556649416 771.562617892434 1.29421548227344
vertex 28.2628167719666 773.49474928698 1.81177212738005
endloop
endfacet
facet normal -0.000368789723510841 0.499999807252848 -0.866025436544017
outer loop
vertex 28.2663191683079 770.233271017521 -6.0621357213122
vertex 26.7706448459486 768.543690991774 -6.76155972008075
vertex 26.7691057299986 770.231956374422 -6.06225715465751
endloop
endfacet
facet normal -0.000148915931596503 0.258818945329178 -0.965925841544131
outer loop
vertex 26.7706448459486 768.543690991774 -6.76155972008075
vertex 28.2663191683079 770.233271017521 -6.0621357213122
vertex 28.267858284258 768.545005634873 -6.76143828673545
endloop
endfacet
facet normal 0.000647237142779875 -0.793353034457979 0.608761483505977
outer loop
vertex 26.7717096070001 763.353612875408 1.94991782071536
vertex 19.7711026118137 763.967248608707 2.75706616575174
vertex 19.7717123284845 763.347466458421 1.9493500772895
endloop
endfacet
facet normal 0.000647237142779875 -0.793353034457979 0.608761483505977
outer loop
vertex 19.7711026118137 763.967248608707 2.75706616575174
vertex 26.7717096070001 763.353612875408 1.94991782071536
vertex 26.7710998903293 763.973395025695 2.75763390917759
endloop
endfacet
facet normal -8.11062345873094e-05 9.54641786618837e-16 0.999999996710889
outer loop
vertex 19.7701780159587 765.474963411035 -2.16571281843476
vertex 29.267979350212 767.982992002709 -2.16494248752915
vertex 19.7679828670418 767.974962447298 -2.16571299647503
endloop
endfacet
facet normal -8.11062345873094e-05 9.54641786618837e-16 0.999999996710889
outer loop
vertex 29.267979350212 767.982992002709 -2.16494248752915
vertex 19.7701780159587 765.474963411035 -2.16571281843476
vertex 29.2701744991289 765.482992966445 -2.16494230948889
endloop
endfacet
facet normal 0.000719868773390779 -0.866025069936503 0.500000060030421
outer loop
vertex 28.2739397748485 760.67110056336 3.50003906854288
vertex 26.7756319732839 761.782215420775 4.9496644606426
vertex 26.7767263365392 760.669785920261 3.49991763519757
endloop
endfacet
facet normal 0.000563531105221662 -0.707106508600888 0.707106829218157
outer loop
vertex 26.7756319732839 761.782215420775 4.9496644606426
vertex 28.2739397748485 760.67110056336 3.50003906854288
vertex 28.2728454115932 761.783530063875 4.94978589398792
endloop
endfacet
facet normal 0.000881134133474013 -0.991444479177386 -0.130526121183921
outer loop
vertex 26.7722917343378 762.964001528026 -1.00947527687427
vertex 19.7723292723409 762.824965936022 -0.000649127372258917
vertex 19.7722944558222 762.957855111039 -1.01004302030013
endloop
endfacet
facet normal 0.000881134133474013 -0.991444479177386 -0.130526121183921
outer loop
vertex 19.7723292723409 762.824965936022 -0.000649127372258917
vertex 26.7722917343378 762.964001528026 -1.00947527687427
vertex 26.7723265508565 762.83111235301 -8.13839463984001e-05
endloop
endfacet
facet normal 0.892736017255512 0.173072885099985 0.416014639090903
outer loop
vertex 29.2663549762859 769.232990557106 4.33024626123109
vertex 28.2667614881825 768.545005634873 6.76151802380741
vertex 29.2673733193815 768.027086712357 4.82974826543588
endloop
endfacet
facet normal 0.892736017255512 0.173072885099985 0.416014639090903
outer loop
vertex 28.2667614881825 768.545005634873 6.76151802380741
vertex 29.2663549762859 769.232990557106 4.33024626123109
vertex 28.2653358078487 770.233271017521 6.06221521792072
endloop
endfacet
facet normal -0.000780183249688454 0.92387917636092 -0.382683496901506
outer loop
vertex 19.7656789631544 770.492070747295 -1.01004355685783
vertex 26.7660946327322 770.1086058169 -1.95008114409357
vertex 19.7660973542166 770.102459399913 -1.95064888751943
endloop
endfacet
facet normal -0.000780183249688454 0.92387917636092 -0.382683496901506
outer loop
vertex 26.7660946327322 770.1086058169 -1.95008114409357
vertex 19.7656789631544 770.492070747295 -1.01004355685783
vertex 26.76567624167 770.498217164282 -1.00947581343197
endloop
endfacet
facet normal 0.892675353204579 0.274827161642227 0.357212464794773
outer loop
vertex 29.2655101626145 770.268523664654 3.53565338341964
vertex 28.2653358078487 770.233271017521 6.06221521792072
vertex 29.2663549762859 769.232990557106 4.33024626123109
endloop
endfacet
facet normal 0.892675353204579 0.274827161642227 0.357212464794773
outer loop
vertex 28.2653358078487 770.233271017521 6.06221521792072
vertex 29.2655101626145 770.268523664654 3.53565338341964
vertex 28.2641530687086 771.683017368088 4.9497851889847
endloop
endfacet
facet normal -0.000410951239273435 0.382683284842765 0.923879502219326
outer loop
vertex 19.767712997342 767.734356426835 3.7664597809369
vertex 26.766915968243 768.681107842726 3.37741596108302
vertex 19.7669186897275 768.674961425739 3.37684821765716
endloop
endfacet
facet normal -0.000410951239273435 0.382683284842765 0.923879502219326
outer loop
vertex 26.766915968243 768.681107842726 3.37741596108302
vertex 19.767712997342 767.734356426835 3.7664597809369
vertex 26.7677102758576 767.740502843823 3.76702752436276
endloop
endfacet
facet normal 0.892803488269507 0.173072885102025 -0.41586982070867
outer loop
vertex 28.267858284258 768.545005634873 -6.76143828673545
vertex 29.267057376614 769.232990557106 -4.33000440964966
vertex 29.2681567451498 768.027086712357 -4.82950624209483
endloop
endfacet
facet normal 0.892803488269507 0.173072885102025 -0.41586982070867
outer loop
vertex 29.267057376614 769.232990557106 -4.33000440964966
vertex 28.267858284258 768.545005634873 -6.76143828673545
vertex 28.2663191683079 770.233271017521 -6.0621357213122
endloop
endfacet
facet normal 3.41974119167244e-05 -0.130526141902937 0.991444867408406
outer loop
vertex 19.7694856132599 765.715569431498 3.7664599247071
vertex 26.7685858056717 766.731109346154 3.89991682205534
vertex 19.7685885271562 766.724962929167 3.89934907862948
endloop
endfacet
facet normal 3.41974119167244e-05 -0.130526141902937 0.991444867408406
outer loop
vertex 26.7685858056717 766.731109346154 3.89991682205534
vertex 19.7694856132599 765.715569431498 3.7664599247071
vertex 26.7694828917755 765.721715848486 3.76702766813296
endloop
endfacet
facet normal 8.11062345884643e-05 2.72995781063011e-13 -0.999999996710889
outer loop
vertex 29.2676281499126 767.982992002709 2.16518451715071
vertex 19.7698268156593 765.474963411035 2.1644141862451
vertex 19.7676316667424 767.974962447299 2.16441400820484
endloop
endfacet
facet normal 8.11062345884643e-05 2.72995781063011e-13 -0.999999996710889
outer loop
vertex 19.7698268156593 765.474963411035 2.1644141862451
vertex 29.2676281499126 767.982992002709 2.16518451715071
vertex 29.2698232988295 765.482992966445 2.16518469519098
endloop
endfacet
facet normal -0.000305601145639904 0.258818945329178 0.965925804679962
outer loop
vertex 26.7695480498731 768.543690991774 6.76139659046211
vertex 28.2653358078487 770.233271017521 6.06221521792072
vertex 26.7681223695393 770.231956374422 6.06209378457541
endloop
endfacet
facet normal -0.000509269843273551 0.499999807252848 0.866025365327911
outer loop
vertex 28.2653358078487 770.233271017521 6.06221521792072
vertex 26.7695480498731 768.543690991774 6.76139659046211
vertex 28.2667614881825 768.545005634873 6.76151802380741
endloop
endfacet
facet normal 0.000800975008351576 -0.866025069936504 -0.499999936680506
outer loop
vertex 28.2745075182744 760.67110056336 -3.49995820997274
vertex 26.7777711804787 759.970483501883 -1.81181356560429
vertex 26.777294079965 760.669785920261 -3.50007964331805
endloop
endfacet
facet normal 0.000869132250861589 -0.965925453930097 -0.258818975461745
outer loop
vertex 26.7777711804787 759.970483501883 -1.81181356560429
vertex 28.2745075182744 760.67110056336 -3.49995820997274
vertex 28.274984618788 759.971798144983 -1.81169213225897
endloop
endfacet
facet normal -0.000827148574292756 0.965925453930089 -0.258819113040726
outer loop
vertex 26.7658972192799 773.493434643881 -1.81181452865658
vertex 28.2638616159061 772.795446868603 -3.4999590734218
vertex 26.7666481775968 772.794132225503 -3.50008050676712
endloop
endfacet
facet normal -0.000719868773390808 0.866025069936532 -0.50000006003037
outer loop
vertex 28.2638616159061 772.795446868603 -3.4999590734218
vertex 26.7658972192799 773.493434643881 -1.81181452865658
vertex 28.2631106575893 773.49474928698 -1.81169309531126
endloop
endfacet
facet normal -0.000148915931596599 0.258818945329285 -0.965925841544102
outer loop
vertex 28.267858284258 768.545005634873 -6.76143828673545
vertex 26.7722550004938 766.731959072882 -7.0000787143004
vertex 26.7706448459486 768.543690991774 -6.76155972008075
endloop
endfacet
facet normal 8.11062349608443e-05 -5.8020236530557e-14 -0.999999996710889
outer loop
vertex 26.7722550004938 766.731959072882 -7.0000787143004
vertex 28.267858284258 768.545005634873 -6.76143828673545
vertex 28.2694684388032 766.733273715982 -6.99995728095509
endloop
endfacet
facet normal -0.999999611216512 -0.000878059569672491 -8.11062036943345e-05
outer loop
vertex 19.7721307195468 762.957855111039 1.0087447466279
vertex 19.7710999902675 764.224963892903 -0.000649227074699893
vertex 19.7723292723409 762.824965936022 -0.000649127372258917
endloop
endfacet
facet normal -0.999999611216512 -0.000878059569672491 -8.11062036943345e-05
outer loop
vertex 19.7710999902675 764.224963892903 -0.000649227074699893
vertex 19.7721307195468 762.957855111039 1.0087447466279
vertex 19.7717123284845 763.347466458421 1.9493500772895
endloop
endfacet
facet normal -0.999999611216512 -0.000878059569672491 -8.11062036943345e-05
outer loop
vertex 19.7710999902675 764.224963892903 -0.000649227074699893
vertex 19.7717123284845 763.347466458421 1.9493500772895
vertex 19.7711026118137 763.967248608707 2.75706616575174
endloop
endfacet
facet normal -0.999999611216512 -0.000878059569672491 -8.11062036943345e-05
outer loop
vertex 19.7710999902675 764.224963892903 -0.000649227074699893
vertex 19.7711026118137 763.967248608707 2.75706616575174
vertex 19.7703431207178 764.774964432594 3.37684849539987
endloop
endfacet
facet normal -0.999999611216512 -0.000878059569672491 -8.11062036943345e-05
outer loop
vertex 19.7710999902675 764.224963892903 -0.000649227074699893
vertex 19.7703431207178 764.774964432594 3.37684849539987
vertex 19.7698268156593 765.474963411035 2.1644141862451
endloop
endfacet
facet normal -0.999999611216512 -0.000878059569672491 -8.11062036943345e-05
outer loop
vertex 19.7698268156593 765.474963411035 2.1644141862451
vertex 19.7703431207178 764.774964432594 3.37684849539987
vertex 19.7694856132599 765.715569431498 3.7664599247071
endloop
endfacet
facet normal -0.999999611216512 -0.000878059569672491 -8.11062036943345e-05
outer loop
vertex 19.7698268156593 765.474963411035 2.1644141862451
vertex 19.7694856132599 765.715569431498 3.7664599247071
vertex 19.7676316667424 767.974962447299 2.16441400820484
endloop
endfacet
facet normal -0.999999611216512 -0.000878059569672491 -8.11062036943345e-05
outer loop
vertex 19.7676316667424 767.974962447299 2.16441400820484
vertex 19.7694856132599 765.715569431498 3.7664599247071
vertex 19.7685885271562 766.724962929167 3.89934907862948
endloop
endfacet
facet normal -0.999999611216512 -0.000878059569672491 -8.11062036943345e-05
outer loop
vertex 19.7676316667424 767.974962447299 2.16441400820484
vertex 19.7685885271562 766.724962929167 3.89934907862948
vertex 19.767712997342 767.734356426835 3.7664597809369
endloop
endfacet
facet normal -0.999999611216512 -0.000878059569672491 -8.11062036943345e-05
outer loop
vertex 19.7676316667424 767.974962447299 2.16441400820484
vertex 19.767712997342 767.734356426835 3.7664597809369
vertex 19.7669186897275 768.674961425739 3.37684821765716
endloop
endfacet
facet normal -0.999999611216512 -0.000878059569672491 -8.11062036943345e-05
outer loop
vertex 19.7676316667424 767.974962447299 2.16441400820484
vertex 19.7669186897275 768.674961425739 3.37684821765716
vertex 19.7667096924336 769.224961965431 -0.000649583155229749
endloop
endfacet
facet normal -0.999999611216512 -0.000878059569672491 -8.11062036943345e-05
outer loop
vertex 19.7667096924336 769.224961965431 -0.000649583155229749
vertex 19.7669186897275 768.674961425739 3.37684821765716
vertex 19.7662597350637 769.482677249626 2.75706577296424
endloop
endfacet
facet normal -0.999999611216512 -0.000878059569672491 -8.11062036943345e-05
outer loop
vertex 19.7667096924336 769.224961965431 -0.000649583155229749
vertex 19.7662597350637 769.482677249626 2.75706577296424
vertex 19.7654804103602 770.624959922311 -0.00064968285767002
endloop
endfacet
facet normal -0.999999611216512 -0.000878059569672491 -8.11062036943345e-05
outer loop
vertex 19.7654804103602 770.624959922311 -0.00064968285767002
vertex 19.7662597350637 769.482677249626 2.75706577296424
vertex 19.7657810400222 770.102459399913 1.94934959622502
endloop
endfacet
facet normal -0.999999611216512 -0.000878059569672491 -8.11062036943345e-05
outer loop
vertex 19.7654804103602 770.624959922311 -0.00064968285767002
vertex 19.7657810400222 770.102459399913 1.94934959622502
vertex 19.7655152268789 770.492070747295 1.0087442100702
endloop
endfacet
facet normal 8.11062349607427e-05 5.7717258794105e-14 -0.999999996710889
outer loop
vertex 28.2694684388032 766.733273715982 -6.99995728095509
vertex 26.7738264642628 764.92022715399 -6.76155946203166
vertex 26.7722550004938 766.731959072882 -7.0000787143004
endloop
endfacet
facet normal 0.000305601145639997 -0.258818945329286 -0.965925804679933
outer loop
vertex 26.7738264642628 764.92022715399 -6.76155946203166
vertex 28.2694684388032 766.733273715982 -6.99995728095509
vertex 28.2710399025722 764.92154179709 -6.76143802868636
endloop
endfacet
facet normal -0.000869132250861584 0.965925453930089 0.258818975461774
outer loop
vertex 26.7656033336573 773.493434643881 1.81165069403473
vertex 28.2627542807792 773.733268319061 3.94990479883284e-05
vertex 26.7655408424699 773.731953675962 -8.19342973252146e-05
endloop
endfacet
facet normal -0.000878059566784328 0.999999614505622 -7.121610557035e-08
outer loop
vertex 28.2627542807792 773.733268319061 3.94990479883284e-05
vertex 26.7656033336573 773.493434643881 1.81165069403473
vertex 28.2628167719666 773.49474928698 1.81177212738005
endloop
endfacet
facet normal 0.892598350734427 0.447018313571277 -0.0586754769735529
outer loop
vertex 28.2631106575893 773.49474928698 -1.81169309531126
vertex 29.2645110283792 771.732988629634 0.00012074775052075
vertex 29.2647655832436 771.562617892434 -1.2939739625061
endloop
endfacet
facet normal 0.892598350734427 0.447018313571277 -0.0586754769735529
outer loop
vertex 29.2645110283792 771.732988629634 0.00012074775052075
vertex 28.2631106575893 773.49474928698 -1.81169309531126
vertex 28.2627542807792 773.733268319061 3.94990479883284e-05
endloop
endfacet
facet normal 0.000678232642696184 -0.70710650860083 -0.707106728503432
outer loop
vertex 28.273648322046 761.783530063875 -4.94970519386363
vertex 26.777294079965 760.669785920261 -3.50007964331805
vertex 26.7764348837367 761.782215420775 -4.94982662720895
endloop
endfacet
facet normal 0.000800975008351597 -0.866025069936532 -0.499999936680457
outer loop
vertex 26.777294079965 760.669785920261 -3.50007964331805
vertex 28.273648322046 761.783530063875 -4.94970519386363
vertex 28.2745075182744 760.67110056336 -3.49995820997274
endloop
endfacet
facet normal -0.000509269843273479 0.499999807252761 0.866025365327961
outer loop
vertex 26.7681223695393 770.231956374422 6.06209378457541
vertex 28.2641530687086 771.683017368088 4.9497851889847
vertex 26.7669396303993 771.681702724989 4.94966375563939
endloop
endfacet
facet normal -0.00067823264269623 0.707106508600888 0.707106728503375
outer loop
vertex 28.2641530687086 771.683017368088 4.9497851889847
vertex 26.7681223695393 770.231956374422 6.06209378457541
vertex 28.2653358078487 770.233271017521 6.06221521792072
endloop
endfacet
facet normal 0.000305601145639904 -0.258818945329178 -0.965925804679962
outer loop
vertex 28.2710399025722 764.92154179709 -6.76143802868636
vertex 26.7752521445966 763.231961771342 -6.06225665614496
vertex 26.7738264642628 764.92022715399 -6.76155946203166
endloop
endfacet
facet normal 0.000509269843273551 -0.499999807252847 -0.866025365327911
outer loop
vertex 26.7752521445966 763.231961771342 -6.06225665614496
vertex 28.2710399025722 764.92154179709 -6.76143802868636
vertex 28.272465582906 763.233276414442 -6.06213522279965
endloop
endfacet
facet normal 0.000563531105221662 -0.707106508600888 0.707106829218157
outer loop
vertex 26.7756319732839 761.782215420775 4.9496644606426
vertex 28.2714822224467 763.233276414442 6.06221571643328
vertex 26.7742687841374 763.231961771342 6.06209428308796
endloop
endfacet
facet normal 0.000368789723510761 -0.499999807252761 0.866025436544067
outer loop
vertex 28.2714822224467 763.233276414442 6.06221571643328
vertex 26.7756319732839 761.782215420775 4.9496644606426
vertex 28.2728454115932 761.783530063875 4.94978589398792
endloop
endfacet
facet normal 0.000827148574292756 -0.965925453930089 0.258819113040726
outer loop
vertex 28.2746907331654 759.971798144983 1.81177309043235
vertex 26.7767263365392 760.669785920261 3.49991763519757
vertex 26.777477294856 759.970483501883 1.81165165708703
endloop
endfacet
facet normal 0.000719868773390808 -0.866025069936532 0.50000006003037
outer loop
vertex 26.7767263365392 760.669785920261 3.49991763519757
vertex 28.2746907331654 759.971798144983 1.81177309043235
vertex 28.2739397748485 760.67110056336 3.50003906854288
endloop
endfacet
facet normal 0.000859961157444661 -0.991444479177386 0.130526262397605
outer loop
vertex 26.7723265508565 762.83111235301 -8.13839463984001e-05
vertex 19.7721307195468 762.957855111039 1.0087447466279
vertex 19.7723292723409 762.824965936022 -0.000649127372258917
endloop
endfacet
facet normal 0.000859961157444661 -0.991444479177386 0.130526262397605
outer loop
vertex 19.7721307195468 762.957855111039 1.0087447466279
vertex 26.7723265508565 762.83111235301 -8.13839463984001e-05
vertex 26.7721279980623 762.964001528026 1.00931249005376
endloop
endfacet
facet normal -8.11062349607434e-05 -5.69419922331837e-14 0.999999996710889
outer loop
vertex 26.7711195136421 766.731959072882 6.99991584273084
vertex 28.2667614881825 768.545005634873 6.76151802380741
vertex 26.7695480498731 768.543690991774 6.76139659046211
endloop
endfacet
facet normal -0.000305601145639997 0.258818945329286 0.965925804679933
outer loop
vertex 28.2667614881825 768.545005634873 6.76151802380741
vertex 26.7711195136421 766.731959072882 6.99991584273084
vertex 28.2683329519515 766.733273715982 7.00003727607614
endloop
endfacet
facet normal 0.000470182894200651 -0.608761194334608 0.79335338103543
outer loop
vertex 19.7711026118137 763.967248608707 2.75706616575174
vertex 26.7703403992334 764.781110849582 3.37741623882573
vertex 19.7703431207178 764.774964432594 3.37684849539987
endloop
endfacet
facet normal 0.000470182894200651 -0.608761194334608 0.79335338103543
outer loop
vertex 26.7703403992334 764.781110849582 3.37741623882573
vertex 19.7711026118137 763.967248608707 2.75706616575174
vertex 26.7710998903293 763.973395025695 2.75763390917759
endloop
endfacet
facet normal 0.893134147125211 -0.415411560638949 0.172466317077958
outer loop
vertex 29.2730370657979 761.903367076721 1.29421617016792
vertex 28.2739397748485 760.67110056336 3.50003906854288
vertex 28.2746907331654 759.971798144983 1.81177309043235
endloop
endfacet
facet normal 0.893134147125211 -0.415411560638949 0.172466317077958
outer loop
vertex 28.2739397748485 760.67110056336 3.50003906854288
vertex 29.2730370657979 761.903367076721 1.29421617016792
vertex 29.2725006670002 762.402868804134 2.5001204402469
endloop
endfacet
facet normal 0.893027854923296 -0.273414717403727 0.357415224407323
outer loop
vertex 29.2717189789606 763.197461304501 3.53565388699336
vertex 28.2714822224467 763.233276414442 6.06221571643328
vertex 28.2728454115932 761.783530063875 4.94978589398792
endloop
endfacet
facet normal 0.893027854923296 -0.273414717403727 0.357415224407323
outer loop
vertex 28.2714822224467 763.233276414442 6.06221571643328
vertex 29.2717189789606 763.197461304501 3.53565388699336
vertex 29.2707452724274 764.232994412049 4.33024661731148
endloop
endfacet
facet normal 0.000261086458395707 -0.382683284842797 0.923879556725761
outer loop
vertex 19.7703431207178 764.774964432594 3.37684849539987
vertex 26.7694828917755 765.721715848486 3.76702766813296
vertex 19.7694856132599 765.715569431498 3.7664599247071
endloop
endfacet
facet normal 0.000261086458395707 -0.382683284842797 0.923879556725761
outer loop
vertex 26.7694828917755 765.721715848486 3.76702766813296
vertex 19.7703431207178 764.774964432594 3.37684849539987
vertex 26.7703403992334 764.781110849582 3.37741623882573
endloop
endfacet
facet normal 0.000410951239273342 -0.382683284842766 -0.923879502219326
outer loop
vertex 26.7700939638747 765.721715848486 -3.76719084774097
vertex 19.7708909929737 764.774964432594 -3.37814702788709
vertex 19.7700966853591 765.715569431498 -3.76775859116683
endloop
endfacet
facet normal 0.000410951239273342 -0.382683284842766 -0.923879502219326
outer loop
vertex 19.7708909929737 764.774964432594 -3.37814702788709
vertex 26.7700939638747 765.721715848486 -3.76719084774097
vertex 26.7708882714893 764.781110849582 -3.37757928446123
endloop
endfacet
facet normal 0.893172475520842 -0.445862921982594 -0.0587297520266731
outer loop
vertex 28.274984618788 759.971798144983 -1.81169213225897
vertex 29.2732916206622 761.73299633952 0.000121459911303401
vertex 28.2750471099754 759.733279112902 4.04960730854498e-05
endloop
endfacet
facet normal 0.893172475520842 -0.445862921982594 -0.0587297520266731
outer loop
vertex 29.2732916206622 761.73299633952 0.000121459911303401
vertex 28.274984618788 759.971798144983 -1.81169213225897
vertex 29.2732469840998 761.903367076721 -1.29397327461161
endloop
endfacet
facet normal 0.892673126501512 0.35789328165465 -0.273947236103014
outer loop
vertex 28.2649559791614 771.683017368088 -4.94970589886684
vertex 29.2653019820413 771.063116165021 -2.49987823258507
vertex 29.2660836700808 770.268523664654 -3.53541167933154
endloop
endfacet
facet normal 0.892673126501512 0.35789328165465 -0.273947236103014
outer loop
vertex 29.2653019820413 771.063116165021 -2.49987823258507
vertex 28.2649559791614 771.683017368088 -4.94970589886684
vertex 28.2638616159061 772.795446868603 -3.4999590734218
endloop
endfacet
facet normal 0.892628677101229 0.357893281651869 0.274092035208917
outer loop
vertex 29.2648964510228 771.063116165021 2.50011982349757
vertex 28.2641530687086 771.683017368088 4.9497851889847
vertex 29.2655101626145 770.268523664654 3.53565338341964
endloop
endfacet
facet normal 0.892628677101229 0.357893281651869 0.274092035208917
outer loop
vertex 28.2641530687086 771.683017368088 4.9497851889847
vertex 29.2648964510228 771.063116165021 2.50011982349757
vertex 28.2632938724803 772.795446868603 3.50003820509382
endloop
endfacet
facet normal 0.000745985837771693 -0.793353034457979 -0.608761370506906
outer loop
vertex 26.771547226153 763.973395025695 -2.7577968397683
vertex 19.7720286426789 763.347466458421 -1.95064840645495
vertex 19.7715499476374 763.967248608707 -2.75836458319416
endloop
endfacet
facet normal 0.000745985837771693 -0.793353034457979 -0.608761370506906
outer loop
vertex 19.7720286426789 763.347466458421 -1.95064840645495
vertex 26.771547226153 763.973395025695 -2.7577968397683
vertex 26.7720259211945 763.353612875408 -1.95008066302909
endloop
endfacet
facet normal 0.893162937072146 -0.445862921981846 0.0588746349667449
outer loop
vertex 29.2732916206622 761.73299633952 0.000121459911303401
vertex 28.2746907331654 759.971798144983 1.81177309043235
vertex 28.2750471099754 759.733279112902 4.04960730854498e-05
endloop
endfacet
facet normal 0.893162937072146 -0.445862921981846 0.0588746349667449
outer loop
vertex 28.2746907331654 759.971798144983 1.81177309043235
vertex 29.2732916206622 761.73299633952 0.000121459911303401
vertex 29.2730370657979 761.903367076721 1.29421617016792
endloop
endfacet
facet normal 0.893132553569777 -0.356589480644242 -0.274149929870133
outer loop
vertex 28.273648322046 761.783530063875 -4.94970519386363
vertex 29.2729061980187 762.402868804134 -2.49987761583574
vertex 28.2745075182744 760.67110056336 -3.49995820997274
endloop
endfacet
facet normal 0.893132553569777 -0.356589480644242 -0.274149929870133
outer loop
vertex 29.2729061980187 762.402868804134 -2.49987761583574
vertex 28.273648322046 761.783530063875 -4.94970519386363
vertex 29.272292486427 763.197461304501 -3.53541117575782
endloop
endfacet
facet normal 0.893162111560809 -0.415411560640992 -0.172321437314258
outer loop
vertex 28.2745075182744 760.67110056336 -3.49995820997274
vertex 29.2732469840998 761.903367076721 -1.29397327461161
vertex 28.274984618788 759.971798144983 -1.81169213225897
endloop
endfacet
facet normal 0.893162111560809 -0.415411560640992 -0.172321437314258
outer loop
vertex 29.2732469840998 761.903367076721 -1.29397327461161
vertex 28.2745075182744 760.67110056336 -3.49995820997274
vertex 29.2729061980187 762.402868804134 -2.49987761583574
endloop
endfacet
facet normal 0.893025102481344 -0.171566353074163 -0.416018212138623
outer loop
vertex 28.2710399025722 764.92154179709 -6.76143802868636
vertex 29.2714476727555 764.232994412049 -4.33000405356927
vertex 28.272465582906 763.233276414442 -6.06213522279965
endloop
endfacet
facet normal 0.893025102481344 -0.171566353074163 -0.416018212138623
outer loop
vertex 29.2714476727555 764.232994412049 -4.33000405356927
vertex 28.2710399025722 764.92154179709 -6.76143802868636
vertex 29.2704293296599 765.438898256798 -4.82950605777406
endloop
endfacet
facet normal 0.892957607393493 -0.171566353072116 0.416163066467488
outer loop
vertex 29.2707452724274 764.232994412049 4.33024661731148
vertex 28.2699431064967 764.92154179709 6.76151828185649
vertex 28.2714822224467 763.233276414442 6.06221571643328
endloop
endfacet
facet normal 0.892957607393493 -0.171566353072116 0.416163066467488
outer loop
vertex 28.2699431064967 764.92154179709 6.76151828185649
vertex 29.2707452724274 764.232994412049 4.33024661731148
vertex 29.2696459038917 765.438898256798 4.82974844975665
endloop
endfacet
facet normal -0.000598874699049017 0.60876119433465 0.793353294328161
outer loop
vertex 19.7669186897275 768.674961425739 3.37684821765716
vertex 26.7662570135793 769.488823666614 2.75763351639009
vertex 19.7662597350637 769.482677249626 2.75706577296424
endloop
endfacet
facet normal -0.000598874699049017 0.60876119433465 0.793353294328161
outer loop
vertex 26.7662570135793 769.488823666614 2.75763351639009
vertex 19.7669186897275 768.674961425739 3.37684821765716
vertex 26.766915968243 768.681107842726 3.37741596108302
endloop
endfacet
facet normal -0.000647237142779724 0.793353034457979 -0.608761483505976
outer loop
vertex 19.7660973542166 770.102459399913 -1.95064888751943
vertex 26.766704349403 769.488823666614 -2.7577972325558
vertex 19.7667070708874 769.482677249626 -2.75836497598166
endloop
endfacet
facet normal -0.000647237142779724 0.793353034457979 -0.608761483505976
outer loop
vertex 26.766704349403 769.488823666614 -2.7577972325558
vertex 19.7660973542166 770.102459399913 -1.95064888751943
vertex 26.7660946327322 770.1086058169 -1.95008114409357
endloop
endfacet
facet normal -0.000195022131670372 0.130526141902938 0.991444848817271
outer loop
vertex 19.7685885271562 766.724962929167 3.89934907862948
vertex 26.7677102758576 767.740502843823 3.76702752436276
vertex 19.767712997342 767.734356426835 3.7664597809369
endloop
endfacet
facet normal -0.000195022131670372 0.130526141902938 0.991444848817271
outer loop
vertex 26.7677102758576 767.740502843823 3.76702752436276
vertex 19.7685885271562 766.724962929167 3.89934907862948
vertex 26.7685858056717 766.731109346154 3.89991682205534
endloop
endfacet
facet normal 0.893088071283992 -0.356589480641453 0.274294803498166
outer loop
vertex 29.2725006670002 762.402868804134 2.5001204402469
vertex 28.2728454115932 761.783530063875 4.94978589398792
vertex 28.2739397748485 760.67110056336 3.50003906854288
endloop
endfacet
facet normal 0.893088071283992 -0.356589480641453 0.274294803498166
outer loop
vertex 28.2728454115932 761.783530063875 4.94978589398792
vertex 29.2725006670002 762.402868804134 2.5001204402469
vertex 29.2717189789606 763.197461304501 3.53565388699336
endloop
endfacet
facet normal 0.000195022131670471 -0.130526141902937 -0.991444848817272
outer loop
vertex 26.7692184340605 766.731109346154 -3.90008014543355
vertex 19.7700966853591 765.715569431498 -3.76775859116683
vertex 19.769221155545 766.724962929167 -3.90064788885941
endloop
endfacet
facet normal 0.000195022131670471 -0.130526141902937 -0.991444848817272
outer loop
vertex 19.7700966853591 765.715569431498 -3.76775859116683
vertex 26.7692184340605 766.731109346154 -3.90008014543355
vertex 26.7700939638747 765.721715848486 -3.76719084774097
endloop
endfacet
facet normal 0.00084225927445011 -0.92387917636092 -0.382683365311301
outer loop
vertex 26.7720259211945 763.353612875408 -1.95008066302909
vertex 19.7722944558222 762.957855111039 -1.01004302030013
vertex 19.7720286426789 763.347466458421 -1.95064840645495
endloop
endfacet
facet normal 0.00084225927445011 -0.92387917636092 -0.382683365311301
outer loop
vertex 19.7722944558222 762.957855111039 -1.01004302030013
vertex 26.7720259211945 763.353612875408 -1.95008066302909
vertex 26.7722917343378 762.964001528026 -1.00947527687427
endloop
endfacet
facet normal 0.892954543083828 -0.0579945847718096 -0.446395354056353
outer loop
vertex 28.2694684388032 766.733273715982 -6.99995728095509
vertex 29.2704293296599 765.438898256798 -4.82950605777406
vertex 28.2710399025722 764.92154179709 -6.76143802868636
endloop
endfacet
facet normal 0.892954543083828 -0.0579945847718096 -0.446395354056353
outer loop
vertex 29.2704293296599 765.438898256798 -4.82950605777406
vertex 28.2694684388032 766.733273715982 -6.99995728095509
vertex 29.2693068555392 766.732992484577 -4.99987695225173
endloop
endfacet
facet normal 0.892882120445897 -0.0579945847710628 0.446540196539203
outer loop
vertex 29.2696459038917 765.438898256798 4.82974844975665
vertex 28.2683329519515 766.733273715982 7.00003727607614
vertex 28.2699431064967 764.92154179709 6.76151828185649
endloop
endfacet
facet normal 0.892882120445897 -0.0579945847710628 0.446540196539203
outer loop
vertex 28.2683329519515 766.733273715982 7.00003727607614
vertex 29.2696459038917 765.438898256798 4.82974844975665
vertex 29.2684957935022 766.732992484577 5.00011915991355
endloop
endfacet
facet normal 0.000780183249688531 -0.92387917636092 0.382683496901506
outer loop
vertex 26.7721279980623 762.964001528026 1.00931249005376
vertex 19.7717123284845 763.347466458421 1.9493500772895
vertex 19.7721307195468 762.957855111039 1.0087447466279
endloop
endfacet
facet normal 0.000780183249688531 -0.92387917636092 0.382683496901506
outer loop
vertex 19.7717123284845 763.347466458421 1.9493500772895
vertex 26.7721279980623 762.964001528026 1.00931249005376
vertex 26.7717096070001 763.353612875408 1.94991782071536
endloop
endfacet
facet normal 0.999999611216512 0.00087805956967592 8.1106203698035e-05
outer loop
vertex 29.2732469840998 761.903367076721 -1.29397327461161
vertex 29.2730370657979 761.903367076721 1.29421617016792
vertex 29.2732916206622 761.73299633952 0.000121459911303401
endloop
endfacet
facet normal 0.999999611216512 0.00087805956967592 8.1106203698035e-05
outer loop
vertex 29.2730370657979 761.903367076721 1.29421617016792
vertex 29.2732469840998 761.903367076721 -1.29397327461161
vertex 29.2729061980187 762.402868804134 -2.49987761583574
endloop
endfacet
facet normal 0.999999611216512 0.00087805956967592 8.1106203698035e-05
outer loop
vertex 29.2730370657979 761.903367076721 1.29421617016792
vertex 29.2729061980187 762.402868804134 -2.49987761583574
vertex 29.2725006670002 762.402868804134 2.5001204402469
endloop
endfacet
facet normal 0.999999611216512 0.00087805956967592 8.1106203698035e-05
outer loop
vertex 29.2725006670002 762.402868804134 2.5001204402469
vertex 29.2729061980187 762.402868804134 -2.49987761583574
vertex 29.272292486427 763.197461304501 -3.53541117575782
endloop
endfacet
facet normal 0.999999611216512 0.00087805956967592 8.1106203698035e-05
outer loop
vertex 29.2725006670002 762.402868804134 2.5001204402469
vertex 29.272292486427 763.197461304501 -3.53541117575782
vertex 29.2717189789606 763.197461304501 3.53565388699336
endloop
endfacet
facet normal 0.999999611216512 0.00087805956967592 8.1106203698035e-05
outer loop
vertex 29.2717189789606 763.197461304501 3.53565388699336
vertex 29.272292486427 763.197461304501 -3.53541117575782
vertex 29.2714476727555 764.232994412049 -4.33000405356927
endloop
endfacet
facet normal 0.999999611216512 0.00087805956967592 8.1106203698035e-05
outer loop
vertex 29.2717189789606 763.197461304501 3.53565388699336
vertex 29.2714476727555 764.232994412049 -4.33000405356927
vertex 29.2710964734377 764.232993448313 0.000121281871177004
endloop
endfacet
facet normal 0.999999611216512 0.00087805956967592 8.1106203698035e-05
outer loop
vertex 29.2710964734377 764.232993448313 0.000121281871177004
vertex 29.2714476727555 764.232994412049 -4.33000405356927
vertex 29.2701744991289 765.482992966445 -2.16494230948889
endloop
endfacet
facet normal 0.999999611216512 0.00087805956967592 8.1106203698035e-05
outer loop
vertex 29.2701744991289 765.482992966445 -2.16494230948889
vertex 29.2714476727555 764.232994412049 -4.33000405356927
vertex 29.2704293296599 765.438898256798 -4.82950605777406
endloop
endfacet
facet normal 0.999999611216512 0.00087805956967592 8.1106203698035e-05
outer loop
vertex 29.2701744991289 765.482992966445 -2.16494230948889
vertex 29.2704293296599 765.438898256798 -4.82950605777406
vertex 29.2693068555392 766.732992484577 -4.99987695225173
endloop
endfacet
facet normal 0.999999611216512 0.00087805956967592 8.1106203698035e-05
outer loop
vertex 29.2701744991289 765.482992966445 -2.16494230948889
vertex 29.2693068555392 766.732992484577 -4.99987695225173
vertex 29.267979350212 767.982992002709 -2.16494248752915
endloop
endfacet
facet normal 0.999999611216512 0.00087805956967592 8.1106203698035e-05
outer loop
vertex 29.267979350212 767.982992002709 -2.16494248752915
vertex 29.2693068555392 766.732992484577 -4.99987695225173
vertex 29.2681567451498 768.027086712357 -4.82950624209483
endloop
endfacet
facet normal 0.999999611216512 0.00087805956967592 8.1106203698035e-05
outer loop
vertex 29.267979350212 767.982992002709 -2.16494248752915
vertex 29.2681567451498 768.027086712357 -4.82950624209483
vertex 29.2667061756038 769.232991520841 0.000120925790647147
endloop
endfacet
facet normal 0.999999611216512 0.00087805956967592 8.1106203698035e-05
outer loop
vertex 29.2667061756038 769.232991520841 0.000120925790647147
vertex 29.2681567451498 768.027086712357 -4.82950624209483
vertex 29.267057376614 769.232990557106 -4.33000440964966
endloop
endfacet
facet normal 0.999999611216512 0.00087805956967592 8.1106203698035e-05
outer loop
vertex 29.2667061756038 769.232991520841 0.000120925790647147
vertex 29.267057376614 769.232990557106 -4.33000440964966
vertex 29.2660836700808 770.268523664654 -3.53541167933154
endloop
endfacet
facet normal 0.999999611216512 0.00087805956967592 8.1106203698035e-05
outer loop
vertex 29.2710964734377 764.232993448313 0.000121281871177004
vertex 29.2707452724274 764.232994412049 4.33024661731148
vertex 29.2717189789606 763.197461304501 3.53565388699336
endloop
endfacet
facet normal 0.999999611216512 0.00087805956967592 8.1106203698035e-05
outer loop
vertex 29.2707452724274 764.232994412049 4.33024661731148
vertex 29.2710964734377 764.232993448313 0.000121281871177004
vertex 29.2698232988295 765.482992966445 2.16518469519098
endloop
endfacet
facet normal 0.999999611216512 0.00087805956967592 8.1106203698035e-05
outer loop
vertex 29.2707452724274 764.232994412049 4.33024661731148
vertex 29.2698232988295 765.482992966445 2.16518469519098
vertex 29.2696459038917 765.438898256798 4.82974844975665
endloop
endfacet
facet normal 0.999999611216512 0.00087805956967592 8.1106203698035e-05
outer loop
vertex 29.2696459038917 765.438898256798 4.82974844975665
vertex 29.2698232988295 765.482992966445 2.16518469519098
vertex 29.2684957935022 766.732992484577 5.00011915991355
endloop
endfacet
facet normal 0.999999611216512 0.00087805956967592 8.1106203698035e-05
outer loop
vertex 29.2684957935022 766.732992484577 5.00011915991355
vertex 29.2698232988295 765.482992966445 2.16518469519098
vertex 29.2676281499126 767.982992002709 2.16518451715071
endloop
endfacet
facet normal 0.999999611216512 0.00087805956967592 8.1106203698035e-05
outer loop
vertex 29.2684957935022 766.732992484577 5.00011915991355
vertex 29.2676281499126 767.982992002709 2.16518451715071
vertex 29.2673733193815 768.027086712357 4.82974826543588
endloop
endfacet
facet normal 0.999999611216512 0.00087805956967592 8.1106203698035e-05
outer loop
vertex 29.2673733193815 768.027086712357 4.82974826543588
vertex 29.2676281499126 767.982992002709 2.16518451715071
vertex 29.2667061756038 769.232991520841 0.000120925790647147
endloop
endfacet
facet normal 0.999999611216512 0.00087805956967592 8.1106203698035e-05
outer loop
vertex 29.2673733193815 768.027086712357 4.82974826543588
vertex 29.2667061756038 769.232991520841 0.000120925790647147
vertex 29.2663549762859 769.232990557106 4.33024626123109
endloop
endfacet
facet normal 0.999999611216512 0.00087805956967592 8.1106203698035e-05
outer loop
vertex 29.2663549762859 769.232990557106 4.33024626123109
vertex 29.2667061756038 769.232991520841 0.000120925790647147
vertex 29.2655101626145 770.268523664654 3.53565338341964
endloop
endfacet
facet normal 0.999999611216512 0.00087805956967592 8.1106203698035e-05
outer loop
vertex 29.2655101626145 770.268523664654 3.53565338341964
vertex 29.2667061756038 769.232991520841 0.000120925790647147
vertex 29.2660836700808 770.268523664654 -3.53541167933154
endloop
endfacet
facet normal 0.999999611216512 0.00087805956967592 8.1106203698035e-05
outer loop
vertex 29.2655101626145 770.268523664654 3.53565338341964
vertex 29.2660836700808 770.268523664654 -3.53541167933154
vertex 29.2653019820413 771.063116165021 -2.49987823258507
endloop
endfacet
facet normal 0.999999611216512 0.00087805956967592 8.1106203698035e-05
outer loop
vertex 29.2655101626145 770.268523664654 3.53565338341964
vertex 29.2653019820413 771.063116165021 -2.49987823258507
vertex 29.2648964510228 771.063116165021 2.50011982349757
endloop
endfacet
facet normal 0.999999611216512 0.00087805956967592 8.1106203698035e-05
outer loop
vertex 29.2648964510228 771.063116165021 2.50011982349757
vertex 29.2653019820413 771.063116165021 -2.49987823258507
vertex 29.2647655832436 771.562617892434 -1.2939739625061
endloop
endfacet
facet normal 0.999999611216512 0.00087805956967592 8.1106203698035e-05
outer loop
vertex 29.2648964510228 771.063116165021 2.50011982349757
vertex 29.2647655832436 771.562617892434 -1.2939739625061
vertex 29.2645556649416 771.562617892434 1.29421548227344
endloop
endfacet
facet normal 0.999999611216512 0.00087805956967592 8.1106203698035e-05
outer loop
vertex 29.2645556649416 771.562617892434 1.29421548227344
vertex 29.2647655832436 771.562617892434 -1.2939739625061
vertex 29.2645110283792 771.732988629634 0.00012074775052075
endloop
endfacet
facet normal 0.892588821097375 0.447018313570531 0.0588202667841397
outer loop
vertex 29.2645110283792 771.732988629634 0.00012074775052075
vertex 28.2628167719666 773.49474928698 1.81177212738005
vertex 29.2645556649416 771.562617892434 1.29421548227344
endloop
endfacet
facet normal 0.892588821097375 0.447018313570531 0.0588202667841397
outer loop
vertex 28.2628167719666 773.49474928698 1.81177212738005
vertex 29.2645110283792 771.732988629634 0.00012074775052075
vertex 28.2627542807792 773.733268319061 3.94990479883284e-05
endloop
endfacet
facet normal -0.000859961157444668 0.991444479177387 -0.130526262397605
outer loop
vertex 19.7654804103602 770.624959922311 -0.00064968285767002
vertex 26.76567624167 770.498217164282 -1.00947581343197
vertex 19.7656789631544 770.492070747295 -1.01004355685783
endloop
endfacet
facet normal -0.000859961157444668 0.991444479177387 -0.130526262397605
outer loop
vertex 26.76567624167 770.498217164282 -1.00947581343197
vertex 19.7654804103602 770.624959922311 -0.00064968285767002
vertex 26.7654776888758 770.631106339299 -8.19394318102073e-05
endloop
endfacet
facet normal -0.00026108645839552 0.382683284842796 -0.923879556725761
outer loop
vertex 26.7674638404989 768.681107842726 -3.37757956220394
vertex 19.7683240694412 767.734356426835 -3.76775873493703
vertex 19.7674665619833 768.674961425739 -3.3781473056298
endloop
endfacet
facet normal -0.00026108645839552 0.382683284842796 -0.923879556725761
outer loop
vertex 19.7683240694412 767.734356426835 -3.76775873493703
vertex 26.7674638404989 768.681107842726 -3.37757956220394
vertex 26.7683213479568 767.740502843823 -3.76719099151117
endloop
endfacet
facet normal 0.892806540477743 0.0595554384068661 0.446485868798028
outer loop
vertex 29.2673733193815 768.027086712357 4.82974826543588
vertex 28.2683329519515 766.733273715982 7.00003727607614
vertex 29.2684957935022 766.732992484577 5.00011915991355
endloop
endfacet
facet normal 0.892806540477743 0.0595554384068661 0.446485868798028
outer loop
vertex 28.2683329519515 766.733273715982 7.00003727607614
vertex 29.2673733193815 768.027086712357 4.82974826543588
vertex 28.2667614881825 768.545005634873 6.76151802380741
endloop
endfacet
facet normal 0.893085820378068 -0.273414717406514 -0.357270359455061
outer loop
vertex 28.272465582906 763.233276414442 -6.06213522279965
vertex 29.272292486427 763.197461304501 -3.53541117575782
vertex 28.273648322046 761.783530063875 -4.94970519386363
endloop
endfacet
facet normal 0.893085820378068 -0.273414717406514 -0.357270359455061
outer loop
vertex 29.272292486427 763.197461304501 -3.53541117575782
vertex 28.272465582906 763.233276414442 -6.06213522279965
vertex 29.2714476727555 764.232994412049 -4.33000405356927
endloop
endfacet
facet normal -0.000470182894200531 0.608761194334609 -0.793353381035429
outer loop
vertex 26.766704349403 769.488823666614 -2.7577972325558
vertex 19.7674665619833 768.674961425739 -3.3781473056298
vertex 19.7667070708874 769.482677249626 -2.75836497598166
endloop
endfacet
facet normal -0.000470182894200531 0.608761194334609 -0.793353381035429
outer loop
vertex 19.7674665619833 768.674961425739 -3.3781473056298
vertex 26.766704349403 769.488823666614 -2.7577972325558
vertex 26.7674638404989 768.681107842726 -3.37757956220394
endloop
endfacet
facet normal 0.000598874699049019 -0.608761194334652 -0.793353294328159
outer loop
vertex 26.7708882714893 764.781110849582 -3.37757928446123
vertex 19.7715499476374 763.967248608707 -2.75836458319416
vertex 19.7708909929737 764.774964432594 -3.37814702788709
endloop
endfacet
facet normal 0.000598874699049019 -0.608761194334652 -0.793353294328159
outer loop
vertex 19.7715499476374 763.967248608707 -2.75836458319416
vertex 26.7708882714893 764.781110849582 -3.37757928446123
vertex 26.771547226153 763.973395025695 -2.7577968397683
endloop
endfacet
facet normal -0.999999611216512 -0.000878059569672363 -8.11062036947958e-05
outer loop
vertex 26.777477294856 759.970483501883 1.81165165708703
vertex 26.7777711804787 759.970483501883 -1.81181356560429
vertex 26.7778336716661 759.731964469802 -8.09372722280932e-05
endloop
endfacet
facet normal -0.999999611216512 -0.000878059569672363 -8.11062036947958e-05
outer loop
vertex 26.7777711804787 759.970483501883 -1.81181356560429
vertex 26.777477294856 759.970483501883 1.81165165708703
vertex 26.7767263365392 760.669785920261 3.49991763519757
endloop
endfacet
facet normal -0.999999611216512 -0.000878059569672363 -8.11062036947958e-05
outer loop
vertex 26.7777711804787 759.970483501883 -1.81181356560429
vertex 26.7767263365392 760.669785920261 3.49991763519757
vertex 26.777294079965 760.669785920261 -3.50007964331805
endloop
endfacet
facet normal -0.999999611216512 -0.000878059569672363 -8.11062036947958e-05
outer loop
vertex 26.777294079965 760.669785920261 -3.50007964331805
vertex 26.7767263365392 760.669785920261 3.49991763519757
vertex 26.7756319732839 761.782215420775 4.9496644606426
endloop
endfacet
facet normal -0.999999611216512 -0.000878059569672363 -8.11062036947958e-05
outer loop
vertex 26.777294079965 760.669785920261 -3.50007964331805
vertex 26.7756319732839 761.782215420775 4.9496644606426
vertex 26.7764348837367 761.782215420775 -4.94982662720895
endloop
endfacet
facet normal -0.999999611216512 -0.000878059569672363 -8.11062036947958e-05
outer loop
vertex 26.7764348837367 761.782215420775 -4.94982662720895
vertex 26.7756319732839 761.782215420775 4.9496644606426
vertex 26.7742687841374 763.231961771342 6.06209428308796
endloop
endfacet
facet normal -0.999999611216512 -0.000878059569672363 -8.11062036947958e-05
outer loop
vertex 26.7764348837367 761.782215420775 -4.94982662720895
vertex 26.7742687841374 763.231961771342 6.06209428308796
vertex 26.7723265508565 762.83111235301 -8.13839463984001e-05
endloop
endfacet
facet normal -0.999999611216512 -0.000878059569672363 -8.11062036947958e-05
outer loop
vertex 26.7723265508565 762.83111235301 -8.13839463984001e-05
vertex 26.7742687841374 763.231961771342 6.06209428308796
vertex 26.7721279980623 762.964001528026 1.00931249005376
endloop
endfacet
facet normal -0.999999611216512 -0.000878059569672363 -8.11062036947958e-05
outer loop
vertex 26.7721279980623 762.964001528026 1.00931249005376
vertex 26.7742687841374 763.231961771342 6.06209428308796
vertex 26.7717096070001 763.353612875408 1.94991782071536
endloop
endfacet
facet normal -0.999999611216512 -0.000878059569672363 -8.11062036947958e-05
outer loop
vertex 26.7717096070001 763.353612875408 1.94991782071536
vertex 26.7742687841374 763.231961771342 6.06209428308796
vertex 26.7727296681873 764.92022715399 6.7613968485112
endloop
endfacet
facet normal -0.999999611216512 -0.000878059569672363 -8.11062036947958e-05
outer loop
vertex 26.7717096070001 763.353612875408 1.94991782071536
vertex 26.7727296681873 764.92022715399 6.7613968485112
vertex 26.7710998903293 763.973395025695 2.75763390917759
endloop
endfacet
facet normal -0.999999611216512 -0.000878059569672363 -8.11062036947958e-05
outer loop
vertex 26.7710998903293 763.973395025695 2.75763390917759
vertex 26.7727296681873 764.92022715399 6.7613968485112
vertex 26.7703403992334 764.781110849582 3.37741623882573
endloop
endfacet
facet normal -0.999999611216512 -0.000878059569672363 -8.11062036947958e-05
outer loop
vertex 26.7703403992334 764.781110849582 3.37741623882573
vertex 26.7727296681873 764.92022715399 6.7613968485112
vertex 26.7694828917755 765.721715848486 3.76702766813296
endloop
endfacet
facet normal -0.999999611216512 -0.000878059569672363 -8.11062036947958e-05
outer loop
vertex 26.7694828917755 765.721715848486 3.76702766813296
vertex 26.7727296681873 764.92022715399 6.7613968485112
vertex 26.7711195136421 766.731959072882 6.99991584273084
endloop
endfacet
facet normal -0.999999611216512 -0.000878059569672363 -8.11062036947958e-05
outer loop
vertex 26.7694828917755 765.721715848486 3.76702766813296
vertex 26.7711195136421 766.731959072882 6.99991584273084
vertex 26.7685858056717 766.731109346154 3.89991682205534
endloop
endfacet
facet normal -0.999999611216512 -0.000878059569672363 -8.11062036947958e-05
outer loop
vertex 26.7685858056717 766.731109346154 3.89991682205534
vertex 26.7711195136421 766.731959072882 6.99991584273084
vertex 26.7677102758576 767.740502843823 3.76702752436276
endloop
endfacet
facet normal -0.999999611216512 -0.000878059569672363 -8.11062036947958e-05
outer loop
vertex 26.7677102758576 767.740502843823 3.76702752436276
vertex 26.7711195136421 766.731959072882 6.99991584273084
vertex 26.7695480498731 768.543690991774 6.76139659046211
endloop
endfacet
facet normal -0.999999611216512 -0.000878059569672363 -8.11062036947958e-05
outer loop
vertex 26.7677102758576 767.740502843823 3.76702752436276
vertex 26.7695480498731 768.543690991774 6.76139659046211
vertex 26.766915968243 768.681107842726 3.37741596108302
endloop
endfacet
facet normal -0.999999611216512 -0.000878059569672363 -8.11062036947958e-05
outer loop
vertex 26.766915968243 768.681107842726 3.37741596108302
vertex 26.7695480498731 768.543690991774 6.76139659046211
vertex 26.7681223695393 770.231956374422 6.06209378457541
endloop
endfacet
facet normal -0.999999611216512 -0.000878059569672363 -8.11062036947958e-05
outer loop
vertex 26.766915968243 768.681107842726 3.37741596108302
vertex 26.7681223695393 770.231956374422 6.06209378457541
vertex 26.7662570135793 769.488823666614 2.75763351639009
endloop
endfacet
facet normal -0.999999611216512 -0.000878059569672363 -8.11062036947958e-05
outer loop
vertex 26.7662570135793 769.488823666614 2.75763351639009
vertex 26.7681223695393 770.231956374422 6.06209378457541
vertex 26.7657783185378 770.1086058169 1.94991733965088
endloop
endfacet
facet normal -0.999999611216512 -0.000878059569672363 -8.11062036947958e-05
outer loop
vertex 26.7657783185378 770.1086058169 1.94991733965088
vertex 26.7681223695393 770.231956374422 6.06209378457541
vertex 26.7655125053945 770.498217164282 1.00931195349606
endloop
endfacet
facet normal -0.999999611216512 -0.000878059569672363 -8.11062036947958e-05
outer loop
vertex 26.7655125053945 770.498217164282 1.00931195349606
vertex 26.7681223695393 770.231956374422 6.06209378457541
vertex 26.7669396303993 771.681702724989 4.94966375563939
endloop
endfacet
facet normal -0.999999611216512 -0.000878059569672363 -8.11062036947958e-05
outer loop
vertex 26.7655125053945 770.498217164282 1.00931195349606
vertex 26.7669396303993 771.681702724989 4.94966375563939
vertex 26.7654776888758 770.631106339299 -8.19394318102073e-05
endloop
endfacet
facet normal -0.999999611216512 -0.000878059569672363 -8.11062036947958e-05
outer loop
vertex 26.7723265508565 762.83111235301 -8.13839463984001e-05
vertex 26.7752521445966 763.231961771342 -6.06225665614496
vertex 26.7764348837367 761.782215420775 -4.94982662720895
endloop
endfacet
facet normal -0.999999611216512 -0.000878059569672363 -8.11062036947958e-05
outer loop
vertex 26.7752521445966 763.231961771342 -6.06225665614496
vertex 26.7723265508565 762.83111235301 -8.13839463984001e-05
vertex 26.7722917343378 762.964001528026 -1.00947527687427
endloop
endfacet
facet normal -0.999999611216512 -0.000878059569672363 -8.11062036947958e-05
outer loop
vertex 26.7752521445966 763.231961771342 -6.06225665614496
vertex 26.7722917343378 762.964001528026 -1.00947527687427
vertex 26.7720259211945 763.353612875408 -1.95008066302909
endloop
endfacet
facet normal -0.999999611216512 -0.000878059569672363 -8.11062036947958e-05
outer loop
vertex 26.7752521445966 763.231961771342 -6.06225665614496
vertex 26.7720259211945 763.353612875408 -1.95008066302909
vertex 26.7738264642628 764.92022715399 -6.76155946203166
endloop
endfacet
facet normal -0.999999611216512 -0.000878059569672363 -8.11062036947958e-05
outer loop
vertex 26.7738264642628 764.92022715399 -6.76155946203166
vertex 26.7720259211945 763.353612875408 -1.95008066302909
vertex 26.771547226153 763.973395025695 -2.7577968397683
endloop
endfacet
facet normal -0.999999611216512 -0.000878059569672363 -8.11062036947958e-05
outer loop
vertex 26.7738264642628 764.92022715399 -6.76155946203166
vertex 26.771547226153 763.973395025695 -2.7577968397683
vertex 26.7708882714893 764.781110849582 -3.37757928446123
endloop
endfacet
facet normal -0.999999611216512 -0.000878059569672363 -8.11062036947958e-05
outer loop
vertex 26.7738264642628 764.92022715399 -6.76155946203166
vertex 26.7708882714893 764.781110849582 -3.37757928446123
vertex 26.7700939638747 765.721715848486 -3.76719084774097
endloop
endfacet
facet normal -0.999999611216512 -0.000878059569672363 -8.11062036947958e-05
outer loop
vertex 26.7738264642628 764.92022715399 -6.76155946203166
vertex 26.7700939638747 765.721715848486 -3.76719084774097
vertex 26.7722550004938 766.731959072882 -7.0000787143004
endloop
endfacet
facet normal -0.999999611216512 -0.000878059569672363 -8.11062036947958e-05
outer loop
vertex 26.7722550004938 766.731959072882 -7.0000787143004
vertex 26.7700939638747 765.721715848486 -3.76719084774097
vertex 26.7692184340605 766.731109346154 -3.90008014543355
endloop
endfacet
facet normal -0.999999611216512 -0.000878059569672363 -8.11062036947958e-05
outer loop
vertex 26.7722550004938 766.731959072882 -7.0000787143004
vertex 26.7692184340605 766.731109346154 -3.90008014543355
vertex 26.7683213479568 767.740502843823 -3.76719099151117
endloop
endfacet
facet normal -0.999999611216512 -0.000878059569672363 -8.11062036947958e-05
outer loop
vertex 26.7722550004938 766.731959072882 -7.0000787143004
vertex 26.7683213479568 767.740502843823 -3.76719099151117
vertex 26.7706448459486 768.543690991774 -6.76155972008075
endloop
endfacet
facet normal -0.999999611216512 -0.000878059569672363 -8.11062036947958e-05
outer loop
vertex 26.7706448459486 768.543690991774 -6.76155972008075
vertex 26.7683213479568 767.740502843823 -3.76719099151117
vertex 26.7674638404989 768.681107842726 -3.37757956220394
endloop
endfacet
facet normal -0.999999611216512 -0.000878059569672363 -8.11062036947958e-05
outer loop
vertex 26.7706448459486 768.543690991774 -6.76155972008075
vertex 26.7674638404989 768.681107842726 -3.37757956220394
vertex 26.7691057299986 770.231956374422 -6.06225715465751
endloop
endfacet
facet normal -0.999999611216512 -0.000878059569672363 -8.11062036947958e-05
outer loop
vertex 26.7691057299986 770.231956374422 -6.06225715465751
vertex 26.7674638404989 768.681107842726 -3.37757956220394
vertex 26.766704349403 769.488823666614 -2.7577972325558
endloop
endfacet
facet normal -0.999999611216512 -0.000878059569672363 -8.11062036947958e-05
outer loop
vertex 26.7691057299986 770.231956374422 -6.06225715465751
vertex 26.766704349403 769.488823666614 -2.7577972325558
vertex 26.7660946327322 770.1086058169 -1.95008114409357
endloop
endfacet
facet normal -0.999999611216512 -0.000878059569672363 -8.11062036947958e-05
outer loop
vertex 26.7691057299986 770.231956374422 -6.06225715465751
vertex 26.7660946327322 770.1086058169 -1.95008114409357
vertex 26.76567624167 770.498217164282 -1.00947581343197
endloop
endfacet
facet normal -0.999999611216512 -0.000878059569672363 -8.11062036947958e-05
outer loop
vertex 26.7691057299986 770.231956374422 -6.06225715465751
vertex 26.76567624167 770.498217164282 -1.00947581343197
vertex 26.7677425408521 771.681702724989 -4.94982733221215
endloop
endfacet
facet normal -0.999999611216512 -0.000878059569672363 -8.11062036947958e-05
outer loop
vertex 26.7677425408521 771.681702724989 -4.94982733221215
vertex 26.76567624167 770.498217164282 -1.00947581343197
vertex 26.7654776888758 770.631106339299 -8.19394318102073e-05
endloop
endfacet
facet normal -0.999999611216512 -0.000878059569672363 -8.11062036947958e-05
outer loop
vertex 26.7677425408521 771.681702724989 -4.94982733221215
vertex 26.7654776888758 770.631106339299 -8.19394318102073e-05
vertex 26.7669396303993 771.681702724989 4.94966375563939
endloop
endfacet
facet normal -0.999999611216512 -0.000878059569672363 -8.11062036947958e-05
outer loop
vertex 26.7677425408521 771.681702724989 -4.94982733221215
vertex 26.7669396303993 771.681702724989 4.94966375563939
vertex 26.7660804341709 772.794132225503 3.4999167717485
endloop
endfacet
facet normal -0.999999611216512 -0.000878059569672363 -8.11062036947958e-05
outer loop
vertex 26.7677425408521 771.681702724989 -4.94982733221215
vertex 26.7660804341709 772.794132225503 3.4999167717485
vertex 26.7666481775968 772.794132225503 -3.50008050676712
endloop
endfacet
facet normal -0.999999611216512 -0.000878059569672363 -8.11062036947958e-05
outer loop
vertex 26.7666481775968 772.794132225503 -3.50008050676712
vertex 26.7660804341709 772.794132225503 3.4999167717485
vertex 26.7656033336573 773.493434643881 1.81165069403473
endloop
endfacet
facet normal -0.999999611216512 -0.000878059569672363 -8.11062036947958e-05
outer loop
vertex 26.7666481775968 772.794132225503 -3.50008050676712
vertex 26.7656033336573 773.493434643881 1.81165069403473
vertex 26.7658972192799 773.493434643881 -1.81181452865658
endloop
endfacet
facet normal -0.999999611216512 -0.000878059569672363 -8.11062036947958e-05
outer loop
vertex 26.7658972192799 773.493434643881 -1.81181452865658
vertex 26.7656033336573 773.493434643881 1.81165069403473
vertex 26.7655408424699 773.731953675962 -8.19342973252146e-05
endloop
endfacet
facet normal -0.000842259274450088 0.92387917636092 0.382683365311301
outer loop
vertex 19.7657810400222 770.102459399913 1.94934959622502
vertex 26.7655125053945 770.498217164282 1.00931195349606
vertex 19.7655152268789 770.492070747295 1.0087442100702
endloop
endfacet
facet normal -0.000842259274450088 0.92387917636092 0.382683365311301
outer loop
vertex 26.7655125053945 770.498217164282 1.00931195349606
vertex 19.7657810400222 770.102459399913 1.94934959622502
vertex 26.7657783185378 770.1086058169 1.94991733965088
endloop
endfacet
facet normal 0.000691425726132254 -0.866025094560936 0.500000057521184
outer loop
vertex 29.267979350212 767.982992002709 -2.16494248752915
vertex 19.7667096924336 769.224961965431 -0.000649583155229749
vertex 19.7679828670418 767.974962447298 -2.16571299647503
endloop
endfacet
facet normal 0.000691425726132254 -0.866025094560936 0.500000057521184
outer loop
vertex 19.7667096924336 769.224961965431 -0.000649583155229749
vertex 29.267979350212 767.982992002709 -2.16494248752915
vertex 29.2667061756038 769.232991520841 0.000120925790647147
endloop
endfacet
facet normal 0.000772531960707602 -0.866025094560868 -0.499999938785206
outer loop
vertex 29.2667061756038 769.232991520841 0.000120925790647147
vertex 19.7676316667424 767.974962447299 2.16441400820484
vertex 19.7667096924336 769.224961965431 -0.000649583155229749
endloop
endfacet
facet normal 0.000772531960707602 -0.866025094560868 -0.499999938785206
outer loop
vertex 19.7676316667424 767.974962447299 2.16441400820484
vertex 29.2667061756038 769.232991520841 0.000120925790647147
vertex 29.2676281499126 767.982992002709 2.16518451715071
endloop
endfacet
facet normal -0.000691425726132239 0.866025094560855 -0.500000057521324
outer loop
vertex 19.7698268156593 765.474963411035 2.1644141862451
vertex 29.2710964734377 764.232993448313 0.000121281871177004
vertex 19.7710999902675 764.224963892903 -0.000649227074699893
endloop
endfacet
facet normal -0.000691425726132239 0.866025094560855 -0.500000057521324
outer loop
vertex 29.2710964734377 764.232993448313 0.000121281871177004
vertex 19.7698268156593 765.474963411035 2.1644141862451
vertex 29.2698232988295 765.482992966445 2.16518469519098
endloop
endfacet
facet normal -0.000772531960707669 0.866025094560954 0.499999938785056
outer loop
vertex 19.7710999902675 764.224963892903 -0.000649227074699893
vertex 29.2701744991289 765.482992966445 -2.16494230948889
vertex 19.7701780159587 765.474963411035 -2.16571281843476
endloop
endfacet
facet normal -0.000772531960707669 0.866025094560954 0.499999938785056
outer loop
vertex 29.2701744991289 765.482992966445 -2.16494230948889
vertex 19.7710999902675 764.224963892903 -0.000649227074699893
vertex 29.2710964734377 764.232993448313 0.000121281871177004
endloop
endfacet
facet normal 0.000509269843273479 -0.499999807252761 -0.866025365327961
outer loop
vertex 28.272465582906 763.233276414442 -6.06213522279965
vertex 26.7764348837367 761.782215420775 -4.94982662720895
vertex 26.7752521445966 763.231961771342 -6.06225665614496
endloop
endfacet
facet normal 0.00067823264269623 -0.707106508600888 -0.707106728503374
outer loop
vertex 26.7764348837367 761.782215420775 -4.94982662720895
vertex 28.272465582906 763.233276414442 -6.06213522279965
vertex 28.273648322046 761.783530063875 -4.94970519386363
endloop
endfacet
facet normal 0.000869132250861584 -0.965925453930089 -0.258818975461774
outer loop
vertex 28.274984618788 759.971798144983 -1.81169213225897
vertex 26.7778336716661 759.731964469802 -8.09372722280932e-05
vertex 26.7777711804787 759.970483501883 -1.81181356560429
endloop
endfacet
facet normal 0.000878059566784328 -0.999999614505622 7.121610549015e-08
outer loop
vertex 26.7778336716661 759.731964469802 -8.09372722280932e-05
vertex 28.274984618788 759.971798144983 -1.81169213225897
vertex 28.2750471099754 759.733279112902 4.04960730854498e-05
endloop
endfacet
facet normal -0.999999611216512 -0.000878059569672491 -8.11062036915887e-05
outer loop
vertex 19.7710999902675 764.224963892903 -0.000649227074699893
vertex 19.7722944558222 762.957855111039 -1.01004302030013
vertex 19.7723292723409 762.824965936022 -0.000649127372258917
endloop
endfacet
facet normal -0.999999611216512 -0.000878059569672491 -8.11062036915887e-05
outer loop
vertex 19.7722944558222 762.957855111039 -1.01004302030013
vertex 19.7710999902675 764.224963892903 -0.000649227074699893
vertex 19.7720286426789 763.347466458421 -1.95064840645495
endloop
endfacet
facet normal -0.999999611216512 -0.000878059569672491 -8.11062036915887e-05
outer loop
vertex 19.7720286426789 763.347466458421 -1.95064840645495
vertex 19.7710999902675 764.224963892903 -0.000649227074699893
vertex 19.7715499476374 763.967248608707 -2.75836458319416
endloop
endfacet
facet normal -0.999999611216512 -0.000878059569672491 -8.11062036915887e-05
outer loop
vertex 19.7715499476374 763.967248608707 -2.75836458319416
vertex 19.7710999902675 764.224963892903 -0.000649227074699893
vertex 19.7708909929737 764.774964432594 -3.37814702788709
endloop
endfacet
facet normal -0.999999611216512 -0.000878059569672491 -8.11062036915887e-05
outer loop
vertex 19.7708909929737 764.774964432594 -3.37814702788709
vertex 19.7710999902675 764.224963892903 -0.000649227074699893
vertex 19.7701780159587 765.474963411035 -2.16571281843476
endloop
endfacet
facet normal -0.999999611216512 -0.000878059569672491 -8.11062036915887e-05
outer loop
vertex 19.7708909929737 764.774964432594 -3.37814702788709
vertex 19.7701780159587 765.474963411035 -2.16571281843476
vertex 19.7700966853591 765.715569431498 -3.76775859116683
endloop
endfacet
facet normal -0.999999611216512 -0.000878059569672491 -8.11062036915887e-05
outer loop
vertex 19.7700966853591 765.715569431498 -3.76775859116683
vertex 19.7701780159587 765.474963411035 -2.16571281843476
vertex 19.7679828670418 767.974962447298 -2.16571299647503
endloop
endfacet
facet normal -0.999999611216512 -0.000878059569672491 -8.11062036915887e-05
outer loop
vertex 19.7700966853591 765.715569431498 -3.76775859116683
vertex 19.7679828670418 767.974962447298 -2.16571299647503
vertex 19.769221155545 766.724962929167 -3.90064788885941
endloop
endfacet
facet normal -0.999999611216512 -0.000878059569672491 -8.11062036915887e-05
outer loop
vertex 19.769221155545 766.724962929167 -3.90064788885941
vertex 19.7679828670418 767.974962447298 -2.16571299647503
vertex 19.7683240694412 767.734356426835 -3.76775873493703
endloop
endfacet
facet normal -0.999999611216512 -0.000878059569672491 -8.11062036915887e-05
outer loop
vertex 19.7683240694412 767.734356426835 -3.76775873493703
vertex 19.7679828670418 767.974962447298 -2.16571299647503
vertex 19.7674665619833 768.674961425739 -3.3781473056298
endloop
endfacet
facet normal -0.999999611216512 -0.000878059569672491 -8.11062036915887e-05
outer loop
vertex 19.7674665619833 768.674961425739 -3.3781473056298
vertex 19.7679828670418 767.974962447298 -2.16571299647503
vertex 19.7667096924336 769.224961965431 -0.000649583155229749
endloop
endfacet
facet normal -0.999999611216512 -0.000878059569672491 -8.11062036915887e-05
outer loop
vertex 19.7674665619833 768.674961425739 -3.3781473056298
vertex 19.7667096924336 769.224961965431 -0.000649583155229749
vertex 19.7667070708874 769.482677249626 -2.75836497598166
endloop
endfacet
facet normal -0.999999611216512 -0.000878059569672491 -8.11062036915887e-05
outer loop
vertex 19.7667070708874 769.482677249626 -2.75836497598166
vertex 19.7667096924336 769.224961965431 -0.000649583155229749
vertex 19.7654804103602 770.624959922311 -0.00064968285767002
endloop
endfacet
facet normal -0.999999611216512 -0.000878059569672491 -8.11062036915887e-05
outer loop
vertex 19.7667070708874 769.482677249626 -2.75836497598166
vertex 19.7654804103602 770.624959922311 -0.00064968285767002
vertex 19.7660973542166 770.102459399913 -1.95064888751943
endloop
endfacet
facet normal -0.999999611216512 -0.000878059569672491 -8.11062036915887e-05
outer loop
vertex 19.7660973542166 770.102459399913 -1.95064888751943
vertex 19.7654804103602 770.624959922311 -0.00064968285767002
vertex 19.7656789631544 770.492070747295 -1.01004355685783
endloop
endfacet
facet normal -0.000678232642696184 0.70710650860083 0.707106728503432
outer loop
vertex 26.7669396303993 771.681702724989 4.94966375563939
vertex 28.2632938724803 772.795446868603 3.50003820509382
vertex 26.7660804341709 772.794132225503 3.4999167717485
endloop
endfacet
facet normal -0.000800975008351597 0.866025069936532 0.499999936680457
outer loop
vertex 28.2632938724803 772.795446868603 3.50003820509382
vertex 26.7669396303993 771.681702724989 4.94966375563939
vertex 28.2641530687086 771.683017368088 4.9497851889847
endloop
endfacet
facet normal -0.000563531105221662 0.707106508600888 -0.707106829218157
outer loop
vertex 28.2649559791614 771.683017368088 -4.94970589886684
vertex 26.7691057299986 770.231956374422 -6.06225715465751
vertex 26.7677425408521 771.681702724989 -4.94982733221215
endloop
endfacet
facet normal -0.000368789723510761 0.499999807252761 -0.866025436544067
outer loop
vertex 26.7691057299986 770.231956374422 -6.06225715465751
vertex 28.2649559791614 771.683017368088 -4.94970589886684
vertex 28.2663191683079 770.233271017521 -6.0621357213122
endloop
endfacet
facet normal 0.000148915931596599 -0.258818945329285 0.965925841544102
outer loop
vertex 26.7727296681873 764.92022715399 6.7613968485112
vertex 28.2683329519515 766.733273715982 7.00003727607614
vertex 26.7711195136421 766.731959072882 6.99991584273084
endloop
endfacet
facet normal -8.1106234960845e-05 5.87955030914783e-14 0.999999996710889
outer loop
vertex 28.2683329519515 766.733273715982 7.00003727607614
vertex 26.7727296681873 764.92022715399 6.7613968485112
vertex 28.2699431064967 764.92154179709 6.76151828185649
endloop
endfacet
facet normal -0.000800975008351576 0.866025069936503 0.499999936680506
outer loop
vertex 26.7660804341709 772.794132225503 3.4999167717485
vertex 28.2628167719666 773.49474928698 1.81177212738005
vertex 26.7656033336573 773.493434643881 1.81165069403473
endloop
endfacet
facet normal -0.000869132250861589 0.965925453930096 0.258818975461745
outer loop
vertex 28.2628167719666 773.49474928698 1.81177212738005
vertex 26.7660804341709 772.794132225503 3.4999167717485
vertex 28.2632938724803 772.795446868603 3.50003820509382
endloop
endfacet
facet normal -0.000719868773390779 0.866025069936503 -0.50000006003042
outer loop
vertex 26.7666481775968 772.794132225503 -3.50008050676712
vertex 28.2649559791614 771.683017368088 -4.94970589886684
vertex 26.7677425408521 771.681702724989 -4.94982733221215
endloop
endfacet
facet normal -0.000563531105221662 0.707106508600888 -0.707106829218157
outer loop
vertex 28.2649559791614 771.683017368088 -4.94970589886684
vertex 26.7666481775968 772.794132225503 -3.50008050676712
vertex 28.2638616159061 772.795446868603 -3.4999590734218
endloop
endfacet
facet normal 0.000368789723510841 -0.499999807252848 0.866025436544017
outer loop
vertex 26.7742687841374 763.231961771342 6.06209428308796
vertex 28.2699431064967 764.92154179709 6.76151828185649
vertex 26.7727296681873 764.92022715399 6.7613968485112
endloop
endfacet
facet normal 0.000148915931596502 -0.258818945329177 0.965925841544131
outer loop
vertex 28.2699431064967 764.92154179709 6.76151828185649
vertex 26.7742687841374 763.231961771342 6.06209428308796
vertex 28.2714822224467 763.233276414442 6.06221571643328
endloop
endfacet
facet normal -3.41974119165232e-05 0.130526141902937 -0.991444867408406
outer loop
vertex 26.7683213479568 767.740502843823 -3.76719099151117
vertex 19.769221155545 766.724962929167 -3.90064788885941
vertex 19.7683240694412 767.734356426835 -3.76775873493703
endloop
endfacet
facet normal -3.41974119165232e-05 0.130526141902937 -0.991444867408406
outer loop
vertex 19.769221155545 766.724962929167 -3.90064788885941
vertex 26.7683213479568 767.740502843823 -3.76719099151117
vertex 26.7692184340605 766.731109346154 -3.90008014543355
endloop
endfacet
facet normal -0.000881134133474006 0.991444479177387 0.130526121183921
outer loop
vertex 19.7655152268789 770.492070747295 1.0087442100702
vertex 26.7654776888758 770.631106339299 -8.19394318102073e-05
vertex 19.7654804103602 770.624959922311 -0.00064968285767002
endloop
endfacet
facet normal -0.000881134133474006 0.991444479177387 0.130526121183921
outer loop
vertex 26.7654776888758 770.631106339299 -8.19394318102073e-05
vertex 19.7655152268789 770.492070747295 1.0087442100702
vertex 26.7655125053945 770.498217164282 1.00931195349606
endloop
endfacet
endsolid Delta Dev
