solid Delta v7
facet normal -3.17499923053846e-07 -5.4992588926532e-07 -0.999999999999798
outer loop
vertex 33.7973672297599 53.1613419532751 3.55070271594791
vertex 34.0160203783166 49.340060864412 3.55070474794696
vertex 32.1973671203743 50.3900610203052 3.55070474794696
endloop
endfacet
facet normal -3.17499923053846e-07 -5.4992588926532e-07 -0.999999999999798
outer loop
vertex 34.0160203783166 49.340060864412 3.55070474794696
vertex 33.7973672297599 53.1613419532751 3.55070271594791
vertex 35.6160204877023 52.1113417973819 3.55070271594791
endloop
endfacet
facet normal -0.750000153382482 0.433012436225859 0.5
outer loop
vertex 16.9253473318032 17.6381468164407 1.7320514
vertex 14.4160215750061 15.3918648459077 -0.0866019479473103
vertex 15.3253484349461 14.866865168011 1.7320514
endloop
endfacet
facet normal -0.750000153382482 0.433012436225859 0.5
outer loop
vertex 14.4160215750061 15.3918648459077 -0.0866019479473103
vertex 16.9253473318032 17.6381468164407 1.7320514
vertex 16.0160204718631 18.1631464943374 -0.086601947947311
endloop
endfacet
facet normal -0.750000153382482 0.433012436225859 -0.5
outer loop
vertex 14.4160215750061 15.3918648459077 3.55070474794731
vertex 16.9253473318032 17.6381468164407 1.7320514
vertex 15.3253484349461 14.866865168011 1.7320514
endloop
endfacet
facet normal -0.750000153382482 0.433012436225859 -0.5
outer loop
vertex 16.9253473318032 17.6381468164407 1.7320514
vertex 14.4160215750061 15.3918648459077 3.55070474794731
vertex 16.0160204718631 18.1631464943374 3.55070474794731
endloop
endfacet
facet normal 0.750000153382482 -0.433012436225859 0.5
outer loop
vertex 14.1973667519831 19.2131458501307 -0.0866019479473106
vertex 11.688040995186 16.9668638795976 1.7320514
vertex 12.597367855126 16.441864201701 -0.08660194794731
endloop
endfacet
facet normal 0.750000153382482 -0.433012436225859 0.5
outer loop
vertex 11.688040995186 16.9668638795976 1.7320514
vertex 14.1973667519831 19.2131458501307 -0.0866019479473106
vertex 13.2880398920431 19.7381455280274 1.7320514
endloop
endfacet
facet normal -6.85413127230451e-16 1.55670674348338e-16 -1.0
outer loop
vertex 14.1973667519831 19.2131458501307 3.55070474794731
vertex 14.4160215750061 15.3918648459077 3.55070474794731
vertex 12.597367855126 16.441864201701 3.55070474794731
endloop
endfacet
facet normal -6.85413127230451e-16 1.55670674348338e-16 -1.0
outer loop
vertex 14.4160215750061 15.3918648459077 3.55070474794731
vertex 14.1973667519831 19.2131458501307 3.55070474794731
vertex 16.0160204718631 18.1631464943374 3.55070474794731
endloop
endfacet
facet normal -1.52572862877045e-17 -6.96189049241341e-18 -1.0
outer loop
vertex 9.64869335192311 14.4506121022341 -1.49999954
vertex 9.64869335192311 13.0529898022341 -1.49999954
vertex 9.55669455192311 13.7518022222341 -1.49999954
endloop
endfacet
facet normal -1.52572862877045e-17 -6.96189049241341e-18 -1.0
outer loop
vertex 9.64869335192311 13.0529898022341 -1.49999954
vertex 9.64869335192311 14.4506121022341 -1.49999954
vertex 9.91842611192311 15.1018020622341 -1.49999954
endloop
endfacet
facet normal -1.52572862877045e-17 -6.96189049241341e-18 -1.0
outer loop
vertex 9.64869335192311 13.0529898022341 -1.49999954
vertex 9.91842611192311 15.1018020622341 -1.49999954
vertex 9.91842611192311 12.4018023822341 -1.49999954
endloop
endfacet
facet normal -1.52572862877045e-17 -6.96189049241341e-18 -1.0
outer loop
vertex 9.91842611192311 12.4018023822341 -1.49999954
vertex 9.91842611192311 15.1018020622341 -1.49999954
vertex 10.1566942319233 13.7518017989943 -1.49999954
endloop
endfacet
facet normal -1.52572862877045e-17 -6.96189049241341e-18 -1.0
outer loop
vertex 10.1566942319233 13.7518017989943 -1.49999954
vertex 9.91842611192311 15.1018020622341 -1.49999954
vertex 13.3746422119231 19.6881454422341 -1.49999954
endloop
endfacet
facet normal -1.52572862877045e-17 -6.96189049241341e-18 -1.0
outer loop
vertex 10.1566942319233 13.7518017989943 -1.49999954
vertex 13.3746422119231 19.6881454422341 -1.49999954
vertex 11.206694965239 15.5704547235613 -1.49999954
endloop
endfacet
facet normal -1.52572862877045e-17 -6.96189049241341e-18 -1.0
outer loop
vertex 11.206694965239 15.5704547235613 -1.49999954
vertex 13.3746422119231 19.6881454422341 -1.49999954
vertex 13.3066949652389 15.5704538768011 -1.49999954
endloop
endfacet
facet normal -1.52572862877045e-17 -6.96189049241341e-18 -1.0
outer loop
vertex 13.3066949652389 15.5704538768011 -1.49999954
vertex 13.3746422119231 19.6881454422341 -1.49999954
vertex 14.3566942319229 13.7518001054739 -1.49999954
endloop
endfacet
facet normal -1.52572862877045e-17 -6.96189049241341e-18 -1.0
outer loop
vertex 14.3566942319229 13.7518001054739 -1.49999954
vertex 13.3746422119231 19.6881454422341 -1.49999954
vertex 16.8387450119231 17.6881469022341 -1.49999954
endloop
endfacet
facet normal -1.52572862877045e-17 -6.96189049241341e-18 -1.0
outer loop
vertex 33.6184244319231 56.1514050022341 -1.49999954
vertex 34.8387445719231 48.8650594022341 -1.49999954
vertex 31.3746417719231 50.8650604822341 -1.49999954
endloop
endfacet
facet normal -1.52572862877045e-17 -6.96189049241341e-18 -1.0
outer loop
vertex 34.8387445719231 48.8650594022341 -1.49999954
vertex 33.6184244319231 56.1514050022341 -1.49999954
vertex 33.8566938219234 54.8014041873993 -1.49999954
endloop
endfacet
facet normal -1.52572862877045e-17 -6.96189049241341e-18 -1.0
outer loop
vertex 34.8387445719231 48.8650594022341 -1.49999954
vertex 33.8566938219234 54.8014041873993 -1.49999954
vertex 34.9066946661549 52.9827513268696 -1.49999954
endloop
endfacet
facet normal -1.52572862877045e-17 -6.96189049241341e-18 -1.0
outer loop
vertex 34.0475066319231 56.7105936222341 -1.49999954
vertex 33.8566938219234 54.8014041873993 -1.49999954
vertex 33.6184244319231 56.1514050022341 -1.49999954
endloop
endfacet
facet normal -1.52572862877045e-17 -6.96189049241341e-18 -1.0
outer loop
vertex 33.8566938219234 54.8014041873993 -1.49999954
vertex 34.0475066319231 56.7105936222341 -1.49999954
vertex 34.9066929776916 56.6200580227638 -1.49999954
endloop
endfacet
facet normal -1.52572862877045e-17 -6.96189049241341e-18 -1.0
outer loop
vertex 34.9066929776916 56.6200580227638 -1.49999954
vertex 34.0475066319231 56.7105936222341 -1.49999954
vertex 34.6066927119231 57.1396732822341 -1.49999954
endloop
endfacet
facet normal -1.52572862877045e-17 -6.96189049241341e-18 -1.0
outer loop
vertex 34.9066929776916 56.6200580227638 -1.49999954
vertex 34.6066927119231 57.1396732822341 -1.49999954
vertex 35.2578826719231 57.4094060422341 -1.49999954
endloop
endfacet
facet normal -1.52572862877045e-17 -6.96189049241341e-18 -1.0
outer loop
vertex 34.9066929776916 56.6200580227638 -1.49999954
vertex 35.2578826719231 57.4094060422341 -1.49999954
vertex 37.0066929776914 56.6200589975986 -1.49999954
endloop
endfacet
facet normal -1.52572862877045e-17 -6.96189049241341e-18 -1.0
outer loop
vertex 37.0066929776914 56.6200589975986 -1.49999954
vertex 35.2578826719231 57.4094060422341 -1.49999954
vertex 35.9566925519231 57.5014048422341 -1.49999954
endloop
endfacet
facet normal -1.52572862877045e-17 -6.96189049241341e-18 -1.0
outer loop
vertex 37.0066929776914 56.6200589975986 -1.49999954
vertex 35.9566925519231 57.5014048422341 -1.49999954
vertex 36.6555049719231 57.4094060422341 -1.49999954
endloop
endfacet
facet normal -1.52572862877045e-17 -6.96189049241341e-18 -1.0
outer loop
vertex 37.0066929776914 56.6200589975986 -1.49999954
vertex 36.6555049719231 57.4094060422341 -1.49999954
vertex 37.3066949319231 57.1396732822341 -1.49999954
endloop
endfacet
facet normal -1.52572862877045e-17 -6.96189049241341e-18 -1.0
outer loop
vertex 37.0066929776914 56.6200589975986 -1.49999954
vertex 37.3066949319231 57.1396732822341 -1.49999954
vertex 38.0566938219229 54.8014061370688 -1.49999954
endloop
endfacet
facet normal -1.52572862877045e-17 -6.96189049241341e-18 -1.0
outer loop
vertex 38.0566938219229 54.8014061370688 -1.49999954
vertex 37.3066949319231 57.1396732822341 -1.49999954
vertex 37.8658810119231 56.7105936222341 -1.49999954
endloop
endfacet
facet normal -1.52572862877045e-17 -6.96189049241341e-18 -1.0
outer loop
vertex 38.0566938219229 54.8014061370688 -1.49999954
vertex 37.8658810119231 56.7105936222341 -1.49999954
vertex 38.2949632119231 56.1514050022341 -1.49999954
endloop
endfacet
facet normal -1.52572862877045e-17 -6.96189049241341e-18 -1.0
outer loop
vertex 10.1566942319233 13.7518017989943 -1.49999954
vertex 10.3475057719231 11.8426137622341 -1.49999954
vertex 9.91842611192311 12.4018023822341 -1.49999954
endloop
endfacet
facet normal -1.52572862877045e-17 -6.96189049241341e-18 -1.0
outer loop
vertex 10.3475057719231 11.8426137622341 -1.49999954
vertex 10.1566942319233 13.7518017989943 -1.49999954
vertex 11.2066934986074 11.933148027667 -1.49999954
endloop
endfacet
facet normal -1.52572862877045e-17 -6.96189049241341e-18 -1.0
outer loop
vertex 10.3475057719231 11.8426137622341 -1.49999954
vertex 11.2066934986074 11.933148027667 -1.49999954
vertex 10.9066943919231 11.4135315622341 -1.49999954
endloop
endfacet
facet normal -1.52572862877045e-17 -6.96189049241341e-18 -1.0
outer loop
vertex 10.9066943919231 11.4135315622341 -1.49999954
vertex 11.2066934986074 11.933148027667 -1.49999954
vertex 11.5578818119231 11.1438013422341 -1.49999954
endloop
endfacet
facet normal -1.52572862877045e-17 -6.96189049241341e-18 -1.0
outer loop
vertex 11.5578818119231 11.1438013422341 -1.49999954
vertex 11.2066934986074 11.933148027667 -1.49999954
vertex 13.3066934986072 11.9331471809068 -1.49999954
endloop
endfacet
facet normal -1.52572862877045e-17 -6.96189049241341e-18 -1.0
outer loop
vertex 11.5578818119231 11.1438013422341 -1.49999954
vertex 13.3066934986072 11.9331471809068 -1.49999954
vertex 12.2566942319231 11.0518000022341 -1.49999954
endloop
endfacet
facet normal -1.52572862877045e-17 -6.96189049241341e-18 -1.0
outer loop
vertex 12.2566942319231 11.0518000022341 -1.49999954
vertex 13.3066934986072 11.9331471809068 -1.49999954
vertex 12.9555041119231 11.1438013422341 -1.49999954
endloop
endfacet
facet normal -1.52572862877045e-17 -6.96189049241341e-18 -1.0
outer loop
vertex 12.9555041119231 11.1438013422341 -1.49999954
vertex 13.3066934986072 11.9331471809068 -1.49999954
vertex 13.6066940719231 11.4135315622341 -1.49999954
endloop
endfacet
facet normal -1.52572862877045e-17 -6.96189049241341e-18 -1.0
outer loop
vertex 13.6066940719231 11.4135315622341 -1.49999954
vertex 13.3066934986072 11.9331471809068 -1.49999954
vertex 14.3566942319229 13.7518001054739 -1.49999954
endloop
endfacet
facet normal -1.52572862877045e-17 -6.96189049241341e-18 -1.0
outer loop
vertex 13.6066940719231 11.4135315622341 -1.49999954
vertex 14.3566942319229 13.7518001054739 -1.49999954
vertex 20.5462712519231 14.1097695022341 -1.49999954
endloop
endfacet
facet normal -1.52572862877045e-17 -6.96189049241341e-18 -1.0
outer loop
vertex 20.5462712519231 14.1097695022341 -1.49999954
vertex 14.3566942319229 13.7518001054739 -1.49999954
vertex 16.8387450119231 17.6881469022341 -1.49999954
endloop
endfacet
facet normal -1.52572862877045e-17 -6.96189049241341e-18 -1.0
outer loop
vertex 20.5462712519231 14.1097695022341 -1.49999954
vertex 16.8387450119231 17.6881469022341 -1.49999954
vertex 21.0707964919231 21.0182723222341 -1.49999954
endloop
endfacet
facet normal -1.52572862877045e-17 -6.96189049241341e-18 -1.0
outer loop
vertex 20.5462712519231 14.1097695022341 -1.49999954
vertex 21.0707964919231 21.0182723222341 -1.49999954
vertex 39.7914727919231 47.4434366422341 -1.49999954
endloop
endfacet
facet normal -1.52572862877045e-17 -6.96189049241341e-18 -1.0
outer loop
vertex 39.7914727919231 47.4434366422341 -1.49999954
vertex 21.0707964919231 21.0182723222341 -1.49999954
vertex 34.0707958919231 43.5349329022341 -1.49999954
endloop
endfacet
facet normal -1.52572862877045e-17 -6.96189049241341e-18 -1.0
outer loop
vertex 39.7914727919231 47.4434366422341 -1.49999954
vertex 34.0707958919231 43.5349329022341 -1.49999954
vertex 34.8387445719231 48.8650594022341 -1.49999954
endloop
endfacet
facet normal -1.52572862877045e-17 -6.96189049241341e-18 -1.0
outer loop
vertex 39.7914727919231 47.4434366422341 -1.49999954
vertex 34.8387445719231 48.8650594022341 -1.49999954
vertex 34.9066946661549 52.9827513268696 -1.49999954
endloop
endfacet
facet normal -1.52572862877045e-17 -6.96189049241341e-18 -1.0
outer loop
vertex 39.7914727919231 47.4434366422341 -1.49999954
vertex 34.9066946661549 52.9827513268696 -1.49999954
vertex 37.0066946661547 52.9827523017043 -1.49999954
endloop
endfacet
facet normal -1.52572862877045e-17 -6.96189049241341e-18 -1.0
outer loop
vertex 39.7914727919231 47.4434366422341 -1.49999954
vertex 37.0066946661547 52.9827523017043 -1.49999954
vertex 38.0566938219229 54.8014061370688 -1.49999954
endloop
endfacet
facet normal -1.52572862877045e-17 -6.96189049241341e-18 -1.0
outer loop
vertex 39.7914727919231 47.4434366422341 -1.49999954
vertex 38.0566938219229 54.8014061370688 -1.49999954
vertex 38.2949632119231 56.1514050022341 -1.49999954
endloop
endfacet
facet normal -1.52572862877045e-17 -6.96189049241341e-18 -1.0
outer loop
vertex 39.7914727919231 47.4434366422341 -1.49999954
vertex 38.2949632119231 56.1514050022341 -1.49999954
vertex 38.6566947719231 54.8014051622341 -1.49999954
endloop
endfacet
facet normal -1.52572862877045e-17 -6.96189049241341e-18 -1.0
outer loop
vertex 38.6566947719231 54.8014051622341 -1.49999954
vertex 38.2949632119231 56.1514050022341 -1.49999954
vertex 38.5646934319231 55.5002175822341 -1.49999954
endloop
endfacet
facet normal -0.951304667675001 0.137060992204246 -0.276104533964483
outer loop
vertex 34.0707958919231 43.5349329022341 4.96410234
vertex 35.6909806119231 48.3730207622341 1.78350926
vertex 34.9368215919231 43.0349339022341 1.7320514
endloop
endfacet
facet normal -0.951304667675001 0.137060992204246 -0.276104533964483
outer loop
vertex 35.6909806119231 48.3730207622341 1.78350926
vertex 34.0707958919231 43.5349329022341 4.96410234
vertex 34.8387445719231 48.8650594022341 4.96410234
endloop
endfacet
facet normal 0.612372821478516 -0.353553605094699 0.707106339837922
outer loop
vertex 22.0348966719231 14.6881452822341 3.9641018
vertex 39.7914727919231 47.4434366422341 4.96410234
vertex 20.5462712519231 14.1097695022341 4.96410234
endloop
endfacet
facet normal 0.612372821478516 -0.353553605094699 0.707106339837922
outer loop
vertex 39.7914727919231 47.4434366422341 4.96410234
vertex 22.0348966719231 14.6881452822341 3.9641018
vertex 40.0348962319231 45.8650603222341 3.9641018
endloop
endfacet
facet normal 0.988315460831029 0.15242227488904 -2.4986076879501e-18
outer loop
vertex 39.7914727919231 47.4434366422341 -1.49999954
vertex 40.0348962319231 45.8650603222341 3.9641018
vertex 40.0348962319231 45.8650603222341 -0.499999
endloop
endfacet
facet normal 0.988315460831029 0.15242227488904 -2.4986076879501e-18
outer loop
vertex 40.0348962319231 45.8650603222341 3.9641018
vertex 39.7914727919231 47.4434366422341 -1.49999954
vertex 39.7914727919231 47.4434366422341 4.96410234
endloop
endfacet
facet normal 0.988315460831029 0.15242227488904 -2.4986076879501e-18
outer loop
vertex 39.7914727919231 47.4434366422341 4.96410234
vertex 39.7914727919231 47.4434366422341 -1.49999954
vertex 38.6566947719231 54.8014051622341 -1.49999954
endloop
endfacet
facet normal 0.988315460831029 0.15242227488904 -2.4986076879501e-18
outer loop
vertex 39.7914727919231 47.4434366422341 4.96410234
vertex 38.6566947719231 54.8014051622341 -1.49999954
vertex 38.6566947719231 54.8014051622341 4.96410234
endloop
endfacet
facet normal -0.594350767808796 0.755323422600148 -0.276104494850579
outer loop
vertex 17.6909810519231 17.1961057222341 1.78350926
vertex 21.0707964919231 21.0182723222341 4.96410234
vertex 21.9368196519231 20.5182733222341 1.7320514
endloop
endfacet
facet normal -0.594350767808796 0.755323422600148 -0.276104494850579
outer loop
vertex 21.0707964919231 21.0182723222341 4.96410234
vertex 17.6909810519231 17.1961057222341 1.78350926
vertex 16.8387450119231 17.6881469022341 4.96410234
endloop
endfacet
facet normal 0.362156084288561 -0.932117466102195 3.9531742038156e-33
outer loop
vertex 22.0348966719231 14.6881452822341 -0.499999
vertex 13.6066940719231 11.4135315622341 -1.49999954
vertex 20.5462712519231 14.1097695022341 -1.49999954
endloop
endfacet
facet normal 0.362156084288561 -0.932117466102195 3.9531742038156e-33
outer loop
vertex 13.6066940719231 11.4135315622341 -1.49999954
vertex 22.0348966719231 14.6881452822341 -0.499999
vertex 13.6066940719231 11.4135315622341 4.96410234
endloop
endfacet
facet normal 0.362156084288561 -0.932117466102195 3.9531742038156e-33
outer loop
vertex 13.6066940719231 11.4135315622341 4.96410234
vertex 22.0348966719231 14.6881452822341 -0.499999
vertex 22.0348966719231 14.6881452822341 3.9641018
endloop
endfacet
facet normal 0.362156084288561 -0.932117466102195 3.9531742038156e-33
outer loop
vertex 13.6066940719231 11.4135315622341 4.96410234
vertex 22.0348966719231 14.6881452822341 3.9641018
vertex 20.5462712519231 14.1097695022341 4.96410234
endloop
endfacet
facet normal -0.827330615573781 0.477659576497052 -0.295576354796803
outer loop
vertex 21.0707964919231 21.0182723222341 4.96410234
vertex 34.9368215919231 43.0349339022341 1.7320514
vertex 21.9368196519231 20.5182733222341 1.7320514
endloop
endfacet
facet normal -0.827330615573781 0.477659576497052 -0.295576354796803
outer loop
vertex 34.9368215919231 43.0349339022341 1.7320514
vertex 21.0707964919231 21.0182723222341 4.96410234
vertex 34.0707958919231 43.5349329022341 4.96410234
endloop
endfacet
facet normal 3.17499922472379e-07 5.4992588960103e-07 0.999999999999798
outer loop
vertex 34.016019223472 49.3400588641629 -0.0866019479469535
vertex 33.7973660749154 53.161339953026 -0.086603979945998
vertex 32.1973659655297 50.3900590200561 -0.0866019479469549
endloop
endfacet
facet normal 3.17499922472379e-07 5.4992588960103e-07 0.999999999999798
outer loop
vertex 33.7973660749154 53.161339953026 -0.086603979945998
vertex 34.016019223472 49.3400588641629 -0.0866019479469535
vertex 35.6160193328577 52.1113397971328 -0.0866039799459966
endloop
endfacet
facet normal -0.749999804132599 0.43301304114445 0.499999999999898
outer loop
vertex 36.5253465392511 51.5863407193107 1.73204936800096
vertex 34.016019223472 49.3400588641629 -0.0866019479469535
vertex 34.9253464298654 48.8150597863408 1.7320514
endloop
endfacet
facet normal -0.749999804132599 0.43301304114445 0.499999999999898
outer loop
vertex 34.016019223472 49.3400588641629 -0.0866019479469535
vertex 36.5253465392511 51.5863407193107 1.73204936800096
vertex 35.6160193328577 52.1113397971328 -0.0866039799459966
endloop
endfacet
facet normal 0.750000121632521 -0.43301249121856 0.4999999999999
outer loop
vertex 33.7973660749154 53.161339953026 -0.086603979945998
vertex 31.2880399139808 50.9150600981273 1.7320514
vertex 32.1973659655297 50.3900590200561 -0.0866019479469549
endloop
endfacet
facet normal 0.750000121632521 -0.43301249121856 0.4999999999999
outer loop
vertex 31.2880399139808 50.9150600981273 1.7320514
vertex 33.7973660749154 53.161339953026 -0.086603979945998
vertex 32.8880400233665 53.6863410310972 1.73204936800096
endloop
endfacet
facet normal -0.827330600274481 0.477659567663996 0.295576411894644
outer loop
vertex 34.9368215919231 43.0349339022341 1.7320514
vertex 21.0707964919231 21.0182723222341 -1.49999954
vertex 21.9368196519231 20.5182733222341 1.7320514
endloop
endfacet
facet normal -0.827330600274481 0.477659567663996 0.295576411894644
outer loop
vertex 21.0707964919231 21.0182723222341 -1.49999954
vertex 34.9368215919231 43.0349339022341 1.7320514
vertex 34.0707958919231 43.5349329022341 -1.49999954
endloop
endfacet
facet normal -0.500000074234772 -0.866025360924736 6.34999751809709e-07
outer loop
vertex 36.5253465392511 51.5863407193107 1.73204936800096
vertex 35.5727182119231 52.1363406422341 0.0
vertex 35.6160193328577 52.1113397971328 -0.0866039799459966
endloop
endfacet
facet normal -0.500000074234772 -0.866025360924736 6.34999751809709e-07
outer loop
vertex 35.5727182119231 52.1363406422341 0.0
vertex 36.5253465392511 51.5863407193107 1.73204936800096
vertex 36.4387446813088 51.636340335204 1.73204936800096
endloop
endfacet
facet normal -0.500000074234772 -0.866025360924736 6.34999751809709e-07
outer loop
vertex 36.4387446813088 51.636340335204 1.73204936800096
vertex 36.5253465392511 51.5863407193107 1.73204936800096
vertex 35.5727182119231 52.1363406422341 3.4641028
endloop
endfacet
facet normal -0.500000074234772 -0.866025360924736 6.34999751809709e-07
outer loop
vertex 35.5727182119231 52.1363406422341 3.4641028
vertex 36.5253465392511 51.5863407193107 1.73204936800096
vertex 35.6160204877023 52.1113417973819 3.55070271594791
endloop
endfacet
facet normal -0.500000074234772 -0.866025360924736 6.34999751809709e-07
outer loop
vertex 33.7973660749154 53.161339953026 -0.086603979945998
vertex 33.8406693519231 53.1363411822341 0.0
vertex 32.8880400233665 53.6863410310972 1.73204936800096
endloop
endfacet
facet normal -0.500000074234772 -0.866025360924736 6.34999751809709e-07
outer loop
vertex 33.8406693519231 53.1363411822341 0.0
vertex 33.7973660749154 53.161339953026 -0.086603979945998
vertex 35.6160193328577 52.1113397971328 -0.0866039799459966
endloop
endfacet
facet normal -0.500000074234772 -0.866025360924736 6.34999751809709e-07
outer loop
vertex 33.8406693519231 53.1363411822341 0.0
vertex 35.6160193328577 52.1113397971328 -0.0866039799459966
vertex 35.5727182119231 52.1363406422341 0.0
endloop
endfacet
facet normal -0.500000074234772 -0.866025360924736 6.34999751809709e-07
outer loop
vertex 32.8880400233665 53.6863410310972 1.73204936800096
vertex 33.8406693519231 53.1363411822341 0.0
vertex 32.9746418813088 53.636341415204 1.73204936800096
endloop
endfacet
facet normal -0.500000074234772 -0.866025360924736 6.34999751809709e-07
outer loop
vertex 32.8880400233665 53.6863410310972 1.73204936800096
vertex 32.9746418813088 53.636341415204 1.73204936800096
vertex 33.8406675813088 53.136342415204 3.46410076800096
endloop
endfacet
facet normal -0.500000074234772 -0.866025360924736 6.34999751809709e-07
outer loop
vertex 32.8880400233665 53.6863410310972 1.73204936800096
vertex 33.8406675813088 53.136342415204 3.46410076800096
vertex 33.7973672297599 53.1613419532751 3.55070271594791
endloop
endfacet
facet normal -0.500000074234772 -0.866025360924736 6.34999751809709e-07
outer loop
vertex 33.7973672297599 53.1613419532751 3.55070271594791
vertex 33.8406675813088 53.136342415204 3.46410076800096
vertex 35.5727182119231 52.1363406422341 3.4641028
endloop
endfacet
facet normal -0.500000074234772 -0.866025360924736 6.34999751809709e-07
outer loop
vertex 33.7973672297599 53.1613419532751 3.55070271594791
vertex 35.5727182119231 52.1363406422341 3.4641028
vertex 35.6160204877023 52.1113417973819 3.55070271594791
endloop
endfacet
facet normal 0.750000153382481 -0.433012436225859 -0.500000000000001
outer loop
vertex 11.688040995186 16.9668638795976 1.7320514
vertex 14.1973667519831 19.2131458501307 3.55070474794731
vertex 12.597367855126 16.441864201701 3.55070474794731
endloop
endfacet
facet normal 0.750000153382481 -0.433012436225859 -0.500000000000001
outer loop
vertex 14.1973667519831 19.2131458501307 3.55070474794731
vertex 11.688040995186 16.9668638795976 1.7320514
vertex 13.2880398920431 19.7381455280274 1.7320514
endloop
endfacet
facet normal 0.499999855981272 0.866025486933674 -3.18424907547541e-08
outer loop
vertex 13.3746422119231 19.6881454422341 -1.49999954
vertex 14.1973667519831 19.2131458501307 -0.0866019479473106
vertex 16.8387450119231 17.6881469022341 -1.49999954
endloop
endfacet
facet normal 0.499999855981272 0.866025486933674 -3.18424907547541e-08
outer loop
vertex 14.1973667519831 19.2131458501307 -0.0866019479473106
vertex 13.3746422119231 19.6881454422341 -1.49999954
vertex 12.5086165119231 20.1881469822341 1.7320514
endloop
endfacet
facet normal 0.499999855981272 0.866025486933674 -3.18424907547541e-08
outer loop
vertex 16.8387450119231 17.6881469022341 -1.49999954
vertex 14.1973667519831 19.2131458501307 -0.0866019479473106
vertex 16.0160204718631 18.1631464943374 -0.086601947947311
endloop
endfacet
facet normal 0.499999855981272 0.866025486933674 -3.18424907547541e-08
outer loop
vertex 14.1973667519831 19.2131458501307 -0.0866019479473106
vertex 12.5086165119231 20.1881469822341 1.7320514
vertex 13.2880398920431 19.7381455280274 1.7320514
endloop
endfacet
facet normal 0.499999855981272 0.866025486933674 -3.18424907547541e-08
outer loop
vertex 13.2880398920431 19.7381455280274 1.7320514
vertex 12.5086165119231 20.1881469822341 1.7320514
vertex 13.3746422119231 19.6881454422341 4.96410234
endloop
endfacet
facet normal 0.499999855981272 0.866025486933674 -3.18424907547541e-08
outer loop
vertex 13.2880398920431 19.7381455280274 1.7320514
vertex 13.3746422119231 19.6881454422341 4.96410234
vertex 14.1973667519831 19.2131458501307 3.55070474794731
endloop
endfacet
facet normal 0.499999855981272 0.866025486933674 -3.18424907547541e-08
outer loop
vertex 16.0160204718631 18.1631464943374 -0.086601947947311
vertex 17.6909810519231 17.1961057222341 1.78350926
vertex 16.8387450119231 17.6881469022341 -1.49999954
endloop
endfacet
facet normal 0.499999855981272 0.866025486933674 -3.18424907547541e-08
outer loop
vertex 17.6909810519231 17.1961057222341 1.78350926
vertex 16.0160204718631 18.1631464943374 -0.086601947947311
vertex 16.9253473318032 17.6381468164407 1.7320514
endloop
endfacet
facet normal 0.499999855981272 0.866025486933674 -3.18424907547541e-08
outer loop
vertex 17.6909810519231 17.1961057222341 1.78350926
vertex 16.9253473318032 17.6381468164407 1.7320514
vertex 16.0160204718631 18.1631464943374 3.55070474794731
endloop
endfacet
facet normal 0.499999855981272 0.866025486933674 -3.18424907547541e-08
outer loop
vertex 17.6909810519231 17.1961057222341 1.78350926
vertex 16.0160204718631 18.1631464943374 3.55070474794731
vertex 16.8387450119231 17.6881469022341 4.96410234
endloop
endfacet
facet normal 0.499999855981272 0.866025486933674 -3.18424907547541e-08
outer loop
vertex 16.8387450119231 17.6881469022341 4.96410234
vertex 16.0160204718631 18.1631464943374 3.55070474794731
vertex 14.1973667519831 19.2131458501307 3.55070474794731
endloop
endfacet
facet normal 0.499999855981272 0.866025486933674 -3.18424907547541e-08
outer loop
vertex 16.8387450119231 17.6881469022341 4.96410234
vertex 14.1973667519831 19.2131458501307 3.55070474794731
vertex 13.3746422119231 19.6881454422341 4.96410234
endloop
endfacet
facet normal -0.798622247034592 0.601832623360864 -1.23015058786382e-16
outer loop
vertex 13.3746422119231 19.6881454422341 4.96410234
vertex 9.91842611192311 15.1018020622341 1.7320514
vertex 9.91842611192311 15.1018020622341 4.96410234
endloop
endfacet
facet normal -5.66397771785288e-31 3.2614355281471e-31 1.0
outer loop
vertex 9.64869335192311 13.0529898022341 4.96410234
vertex 9.64869335192311 14.4506121022341 4.96410234
vertex 9.55669455192311 13.7518022222341 4.96410234
endloop
endfacet
facet normal -5.66397771785288e-31 3.2614355281471e-31 1.0
outer loop
vertex 9.64869335192311 14.4506121022341 4.96410234
vertex 9.64869335192311 13.0529898022341 4.96410234
vertex 9.91842611192311 12.4018023822341 4.96410234
endloop
endfacet
facet normal -5.66397771785288e-31 3.2614355281471e-31 1.0
outer loop
vertex 9.64869335192311 14.4506121022341 4.96410234
vertex 9.91842611192311 12.4018023822341 4.96410234
vertex 9.91842611192311 15.1018020622341 4.96410234
endloop
endfacet
facet normal -5.66397771785288e-31 3.2614355281471e-31 1.0
outer loop
vertex 9.91842611192311 15.1018020622341 4.96410234
vertex 9.91842611192311 12.4018023822341 4.96410234
vertex 10.3475057719231 11.8426137622341 4.96410234
endloop
endfacet
facet normal -5.66397771785288e-31 3.2614355281471e-31 1.0
outer loop
vertex 9.91842611192311 15.1018020622341 4.96410234
vertex 10.3475057719231 11.8426137622341 4.96410234
vertex 10.1566942319233 13.7518017989943 4.96410234
endloop
endfacet
facet normal -5.66397771785288e-31 3.2614355281471e-31 1.0
outer loop
vertex 10.1566942319233 13.7518017989943 4.96410234
vertex 10.3475057719231 11.8426137622341 4.96410234
vertex 11.2066934986074 11.933148027667 4.96410234
endloop
endfacet
facet normal -5.66397771785288e-31 3.2614355281471e-31 1.0
outer loop
vertex 11.2066934986074 11.933148027667 4.96410234
vertex 10.3475057719231 11.8426137622341 4.96410234
vertex 10.9066943919231 11.4135315622341 4.96410234
endloop
endfacet
facet normal -5.66397771785288e-31 3.2614355281471e-31 1.0
outer loop
vertex 11.2066934986074 11.933148027667 4.96410234
vertex 10.9066943919231 11.4135315622341 4.96410234
vertex 11.5578818119231 11.1438013422341 4.96410234
endloop
endfacet
facet normal -5.66397771785288e-31 3.2614355281471e-31 1.0
outer loop
vertex 11.2066934986074 11.933148027667 4.96410234
vertex 11.5578818119231 11.1438013422341 4.96410234
vertex 13.3066934986072 11.9331471809068 4.96410234
endloop
endfacet
facet normal -5.66397771785288e-31 3.2614355281471e-31 1.0
outer loop
vertex 13.3066934986072 11.9331471809068 4.96410234
vertex 11.5578818119231 11.1438013422341 4.96410234
vertex 12.2566942319231 11.0518000022341 4.96410234
endloop
endfacet
facet normal -5.66397771785288e-31 3.2614355281471e-31 1.0
outer loop
vertex 13.3066934986072 11.9331471809068 4.96410234
vertex 12.2566942319231 11.0518000022341 4.96410234
vertex 12.9555041119231 11.1438013422341 4.96410234
endloop
endfacet
facet normal -5.66397771785288e-31 3.2614355281471e-31 1.0
outer loop
vertex 13.3066934986072 11.9331471809068 4.96410234
vertex 12.9555041119231 11.1438013422341 4.96410234
vertex 13.6066940719231 11.4135315622341 4.96410234
endloop
endfacet
facet normal -5.66397771785288e-31 3.2614355281471e-31 1.0
outer loop
vertex 13.3066934986072 11.9331471809068 4.96410234
vertex 13.6066940719231 11.4135315622341 4.96410234
vertex 14.3566942319229 13.7518001054739 4.96410234
endloop
endfacet
facet normal -5.66397771785288e-31 3.2614355281471e-31 1.0
outer loop
vertex 14.3566942319229 13.7518001054739 4.96410234
vertex 13.6066940719231 11.4135315622341 4.96410234
vertex 20.5462712519231 14.1097695022341 4.96410234
endloop
endfacet
facet normal -5.66397771785288e-31 3.2614355281471e-31 1.0
outer loop
vertex 14.3566942319229 13.7518001054739 4.96410234
vertex 20.5462712519231 14.1097695022341 4.96410234
vertex 16.8387450119231 17.6881469022341 4.96410234
endloop
endfacet
facet normal -5.66397771785288e-31 3.2614355281471e-31 1.0
outer loop
vertex 16.8387450119231 17.6881469022341 4.96410234
vertex 20.5462712519231 14.1097695022341 4.96410234
vertex 21.0707964919231 21.0182723222341 4.96410234
endloop
endfacet
facet normal -5.66397771785288e-31 3.2614355281471e-31 1.0
outer loop
vertex 21.0707964919231 21.0182723222341 4.96410234
vertex 20.5462712519231 14.1097695022341 4.96410234
vertex 39.7914727919231 47.4434366422341 4.96410234
endloop
endfacet
facet normal -5.66397771785288e-31 3.2614355281471e-31 1.0
outer loop
vertex 21.0707964919231 21.0182723222341 4.96410234
vertex 39.7914727919231 47.4434366422341 4.96410234
vertex 34.0707958919231 43.5349329022341 4.96410234
endloop
endfacet
facet normal -5.66397771785288e-31 3.2614355281471e-31 1.0
outer loop
vertex 34.0707958919231 43.5349329022341 4.96410234
vertex 39.7914727919231 47.4434366422341 4.96410234
vertex 34.8387445719231 48.8650594022341 4.96410234
endloop
endfacet
facet normal -5.66397771785288e-31 3.2614355281471e-31 1.0
outer loop
vertex 34.8387445719231 48.8650594022341 4.96410234
vertex 39.7914727919231 47.4434366422341 4.96410234
vertex 34.9066946661549 52.9827513268696 4.96410234
endloop
endfacet
facet normal -5.66397771785288e-31 3.2614355281471e-31 1.0
outer loop
vertex 34.9066946661549 52.9827513268696 4.96410234
vertex 39.7914727919231 47.4434366422341 4.96410234
vertex 37.0066946661547 52.9827523017043 4.96410234
endloop
endfacet
facet normal -5.66397771785288e-31 3.2614355281471e-31 1.0
outer loop
vertex 37.0066946661547 52.9827523017043 4.96410234
vertex 39.7914727919231 47.4434366422341 4.96410234
vertex 38.0566938219229 54.8014061370688 4.96410234
endloop
endfacet
facet normal -5.66397771785288e-31 3.2614355281471e-31 1.0
outer loop
vertex 38.0566938219229 54.8014061370688 4.96410234
vertex 39.7914727919231 47.4434366422341 4.96410234
vertex 38.2949632119231 56.1514050022341 4.96410234
endloop
endfacet
facet normal -5.66397771785288e-31 3.2614355281471e-31 1.0
outer loop
vertex 38.2949632119231 56.1514050022341 4.96410234
vertex 39.7914727919231 47.4434366422341 4.96410234
vertex 38.6566947719231 54.8014051622341 4.96410234
endloop
endfacet
facet normal -5.66397771785288e-31 3.2614355281471e-31 1.0
outer loop
vertex 38.2949632119231 56.1514050022341 4.96410234
vertex 38.6566947719231 54.8014051622341 4.96410234
vertex 38.5646934319231 55.5002175822341 4.96410234
endloop
endfacet
facet normal -5.66397771785288e-31 3.2614355281471e-31 1.0
outer loop
vertex 33.8566938219234 54.8014041873993 4.96410234
vertex 34.0475066319231 56.7105936222341 4.96410234
vertex 33.6184244319231 56.1514050022341 4.96410234
endloop
endfacet
facet normal -5.66397771785288e-31 3.2614355281471e-31 1.0
outer loop
vertex 34.0475066319231 56.7105936222341 4.96410234
vertex 33.8566938219234 54.8014041873993 4.96410234
vertex 34.9066929776916 56.6200580227638 4.96410234
endloop
endfacet
facet normal -5.66397771785288e-31 3.2614355281471e-31 1.0
outer loop
vertex 34.0475066319231 56.7105936222341 4.96410234
vertex 34.9066929776916 56.6200580227638 4.96410234
vertex 34.6066927119231 57.1396732822341 4.96410234
endloop
endfacet
facet normal -5.66397771785288e-31 3.2614355281471e-31 1.0
outer loop
vertex 34.6066927119231 57.1396732822341 4.96410234
vertex 34.9066929776916 56.6200580227638 4.96410234
vertex 35.2578826719231 57.4094060422341 4.96410234
endloop
endfacet
facet normal -5.66397771785288e-31 3.2614355281471e-31 1.0
outer loop
vertex 35.2578826719231 57.4094060422341 4.96410234
vertex 34.9066929776916 56.6200580227638 4.96410234
vertex 37.0066929776914 56.6200589975986 4.96410234
endloop
endfacet
facet normal -5.66397771785288e-31 3.2614355281471e-31 1.0
outer loop
vertex 35.2578826719231 57.4094060422341 4.96410234
vertex 37.0066929776914 56.6200589975986 4.96410234
vertex 35.9566925519231 57.5014048422341 4.96410234
endloop
endfacet
facet normal -5.66397771785288e-31 3.2614355281471e-31 1.0
outer loop
vertex 35.9566925519231 57.5014048422341 4.96410234
vertex 37.0066929776914 56.6200589975986 4.96410234
vertex 36.6555049719231 57.4094060422341 4.96410234
endloop
endfacet
facet normal -5.66397771785288e-31 3.2614355281471e-31 1.0
outer loop
vertex 36.6555049719231 57.4094060422341 4.96410234
vertex 37.0066929776914 56.6200589975986 4.96410234
vertex 37.3066949319231 57.1396732822341 4.96410234
endloop
endfacet
facet normal -5.66397771785288e-31 3.2614355281471e-31 1.0
outer loop
vertex 37.3066949319231 57.1396732822341 4.96410234
vertex 37.0066929776914 56.6200589975986 4.96410234
vertex 38.0566938219229 54.8014061370688 4.96410234
endloop
endfacet
facet normal -5.66397771785288e-31 3.2614355281471e-31 1.0
outer loop
vertex 37.3066949319231 57.1396732822341 4.96410234
vertex 38.0566938219229 54.8014061370688 4.96410234
vertex 37.8658810119231 56.7105936222341 4.96410234
endloop
endfacet
facet normal -5.66397771785288e-31 3.2614355281471e-31 1.0
outer loop
vertex 37.8658810119231 56.7105936222341 4.96410234
vertex 38.0566938219229 54.8014061370688 4.96410234
vertex 38.2949632119231 56.1514050022341 4.96410234
endloop
endfacet
facet normal -5.66397771785288e-31 3.2614355281471e-31 1.0
outer loop
vertex 34.8387445719231 48.8650594022341 4.96410234
vertex 33.6184244319231 56.1514050022341 4.96410234
vertex 31.3746417719231 50.8650604822341 4.96410234
endloop
endfacet
facet normal -5.66397771785288e-31 3.2614355281471e-31 1.0
outer loop
vertex 33.6184244319231 56.1514050022341 4.96410234
vertex 34.8387445719231 48.8650594022341 4.96410234
vertex 33.8566938219234 54.8014041873993 4.96410234
endloop
endfacet
facet normal -5.66397771785288e-31 3.2614355281471e-31 1.0
outer loop
vertex 33.8566938219234 54.8014041873993 4.96410234
vertex 34.8387445719231 48.8650594022341 4.96410234
vertex 34.9066946661549 52.9827513268696 4.96410234
endloop
endfacet
facet normal -5.66397771785288e-31 3.2614355281471e-31 1.0
outer loop
vertex 10.1566942319233 13.7518017989943 4.96410234
vertex 13.3746422119231 19.6881454422341 4.96410234
vertex 9.91842611192311 15.1018020622341 4.96410234
endloop
endfacet
facet normal -5.66397771785288e-31 3.2614355281471e-31 1.0
outer loop
vertex 13.3746422119231 19.6881454422341 4.96410234
vertex 10.1566942319233 13.7518017989943 4.96410234
vertex 11.206694965239 15.5704547235613 4.96410234
endloop
endfacet
facet normal -5.66397771785288e-31 3.2614355281471e-31 1.0
outer loop
vertex 13.3746422119231 19.6881454422341 4.96410234
vertex 11.206694965239 15.5704547235613 4.96410234
vertex 13.3066949652389 15.5704538768011 4.96410234
endloop
endfacet
facet normal -5.66397771785288e-31 3.2614355281471e-31 1.0
outer loop
vertex 13.3746422119231 19.6881454422341 4.96410234
vertex 13.3066949652389 15.5704538768011 4.96410234
vertex 14.3566942319229 13.7518001054739 4.96410234
endloop
endfacet
facet normal -5.66397771785288e-31 3.2614355281471e-31 1.0
outer loop
vertex 13.3746422119231 19.6881454422341 4.96410234
vertex 14.3566942319229 13.7518001054739 4.96410234
vertex 16.8387450119231 17.6881469022341 4.96410234
endloop
endfacet
facet normal -0.951304584597191 0.137061118534309 0.276104757493403
outer loop
vertex 34.8387445719231 48.8650594022341 -1.49999954
vertex 34.0707958919231 43.5349329022341 -1.49999954
vertex 34.9368215919231 43.0349339022341 1.7320514
endloop
endfacet
facet normal -0.594350646593899 0.755323663922744 0.276104095608406
outer loop
vertex 21.9368196519231 20.5182733222341 1.7320514
vertex 21.0707964919231 21.0182723222341 -1.49999954
vertex 16.8387450119231 17.6881469022341 -1.49999954
endloop
endfacet
facet normal 0.382681624226968 -0.923880281464547 0.0
outer loop
vertex 13.6066940719231 11.4135315622341 4.96410234
vertex 12.9555041119231 11.1438013422341 -1.49999954
vertex 13.6066940719231 11.4135315622341 -1.49999954
endloop
endfacet
facet normal 0.382681624226968 -0.923880281464547 0.0
outer loop
vertex 12.9555041119231 11.1438013422341 -1.49999954
vertex 13.6066940719231 11.4135315622341 4.96410234
vertex 12.9555041119231 11.1438013422341 4.96410234
endloop
endfacet
facet normal 0.612372644415405 -0.353553502867265 -0.707106544292988
outer loop
vertex 39.7914727919231 47.4434366422341 -1.49999954
vertex 22.0348966719231 14.6881452822341 -0.499999
vertex 20.5462712519231 14.1097695022341 -1.49999954
endloop
endfacet
facet normal 0.612372644415405 -0.353553502867265 -0.707106544292988
outer loop
vertex 22.0348966719231 14.6881452822341 -0.499999
vertex 39.7914727919231 47.4434366422341 -1.49999954
vertex 40.0348962319231 45.8650603222341 -0.499999
endloop
endfacet
facet normal 0.866025412575151 -0.49999998477404 0.0
outer loop
vertex 40.0348962319231 45.8650603222341 -0.499999
vertex 22.0348966719231 14.6881452822341 3.9641018
vertex 22.0348966719231 14.6881452822341 -0.499999
endloop
endfacet
facet normal 0.866025412575151 -0.49999998477404 0.0
outer loop
vertex 22.0348966719231 14.6881452822341 3.9641018
vertex 40.0348962319231 45.8650603222341 -0.499999
vertex 40.0348962319231 45.8650603222341 3.9641018
endloop
endfacet
facet normal 0.99144468886881 0.130527502518931 0.0
outer loop
vertex 38.5646934319231 55.5002175822341 -1.49999954
vertex 38.6566947719231 54.8014051622341 4.96410234
vertex 38.6566947719231 54.8014051622341 -1.49999954
endloop
endfacet
facet normal 0.99144468886881 0.130527502518931 0.0
outer loop
vertex 38.6566947719231 54.8014051622341 4.96410234
vertex 38.5646934319231 55.5002175822341 -1.49999954
vertex 38.5646934319231 55.5002175822341 4.96410234
endloop
endfacet
facet normal 0.923879753725649 0.382682898305939 0.0
outer loop
vertex 38.2949632119231 56.1514050022341 -1.49999954
vertex 38.5646934319231 55.5002175822341 4.96410234
vertex 38.5646934319231 55.5002175822341 -1.49999954
endloop
endfacet
facet normal 0.923879753725649 0.382682898305939 0.0
outer loop
vertex 38.5646934319231 55.5002175822341 4.96410234
vertex 38.2949632119231 56.1514050022341 -1.49999954
vertex 38.2949632119231 56.1514050022341 4.96410234
endloop
endfacet
facet normal 0.793352188798015 0.608762929660963 0.0
outer loop
vertex 37.8658810119231 56.7105936222341 -1.49999954
vertex 38.2949632119231 56.1514050022341 4.96410234
vertex 38.2949632119231 56.1514050022341 -1.49999954
endloop
endfacet
facet normal 0.793352188798015 0.608762929660963 0.0
outer loop
vertex 38.2949632119231 56.1514050022341 4.96410234
vertex 37.8658810119231 56.7105936222341 -1.49999954
vertex 37.8658810119231 56.7105936222341 4.96410234
endloop
endfacet
facet normal 0.608762401925625 0.793352593744889 0.0
outer loop
vertex 37.3066949319231 57.1396732822341 4.96410234
vertex 37.8658810119231 56.7105936222341 -1.49999954
vertex 37.3066949319231 57.1396732822341 -1.49999954
endloop
endfacet
facet normal 0.608762401925625 0.793352593744889 0.0
outer loop
vertex 37.8658810119231 56.7105936222341 -1.49999954
vertex 37.3066949319231 57.1396732822341 4.96410234
vertex 37.8658810119231 56.7105936222341 4.96410234
endloop
endfacet
facet normal 0.382684700127003 0.92387900738609 0.0
outer loop
vertex 36.6555049719231 57.4094060422341 4.96410234
vertex 37.3066949319231 57.1396732822341 -1.49999954
vertex 36.6555049719231 57.4094060422341 -1.49999954
endloop
endfacet
facet normal 0.382684700127003 0.92387900738609 0.0
outer loop
vertex 37.3066949319231 57.1396732822341 -1.49999954
vertex 36.6555049719231 57.4094060422341 4.96410234
vertex 37.3066949319231 57.1396732822341 4.96410234
endloop
endfacet
facet normal 0.130523960271614 0.991445155212841 0.0
outer loop
vertex 35.9566925519231 57.5014048422341 4.96410234
vertex 36.6555049719231 57.4094060422341 -1.49999954
vertex 35.9566925519231 57.5014048422341 -1.49999954
endloop
endfacet
facet normal 0.130523960271614 0.991445155212841 0.0
outer loop
vertex 36.6555049719231 57.4094060422341 -1.49999954
vertex 35.9566925519231 57.5014048422341 4.96410234
vertex 36.6555049719231 57.4094060422341 4.96410234
endloop
endfacet
facet normal -0.130524426611188 0.991445093819028 0.0
outer loop
vertex 35.2578826719231 57.4094060422341 4.96410234
vertex 35.9566925519231 57.5014048422341 -1.49999954
vertex 35.2578826719231 57.4094060422341 -1.49999954
endloop
endfacet
facet normal -0.130524426611188 0.991445093819028 0.0
outer loop
vertex 35.9566925519231 57.5014048422341 -1.49999954
vertex 35.2578826719231 57.4094060422341 4.96410234
vertex 35.9566925519231 57.5014048422341 4.96410234
endloop
endfacet
facet normal -0.382684700127002 0.92387900738609 0.0
outer loop
vertex 34.6066927119231 57.1396732822341 4.96410234
vertex 35.2578826719231 57.4094060422341 -1.49999954
vertex 34.6066927119231 57.1396732822341 -1.49999954
endloop
endfacet
facet normal -0.382684700127002 0.92387900738609 0.0
outer loop
vertex 35.2578826719231 57.4094060422341 -1.49999954
vertex 34.6066927119231 57.1396732822341 4.96410234
vertex 35.2578826719231 57.4094060422341 4.96410234
endloop
endfacet
facet normal -0.608762401925625 0.793352593744889 0.0
outer loop
vertex 34.0475066319231 56.7105936222341 4.96410234
vertex 34.6066927119231 57.1396732822341 -1.49999954
vertex 34.0475066319231 56.7105936222341 -1.49999954
endloop
endfacet
facet normal -0.608762401925625 0.793352593744889 0.0
outer loop
vertex 34.6066927119231 57.1396732822341 -1.49999954
vertex 34.0475066319231 56.7105936222341 4.96410234
vertex 34.6066927119231 57.1396732822341 4.96410234
endloop
endfacet
facet normal -0.793352188798013 0.608762929660965 0.0
outer loop
vertex 34.0475066319231 56.7105936222341 4.96410234
vertex 33.6184244319231 56.1514050022341 1.7320514
vertex 33.6184244319231 56.1514050022341 4.96410234
endloop
endfacet
facet normal -0.793352188798013 0.608762929660965 0.0
outer loop
vertex 33.6184244319231 56.1514050022341 1.7320514
vertex 34.0475066319231 56.7105936222341 4.96410234
vertex 33.6184244319231 56.1514050022341 -1.49999954
endloop
endfacet
facet normal -0.793352188798013 0.608762929660965 0.0
outer loop
vertex 33.6184244319231 56.1514050022341 -1.49999954
vertex 34.0475066319231 56.7105936222341 4.96410234
vertex 34.0475066319231 56.7105936222341 -1.49999954
endloop
endfacet
facet normal -0.801178816739755 0.520545484388265 0.29520315426918
outer loop
vertex 33.6184244319231 56.1514050022341 1.7320514
vertex 30.5086186119231 51.3650594822341 1.7320514
vertex 31.3746417719231 50.8650604822341 4.96410234
endloop
endfacet
facet normal -0.954425851911917 0.132261199279675 0.267541152661257
outer loop
vertex 34.8387445719231 48.8650594022341 -1.49999954
vertex 34.9368215919231 43.0349339022341 1.7320514
vertex 35.6909806119231 48.3730207622341 1.78350926
endloop
endfacet
facet normal -0.801178816739755 0.520545484388265 -0.295203154269181
outer loop
vertex 33.6184244319231 56.1514050022341 1.7320514
vertex 31.3746417719231 50.8650604822341 -1.49999954
vertex 30.5086186119231 51.3650594822341 1.7320514
endloop
endfacet
facet normal -0.851395054897987 0.433567784428634 -0.295204059594206
outer loop
vertex 12.5086165119231 20.1881469822341 1.7320514
vertex 13.3746422119231 19.6881454422341 -1.49999954
vertex 9.91842611192311 15.1018020622341 1.7320514
endloop
endfacet
facet normal -0.851395054897987 0.433567784428634 0.295204059594206
outer loop
vertex 12.5086165119231 20.1881469822341 1.7320514
vertex 9.91842611192311 15.1018020622341 1.7320514
vertex 13.3746422119231 19.6881454422341 4.96410234
endloop
endfacet
facet normal -0.591754808565733 0.760425974147801 0.267541743248976
outer loop
vertex 17.6909810519231 17.1961057222341 1.78350926
vertex 21.9368196519231 20.5182733222341 1.7320514
vertex 16.8387450119231 17.6881469022341 -1.49999954
endloop
endfacet
facet normal -0.923879007386092 0.382684700126998 0.0
outer loop
vertex 9.91842611192311 15.1018020622341 4.96410234
vertex 9.64869335192311 14.4506121022341 -1.49999954
vertex 9.64869335192311 14.4506121022341 4.96410234
endloop
endfacet
facet normal -0.923879007386092 0.382684700126998 0.0
outer loop
vertex 9.64869335192311 14.4506121022341 -1.49999954
vertex 9.91842611192311 15.1018020622341 4.96410234
vertex 9.91842611192311 15.1018020622341 -1.49999954
endloop
endfacet
facet normal -0.923879007386092 0.382684700126998 0.0
outer loop
vertex 9.91842611192311 15.1018020622341 -1.49999954
vertex 9.91842611192311 15.1018020622341 4.96410234
vertex 9.91842611192311 15.1018020622341 1.7320514
endloop
endfacet
facet normal -0.991445093819027 0.130524426611195 0.0
outer loop
vertex 9.64869335192311 14.4506121022341 4.96410234
vertex 9.55669455192311 13.7518022222341 -1.49999954
vertex 9.55669455192311 13.7518022222341 4.96410234
endloop
endfacet
facet normal -0.991445093819027 0.130524426611195 0.0
outer loop
vertex 9.55669455192311 13.7518022222341 -1.49999954
vertex 9.64869335192311 14.4506121022341 4.96410234
vertex 9.64869335192311 14.4506121022341 -1.49999954
endloop
endfacet
facet normal -0.99144515521284 -0.130523960271621 0.0
outer loop
vertex 9.55669455192311 13.7518022222341 4.96410234
vertex 9.64869335192311 13.0529898022341 -1.49999954
vertex 9.64869335192311 13.0529898022341 4.96410234
endloop
endfacet
facet normal -0.99144515521284 -0.130523960271621 0.0
outer loop
vertex 9.64869335192311 13.0529898022341 -1.49999954
vertex 9.55669455192311 13.7518022222341 4.96410234
vertex 9.55669455192311 13.7518022222341 -1.49999954
endloop
endfacet
facet normal -0.923878479639439 -0.382685974212693 0.0
outer loop
vertex 9.64869335192311 13.0529898022341 4.96410234
vertex 9.91842611192311 12.4018023822341 -1.49999954
vertex 9.91842611192311 12.4018023822341 4.96410234
endloop
endfacet
facet normal -0.923878479639439 -0.382685974212693 0.0
outer loop
vertex 9.91842611192311 12.4018023822341 -1.49999954
vertex 9.64869335192311 13.0529898022341 4.96410234
vertex 9.64869335192311 13.0529898022341 -1.49999954
endloop
endfacet
facet normal -0.7933539292249 -0.608760661494657 0.0
outer loop
vertex 9.91842611192311 12.4018023822341 4.96410234
vertex 10.3475057719231 11.8426137622341 -1.49999954
vertex 10.3475057719231 11.8426137622341 4.96410234
endloop
endfacet
facet normal -0.7933539292249 -0.608760661494657 0.0
outer loop
vertex 10.3475057719231 11.8426137622341 -1.49999954
vertex 9.91842611192311 12.4018023822341 4.96410234
vertex 9.91842611192311 12.4018023822341 -1.49999954
endloop
endfacet
facet normal -0.608762929660959 -0.793352188798018 0.0
outer loop
vertex 10.9066943919231 11.4135315622341 4.96410234
vertex 10.3475057719231 11.8426137622341 -1.49999954
vertex 10.9066943919231 11.4135315622341 -1.49999954
endloop
endfacet
facet normal -0.608762929660959 -0.793352188798018 0.0
outer loop
vertex 10.3475057719231 11.8426137622341 -1.49999954
vertex 10.9066943919231 11.4135315622341 4.96410234
vertex 10.3475057719231 11.8426137622341 4.96410234
endloop
endfacet
facet normal -0.382682898305937 -0.92387975372565 0.0
outer loop
vertex 11.5578818119231 11.1438013422341 4.96410234
vertex 10.9066943919231 11.4135315622341 -1.49999954
vertex 11.5578818119231 11.1438013422341 -1.49999954
endloop
endfacet
facet normal -0.382682898305937 -0.92387975372565 0.0
outer loop
vertex 10.9066943919231 11.4135315622341 -1.49999954
vertex 11.5578818119231 11.1438013422341 4.96410234
vertex 10.9066943919231 11.4135315622341 4.96410234
endloop
endfacet
facet normal -0.130527502518935 -0.991444688868809 0.0
outer loop
vertex 12.2566942319231 11.0518000022341 4.96410234
vertex 11.5578818119231 11.1438013422341 -1.49999954
vertex 12.2566942319231 11.0518000022341 -1.49999954
endloop
endfacet
facet normal -0.130527502518935 -0.991444688868809 0.0
outer loop
vertex 11.5578818119231 11.1438013422341 -1.49999954
vertex 12.2566942319231 11.0518000022341 4.96410234
vertex 11.5578818119231 11.1438013422341 4.96410234
endloop
endfacet
facet normal 0.130527968870727 -0.991444627471692 0.0
outer loop
vertex 12.9555041119231 11.1438013422341 4.96410234
vertex 12.2566942319231 11.0518000022341 -1.49999954
vertex 12.9555041119231 11.1438013422341 -1.49999954
endloop
endfacet
facet normal 0.130527968870727 -0.991444627471692 0.0
outer loop
vertex 12.2566942319231 11.0518000022341 -1.49999954
vertex 12.9555041119231 11.1438013422341 4.96410234
vertex 12.2566942319231 11.0518000022341 4.96410234
endloop
endfacet
facet normal -0.920513462185765 0.390710846963297 1.0672575270515e-16
outer loop
vertex 33.6184244319231 56.1514050022341 -1.49999954
vertex 31.3746417719231 50.8650604822341 -1.49999954
vertex 33.6184244319231 56.1514050022341 1.7320514
endloop
endfacet
facet normal -0.798622247034592 0.601832623360864 0.0
outer loop
vertex 13.3746422119231 19.6881454422341 -1.49999954
vertex 9.91842611192311 15.1018020622341 -1.49999954
vertex 9.91842611192311 15.1018020622341 1.7320514
endloop
endfacet
facet normal -0.50000027071249 -0.866025247488453 2.63380295246853e-08
outer loop
vertex 36.4387446813088 51.636340335204 1.73204936800096
vertex 33.8406693519231 53.1363411822341 0.0
vertex 35.5727182119231 52.1363406422341 0.0
endloop
endfacet
facet normal -0.50000027071249 -0.866025247488453 2.63380295246853e-08
outer loop
vertex 33.8406693519231 53.1363411822341 0.0
vertex 36.4387446813088 51.636340335204 1.73204936800096
vertex 32.9746418813088 53.636341415204 1.73204936800096
endloop
endfacet
facet normal -0.50000027071249 -0.866025247488453 2.63380295246853e-08
outer loop
vertex 32.9746418813088 53.636341415204 1.73204936800096
vertex 36.4387446813088 51.636340335204 1.73204936800096
vertex 35.5727182119231 52.1363406422341 3.4641028
endloop
endfacet
facet normal -0.50000027071249 -0.866025247488453 2.63380295246853e-08
outer loop
vertex 32.9746418813088 53.636341415204 1.73204936800096
vertex 35.5727182119231 52.1363406422341 3.4641028
vertex 33.8406675813088 53.136342415204 3.46410076800096
endloop
endfacet
facet normal 0.500000074234869 0.866025360924913 1.00961726616744e-17
outer loop
vertex 11.7746433150661 16.9168637938043 1.7320514
vertex 14.3727204150661 15.4168642538043 6.65252964439822e-16
vertex 12.6406685719231 16.4168642022341 0.0
endloop
endfacet
facet normal 0.500000074234869 0.866025360924913 1.00961726616744e-17
outer loop
vertex 14.3727204150661 15.4168642538043 6.65252964439822e-16
vertex 11.7746433150661 16.9168637938043 1.7320514
vertex 15.2387456719231 14.9168646622341 1.7320514
endloop
endfacet
facet normal 0.500000074234869 0.866025360924913 1.00961726616744e-17
outer loop
vertex 15.2387456719231 14.9168646622341 1.7320514
vertex 11.7746433150661 16.9168637938043 1.7320514
vertex 14.3727204150661 15.4168642538043 3.4641028
endloop
endfacet
facet normal 0.500000074234869 0.866025360924913 1.00961726616744e-17
outer loop
vertex 14.3727204150661 15.4168642538043 3.4641028
vertex 11.7746433150661 16.9168637938043 1.7320514
vertex 12.6406690150661 16.4168647938043 3.4641028
endloop
endfacet
facet normal -0.750000121632521 0.43301249121856 -0.4999999999999
outer loop
vertex 34.0160203783166 49.340060864412 3.55070474794696
vertex 36.5253465392511 51.5863407193107 1.73204936800096
vertex 34.9253464298654 48.8150597863408 1.7320514
endloop
endfacet
facet normal -0.750000121632521 0.43301249121856 -0.4999999999999
outer loop
vertex 36.5253465392511 51.5863407193107 1.73204936800096
vertex 34.0160203783166 49.340060864412 3.55070474794696
vertex 35.6160204877023 52.1113417973819 3.55070271594791
endloop
endfacet
facet normal -0.866025635887856 0.499999597984873 0.0
outer loop
vertex 38.0566938219229 54.8014061370688 4.96410234
vertex 37.0066946661547 52.9827523017043 -1.49999954
vertex 37.0066946661547 52.9827523017043 4.96410234
endloop
endfacet
facet normal -0.866025635887856 0.499999597984873 0.0
outer loop
vertex 37.0066946661547 52.9827523017043 -1.49999954
vertex 38.0566938219229 54.8014061370688 4.96410234
vertex 38.0566938219229 54.8014061370688 -1.49999954
endloop
endfacet
facet normal -0.50000007515092 -0.86602536039603 -2.05215141416722e-08
outer loop
vertex 34.8387445719231 48.8650594022341 -1.49999954
vertex 34.016019223472 49.3400588641629 -0.0866019479469535
vertex 31.3746417719231 50.8650604822341 -1.49999954
endloop
endfacet
facet normal -0.50000007515092 -0.86602536039603 -2.05215141416722e-08
outer loop
vertex 34.016019223472 49.3400588641629 -0.0866019479469535
vertex 34.8387445719231 48.8650594022341 -1.49999954
vertex 35.6909806119231 48.3730207622341 1.78350926
endloop
endfacet
facet normal -0.50000007515092 -0.86602536039603 -2.05215141416722e-08
outer loop
vertex 31.3746417719231 50.8650604822341 -1.49999954
vertex 34.016019223472 49.3400588641629 -0.0866019479469535
vertex 32.1973659655297 50.3900590200561 -0.0866019479469549
endloop
endfacet
facet normal -0.50000007515092 -0.86602536039603 -2.05215141416722e-08
outer loop
vertex 34.016019223472 49.3400588641629 -0.0866019479469535
vertex 35.6909806119231 48.3730207622341 1.78350926
vertex 34.9253464298654 48.8150597863408 1.7320514
endloop
endfacet
facet normal -0.50000007515092 -0.86602536039603 -2.05215141416722e-08
outer loop
vertex 34.9253464298654 48.8150597863408 1.7320514
vertex 35.6909806119231 48.3730207622341 1.78350926
vertex 34.0160203783166 49.340060864412 3.55070474794696
endloop
endfacet
facet normal -0.50000007515092 -0.86602536039603 -2.05215141416722e-08
outer loop
vertex 34.0160203783166 49.340060864412 3.55070474794696
vertex 35.6909806119231 48.3730207622341 1.78350926
vertex 34.8387445719231 48.8650594022341 4.96410234
endloop
endfacet
facet normal -0.50000007515092 -0.86602536039603 -2.05215141416722e-08
outer loop
vertex 34.0160203783166 49.340060864412 3.55070474794696
vertex 34.8387445719231 48.8650594022341 4.96410234
vertex 32.1973671203743 50.3900610203052 3.55070474794696
endloop
endfacet
facet normal -0.50000007515092 -0.86602536039603 -2.05215141416722e-08
outer loop
vertex 32.1973659655297 50.3900590200561 -0.0866019479469549
vertex 30.5086186119231 51.3650594822341 1.7320514
vertex 31.3746417719231 50.8650604822341 -1.49999954
endloop
endfacet
facet normal -0.50000007515092 -0.86602536039603 -2.05215141416722e-08
outer loop
vertex 30.5086186119231 51.3650594822341 1.7320514
vertex 32.1973659655297 50.3900590200561 -0.0866019479469549
vertex 31.2880399139808 50.9150600981273 1.7320514
endloop
endfacet
facet normal -0.50000007515092 -0.86602536039603 -2.05215141416722e-08
outer loop
vertex 30.5086186119231 51.3650594822341 1.7320514
vertex 31.2880399139808 50.9150600981273 1.7320514
vertex 32.1973671203743 50.3900610203052 3.55070474794696
endloop
endfacet
facet normal -0.50000007515092 -0.86602536039603 -2.05215141416722e-08
outer loop
vertex 30.5086186119231 51.3650594822341 1.7320514
vertex 32.1973671203743 50.3900610203052 3.55070474794696
vertex 31.3746417719231 50.8650604822341 4.96410234
endloop
endfacet
facet normal -0.50000007515092 -0.86602536039603 -2.05215141416722e-08
outer loop
vertex 31.3746417719231 50.8650604822341 4.96410234
vertex 32.1973671203743 50.3900610203052 3.55070474794696
vertex 34.8387445719231 48.8650594022341 4.96410234
endloop
endfacet
facet normal -0.920513462185765 0.390710846963297 -1.0672575270515e-16
outer loop
vertex 33.6184244319231 56.1514050022341 1.7320514
vertex 31.3746417719231 50.8650604822341 4.96410234
vertex 33.6184244319231 56.1514050022341 4.96410234
endloop
endfacet
facet normal 0.749999804132599 -0.43301304114445 -0.499999999999898
outer loop
vertex 31.2880399139808 50.9150600981273 1.7320514
vertex 33.7973672297599 53.1613419532751 3.55070271594791
vertex 32.1973671203743 50.3900610203052 3.55070474794696
endloop
endfacet
facet normal 0.749999804132599 -0.43301304114445 -0.499999999999898
outer loop
vertex 33.7973672297599 53.1613419532751 3.55070271594791
vertex 31.2880399139808 50.9150600981273 1.7320514
vertex 32.8880400233665 53.6863410310972 1.73204936800096
endloop
endfacet
facet normal -0.866025171680835 -0.500000402015019 -0.0
outer loop
vertex 37.0066929776914 56.6200589975986 4.96410234
vertex 38.0566938219229 54.8014061370688 -1.49999954
vertex 38.0566938219229 54.8014061370688 4.96410234
endloop
endfacet
facet normal -0.866025171680835 -0.500000402015019 -0.0
outer loop
vertex 38.0566938219229 54.8014061370688 -1.49999954
vertex 37.0066929776914 56.6200589975986 4.96410234
vertex 37.0066929776914 56.6200589975986 -1.49999954
endloop
endfacet
facet normal 4.64207020716991e-07 -0.999999999999892 0.0
outer loop
vertex 37.0066929776914 56.6200589975986 4.96410234
vertex 34.9066929776916 56.6200580227638 -1.49999954
vertex 37.0066929776914 56.6200589975986 -1.49999954
endloop
endfacet
facet normal 4.64207020716991e-07 -0.999999999999892 0.0
outer loop
vertex 34.9066929776916 56.6200580227638 -1.49999954
vertex 37.0066929776914 56.6200589975986 4.96410234
vertex 34.9066929776916 56.6200580227638 4.96410234
endloop
endfacet
facet normal -4.64207020716991e-07 0.999999999999892 0.0
outer loop
vertex 34.9066946661549 52.9827513268696 4.96410234
vertex 37.0066946661547 52.9827523017043 -1.49999954
vertex 34.9066946661549 52.9827513268696 -1.49999954
endloop
endfacet
facet normal -4.64207020716991e-07 0.999999999999892 0.0
outer loop
vertex 37.0066946661547 52.9827523017043 -1.49999954
vertex 34.9066946661549 52.9827513268696 4.96410234
vertex 37.0066946661547 52.9827523017043 4.96410234
endloop
endfacet
facet normal 0.866025635887856 -0.499999597984873 0.0
outer loop
vertex 34.9066929776916 56.6200580227638 -1.49999954
vertex 33.8566938219234 54.8014041873993 4.96410234
vertex 33.8566938219234 54.8014041873993 -1.49999954
endloop
endfacet
facet normal 0.866025635887856 -0.499999597984873 0.0
outer loop
vertex 33.8566938219234 54.8014041873993 4.96410234
vertex 34.9066929776916 56.6200580227638 -1.49999954
vertex 34.9066929776916 56.6200580227638 4.96410234
endloop
endfacet
facet normal 0.866025171680835 0.500000402015019 0.0
outer loop
vertex 33.8566938219234 54.8014041873993 -1.49999954
vertex 34.9066946661549 52.9827513268696 4.96410234
vertex 34.9066946661549 52.9827513268696 -1.49999954
endloop
endfacet
facet normal 0.866025171680835 0.500000402015019 0.0
outer loop
vertex 34.9066946661549 52.9827513268696 4.96410234
vertex 33.8566938219234 54.8014041873993 -1.49999954
vertex 33.8566938219234 54.8014041873993 4.96410234
endloop
endfacet
facet normal -4.0321914231872e-07 -0.999999999999919 -0.0
outer loop
vertex 13.3066949652389 15.5704538768011 4.96410234
vertex 11.206694965239 15.5704547235613 -1.49999954
vertex 13.3066949652389 15.5704538768011 -1.49999954
endloop
endfacet
facet normal -4.0321914231872e-07 -0.999999999999919 -0.0
outer loop
vertex 11.206694965239 15.5704547235613 -1.49999954
vertex 13.3066949652389 15.5704538768011 4.96410234
vertex 11.206694965239 15.5704547235613 4.96410234
endloop
endfacet
facet normal 0.866025605393939 0.499999650801939 0.0
outer loop
vertex 10.1566942319233 13.7518017989943 -1.49999954
vertex 11.2066934986074 11.933148027667 4.96410234
vertex 11.2066934986074 11.933148027667 -1.49999954
endloop
endfacet
facet normal 0.866025605393939 0.499999650801939 0.0
outer loop
vertex 11.2066934986074 11.933148027667 4.96410234
vertex 10.1566942319233 13.7518017989943 -1.49999954
vertex 10.1566942319233 13.7518017989943 4.96410234
endloop
endfacet
facet normal 4.0321914231872e-07 0.999999999999919 0.0
outer loop
vertex 11.2066934986074 11.933148027667 4.96410234
vertex 13.3066934986072 11.9331471809068 -1.49999954
vertex 11.2066934986074 11.933148027667 -1.49999954
endloop
endfacet
facet normal 4.0321914231872e-07 0.999999999999919 0.0
outer loop
vertex 13.3066934986072 11.9331471809068 -1.49999954
vertex 11.2066934986074 11.933148027667 4.96410234
vertex 13.3066934986072 11.9331471809068 4.96410234
endloop
endfacet
facet normal 0.866025202174797 -0.50000034919798 0.0
outer loop
vertex 11.206694965239 15.5704547235613 -1.49999954
vertex 10.1566942319233 13.7518017989943 4.96410234
vertex 10.1566942319233 13.7518017989943 -1.49999954
endloop
endfacet
facet normal 0.866025202174797 -0.50000034919798 0.0
outer loop
vertex 10.1566942319233 13.7518017989943 4.96410234
vertex 11.206694965239 15.5704547235613 -1.49999954
vertex 11.206694965239 15.5704547235613 4.96410234
endloop
endfacet
facet normal -0.866025202174797 0.50000034919798 0.0
outer loop
vertex 14.3566942319229 13.7518001054739 4.96410234
vertex 13.3066934986072 11.9331471809068 -1.49999954
vertex 13.3066934986072 11.9331471809068 4.96410234
endloop
endfacet
facet normal -0.866025202174797 0.50000034919798 0.0
outer loop
vertex 13.3066934986072 11.9331471809068 -1.49999954
vertex 14.3566942319229 13.7518001054739 4.96410234
vertex 14.3566942319229 13.7518001054739 -1.49999954
endloop
endfacet
facet normal -0.86602560539394 -0.499999650801938 -0.0
outer loop
vertex 13.3066949652389 15.5704538768011 4.96410234
vertex 14.3566942319229 13.7518001054739 -1.49999954
vertex 14.3566942319229 13.7518001054739 4.96410234
endloop
endfacet
facet normal -0.86602560539394 -0.499999650801938 -0.0
outer loop
vertex 14.3566942319229 13.7518001054739 -1.49999954
vertex 13.3066949652389 15.5704538768011 4.96410234
vertex 13.3066949652389 15.5704538768011 -1.49999954
endloop
endfacet
facet normal 2.49312571667279e-16 9.61118928314283e-17 1.0
outer loop
vertex 14.4160215750061 15.3918648459077 -0.0866019479473103
vertex 14.1973667519831 19.2131458501307 -0.0866019479473106
vertex 12.597367855126 16.441864201701 -0.08660194794731
endloop
endfacet
facet normal 2.49312571667279e-16 9.61118928314283e-17 1.0
outer loop
vertex 14.1973667519831 19.2131458501307 -0.0866019479473106
vertex 14.4160215750061 15.3918648459077 -0.0866019479473103
vertex 16.0160204718631 18.1631464943374 -0.086601947947311
endloop
endfacet
facet normal 0.499999693234911 0.866025580895273 -2.07891567173528e-16
outer loop
vertex 11.688040995186 16.9668638795976 1.7320514
vertex 12.6406685719231 16.4168642022341 0.0
vertex 12.597367855126 16.441864201701 -0.08660194794731
endloop
endfacet
facet normal 0.499999693234911 0.866025580895273 -2.07891567173528e-16
outer loop
vertex 12.6406685719231 16.4168642022341 0.0
vertex 11.688040995186 16.9668638795976 1.7320514
vertex 11.7746433150661 16.9168637938043 1.7320514
endloop
endfacet
facet normal 0.499999693234911 0.866025580895273 -2.07891567173528e-16
outer loop
vertex 11.7746433150661 16.9168637938043 1.7320514
vertex 11.688040995186 16.9668638795976 1.7320514
vertex 12.597367855126 16.441864201701 3.55070474794731
endloop
endfacet
facet normal 0.499999693234911 0.866025580895273 -2.07891567173528e-16
outer loop
vertex 11.7746433150661 16.9168637938043 1.7320514
vertex 12.597367855126 16.441864201701 3.55070474794731
vertex 12.6406690150661 16.4168647938043 3.4641028
endloop
endfacet
facet normal 0.499999693234911 0.866025580895273 -2.07891567173528e-16
outer loop
vertex 12.6406690150661 16.4168647938043 3.4641028
vertex 12.597367855126 16.441864201701 3.55070474794731
vertex 14.3727204150661 15.4168642538043 3.4641028
endloop
endfacet
facet normal 0.499999693234911 0.866025580895273 -2.07891567173528e-16
outer loop
vertex 14.3727204150661 15.4168642538043 3.4641028
vertex 12.597367855126 16.441864201701 3.55070474794731
vertex 14.4160215750061 15.3918648459077 3.55070474794731
endloop
endfacet
facet normal 0.499999693234911 0.866025580895273 -2.07891567173528e-16
outer loop
vertex 14.4160215750061 15.3918648459077 -0.0866019479473103
vertex 14.3727204150661 15.4168642538043 6.65252964439822e-16
vertex 15.3253484349461 14.866865168011 1.7320514
endloop
endfacet
facet normal 0.499999693234911 0.866025580895273 -2.07891567173528e-16
outer loop
vertex 14.3727204150661 15.4168642538043 6.65252964439822e-16
vertex 14.4160215750061 15.3918648459077 -0.0866019479473103
vertex 12.597367855126 16.441864201701 -0.08660194794731
endloop
endfacet
facet normal 0.499999693234911 0.866025580895273 -2.07891567173528e-16
outer loop
vertex 14.3727204150661 15.4168642538043 6.65252964439822e-16
vertex 12.597367855126 16.441864201701 -0.08660194794731
vertex 12.6406685719231 16.4168642022341 0.0
endloop
endfacet
facet normal 0.499999693234911 0.866025580895273 -2.07891567173528e-16
outer loop
vertex 15.3253484349461 14.866865168011 1.7320514
vertex 14.3727204150661 15.4168642538043 6.65252964439822e-16
vertex 15.2387456719231 14.9168646622341 1.7320514
endloop
endfacet
facet normal 0.499999693234911 0.866025580895273 -2.07891567173528e-16
outer loop
vertex 15.3253484349461 14.866865168011 1.7320514
vertex 15.2387456719231 14.9168646622341 1.7320514
vertex 14.3727204150661 15.4168642538043 3.4641028
endloop
endfacet
facet normal 0.499999693234911 0.866025580895273 -2.07891567173528e-16
outer loop
vertex 15.3253484349461 14.866865168011 1.7320514
vertex 14.3727204150661 15.4168642538043 3.4641028
vertex 14.4160215750061 15.3918648459077 3.55070474794731
endloop
endfacet
endsolid Delta v7
