solid Untitled-56d477e6
facet normal -0.7933533402912355 -0.6087614290087202 -0.0
  outer loop
    vertex -2.5980762113533165 -1.4999999999999993 6.0
    vertex -2.121320343559644 -2.1213203435596415 1.9999999999999998
    vertex -2.121320343559644 -2.1213203435596415 6.0
  endloop
endfacet
facet normal -0.7933533402912355 -0.6087614290087202 -0.0
  outer loop
    vertex -2.121320343559644 -2.1213203435596415 1.9999999999999998
    vertex -2.5980762113533165 -1.4999999999999993 6.0
    vertex -2.5980762113533165 -1.4999999999999993 1.9999999999999998
  endloop
endfacet
facet normal 0.6087614290087204 -0.7933533402912353 0.0
  outer loop
    vertex -1.0499999999999994 1.8186533479473215 6.0
    vertex -1.4849242404917498 1.48492424049175 0.0
    vertex -1.0499999999999994 1.8186533479473215 0.0
  endloop
endfacet
facet normal 0.6087614290087204 -0.7933533402912353 0.0
  outer loop
    vertex -1.4849242404917498 1.48492424049175 0.0
    vertex -1.0499999999999994 1.8186533479473215 6.0
    vertex -1.4849242404917498 1.48492424049175 6.0
  endloop
endfacet
facet normal 0.3826834323650892 -0.9238795325112872 0.0
  outer loop
    vertex 1.499999999999998 -2.5980762113533173 6.0
    vertex 0.7764571353075609 -2.897777478867205 1.9999999999999998
    vertex 1.499999999999998 -2.5980762113533173 1.9999999999999998
  endloop
endfacet
facet normal 0.3826834323650892 -0.9238795325112872 0.0
  outer loop
    vertex 0.7764571353075609 -2.897777478867205 1.9999999999999998
    vertex 1.499999999999998 -2.5980762113533173 6.0
    vertex 0.7764571353075609 -2.897777478867205 6.0
  endloop
endfacet
facet normal -0.793353340291235 0.608761429008721 0.0
  outer loop
    vertex -2.1213203435596424 2.121320343559643 6.0
    vertex -2.5980762113533156 1.500000000000001 1.9999999999999998
    vertex -2.5980762113533156 1.500000000000001 6.0
  endloop
endfacet
facet normal -0.793353340291235 0.608761429008721 0.0
  outer loop
    vertex -2.5980762113533156 1.500000000000001 1.9999999999999998
    vertex -2.1213203435596424 2.121320343559643 6.0
    vertex -2.1213203435596424 2.121320343559643 1.9999999999999998
  endloop
endfacet
facet normal -0.13052619222005193 -0.9914448613738105 -0.0
  outer loop
    vertex -5.51091059616309e-16 -3.0 6.0
    vertex -0.7764571353075644 -2.8977774788672046 1.9999999999999998
    vertex -5.51091059616309e-16 -3.0 1.9999999999999998
  endloop
endfacet
facet normal -0.13052619222005193 -0.9914448613738105 -0.0
  outer loop
    vertex -0.7764571353075644 -2.8977774788672046 1.9999999999999998
    vertex -5.51091059616309e-16 -3.0 6.0
    vertex -0.7764571353075644 -2.8977774788672046 6.0
  endloop
endfacet
facet normal -0.9914448613738105 -0.13052619222005163 -0.0
  outer loop
    vertex 2.0284442352070435 0.5435199947152936 6.0
    vertex 2.1 0.0 0.0
    vertex 2.1 0.0 6.0
  endloop
endfacet
facet normal -0.9914448613738105 -0.13052619222005163 -0.0
  outer loop
    vertex 2.1 0.0 0.0
    vertex 2.0284442352070435 0.5435199947152936 6.0
    vertex 2.0284442352070435 0.5435199947152936 0.0
  endloop
endfacet
facet normal 0.13052619222005166 0.9914448613738104 0.0
  outer loop
    vertex 1.83697019872103e-16 3.0 6.0
    vertex 0.7764571353075629 2.897777478867205 1.9999999999999998
    vertex 1.83697019872103e-16 3.0 1.9999999999999998
  endloop
endfacet
facet normal 0.13052619222005166 0.9914448613738104 0.0
  outer loop
    vertex 0.7764571353075629 2.897777478867205 1.9999999999999998
    vertex 1.83697019872103e-16 3.0 6.0
    vertex 0.7764571353075629 2.897777478867205 6.0
  endloop
endfacet
facet normal 0.3826834323650901 0.9238795325112867 0.0
  outer loop
    vertex 0.7764571353075629 2.897777478867205 6.0
    vertex 1.5000000000000004 2.5980762113533156 1.9999999999999998
    vertex 0.7764571353075629 2.897777478867205 1.9999999999999998
  endloop
endfacet
facet normal 0.3826834323650901 0.9238795325112867 0.0
  outer loop
    vertex 1.5000000000000004 2.5980762113533156 1.9999999999999998
    vertex 0.7764571353075629 2.897777478867205 6.0
    vertex 1.5000000000000004 2.5980762113533156 6.0
  endloop
endfacet
facet normal 0.7933533402912353 0.6087614290087204 0.0
  outer loop
    vertex 2.121320343559643 2.1213203435596424 1.9999999999999998
    vertex 2.598076211353316 1.5 6.0
    vertex 2.598076211353316 1.5 1.9999999999999998
  endloop
endfacet
facet normal 0.7933533402912353 0.6087614290087204 0.0
  outer loop
    vertex 2.598076211353316 1.5 6.0
    vertex 2.121320343559643 2.1213203435596424 1.9999999999999998
    vertex 2.121320343559643 2.1213203435596424 6.0
  endloop
endfacet
facet normal -0.6087614290087211 -0.7933533402912347 -0.0
  outer loop
    vertex -1.5000000000000016 -2.5980762113533156 6.0
    vertex -2.121320343559644 -2.1213203435596415 1.9999999999999998
    vertex -1.5000000000000016 -2.5980762113533156 1.9999999999999998
  endloop
endfacet
facet normal -0.6087614290087211 -0.7933533402912347 -0.0
  outer loop
    vertex -2.121320343559644 -2.1213203435596415 1.9999999999999998
    vertex -1.5000000000000016 -2.5980762113533156 6.0
    vertex -2.121320343559644 -2.1213203435596415 6.0
  endloop
endfacet
facet normal -0.9238795325112867 0.3826834323650899 0.0
  outer loop
    vertex -2.5980762113533156 1.500000000000001 6.0
    vertex -2.897777478867205 0.7764571353075631 1.9999999999999998
    vertex -2.897777478867205 0.7764571353075631 6.0
  endloop
endfacet
facet normal -0.9238795325112867 0.3826834323650899 0.0
  outer loop
    vertex -2.897777478867205 0.7764571353075631 1.9999999999999998
    vertex -2.5980762113533156 1.500000000000001 6.0
    vertex -2.5980762113533156 1.500000000000001 1.9999999999999998
  endloop
endfacet
facet normal -0.9914448613738104 0.13052619222005166 0.0
  outer loop
    vertex -2.897777478867205 0.7764571353075631 6.0
    vertex -3.0 3.67394039744206e-16 1.9999999999999998
    vertex -3.0 3.67394039744206e-16 6.0
  endloop
endfacet
facet normal -0.9914448613738104 0.13052619222005166 0.0
  outer loop
    vertex -3.0 3.67394039744206e-16 1.9999999999999998
    vertex -2.897777478867205 0.7764571353075631 6.0
    vertex -2.897777478867205 0.7764571353075631 1.9999999999999998
  endloop
endfacet
facet normal 0.38268343236508945 -0.9238795325112868 0.0
  outer loop
    vertex -0.5435199947152933 2.0284442352070435 6.0
    vertex -1.0499999999999994 1.8186533479473215 0.0
    vertex -0.5435199947152933 2.0284442352070435 0.0
  endloop
endfacet
facet normal 0.38268343236508945 -0.9238795325112868 0.0
  outer loop
    vertex -1.0499999999999994 1.8186533479473215 0.0
    vertex -0.5435199947152933 2.0284442352070435 6.0
    vertex -1.0499999999999994 1.8186533479473215 6.0
  endloop
endfacet
facet normal -0.13052619222005116 0.9914448613738105 0.0
  outer loop
    vertex -3.857637417314162e-16 -2.1 6.0
    vertex 0.5435199947152926 -2.028444235207044 0.0
    vertex -3.857637417314162e-16 -2.1 0.0
  endloop
endfacet
facet normal -0.13052619222005116 0.9914448613738105 0.0
  outer loop
    vertex 0.5435199947152926 -2.028444235207044 0.0
    vertex -3.857637417314162e-16 -2.1 6.0
    vertex 0.5435199947152926 -2.028444235207044 6.0
  endloop
endfacet
facet normal -0.3826834323650898 0.9238795325112867 0.0
  outer loop
    vertex -1.4999999999999993 2.5980762113533165 6.0
    vertex -0.776457135307562 2.897777478867205 1.9999999999999998
    vertex -1.4999999999999993 2.5980762113533165 1.9999999999999998
  endloop
endfacet
facet normal -0.3826834323650898 0.9238795325112867 0.0
  outer loop
    vertex -0.776457135307562 2.897777478867205 1.9999999999999998
    vertex -1.4999999999999993 2.5980762113533165 6.0
    vertex -0.776457135307562 2.897777478867205 6.0
  endloop
endfacet
facet normal -0.923879532511287 -0.3826834323650894 -0.0
  outer loop
    vertex 1.8186533479473215 1.0499999999999998 6.0
    vertex 2.0284442352070435 0.5435199947152936 0.0
    vertex 2.0284442352070435 0.5435199947152936 6.0
  endloop
endfacet
facet normal -0.923879532511287 -0.3826834323650894 -0.0
  outer loop
    vertex 2.0284442352070435 0.5435199947152936 0.0
    vertex 1.8186533479473215 1.0499999999999998 6.0
    vertex 1.8186533479473215 1.0499999999999998 0.0
  endloop
endfacet
facet normal 0.9914448613738106 0.13052619222005113 0.0
  outer loop
    vertex -2.1 2.571758278209442e-16 0.0
    vertex -2.028444235207044 -0.5435199947152928 6.0
    vertex -2.028444235207044 -0.5435199947152928 0.0
  endloop
endfacet
facet normal 0.9914448613738106 0.13052619222005113 0.0
  outer loop
    vertex -2.028444235207044 -0.5435199947152928 6.0
    vertex -2.1 2.571758278209442e-16 0.0
    vertex -2.1 2.571758278209442e-16 6.0
  endloop
endfacet
facet normal -0.13052619222005135 0.9914448613738106 0.0
  outer loop
    vertex -0.776457135307562 2.897777478867205 6.0
    vertex 1.83697019872103e-16 3.0 1.9999999999999998
    vertex -0.776457135307562 2.897777478867205 1.9999999999999998
  endloop
endfacet
facet normal -0.13052619222005135 0.9914448613738106 0.0
  outer loop
    vertex 1.83697019872103e-16 3.0 1.9999999999999998
    vertex -0.776457135307562 2.897777478867205 6.0
    vertex 1.83697019872103e-16 3.0 6.0
  endloop
endfacet
facet normal 0.130526192220052 0.9914448613738104 0.0
  outer loop
    vertex -0.5435199947152951 -2.028444235207043 6.0
    vertex -3.857637417314162e-16 -2.1 0.0
    vertex -0.5435199947152951 -2.028444235207043 0.0
  endloop
endfacet
facet normal 0.130526192220052 0.9914448613738104 0.0
  outer loop
    vertex -3.857637417314162e-16 -2.1 0.0
    vertex -0.5435199947152951 -2.028444235207043 6.0
    vertex -3.857637417314162e-16 -2.1 6.0
  endloop
endfacet
facet normal 0.0 0.0 -1.0
  outer loop
    vertex -1.999999999999999 3.4641016151377553 0.0
    vertex -2.1 2.571758278209442e-16 0.0
    vertex -2.82842712474619 2.8284271247461903 0.0
  endloop
endfacet
facet normal 0.0 0.0 -1.0
  outer loop
    vertex -2.1 2.571758278209442e-16 0.0
    vertex -1.999999999999999 3.4641016151377553 0.0
    vertex -2.0284442352070435 0.5435199947152942 0.0
  endloop
endfacet
facet normal 0.0 0.0 -1.0
  outer loop
    vertex -2.0284442352070435 0.5435199947152942 0.0
    vertex -1.999999999999999 3.4641016151377553 0.0
    vertex -1.8186533479473208 1.0500000000000007 0.0
  endloop
endfacet
facet normal 0.0 0.0 -1.0
  outer loop
    vertex -1.8186533479473208 1.0500000000000007 0.0
    vertex -1.999999999999999 3.4641016151377553 0.0
    vertex -1.0352761804100825 3.863703305156273 0.0
  endloop
endfacet
facet normal 0.0 0.0 -1.0
  outer loop
    vertex -1.8186533479473208 1.0500000000000007 0.0
    vertex -1.0352761804100825 3.863703305156273 0.0
    vertex -1.4849242404917498 1.48492424049175 0.0
  endloop
endfacet
facet normal 0.0 0.0 -1.0
  outer loop
    vertex -1.4849242404917498 1.48492424049175 0.0
    vertex -1.0352761804100825 3.863703305156273 0.0
    vertex -1.0499999999999994 1.8186533479473215 0.0
  endloop
endfacet
facet normal 0.0 0.0 -1.0
  outer loop
    vertex -1.0499999999999994 1.8186533479473215 0.0
    vertex -1.0352761804100825 3.863703305156273 0.0
    vertex -0.5435199947152933 2.0284442352070435 0.0
  endloop
endfacet
facet normal 0.0 0.0 -1.0
  outer loop
    vertex -0.5435199947152933 2.0284442352070435 0.0
    vertex -1.0352761804100825 3.863703305156273 0.0
    vertex 2.449293598294706e-16 3.9999999999999996 0.0
  endloop
endfacet
facet normal 0.0 0.0 -1.0
  outer loop
    vertex -0.5435199947152933 2.0284442352070435 0.0
    vertex 2.449293598294706e-16 3.9999999999999996 0.0
    vertex 1.285879139104721e-16 2.1 0.0
  endloop
endfacet
facet normal 0.0 0.0 -1.0
  outer loop
    vertex 1.285879139104721e-16 2.1 0.0
    vertex 2.449293598294706e-16 3.9999999999999996 0.0
    vertex 0.543519994715294 2.0284442352070435 0.0
  endloop
endfacet
facet normal 0.0 0.0 -1.0
  outer loop
    vertex 0.543519994715294 2.0284442352070435 0.0
    vertex 2.449293598294706e-16 3.9999999999999996 0.0
    vertex 1.0352761804100838 3.863703305156273 0.0
  endloop
endfacet
facet normal 0.0 0.0 -1.0
  outer loop
    vertex 0.543519994715294 2.0284442352070435 0.0
    vertex 1.0352761804100838 3.863703305156273 0.0
    vertex 1.0500000000000003 1.818653347947321 0.0
  endloop
endfacet
facet normal 0.0 0.0 -1.0
  outer loop
    vertex 1.0500000000000003 1.818653347947321 0.0
    vertex 1.0352761804100838 3.863703305156273 0.0
    vertex 2.0 3.464101615137754 0.0
  endloop
endfacet
facet normal 0.0 0.0 -1.0
  outer loop
    vertex 1.0500000000000003 1.818653347947321 0.0
    vertex 2.0 3.464101615137754 0.0
    vertex 1.48492424049175 1.4849242404917498 0.0
  endloop
endfacet
facet normal 0.0 0.0 -1.0
  outer loop
    vertex 1.48492424049175 1.4849242404917498 0.0
    vertex 2.0 3.464101615137754 0.0
    vertex 1.8186533479473215 1.0499999999999998 0.0
  endloop
endfacet
facet normal 0.0 0.0 -1.0
  outer loop
    vertex 1.8186533479473215 1.0499999999999998 0.0
    vertex 2.0 3.464101615137754 0.0
    vertex 2.0284442352070435 0.5435199947152936 0.0
  endloop
endfacet
facet normal 0.0 0.0 -1.0
  outer loop
    vertex 2.0284442352070435 0.5435199947152936 0.0
    vertex 2.0 3.464101615137754 0.0
    vertex 2.8284271247461903 2.82842712474619 0.0
  endloop
endfacet
facet normal 0.0 0.0 -1.0
  outer loop
    vertex 2.0284442352070435 0.5435199947152936 0.0
    vertex 2.8284271247461903 2.82842712474619 0.0
    vertex 2.1 0.0 0.0
  endloop
endfacet
facet normal 0.0 0.0 -1.0
  outer loop
    vertex 2.1 0.0 0.0
    vertex 2.8284271247461903 2.82842712474619 0.0
    vertex 2.82842712474619 -2.8284271247461903 0.0
  endloop
endfacet
facet normal 0.0 0.0 -1.0
  outer loop
    vertex 2.82842712474619 -2.8284271247461903 0.0
    vertex 2.8284271247461903 2.82842712474619 0.0
    vertex 3.464101615137753 -2.0000000000000018 0.0
  endloop
endfacet
facet normal 0.0 0.0 -1.0
  outer loop
    vertex 3.464101615137753 -2.0000000000000018 0.0
    vertex 2.8284271247461903 2.82842712474619 0.0
    vertex 3.4641016151377544 1.9999999999999996 0.0
  endloop
endfacet
facet normal 0.0 0.0 -1.0
  outer loop
    vertex 3.464101615137753 -2.0000000000000018 0.0
    vertex 3.4641016151377544 1.9999999999999996 0.0
    vertex 3.863703305156272 -1.035276180410086 0.0
  endloop
endfacet
facet normal 0.0 0.0 -1.0
  outer loop
    vertex 3.863703305156272 -1.035276180410086 0.0
    vertex 3.4641016151377544 1.9999999999999996 0.0
    vertex 3.863703305156273 1.035276180410083 0.0
  endloop
endfacet
facet normal 0.0 0.0 -1.0
  outer loop
    vertex 3.863703305156272 -1.035276180410086 0.0
    vertex 3.863703305156273 1.035276180410083 0.0
    vertex 3.9999999999999996 0.0 0.0
  endloop
endfacet
facet normal 0.0 0.0 -1.0
  outer loop
    vertex -3.863703305156273 1.035276180410084 0.0
    vertex -3.8637033051562732 -1.0352761804100814 0.0
    vertex -3.9999999999999996 4.898587196589412e-16 0.0
  endloop
endfacet
facet normal 0.0 0.0 -1.0
  outer loop
    vertex -3.8637033051562732 -1.0352761804100814 0.0
    vertex -3.863703305156273 1.035276180410084 0.0
    vertex -3.4641016151377553 -1.999999999999999 0.0
  endloop
endfacet
facet normal 0.0 0.0 -1.0
  outer loop
    vertex -3.4641016151377553 -1.999999999999999 0.0
    vertex -3.863703305156273 1.035276180410084 0.0
    vertex -3.464101615137754 2.0000000000000013 0.0
  endloop
endfacet
facet normal 0.0 0.0 -1.0
  outer loop
    vertex -3.4641016151377553 -1.999999999999999 0.0
    vertex -3.464101615137754 2.0000000000000013 0.0
    vertex -2.8284271247461916 -2.8284271247461885 0.0
  endloop
endfacet
facet normal 0.0 0.0 -1.0
  outer loop
    vertex -2.8284271247461916 -2.8284271247461885 0.0
    vertex -3.464101615137754 2.0000000000000013 0.0
    vertex -2.82842712474619 2.8284271247461903 0.0
  endloop
endfacet
facet normal 0.0 0.0 -1.0
  outer loop
    vertex -2.8284271247461916 -2.8284271247461885 0.0
    vertex -2.82842712474619 2.8284271247461903 0.0
    vertex -2.0000000000000018 -3.464101615137753 0.0
  endloop
endfacet
facet normal 0.0 0.0 -1.0
  outer loop
    vertex -2.0000000000000018 -3.464101615137753 0.0
    vertex -2.82842712474619 2.8284271247461903 0.0
    vertex -2.1 2.571758278209442e-16 0.0
  endloop
endfacet
facet normal 0.0 0.0 -1.0
  outer loop
    vertex -2.0000000000000018 -3.464101615137753 0.0
    vertex -2.1 2.571758278209442e-16 0.0
    vertex -2.028444235207044 -0.5435199947152928 0.0
  endloop
endfacet
facet normal 0.0 0.0 -1.0
  outer loop
    vertex -2.0000000000000018 -3.464101615137753 0.0
    vertex -2.028444235207044 -0.5435199947152928 0.0
    vertex -1.8186533479473215 -1.0499999999999994 0.0
  endloop
endfacet
facet normal 0.0 0.0 -1.0
  outer loop
    vertex -2.0000000000000018 -3.464101615137753 0.0
    vertex -1.8186533479473215 -1.0499999999999994 0.0
    vertex -1.0352761804100858 -3.863703305156272 0.0
  endloop
endfacet
facet normal 0.0 0.0 -1.0
  outer loop
    vertex -1.0352761804100858 -3.863703305156272 0.0
    vertex -1.8186533479473215 -1.0499999999999994 0.0
    vertex -1.4849242404917506 -1.484924240491749 0.0
  endloop
endfacet
facet normal 0.0 0.0 -1.0
  outer loop
    vertex -1.0352761804100858 -3.863703305156272 0.0
    vertex -1.4849242404917506 -1.484924240491749 0.0
    vertex -1.050000000000001 -1.8186533479473208 0.0
  endloop
endfacet
facet normal 0.0 0.0 -1.0
  outer loop
    vertex -1.0352761804100858 -3.863703305156272 0.0
    vertex -1.050000000000001 -1.8186533479473208 0.0
    vertex -0.5435199947152951 -2.028444235207043 0.0
  endloop
endfacet
facet normal 0.0 0.0 -1.0
  outer loop
    vertex -1.0352761804100858 -3.863703305156272 0.0
    vertex -0.5435199947152951 -2.028444235207043 0.0
    vertex -7.347880794884119e-16 -3.9999999999999996 0.0
  endloop
endfacet
facet normal 0.0 0.0 -1.0
  outer loop
    vertex -7.347880794884119e-16 -3.9999999999999996 0.0
    vertex -0.5435199947152951 -2.028444235207043 0.0
    vertex -3.857637417314162e-16 -2.1 0.0
  endloop
endfacet
facet normal 0.0 0.0 -1.0
  outer loop
    vertex -7.347880794884119e-16 -3.9999999999999996 0.0
    vertex -3.857637417314162e-16 -2.1 0.0
    vertex 1.035276180410081 -3.8637033051562732 0.0
  endloop
endfacet
facet normal 0.0 0.0 -1.0
  outer loop
    vertex 1.035276180410081 -3.8637033051562732 0.0
    vertex -3.857637417314162e-16 -2.1 0.0
    vertex 0.5435199947152926 -2.028444235207044 0.0
  endloop
endfacet
facet normal 0.0 0.0 -1.0
  outer loop
    vertex 1.035276180410081 -3.8637033051562732 0.0
    vertex 0.5435199947152926 -2.028444235207044 0.0
    vertex 1.0499999999999985 -1.8186533479473221 0.0
  endloop
endfacet
facet normal 0.0 0.0 -1.0
  outer loop
    vertex 1.035276180410081 -3.8637033051562732 0.0
    vertex 1.0499999999999985 -1.8186533479473221 0.0
    vertex 1.9999999999999971 -3.464101615137756 0.0
  endloop
endfacet
facet normal 0.0 0.0 -1.0
  outer loop
    vertex 1.9999999999999971 -3.464101615137756 0.0
    vertex 1.0499999999999985 -1.8186533479473221 0.0
    vertex 1.4849242404917498 -1.4849242404917502 0.0
  endloop
endfacet
facet normal 0.0 0.0 -1.0
  outer loop
    vertex 1.9999999999999971 -3.464101615137756 0.0
    vertex 1.4849242404917498 -1.4849242404917502 0.0
    vertex 1.8186533479473208 -1.050000000000001 0.0
  endloop
endfacet
facet normal 0.0 0.0 -1.0
  outer loop
    vertex 1.9999999999999971 -3.464101615137756 0.0
    vertex 1.8186533479473208 -1.050000000000001 0.0
    vertex 2.028444235207043 -0.5435199947152951 0.0
  endloop
endfacet
facet normal 0.0 0.0 -1.0
  outer loop
    vertex 1.9999999999999971 -3.464101615137756 0.0
    vertex 2.028444235207043 -0.5435199947152951 0.0
    vertex 2.82842712474619 -2.8284271247461903 0.0
  endloop
endfacet
facet normal 0.0 0.0 -1.0
  outer loop
    vertex 2.82842712474619 -2.8284271247461903 0.0
    vertex 2.028444235207043 -0.5435199947152951 0.0
    vertex 2.1 0.0 0.0
  endloop
endfacet
facet normal -0.9238795325112867 0.38268343236509034 0.0
  outer loop
    vertex 2.028444235207043 -0.5435199947152951 6.0
    vertex 1.8186533479473208 -1.050000000000001 0.0
    vertex 1.8186533479473208 -1.050000000000001 6.0
  endloop
endfacet
facet normal -0.9238795325112867 0.38268343236509034 0.0
  outer loop
    vertex 1.8186533479473208 -1.050000000000001 0.0
    vertex 2.028444235207043 -0.5435199947152951 6.0
    vertex 2.028444235207043 -0.5435199947152951 0.0
  endloop
endfacet
facet normal 0.793353340291235 -0.6087614290087208 0.0
  outer loop
    vertex -1.4849242404917498 1.48492424049175 0.0
    vertex -1.8186533479473208 1.0500000000000007 6.0
    vertex -1.8186533479473208 1.0500000000000007 0.0
  endloop
endfacet
facet normal 0.793353340291235 -0.6087614290087208 0.0
  outer loop
    vertex -1.8186533479473208 1.0500000000000007 6.0
    vertex -1.4849242404917498 1.48492424049175 0.0
    vertex -1.4849242404917498 1.48492424049175 6.0
  endloop
endfacet
facet normal 0.13052619222005166 -0.9914448613738105 0.0
  outer loop
    vertex 1.285879139104721e-16 2.1 6.0
    vertex -0.5435199947152933 2.0284442352070435 0.0
    vertex 1.285879139104721e-16 2.1 0.0
  endloop
endfacet
facet normal 0.13052619222005166 -0.9914448613738105 0.0
  outer loop
    vertex -0.5435199947152933 2.0284442352070435 0.0
    vertex 1.285879139104721e-16 2.1 6.0
    vertex -0.5435199947152933 2.0284442352070435 6.0
  endloop
endfacet
facet normal 0.9914448613738106 -0.13052619222005155 0.0
  outer loop
    vertex -2.0284442352070435 0.5435199947152942 0.0
    vertex -2.1 2.571758278209442e-16 6.0
    vertex -2.1 2.571758278209442e-16 0.0
  endloop
endfacet
facet normal 0.9914448613738106 -0.13052619222005155 0.0
  outer loop
    vertex -2.1 2.571758278209442e-16 6.0
    vertex -2.0284442352070435 0.5435199947152942 0.0
    vertex -2.0284442352070435 0.5435199947152942 6.0
  endloop
endfacet
facet normal 0.9914448613738104 -0.1305261922200518 0.0
  outer loop
    vertex 3.0 0.0 1.9999999999999998
    vertex 2.8977774788672046 -0.7764571353075645 6.0
    vertex 2.8977774788672046 -0.7764571353075645 1.9999999999999998
  endloop
endfacet
facet normal 0.9914448613738104 -0.1305261922200518 0.0
  outer loop
    vertex 2.8977774788672046 -0.7764571353075645 6.0
    vertex 3.0 0.0 1.9999999999999998
    vertex 3.0 0.0 6.0
  endloop
endfacet
facet normal 0.3826834323650902 0.9238795325112866 0.0
  outer loop
    vertex -1.050000000000001 -1.8186533479473208 6.0
    vertex -0.5435199947152951 -2.028444235207043 0.0
    vertex -1.050000000000001 -1.8186533479473208 0.0
  endloop
endfacet
facet normal 0.3826834323650902 0.9238795325112866 0.0
  outer loop
    vertex -0.5435199947152951 -2.028444235207043 0.0
    vertex -1.050000000000001 -1.8186533479473208 6.0
    vertex -0.5435199947152951 -2.028444235207043 6.0
  endloop
endfacet
facet normal -0.38268343236509 -0.9238795325112867 -0.0
  outer loop
    vertex 1.0500000000000003 1.818653347947321 6.0
    vertex 0.543519994715294 2.0284442352070435 0.0
    vertex 1.0500000000000003 1.818653347947321 0.0
  endloop
endfacet
facet normal -0.38268343236509 -0.9238795325112867 -0.0
  outer loop
    vertex 0.543519994715294 2.0284442352070435 0.0
    vertex 1.0500000000000003 1.818653347947321 6.0
    vertex 0.543519994715294 2.0284442352070435 6.0
  endloop
endfacet
facet normal -0.6087614290087204 0.7933533402912355 0.0
  outer loop
    vertex -2.1213203435596424 2.121320343559643 6.0
    vertex -1.4999999999999993 2.5980762113533165 1.9999999999999998
    vertex -2.1213203435596424 2.121320343559643 1.9999999999999998
  endloop
endfacet
facet normal -0.6087614290087204 0.7933533402912355 0.0
  outer loop
    vertex -1.4999999999999993 2.5980762113533165 1.9999999999999998
    vertex -2.1213203435596424 2.121320343559643 6.0
    vertex -1.4999999999999993 2.5980762113533165 6.0
  endloop
endfacet
facet normal 0.13052619222005146 -0.9914448613738106 0.0
  outer loop
    vertex 0.7764571353075609 -2.897777478867205 6.0
    vertex -5.51091059616309e-16 -3.0 1.9999999999999998
    vertex 0.7764571353075609 -2.897777478867205 1.9999999999999998
  endloop
endfacet
facet normal 0.13052619222005146 -0.9914448613738106 0.0
  outer loop
    vertex -5.51091059616309e-16 -3.0 1.9999999999999998
    vertex 0.7764571353075609 -2.897777478867205 6.0
    vertex -5.51091059616309e-16 -3.0 6.0
  endloop
endfacet
facet normal -0.793353340291235 0.6087614290087208 0.0
  outer loop
    vertex 1.8186533479473208 -1.050000000000001 6.0
    vertex 1.4849242404917498 -1.4849242404917502 0.0
    vertex 1.4849242404917498 -1.4849242404917502 6.0
  endloop
endfacet
facet normal -0.793353340291235 0.6087614290087208 0.0
  outer loop
    vertex 1.4849242404917498 -1.4849242404917502 0.0
    vertex 1.8186533479473208 -1.050000000000001 6.0
    vertex 1.8186533479473208 -1.050000000000001 0.0
  endloop
endfacet
facet normal -0.3826834323650904 -0.9238795325112867 -0.0
  outer loop
    vertex -0.7764571353075644 -2.8977774788672046 6.0
    vertex -1.5000000000000016 -2.5980762113533156 1.9999999999999998
    vertex -0.7764571353075644 -2.8977774788672046 1.9999999999999998
  endloop
endfacet
facet normal -0.3826834323650904 -0.9238795325112867 -0.0
  outer loop
    vertex -1.5000000000000016 -2.5980762113533156 1.9999999999999998
    vertex -0.7764571353075644 -2.8977774788672046 6.0
    vertex -1.5000000000000016 -2.5980762113533156 6.0
  endloop
endfacet
facet normal 0.9238795325112865 -0.3826834323650904 0.0
  outer loop
    vertex 2.8977774788672046 -0.7764571353075645 1.9999999999999998
    vertex 2.5980762113533156 -1.5000000000000016 6.0
    vertex 2.5980762113533156 -1.5000000000000016 1.9999999999999998
  endloop
endfacet
facet normal 0.9238795325112865 -0.3826834323650904 0.0
  outer loop
    vertex 2.5980762113533156 -1.5000000000000016 6.0
    vertex 2.8977774788672046 -0.7764571353075645 1.9999999999999998
    vertex 2.8977774788672046 -0.7764571353075645 6.0
  endloop
endfacet
facet normal -0.0 -0.0 1.0
  outer loop
    vertex -2.897777478867205 -0.7764571353075611 6.0
    vertex -2.897777478867205 0.7764571353075631 6.0
    vertex -3.0 3.67394039744206e-16 6.0
  endloop
endfacet
facet normal -0.0 -0.0 1.0
  outer loop
    vertex -2.897777478867205 0.7764571353075631 6.0
    vertex -2.897777478867205 -0.7764571353075611 6.0
    vertex -2.5980762113533165 -1.4999999999999993 6.0
  endloop
endfacet
facet normal -0.0 -0.0 1.0
  outer loop
    vertex -2.897777478867205 0.7764571353075631 6.0
    vertex -2.5980762113533165 -1.4999999999999993 6.0
    vertex -2.5980762113533156 1.500000000000001 6.0
  endloop
endfacet
facet normal -0.0 -0.0 1.0
  outer loop
    vertex -2.5980762113533156 1.500000000000001 6.0
    vertex -2.5980762113533165 -1.4999999999999993 6.0
    vertex -2.121320343559644 -2.1213203435596415 6.0
  endloop
endfacet
facet normal -0.0 -0.0 1.0
  outer loop
    vertex -2.5980762113533156 1.500000000000001 6.0
    vertex -2.121320343559644 -2.1213203435596415 6.0
    vertex -2.1213203435596424 2.121320343559643 6.0
  endloop
endfacet
facet normal -0.0 -0.0 1.0
  outer loop
    vertex -2.1213203435596424 2.121320343559643 6.0
    vertex -2.121320343559644 -2.1213203435596415 6.0
    vertex -2.1 2.571758278209442e-16 6.0
  endloop
endfacet
facet normal -0.0 -0.0 1.0
  outer loop
    vertex -2.1 2.571758278209442e-16 6.0
    vertex -2.121320343559644 -2.1213203435596415 6.0
    vertex -2.028444235207044 -0.5435199947152928 6.0
  endloop
endfacet
facet normal -0.0 -0.0 1.0
  outer loop
    vertex -2.028444235207044 -0.5435199947152928 6.0
    vertex -2.121320343559644 -2.1213203435596415 6.0
    vertex -1.5000000000000016 -2.5980762113533156 6.0
  endloop
endfacet
facet normal -0.0 -0.0 1.0
  outer loop
    vertex -2.028444235207044 -0.5435199947152928 6.0
    vertex -1.5000000000000016 -2.5980762113533156 6.0
    vertex -1.8186533479473215 -1.0499999999999994 6.0
  endloop
endfacet
facet normal -0.0 -0.0 1.0
  outer loop
    vertex -1.8186533479473215 -1.0499999999999994 6.0
    vertex -1.5000000000000016 -2.5980762113533156 6.0
    vertex -1.4849242404917506 -1.484924240491749 6.0
  endloop
endfacet
facet normal -0.0 -0.0 1.0
  outer loop
    vertex -1.4849242404917506 -1.484924240491749 6.0
    vertex -1.5000000000000016 -2.5980762113533156 6.0
    vertex -0.7764571353075644 -2.8977774788672046 6.0
  endloop
endfacet
facet normal -0.0 -0.0 1.0
  outer loop
    vertex -1.4849242404917506 -1.484924240491749 6.0
    vertex -0.7764571353075644 -2.8977774788672046 6.0
    vertex -1.050000000000001 -1.8186533479473208 6.0
  endloop
endfacet
facet normal -0.0 -0.0 1.0
  outer loop
    vertex -1.050000000000001 -1.8186533479473208 6.0
    vertex -0.7764571353075644 -2.8977774788672046 6.0
    vertex -0.5435199947152951 -2.028444235207043 6.0
  endloop
endfacet
facet normal -0.0 -0.0 1.0
  outer loop
    vertex -0.5435199947152951 -2.028444235207043 6.0
    vertex -0.7764571353075644 -2.8977774788672046 6.0
    vertex -5.51091059616309e-16 -3.0 6.0
  endloop
endfacet
facet normal -0.0 -0.0 1.0
  outer loop
    vertex -0.5435199947152951 -2.028444235207043 6.0
    vertex -5.51091059616309e-16 -3.0 6.0
    vertex -3.857637417314162e-16 -2.1 6.0
  endloop
endfacet
facet normal -0.0 -0.0 1.0
  outer loop
    vertex -3.857637417314162e-16 -2.1 6.0
    vertex -5.51091059616309e-16 -3.0 6.0
    vertex 0.7764571353075609 -2.897777478867205 6.0
  endloop
endfacet
facet normal -0.0 -0.0 1.0
  outer loop
    vertex -3.857637417314162e-16 -2.1 6.0
    vertex 0.7764571353075609 -2.897777478867205 6.0
    vertex 0.5435199947152926 -2.028444235207044 6.0
  endloop
endfacet
facet normal -0.0 -0.0 1.0
  outer loop
    vertex 0.5435199947152926 -2.028444235207044 6.0
    vertex 0.7764571353075609 -2.897777478867205 6.0
    vertex 1.0499999999999985 -1.8186533479473221 6.0
  endloop
endfacet
facet normal -0.0 -0.0 1.0
  outer loop
    vertex 1.0499999999999985 -1.8186533479473221 6.0
    vertex 0.7764571353075609 -2.897777478867205 6.0
    vertex 1.499999999999998 -2.5980762113533173 6.0
  endloop
endfacet
facet normal -0.0 -0.0 1.0
  outer loop
    vertex 1.0499999999999985 -1.8186533479473221 6.0
    vertex 1.499999999999998 -2.5980762113533173 6.0
    vertex 1.4849242404917498 -1.4849242404917502 6.0
  endloop
endfacet
facet normal -0.0 -0.0 1.0
  outer loop
    vertex 1.4849242404917498 -1.4849242404917502 6.0
    vertex 1.499999999999998 -2.5980762113533173 6.0
    vertex 1.8186533479473208 -1.050000000000001 6.0
  endloop
endfacet
facet normal -0.0 -0.0 1.0
  outer loop
    vertex 1.8186533479473208 -1.050000000000001 6.0
    vertex 1.499999999999998 -2.5980762113533173 6.0
    vertex 2.1213203435596424 -2.1213203435596433 6.0
  endloop
endfacet
facet normal -0.0 -0.0 1.0
  outer loop
    vertex 1.8186533479473208 -1.050000000000001 6.0
    vertex 2.1213203435596424 -2.1213203435596433 6.0
    vertex 2.028444235207043 -0.5435199947152951 6.0
  endloop
endfacet
facet normal -0.0 -0.0 1.0
  outer loop
    vertex 2.028444235207043 -0.5435199947152951 6.0
    vertex 2.1213203435596424 -2.1213203435596433 6.0
    vertex 2.1 0.0 6.0
  endloop
endfacet
facet normal -0.0 -0.0 1.0
  outer loop
    vertex -2.1213203435596424 2.121320343559643 6.0
    vertex -2.0284442352070435 0.5435199947152942 6.0
    vertex -1.4999999999999993 2.5980762113533165 6.0
  endloop
endfacet
facet normal -0.0 -0.0 1.0
  outer loop
    vertex -2.0284442352070435 0.5435199947152942 6.0
    vertex -2.1213203435596424 2.121320343559643 6.0
    vertex -2.1 2.571758278209442e-16 6.0
  endloop
endfacet
facet normal -0.0 -0.0 1.0
  outer loop
    vertex -1.4999999999999993 2.5980762113533165 6.0
    vertex -2.0284442352070435 0.5435199947152942 6.0
    vertex -1.8186533479473208 1.0500000000000007 6.0
  endloop
endfacet
facet normal -0.0 -0.0 1.0
  outer loop
    vertex -1.4999999999999993 2.5980762113533165 6.0
    vertex -1.8186533479473208 1.0500000000000007 6.0
    vertex -1.4849242404917498 1.48492424049175 6.0
  endloop
endfacet
facet normal -0.0 -0.0 1.0
  outer loop
    vertex -1.4999999999999993 2.5980762113533165 6.0
    vertex -1.4849242404917498 1.48492424049175 6.0
    vertex -0.776457135307562 2.897777478867205 6.0
  endloop
endfacet
facet normal -0.0 -0.0 1.0
  outer loop
    vertex -0.776457135307562 2.897777478867205 6.0
    vertex -1.4849242404917498 1.48492424049175 6.0
    vertex -1.0499999999999994 1.8186533479473215 6.0
  endloop
endfacet
facet normal -0.0 -0.0 1.0
  outer loop
    vertex -0.776457135307562 2.897777478867205 6.0
    vertex -1.0499999999999994 1.8186533479473215 6.0
    vertex -0.5435199947152933 2.0284442352070435 6.0
  endloop
endfacet
facet normal -0.0 -0.0 1.0
  outer loop
    vertex -0.776457135307562 2.897777478867205 6.0
    vertex -0.5435199947152933 2.0284442352070435 6.0
    vertex 1.83697019872103e-16 3.0 6.0
  endloop
endfacet
facet normal -0.0 -0.0 1.0
  outer loop
    vertex 1.83697019872103e-16 3.0 6.0
    vertex -0.5435199947152933 2.0284442352070435 6.0
    vertex 1.285879139104721e-16 2.1 6.0
  endloop
endfacet
facet normal -0.0 -0.0 1.0
  outer loop
    vertex 1.83697019872103e-16 3.0 6.0
    vertex 1.285879139104721e-16 2.1 6.0
    vertex 0.543519994715294 2.0284442352070435 6.0
  endloop
endfacet
facet normal -0.0 -0.0 1.0
  outer loop
    vertex 1.83697019872103e-16 3.0 6.0
    vertex 0.543519994715294 2.0284442352070435 6.0
    vertex 0.7764571353075629 2.897777478867205 6.0
  endloop
endfacet
facet normal -0.0 -0.0 1.0
  outer loop
    vertex 0.7764571353075629 2.897777478867205 6.0
    vertex 0.543519994715294 2.0284442352070435 6.0
    vertex 1.0500000000000003 1.818653347947321 6.0
  endloop
endfacet
facet normal -0.0 -0.0 1.0
  outer loop
    vertex 0.7764571353075629 2.897777478867205 6.0
    vertex 1.0500000000000003 1.818653347947321 6.0
    vertex 1.5000000000000004 2.5980762113533156 6.0
  endloop
endfacet
facet normal -0.0 -0.0 1.0
  outer loop
    vertex 1.5000000000000004 2.5980762113533156 6.0
    vertex 1.0500000000000003 1.818653347947321 6.0
    vertex 1.48492424049175 1.4849242404917498 6.0
  endloop
endfacet
facet normal -0.0 -0.0 1.0
  outer loop
    vertex 1.5000000000000004 2.5980762113533156 6.0
    vertex 1.48492424049175 1.4849242404917498 6.0
    vertex 1.8186533479473215 1.0499999999999998 6.0
  endloop
endfacet
facet normal -0.0 -0.0 1.0
  outer loop
    vertex 1.5000000000000004 2.5980762113533156 6.0
    vertex 1.8186533479473215 1.0499999999999998 6.0
    vertex 2.121320343559643 2.1213203435596424 6.0
  endloop
endfacet
facet normal -0.0 -0.0 1.0
  outer loop
    vertex 2.121320343559643 2.1213203435596424 6.0
    vertex 1.8186533479473215 1.0499999999999998 6.0
    vertex 2.0284442352070435 0.5435199947152936 6.0
  endloop
endfacet
facet normal -0.0 -0.0 1.0
  outer loop
    vertex 2.121320343559643 2.1213203435596424 6.0
    vertex 2.0284442352070435 0.5435199947152936 6.0
    vertex 2.1 0.0 6.0
  endloop
endfacet
facet normal -0.0 -0.0 1.0
  outer loop
    vertex 2.121320343559643 2.1213203435596424 6.0
    vertex 2.1 0.0 6.0
    vertex 2.1213203435596424 -2.1213203435596433 6.0
  endloop
endfacet
facet normal -0.0 -0.0 1.0
  outer loop
    vertex 2.121320343559643 2.1213203435596424 6.0
    vertex 2.1213203435596424 -2.1213203435596433 6.0
    vertex 2.5980762113533156 -1.5000000000000016 6.0
  endloop
endfacet
facet normal -0.0 -0.0 1.0
  outer loop
    vertex 2.121320343559643 2.1213203435596424 6.0
    vertex 2.5980762113533156 -1.5000000000000016 6.0
    vertex 2.598076211353316 1.5 6.0
  endloop
endfacet
facet normal -0.0 -0.0 1.0
  outer loop
    vertex 2.598076211353316 1.5 6.0
    vertex 2.5980762113533156 -1.5000000000000016 6.0
    vertex 2.8977774788672046 -0.7764571353075645 6.0
  endloop
endfacet
facet normal -0.0 -0.0 1.0
  outer loop
    vertex 2.598076211353316 1.5 6.0
    vertex 2.8977774788672046 -0.7764571353075645 6.0
    vertex 2.897777478867205 0.7764571353075622 6.0
  endloop
endfacet
facet normal -0.0 -0.0 1.0
  outer loop
    vertex 2.897777478867205 0.7764571353075622 6.0
    vertex 2.8977774788672046 -0.7764571353075645 6.0
    vertex 3.0 0.0 6.0
  endloop
endfacet
facet normal -0.6087614290087201 0.7933533402912356 0.0
  outer loop
    vertex 1.0499999999999985 -1.8186533479473221 6.0
    vertex 1.4849242404917498 -1.4849242404917502 0.0
    vertex 1.0499999999999985 -1.8186533479473221 0.0
  endloop
endfacet
facet normal -0.6087614290087201 0.7933533402912356 0.0
  outer loop
    vertex 1.4849242404917498 -1.4849242404917502 0.0
    vertex 1.0499999999999985 -1.8186533479473221 6.0
    vertex 1.4849242404917498 -1.4849242404917502 6.0
  endloop
endfacet
facet normal 0.7933533402912353 -0.6087614290087208 0.0
  outer loop
    vertex 2.5980762113533156 -1.5000000000000016 1.9999999999999998
    vertex 2.1213203435596424 -2.1213203435596433 6.0
    vertex 2.1213203435596424 -2.1213203435596433 1.9999999999999998
  endloop
endfacet
facet normal 0.7933533402912353 -0.6087614290087208 0.0
  outer loop
    vertex 2.1213203435596424 -2.1213203435596433 6.0
    vertex 2.5980762113533156 -1.5000000000000016 1.9999999999999998
    vertex 2.5980762113533156 -1.5000000000000016 6.0
  endloop
endfacet
facet normal -0.7933533402912352 -0.6087614290087208 -0.0
  outer loop
    vertex 1.48492424049175 1.4849242404917498 6.0
    vertex 1.8186533479473215 1.0499999999999998 0.0
    vertex 1.8186533479473215 1.0499999999999998 6.0
  endloop
endfacet
facet normal -0.7933533402912352 -0.6087614290087208 -0.0
  outer loop
    vertex 1.8186533479473215 1.0499999999999998 0.0
    vertex 1.48492424049175 1.4849242404917498 6.0
    vertex 1.48492424049175 1.4849242404917498 0.0
  endloop
endfacet
facet normal 0.9914448613738104 0.1305261922200513 0.0
  outer loop
    vertex 2.897777478867205 0.7764571353075622 1.9999999999999998
    vertex 3.0 0.0 6.0
    vertex 3.0 0.0 1.9999999999999998
  endloop
endfacet
facet normal 0.9914448613738104 0.1305261922200513 0.0
  outer loop
    vertex 3.0 0.0 6.0
    vertex 2.897777478867205 0.7764571353075622 1.9999999999999998
    vertex 2.897777478867205 0.7764571353075622 6.0
  endloop
endfacet
facet normal 0.13052619222005124 -0.9914448613738105 0.0
  outer loop
    vertex 1.035276180410081 -3.8637033051562732 1.9999999999999998
    vertex -7.347880794884119e-16 -3.9999999999999996 0.0
    vertex 1.035276180410081 -3.8637033051562732 0.0
  endloop
endfacet
facet normal 0.13052619222005124 -0.9914448613738105 0.0
  outer loop
    vertex -7.347880794884119e-16 -3.9999999999999996 0.0
    vertex 1.035276180410081 -3.8637033051562732 1.9999999999999998
    vertex -7.347880794884119e-16 -3.9999999999999996 1.9999999999999998
  endloop
endfacet
facet normal 0.3826834323650903 0.9238795325112867 0.0
  outer loop
    vertex 1.0352761804100838 3.863703305156273 1.9999999999999998
    vertex 2.0 3.464101615137754 0.0
    vertex 1.0352761804100838 3.863703305156273 0.0
  endloop
endfacet
facet normal 0.3826834323650903 0.9238795325112867 0.0
  outer loop
    vertex 2.0 3.464101615137754 0.0
    vertex 1.0352761804100838 3.863703305156273 1.9999999999999998
    vertex 2.0 3.464101615137754 1.9999999999999998
  endloop
endfacet
facet normal 0.9238795325112868 0.38268343236508956 0.0
  outer loop
    vertex 3.4641016151377544 1.9999999999999996 0.0
    vertex 3.863703305156273 1.035276180410083 1.9999999999999998
    vertex 3.863703305156273 1.035276180410083 0.0
  endloop
endfacet
facet normal 0.9238795325112868 0.38268343236508956 0.0
  outer loop
    vertex 3.863703305156273 1.035276180410083 1.9999999999999998
    vertex 3.4641016151377544 1.9999999999999996 0.0
    vertex 3.4641016151377544 1.9999999999999996 1.9999999999999998
  endloop
endfacet
facet normal -0.13052619222005216 -0.9914448613738104 -0.0
  outer loop
    vertex -7.347880794884119e-16 -3.9999999999999996 1.9999999999999998
    vertex -1.0352761804100858 -3.863703305156272 0.0
    vertex -7.347880794884119e-16 -3.9999999999999996 0.0
  endloop
endfacet
facet normal -0.13052619222005216 -0.9914448613738104 -0.0
  outer loop
    vertex -1.0352761804100858 -3.863703305156272 0.0
    vertex -7.347880794884119e-16 -3.9999999999999996 1.9999999999999998
    vertex -1.0352761804100858 -3.863703305156272 1.9999999999999998
  endloop
endfacet
facet normal 0.38268343236508917 -0.923879532511287 0.0
  outer loop
    vertex 1.9999999999999971 -3.464101615137756 1.9999999999999998
    vertex 1.035276180410081 -3.8637033051562732 0.0
    vertex 1.9999999999999971 -3.464101615137756 0.0
  endloop
endfacet
facet normal 0.38268343236508917 -0.923879532511287 0.0
  outer loop
    vertex 1.035276180410081 -3.8637033051562732 0.0
    vertex 1.9999999999999971 -3.464101615137756 1.9999999999999998
    vertex 1.035276180410081 -3.8637033051562732 1.9999999999999998
  endloop
endfacet
facet normal 0.7933533402912354 -0.6087614290087207 0.0
  outer loop
    vertex 3.464101615137753 -2.0000000000000018 0.0
    vertex 2.82842712474619 -2.8284271247461903 1.9999999999999998
    vertex 2.82842712474619 -2.8284271247461903 0.0
  endloop
endfacet
facet normal 0.7933533402912354 -0.6087614290087207 0.0
  outer loop
    vertex 2.82842712474619 -2.8284271247461903 1.9999999999999998
    vertex 3.464101615137753 -2.0000000000000018 0.0
    vertex 3.464101615137753 -2.0000000000000018 1.9999999999999998
  endloop
endfacet
facet normal 0.13052619222005166 0.9914448613738104 0.0
  outer loop
    vertex 2.449293598294706e-16 3.9999999999999996 1.9999999999999998
    vertex 1.0352761804100838 3.863703305156273 0.0
    vertex 2.449293598294706e-16 3.9999999999999996 0.0
  endloop
endfacet
facet normal 0.13052619222005166 0.9914448613738104 0.0
  outer loop
    vertex 1.0352761804100838 3.863703305156273 0.0
    vertex 2.449293598294706e-16 3.9999999999999996 1.9999999999999998
    vertex 1.0352761804100838 3.863703305156273 1.9999999999999998
  endloop
endfacet
facet normal -0.6087614290087209 -0.7933533402912349 -0.0
  outer loop
    vertex -2.0000000000000018 -3.464101615137753 1.9999999999999998
    vertex -2.8284271247461916 -2.8284271247461885 0.0
    vertex -2.0000000000000018 -3.464101615137753 0.0
  endloop
endfacet
facet normal -0.6087614290087209 -0.7933533402912349 -0.0
  outer loop
    vertex -2.8284271247461916 -2.8284271247461885 0.0
    vertex -2.0000000000000018 -3.464101615137753 1.9999999999999998
    vertex -2.8284271247461916 -2.8284271247461885 1.9999999999999998
  endloop
endfacet
facet normal 0.7933533402912353 0.6087614290087205 0.0
  outer loop
    vertex 2.8284271247461903 2.82842712474619 0.0
    vertex 3.4641016151377544 1.9999999999999996 1.9999999999999998
    vertex 3.4641016151377544 1.9999999999999996 0.0
  endloop
endfacet
facet normal 0.7933533402912353 0.6087614290087205 0.0
  outer loop
    vertex 3.4641016151377544 1.9999999999999996 1.9999999999999998
    vertex 2.8284271247461903 2.82842712474619 0.0
    vertex 2.8284271247461903 2.82842712474619 1.9999999999999998
  endloop
endfacet
facet normal 0.9914448613738104 -0.13052619222005205 0.0
  outer loop
    vertex 3.9999999999999996 0.0 0.0
    vertex 3.863703305156272 -1.035276180410086 1.9999999999999998
    vertex 3.863703305156272 -1.035276180410086 0.0
  endloop
endfacet
facet normal 0.9914448613738104 -0.13052619222005205 0.0
  outer loop
    vertex 3.863703305156272 -1.035276180410086 1.9999999999999998
    vertex 3.9999999999999996 0.0 0.0
    vertex 3.9999999999999996 0.0 1.9999999999999998
  endloop
endfacet
facet normal -0.9238795325112871 -0.38268343236508934 -0.0
  outer loop
    vertex -3.8637033051562732 -1.0352761804100814 1.9999999999999998
    vertex -3.4641016151377553 -1.999999999999999 0.0
    vertex -3.4641016151377553 -1.999999999999999 1.9999999999999998
  endloop
endfacet
facet normal -0.9238795325112871 -0.38268343236508934 -0.0
  outer loop
    vertex -3.4641016151377553 -1.999999999999999 0.0
    vertex -3.8637033051562732 -1.0352761804100814 1.9999999999999998
    vertex -3.8637033051562732 -1.0352761804100814 0.0
  endloop
endfacet
facet normal 0.9914448613738104 0.13052619222005174 0.0
  outer loop
    vertex 3.863703305156273 1.035276180410083 0.0
    vertex 3.9999999999999996 0.0 1.9999999999999998
    vertex 3.9999999999999996 0.0 0.0
  endloop
endfacet
facet normal 0.9914448613738104 0.13052619222005174 0.0
  outer loop
    vertex 3.9999999999999996 0.0 1.9999999999999998
    vertex 3.863703305156273 1.035276180410083 0.0
    vertex 3.863703305156273 1.035276180410083 1.9999999999999998
  endloop
endfacet
facet normal -0.38268343236508906 0.9238795325112871 0.0
  outer loop
    vertex -1.999999999999999 3.4641016151377553 1.9999999999999998
    vertex -1.0352761804100825 3.863703305156273 0.0
    vertex -1.999999999999999 3.4641016151377553 0.0
  endloop
endfacet
facet normal -0.38268343236508906 0.9238795325112871 0.0
  outer loop
    vertex -1.0352761804100825 3.863703305156273 0.0
    vertex -1.999999999999999 3.4641016151377553 1.9999999999999998
    vertex -1.0352761804100825 3.863703305156273 1.9999999999999998
  endloop
endfacet
facet normal -0.9238795325112867 0.3826834323650899 0.0
  outer loop
    vertex -3.464101615137754 2.0000000000000013 1.9999999999999998
    vertex -3.863703305156273 1.035276180410084 0.0
    vertex -3.863703305156273 1.035276180410084 1.9999999999999998
  endloop
endfacet
facet normal -0.9238795325112867 0.3826834323650899 0.0
  outer loop
    vertex -3.863703305156273 1.035276180410084 0.0
    vertex -3.464101615137754 2.0000000000000013 1.9999999999999998
    vertex -3.464101615137754 2.0000000000000013 0.0
  endloop
endfacet
facet normal 0.6087614290087205 0.7933533402912353 0.0
  outer loop
    vertex 2.0 3.464101615137754 1.9999999999999998
    vertex 2.8284271247461903 2.82842712474619 0.0
    vertex 2.0 3.464101615137754 0.0
  endloop
endfacet
facet normal 0.6087614290087205 0.7933533402912353 0.0
  outer loop
    vertex 2.8284271247461903 2.82842712474619 0.0
    vertex 2.0 3.464101615137754 1.9999999999999998
    vertex 2.8284271247461903 2.82842712474619 1.9999999999999998
  endloop
endfacet
facet normal -0.1305261922200518 0.9914448613738104 0.0
  outer loop
    vertex -1.0352761804100825 3.863703305156273 1.9999999999999998
    vertex 2.449293598294706e-16 3.9999999999999996 0.0
    vertex -1.0352761804100825 3.863703305156273 0.0
  endloop
endfacet
facet normal -0.1305261922200518 0.9914448613738104 0.0
  outer loop
    vertex 2.449293598294706e-16 3.9999999999999996 0.0
    vertex -1.0352761804100825 3.863703305156273 1.9999999999999998
    vertex 2.449293598294706e-16 3.9999999999999996 1.9999999999999998
  endloop
endfacet
facet normal -0.9914448613738104 0.13052619222005168 0.0
  outer loop
    vertex -3.863703305156273 1.035276180410084 1.9999999999999998
    vertex -3.9999999999999996 4.898587196589412e-16 0.0
    vertex -3.9999999999999996 4.898587196589412e-16 1.9999999999999998
  endloop
endfacet
facet normal -0.9914448613738104 0.13052619222005168 0.0
  outer loop
    vertex -3.9999999999999996 4.898587196589412e-16 0.0
    vertex -3.863703305156273 1.035276180410084 1.9999999999999998
    vertex -3.863703305156273 1.035276180410084 0.0
  endloop
endfacet
facet normal -0.7933533402912349 0.608761429008721 0.0
  outer loop
    vertex -2.82842712474619 2.8284271247461903 1.9999999999999998
    vertex -3.464101615137754 2.0000000000000013 0.0
    vertex -3.464101615137754 2.0000000000000013 1.9999999999999998
  endloop
endfacet
facet normal -0.7933533402912349 0.608761429008721 0.0
  outer loop
    vertex -3.464101615137754 2.0000000000000013 0.0
    vertex -2.82842712474619 2.8284271247461903 1.9999999999999998
    vertex -2.82842712474619 2.8284271247461903 0.0
  endloop
endfacet
facet normal -0.6087614290087207 0.793353340291235 0.0
  outer loop
    vertex -2.82842712474619 2.8284271247461903 1.9999999999999998
    vertex -1.999999999999999 3.4641016151377553 0.0
    vertex -2.82842712474619 2.8284271247461903 0.0
  endloop
endfacet
facet normal -0.6087614290087207 0.793353340291235 0.0
  outer loop
    vertex -1.999999999999999 3.4641016151377553 0.0
    vertex -2.82842712474619 2.8284271247461903 1.9999999999999998
    vertex -1.999999999999999 3.4641016151377553 1.9999999999999998
  endloop
endfacet
facet normal -0.0 -0.0 1.0
  outer loop
    vertex -3.8637033051562732 -1.0352761804100814 1.9999999999999998
    vertex -3.863703305156273 1.035276180410084 1.9999999999999998
    vertex -3.9999999999999996 4.898587196589412e-16 1.9999999999999998
  endloop
endfacet
facet normal -0.0 -0.0 1.0
  outer loop
    vertex -3.863703305156273 1.035276180410084 1.9999999999999998
    vertex -3.8637033051562732 -1.0352761804100814 1.9999999999999998
    vertex -3.4641016151377553 -1.999999999999999 1.9999999999999998
  endloop
endfacet
facet normal -0.0 -0.0 1.0
  outer loop
    vertex -3.863703305156273 1.035276180410084 1.9999999999999998
    vertex -3.4641016151377553 -1.999999999999999 1.9999999999999998
    vertex -3.464101615137754 2.0000000000000013 1.9999999999999998
  endloop
endfacet
facet normal -0.0 -0.0 1.0
  outer loop
    vertex -3.464101615137754 2.0000000000000013 1.9999999999999998
    vertex -3.4641016151377553 -1.999999999999999 1.9999999999999998
    vertex -2.8284271247461916 -2.8284271247461885 1.9999999999999998
  endloop
endfacet
facet normal -0.0 -0.0 1.0
  outer loop
    vertex -3.464101615137754 2.0000000000000013 1.9999999999999998
    vertex -2.8284271247461916 -2.8284271247461885 1.9999999999999998
    vertex -3.0 3.67394039744206e-16 1.9999999999999998
  endloop
endfacet
facet normal -0.0 -0.0 1.0
  outer loop
    vertex -3.0 3.67394039744206e-16 1.9999999999999998
    vertex -2.8284271247461916 -2.8284271247461885 1.9999999999999998
    vertex -2.897777478867205 -0.7764571353075611 1.9999999999999998
  endloop
endfacet
facet normal -0.0 -0.0 1.0
  outer loop
    vertex -2.897777478867205 -0.7764571353075611 1.9999999999999998
    vertex -2.8284271247461916 -2.8284271247461885 1.9999999999999998
    vertex -2.5980762113533165 -1.4999999999999993 1.9999999999999998
  endloop
endfacet
facet normal -0.0 -0.0 1.0
  outer loop
    vertex -2.5980762113533165 -1.4999999999999993 1.9999999999999998
    vertex -2.8284271247461916 -2.8284271247461885 1.9999999999999998
    vertex -2.0000000000000018 -3.464101615137753 1.9999999999999998
  endloop
endfacet
facet normal -0.0 -0.0 1.0
  outer loop
    vertex -2.5980762113533165 -1.4999999999999993 1.9999999999999998
    vertex -2.0000000000000018 -3.464101615137753 1.9999999999999998
    vertex -2.121320343559644 -2.1213203435596415 1.9999999999999998
  endloop
endfacet
facet normal -0.0 -0.0 1.0
  outer loop
    vertex -2.121320343559644 -2.1213203435596415 1.9999999999999998
    vertex -2.0000000000000018 -3.464101615137753 1.9999999999999998
    vertex -1.5000000000000016 -2.5980762113533156 1.9999999999999998
  endloop
endfacet
facet normal -0.0 -0.0 1.0
  outer loop
    vertex -1.5000000000000016 -2.5980762113533156 1.9999999999999998
    vertex -2.0000000000000018 -3.464101615137753 1.9999999999999998
    vertex -1.0352761804100858 -3.863703305156272 1.9999999999999998
  endloop
endfacet
facet normal -0.0 -0.0 1.0
  outer loop
    vertex -1.5000000000000016 -2.5980762113533156 1.9999999999999998
    vertex -1.0352761804100858 -3.863703305156272 1.9999999999999998
    vertex -0.7764571353075644 -2.8977774788672046 1.9999999999999998
  endloop
endfacet
facet normal -0.0 -0.0 1.0
  outer loop
    vertex -0.7764571353075644 -2.8977774788672046 1.9999999999999998
    vertex -1.0352761804100858 -3.863703305156272 1.9999999999999998
    vertex -7.347880794884119e-16 -3.9999999999999996 1.9999999999999998
  endloop
endfacet
facet normal -0.0 -0.0 1.0
  outer loop
    vertex -0.7764571353075644 -2.8977774788672046 1.9999999999999998
    vertex -7.347880794884119e-16 -3.9999999999999996 1.9999999999999998
    vertex -5.51091059616309e-16 -3.0 1.9999999999999998
  endloop
endfacet
facet normal -0.0 -0.0 1.0
  outer loop
    vertex -5.51091059616309e-16 -3.0 1.9999999999999998
    vertex -7.347880794884119e-16 -3.9999999999999996 1.9999999999999998
    vertex 1.035276180410081 -3.8637033051562732 1.9999999999999998
  endloop
endfacet
facet normal -0.0 -0.0 1.0
  outer loop
    vertex -5.51091059616309e-16 -3.0 1.9999999999999998
    vertex 1.035276180410081 -3.8637033051562732 1.9999999999999998
    vertex 0.7764571353075609 -2.897777478867205 1.9999999999999998
  endloop
endfacet
facet normal -0.0 -0.0 1.0
  outer loop
    vertex 0.7764571353075609 -2.897777478867205 1.9999999999999998
    vertex 1.035276180410081 -3.8637033051562732 1.9999999999999998
    vertex 1.499999999999998 -2.5980762113533173 1.9999999999999998
  endloop
endfacet
facet normal -0.0 -0.0 1.0
  outer loop
    vertex 1.499999999999998 -2.5980762113533173 1.9999999999999998
    vertex 1.035276180410081 -3.8637033051562732 1.9999999999999998
    vertex 1.9999999999999971 -3.464101615137756 1.9999999999999998
  endloop
endfacet
facet normal -0.0 -0.0 1.0
  outer loop
    vertex 1.499999999999998 -2.5980762113533173 1.9999999999999998
    vertex 1.9999999999999971 -3.464101615137756 1.9999999999999998
    vertex 2.1213203435596424 -2.1213203435596433 1.9999999999999998
  endloop
endfacet
facet normal -0.0 -0.0 1.0
  outer loop
    vertex 2.1213203435596424 -2.1213203435596433 1.9999999999999998
    vertex 1.9999999999999971 -3.464101615137756 1.9999999999999998
    vertex 2.82842712474619 -2.8284271247461903 1.9999999999999998
  endloop
endfacet
facet normal -0.0 -0.0 1.0
  outer loop
    vertex 2.1213203435596424 -2.1213203435596433 1.9999999999999998
    vertex 2.82842712474619 -2.8284271247461903 1.9999999999999998
    vertex 2.5980762113533156 -1.5000000000000016 1.9999999999999998
  endloop
endfacet
facet normal -0.0 -0.0 1.0
  outer loop
    vertex 2.5980762113533156 -1.5000000000000016 1.9999999999999998
    vertex 2.82842712474619 -2.8284271247461903 1.9999999999999998
    vertex 2.8977774788672046 -0.7764571353075645 1.9999999999999998
  endloop
endfacet
facet normal -0.0 -0.0 1.0
  outer loop
    vertex 2.8977774788672046 -0.7764571353075645 1.9999999999999998
    vertex 2.82842712474619 -2.8284271247461903 1.9999999999999998
    vertex 3.464101615137753 -2.0000000000000018 1.9999999999999998
  endloop
endfacet
facet normal -0.0 -0.0 1.0
  outer loop
    vertex 2.8977774788672046 -0.7764571353075645 1.9999999999999998
    vertex 3.464101615137753 -2.0000000000000018 1.9999999999999998
    vertex 3.0 0.0 1.9999999999999998
  endloop
endfacet
facet normal -0.0 -0.0 1.0
  outer loop
    vertex -3.0 3.67394039744206e-16 1.9999999999999998
    vertex -2.82842712474619 2.8284271247461903 1.9999999999999998
    vertex -3.464101615137754 2.0000000000000013 1.9999999999999998
  endloop
endfacet
facet normal -0.0 -0.0 1.0
  outer loop
    vertex -2.82842712474619 2.8284271247461903 1.9999999999999998
    vertex -3.0 3.67394039744206e-16 1.9999999999999998
    vertex -2.897777478867205 0.7764571353075631 1.9999999999999998
  endloop
endfacet
facet normal -0.0 -0.0 1.0
  outer loop
    vertex -2.82842712474619 2.8284271247461903 1.9999999999999998
    vertex -2.897777478867205 0.7764571353075631 1.9999999999999998
    vertex -2.5980762113533156 1.500000000000001 1.9999999999999998
  endloop
endfacet
facet normal -0.0 -0.0 1.0
  outer loop
    vertex -2.82842712474619 2.8284271247461903 1.9999999999999998
    vertex -2.5980762113533156 1.500000000000001 1.9999999999999998
    vertex -1.999999999999999 3.4641016151377553 1.9999999999999998
  endloop
endfacet
facet normal -0.0 -0.0 1.0
  outer loop
    vertex -1.999999999999999 3.4641016151377553 1.9999999999999998
    vertex -2.5980762113533156 1.500000000000001 1.9999999999999998
    vertex -2.1213203435596424 2.121320343559643 1.9999999999999998
  endloop
endfacet
facet normal -0.0 -0.0 1.0
  outer loop
    vertex -1.999999999999999 3.4641016151377553 1.9999999999999998
    vertex -2.1213203435596424 2.121320343559643 1.9999999999999998
    vertex -1.4999999999999993 2.5980762113533165 1.9999999999999998
  endloop
endfacet
facet normal -0.0 -0.0 1.0
  outer loop
    vertex -1.999999999999999 3.4641016151377553 1.9999999999999998
    vertex -1.4999999999999993 2.5980762113533165 1.9999999999999998
    vertex -1.0352761804100825 3.863703305156273 1.9999999999999998
  endloop
endfacet
facet normal -0.0 -0.0 1.0
  outer loop
    vertex -1.0352761804100825 3.863703305156273 1.9999999999999998
    vertex -1.4999999999999993 2.5980762113533165 1.9999999999999998
    vertex -0.776457135307562 2.897777478867205 1.9999999999999998
  endloop
endfacet
facet normal -0.0 -0.0 1.0
  outer loop
    vertex -1.0352761804100825 3.863703305156273 1.9999999999999998
    vertex -0.776457135307562 2.897777478867205 1.9999999999999998
    vertex 2.449293598294706e-16 3.9999999999999996 1.9999999999999998
  endloop
endfacet
facet normal -0.0 -0.0 1.0
  outer loop
    vertex 2.449293598294706e-16 3.9999999999999996 1.9999999999999998
    vertex -0.776457135307562 2.897777478867205 1.9999999999999998
    vertex 1.83697019872103e-16 3.0 1.9999999999999998
  endloop
endfacet
facet normal -0.0 -0.0 1.0
  outer loop
    vertex 2.449293598294706e-16 3.9999999999999996 1.9999999999999998
    vertex 1.83697019872103e-16 3.0 1.9999999999999998
    vertex 0.7764571353075629 2.897777478867205 1.9999999999999998
  endloop
endfacet
facet normal -0.0 -0.0 1.0
  outer loop
    vertex 2.449293598294706e-16 3.9999999999999996 1.9999999999999998
    vertex 0.7764571353075629 2.897777478867205 1.9999999999999998
    vertex 1.0352761804100838 3.863703305156273 1.9999999999999998
  endloop
endfacet
facet normal -0.0 -0.0 1.0
  outer loop
    vertex 1.0352761804100838 3.863703305156273 1.9999999999999998
    vertex 0.7764571353075629 2.897777478867205 1.9999999999999998
    vertex 1.5000000000000004 2.5980762113533156 1.9999999999999998
  endloop
endfacet
facet normal -0.0 -0.0 1.0
  outer loop
    vertex 1.0352761804100838 3.863703305156273 1.9999999999999998
    vertex 1.5000000000000004 2.5980762113533156 1.9999999999999998
    vertex 2.0 3.464101615137754 1.9999999999999998
  endloop
endfacet
facet normal -0.0 -0.0 1.0
  outer loop
    vertex 2.0 3.464101615137754 1.9999999999999998
    vertex 1.5000000000000004 2.5980762113533156 1.9999999999999998
    vertex 2.121320343559643 2.1213203435596424 1.9999999999999998
  endloop
endfacet
facet normal -0.0 -0.0 1.0
  outer loop
    vertex 2.0 3.464101615137754 1.9999999999999998
    vertex 2.121320343559643 2.1213203435596424 1.9999999999999998
    vertex 2.8284271247461903 2.82842712474619 1.9999999999999998
  endloop
endfacet
facet normal -0.0 -0.0 1.0
  outer loop
    vertex 2.8284271247461903 2.82842712474619 1.9999999999999998
    vertex 2.121320343559643 2.1213203435596424 1.9999999999999998
    vertex 2.598076211353316 1.5 1.9999999999999998
  endloop
endfacet
facet normal -0.0 -0.0 1.0
  outer loop
    vertex 2.8284271247461903 2.82842712474619 1.9999999999999998
    vertex 2.598076211353316 1.5 1.9999999999999998
    vertex 2.897777478867205 0.7764571353075622 1.9999999999999998
  endloop
endfacet
facet normal -0.0 -0.0 1.0
  outer loop
    vertex 2.8284271247461903 2.82842712474619 1.9999999999999998
    vertex 2.897777478867205 0.7764571353075622 1.9999999999999998
    vertex 3.4641016151377544 1.9999999999999996 1.9999999999999998
  endloop
endfacet
facet normal -0.0 -0.0 1.0
  outer loop
    vertex 3.4641016151377544 1.9999999999999996 1.9999999999999998
    vertex 2.897777478867205 0.7764571353075622 1.9999999999999998
    vertex 3.0 0.0 1.9999999999999998
  endloop
endfacet
facet normal -0.0 -0.0 1.0
  outer loop
    vertex 3.4641016151377544 1.9999999999999996 1.9999999999999998
    vertex 3.0 0.0 1.9999999999999998
    vertex 3.464101615137753 -2.0000000000000018 1.9999999999999998
  endloop
endfacet
facet normal -0.0 -0.0 1.0
  outer loop
    vertex 3.4641016151377544 1.9999999999999996 1.9999999999999998
    vertex 3.464101615137753 -2.0000000000000018 1.9999999999999998
    vertex 3.863703305156272 -1.035276180410086 1.9999999999999998
  endloop
endfacet
facet normal -0.0 -0.0 1.0
  outer loop
    vertex 3.4641016151377544 1.9999999999999996 1.9999999999999998
    vertex 3.863703305156272 -1.035276180410086 1.9999999999999998
    vertex 3.863703305156273 1.035276180410083 1.9999999999999998
  endloop
endfacet
facet normal -0.0 -0.0 1.0
  outer loop
    vertex 3.863703305156273 1.035276180410083 1.9999999999999998
    vertex 3.863703305156272 -1.035276180410086 1.9999999999999998
    vertex 3.9999999999999996 0.0 1.9999999999999998
  endloop
endfacet
facet normal 0.9238795325112865 -0.38268343236509045 0.0
  outer loop
    vertex 3.863703305156272 -1.035276180410086 0.0
    vertex 3.464101615137753 -2.0000000000000018 1.9999999999999998
    vertex 3.464101615137753 -2.0000000000000018 0.0
  endloop
endfacet
facet normal 0.9238795325112865 -0.38268343236509045 0.0
  outer loop
    vertex 3.464101615137753 -2.0000000000000018 1.9999999999999998
    vertex 3.863703305156272 -1.035276180410086 0.0
    vertex 3.863703305156272 -1.035276180410086 1.9999999999999998
  endloop
endfacet
facet normal -0.9914448613738106 -0.13052619222005124 -0.0
  outer loop
    vertex -3.9999999999999996 4.898587196589412e-16 1.9999999999999998
    vertex -3.8637033051562732 -1.0352761804100814 0.0
    vertex -3.8637033051562732 -1.0352761804100814 1.9999999999999998
  endloop
endfacet
facet normal -0.9914448613738106 -0.13052619222005124 -0.0
  outer loop
    vertex -3.8637033051562732 -1.0352761804100814 0.0
    vertex -3.9999999999999996 4.898587196589412e-16 1.9999999999999998
    vertex -3.9999999999999996 4.898587196589412e-16 0.0
  endloop
endfacet
facet normal -0.7933533402912354 -0.6087614290087205 -0.0
  outer loop
    vertex -3.4641016151377553 -1.999999999999999 1.9999999999999998
    vertex -2.8284271247461916 -2.8284271247461885 0.0
    vertex -2.8284271247461916 -2.8284271247461885 1.9999999999999998
  endloop
endfacet
facet normal -0.7933533402912354 -0.6087614290087205 -0.0
  outer loop
    vertex -2.8284271247461916 -2.8284271247461885 0.0
    vertex -3.4641016151377553 -1.999999999999999 1.9999999999999998
    vertex -3.4641016151377553 -1.999999999999999 0.0
  endloop
endfacet
facet normal 0.6087614290087201 -0.7933533402912357 0.0
  outer loop
    vertex 2.82842712474619 -2.8284271247461903 1.9999999999999998
    vertex 1.9999999999999971 -3.464101615137756 0.0
    vertex 2.82842712474619 -2.8284271247461903 0.0
  endloop
endfacet
facet normal 0.6087614290087201 -0.7933533402912357 0.0
  outer loop
    vertex 1.9999999999999971 -3.464101615137756 0.0
    vertex 2.82842712474619 -2.8284271247461903 1.9999999999999998
    vertex 1.9999999999999971 -3.464101615137756 1.9999999999999998
  endloop
endfacet
facet normal -0.3826834323650904 -0.9238795325112865 -0.0
  outer loop
    vertex -1.0352761804100858 -3.863703305156272 1.9999999999999998
    vertex -2.0000000000000018 -3.464101615137753 0.0
    vertex -1.0352761804100858 -3.863703305156272 0.0
  endloop
endfacet
facet normal -0.3826834323650904 -0.9238795325112865 -0.0
  outer loop
    vertex -2.0000000000000018 -3.464101615137753 0.0
    vertex -1.0352761804100858 -3.863703305156272 1.9999999999999998
    vertex -2.0000000000000018 -3.464101615137753 1.9999999999999998
  endloop
endfacet
facet normal 0.6087614290087211 0.7933533402912347 0.0
  outer loop
    vertex -1.4849242404917506 -1.484924240491749 6.0
    vertex -1.050000000000001 -1.8186533479473208 0.0
    vertex -1.4849242404917506 -1.484924240491749 0.0
  endloop
endfacet
facet normal 0.6087614290087211 0.7933533402912347 0.0
  outer loop
    vertex -1.050000000000001 -1.8186533479473208 0.0
    vertex -1.4849242404917506 -1.484924240491749 6.0
    vertex -1.050000000000001 -1.8186533479473208 6.0
  endloop
endfacet
facet normal -0.6087614290087208 -0.7933533402912352 -0.0
  outer loop
    vertex 1.48492424049175 1.4849242404917498 6.0
    vertex 1.0500000000000003 1.818653347947321 0.0
    vertex 1.48492424049175 1.4849242404917498 0.0
  endloop
endfacet
facet normal -0.6087614290087208 -0.7933533402912352 -0.0
  outer loop
    vertex 1.0500000000000003 1.818653347947321 0.0
    vertex 1.48492424049175 1.4849242404917498 6.0
    vertex 1.0500000000000003 1.818653347947321 6.0
  endloop
endfacet
facet normal 0.9238795325112866 -0.38268343236509034 0.0
  outer loop
    vertex -1.8186533479473208 1.0500000000000007 0.0
    vertex -2.0284442352070435 0.5435199947152942 6.0
    vertex -2.0284442352070435 0.5435199947152942 0.0
  endloop
endfacet
facet normal 0.9238795325112866 -0.38268343236509034 0.0
  outer loop
    vertex -2.0284442352070435 0.5435199947152942 6.0
    vertex -1.8186533479473208 1.0500000000000007 0.0
    vertex -1.8186533479473208 1.0500000000000007 6.0
  endloop
endfacet
facet normal 0.923879532511287 0.3826834323650897 0.0
  outer loop
    vertex -2.028444235207044 -0.5435199947152928 0.0
    vertex -1.8186533479473215 -1.0499999999999994 6.0
    vertex -1.8186533479473215 -1.0499999999999994 0.0
  endloop
endfacet
facet normal 0.923879532511287 0.3826834323650897 0.0
  outer loop
    vertex -1.8186533479473215 -1.0499999999999994 6.0
    vertex -2.028444235207044 -0.5435199947152928 0.0
    vertex -2.028444235207044 -0.5435199947152928 6.0
  endloop
endfacet
facet normal 0.7933533402912356 0.6087614290087203 0.0
  outer loop
    vertex -1.8186533479473215 -1.0499999999999994 0.0
    vertex -1.4849242404917506 -1.484924240491749 6.0
    vertex -1.4849242404917506 -1.484924240491749 0.0
  endloop
endfacet
facet normal 0.7933533402912356 0.6087614290087203 0.0
  outer loop
    vertex -1.4849242404917506 -1.484924240491749 6.0
    vertex -1.8186533479473215 -1.0499999999999994 0.0
    vertex -1.8186533479473215 -1.0499999999999994 6.0
  endloop
endfacet
facet normal -0.13052619222005155 -0.9914448613738106 -0.0
  outer loop
    vertex 0.543519994715294 2.0284442352070435 6.0
    vertex 1.285879139104721e-16 2.1 0.0
    vertex 0.543519994715294 2.0284442352070435 0.0
  endloop
endfacet
facet normal -0.13052619222005155 -0.9914448613738106 -0.0
  outer loop
    vertex 1.285879139104721e-16 2.1 0.0
    vertex 0.543519994715294 2.0284442352070435 6.0
    vertex 1.285879139104721e-16 2.1 6.0
  endloop
endfacet
facet normal -0.9238795325112871 -0.38268343236508945 -0.0
  outer loop
    vertex -2.897777478867205 -0.7764571353075611 6.0
    vertex -2.5980762113533165 -1.4999999999999993 1.9999999999999998
    vertex -2.5980762113533165 -1.4999999999999993 6.0
  endloop
endfacet
facet normal -0.9238795325112871 -0.38268343236508945 -0.0
  outer loop
    vertex -2.5980762113533165 -1.4999999999999993 1.9999999999999998
    vertex -2.897777478867205 -0.7764571353075611 6.0
    vertex -2.897777478867205 -0.7764571353075611 1.9999999999999998
  endloop
endfacet
facet normal -0.38268343236508917 0.9238795325112872 0.0
  outer loop
    vertex 0.5435199947152926 -2.028444235207044 6.0
    vertex 1.0499999999999985 -1.8186533479473221 0.0
    vertex 0.5435199947152926 -2.028444235207044 0.0
  endloop
endfacet
facet normal -0.38268343236508917 0.9238795325112872 0.0
  outer loop
    vertex 1.0499999999999985 -1.8186533479473221 0.0
    vertex 0.5435199947152926 -2.028444235207044 6.0
    vertex 1.0499999999999985 -1.8186533479473221 6.0
  endloop
endfacet
facet normal -0.9914448613738105 0.13052619222005188 0.0
  outer loop
    vertex 2.1 0.0 6.0
    vertex 2.028444235207043 -0.5435199947152951 0.0
    vertex 2.028444235207043 -0.5435199947152951 6.0
  endloop
endfacet
facet normal -0.9914448613738105 0.13052619222005188 0.0
  outer loop
    vertex 2.028444235207043 -0.5435199947152951 0.0
    vertex 2.1 0.0 6.0
    vertex 2.1 0.0 0.0
  endloop
endfacet
facet normal 0.6087614290087199 -0.7933533402912358 0.0
  outer loop
    vertex 2.1213203435596424 -2.1213203435596433 6.0
    vertex 1.499999999999998 -2.5980762113533173 1.9999999999999998
    vertex 2.1213203435596424 -2.1213203435596433 1.9999999999999998
  endloop
endfacet
facet normal 0.6087614290087199 -0.7933533402912358 0.0
  outer loop
    vertex 1.499999999999998 -2.5980762113533173 1.9999999999999998
    vertex 2.1213203435596424 -2.1213203435596433 6.0
    vertex 1.499999999999998 -2.5980762113533173 6.0
  endloop
endfacet
facet normal 0.6087614290087205 0.7933533402912353 0.0
  outer loop
    vertex 1.5000000000000004 2.5980762113533156 6.0
    vertex 2.121320343559643 2.1213203435596424 1.9999999999999998
    vertex 1.5000000000000004 2.5980762113533156 1.9999999999999998
  endloop
endfacet
facet normal 0.6087614290087205 0.7933533402912353 0.0
  outer loop
    vertex 2.121320343559643 2.1213203435596424 1.9999999999999998
    vertex 1.5000000000000004 2.5980762113533156 6.0
    vertex 2.121320343559643 2.1213203435596424 6.0
  endloop
endfacet
facet normal 0.9238795325112867 0.38268343236509006 0.0
  outer loop
    vertex 2.598076211353316 1.5 1.9999999999999998
    vertex 2.897777478867205 0.7764571353075622 6.0
    vertex 2.897777478867205 0.7764571353075622 1.9999999999999998
  endloop
endfacet
facet normal 0.9238795325112867 0.38268343236509006 0.0
  outer loop
    vertex 2.897777478867205 0.7764571353075622 6.0
    vertex 2.598076211353316 1.5 1.9999999999999998
    vertex 2.598076211353316 1.5 6.0
  endloop
endfacet
facet normal -0.9914448613738106 -0.13052619222005146 -0.0
  outer loop
    vertex -3.0 3.67394039744206e-16 6.0
    vertex -2.897777478867205 -0.7764571353075611 1.9999999999999998
    vertex -2.897777478867205 -0.7764571353075611 6.0
  endloop
endfacet
facet normal -0.9914448613738106 -0.13052619222005146 -0.0
  outer loop
    vertex -2.897777478867205 -0.7764571353075611 1.9999999999999998
    vertex -3.0 3.67394039744206e-16 6.0
    vertex -3.0 3.67394039744206e-16 1.9999999999999998
  endloop
endfacet
endsolid Untitled-56d477e6
