# Alias OBJ Model File
# Exported from SketchUp, (c) 2000-2012 Trimble Navigation Limited
# File units = millimeters

mtllib Universal Joint Core.mtl

g Mesh1 Model

usemtl FrontColor
v 7.1 4.51195e-14 3.4641
vt 0.279528 0.136382
vn -4.02536e-14 -1 2.92802e-14
v 5.05 0 0.645448
vt 0.198819 0.0254113
v 6.05 0 0.645448
vt 0.238189 0.0254113
f 1/1/1 2/2/1 3/3/1

v 5.15 3.60956e-13 1.47224
vt 0.202756 0.0579623
f 2/2/1 1/1/1 4/4/1

v 6.3 9.02389e-14 3.4641
vt 0.248031 0.136382
f 4/4/1 1/1/1 5/5/1

v 6.05 -2.25597e-13 6.28275
vt 0.238189 0.247353
vn 4.67623e-14 -1 -9.13465e-14
f 6/6/2 5/5/2 1/1/2

v 5.15 -2.25597e-13 5.45596
vt 0.202756 0.214802
f 5/5/2 6/6/2 7/7/2

v 5.05 -2.25597e-13 5.45596
vt 0.198819 0.214802
f 7/7/2 6/6/2 8/8/2

v 5.05 -2.25597e-13 6.28275
vt 0.198819 0.247353
f 8/8/2 6/6/2 9/9/2

v 6.05 14 6.28275
vt 0.238189 0.551181
vn -1.0047e-18 9.33287e-17 1
vt 0.198819 -8.90487e-15
vt 0.238189 -8.90487e-15
f 10/10/3 9/11/3 6/12/3

v 5.05 14 6.28275
vt 0.198819 0.551181
f 11/13/3 9/11/3 10/10/3

v 2.95 -2.25597e-13 6.28275
vt 0.116142 -8.90487e-15
f 11/13/3 12/14/3 9/11/3

v 2.95 14 6.28275
vt 0.116142 0.551181
f 13/15/3 12/14/3 11/13/3

v 1.95 14 6.28275
vt 0.0767717 0.551181
f 14/16/3 12/14/3 13/15/3

v 1.95 -2.25597e-13 6.28275
vt 0.0767717 -8.90487e-15
f 14/16/3 15/17/3 12/14/3

v 0.475 11.525 6.28275
vt 0.0187008 0.45374
f 16/18/3 15/17/3 14/16/3

v 0.475 2.475 6.28275
vt 0.0187008 0.0974409
f 16/18/3 17/19/3 15/17/3

v -1 9.05 6.28275
vt -0.0393701 0.356299
f 18/20/3 17/19/3 16/18/3

v -1 8.05 6.28275
vt -0.0393701 0.316929
f 19/21/3 17/19/3 18/20/3

v -1 5.95 6.28275
vt -0.0393701 0.234252
f 20/22/3 17/19/3 19/21/3

v -1 4.95 6.28275
vt -0.0393701 0.194882
f 17/19/3 20/22/3 21/23/3

v -1 5.85 5.45596
vt -0.230315 0.214802
vn -1 2.39964e-15 1.14321e-15
vt -0.194882 0.247353
vt -0.234252 0.247353
f 22/24/4 21/25/4 20/26/4

v -1 4.7 3.4641
vt -0.185039 0.136382
f 23/27/4 21/25/4 22/24/4

v -1 3.9 3.4641
vt -0.153543 0.136382
f 21/25/4 23/27/4 24/28/4

vn -1 -4.56258e-15 5.38137e-15
v -1 4.95 0.645448
vt -0.194882 0.0254113
f 23/27/5 25/29/5 24/28/5

v -1 5.85 1.47224
vt -0.230315 0.0579623
f 25/29/5 23/27/5 26/30/5

v 3.3 4.7 3.4641
vt -0.129921 0.0255906
vn 9.41728e-15 0.866025 0.5
vt 0.0393701 -0.0649606
vt 0.0393701 0.0255906
f 27/31/6 26/32/6 23/33/6

v 3.3 5.85 1.47224
vt -0.129921 -0.0649606
f 26/32/6 27/31/6 28/34/6

v 3.3 5.85 5.45596
vn -1 9.4277e-15 9.20235e-15
f 29/24/7 28/30/7 27/27/7

v 3.3 5.95 5.45596
vt -0.234252 0.214802
f 28/30/7 29/24/7 30/35/7

vt 0.0393701 0.230315
vn -5.97307e-15 -6.73754e-28 -1
vt -0.129921 0.234252
vt -0.129921 0.230315
f 22/36/8 30/37/8 29/38/8

v -1 5.95 5.45596
vt 0.0393701 0.234252
f 30/37/8 22/36/8 31/39/8

f 22/24/4 20/26/4 31/35/4

vt -0.316929 0.247353
vn -1 1.79045e-15 -6.45347e-15
f 19/40/9 31/35/9 20/26/9

v -1 8.05 5.45596
vt -0.316929 0.214802
f 31/35/9 19/40/9 32/41/9

vt -0.356299 0.247353
vn -1 -2.23387e-15 -9.78746e-15
f 18/42/10 32/41/10 19/40/10

v -1 8.15 5.45596
vt -0.320866 0.214802
f 32/41/10 18/42/10 33/43/10

v -1 9.3 3.4641
vt -0.366142 0.136382
f 33/43/10 18/42/10 34/44/10

v -1 10.1 3.4641
vt -0.397638 0.136382
f 34/44/10 18/42/10 35/45/10

vt -0.399346 0.202468
vn -0.843813 0.502878 0.187331
vt -0.321424 0.0894975
vt -0.285913 0.202468
f 16/46/11 35/47/11 18/48/11

v 0.9 14 3.4641
vt -0.511025 0.0817053
vn -0.872349 0.42499 0.241641
vt -0.340229 0.0817053
vt -0.416098 0.196065
f 36/49/12 35/50/12 16/51/12

vt -0.511025 0.182975
vn -0.872349 0.42499 -0.241641
v 0.475 11.525 0.645448
vt -0.416098 0.0686159
vt -0.340229 0.182975
f 36/52/13 37/53/13 35/54/13

v 1.95 14 0.645448
vt -0.512778 0.0901024
vn -0.818152 0.487585 -0.304776
vt -0.399346 0.0901024
vt -0.491615 0.206616
f 38/55/14 37/56/14 36/57/14

v 2.95 8.05 0.645448
vt -0.116142 0.316929
vn 1.61456e-17 1.67343e-18 -1
vt -0.0187008 0.45374
vt -0.0767717 0.551181
f 39/58/15 37/59/15 38/60/15

v -1 8.05 0.645448
vt 0.0393701 0.316929
f 40/61/15 37/59/15 39/58/15

v -1 9.05 0.645448
vt 0.0393701 0.356299
f 37/59/15 40/61/15 41/62/15

vt -0.316929 0.0254113
vn -1 -8.15962e-15 1.95409e-14
v -1 8.15 1.47224
vt -0.320866 0.0579623
vt -0.356299 0.0254113
f 40/63/16 42/64/16 41/65/16

v -1 8.05 1.47224
vt -0.316929 0.0579623
f 42/64/16 40/63/16 43/66/16

v -1 5.95 0.645448
vt -0.234252 0.0254113
vn -1 8.95227e-15 1.58864e-14
f 44/67/17 43/66/17 40/63/17

v -1 5.95 1.47224
vt -0.234252 0.0579623
f 43/66/17 44/67/17 45/68/17

f 44/67/5 26/30/5 45/68/5

f 25/29/5 26/30/5 44/67/5

v 2.95 5.95 0.645448
vt -0.116142 0.234252
vt 0.0393701 0.194882
f 46/69/15 25/70/15 44/39/15

v 0.475 2.475 0.645448
vt -0.0187008 0.0974409
f 25/70/15 46/69/15 47/71/15

v 1.95 0 0.645448
vt -0.0767717 4.25241e-20
f 47/71/15 46/69/15 48/72/15

v 2.95 0 0.645448
vt -0.116142 4.25241e-20
f 48/72/15 46/69/15 49/73/15

v 6.05 14 0.645448
vt -0.238189 0.551181
f 46/69/15 50/74/15 49/73/15

f 39/58/15 50/74/15 46/69/15

f 39/58/15 38/60/15 50/74/15

vt -0.0767717 0.0254113
vn -2.17973e-14 1 2.42084e-14
v 2.85 14 1.47224
vt -0.112205 0.0579623
vt -0.238189 0.0254113
f 38/75/18 51/76/18 50/77/18

vt -0.0354331 0.136382
f 51/76/18 38/75/18 36/78/18

v 1.7 14 3.4641
vt -0.0669291 0.136382
f 51/76/18 36/78/18 52/79/18

vt -0.0767717 0.247353
vn 1.99717e-15 1 -6.69251e-15
f 14/80/19 52/79/19 36/78/19

v 2.85 14 5.45596
vt -0.112205 0.214802
f 52/79/19 14/80/19 53/81/19

vt -0.116142 0.247353
f 13/82/19 53/81/19 14/80/19

v 2.95 14 5.45596
vt -0.116142 0.214802
f 53/81/19 13/82/19 54/83/19

vt -0.198819 0.247353
vn -3.58091e-14 1 6.35457e-14
f 11/84/20 54/83/20 13/82/20

v 5.05 14 5.45596
vt -0.198819 0.214802
f 54/83/20 11/84/20 55/85/20

vn 3.87679e-14 1 5.7362e-14
v 5.15 14 5.45596
vt -0.202756 0.214802
f 11/84/21 56/86/21 55/85/21

vt -0.238189 0.247353
f 10/87/21 56/86/21 11/84/21

v 7.1 14 3.4641
vt -0.279528 0.136382
f 57/88/21 56/86/21 10/87/21

v 6.3 14 3.4641
vt -0.248031 0.136382
f 56/86/21 57/88/21 58/89/21

v 5.15 14 1.47224
vt -0.202756 0.0579623
f 57/88/18 59/90/18 58/89/18

f 59/90/18 57/88/18 50/77/18

vt 0.330374 0.289076
vn 0.818152 0.487585 -0.304776
v 7.525 11.525 0.645448
vt 0.238104 0.172562
vt 0.351537 0.172562
f 57/91/22 60/92/22 50/93/22

vt 0.373082 0.251395
vn 0.872349 0.42499 -0.241641
v 9 10.1 3.4641
vt 0.202286 0.251395
vt 0.278155 0.137036
f 57/94/23 61/95/23 60/96/23

vt 0.373082 0.0132854
vn 0.872349 0.42499 0.241641
v 7.525 11.525 6.28275
vt 0.278155 0.127645
vt 0.202286 0.0132854
f 57/97/24 62/98/24 61/99/24

vt 0.330374 -0.029289
vn 0.818152 0.487585 0.304776
vt 0.351537 0.0872249
vt 0.238104 0.0872249
f 57/100/25 10/101/25 62/102/25

vt 0.29626 0.45374
f 10/10/3 6/12/3 62/103/3

v 7.525 2.475 6.28275
vt 0.29626 0.0974409
f 62/103/3 6/12/3 63/104/3

vt 0.235371 0.173224
vn 0.818152 -0.487585 0.304776
vt 0.121939 0.173224
vt 0.143102 0.0567106
f 63/105/26 6/106/26 1/107/26

v 9 3.9 3.4641
vt 0.29322 0.0716177
vn 0.872349 -0.42499 0.241641
vt 0.217351 0.185977
vt 0.122425 0.0716177
f 64/108/27 63/109/27 1/110/27

v 9 4.95 6.28275
vt 0.348804 0.204644
vn 0.843813 -0.502878 0.187331
vt 0.235371 0.204644
vt 0.313293 0.0916733
f 65/111/28 63/112/28 64/113/28

v 9 9.05 6.28275
vt 0.354331 0.356299
vt 0.354331 0.194882
f 66/114/3 63/104/3 65/115/3

f 62/103/3 63/104/3 66/114/3

vt 0.238104 0.151784
vn 0.843813 0.502878 0.187331
vt 0.124672 0.151784
vt 0.160182 0.0388136
f 62/116/29 66/117/29 61/118/29

vt 0.356299 0.247353
vn 1 -1.24572e-14 -2.85912e-15
v 9 9.3 3.4641
vt 0.366142 0.136382
vt 0.397638 0.136382
f 66/119/30 67/120/30 61/121/30

v 9 8.15 5.45596
vt 0.320866 0.214802
f 66/119/30 68/122/30 67/120/30

v 9 8.05 6.28275
vt 0.316929 0.247353
f 69/123/30 68/122/30 66/119/30

v 9 8.05 5.45596
vt 0.316929 0.214802
f 68/122/30 69/123/30 70/124/30

v 9 5.95 6.28275
vt 0.234252 0.247353
vn 1 7.16182e-15 -1.2025e-14
f 71/125/31 70/124/31 69/123/31

v 9 5.95 5.45596
vt 0.234252 0.214802
f 70/124/31 71/125/31 72/126/31

vn 1 4.06329e-15 7.0545e-15
v 9 5.85 5.45596
vt 0.230315 0.214802
f 71/125/32 73/127/32 72/126/32

vt 0.194882 0.247353
f 65/128/32 73/127/32 71/125/32

v 9 4.7 3.4641
vt 0.185039 0.136382
f 65/128/32 74/129/32 73/127/32

vt 0.153543 0.136382
f 74/129/32 65/128/32 64/130/32

v 9 4.95 0.645448
vt 0.194882 0.0254113
vn 1 -5.06426e-15 -9.01398e-15
f 75/131/33 74/129/33 64/130/33

v 9 5.85 1.47224
vt 0.230315 0.0579623
f 74/129/33 75/131/33 76/132/33

v 9 5.95 0.645448
vt 0.234252 0.0254113
f 76/132/33 75/131/33 77/133/33

v 7.525 2.475 0.645448
vt -0.29626 0.0974409
vt -0.354331 0.234252
vt -0.354331 0.194882
f 78/134/15 77/135/15 75/136/15

vt -0.238189 4.25241e-20
f 3/137/15 77/135/15 78/134/15

vt -0.198819 4.25241e-20
f 2/138/15 77/135/15 3/137/15

v 5.05 5.95 0.645448
vt -0.198819 0.234252
f 2/138/15 79/139/15 77/135/15

f 49/73/15 79/139/15 2/138/15

v 5.05 8.05 0.645448
vt -0.198819 0.316929
f 79/139/15 49/73/15 80/140/15

f 49/73/15 50/74/15 80/140/15

v 9 8.05 0.645448
vt -0.354331 0.316929
f 80/140/15 50/74/15 81/141/15

vt -0.29626 0.45374
f 81/141/15 50/74/15 60/142/15

v 9 9.05 0.645448
vt -0.354331 0.356299
f 81/141/15 60/142/15 82/143/15

vt 0.238104 0.116151
vn 0.843813 0.502878 -0.187331
vt 0.160182 0.229122
vt 0.124672 0.116151
f 60/144/34 61/145/34 82/146/34

vn 1 5.79787e-15 -1.05984e-15
vt 0.356299 0.0254113
f 67/120/35 82/147/35 61/121/35

v 9 8.15 1.47224
vt 0.320866 0.0579623
f 83/148/35 82/147/35 67/120/35

v 9 8.05 1.47224
vt 0.316929 0.0579623
f 84/149/35 82/147/35 83/148/35

vt 0.316929 0.0254113
f 82/147/35 84/149/35 81/150/35

v 9 5.95 1.47224
vt 0.234252 0.0579623
vn 1 1.79045e-15 -1.2466e-14
f 85/151/36 81/150/36 84/149/36

f 81/150/36 85/151/36 77/133/36

f 76/132/33 77/133/33 85/151/33

vt 0.354331 0.234252
vn -9.36244e-15 1.05749e-14 1
v 4.7 5.85 1.47224
vt 0.185039 0.230315
vt 0.354331 0.230315
f 85/152/37 86/153/37 76/154/37

v 4.7 5.95 1.47224
vt 0.185039 0.234252
f 86/153/37 85/152/37 87/155/37

vn -9.36244e-15 9.56774e-15 1
v 4.7 8.05 1.47224
vt 0.185039 0.316929
f 85/152/38 88/156/38 87/155/38

vt 0.354331 0.316929
f 88/156/38 85/152/38 84/157/38

v 4.7 8.15 1.47224
vt 0.185039 0.320866
f 84/157/37 89/158/37 88/156/37

vt 0.354331 0.320866
f 89/158/37 84/157/37 83/159/37

vt 0.354331 0.21063
vn 4.12926e-16 -0.866025 0.5
v 4.7 9.3 3.4641
vt 0.185039 0.301181
vt 0.185039 0.21063
f 83/160/39 90/161/39 89/162/39

vt 0.354331 0.301181
f 90/161/39 83/160/39 67/163/39

vt 0.354331 -0.0649606
vn 9.77536e-15 -0.866025 -0.5
v 4.7 8.15 5.45596
vt 0.185039 0.0255906
vt 0.185039 -0.0649606
f 67/164/40 91/165/40 90/166/40

vt 0.354331 0.0255906
f 91/165/40 67/164/40 68/167/40

vt -0.354331 0.320866
vn 9.36244e-15 -7.04992e-15 -1
v 4.7 8.05 5.45596
vt -0.185039 0.316929
vt -0.185039 0.320866
f 68/168/41 92/169/41 91/170/41

f 92/169/41 68/168/41 70/141/41

vn 9.36244e-15 -9.06418e-15 -1
v 4.7 5.95 5.45596
vt -0.185039 0.234252
f 70/141/42 93/171/42 92/169/42

f 93/171/42 70/141/42 72/135/42

vt -0.354331 0.230315
f 73/172/41 93/171/41 72/135/41

v 4.7 5.85 5.45596
vt -0.185039 0.230315
f 93/171/41 73/172/41 94/173/41

vt -0.354331 0.21063
vn -4.12926e-16 0.866025 -0.5
vt -0.185039 0.301181
vt -0.354331 0.301181
f 74/174/43 94/175/43 73/176/43

v 4.7 4.7 3.4641
vt -0.185039 0.21063
f 94/175/43 74/174/43 95/177/43

vt -0.354331 -0.0649606
vn -9.77536e-15 0.866025 0.5
vt -0.185039 0.0255906
vt -0.354331 0.0255906
f 76/178/44 95/179/44 74/180/44

vt -0.185039 -0.0649606
f 95/179/44 76/178/44 86/181/44

vn 1 5.00586e-15 1.1326e-14
f 86/132/45 94/127/45 95/129/45

f 94/127/45 86/132/45 87/151/45

f 94/127/45 87/151/45 93/126/45

f 93/126/45 87/151/45 88/149/45

f 93/126/45 88/149/45 92/124/45

f 92/124/45 88/149/45 89/148/45

f 92/124/45 89/148/45 91/122/45

f 91/122/45 89/148/45 90/120/45

vn 1.11549e-17 -2.09819e-17 -1
f 79/139/46 81/141/46 77/135/46

f 81/141/46 79/139/46 80/140/46

v 5.05 1.80478e-13 1.47224
vt 0.198819 0.0579623
vn 7.16182e-15 -1 6.02324e-14
vt 0.116142 0.0254113
f 96/182/47 49/183/47 2/2/47

v 2.95 1.35358e-13 1.47224
vt 0.116142 0.0579623
f 49/183/47 96/182/47 97/184/47

v 5.05 4.5 1.47224
vt 0.198819 0.177165
vn 1.46034e-14 -1.04182e-13 1
vt 0.116142 1.13677e-14
vt 0.198819 1.3144e-14
f 98/185/48 97/186/48 96/187/48

v 2.95 4.5 1.47224
vt 0.116142 0.177165
f 97/186/48 98/185/48 99/188/48

vn 1.76874e-14 -1 -1.21754e-13
v 6.3 4.5 3.4641
f 98/182/49 100/5/49 99/184/49

v 5.15 4.5 1.47224
f 100/5/49 98/182/49 101/4/49

vn 1.40998e-14 -1.04182e-13 1
vt 0.202756 0.177165
f 96/187/50 101/189/50 98/185/50

vt 0.202756 2.02495e-14
f 101/189/50 96/187/50 4/190/50

f 96/182/1 2/2/1 4/4/1

vt 1.78075e-15 0.151575
vn -0.866025 -6.83045e-14 0.5
vt -0.177165 0.242126
vt -0.177165 0.151575
f 4/191/51 100/192/51 101/193/51

vt 1.60098e-14 0.242126
f 100/192/51 4/191/51 5/194/51

vt -1.3828e-14 -0.00590551
vn -0.866025 3.58771e-14 -0.5
v 5.15 4.5 5.45596
vt -0.177165 0.0846457
vt -0.177165 -0.00590551
f 5/195/52 102/196/52 100/197/52

vt 4.82152e-16 0.0846457
f 102/196/52 5/195/52 7/198/52

vt -0.198819 1.34966e-14
vn -1.40998e-14 1.04182e-13 -1
vt -0.202756 0.177165
vt -0.202756 1.34966e-14
f 8/199/53 102/200/53 7/201/53

v 5.05 4.5 5.45596
vt -0.198819 0.177165
f 102/200/53 8/199/53 103/202/53

v 2.95 -2.25597e-13 5.45596
vt -0.116142 1.34966e-14
f 104/203/53 103/202/53 8/199/53

v 2.95 4.5 5.45596
vt -0.116142 0.177165
f 103/202/53 104/203/53 105/204/53

v 2.85 -2.70717e-13 5.45596
vt -0.112205 1.17202e-14
f 106/205/53 105/204/53 104/203/53

v 2.85 4.5 5.45596
vt -0.112205 0.177165
f 105/204/53 106/205/53 107/206/53

v 1.7 0 3.4641
vt -5.27878e-15 0.151575
vn 0.866025 6.83045e-14 -0.5
vt 0.177165 0.242126
vt -1.95079e-14 0.242126
f 108/207/54 107/208/54 106/209/54

v 1.7 4.5 3.4641
vt 0.177165 0.151575
f 107/208/54 108/207/54 109/210/54

v 2.85 3.15836e-13 1.47224
vt 1.70828e-14 -0.00590551
vn 0.866025 -3.58771e-14 0.5
vt 0.177165 0.0846457
vt 2.77269e-15 0.0846457
f 110/211/55 109/212/55 108/213/55

v 2.85 4.5 1.47224
vt 0.177165 -0.00590551
f 109/212/55 110/211/55 111/214/55

vt 0.112205 1.84731e-14
vt 0.112205 0.177165
f 110/215/50 99/188/50 111/216/50

f 99/188/50 110/215/50 97/186/50

vt 0.0767717 0.0254113
vn 3.47872e-14 -1 6.35902e-15
vt 0.112205 0.0579623
f 48/217/56 97/184/56 110/218/56

f 97/184/56 48/217/56 49/183/56

v 0.9 0 3.4641
vt 0.0354331 0.136382
f 48/217/56 110/218/56 112/219/56

vt 0.0669291 0.136382
f 112/219/56 110/218/56 108/220/56

vt 0.112205 0.214802
vn -4.06329e-14 -1 -7.0545e-14
f 106/221/57 112/219/57 108/220/57

vt 0.0767717 0.247353
f 112/219/57 106/221/57 15/222/57

vt 0.116142 0.247353
f 15/222/57 106/221/57 12/223/57

vt 0.116142 0.214802
f 12/223/57 106/221/57 104/224/57

vn 0 -1 0
f 104/224/58 9/9/58 12/223/58

f 9/9/58 104/224/58 8/8/58

vt -0.07413 0.255684
vn -0.818152 -0.487585 0.304776
vt 0.0181397 0.13917
vt 0.0393026 0.255684
f 17/225/59 112/226/59 15/227/59

vt -0.155277 0.140038
vn -0.872349 -0.42499 0.241641
vt 0.0155186 0.140038
vt -0.079408 0.254397
f 24/228/60 112/229/60 17/230/60

vt -0.155277 0.124643
vn -0.872349 -0.42499 -0.241641
vt -0.079408 0.0102835
vt 0.0155186 0.124643
f 24/231/61 47/232/61 112/233/61

vt -0.187563 0.0126073
vn -0.843813 -0.502878 -0.187331
vt -0.07413 0.0126073
vt -0.152052 0.125578
f 25/234/62 47/235/62 24/236/62

vt -0.07413 0.00410285
vn -0.818152 -0.487585 -0.304776
vt 0.0393026 0.00410285
vt 0.0181397 0.120617
f 47/237/63 48/238/63 112/239/63

vt -0.187563 0.255328
vn -0.843813 -0.502878 0.187331
vt -0.152052 0.142357
vt -0.07413 0.255328
f 21/240/64 24/241/64 17/242/64

f 99/184/49 100/5/49 111/218/49

f 111/218/49 100/5/49 109/220/49

f 109/220/49 100/5/49 102/7/49

f 109/220/49 102/7/49 103/8/49

f 109/220/49 103/8/49 105/224/49

f 109/220/49 105/224/49 107/221/49

vt 0.235371 0.0865624
vn 0.818152 -0.487585 -0.304776
vt 0.143102 0.203076
vt 0.121939 0.0865624
f 78/243/65 1/244/65 3/245/65

vt 0.29322 0.193063
vn 0.872349 -0.42499 -0.241641
vt 0.122425 0.193063
vt 0.217351 0.0787034
f 64/246/66 1/247/66 78/248/66

vt 0.348804 0.0632912
vn 0.843813 -0.502878 -0.187331
vt 0.313293 0.176262
vt 0.235371 0.0632912
f 75/249/67 64/250/67 78/251/67

f 66/114/3 65/115/3 71/152/3

f 66/114/3 71/152/3 69/157/3

f 50/77/18 51/76/18 59/90/18

v 2.85 9.5 1.47224
vt 0.112205 0.374016
vn 5.05755e-15 -1.73085e-15 1
vt 0.202756 0.551181
vt 0.112205 0.551181
f 113/252/68 59/253/68 51/254/68

v 5.15 9.5 1.47224
vt 0.202756 0.374016
f 59/253/68 113/252/68 114/255/68

vn -3.96902e-14 1 1.03327e-28
v 6.3 9.5 3.4641
f 113/76/69 115/89/69 114/90/69

v 1.7 9.5 3.4641
f 115/89/69 113/76/69 116/79/69

vt 0.374016 -0.00590551
vn 0.866025 3.51319e-14 0.5
vt 0.551181 0.0846457
vt 0.374016 0.0846457
f 113/256/70 52/257/70 116/258/70

vt 0.551181 -0.00590551
f 52/257/70 113/256/70 51/259/70

vt 0.551181 0.151575
vn 0.866025 3.68627e-14 -0.5
v 2.85 9.5 5.45596
vt 0.374016 0.242126
vt 0.374016 0.151575
f 52/260/71 117/261/71 116/262/71

vt 0.551181 0.242126
f 117/261/71 52/260/71 53/263/71

vt -0.116142 0.551181
vn -7.04992e-15 1.73085e-15 -1
vt -0.112205 0.374016
vt -0.112205 0.551181
f 54/264/72 117/265/72 53/266/72

v 2.95 9.5 5.45596
vt -0.116142 0.374016
f 117/265/72 54/264/72 118/267/72

vt -0.198819 0.551181
vn -5.37136e-15 1.73085e-15 -1
f 55/268/73 118/267/73 54/264/73

v 5.05 9.5 5.45596
vt -0.198819 0.374016
f 118/267/73 55/268/73 119/269/73

vt -0.202756 0.551181
f 56/270/72 119/269/72 55/268/72

v 5.15 9.5 5.45596
vt -0.202756 0.374016
f 119/269/72 56/270/72 120/271/72

vt -0.551181 0.0846457
vn -0.866025 -3.51319e-14 -0.5
vt -0.374016 -0.00590551
vt -0.374016 0.0846457
f 56/272/74 115/273/74 120/274/74

vt -0.551181 -0.00590551
f 115/273/74 56/272/74 58/275/74

vt -0.551181 0.151575
vn -0.866025 -3.68627e-14 0.5
vt -0.374016 0.242126
vt -0.551181 0.242126
f 59/276/75 115/277/75 58/278/75

vt -0.374016 0.151575
f 115/277/75 59/276/75 114/279/75

f 115/89/69 116/79/69 120/86/69

f 120/86/69 116/79/69 119/85/69

f 116/79/69 118/83/69 119/85/69

f 118/83/69 116/79/69 117/81/69

vt -0.491615 0.0531706
vn -0.818152 0.487585 0.304776
vt -0.399346 0.169685
vt -0.512778 0.169685
f 36/280/76 16/281/76 14/282/76

vn 0 0 -1
f 44/39/77 39/58/77 46/69/77

f 39/58/77 44/39/77 40/61/77

vt 0.129921 0.230315
vn 5.97307e-15 0 1
vt -0.0393701 0.230315
f 28/283/78 45/22/78 26/284/78

v 3.3 5.95 1.47224
vt 0.129921 0.234252
f 45/22/78 28/283/78 121/285/78

f 28/30/7 30/35/7 121/68/7

v 3.3 8.05 1.47224
f 121/68/7 30/35/7 122/66/7

v 3.3 8.05 5.45596
f 122/66/7 30/35/7 123/41/7

vn -5.97307e-15 -1.00713e-15 -1
vt -0.129921 0.316929
f 30/37/79 32/61/79 123/286/79

f 32/61/79 30/37/79 31/39/79

vt 0.0393701 0.320866
vn -5.97307e-15 1.34751e-27 -1
f 33/287/80 123/286/80 32/61/80

v 3.3 8.15 5.45596
vt -0.129921 0.320866
f 123/286/80 33/287/80 124/288/80

vt -0.0393701 -0.0649606
vn -9.41728e-15 -0.866025 -0.5
vt 0.129921 0.0255906
vt -0.0393701 0.0255906
f 34/289/81 124/290/81 33/291/81

v 3.3 9.3 3.4641
vt 0.129921 -0.0649606
f 124/290/81 34/289/81 125/292/81

vt -0.0393701 0.21063
vn -3.44421e-15 -0.866025 0.5
vt 0.129921 0.301181
vt -0.0393701 0.301181
f 42/293/82 125/294/82 34/295/82

v 3.3 8.15 1.47224
vt 0.129921 0.21063
f 125/294/82 42/293/82 126/296/82

vt -0.0393701 0.320866
vt 0.129921 0.316929
vt 0.129921 0.320866
f 42/297/78 122/298/78 126/299/78

f 122/298/78 42/297/78 43/21/78

vn 5.97307e-15 1.67855e-16 1
f 43/21/83 121/285/83 122/298/83

f 121/285/83 43/21/83 45/22/83

f 122/66/7 123/41/7 126/64/7

f 126/64/7 123/41/7 124/43/7

f 126/64/7 124/43/7 125/44/7

f 41/65/16 42/64/16 34/44/16

f 41/65/16 34/44/16 35/45/16

vt -0.399346 0.065467
vn -0.843813 0.502878 -0.187331
vt -0.285913 0.065467
vt -0.321424 0.178438
f 37/300/84 41/301/84 35/302/84

vt -0.129921 0.301181
vn 3.44421e-15 0.866025 -0.5
vt 0.0393701 0.21063
vt 0.0393701 0.301181
f 29/303/85 23/304/85 22/305/85

vt -0.129921 0.21063
f 23/304/85 29/303/85 27/306/85

