# Alias OBJ Model File
# Exported from SketchUp, (c) 2000-2012 Trimble Navigation Limited
# File units = millimeters

mtllib Universal Joint Core.mtl

g Mesh1 Model

usemtl FrontColor
v 7.1 4.51195e-14 3.4641
vt 0.279528 0.136382
vn -4.02536e-14 -1 2.92802e-14
v 5.05 0 0.645448
vt 0.198819 0.0254113
v 6.05 0 0.645448
vt 0.238189 0.0254113
f 1/1/1 2/2/1 3/3/1

v 5.15 3.60956e-13 1.47224
vt 0.202756 0.0579623
f 2/2/1 1/1/1 4/4/1

v 6.3 9.02389e-14 3.4641
vt 0.248031 0.136382
f 4/4/1 1/1/1 5/5/1

v 6.05 -2.25597e-13 6.28275
vt 0.238189 0.247353
vn 4.67623e-14 -1 -9.13465e-14
f 6/6/2 5/5/2 1/1/2

v 5.15 -2.25597e-13 5.45596
vt 0.202756 0.214802
f 5/5/2 6/6/2 7/7/2

v 5.05 -2.25597e-13 5.45596
vt 0.198819 0.214802
f 7/7/2 6/6/2 8/8/2

v 5.05 -2.25597e-13 6.28275
vt 0.198819 0.247353
f 8/8/2 6/6/2 9/9/2

v 6.05 14 6.28275
vt 0.238189 0.551181
vn -1.0047e-18 9.33287e-17 1
vt 0.198819 -8.90487e-15
vt 0.238189 -8.90487e-15
f 10/10/3 9/11/3 6/12/3

v 5.05 14 6.28275
vt 0.198819 0.551181
f 11/13/3 9/11/3 10/10/3

v 2.95 -2.25597e-13 6.28275
vt 0.116142 -8.90487e-15
f 11/13/3 12/14/3 9/11/3

v 2.95 14 6.28275
vt 0.116142 0.551181
f 13/15/3 12/14/3 11/13/3

v 1.95 14 6.28275
vt 0.0767717 0.551181
f 14/16/3 12/14/3 13/15/3

v 1.95 -2.25597e-13 6.28275
vt 0.0767717 -8.90487e-15
f 14/16/3 15/17/3 12/14/3

v 0.475 11.525 6.28275
vt 0.0187008 0.45374
f 16/18/3 15/17/3 14/16/3

v 0.475 2.475 6.28275
vt 0.0187008 0.0974409
f 16/18/3 17/19/3 15/17/3

v -1 9.05 6.28275
vt -0.0393701 0.356299
f 18/20/3 17/19/3 16/18/3

v -1 8.05 6.28275
vt -0.0393701 0.316929
f 19/21/3 17/19/3 18/20/3

v -1 5.95 6.28275
vt -0.0393701 0.234252
f 20/22/3 17/19/3 19/21/3

v -1 4.95 6.28275
vt -0.0393701 0.194882
f 17/19/3 20/22/3 21/23/3

v -1 5.85 5.45596
vt -0.230315 0.214802
vn -1 2.39964e-15 1.14321e-15
vt -0.194882 0.247353
vt -0.234252 0.247353
f 22/24/4 21/25/4 20/26/4

v -1 4.7 3.4641
vt -0.185039 0.136382
f 23/27/4 21/25/4 22/24/4

v -1 3.9 3.4641
vt -0.153543 0.136382
f 21/25/4 23/27/4 24/28/4

vn -1 -4.56258e-15 5.38137e-15
v -1 4.95 0.645448
vt -0.194882 0.0254113
f 23/27/5 25/29/5 24/28/5

v -1 5.85 1.47224
vt -0.230315 0.0579623
f 25/29/5 23/27/5 26/30/5

v 3.3 4.7 3.4641
vt -0.129921 0.0255906
vn 9.41728e-15 0.866025 0.5
vt 0.0393701 -0.0649606
vt 0.0393701 0.0255906
f 27/31/6 26/32/6 23/33/6

v 3.3 5.85 1.47224
vt -0.129921 -0.0649606
f 26/32/6 27/31/6 28/34/6

v 3.3 4.9 3.4641
vt -0.192913 0.136382
vn -1 9.4277e-15 9.20235e-15
f 29/35/7 28/30/7 27/27/7

v 3.3 5.95 1.64545
vt -0.234252 0.0647814
f 28/30/7 29/35/7 30/36/7

v 3.3 5.95 5.28275
vt -0.234252 0.207982
vn -1 1.79045e-15 1.86459e-28
f 31/37/8 30/36/8 29/35/8

v 3.3 8.05 1.64545
vt -0.316929 0.0647814
f 30/36/8 31/37/8 32/38/8

v 3.3 8.05 5.28275
vt -0.316929 0.207982
f 32/38/8 31/37/8 33/39/8

v 3.3 5.95 5.45596
vt -0.234252 0.214802
f 31/37/7 34/40/7 33/39/7

v 3.3 5.85 5.45596
f 31/37/7 35/24/7 34/40/7

f 29/35/7 35/24/7 31/37/7

f 35/24/7 29/35/7 27/27/7

vt 0.0393701 0.21063
vn 3.44421e-15 0.866025 -0.5
vt -0.129921 0.301181
vt -0.129921 0.21063
f 23/41/9 35/42/9 27/43/9

vt 0.0393701 0.301181
f 35/42/9 23/41/9 22/44/9

vt 0.0393701 0.230315
vn -5.97307e-15 -6.73754e-28 -1
vt -0.129921 0.234252
vt -0.129921 0.230315
f 22/45/10 34/46/10 35/47/10

v -1 5.95 5.45596
vt 0.0393701 0.234252
f 34/46/10 22/45/10 36/48/10

f 22/24/4 20/26/4 36/40/4

vt -0.316929 0.247353
vn -1 1.79045e-15 -6.45347e-15
f 19/49/11 36/40/11 20/26/11

v -1 8.05 5.45596
vt -0.316929 0.214802
f 36/40/11 19/49/11 37/50/11

vt -0.356299 0.247353
vn -1 -2.23387e-15 -9.78746e-15
f 18/51/12 37/50/12 19/49/12

v -1 8.15 5.45596
vt -0.320866 0.214802
f 37/50/12 18/51/12 38/52/12

v -1 9.3 3.4641
vt -0.366142 0.136382
f 38/52/12 18/51/12 39/53/12

v -1 10.1 3.4641
vt -0.397638 0.136382
f 39/53/12 18/51/12 40/54/12

vt -0.399346 0.202468
vn -0.843813 0.502878 0.187331
vt -0.321424 0.0894975
vt -0.285913 0.202468
f 16/55/13 40/56/13 18/57/13

v 0.9 14 3.4641
vt -0.511025 0.0817053
vn -0.872349 0.42499 0.241641
vt -0.340229 0.0817053
vt -0.416098 0.196065
f 41/58/14 40/59/14 16/60/14

vt -0.511025 0.182975
vn -0.872349 0.42499 -0.241641
v 0.475 11.525 0.645448
vt -0.416098 0.0686159
vt -0.340229 0.182975
f 41/61/15 42/62/15 40/63/15

v 1.95 14 0.645448
vt -0.512778 0.0901024
vn -0.818152 0.487585 -0.304776
vt -0.399346 0.0901024
vt -0.491615 0.206616
f 43/64/16 42/65/16 41/66/16

v 2.95 8.05 0.645448
vt -0.116142 0.316929
vn 0 0 -1
vt -0.0187008 0.45374
vt -0.0767717 0.551181
f 44/67/17 42/68/17 43/69/17

v -1 8.05 0.645448
vt 0.0393701 0.316929
f 45/70/17 42/68/17 44/67/17

v -1 9.05 0.645448
vt 0.0393701 0.356299
f 42/68/17 45/70/17 46/71/17

vt -0.316929 0.0254113
vn -1 -8.15962e-15 1.95409e-14
v -1 8.15 1.47224
vt -0.320866 0.0579623
vt -0.356299 0.0254113
f 45/72/18 47/73/18 46/74/18

v -1 8.05 1.47224
vt -0.316929 0.0579623
f 47/73/18 45/72/18 48/75/18

v -1 5.95 0.645448
vt -0.234252 0.0254113
vn -1 8.95227e-15 1.58864e-14
f 49/76/19 48/75/19 45/72/19

v -1 5.95 1.47224
vt -0.234252 0.0579623
f 48/75/19 49/76/19 50/77/19

f 49/76/5 26/30/5 50/77/5

f 25/29/5 26/30/5 49/76/5

v 2.95 5.95 0.645448
vt -0.116142 0.234252
vt 0.0393701 0.194882
f 51/78/17 25/79/17 49/48/17

v 0.475 2.475 0.645448
vt -0.0187008 0.0974409
f 25/79/17 51/78/17 52/80/17

v 1.95 0 0.645448
vt -0.0767717 0
f 52/80/17 51/78/17 53/81/17

v 2.95 0 0.645448
vt -0.116142 0
f 53/81/17 51/78/17 54/82/17

vn 2.51783e-17 -1.58822e-18 -1
v 5.05 14 0.645448
vt -0.198819 0.551181
vt -0.116142 -4.03588e-20
f 51/78/20 55/83/20 54/84/20

f 44/67/20 55/83/20 51/78/20

v 2.95 14 0.645448
vt -0.116142 0.551181
f 55/83/20 44/67/20 56/85/20

f 44/67/17 43/69/17 56/85/17

vt -0.0354331 0.136382
vn -2.17973e-14 1 2.42084e-14
vt -0.116142 0.0254113
vt -0.0767717 0.0254113
f 41/86/21 56/87/21 43/88/21

v 2.85 14 1.47224
vt -0.112205 0.0579623
f 56/87/21 41/86/21 57/89/21

v 1.7 14 3.4641
vt -0.0669291 0.136382
f 57/89/21 41/86/21 58/90/21

vt -0.0767717 0.247353
vn 1.99717e-15 1 -6.69251e-15
f 14/91/22 58/90/22 41/86/22

v 2.85 14 5.45596
vt -0.112205 0.214802
f 58/90/22 14/91/22 59/92/22

vt -0.116142 0.247353
f 13/93/22 59/92/22 14/91/22

v 2.95 14 5.45596
vt -0.116142 0.214802
f 59/92/22 13/93/22 60/94/22

vt -0.198819 0.247353
vn -3.58091e-14 1 6.35457e-14
f 11/95/23 60/94/23 13/93/23

v 5.05 14 5.45596
vt -0.198819 0.214802
f 60/94/23 11/95/23 61/96/23

vn 3.87679e-14 1 5.7362e-14
v 5.15 14 5.45596
vt -0.202756 0.214802
f 11/95/24 62/97/24 61/96/24

vt -0.238189 0.247353
f 10/98/24 62/97/24 11/95/24

v 7.1 14 3.4641
vt -0.279528 0.136382
f 63/99/24 62/97/24 10/98/24

v 6.3 14 3.4641
vt -0.248031 0.136382
f 62/97/24 63/99/24 64/100/24

v 5.15 14 1.47224
vt -0.202756 0.0579623
f 63/99/21 65/101/21 64/100/21

v 6.05 14 0.645448
vt -0.238189 0.0254113
f 65/101/21 63/99/21 66/102/21

vt 0.330374 0.289076
vn 0.818152 0.487585 -0.304776
v 7.525 11.525 0.645448
vt 0.238104 0.172562
vt 0.351537 0.172562
f 63/103/25 67/104/25 66/105/25

vt 0.373082 0.251395
vn 0.872349 0.42499 -0.241641
v 9 10.1 3.4641
vt 0.202286 0.251395
vt 0.278155 0.137036
f 63/106/26 68/107/26 67/108/26

vt 0.373082 0.0132854
vn 0.872349 0.42499 0.241641
v 7.525 11.525 6.28275
vt 0.278155 0.127645
vt 0.202286 0.0132854
f 63/109/27 69/110/27 68/111/27

vt 0.330374 -0.029289
vn 0.818152 0.487585 0.304776
vt 0.351537 0.0872249
vt 0.238104 0.0872249
f 63/112/28 10/113/28 69/114/28

vt 0.29626 0.45374
f 10/10/3 6/12/3 69/115/3

v 7.525 2.475 6.28275
vt 0.29626 0.0974409
f 69/115/3 6/12/3 70/116/3

vt 0.235371 0.173224
vn 0.818152 -0.487585 0.304776
vt 0.121939 0.173224
vt 0.143102 0.0567106
f 70/117/29 6/118/29 1/119/29

v 9 3.9 3.4641
vt 0.29322 0.0716177
vn 0.872349 -0.42499 0.241641
vt 0.217351 0.185977
vt 0.122425 0.0716177
f 71/120/30 70/121/30 1/122/30

v 9 4.95 6.28275
vt 0.348804 0.204644
vn 0.843813 -0.502878 0.187331
vt 0.235371 0.204644
vt 0.313293 0.0916733
f 72/123/31 70/124/31 71/125/31

v 9 9.05 6.28275
vt 0.354331 0.356299
vt 0.354331 0.194882
f 73/126/3 70/116/3 72/127/3

f 69/115/3 70/116/3 73/126/3

vt 0.238104 0.151784
vn 0.843813 0.502878 0.187331
vt 0.124672 0.151784
vt 0.160182 0.0388136
f 69/128/32 73/129/32 68/130/32

vt 0.356299 0.247353
vn 1 -1.24572e-14 -2.85912e-15
v 9 9.3 3.4641
vt 0.366142 0.136382
vt 0.397638 0.136382
f 73/131/33 74/132/33 68/133/33

v 9 8.15 5.45596
vt 0.320866 0.214802
f 73/131/33 75/134/33 74/132/33

v 9 8.05 6.28275
vt 0.316929 0.247353
f 76/135/33 75/134/33 73/131/33

v 9 8.05 5.45596
vt 0.316929 0.214802
f 75/134/33 76/135/33 77/136/33

v 9 5.95 6.28275
vt 0.234252 0.247353
vn 1 7.16182e-15 -1.2025e-14
f 78/137/34 77/136/34 76/135/34

v 9 5.95 5.45596
vt 0.234252 0.214802
f 77/136/34 78/137/34 79/138/34

vn 1 4.06329e-15 7.0545e-15
v 9 5.85 5.45596
vt 0.230315 0.214802
f 78/137/35 80/139/35 79/138/35

vt 0.194882 0.247353
f 72/140/35 80/139/35 78/137/35

v 9 4.7 3.4641
vt 0.185039 0.136382
f 72/140/35 81/141/35 80/139/35

vt 0.153543 0.136382
f 81/141/35 72/140/35 71/142/35

v 9 4.95 0.645448
vt 0.194882 0.0254113
vn 1 -5.06426e-15 -9.01398e-15
f 82/143/36 81/141/36 71/142/36

v 9 5.85 1.47224
vt 0.230315 0.0579623
f 81/141/36 82/143/36 83/144/36

v 9 5.95 0.645448
vt 0.234252 0.0254113
f 83/144/36 82/143/36 84/145/36

v 7.525 2.475 0.645448
vt -0.29626 0.0974409
vn 4.05641e-18 2.9461e-17 -1
vt -0.354331 0.234252
vt -0.354331 0.194882
f 85/146/37 84/147/37 82/148/37

vt -0.238189 7.48644e-19
f 3/149/37 84/147/37 85/146/37

vt -0.198819 7.48644e-19
f 2/150/37 84/147/37 3/149/37

v 5.05 5.95 0.645448
vt -0.198819 0.234252
f 84/147/37 2/150/37 86/151/37

vt -0.198819 -4.03588e-20
f 54/84/20 86/151/20 2/152/20

f 54/84/20 55/83/20 86/151/20

v 5.05 8.05 0.645448
vt -0.198819 0.316929
f 86/151/20 55/83/20 87/153/20

vt -0.238189 0.551181
vn 2.36601e-17 -1.69121e-17 -1
f 66/154/38 87/153/38 55/83/38

v 9 8.05 0.645448
vt -0.354331 0.316929
f 87/153/38 66/154/38 88/155/38

vt -0.29626 0.45374
f 88/155/38 66/154/38 67/156/38

v 9 9.05 0.645448
vt -0.354331 0.356299
f 88/155/38 67/156/38 89/157/38

vt 0.238104 0.116151
vn 0.843813 0.502878 -0.187331
vt 0.160182 0.229122
vt 0.124672 0.116151
f 67/158/39 68/159/39 89/160/39

vn 1 5.79787e-15 -1.05984e-15
vt 0.356299 0.0254113
f 74/132/40 89/161/40 68/133/40

v 9 8.15 1.47224
vt 0.320866 0.0579623
f 90/162/40 89/161/40 74/132/40

v 9 8.05 1.47224
vt 0.316929 0.0579623
f 91/163/40 89/161/40 90/162/40

vt 0.316929 0.0254113
f 89/161/40 91/163/40 88/164/40

v 9 5.95 1.47224
vt 0.234252 0.0579623
vn 1 1.79045e-15 -1.2466e-14
f 92/165/41 88/164/41 91/163/41

f 88/164/41 92/165/41 84/145/41

f 83/144/36 84/145/36 92/165/36

vt 0.354331 0.234252
vn -9.36244e-15 1.05749e-14 1
v 4.7 5.85 1.47224
vt 0.185039 0.230315
vt 0.354331 0.230315
f 92/166/42 93/167/42 83/168/42

v 4.7 5.95 1.47224
vt 0.185039 0.234252
f 93/167/42 92/166/42 94/169/42

vn -9.36244e-15 9.56774e-15 1
v 4.7 8.05 1.47224
vt 0.185039 0.316929
f 92/166/43 95/170/43 94/169/43

vt 0.354331 0.316929
f 95/170/43 92/166/43 91/171/43

v 4.7 8.15 1.47224
vt 0.185039 0.320866
f 91/171/42 96/172/42 95/170/42

vt 0.354331 0.320866
f 96/172/42 91/171/42 90/173/42

vt 0.354331 0.21063
vn 4.12926e-16 -0.866025 0.5
v 4.7 9.3 3.4641
vt 0.185039 0.301181
vt 0.185039 0.21063
f 90/174/44 97/175/44 96/176/44

vt 0.354331 0.301181
f 97/175/44 90/174/44 74/177/44

vt 0.354331 -0.0649606
vn 9.77536e-15 -0.866025 -0.5
v 4.7 8.15 5.45596
vt 0.185039 0.0255906
vt 0.185039 -0.0649606
f 74/178/45 98/179/45 97/180/45

vt 0.354331 0.0255906
f 98/179/45 74/178/45 75/181/45

vt -0.354331 0.320866
vn 9.36244e-15 -7.04992e-15 -1
v 4.7 8.05 5.45596
vt -0.185039 0.316929
vt -0.185039 0.320866
f 75/182/46 99/183/46 98/184/46

f 99/183/46 75/182/46 77/155/46

vn 9.36244e-15 -9.06418e-15 -1
v 4.7 5.95 5.45596
vt -0.185039 0.234252
f 77/155/47 100/185/47 99/183/47

f 100/185/47 77/155/47 79/147/47

vt -0.354331 0.230315
f 80/186/46 100/185/46 79/147/46

v 4.7 5.85 5.45596
vt -0.185039 0.230315
f 100/185/46 80/186/46 101/187/46

vt -0.354331 0.21063
vn -4.12926e-16 0.866025 -0.5
vt -0.185039 0.301181
vt -0.354331 0.301181
f 81/188/48 101/189/48 80/190/48

v 4.7 4.7 3.4641
vt -0.185039 0.21063
f 101/189/48 81/188/48 102/191/48

vt -0.354331 -0.0649606
vn -9.77536e-15 0.866025 0.5
vt -0.185039 0.0255906
vt -0.354331 0.0255906
f 83/192/49 102/193/49 81/194/49

vt -0.185039 -0.0649606
f 102/193/49 83/192/49 93/195/49

vn 1 5.00586e-15 1.1326e-14
v 4.7 4.9 3.4641
vt 0.192913 0.136382
f 93/144/50 103/196/50 102/141/50

v 4.7 5.95 1.64545
vt 0.234252 0.0647814
f 103/196/50 93/144/50 104/197/50

f 104/197/50 93/144/50 94/165/50

f 104/197/50 94/165/50 95/163/50

v 4.7 8.05 1.64545
vt 0.316929 0.0647814
f 104/197/50 95/163/50 105/198/50

f 105/198/50 95/163/50 96/162/50

v 4.7 9.1 3.4641
vt 0.358268 0.136382
f 105/198/50 96/162/50 106/199/50

f 106/199/50 96/162/50 97/132/50

f 98/134/50 106/199/50 97/132/50

f 99/136/50 106/199/50 98/134/50

v 4.7 8.05 5.28275
vt 0.316929 0.207982
f 99/136/50 107/200/50 106/199/50

f 100/138/50 107/200/50 99/136/50

v 4.7 5.95 5.28275
vt 0.234252 0.207982
f 100/138/50 108/201/50 107/200/50

f 101/139/50 108/201/50 100/138/50

f 101/139/50 103/196/50 108/201/50

f 103/196/50 101/139/50 102/141/50

vn 1 6.26659e-15 4.65174e-15
f 104/197/51 108/201/51 103/196/51

f 108/201/51 104/197/51 105/198/51

f 108/201/51 105/198/51 107/200/51

f 107/200/51 105/198/51 106/199/51

vn 1.11549e-17 -2.09819e-17 -1
f 86/151/52 88/155/52 84/147/52

f 88/155/52 86/151/52 87/153/52

vt -0.198819 0.0254113
f 55/202/21 57/89/21 66/102/21

f 56/87/21 57/89/21 55/202/21

f 66/102/21 57/89/21 65/101/21

v 2.85 10 1.47224
vt 0.112205 0.393701
vn 5.05755e-15 -1.73085e-15 1
vt 0.202756 0.551181
vt 0.112205 0.551181
f 109/203/53 65/204/53 57/205/53

v 5.15 10 1.47224
vt 0.202756 0.393701
f 65/204/53 109/203/53 110/206/53

v 5.05 10 1.64545
vt -0.198819 0.0647814
vn -3.96902e-14 1 1.0231e-28
f 111/207/54 110/101/54 109/89/54

v 6.3 10 3.4641
f 110/101/54 111/207/54 112/100/54

v 6.1 10 3.4641
vt -0.240157 0.136382
f 112/100/54 111/207/54 113/208/54

v 2.95 10 1.64545
vt -0.116142 0.0647814
vn -2.86473e-14 1 -1.24046e-14
f 114/209/55 113/208/55 111/207/55

v 1.9 10 3.4641
vt -0.0748031 0.136382
f 113/208/55 114/209/55 115/210/55

v 1.7 10 3.4641
f 114/209/54 116/90/54 115/210/54

f 114/209/54 109/89/54 116/90/54

f 109/89/54 114/209/54 111/207/54

vt 0.393701 -0.00590551
vn 0.866025 3.51319e-14 0.5
vt 0.551181 0.0846457
vt 0.393701 0.0846457
f 109/211/56 58/212/56 116/213/56

vt 0.551181 -0.00590551
f 58/212/56 109/211/56 57/214/56

vt 0.551181 0.151575
vn 0.866025 3.68627e-14 -0.5
v 2.85 10 5.45596
vt 0.393701 0.242126
vt 0.393701 0.151575
f 58/215/57 117/216/57 116/217/57

vt 0.551181 0.242126
f 117/216/57 58/215/57 59/218/57

vn -7.04992e-15 1.73085e-15 -1
vt -0.112205 0.393701
vt -0.112205 0.551181
f 60/85/58 117/219/58 59/220/58

v 2.95 10 5.45596
vt -0.116142 0.393701
f 117/219/58 60/85/58 118/221/58

vn -5.37136e-15 1.73085e-15 -1
f 61/83/59 118/221/59 60/85/59

v 5.05 10 5.45596
vt -0.198819 0.393701
f 118/221/59 61/83/59 119/222/59

vt -0.202756 0.551181
f 62/223/58 119/222/58 61/83/58

v 5.15 10 5.45596
vt -0.202756 0.393701
f 119/222/58 62/223/58 120/224/58

vt -0.551181 0.0846457
vn -0.866025 -3.51319e-14 -0.5
vt -0.393701 -0.00590551
vt -0.393701 0.0846457
f 62/225/60 112/226/60 120/227/60

vt -0.551181 -0.00590551
f 112/226/60 62/225/60 64/228/60

vt -0.551181 0.151575
vn -0.866025 -3.68627e-14 0.5
vt -0.393701 0.242126
vt -0.551181 0.242126
f 65/229/61 112/230/61 64/231/61

vt -0.393701 0.151575
f 112/230/61 65/229/61 110/232/61

v 5.05 10 5.28275
vt -0.198819 0.207982
f 112/100/54 121/233/54 120/97/54

f 112/100/54 113/208/54 121/233/54

f 113/208/55 115/210/55 121/233/55

v 2.95 10 5.28275
vt -0.116142 0.207982
f 121/233/55 115/210/55 122/234/55

f 115/210/54 117/92/54 122/234/54

f 115/210/54 116/90/54 117/92/54

f 122/234/54 117/92/54 121/233/54

f 121/233/54 117/92/54 118/94/54

f 121/233/54 118/94/54 119/96/54

f 120/97/54 121/233/54 119/96/54

v 5.05 1.80478e-13 1.47224
vt 0.198819 0.0579623
vn 7.16182e-15 -1 6.02324e-14
vt 0.116142 0.0254113
f 123/235/62 54/236/62 2/2/62

v 2.95 1.35358e-13 1.47224
vt 0.116142 0.0579623
f 54/236/62 123/235/62 124/237/62

v 5.05 4 1.47224
vt 0.198819 0.15748
vn 1.46034e-14 -1.04182e-13 1
vt 0.116142 1.13677e-14
vt 0.198819 1.3144e-14
f 125/238/63 124/239/63 123/240/63

v 2.95 4 1.47224
vt 0.116142 0.15748
f 124/239/63 125/238/63 126/241/63

vn 1.76874e-14 -1 -1.21754e-13
v 5.05 4 1.64545
vt 0.198819 0.0647814
f 125/235/64 127/242/64 126/237/64

v 6.3 4 3.4641
f 125/235/64 128/5/64 127/242/64

v 5.15 4 1.47224
f 128/5/64 125/235/64 129/4/64

vn 1.40998e-14 -1.04182e-13 1
vt 0.202756 0.15748
f 123/240/65 129/243/65 125/238/65

vt 0.202756 2.02495e-14
f 129/243/65 123/240/65 4/244/65

f 123/235/1 2/2/1 4/4/1

vt 1.78075e-15 0.151575
vn -0.866025 -6.83045e-14 0.5
vt -0.15748 0.242126
vt -0.15748 0.151575
f 4/245/66 128/246/66 129/247/66

vt 1.60098e-14 0.242126
f 128/246/66 4/245/66 5/248/66

vt -1.3828e-14 -0.00590551
vn -0.866025 3.58771e-14 -0.5
v 5.15 4 5.45596
vt -0.15748 0.0846457
vt -0.15748 -0.00590551
f 5/249/67 130/250/67 128/251/67

vt 4.82152e-16 0.0846457
f 130/250/67 5/249/67 7/252/67

vt -0.198819 1.34966e-14
vn -1.40998e-14 1.04182e-13 -1
vt -0.202756 0.15748
vt -0.202756 1.34966e-14
f 8/253/68 130/254/68 7/255/68

v 5.05 4 5.45596
vt -0.198819 0.15748
f 130/254/68 8/253/68 131/256/68

v 2.95 -2.25597e-13 5.45596
vt -0.116142 1.34966e-14
f 132/257/68 131/256/68 8/253/68

v 2.95 4 5.45596
vt -0.116142 0.15748
f 131/256/68 132/257/68 133/258/68

v 2.85 -2.70717e-13 5.45596
vt -0.112205 1.17202e-14
f 134/259/68 133/258/68 132/257/68

v 2.85 4 5.45596
vt -0.112205 0.15748
f 133/258/68 134/259/68 135/260/68

v 1.7 0 3.4641
vt -5.27878e-15 0.151575
vn 0.866025 6.83045e-14 -0.5
vt 0.15748 0.242126
vt -1.95079e-14 0.242126
f 136/261/69 135/262/69 134/263/69

v 1.7 4 3.4641
vt 0.15748 0.151575
f 135/262/69 136/261/69 137/264/69

v 2.85 3.15836e-13 1.47224
vt 1.70828e-14 -0.00590551
vn 0.866025 -3.58771e-14 0.5
vt 0.15748 0.0846457
vt 2.77269e-15 0.0846457
f 138/265/70 137/266/70 136/267/70

v 2.85 4 1.47224
vt 0.15748 -0.00590551
f 137/266/70 138/265/70 139/268/70

vt 0.112205 1.84731e-14
vt 0.112205 0.15748
f 138/269/65 126/241/65 139/270/65

f 126/241/65 138/269/65 124/239/65

vt 0.0767717 0.0254113
vn 3.47872e-14 -1 6.35902e-15
vt 0.112205 0.0579623
f 53/271/71 124/237/71 138/272/71

f 124/237/71 53/271/71 54/236/71

v 0.9 0 3.4641
vt 0.0354331 0.136382
f 53/271/71 138/272/71 140/273/71

vt 0.0669291 0.136382
f 140/273/71 138/272/71 136/274/71

vt 0.112205 0.214802
vn -4.06329e-14 -1 -7.0545e-14
f 134/275/72 140/273/72 136/274/72

vt 0.0767717 0.247353
f 140/273/72 134/275/72 15/276/72

vt 0.116142 0.247353
f 15/276/72 134/275/72 12/277/72

vt 0.116142 0.214802
f 12/277/72 134/275/72 132/278/72

vn 0 -1 0
f 132/278/73 9/9/73 12/277/73

f 9/9/73 132/278/73 8/8/73

vt -0.07413 0.255684
vn -0.818152 -0.487585 0.304776
vt 0.0181397 0.13917
vt 0.0393026 0.255684
f 17/279/74 140/280/74 15/281/74

vt -0.155277 0.140038
vn -0.872349 -0.42499 0.241641
vt 0.0155186 0.140038
vt -0.079408 0.254397
f 24/282/75 140/283/75 17/284/75

vt -0.155277 0.124643
vn -0.872349 -0.42499 -0.241641
vt -0.079408 0.0102835
vt 0.0155186 0.124643
f 24/285/76 52/286/76 140/287/76

vt -0.187563 0.0126073
vn -0.843813 -0.502878 -0.187331
vt -0.07413 0.0126073
vt -0.152052 0.125578
f 25/288/77 52/289/77 24/290/77

vt -0.07413 0.00410285
vn -0.818152 -0.487585 -0.304776
vt 0.0393026 0.00410285
vt 0.0181397 0.120617
f 52/291/78 53/292/78 140/293/78

vt -0.187563 0.255328
vn -0.843813 -0.502878 0.187331
vt -0.152052 0.142357
vt -0.07413 0.255328
f 21/294/79 24/295/79 17/296/79

f 126/237/64 127/242/64 139/272/64

v 2.95 4 1.64545
vt 0.116142 0.0647814
f 139/272/64 127/242/64 141/297/64

vn 7.16182e-15 -1 -6.20232e-14
v 1.9 4 3.4641
vt 0.0748031 0.136382
f 127/242/80 142/298/80 141/297/80

v 6.1 4 3.4641
vt 0.240157 0.136382
f 142/298/80 127/242/80 143/299/80

f 127/242/64 128/5/64 143/299/64

f 143/299/64 128/5/64 130/7/64

v 5.05 4 5.28275
vt 0.198819 0.207982
f 143/299/64 130/7/64 144/300/64

v 2.95 4 5.28275
vt 0.116142 0.207982
f 144/300/64 130/7/64 145/301/64

f 131/8/64 145/301/64 130/7/64

f 133/278/64 145/301/64 131/8/64

f 135/275/64 145/301/64 133/278/64

f 137/274/64 145/301/64 135/275/64

f 137/274/64 142/298/64 145/301/64

f 137/274/64 141/297/64 142/298/64

f 141/297/64 137/274/64 139/272/64

f 142/298/80 144/300/80 145/301/80

f 142/298/80 143/299/80 144/300/80

vt 0.235371 0.0865624
vn 0.818152 -0.487585 -0.304776
vt 0.143102 0.203076
vt 0.121939 0.0865624
f 85/302/81 1/303/81 3/304/81

vt 0.29322 0.193063
vn 0.872349 -0.42499 -0.241641
vt 0.122425 0.193063
vt 0.217351 0.0787034
f 71/305/82 1/306/82 85/307/82

vt 0.348804 0.0632912
vn 0.843813 -0.502878 -0.187331
vt 0.313293 0.176262
vt 0.235371 0.0632912
f 82/308/83 71/309/83 85/310/83

f 73/126/3 72/127/3 78/166/3

f 73/126/3 78/166/3 76/171/3

vt -0.491615 0.0531706
vn -0.818152 0.487585 0.304776
vt -0.399346 0.169685
vt -0.512778 0.169685
f 41/311/84 16/312/84 14/313/84

f 49/48/17 44/67/17 51/78/17

f 44/67/17 49/48/17 45/70/17

vt 0.129921 0.230315
vn 5.97307e-15 0 1
vt -0.0393701 0.230315
f 28/314/85 50/22/85 26/315/85

v 3.3 5.95 1.47224
vt 0.129921 0.234252
f 50/22/85 28/314/85 146/316/85

f 28/30/7 30/36/7 146/77/7

f 146/77/7 30/36/7 32/38/7

v 3.3 8.05 1.47224
f 146/77/7 32/38/7 147/75/7

v 3.3 8.15 1.47224
f 147/75/7 32/38/7 148/73/7

v 3.3 9.1 3.4641
vt -0.358268 0.136382
f 148/73/7 32/38/7 149/317/7

f 32/38/8 33/39/8 149/317/8

v 3.3 8.05 5.45596
f 33/39/7 150/50/7 149/317/7

f 33/39/7 34/40/7 150/50/7

vn -5.97307e-15 -1.00713e-15 -1
vt -0.129921 0.316929
f 34/46/86 37/70/86 150/318/86

f 37/70/86 34/46/86 36/48/86

vt 0.0393701 0.320866
vn -5.97307e-15 1.34751e-27 -1
f 38/319/87 150/318/87 37/70/87

v 3.3 8.15 5.45596
vt -0.129921 0.320866
f 150/318/87 38/319/87 151/320/87

vt -0.0393701 -0.0649606
vn -9.41728e-15 -0.866025 -0.5
vt 0.129921 0.0255906
vt -0.0393701 0.0255906
f 39/321/88 151/322/88 38/323/88

v 3.3 9.3 3.4641
vt 0.129921 -0.0649606
f 151/322/88 39/321/88 152/324/88

vt -0.0393701 0.21063
vn -3.44421e-15 -0.866025 0.5
vt 0.129921 0.301181
vt -0.0393701 0.301181
f 47/325/89 152/326/89 39/327/89

vt 0.129921 0.21063
f 152/326/89 47/325/89 148/328/89

vt -0.0393701 0.320866
vt 0.129921 0.316929
vt 0.129921 0.320866
f 47/329/85 147/330/85 148/331/85

f 147/330/85 47/329/85 48/21/85

vn 5.97307e-15 1.67855e-16 1
f 48/21/90 146/316/90 147/330/90

f 146/316/90 48/21/90 50/22/90

f 148/73/7 149/317/7 152/53/7

f 149/317/7 151/52/7 152/53/7

f 149/317/7 150/50/7 151/52/7

f 46/74/18 47/73/18 39/53/18

f 46/74/18 39/53/18 40/54/18

vt -0.399346 0.065467
vn -0.843813 0.502878 -0.187331
vt -0.285913 0.065467
vt -0.321424 0.178438
f 42/332/91 46/333/91 40/334/91

