solid Mockup
facet normal 0.866025403784439 0.499999999999998 -9.19437040431631e-32
outer loop
vertex 289.175418706465 353.446685867965 31.2000000000043
vertex 289.811332045697 352.345251655204 68.4000000000051
vertex 289.811332045697 352.345251655204 31.2000000000043
endloop
endfacet
facet normal 0.866025403784439 0.499999999999998 -9.19437040431631e-32
outer loop
vertex 289.811332045697 352.345251655204 68.4000000000051
vertex 289.175418706465 353.446685867965 31.2000000000043
vertex 289.175418706465 353.446685867965 68.4000000000051
endloop
endfacet
facet normal -3.97170675543796e-15 4.42291735824118e-15 -1.0
outer loop
vertex 288.079281238129 351.345251655204 29.2000000000042
vertex 297.17578083722 301.189652178546 29.2000000000038
vertex 278.575957566 333.126177792276 29.2000000000043
endloop
endfacet
facet normal -3.97170675543796e-15 4.42291735824118e-15 -1.0
outer loop
vertex 297.17578083722 301.189652178546 29.2000000000038
vertex 288.079281238129 351.345251655204 29.2000000000042
vertex 289.811332045697 352.345251655204 29.2000000000041
endloop
endfacet
facet normal -3.97170675543796e-15 4.42291735824118e-15 -1.0
outer loop
vertex 297.17578083722 301.189652178546 29.2000000000038
vertex 289.811332045697 352.345251655204 29.2000000000041
vertex 313.803468589882 310.789652178547 29.200000000004
endloop
endfacet
facet normal -0.866025403784429 -0.500000000000017 8.7318350339175e-15
outer loop
vertex 310.309393302681 314.84156810145 38.9000000000046
vertex 310.309393302681 314.841568101449 36.3000000000046
vertex 310.559393302682 314.408555399556 38.9000000000046
endloop
endfacet
facet normal -0.866025403784429 -0.500000000000017 8.7318350339175e-15
outer loop
vertex 297.95939330268 336.232395574924 57.3000000000046
vertex 298.45939330268 335.36637017114 42.3000000000046
vertex 298.45939330268 335.36637017114 57.3000000000046
endloop
endfacet
facet normal -0.866025403784429 -0.500000000000017 8.7318350339175e-15
outer loop
vertex 298.45939330268 335.36637017114 42.3000000000046
vertex 297.95939330268 336.232395574924 57.3000000000046
vertex 297.95939330268 336.232395574924 42.3000000000046
endloop
endfacet
facet normal -0.866025403784429 -0.500000000000017 8.7318350339175e-15
outer loop
vertex 291.45939330268 347.490725824122 40.3000000000046
vertex 293.70939330268 343.593611507092 39.8000000000046
vertex 293.70939330268 343.593611507092 40.3000000000046
endloop
endfacet
facet normal -0.866025403784429 -0.500000000000017 8.7318350339175e-15
outer loop
vertex 312.937443186098 310.289652178547 68.4000000000051
vertex 310.559393302681 314.408555399557 60.7000000000044
vertex 312.937443186098 310.289652178547 31.2000000000043
endloop
endfacet
facet normal -0.866025403784429 -0.500000000000017 8.7318350339175e-15
outer loop
vertex 310.559393302681 314.408555399557 60.7000000000044
vertex 312.937443186098 310.289652178547 68.4000000000051
vertex 310.309393302681 314.841568101449 63.3000000000046
endloop
endfacet
facet normal -0.866025403784429 -0.500000000000017 8.7318350339175e-15
outer loop
vertex 310.309393302681 314.841568101449 63.3000000000046
vertex 312.937443186098 310.289652178547 68.4000000000051
vertex 288.945306641913 351.845251655204 68.4000000000051
endloop
endfacet
facet normal -0.866025403784429 -0.500000000000017 8.7318350339175e-15
outer loop
vertex 312.937443186098 310.289652178547 31.2000000000043
vertex 310.559393302681 314.408555399557 60.7000000000044
vertex 310.559393302683 314.408555399556 52.8000000000044
endloop
endfacet
facet normal -0.866025403784429 -0.500000000000017 8.7318350339175e-15
outer loop
vertex 312.937443186098 310.289652178547 31.2000000000043
vertex 310.559393302683 314.408555399556 52.8000000000044
vertex 310.559393302682 314.408555399556 38.9000000000046
endloop
endfacet
facet normal -0.866025403784429 -0.500000000000017 8.7318350339175e-15
outer loop
vertex 310.559393302682 314.408555399556 38.9000000000046
vertex 310.559393302683 314.408555399556 52.8000000000044
vertex 310.559393302682 314.408555399556 46.8000000000046
endloop
endfacet
facet normal -0.866025403784429 -0.500000000000017 8.7318350339175e-15
outer loop
vertex 310.309393302681 314.841568101449 63.3000000000046
vertex 288.945306641913 351.845251655204 68.4000000000051
vertex 303.359393302681 326.879321214053 63.3000000000046
endloop
endfacet
facet normal -0.866025403784429 -0.500000000000017 8.7318350339175e-15
outer loop
vertex 303.359393302681 326.879321214053 63.3000000000046
vertex 288.945306641913 351.845251655204 68.4000000000051
vertex 301.359393302681 330.343422829191 60.7000000000046
endloop
endfacet
facet normal -0.866025403784429 -0.500000000000017 8.7318350339175e-15
outer loop
vertex 301.359393302681 330.343422829191 60.7000000000046
vertex 288.945306641913 351.845251655204 68.4000000000051
vertex 300.559393302681 331.729063475246 60.7000000000046
endloop
endfacet
facet normal -0.866025403784429 -0.500000000000017 8.7318350339175e-15
outer loop
vertex 300.559393302681 331.729063475246 60.7000000000046
vertex 288.945306641913 351.845251655204 68.4000000000051
vertex 298.45939330268 335.36637017114 59.3000000000046
endloop
endfacet
facet normal -0.866025403784429 -0.500000000000017 8.7318350339175e-15
outer loop
vertex 300.559393302681 331.729063475246 60.7000000000046
vertex 298.45939330268 335.36637017114 59.3000000000046
vertex 300.559393302681 331.729063475246 52.8000000000046
endloop
endfacet
facet normal -0.866025403784429 -0.500000000000017 8.7318350339175e-15
outer loop
vertex 300.559393302681 331.729063475246 52.8000000000046
vertex 298.45939330268 335.36637017114 59.3000000000046
vertex 300.559393302681 331.729063475246 46.8000000000046
endloop
endfacet
facet normal -0.866025403784429 -0.500000000000017 8.7318350339175e-15
outer loop
vertex 300.559393302681 331.729063475246 46.8000000000046
vertex 298.45939330268 335.36637017114 59.3000000000046
vertex 300.559393302681 331.729063475246 38.9000000000046
endloop
endfacet
facet normal -0.866025403784429 -0.500000000000017 8.7318350339175e-15
outer loop
vertex 298.45939330268 335.36637017114 59.3000000000046
vertex 288.945306641913 351.845251655204 68.4000000000051
vertex 296.20939330268 339.26348448817 59.8000000000046
endloop
endfacet
facet normal -0.866025403784429 -0.500000000000017 8.7318350339175e-15
outer loop
vertex 298.45939330268 335.36637017114 59.3000000000046
vertex 296.20939330268 339.26348448817 59.8000000000046
vertex 296.20939330268 339.26348448817 59.3000000000046
endloop
endfacet
facet normal -0.866025403784429 -0.500000000000017 8.7318350339175e-15
outer loop
vertex 296.20939330268 339.26348448817 59.8000000000046
vertex 288.945306641913 351.845251655204 68.4000000000051
vertex 293.70939330268 343.593611507092 59.8000000000046
endloop
endfacet
facet normal -0.866025403784429 -0.500000000000017 8.7318350339175e-15
outer loop
vertex 293.70939330268 343.593611507092 59.8000000000046
vertex 288.945306641913 351.845251655204 68.4000000000051
vertex 293.70939330268 343.593611507092 59.3000000000046
endloop
endfacet
facet normal -0.866025403784429 -0.500000000000017 8.7318350339175e-15
outer loop
vertex 293.70939330268 343.593611507092 59.3000000000046
vertex 288.945306641913 351.845251655204 68.4000000000051
vertex 291.45939330268 347.490725824122 59.3000000000046
endloop
endfacet
facet normal -0.866025403784429 -0.500000000000017 8.7318350339175e-15
outer loop
vertex 291.45939330268 347.490725824122 59.3000000000046
vertex 288.945306641913 351.845251655204 68.4000000000051
vertex 291.45939330268 347.490725824122 57.3000000000046
endloop
endfacet
facet normal -0.866025403784429 -0.500000000000017 8.7318350339175e-15
outer loop
vertex 291.45939330268 347.490725824122 57.3000000000046
vertex 288.945306641913 351.845251655204 68.4000000000051
vertex 291.45939330268 347.490725824122 42.3000000000046
endloop
endfacet
facet normal -0.866025403784429 -0.500000000000017 8.7318350339175e-15
outer loop
vertex 291.45939330268 347.490725824122 42.3000000000046
vertex 288.945306641913 351.845251655204 68.4000000000051
vertex 291.45939330268 347.490725824122 40.3000000000046
endloop
endfacet
facet normal -0.866025403784429 -0.500000000000017 8.7318350339175e-15
outer loop
vertex 312.937443186098 310.289652178547 31.2000000000043
vertex 310.309393302681 314.841568101449 36.3000000000046
vertex 288.945306641913 351.845251655204 31.2000000000043
endloop
endfacet
facet normal -0.866025403784429 -0.500000000000017 8.7318350339175e-15
outer loop
vertex 310.309393302681 314.841568101449 36.3000000000046
vertex 312.937443186098 310.289652178547 31.2000000000043
vertex 310.559393302682 314.408555399556 38.9000000000046
endloop
endfacet
facet normal -0.866025403784429 -0.500000000000017 8.7318350339175e-15
outer loop
vertex 288.945306641913 351.845251655204 31.2000000000043
vertex 310.309393302681 314.841568101449 36.3000000000046
vertex 303.359393302681 326.879321214053 36.3000000000046
endloop
endfacet
facet normal -0.866025403784429 -0.500000000000017 8.7318350339175e-15
outer loop
vertex 288.945306641913 351.845251655204 31.2000000000043
vertex 303.359393302681 326.879321214053 36.3000000000046
vertex 301.359393302681 330.343422829191 38.9000000000046
endloop
endfacet
facet normal -0.866025403784429 -0.500000000000017 8.7318350339175e-15
outer loop
vertex 288.945306641913 351.845251655204 31.2000000000043
vertex 301.359393302681 330.343422829191 38.9000000000046
vertex 300.559393302681 331.729063475246 38.9000000000046
endloop
endfacet
facet normal -0.866025403784429 -0.500000000000017 8.7318350339175e-15
outer loop
vertex 288.945306641913 351.845251655204 31.2000000000043
vertex 300.559393302681 331.729063475246 38.9000000000046
vertex 298.45939330268 335.36637017114 40.3000000000046
endloop
endfacet
facet normal -0.866025403784429 -0.500000000000017 8.7318350339175e-15
outer loop
vertex 298.45939330268 335.36637017114 40.3000000000046
vertex 300.559393302681 331.729063475246 38.9000000000046
vertex 298.45939330268 335.36637017114 59.3000000000046
endloop
endfacet
facet normal -0.866025403784429 -0.500000000000017 8.7318350339175e-15
outer loop
vertex 298.45939330268 335.36637017114 40.3000000000046
vertex 298.45939330268 335.36637017114 59.3000000000046
vertex 298.45939330268 335.36637017114 57.3000000000046
endloop
endfacet
facet normal -0.866025403784429 -0.500000000000017 8.7318350339175e-15
outer loop
vertex 298.45939330268 335.36637017114 40.3000000000046
vertex 298.45939330268 335.36637017114 57.3000000000046
vertex 298.45939330268 335.36637017114 42.3000000000046
endloop
endfacet
facet normal -0.866025403784429 -0.500000000000017 8.7318350339175e-15
outer loop
vertex 288.945306641913 351.845251655204 31.2000000000043
vertex 298.45939330268 335.36637017114 40.3000000000046
vertex 296.20939330268 339.26348448817 39.8000000000046
endloop
endfacet
facet normal -0.866025403784429 -0.500000000000017 8.7318350339175e-15
outer loop
vertex 296.20939330268 339.26348448817 39.8000000000046
vertex 298.45939330268 335.36637017114 40.3000000000046
vertex 296.20939330268 339.26348448817 40.3000000000046
endloop
endfacet
facet normal -0.866025403784429 -0.500000000000017 8.7318350339175e-15
outer loop
vertex 288.945306641913 351.845251655204 31.2000000000043
vertex 296.20939330268 339.26348448817 39.8000000000046
vertex 293.70939330268 343.593611507092 39.8000000000046
endloop
endfacet
facet normal -0.866025403784429 -0.500000000000017 8.7318350339175e-15
outer loop
vertex 288.945306641913 351.845251655204 31.2000000000043
vertex 293.70939330268 343.593611507092 39.8000000000046
vertex 291.45939330268 347.490725824122 40.3000000000046
endloop
endfacet
facet normal -0.866025403784429 -0.500000000000017 8.7318350339175e-15
outer loop
vertex 288.945306641913 351.845251655204 31.2000000000043
vertex 291.45939330268 347.490725824122 40.3000000000046
vertex 288.945306641913 351.845251655204 68.4000000000051
endloop
endfacet
facet normal -0.866025403784429 -0.500000000000017 8.7318350339175e-15
outer loop
vertex 291.45939330268 347.490725824122 57.3000000000046
vertex 291.95939330268 346.624700420337 42.3000000000046
vertex 291.95939330268 346.624700420337 57.3000000000046
endloop
endfacet
facet normal -0.866025403784429 -0.500000000000017 8.7318350339175e-15
outer loop
vertex 291.95939330268 346.624700420337 42.3000000000046
vertex 291.45939330268 347.490725824122 57.3000000000046
vertex 291.45939330268 347.490725824122 42.3000000000046
endloop
endfacet
facet normal -0.866025403784429 -0.500000000000017 8.7318350339175e-15
outer loop
vertex 300.559393302681 331.729063475246 52.8000000000046
vertex 300.709393302681 331.46925585411 46.8000000000046
vertex 300.709393302681 331.46925585411 52.8000000000046
endloop
endfacet
facet normal -0.866025403784429 -0.500000000000017 8.7318350339175e-15
outer loop
vertex 300.709393302681 331.46925585411 46.8000000000046
vertex 300.559393302681 331.729063475246 52.8000000000046
vertex 300.559393302681 331.729063475246 46.8000000000046
endloop
endfacet
facet normal -0.866025403784429 -0.500000000000017 8.7318350339175e-15
outer loop
vertex 310.309393302681 314.841568101449 60.7000000000046
vertex 310.559393302681 314.408555399557 60.7000000000044
vertex 310.309393302681 314.841568101449 63.3000000000046
endloop
endfacet
facet normal -0.866025403784429 -0.500000000000017 8.7318350339175e-15
outer loop
vertex 310.559393302683 314.408555399556 52.8000000000044
vertex 310.309393302681 314.84156810145 46.8000000000046
vertex 310.559393302682 314.408555399556 46.8000000000046
endloop
endfacet
facet normal -0.866025403784429 -0.500000000000017 8.7318350339175e-15
outer loop
vertex 310.309393302681 314.84156810145 46.8000000000046
vertex 310.559393302683 314.408555399556 52.8000000000044
vertex 310.309393302682 314.84156810145 52.8000000000046
endloop
endfacet
facet normal -0.500000000000007 0.866025403784434 0.0
outer loop
vertex 298.45939330268 335.36637017114 59.3000000000046
vertex 299.325418706465 335.86637017114 57.3000000000046
vertex 298.45939330268 335.36637017114 57.3000000000046
endloop
endfacet
facet normal -0.500000000000007 0.866025403784434 0.0
outer loop
vertex 299.325418706465 335.86637017114 57.3000000000046
vertex 298.45939330268 335.36637017114 59.3000000000046
vertex 299.325418706465 335.86637017114 59.3000000000046
endloop
endfacet
facet normal -0.500000000000007 0.866025403784434 1.20897238669063e-14
outer loop
vertex 296.20939330268 339.26348448817 59.8000000000046
vertex 297.075418706465 339.76348448817 59.3000000000046
vertex 296.20939330268 339.26348448817 59.3000000000046
endloop
endfacet
facet normal -0.500000000000007 0.866025403784434 1.20897238669063e-14
outer loop
vertex 297.075418706465 339.76348448817 59.3000000000046
vertex 296.20939330268 339.26348448817 59.8000000000046
vertex 297.075418706465 339.76348448817 59.8000000000046
endloop
endfacet
facet normal 0.500000000000007 -0.866025403784434 0.0
outer loop
vertex 294.575418706465 344.093611507093 59.8000000000046
vertex 293.70939330268 343.593611507092 59.3000000000046
vertex 294.575418706465 344.093611507093 59.3000000000046
endloop
endfacet
facet normal 0.500000000000007 -0.866025403784434 0.0
outer loop
vertex 293.70939330268 343.593611507092 59.3000000000046
vertex 294.575418706465 344.093611507093 59.8000000000046
vertex 293.70939330268 343.593611507092 59.8000000000046
endloop
endfacet
facet normal -2.02790701962599e-15 -1.17081266367272e-15 -1.0
outer loop
vertex 292.325418706465 347.990725824123 59.3000000000046
vertex 293.70939330268 343.593611507092 59.3000000000046
vertex 291.45939330268 347.490725824122 59.3000000000046
endloop
endfacet
facet normal -2.02790701962599e-15 -1.17081266367272e-15 -1.0
outer loop
vertex 293.70939330268 343.593611507092 59.3000000000046
vertex 292.325418706465 347.990725824123 59.3000000000046
vertex 294.575418706465 344.093611507093 59.3000000000046
endloop
endfacet
facet normal 0.500000000000007 -0.866025403784434 0.0
outer loop
vertex 292.325418706465 347.990725824123 59.3000000000046
vertex 291.45939330268 347.490725824122 57.3000000000046
vertex 292.325418706465 347.990725824123 57.3000000000046
endloop
endfacet
facet normal 0.500000000000007 -0.866025403784434 0.0
outer loop
vertex 291.45939330268 347.490725824122 57.3000000000046
vertex 292.325418706465 347.990725824123 59.3000000000046
vertex 291.45939330268 347.490725824122 59.3000000000046
endloop
endfacet
facet normal -0.86602540378443 -0.500000000000014 1.7745216465929e-16
outer loop
vertex 276.906588371576 330.234745530942 73.4000000000051
vertex 294.55078083722 299.674107721924 70.4000000000051
vertex 294.55078083722 299.674107721924 73.4000000000051
endloop
endfacet
facet normal -0.86602540378443 -0.500000000000014 1.7745216465929e-16
outer loop
vertex 294.55078083722 299.674107721924 70.4000000000051
vertex 276.906588371576 330.234745530942 73.4000000000051
vertex 276.906588371576 330.234745530942 70.4000000000052
endloop
endfacet
facet normal 0.272494175297724 -0.471973756382203 0.838443616300635
outer loop
vertex 303.359393302681 326.879321214053 36.3000000000046
vertex 302.225418706465 330.843422829191 38.9000000000046
vertex 301.359393302681 330.343422829191 38.9000000000046
endloop
endfacet
facet normal 0.272494175297724 -0.471973756382203 0.838443616300635
outer loop
vertex 302.225418706465 330.843422829191 38.9000000000046
vertex 303.359393302681 326.879321214053 36.3000000000046
vertex 304.225418706465 327.379321214053 36.3000000000046
endloop
endfacet
facet normal -0.500000000000026 0.866025403784423 -2.1809568505683e-13
outer loop
vertex 310.559393302681 314.408555399557 60.7000000000044
vertex 311.425418706467 314.908555399556 52.8000000000044
vertex 310.559393302683 314.408555399556 52.8000000000044
endloop
endfacet
facet normal -0.500000000000026 0.866025403784423 -2.1809568505683e-13
outer loop
vertex 311.425418706467 314.908555399556 52.8000000000044
vertex 310.559393302681 314.408555399557 60.7000000000044
vertex 311.425418706466 314.908555399557 60.7000000000044
endloop
endfacet
facet normal 1.35182484641049e-15 7.80476438973173e-16 1.0
outer loop
vertex 300.709393302681 331.46925585411 52.8000000000046
vertex 301.425418706465 332.229063475246 52.8000000000046
vertex 300.559393302681 331.729063475246 52.8000000000046
endloop
endfacet
facet normal 1.35182484641049e-15 7.80476438973173e-16 1.0
outer loop
vertex 301.425418706465 332.229063475246 52.8000000000046
vertex 300.709393302681 331.46925585411 52.8000000000046
vertex 301.575418706465 331.96925585411 52.8000000000046
endloop
endfacet
facet normal -1.35182484640998e-15 -7.80476438974054e-16 -1.0
outer loop
vertex 301.425418706465 332.229063475246 46.8000000000046
vertex 300.709393302681 331.46925585411 46.8000000000046
vertex 300.559393302681 331.729063475246 46.8000000000046
endloop
endfacet
facet normal -1.35182484640998e-15 -7.80476438974054e-16 -1.0
outer loop
vertex 300.709393302681 331.46925585411 46.8000000000046
vertex 301.425418706465 332.229063475246 46.8000000000046
vertex 301.575418706465 331.96925585411 46.8000000000046
endloop
endfacet
facet normal -0.500000000000026 0.866025403784423 1.22873429191014e-14
outer loop
vertex 310.309393302682 314.84156810145 52.8000000000046
vertex 311.175418706466 315.34156810145 46.8000000000046
vertex 310.309393302681 314.84156810145 46.8000000000046
endloop
endfacet
facet normal -0.500000000000026 0.866025403784423 1.22873429191014e-14
outer loop
vertex 311.175418706466 315.34156810145 46.8000000000046
vertex 310.309393302682 314.84156810145 52.8000000000046
vertex 311.175418706466 315.34156810145 52.8000000000046
endloop
endfacet
facet normal 0.6229008817851 0.359631991777096 0.694736872464521
outer loop
vertex 294.55078083722 299.674107721924 73.4000000000051
vertex 279.410594488476 331.693077968469 70.4000000000052
vertex 276.906588371576 330.234745530942 73.4000000000051
endloop
endfacet
facet normal -0.500000000000026 0.866025403784423 -4.27611320878786e-14
outer loop
vertex 310.309393302681 314.84156810145 38.9000000000046
vertex 311.175418706466 315.341568101449 36.3000000000046
vertex 310.309393302681 314.841568101449 36.3000000000046
endloop
endfacet
facet normal -0.500000000000026 0.866025403784423 -4.27611320878786e-14
outer loop
vertex 311.175418706466 315.341568101449 36.3000000000046
vertex 310.309393302681 314.84156810145 38.9000000000046
vertex 311.175418706466 315.34156810145 38.9000000000046
endloop
endfacet
facet normal -0.866025403784431 -0.500000000000013 -6.3180577856414e-18
outer loop
vertex 276.906588371576 330.234745530942 29.200000000004
vertex 294.55078083722 299.674107721924 26.2000000000038
vertex 294.55078083722 299.674107721924 29.2000000000038
endloop
endfacet
facet normal -0.866025403784431 -0.500000000000013 -6.3180577856414e-18
outer loop
vertex 294.55078083722 299.674107721924 26.2000000000038
vertex 276.906588371576 330.234745530942 29.200000000004
vertex 276.906588371576 330.234745530942 26.2000000000038
endloop
endfacet
facet normal 0.60787644177004 0.354027063695371 0.710739804508112
outer loop
vertex 297.17578083722 301.189652178546 70.4000000000051
vertex 279.410594488476 331.693077968469 70.4000000000052
vertex 294.55078083722 299.674107721924 73.4000000000051
endloop
endfacet
facet normal 0.866025403784439 0.499999999999998 0.0
outer loop
vertex 289.175418706465 353.446685867965 68.4000000000051
vertex 289.811332045697 352.345251655204 70.4000000000052
vertex 289.811332045697 352.345251655204 68.4000000000051
endloop
endfacet
facet normal 0.866025403784439 0.499999999999998 0.0
outer loop
vertex 289.811332045697 352.345251655204 70.4000000000052
vertex 289.175418706465 353.446685867965 68.4000000000051
vertex 289.175418706465 353.446685867965 70.4000000000052
endloop
endfacet
facet normal -0.930295316077133 0.366811429599661 -2.36732947553608e-28
outer loop
vertex 288.829008544952 353.246685867964 70.4000000000052
vertex 288.079281238129 351.345251655204 68.4000000000051
vertex 288.079281238129 351.345251655204 70.4000000000052
endloop
endfacet
facet normal -0.930295316077133 0.366811429599661 -2.36732947553608e-28
outer loop
vertex 288.079281238129 351.345251655204 68.4000000000051
vertex 288.829008544952 353.246685867964 70.4000000000052
vertex 288.829008544952 353.246685867964 68.4000000000051
endloop
endfacet
facet normal 0.272494175297719 -0.471973756382198 -0.838443616300639
outer loop
vertex 302.225418706465 330.843422829191 60.7000000000046
vertex 303.359393302681 326.879321214053 63.3000000000046
vertex 301.359393302681 330.343422829191 60.7000000000046
endloop
endfacet
facet normal 0.272494175297719 -0.471973756382198 -0.838443616300639
outer loop
vertex 303.359393302681 326.879321214053 63.3000000000046
vertex 302.225418706465 330.843422829191 60.7000000000046
vertex 304.225418706465 327.379321214053 63.3000000000046
endloop
endfacet
facet normal -1.35182484641085e-15 -7.8047643897255e-16 -1.0
outer loop
vertex 304.225418706465 327.379321214053 63.3000000000046
vertex 310.309393302681 314.841568101449 63.3000000000046
vertex 303.359393302681 326.879321214053 63.3000000000046
endloop
endfacet
facet normal -1.35182484641085e-15 -7.8047643897255e-16 -1.0
outer loop
vertex 310.309393302681 314.841568101449 63.3000000000046
vertex 304.225418706465 327.379321214053 63.3000000000046
vertex 311.175418706466 315.341568101449 63.3000000000046
endloop
endfacet
facet normal 0.500000000000026 -0.866025403784423 0.0
outer loop
vertex 301.575418706465 331.96925585411 46.8000000000046
vertex 300.709393302681 331.46925585411 52.8000000000046
vertex 300.709393302681 331.46925585411 46.8000000000046
endloop
endfacet
facet normal 0.500000000000026 -0.866025403784423 0.0
outer loop
vertex 300.709393302681 331.46925585411 52.8000000000046
vertex 301.575418706465 331.96925585411 46.8000000000046
vertex 301.575418706465 331.96925585411 52.8000000000046
endloop
endfacet
facet normal -1.35182484641082e-15 -7.80476438972602e-16 -1.0
outer loop
vertex 301.425418706465 332.229063475246 60.7000000000046
vertex 301.359393302681 330.343422829191 60.7000000000046
vertex 300.559393302681 331.729063475246 60.7000000000046
endloop
endfacet
facet normal -1.35182484641082e-15 -7.80476438972602e-16 -1.0
outer loop
vertex 301.359393302681 330.343422829191 60.7000000000046
vertex 301.425418706465 332.229063475246 60.7000000000046
vertex 302.225418706465 330.843422829191 60.7000000000046
endloop
endfacet
facet normal 1.35182484641072e-15 7.80476438972782e-16 1.0
outer loop
vertex 301.359393302681 330.343422829191 38.9000000000046
vertex 301.425418706465 332.229063475246 38.9000000000046
vertex 300.559393302681 331.729063475246 38.9000000000046
endloop
endfacet
facet normal 1.35182484641072e-15 7.80476438972782e-16 1.0
outer loop
vertex 301.425418706465 332.229063475246 38.9000000000046
vertex 301.359393302681 330.343422829191 38.9000000000046
vertex 302.225418706465 330.843422829191 38.9000000000046
endloop
endfacet
facet normal -0.499999999999992 0.866025403784443 0.0
outer loop
vertex 288.829008544952 353.246685867964 31.2000000000043
vertex 289.175418706465 353.446685867965 29.2000000000041
vertex 288.829008544952 353.246685867964 29.2000000000041
endloop
endfacet
facet normal -0.499999999999992 0.866025403784443 0.0
outer loop
vertex 289.175418706465 353.446685867965 29.2000000000041
vertex 288.829008544952 353.246685867964 31.2000000000043
vertex 289.175418706465 353.446685867965 31.2000000000043
endloop
endfacet
facet normal -0.499999999999992 0.866025403784443 0.0
outer loop
vertex 289.175418706465 353.446685867965 31.2000000000043
vertex 288.829008544952 353.246685867964 31.2000000000043
vertex 288.829008544952 353.246685867964 68.4000000000051
endloop
endfacet
facet normal -0.499999999999992 0.866025403784443 0.0
outer loop
vertex 289.175418706465 353.446685867965 31.2000000000043
vertex 288.829008544952 353.246685867964 68.4000000000051
vertex 289.175418706465 353.446685867965 68.4000000000051
endloop
endfacet
facet normal -0.499999999999992 0.866025403784443 0.0
outer loop
vertex 289.175418706465 353.446685867965 68.4000000000051
vertex 288.829008544952 353.246685867964 68.4000000000051
vertex 288.829008544952 353.246685867964 70.4000000000052
endloop
endfacet
facet normal -0.499999999999992 0.866025403784443 0.0
outer loop
vertex 289.175418706465 353.446685867965 68.4000000000051
vertex 288.829008544952 353.246685867964 70.4000000000052
vertex 289.175418706465 353.446685867965 70.4000000000052
endloop
endfacet
facet normal -0.866025403784436 0.500000000000004 0.0
outer loop
vertex 278.575957566 333.126177792276 31.2000000000043
vertex 276.906588371576 330.234745530942 26.2000000000038
vertex 276.906588371576 330.234745530942 29.200000000004
endloop
endfacet
facet normal -0.866025403784436 0.500000000000004 0.0
outer loop
vertex 276.906588371576 330.234745530942 26.2000000000038
vertex 278.575957566 333.126177792276 31.2000000000043
vertex 278.575957566 333.126177792276 29.2000000000043
endloop
endfacet
facet normal -0.866025403784446 0.499999999999988 -8.98972450924322e-17
outer loop
vertex 278.575957566 333.126177792276 70.4000000000052
vertex 276.906588371576 330.234745530942 70.4000000000052
vertex 276.906588371576 330.234745530942 73.4000000000051
endloop
endfacet
facet normal -0.866025403784446 0.499999999999988 -8.98972450924322e-17
outer loop
vertex 276.906588371576 330.234745530942 70.4000000000052
vertex 278.575957566 333.126177792276 70.4000000000052
vertex 278.575957566 333.126177792276 68.4000000000051
endloop
endfacet
facet normal -0.886630347058224 0.462478786189608 2.85622470309175e-18
outer loop
vertex 288.079281238129 351.345251655204 70.4000000000052
vertex 278.575957566 333.126177792276 68.4000000000051
vertex 278.575957566 333.126177792276 70.4000000000052
endloop
endfacet
facet normal -0.886630347058224 0.462478786189608 2.85622470309175e-18
outer loop
vertex 278.575957566 333.126177792276 68.4000000000051
vertex 288.079281238129 351.345251655204 70.4000000000052
vertex 288.079281238129 351.345251655204 68.4000000000051
endloop
endfacet
facet normal 0.500000000000026 -0.866025403784423 0.0
outer loop
vertex 301.425418706465 332.229063475246 60.7000000000046
vertex 300.559393302681 331.729063475246 52.8000000000046
vertex 301.425418706465 332.229063475246 52.8000000000046
endloop
endfacet
facet normal 0.500000000000026 -0.866025403784423 0.0
outer loop
vertex 300.559393302681 331.729063475246 52.8000000000046
vertex 301.425418706465 332.229063475246 60.7000000000046
vertex 300.559393302681 331.729063475246 60.7000000000046
endloop
endfacet
facet normal 0.62153531825288 0.361981989404494 0.694739438574677
outer loop
vertex 279.410594488476 331.693077968469 70.4000000000052
vertex 278.575957566 333.126177792276 70.4000000000052
vertex 276.906588371576 330.234745530942 73.4000000000051
endloop
endfacet
facet normal 2.26949143449489e-13 -3.89965541432835e-13 1.0
outer loop
vertex 310.559393302683 314.408555399556 52.8000000000044
vertex 311.175418706466 315.34156810145 52.8000000000046
vertex 310.309393302682 314.84156810145 52.8000000000046
endloop
endfacet
facet normal 2.26949143449489e-13 -3.89965541432835e-13 1.0
outer loop
vertex 311.175418706466 315.34156810145 52.8000000000046
vertex 310.559393302683 314.408555399556 52.8000000000044
vertex 311.425418706467 314.908555399556 52.8000000000044
endloop
endfacet
facet normal 0.866025403784438 0.500000000000002 7.95519539967019e-18
outer loop
vertex 292.325418706465 347.990725824123 59.3000000000046
vertex 294.575418706465 344.093611507093 59.8000000000046
vertex 294.575418706465 344.093611507093 59.3000000000046
endloop
endfacet
facet normal 0.866025403784438 0.500000000000002 7.95519539967019e-18
outer loop
vertex 313.803468589882 310.789652178547 29.200000000004
vertex 311.425418706466 314.908555399556 38.9000000000046
vertex 313.803468589882 310.789652178547 70.4000000000051
endloop
endfacet
facet normal 0.866025403784438 0.500000000000002 7.95519539967019e-18
outer loop
vertex 311.425418706466 314.908555399556 38.9000000000046
vertex 313.803468589882 310.789652178547 29.200000000004
vertex 311.175418706466 315.341568101449 36.3000000000046
endloop
endfacet
facet normal 0.866025403784438 0.500000000000002 7.95519539967019e-18
outer loop
vertex 311.175418706466 315.341568101449 36.3000000000046
vertex 313.803468589882 310.789652178547 29.200000000004
vertex 289.811332045697 352.345251655204 29.2000000000041
endloop
endfacet
facet normal 0.866025403784438 0.500000000000002 7.95519539967019e-18
outer loop
vertex 311.175418706466 315.341568101449 36.3000000000046
vertex 289.811332045697 352.345251655204 29.2000000000041
vertex 304.225418706465 327.379321214053 36.3000000000046
endloop
endfacet
facet normal 0.866025403784438 0.500000000000002 7.95519539967019e-18
outer loop
vertex 304.225418706465 327.379321214053 36.3000000000046
vertex 289.811332045697 352.345251655204 29.2000000000041
vertex 302.225418706465 330.843422829191 38.9000000000046
endloop
endfacet
facet normal 0.866025403784438 0.500000000000002 7.95519539967019e-18
outer loop
vertex 302.225418706465 330.843422829191 38.9000000000046
vertex 289.811332045697 352.345251655204 29.2000000000041
vertex 301.425418706465 332.229063475246 38.9000000000046
endloop
endfacet
facet normal 0.866025403784438 0.500000000000002 7.95519539967019e-18
outer loop
vertex 301.425418706465 332.229063475246 38.9000000000046
vertex 289.811332045697 352.345251655204 29.2000000000041
vertex 299.325418706465 335.86637017114 40.3000000000046
endloop
endfacet
facet normal 0.866025403784438 0.500000000000002 7.95519539967019e-18
outer loop
vertex 301.425418706465 332.229063475246 38.9000000000046
vertex 299.325418706465 335.86637017114 40.3000000000046
vertex 301.425418706465 332.229063475246 46.8000000000046
endloop
endfacet
facet normal 0.866025403784438 0.500000000000002 7.95519539967019e-18
outer loop
vertex 301.425418706465 332.229063475246 46.8000000000046
vertex 299.325418706465 335.86637017114 40.3000000000046
vertex 301.425418706465 332.229063475246 52.8000000000046
endloop
endfacet
facet normal 0.866025403784438 0.500000000000002 7.95519539967019e-18
outer loop
vertex 301.425418706465 332.229063475246 52.8000000000046
vertex 299.325418706465 335.86637017114 40.3000000000046
vertex 301.425418706465 332.229063475246 60.7000000000046
endloop
endfacet
facet normal 0.866025403784438 0.500000000000002 7.95519539967019e-18
outer loop
vertex 299.325418706465 335.86637017114 40.3000000000046
vertex 289.811332045697 352.345251655204 29.2000000000041
vertex 297.075418706465 339.76348448817 39.8000000000046
endloop
endfacet
facet normal 0.866025403784438 0.500000000000002 7.95519539967019e-18
outer loop
vertex 297.075418706465 339.76348448817 39.8000000000046
vertex 289.811332045697 352.345251655204 29.2000000000041
vertex 294.575418706465 344.093611507092 39.8000000000046
endloop
endfacet
facet normal 0.866025403784438 0.500000000000002 7.95519539967019e-18
outer loop
vertex 294.575418706465 344.093611507092 39.8000000000046
vertex 289.811332045697 352.345251655204 29.2000000000041
vertex 294.575418706465 344.093611507092 40.3000000000046
endloop
endfacet
facet normal 0.866025403784438 0.500000000000002 7.95519539967019e-18
outer loop
vertex 294.575418706465 344.093611507092 40.3000000000046
vertex 289.811332045697 352.345251655204 29.2000000000041
vertex 292.325418706465 347.990725824123 40.3000000000046
endloop
endfacet
facet normal 0.866025403784438 0.500000000000002 7.95519539967019e-18
outer loop
vertex 292.325418706465 347.990725824123 40.3000000000046
vertex 289.811332045697 352.345251655204 29.2000000000041
vertex 292.325418706465 347.990725824123 42.3000000000046
endloop
endfacet
facet normal 0.866025403784438 0.500000000000002 7.95519539967019e-18
outer loop
vertex 292.325418706465 347.990725824123 42.3000000000046
vertex 289.811332045697 352.345251655204 29.2000000000041
vertex 292.325418706465 347.990725824123 57.3000000000046
endloop
endfacet
facet normal 0.866025403784438 0.500000000000002 7.95519539967019e-18
outer loop
vertex 292.325418706465 347.990725824123 57.3000000000046
vertex 289.811332045697 352.345251655204 29.2000000000041
vertex 292.325418706465 347.990725824123 59.3000000000046
endloop
endfacet
facet normal 0.866025403784438 0.500000000000002 7.95519539967019e-18
outer loop
vertex 313.803468589882 310.789652178547 70.4000000000051
vertex 311.175418706466 315.341568101449 63.3000000000046
vertex 289.811332045697 352.345251655204 70.4000000000052
endloop
endfacet
facet normal 0.866025403784438 0.500000000000002 7.95519539967019e-18
outer loop
vertex 311.175418706466 315.341568101449 63.3000000000046
vertex 313.803468589882 310.789652178547 70.4000000000051
vertex 311.425418706466 314.908555399557 60.7000000000044
endloop
endfacet
facet normal 0.866025403784438 0.500000000000002 7.95519539967019e-18
outer loop
vertex 311.425418706466 314.908555399557 60.7000000000044
vertex 313.803468589882 310.789652178547 70.4000000000051
vertex 311.425418706467 314.908555399556 52.8000000000044
endloop
endfacet
facet normal 0.866025403784438 0.500000000000002 7.95519539967019e-18
outer loop
vertex 311.425418706467 314.908555399556 52.8000000000044
vertex 313.803468589882 310.789652178547 70.4000000000051
vertex 311.425418706467 314.908555399556 46.8000000000046
endloop
endfacet
facet normal 0.866025403784438 0.500000000000002 7.95519539967019e-18
outer loop
vertex 311.425418706467 314.908555399556 46.8000000000046
vertex 313.803468589882 310.789652178547 70.4000000000051
vertex 311.425418706466 314.908555399556 38.9000000000046
endloop
endfacet
facet normal 0.866025403784438 0.500000000000002 7.95519539967019e-18
outer loop
vertex 311.175418706466 315.341568101449 63.3000000000046
vertex 311.425418706466 314.908555399557 60.7000000000044
vertex 311.175418706466 315.341568101449 60.7000000000046
endloop
endfacet
facet normal 0.866025403784438 0.500000000000002 7.95519539967019e-18
outer loop
vertex 289.811332045697 352.345251655204 70.4000000000052
vertex 311.175418706466 315.341568101449 63.3000000000046
vertex 304.225418706465 327.379321214053 63.3000000000046
endloop
endfacet
facet normal 0.866025403784438 0.500000000000002 7.95519539967019e-18
outer loop
vertex 289.811332045697 352.345251655204 70.4000000000052
vertex 304.225418706465 327.379321214053 63.3000000000046
vertex 302.225418706465 330.843422829191 60.7000000000046
endloop
endfacet
facet normal 0.866025403784438 0.500000000000002 7.95519539967019e-18
outer loop
vertex 289.811332045697 352.345251655204 70.4000000000052
vertex 302.225418706465 330.843422829191 60.7000000000046
vertex 301.425418706465 332.229063475246 60.7000000000046
endloop
endfacet
facet normal 0.866025403784438 0.500000000000002 7.95519539967019e-18
outer loop
vertex 289.811332045697 352.345251655204 70.4000000000052
vertex 301.425418706465 332.229063475246 60.7000000000046
vertex 299.325418706465 335.86637017114 59.3000000000046
endloop
endfacet
facet normal 0.866025403784438 0.500000000000002 7.95519539967019e-18
outer loop
vertex 299.325418706465 335.86637017114 59.3000000000046
vertex 301.425418706465 332.229063475246 60.7000000000046
vertex 299.325418706465 335.86637017114 40.3000000000046
endloop
endfacet
facet normal 0.866025403784438 0.500000000000002 7.95519539967019e-18
outer loop
vertex 299.325418706465 335.86637017114 59.3000000000046
vertex 299.325418706465 335.86637017114 40.3000000000046
vertex 299.325418706465 335.86637017114 42.3000000000046
endloop
endfacet
facet normal 0.866025403784438 0.500000000000002 7.95519539967019e-18
outer loop
vertex 299.325418706465 335.86637017114 59.3000000000046
vertex 299.325418706465 335.86637017114 42.3000000000046
vertex 299.325418706465 335.86637017114 57.3000000000046
endloop
endfacet
facet normal 0.866025403784438 0.500000000000002 7.95519539967019e-18
outer loop
vertex 289.811332045697 352.345251655204 70.4000000000052
vertex 299.325418706465 335.86637017114 59.3000000000046
vertex 297.075418706465 339.76348448817 59.8000000000046
endloop
endfacet
facet normal 0.866025403784438 0.500000000000002 7.95519539967019e-18
outer loop
vertex 297.075418706465 339.76348448817 59.8000000000046
vertex 299.325418706465 335.86637017114 59.3000000000046
vertex 297.075418706465 339.76348448817 59.3000000000046
endloop
endfacet
facet normal 0.866025403784438 0.500000000000002 7.95519539967019e-18
outer loop
vertex 289.811332045697 352.345251655204 70.4000000000052
vertex 297.075418706465 339.76348448817 59.8000000000046
vertex 294.575418706465 344.093611507093 59.8000000000046
endloop
endfacet
facet normal 0.866025403784438 0.500000000000002 7.95519539967019e-18
outer loop
vertex 289.811332045697 352.345251655204 70.4000000000052
vertex 294.575418706465 344.093611507093 59.8000000000046
vertex 292.325418706465 347.990725824123 59.3000000000046
endloop
endfacet
facet normal 0.866025403784438 0.500000000000002 7.95519539967019e-18
outer loop
vertex 289.811332045697 352.345251655204 70.4000000000052
vertex 292.325418706465 347.990725824123 59.3000000000046
vertex 289.811332045697 352.345251655204 29.2000000000041
endloop
endfacet
facet normal 0.866025403784438 0.500000000000002 7.95519539967019e-18
outer loop
vertex 289.811332045697 352.345251655204 70.4000000000052
vertex 289.811332045697 352.345251655204 29.2000000000041
vertex 289.811332045697 352.345251655204 31.2000000000043
endloop
endfacet
facet normal 0.866025403784438 0.500000000000002 7.95519539967019e-18
outer loop
vertex 289.811332045697 352.345251655204 70.4000000000052
vertex 289.811332045697 352.345251655204 31.2000000000043
vertex 289.811332045697 352.345251655204 68.4000000000051
endloop
endfacet
facet normal 0.866025403784438 0.500000000000002 7.95519539967019e-18
outer loop
vertex 292.325418706465 347.990725824123 42.3000000000046
vertex 292.825418706465 347.124700420338 57.3000000000046
vertex 292.825418706465 347.124700420338 42.3000000000046
endloop
endfacet
facet normal 0.866025403784438 0.500000000000002 7.95519539967019e-18
outer loop
vertex 292.825418706465 347.124700420338 57.3000000000046
vertex 292.325418706465 347.990725824123 42.3000000000046
vertex 292.325418706465 347.990725824123 57.3000000000046
endloop
endfacet
facet normal 0.866025403784438 0.500000000000002 7.95519539967019e-18
outer loop
vertex 297.075418706465 339.76348448817 40.3000000000046
vertex 299.325418706465 335.86637017114 40.3000000000046
vertex 297.075418706465 339.76348448817 39.8000000000046
endloop
endfacet
facet normal 0.866025403784438 0.500000000000002 7.95519539967019e-18
outer loop
vertex 298.825418706465 336.732395574925 42.3000000000046
vertex 299.325418706465 335.86637017114 57.3000000000046
vertex 299.325418706465 335.86637017114 42.3000000000046
endloop
endfacet
facet normal 0.866025403784438 0.500000000000002 7.95519539967019e-18
outer loop
vertex 299.325418706465 335.86637017114 57.3000000000046
vertex 298.825418706465 336.732395574925 42.3000000000046
vertex 298.825418706465 336.732395574925 57.3000000000046
endloop
endfacet
facet normal 0.866025403784438 0.500000000000002 7.95519539967019e-18
outer loop
vertex 301.425418706465 332.229063475246 46.8000000000046
vertex 301.575418706465 331.96925585411 52.8000000000046
vertex 301.575418706465 331.96925585411 46.8000000000046
endloop
endfacet
facet normal 0.866025403784438 0.500000000000002 7.95519539967019e-18
outer loop
vertex 301.575418706465 331.96925585411 52.8000000000046
vertex 301.425418706465 332.229063475246 46.8000000000046
vertex 301.425418706465 332.229063475246 52.8000000000046
endloop
endfacet
facet normal 0.866025403784438 0.500000000000002 7.95519539967019e-18
outer loop
vertex 311.175418706466 315.34156810145 38.9000000000046
vertex 311.425418706466 314.908555399556 38.9000000000046
vertex 311.175418706466 315.341568101449 36.3000000000046
endloop
endfacet
facet normal 0.866025403784438 0.500000000000002 7.95519539967019e-18
outer loop
vertex 311.175418706466 315.34156810145 46.8000000000046
vertex 311.425418706467 314.908555399556 52.8000000000044
vertex 311.425418706467 314.908555399556 46.8000000000046
endloop
endfacet
facet normal 0.866025403784438 0.500000000000002 7.95519539967019e-18
outer loop
vertex 311.425418706467 314.908555399556 52.8000000000044
vertex 311.175418706466 315.34156810145 46.8000000000046
vertex 311.175418706466 315.34156810145 52.8000000000046
endloop
endfacet
facet normal 0.500000000000007 -0.866025403784435 1.20370506368865e-18
outer loop
vertex 313.803468589882 310.789652178547 70.4000000000051
vertex 312.937443186098 310.289652178547 31.2000000000043
vertex 313.803468589882 310.789652178547 29.200000000004
endloop
endfacet
facet normal 0.500000000000007 -0.866025403784435 1.20370506368865e-18
outer loop
vertex 312.937443186098 310.289652178547 31.2000000000043
vertex 313.803468589882 310.789652178547 70.4000000000051
vertex 312.937443186098 310.289652178547 68.4000000000051
endloop
endfacet
facet normal 0.500000000000007 -0.866025403784435 1.20370506368865e-18
outer loop
vertex 312.937443186098 310.289652178547 68.4000000000051
vertex 313.803468589882 310.789652178547 70.4000000000051
vertex 297.17578083722 301.189652178546 68.4000000000051
endloop
endfacet
facet normal 0.500000000000007 -0.866025403784435 1.20370506368865e-18
outer loop
vertex 297.17578083722 301.189652178546 68.4000000000051
vertex 313.803468589882 310.789652178547 70.4000000000051
vertex 294.55078083722 299.674107721924 70.4000000000051
endloop
endfacet
facet normal 0.500000000000007 -0.866025403784435 1.20370506368865e-18
outer loop
vertex 294.55078083722 299.674107721924 70.4000000000051
vertex 313.803468589882 310.789652178547 70.4000000000051
vertex 297.17578083722 301.189652178546 70.4000000000051
endloop
endfacet
facet normal 0.500000000000007 -0.866025403784435 1.20370506368865e-18
outer loop
vertex 294.55078083722 299.674107721924 70.4000000000051
vertex 297.17578083722 301.189652178546 70.4000000000051
vertex 294.55078083722 299.674107721924 73.4000000000051
endloop
endfacet
facet normal 0.500000000000007 -0.866025403784435 1.20370506368865e-18
outer loop
vertex 297.17578083722 301.189652178546 29.2000000000038
vertex 294.55078083722 299.674107721924 29.2000000000038
vertex 294.55078083722 299.674107721924 26.2000000000038
endloop
endfacet
facet normal 0.500000000000007 -0.866025403784435 1.20370506368865e-18
outer loop
vertex 294.55078083722 299.674107721924 29.2000000000038
vertex 297.17578083722 301.189652178546 29.2000000000038
vertex 297.17578083722 301.189652178546 31.2000000000043
endloop
endfacet
facet normal 0.500000000000007 -0.866025403784435 1.20370506368865e-18
outer loop
vertex 297.17578083722 301.189652178546 31.2000000000043
vertex 297.17578083722 301.189652178546 29.2000000000038
vertex 313.803468589882 310.789652178547 29.200000000004
endloop
endfacet
facet normal 0.500000000000007 -0.866025403784435 1.20370506368865e-18
outer loop
vertex 297.17578083722 301.189652178546 31.2000000000043
vertex 313.803468589882 310.789652178547 29.200000000004
vertex 312.937443186098 310.289652178547 31.2000000000043
endloop
endfacet
facet normal -0.500000000000026 0.866025403784423 3.0606895865597e-15
outer loop
vertex 310.559393302682 314.408555399556 46.8000000000046
vertex 311.425418706466 314.908555399556 38.9000000000046
vertex 310.559393302682 314.408555399556 38.9000000000046
endloop
endfacet
facet normal -0.500000000000026 0.866025403784423 3.0606895865597e-15
outer loop
vertex 311.425418706466 314.908555399556 38.9000000000046
vertex 310.559393302682 314.408555399556 46.8000000000046
vertex 311.425418706467 314.908555399556 46.8000000000046
endloop
endfacet
facet normal 6.99175781148892e-15 -8.98817400782456e-15 1.0
outer loop
vertex 310.559393302682 314.408555399556 38.9000000000046
vertex 311.175418706466 315.34156810145 38.9000000000046
vertex 310.309393302681 314.84156810145 38.9000000000046
endloop
endfacet
facet normal 6.99175781148892e-15 -8.98817400782456e-15 1.0
outer loop
vertex 311.175418706466 315.34156810145 38.9000000000046
vertex 310.559393302682 314.408555399556 38.9000000000046
vertex 311.425418706466 314.908555399556 38.9000000000046
endloop
endfacet
facet normal -0.490856494026243 -0.285874680008831 0.823003991243125
outer loop
vertex 297.17578083722 301.189652178546 31.2000000000043
vertex 278.575957566 333.126177792276 31.2000000000043
vertex 276.906588371576 330.234745530942 29.200000000004
endloop
endfacet
facet normal 0.623551410989326 0.36000757498827 -0.693958344430187
outer loop
vertex 294.55078083722 299.674107721924 26.2000000000038
vertex 276.906588371576 330.234745530942 26.2000000000038
vertex 278.575957566 333.126177792276 29.2000000000043
endloop
endfacet
facet normal 0.866025403784439 0.499999999999998 -6.15681785123611e-19
outer loop
vertex 289.175418706465 353.446685867965 29.2000000000041
vertex 289.811332045697 352.345251655204 31.2000000000043
vertex 289.811332045697 352.345251655204 29.2000000000041
endloop
endfacet
facet normal 0.866025403784439 0.499999999999998 -6.15681785123611e-19
outer loop
vertex 289.811332045697 352.345251655204 31.2000000000043
vertex 289.175418706465 353.446685867965 29.2000000000041
vertex 289.175418706465 353.446685867965 31.2000000000043
endloop
endfacet
facet normal 1.35182484641085e-15 7.8047643897255e-16 1.0
outer loop
vertex 310.309393302681 314.841568101449 36.3000000000046
vertex 304.225418706465 327.379321214053 36.3000000000046
vertex 303.359393302681 326.879321214053 36.3000000000046
endloop
endfacet
facet normal 1.35182484641085e-15 7.8047643897255e-16 1.0
outer loop
vertex 304.225418706465 327.379321214053 36.3000000000046
vertex 310.309393302681 314.841568101449 36.3000000000046
vertex 311.175418706466 315.341568101449 36.3000000000046
endloop
endfacet
facet normal -0.476957180110371 -0.275371356328664 0.834675065192962
outer loop
vertex 297.17578083722 301.189652178546 31.2000000000043
vertex 276.906588371576 330.234745530942 29.200000000004
vertex 294.55078083722 299.674107721924 29.2000000000038
endloop
endfacet
facet normal -6.99175781148833e-15 8.98817400782355e-15 -1.0
outer loop
vertex 311.175418706466 315.34156810145 46.8000000000046
vertex 310.559393302682 314.408555399556 46.8000000000046
vertex 310.309393302681 314.84156810145 46.8000000000046
endloop
endfacet
facet normal -6.99175781148833e-15 8.98817400782355e-15 -1.0
outer loop
vertex 310.559393302682 314.408555399556 46.8000000000046
vertex 311.175418706466 315.34156810145 46.8000000000046
vertex 311.425418706467 314.908555399556 46.8000000000046
endloop
endfacet
facet normal -2.02790701962602e-15 -1.17081266367267e-15 -1.0
outer loop
vertex 297.075418706465 339.76348448817 59.3000000000046
vertex 298.45939330268 335.36637017114 59.3000000000046
vertex 296.20939330268 339.26348448817 59.3000000000046
endloop
endfacet
facet normal -2.02790701962602e-15 -1.17081266367267e-15 -1.0
outer loop
vertex 298.45939330268 335.36637017114 59.3000000000046
vertex 297.075418706465 339.76348448817 59.3000000000046
vertex 299.325418706465 335.86637017114 59.3000000000046
endloop
endfacet
facet normal -0.886630347058224 0.462478786189608 -3.78578450904926e-17
outer loop
vertex 288.079281238129 351.345251655204 31.2000000000043
vertex 278.575957566 333.126177792276 29.2000000000043
vertex 278.575957566 333.126177792276 31.2000000000043
endloop
endfacet
facet normal -0.886630347058224 0.462478786189608 -3.78578450904926e-17
outer loop
vertex 278.575957566 333.126177792276 29.2000000000043
vertex 288.079281238129 351.345251655204 31.2000000000043
vertex 288.079281238129 351.345251655204 29.2000000000042
endloop
endfacet
facet normal 2.02790701962597e-15 1.17081266367275e-15 1.0
outer loop
vertex 298.45939330268 335.36637017114 57.3000000000046
vertex 298.825418706465 336.732395574925 57.3000000000046
vertex 297.95939330268 336.232395574924 57.3000000000046
endloop
endfacet
facet normal 2.02790701962597e-15 1.17081266367275e-15 1.0
outer loop
vertex 298.825418706465 336.732395574925 57.3000000000046
vertex 298.45939330268 335.36637017114 57.3000000000046
vertex 299.325418706465 335.86637017114 57.3000000000046
endloop
endfacet
facet normal -0.500000000000007 0.866025403784434 0.0
outer loop
vertex 296.20939330268 339.26348448817 39.8000000000046
vertex 297.075418706465 339.76348448817 40.3000000000046
vertex 297.075418706465 339.76348448817 39.8000000000046
endloop
endfacet
facet normal -0.500000000000007 0.866025403784434 0.0
outer loop
vertex 297.075418706465 339.76348448817 40.3000000000046
vertex 296.20939330268 339.26348448817 39.8000000000046
vertex 296.20939330268 339.26348448817 40.3000000000046
endloop
endfacet
facet normal -2.02790701962605e-15 -1.17081266367262e-15 -1.0
outer loop
vertex 294.575418706465 344.093611507093 59.8000000000046
vertex 296.20939330268 339.26348448817 59.8000000000046
vertex 293.70939330268 343.593611507092 59.8000000000046
endloop
endfacet
facet normal -2.02790701962605e-15 -1.17081266367262e-15 -1.0
outer loop
vertex 296.20939330268 339.26348448817 59.8000000000046
vertex 294.575418706465 344.093611507093 59.8000000000046
vertex 297.075418706465 339.76348448817 59.8000000000046
endloop
endfacet
facet normal 2.02790701962605e-15 1.17081266367262e-15 1.0
outer loop
vertex 296.20939330268 339.26348448817 39.8000000000046
vertex 294.575418706465 344.093611507092 39.8000000000046
vertex 293.70939330268 343.593611507092 39.8000000000046
endloop
endfacet
facet normal 2.02790701962605e-15 1.17081266367262e-15 1.0
outer loop
vertex 294.575418706465 344.093611507092 39.8000000000046
vertex 296.20939330268 339.26348448817 39.8000000000046
vertex 297.075418706465 339.76348448817 39.8000000000046
endloop
endfacet
facet normal 0.500000000000007 -0.866025403784434 0.0
outer loop
vertex 294.575418706465 344.093611507092 40.3000000000046
vertex 293.70939330268 343.593611507092 39.8000000000046
vertex 294.575418706465 344.093611507092 39.8000000000046
endloop
endfacet
facet normal 0.500000000000007 -0.866025403784434 0.0
outer loop
vertex 293.70939330268 343.593611507092 39.8000000000046
vertex 294.575418706465 344.093611507092 40.3000000000046
vertex 293.70939330268 343.593611507092 40.3000000000046
endloop
endfacet
facet normal 2.02790701962602e-15 1.17081266367267e-15 1.0
outer loop
vertex 298.45939330268 335.36637017114 40.3000000000046
vertex 297.075418706465 339.76348448817 40.3000000000046
vertex 296.20939330268 339.26348448817 40.3000000000046
endloop
endfacet
facet normal 2.02790701962602e-15 1.17081266367267e-15 1.0
outer loop
vertex 297.075418706465 339.76348448817 40.3000000000046
vertex 298.45939330268 335.36637017114 40.3000000000046
vertex 299.325418706465 335.86637017114 40.3000000000046
endloop
endfacet
facet normal 2.02790701962584e-15 1.17081266367299e-15 1.0
outer loop
vertex 291.95939330268 346.624700420337 57.3000000000046
vertex 292.325418706465 347.990725824123 57.3000000000046
vertex 291.45939330268 347.490725824122 57.3000000000046
endloop
endfacet
facet normal 2.02790701962584e-15 1.17081266367299e-15 1.0
outer loop
vertex 292.325418706465 347.990725824123 57.3000000000046
vertex 291.95939330268 346.624700420337 57.3000000000046
vertex 292.825418706465 347.124700420338 57.3000000000046
endloop
endfacet
facet normal 0.500000000000007 -0.866025403784435 -1.90697291958911e-15
outer loop
vertex 292.825418706465 347.124700420338 57.3000000000046
vertex 291.95939330268 346.624700420337 42.3000000000046
vertex 292.825418706465 347.124700420338 42.3000000000046
endloop
endfacet
facet normal 0.500000000000007 -0.866025403784435 -1.90697291958911e-15
outer loop
vertex 291.95939330268 346.624700420337 42.3000000000046
vertex 292.825418706465 347.124700420338 57.3000000000046
vertex 291.95939330268 346.624700420337 57.3000000000046
endloop
endfacet
facet normal -0.996574422829975 -0.0827007845253109 1.68049854666266e-31
outer loop
vertex 288.829008544952 353.246685867964 68.4000000000051
vertex 288.945306641913 351.845251655204 31.2000000000043
vertex 288.945306641913 351.845251655204 68.4000000000051
endloop
endfacet
facet normal -0.996574422829975 -0.0827007845253109 1.68049854666266e-31
outer loop
vertex 288.945306641913 351.845251655204 31.2000000000043
vertex 288.829008544952 353.246685867964 68.4000000000051
vertex 288.829008544952 353.246685867964 31.2000000000043
endloop
endfacet
facet normal -0.500000000000007 0.866025403784435 0.0
outer loop
vertex 297.95939330268 336.232395574924 42.3000000000046
vertex 298.825418706465 336.732395574925 57.3000000000046
vertex 298.825418706465 336.732395574925 42.3000000000046
endloop
endfacet
facet normal -0.500000000000007 0.866025403784435 0.0
outer loop
vertex 298.825418706465 336.732395574925 57.3000000000046
vertex 297.95939330268 336.232395574924 42.3000000000046
vertex 297.95939330268 336.232395574924 57.3000000000046
endloop
endfacet
facet normal -0.930295316077129 0.366811429599673 -6.21575071666036e-18
outer loop
vertex 288.829008544952 353.246685867964 31.2000000000043
vertex 288.079281238129 351.345251655204 29.2000000000042
vertex 288.079281238129 351.345251655204 31.2000000000043
endloop
endfacet
facet normal -0.930295316077129 0.366811429599673 -6.21575071666036e-18
outer loop
vertex 288.079281238129 351.345251655204 29.2000000000042
vertex 288.829008544952 353.246685867964 31.2000000000043
vertex 288.829008544952 353.246685867964 29.2000000000041
endloop
endfacet
facet normal 1.89819668474574e-15 -1.51704634403225e-15 1.0
outer loop
vertex 279.410594488476 331.693077968469 70.4000000000052
vertex 288.079281238129 351.345251655204 70.4000000000052
vertex 278.575957566 333.126177792276 70.4000000000052
endloop
endfacet
facet normal 1.89819668474574e-15 -1.51704634403225e-15 1.0
outer loop
vertex 288.079281238129 351.345251655204 70.4000000000052
vertex 279.410594488476 331.693077968469 70.4000000000052
vertex 297.17578083722 301.189652178546 70.4000000000051
endloop
endfacet
facet normal 1.89819668474574e-15 -1.51704634403225e-15 1.0
outer loop
vertex 288.079281238129 351.345251655204 70.4000000000052
vertex 297.17578083722 301.189652178546 70.4000000000051
vertex 288.829008544952 353.246685867964 70.4000000000052
endloop
endfacet
facet normal 1.89819668474574e-15 -1.51704634403225e-15 1.0
outer loop
vertex 288.829008544952 353.246685867964 70.4000000000052
vertex 297.17578083722 301.189652178546 70.4000000000051
vertex 289.175418706465 353.446685867965 70.4000000000052
endloop
endfacet
facet normal 1.89819668474574e-15 -1.51704634403225e-15 1.0
outer loop
vertex 289.175418706465 353.446685867965 70.4000000000052
vertex 297.17578083722 301.189652178546 70.4000000000051
vertex 289.811332045697 352.345251655204 70.4000000000052
endloop
endfacet
facet normal 1.89819668474574e-15 -1.51704634403225e-15 1.0
outer loop
vertex 289.811332045697 352.345251655204 70.4000000000052
vertex 297.17578083722 301.189652178546 70.4000000000051
vertex 313.803468589882 310.789652178547 70.4000000000051
endloop
endfacet
facet normal -0.500000000000007 0.866025403784435 0.0
outer loop
vertex 298.45939330268 335.36637017114 40.3000000000046
vertex 299.325418706465 335.86637017114 42.3000000000046
vertex 299.325418706465 335.86637017114 40.3000000000046
endloop
endfacet
facet normal -0.500000000000007 0.866025403784435 0.0
outer loop
vertex 299.325418706465 335.86637017114 42.3000000000046
vertex 298.45939330268 335.36637017114 40.3000000000046
vertex 298.45939330268 335.36637017114 42.3000000000046
endloop
endfacet
facet normal -0.490856494026205 -0.285874680008809 -0.823003991243155
outer loop
vertex 297.17578083722 301.189652178546 68.4000000000051
vertex 276.906588371576 330.234745530942 70.4000000000052
vertex 278.575957566 333.126177792276 68.4000000000051
endloop
endfacet
facet normal -2.02790701962597e-15 -1.17081266367275e-15 -1.0
outer loop
vertex 298.825418706465 336.732395574925 42.3000000000046
vertex 298.45939330268 335.36637017114 42.3000000000046
vertex 297.95939330268 336.232395574924 42.3000000000046
endloop
endfacet
facet normal -2.02790701962597e-15 -1.17081266367275e-15 -1.0
outer loop
vertex 298.45939330268 335.36637017114 42.3000000000046
vertex 298.825418706465 336.732395574925 42.3000000000046
vertex 299.325418706465 335.86637017114 42.3000000000046
endloop
endfacet
facet normal 2.02790701962601e-15 1.17081266367268e-15 1.0
outer loop
vertex 293.70939330268 343.593611507092 40.3000000000046
vertex 292.325418706465 347.990725824123 40.3000000000046
vertex 291.45939330268 347.490725824122 40.3000000000046
endloop
endfacet
facet normal 2.02790701962601e-15 1.17081266367268e-15 1.0
outer loop
vertex 292.325418706465 347.990725824123 40.3000000000046
vertex 293.70939330268 343.593611507092 40.3000000000046
vertex 294.575418706465 344.093611507092 40.3000000000046
endloop
endfacet
facet normal 0.0 0.0 1.0
outer loop
vertex 297.17578083722 301.189652178546 31.2000000000043
vertex 288.079281238129 351.345251655204 31.2000000000043
vertex 278.575957566 333.126177792276 31.2000000000043
endloop
endfacet
facet normal 0.0 0.0 1.0
outer loop
vertex 288.079281238129 351.345251655204 31.2000000000043
vertex 297.17578083722 301.189652178546 31.2000000000043
vertex 288.945306641913 351.845251655204 31.2000000000043
endloop
endfacet
facet normal 0.0 0.0 1.0
outer loop
vertex 288.079281238129 351.345251655204 31.2000000000043
vertex 288.945306641913 351.845251655204 31.2000000000043
vertex 288.829008544952 353.246685867964 31.2000000000043
endloop
endfacet
facet normal 0.0 0.0 1.0
outer loop
vertex 288.945306641913 351.845251655204 31.2000000000043
vertex 297.17578083722 301.189652178546 31.2000000000043
vertex 312.937443186098 310.289652178547 31.2000000000043
endloop
endfacet
facet normal -0.476957180110295 -0.275371356328613 -0.834675065193022
outer loop
vertex 297.17578083722 301.189652178546 68.4000000000051
vertex 294.55078083722 299.674107721924 70.4000000000051
vertex 276.906588371576 330.234745530942 70.4000000000052
endloop
endfacet
facet normal -2.027907019626e-15 -1.1708126636727e-15 -1.0
outer loop
vertex 292.325418706465 347.990725824123 42.3000000000046
vertex 291.95939330268 346.624700420337 42.3000000000046
vertex 291.45939330268 347.490725824122 42.3000000000046
endloop
endfacet
facet normal -2.027907019626e-15 -1.1708126636727e-15 -1.0
outer loop
vertex 291.95939330268 346.624700420337 42.3000000000046
vertex 292.325418706465 347.990725824123 42.3000000000046
vertex 292.825418706465 347.124700420338 42.3000000000046
endloop
endfacet
facet normal 0.500000000000007 -0.866025403784435 0.0
outer loop
vertex 292.325418706465 347.990725824123 42.3000000000046
vertex 291.45939330268 347.490725824122 40.3000000000046
vertex 292.325418706465 347.990725824123 40.3000000000046
endloop
endfacet
facet normal 0.500000000000007 -0.866025403784435 0.0
outer loop
vertex 291.45939330268 347.490725824122 40.3000000000046
vertex 292.325418706465 347.990725824123 42.3000000000046
vertex 291.45939330268 347.490725824122 42.3000000000046
endloop
endfacet
facet normal -2.26949143450274e-13 3.89965541434195e-13 -1.0
outer loop
vertex 311.175418706466 315.341568101449 60.7000000000046
vertex 310.559393302681 314.408555399557 60.7000000000044
vertex 310.309393302681 314.841568101449 60.7000000000046
endloop
endfacet
facet normal -2.26949143450274e-13 3.89965541434195e-13 -1.0
outer loop
vertex 310.559393302681 314.408555399557 60.7000000000044
vertex 311.175418706466 315.341568101449 60.7000000000046
vertex 311.425418706466 314.908555399557 60.7000000000044
endloop
endfacet
facet normal 0.500000000000026 -0.866025403784423 0.0
outer loop
vertex 301.425418706465 332.229063475246 38.9000000000046
vertex 300.559393302681 331.729063475246 46.8000000000046
vertex 300.559393302681 331.729063475246 38.9000000000046
endloop
endfacet
facet normal 0.500000000000026 -0.866025403784423 0.0
outer loop
vertex 300.559393302681 331.729063475246 46.8000000000046
vertex 301.425418706465 332.229063475246 38.9000000000046
vertex 301.425418706465 332.229063475246 46.8000000000046
endloop
endfacet
facet normal 0.0 0.0 -1.0
outer loop
vertex 288.079281238129 351.345251655204 68.4000000000051
vertex 297.17578083722 301.189652178546 68.4000000000051
vertex 278.575957566 333.126177792276 68.4000000000051
endloop
endfacet
facet normal 0.0 0.0 -1.0
outer loop
vertex 297.17578083722 301.189652178546 68.4000000000051
vertex 288.079281238129 351.345251655204 68.4000000000051
vertex 288.945306641913 351.845251655204 68.4000000000051
endloop
endfacet
facet normal 0.0 0.0 -1.0
outer loop
vertex 288.945306641913 351.845251655204 68.4000000000051
vertex 288.079281238129 351.345251655204 68.4000000000051
vertex 288.829008544952 353.246685867964 68.4000000000051
endloop
endfacet
facet normal 0.0 0.0 -1.0
outer loop
vertex 297.17578083722 301.189652178546 68.4000000000051
vertex 288.945306641913 351.845251655204 68.4000000000051
vertex 312.937443186098 310.289652178547 68.4000000000051
endloop
endfacet
facet normal -0.500000000000026 0.866025403784423 0.0
outer loop
vertex 310.309393302681 314.841568101449 63.3000000000046
vertex 311.175418706466 315.341568101449 60.7000000000046
vertex 310.309393302681 314.841568101449 60.7000000000046
endloop
endfacet
facet normal -0.500000000000026 0.866025403784423 0.0
outer loop
vertex 311.175418706466 315.341568101449 60.7000000000046
vertex 310.309393302681 314.841568101449 63.3000000000046
vertex 311.175418706466 315.341568101449 63.3000000000046
endloop
endfacet
facet normal 9.98887661919286e-16 -4.51142239130078e-14 -1.0
outer loop
vertex 288.829008544952 353.246685867964 29.2000000000041
vertex 289.811332045697 352.345251655204 29.2000000000041
vertex 288.079281238129 351.345251655204 29.2000000000042
endloop
endfacet
facet normal 9.98887661919286e-16 -4.51142239130078e-14 -1.0
outer loop
vertex 289.811332045697 352.345251655204 29.2000000000041
vertex 288.829008544952 353.246685867964 29.2000000000041
vertex 289.175418706465 353.446685867965 29.2000000000041
endloop
endfacet
facet normal 0.607876441770038 0.354027063695384 -0.710739804508107
outer loop
vertex 297.17578083722 301.189652178546 29.2000000000038
vertex 294.55078083722 299.674107721924 26.2000000000038
vertex 278.575957566 333.126177792276 29.2000000000043
endloop
endfacet
endsolid Mockup
