solid Test Carriage Axles
facet normal -0.258819045102521 0.965925826289068 0.0
outer loop
vertex -23.4112510180359 7.00324577342035 5.0
vertex -22.5429995804049 7.36288729443702 0.0
vertex -23.4112510180359 7.00324577342035 0.0
endloop
endfacet
facet normal -0.5 0.866025403784438 0.0
outer loop
vertex -22.5429995804049 7.36288729443702 0.0
vertex -23.4112510180359 7.00324577342035 5.0
vertex -22.5429995804049 7.36288729443702 5.0
endloop
endfacet
facet normal 0.707106781186547 -0.707106781186548 0.0
outer loop
vertex -20.1003588932857 6.23793806094172 5.0
vertex -21.3429995804049 5.28442632535437 0.0
vertex -20.1003588932857 6.23793806094172 0.0
endloop
endfacet
facet normal 0.5 -0.866025403784439 0.0
outer loop
vertex -21.3429995804049 5.28442632535437 0.0
vertex -20.1003588932857 6.23793806094172 5.0
vertex -21.3429995804049 5.28442632535437 5.0
endloop
endfacet
facet normal -0.707106781186547 0.707106781186548 0.0
outer loop
vertex -28.5856402675242 14.7232194351803 5.0
vertex -27.3429995804049 15.6767311707676 0.0
vertex -28.5856402675242 14.7232194351803 0.0
endloop
endfacet
facet normal -0.5 0.866025403784439 0.0
outer loop
vertex -27.3429995804049 15.6767311707676 0.0
vertex -28.5856402675242 14.7232194351803 5.0
vertex -27.3429995804049 15.6767311707676 5.0
endloop
endfacet
facet normal -0.965925826289068 -0.25881904510252 0.0
outer loop
vertex -30.1385545381393 8.92766447744588 5.0
vertex -29.5391520031116 7.480578748061 0.0
vertex -29.5391520031116 7.480578748061 5.0
endloop
endfacet
facet normal -0.866025403784438 -0.5 0.0
outer loop
vertex -29.5391520031116 7.480578748061 0.0
vertex -30.1385545381393 8.92766447744588 5.0
vertex -30.1385545381393 8.92766447744588 0.0
endloop
endfacet
facet normal 0.258819045102521 0.965925826289068 0.0
outer loop
vertex -22.7900853097898 16.2761337057954 5.0
vertex -21.3429995804049 15.6767311707676 0.0
vertex -22.7900853097898 16.2761337057954 0.0
endloop
endfacet
facet normal 0.5 0.866025403784438 0.0
outer loop
vertex -21.3429995804049 15.6767311707676 0.0
vertex -22.7900853097898 16.2761337057954 5.0
vertex -21.3429995804049 15.6767311707676 5.0
endloop
endfacet
facet normal -0.866025403784438 0.500000000000001 0.0
outer loop
vertex -29.5391520031116 13.480578748061 5.0
vertex -30.1385545381393 12.0334930186761 0.0
vertex -30.1385545381393 12.0334930186761 5.0
endloop
endfacet
facet normal -0.965925826289068 0.258819045102522 0.0
outer loop
vertex -30.1385545381393 12.0334930186761 0.0
vertex -29.5391520031116 13.480578748061 5.0
vertex -29.5391520031116 13.480578748061 0.0
endloop
endfacet
facet normal 0.258819045102521 0.965925826289068 0.0
outer loop
vertex -25.274748142774 7.00324577342035 5.0
vertex -24.3429995804049 6.880578748061 0.0
vertex -25.274748142774 7.00324577342035 0.0
endloop
endfacet
facet normal 7.39622121338693e-16 1.0 0.0
outer loop
vertex -24.3429995804049 6.880578748061 0.0
vertex -25.274748142774 7.00324577342035 5.0
vertex -24.3429995804049 6.880578748061 5.0
endloop
endfacet
facet normal 1.0 1.96044417704232e-16 0.0
outer loop
vertex -27.9429995804049 10.480578748061 0.0
vertex -27.8203325550456 9.54883018569192 5.0
vertex -27.8203325550456 9.54883018569192 0.0
endloop
endfacet
facet normal 0.965925826289069 0.25881904510252 0.0
outer loop
vertex -27.8203325550456 9.54883018569192 5.0
vertex -27.9429995804049 10.480578748061 0.0
vertex -27.9429995804049 10.480578748061 5.0
endloop
endfacet
facet normal -0.866025403784439 -0.5 0.0
outer loop
vertex -21.225308126781 12.280578748061 5.0
vertex -20.8656666057643 11.4123273104301 0.0
vertex -20.8656666057643 11.4123273104301 5.0
endloop
endfacet
facet normal -0.965925826289069 -0.25881904510252 0.0
outer loop
vertex -20.8656666057643 11.4123273104301 0.0
vertex -21.225308126781 12.280578748061 5.0
vertex -21.225308126781 12.280578748061 0.0
endloop
endfacet
facet normal 0.25881904510252 -0.965925826289069 0.0
outer loop
vertex -25.274748142774 13.9579117227016 5.0
vertex -26.1429995804049 13.598270201685 0.0
vertex -25.274748142774 13.9579117227016 0.0
endloop
endfacet
facet normal 0.5 -0.866025403784439 0.0
outer loop
vertex -26.1429995804049 13.598270201685 0.0
vertex -25.274748142774 13.9579117227016 5.0
vertex -26.1429995804049 13.598270201685 5.0
endloop
endfacet
facet normal 0.5 0.866025403784439 0.0
outer loop
vertex -26.1429995804049 7.36288729443702 5.0
vertex -25.274748142774 7.00324577342035 0.0
vertex -26.1429995804049 7.36288729443702 0.0
endloop
endfacet
facet normal 0.258819045102521 0.965925826289068 0.0
outer loop
vertex -25.274748142774 7.00324577342035 0.0
vertex -26.1429995804049 7.36288729443702 5.0
vertex -25.274748142774 7.00324577342035 5.0
endloop
endfacet
facet normal -0.866025403784438 0.500000000000001 0.0
outer loop
vertex -21.225308126781 8.680578748061 5.0
vertex -21.7974151681334 7.93499433578943 0.0
vertex -21.7974151681334 7.93499433578943 5.0
endloop
endfacet
facet normal -0.707106781186547 0.707106781186548 0.0
outer loop
vertex -21.7974151681334 7.93499433578943 0.0
vertex -21.225308126781 8.680578748061 5.0
vertex -21.225308126781 8.680578748061 0.0
endloop
endfacet
facet normal -1.2921109348688e-15 -1.0 0.0
outer loop
vertex -24.3429995804049 14.080578748061 5.0
vertex -25.274748142774 13.9579117227016 0.0
vertex -24.3429995804049 14.080578748061 0.0
endloop
endfacet
facet normal 0.25881904510252 -0.965925826289069 0.0
outer loop
vertex -25.274748142774 13.9579117227016 0.0
vertex -24.3429995804049 14.080578748061 5.0
vertex -25.274748142774 13.9579117227016 5.0
endloop
endfacet
facet normal -1.0 -2.13866637495526e-16 0.0
outer loop
vertex -20.7429995804049 10.480578748061 5.0
vertex -20.8656666057643 9.54883018569192 0.0
vertex -20.8656666057643 9.54883018569192 5.0
endloop
endfacet
facet normal -0.965925826289068 0.258819045102521 0.0
outer loop
vertex -20.8656666057643 9.54883018569192 0.0
vertex -20.7429995804049 10.480578748061 5.0
vertex -20.7429995804049 10.480578748061 0.0
endloop
endfacet
facet normal 0.0 0.0 -1.0
outer loop
vertex -30.1385545381393 12.0334930186761 0.0
vertex -30.1385545381393 8.92766447744588 0.0
vertex -30.3429995804049 10.480578748061 0.0
endloop
endfacet
facet normal 0.0 0.0 -1.0
outer loop
vertex -30.1385545381393 8.92766447744588 0.0
vertex -30.1385545381393 12.0334930186761 0.0
vertex -29.5391520031116 13.480578748061 0.0
endloop
endfacet
facet normal 0.0 0.0 -1.0
outer loop
vertex -30.1385545381393 8.92766447744588 0.0
vertex -29.5391520031116 13.480578748061 0.0
vertex -29.5391520031116 7.480578748061 0.0
endloop
endfacet
facet normal 0.0 0.0 -1.0
outer loop
vertex -29.5391520031116 7.480578748061 0.0
vertex -29.5391520031116 13.480578748061 0.0
vertex -28.5856402675242 6.23793806094172 0.0
endloop
endfacet
facet normal 0.0 0.0 -1.0
outer loop
vertex -28.5856402675242 6.23793806094172 0.0
vertex -29.5391520031116 13.480578748061 0.0
vertex -28.5856402675242 14.7232194351803 0.0
endloop
endfacet
facet normal 0.0 0.0 -1.0
outer loop
vertex -28.5856402675242 6.23793806094172 0.0
vertex -28.5856402675242 14.7232194351803 0.0
vertex -27.3429995804049 15.6767311707676 0.0
endloop
endfacet
facet normal 0.0 0.0 -1.0
outer loop
vertex -28.5856402675242 6.23793806094172 0.0
vertex -27.3429995804049 15.6767311707676 0.0
vertex -27.9429995804049 10.480578748061 0.0
endloop
endfacet
facet normal 0.0 0.0 -1.0
outer loop
vertex -27.9429995804049 10.480578748061 0.0
vertex -27.3429995804049 15.6767311707676 0.0
vertex -27.8203325550456 11.4123273104301 0.0
endloop
endfacet
facet normal 0.0 0.0 -1.0
outer loop
vertex -27.8203325550456 11.4123273104301 0.0
vertex -27.3429995804049 15.6767311707676 0.0
vertex -27.4606910340289 12.280578748061 0.0
endloop
endfacet
facet normal 0.0 0.0 -1.0
outer loop
vertex -27.4606910340289 12.280578748061 0.0
vertex -27.3429995804049 15.6767311707676 0.0
vertex -26.8885839926765 13.0261631603326 0.0
endloop
endfacet
facet normal 0.0 0.0 -1.0
outer loop
vertex -26.8885839926765 13.0261631603326 0.0
vertex -27.3429995804049 15.6767311707676 0.0
vertex -25.8959138510201 16.2761337057954 0.0
endloop
endfacet
facet normal 0.0 0.0 -1.0
outer loop
vertex -26.8885839926765 13.0261631603326 0.0
vertex -25.8959138510201 16.2761337057954 0.0
vertex -26.1429995804049 13.598270201685 0.0
endloop
endfacet
facet normal 0.0 0.0 -1.0
outer loop
vertex -26.1429995804049 13.598270201685 0.0
vertex -25.8959138510201 16.2761337057954 0.0
vertex -25.274748142774 13.9579117227016 0.0
endloop
endfacet
facet normal 0.0 0.0 -1.0
outer loop
vertex -25.274748142774 13.9579117227016 0.0
vertex -25.8959138510201 16.2761337057954 0.0
vertex -24.3429995804049 16.480578748061 0.0
endloop
endfacet
facet normal 0.0 0.0 -1.0
outer loop
vertex -25.274748142774 13.9579117227016 0.0
vertex -24.3429995804049 16.480578748061 0.0
vertex -24.3429995804049 14.080578748061 0.0
endloop
endfacet
facet normal 0.0 0.0 -1.0
outer loop
vertex -24.3429995804049 14.080578748061 0.0
vertex -24.3429995804049 16.480578748061 0.0
vertex -22.7900853097898 16.2761337057954 0.0
endloop
endfacet
facet normal 0.0 0.0 -1.0
outer loop
vertex -24.3429995804049 14.080578748061 0.0
vertex -22.7900853097898 16.2761337057954 0.0
vertex -23.4112510180359 13.9579117227016 0.0
endloop
endfacet
facet normal 0.0 0.0 -1.0
outer loop
vertex -23.4112510180359 13.9579117227016 0.0
vertex -22.7900853097898 16.2761337057954 0.0
vertex -22.5429995804049 13.598270201685 0.0
endloop
endfacet
facet normal 0.0 0.0 -1.0
outer loop
vertex -22.5429995804049 13.598270201685 0.0
vertex -22.7900853097898 16.2761337057954 0.0
vertex -21.3429995804049 15.6767311707676 0.0
endloop
endfacet
facet normal 0.0 0.0 -1.0
outer loop
vertex -22.5429995804049 13.598270201685 0.0
vertex -21.3429995804049 15.6767311707676 0.0
vertex -21.7974151681334 13.0261631603326 0.0
endloop
endfacet
facet normal 0.0 0.0 -1.0
outer loop
vertex -21.7974151681334 13.0261631603326 0.0
vertex -21.3429995804049 15.6767311707676 0.0
vertex -21.225308126781 12.280578748061 0.0
endloop
endfacet
facet normal 0.0 0.0 -1.0
outer loop
vertex -21.225308126781 12.280578748061 0.0
vertex -21.3429995804049 15.6767311707676 0.0
vertex -20.1003588932857 14.7232194351803 0.0
endloop
endfacet
facet normal 0.0 0.0 -1.0
outer loop
vertex -21.225308126781 12.280578748061 0.0
vertex -20.1003588932857 14.7232194351803 0.0
vertex -20.8656666057643 11.4123273104301 0.0
endloop
endfacet
facet normal 0.0 0.0 -1.0
outer loop
vertex -20.8656666057643 11.4123273104301 0.0
vertex -20.1003588932857 14.7232194351803 0.0
vertex -20.7429995804049 10.480578748061 0.0
endloop
endfacet
facet normal 0.0 0.0 -1.0
outer loop
vertex -20.7429995804049 10.480578748061 0.0
vertex -20.1003588932857 14.7232194351803 0.0
vertex -20.1003588932857 6.23793806094172 0.0
endloop
endfacet
facet normal 0.0 0.0 -1.0
outer loop
vertex -20.1003588932857 6.23793806094172 0.0
vertex -20.1003588932857 14.7232194351803 0.0
vertex -19.1468471576983 7.480578748061 0.0
endloop
endfacet
facet normal 0.0 0.0 -1.0
outer loop
vertex -19.1468471576983 7.480578748061 0.0
vertex -20.1003588932857 14.7232194351803 0.0
vertex -19.1468471576983 13.480578748061 0.0
endloop
endfacet
facet normal 0.0 0.0 -1.0
outer loop
vertex -19.1468471576983 7.480578748061 0.0
vertex -19.1468471576983 13.480578748061 0.0
vertex -18.5474446226705 8.92766447744587 0.0
endloop
endfacet
facet normal 0.0 0.0 -1.0
outer loop
vertex -18.5474446226705 8.92766447744587 0.0
vertex -19.1468471576983 13.480578748061 0.0
vertex -18.5474446226705 12.0334930186761 0.0
endloop
endfacet
facet normal 0.0 0.0 -1.0
outer loop
vertex -18.5474446226705 8.92766447744587 0.0
vertex -18.5474446226705 12.0334930186761 0.0
vertex -18.3429995804049 10.480578748061 0.0
endloop
endfacet
facet normal 0.0 0.0 -1.0
outer loop
vertex -27.9429995804049 10.480578748061 0.0
vertex -27.3429995804049 5.28442632535437 0.0
vertex -28.5856402675242 6.23793806094172 0.0
endloop
endfacet
facet normal 0.0 0.0 -1.0
outer loop
vertex -27.3429995804049 5.28442632535437 0.0
vertex -27.9429995804049 10.480578748061 0.0
vertex -27.8203325550456 9.54883018569192 0.0
endloop
endfacet
facet normal 0.0 0.0 -1.0
outer loop
vertex -27.3429995804049 5.28442632535437 0.0
vertex -27.8203325550456 9.54883018569192 0.0
vertex -27.4606910340289 8.680578748061 0.0
endloop
endfacet
facet normal 0.0 0.0 -1.0
outer loop
vertex -27.3429995804049 5.28442632535437 0.0
vertex -27.4606910340289 8.680578748061 0.0
vertex -26.8885839926765 7.93499433578943 0.0
endloop
endfacet
facet normal 0.0 0.0 -1.0
outer loop
vertex -27.3429995804049 5.28442632535437 0.0
vertex -26.8885839926765 7.93499433578943 0.0
vertex -25.8959138510201 4.68502379032659 0.0
endloop
endfacet
facet normal 0.0 0.0 -1.0
outer loop
vertex -25.8959138510201 4.68502379032659 0.0
vertex -26.8885839926765 7.93499433578943 0.0
vertex -26.1429995804049 7.36288729443702 0.0
endloop
endfacet
facet normal 0.0 0.0 -1.0
outer loop
vertex -25.8959138510201 4.68502379032659 0.0
vertex -26.1429995804049 7.36288729443702 0.0
vertex -25.274748142774 7.00324577342035 0.0
endloop
endfacet
facet normal 0.0 0.0 -1.0
outer loop
vertex -25.8959138510201 4.68502379032659 0.0
vertex -25.274748142774 7.00324577342035 0.0
vertex -24.3429995804049 4.480578748061 0.0
endloop
endfacet
facet normal 0.0 0.0 -1.0
outer loop
vertex -24.3429995804049 4.480578748061 0.0
vertex -25.274748142774 7.00324577342035 0.0
vertex -24.3429995804049 6.880578748061 0.0
endloop
endfacet
facet normal 0.0 0.0 -1.0
outer loop
vertex -24.3429995804049 4.480578748061 0.0
vertex -24.3429995804049 6.880578748061 0.0
vertex -23.4112510180359 7.00324577342035 0.0
endloop
endfacet
facet normal 0.0 0.0 -1.0
outer loop
vertex -24.3429995804049 4.480578748061 0.0
vertex -23.4112510180359 7.00324577342035 0.0
vertex -22.7900853097898 4.68502379032659 0.0
endloop
endfacet
facet normal 0.0 0.0 -1.0
outer loop
vertex -22.7900853097898 4.68502379032659 0.0
vertex -23.4112510180359 7.00324577342035 0.0
vertex -22.5429995804049 7.36288729443702 0.0
endloop
endfacet
facet normal 0.0 0.0 -1.0
outer loop
vertex -22.7900853097898 4.68502379032659 0.0
vertex -22.5429995804049 7.36288729443702 0.0
vertex -21.3429995804049 5.28442632535437 0.0
endloop
endfacet
facet normal 0.0 0.0 -1.0
outer loop
vertex -21.3429995804049 5.28442632535437 0.0
vertex -22.5429995804049 7.36288729443702 0.0
vertex -21.7974151681334 7.93499433578943 0.0
endloop
endfacet
facet normal 0.0 0.0 -1.0
outer loop
vertex -21.3429995804049 5.28442632535437 0.0
vertex -21.7974151681334 7.93499433578943 0.0
vertex -21.225308126781 8.680578748061 0.0
endloop
endfacet
facet normal 0.0 0.0 -1.0
outer loop
vertex -21.3429995804049 5.28442632535437 0.0
vertex -21.225308126781 8.680578748061 0.0
vertex -20.1003588932857 6.23793806094172 0.0
endloop
endfacet
facet normal 0.0 0.0 -1.0
outer loop
vertex -20.1003588932857 6.23793806094172 0.0
vertex -21.225308126781 8.680578748061 0.0
vertex -20.8656666057643 9.54883018569192 0.0
endloop
endfacet
facet normal 0.0 0.0 -1.0
outer loop
vertex -20.1003588932857 6.23793806094172 0.0
vertex -20.8656666057643 9.54883018569192 0.0
vertex -20.7429995804049 10.480578748061 0.0
endloop
endfacet
facet normal -0.5 0.866025403784438 0.0
outer loop
vertex -22.5429995804049 7.36288729443702 5.0
vertex -21.7974151681334 7.93499433578943 0.0
vertex -22.5429995804049 7.36288729443702 0.0
endloop
endfacet
facet normal -0.707106781186547 0.707106781186548 0.0
outer loop
vertex -21.7974151681334 7.93499433578943 0.0
vertex -22.5429995804049 7.36288729443702 5.0
vertex -21.7974151681334 7.93499433578943 5.0
endloop
endfacet
facet normal 0.866025403784438 -0.500000000000001 0.0
outer loop
vertex -27.4606910340289 12.280578748061 0.0
vertex -27.8203325550456 11.4123273104301 5.0
vertex -27.8203325550456 11.4123273104301 0.0
endloop
endfacet
facet normal 0.965925826289069 -0.25881904510252 0.0
outer loop
vertex -27.8203325550456 11.4123273104301 5.0
vertex -27.4606910340289 12.280578748061 0.0
vertex -27.4606910340289 12.280578748061 5.0
endloop
endfacet
facet normal -0.707106781186547 -0.707106781186547 0.0
outer loop
vertex -21.7974151681334 13.0261631603326 5.0
vertex -22.5429995804049 13.598270201685 0.0
vertex -21.7974151681334 13.0261631603326 0.0
endloop
endfacet
facet normal -0.5 -0.866025403784439 0.0
outer loop
vertex -22.5429995804049 13.598270201685 0.0
vertex -21.7974151681334 13.0261631603326 5.0
vertex -22.5429995804049 13.598270201685 5.0
endloop
endfacet
facet normal -0.5 -0.866025403784439 0.0
outer loop
vertex -22.5429995804049 13.598270201685 5.0
vertex -23.4112510180359 13.9579117227016 0.0
vertex -22.5429995804049 13.598270201685 0.0
endloop
endfacet
facet normal -0.258819045102521 -0.965925826289068 0.0
outer loop
vertex -23.4112510180359 13.9579117227016 0.0
vertex -22.5429995804049 13.598270201685 5.0
vertex -23.4112510180359 13.9579117227016 5.0
endloop
endfacet
facet normal 0.965925826289069 0.25881904510252 0.0
outer loop
vertex -27.8203325550456 9.54883018569192 0.0
vertex -27.4606910340289 8.680578748061 5.0
vertex -27.4606910340289 8.680578748061 0.0
endloop
endfacet
facet normal 0.866025403784438 0.500000000000001 0.0
outer loop
vertex -27.4606910340289 8.680578748061 5.0
vertex -27.8203325550456 9.54883018569192 0.0
vertex -27.8203325550456 9.54883018569192 5.0
endloop
endfacet
facet normal 0.965925826289069 -0.25881904510252 0.0
outer loop
vertex -27.8203325550456 11.4123273104301 0.0
vertex -27.9429995804049 10.480578748061 5.0
vertex -27.9429995804049 10.480578748061 0.0
endloop
endfacet
facet normal 1.0 1.96044417704232e-16 0.0
outer loop
vertex -27.9429995804049 10.480578748061 5.0
vertex -27.8203325550456 11.4123273104301 0.0
vertex -27.8203325550456 11.4123273104301 5.0
endloop
endfacet
facet normal -0.965925826289068 0.258819045102521 0.0
outer loop
vertex -20.8656666057643 9.54883018569192 5.0
vertex -21.225308126781 8.680578748061 0.0
vertex -21.225308126781 8.680578748061 5.0
endloop
endfacet
facet normal -0.866025403784438 0.500000000000001 0.0
outer loop
vertex -21.225308126781 8.680578748061 0.0
vertex -20.8656666057643 9.54883018569192 5.0
vertex -20.8656666057643 9.54883018569192 0.0
endloop
endfacet
facet normal 0.707106781186547 -0.707106781186548 0.0
outer loop
vertex -26.8885839926765 13.0261631603326 0.0
vertex -27.4606910340289 12.280578748061 5.0
vertex -27.4606910340289 12.280578748061 0.0
endloop
endfacet
facet normal 0.866025403784438 -0.500000000000001 0.0
outer loop
vertex -27.4606910340289 12.280578748061 5.0
vertex -26.8885839926765 13.0261631603326 0.0
vertex -26.8885839926765 13.0261631603326 5.0
endloop
endfacet
facet normal -0.258819045102521 -0.965925826289068 0.0
outer loop
vertex -23.4112510180359 13.9579117227016 5.0
vertex -24.3429995804049 14.080578748061 0.0
vertex -23.4112510180359 13.9579117227016 0.0
endloop
endfacet
facet normal -1.2921109348688e-15 -1.0 0.0
outer loop
vertex -24.3429995804049 14.080578748061 0.0
vertex -23.4112510180359 13.9579117227016 5.0
vertex -24.3429995804049 14.080578748061 5.0
endloop
endfacet
facet normal 0.707106781186546 0.707106781186549 0.0
outer loop
vertex -26.8885839926765 7.93499433578943 5.0
vertex -26.1429995804049 7.36288729443702 0.0
vertex -26.8885839926765 7.93499433578943 0.0
endloop
endfacet
facet normal 0.5 0.866025403784439 0.0
outer loop
vertex -26.1429995804049 7.36288729443702 0.0
vertex -26.8885839926765 7.93499433578943 5.0
vertex -26.1429995804049 7.36288729443702 5.0
endloop
endfacet
facet normal -0.965925826289069 -0.25881904510252 0.0
outer loop
vertex -20.8656666057643 11.4123273104301 5.0
vertex -20.7429995804049 10.480578748061 0.0
vertex -20.7429995804049 10.480578748061 5.0
endloop
endfacet
facet normal -1.0 -2.13866637495526e-16 0.0
outer loop
vertex -20.7429995804049 10.480578748061 0.0
vertex -20.8656666057643 11.4123273104301 5.0
vertex -20.8656666057643 11.4123273104301 0.0
endloop
endfacet
facet normal 0.5 -0.866025403784439 0.0
outer loop
vertex -26.1429995804049 13.598270201685 5.0
vertex -26.8885839926765 13.0261631603326 0.0
vertex -26.1429995804049 13.598270201685 0.0
endloop
endfacet
facet normal 0.707106781186547 -0.707106781186548 0.0
outer loop
vertex -26.8885839926765 13.0261631603326 0.0
vertex -26.1429995804049 13.598270201685 5.0
vertex -26.8885839926765 13.0261631603326 5.0
endloop
endfacet
facet normal 0.866025403784438 0.500000000000001 0.0
outer loop
vertex -27.4606910340289 8.680578748061 0.0
vertex -26.8885839926765 7.93499433578943 5.0
vertex -26.8885839926765 7.93499433578943 0.0
endloop
endfacet
facet normal 0.707106781186546 0.707106781186549 0.0
outer loop
vertex -26.8885839926765 7.93499433578943 5.0
vertex -27.4606910340289 8.680578748061 0.0
vertex -27.4606910340289 8.680578748061 5.0
endloop
endfacet
facet normal -0.707106781186547 -0.707106781186547 0.0
outer loop
vertex -21.7974151681334 13.0261631603326 5.0
vertex -21.225308126781 12.280578748061 0.0
vertex -21.225308126781 12.280578748061 5.0
endloop
endfacet
facet normal -0.866025403784439 -0.5 0.0
outer loop
vertex -21.225308126781 12.280578748061 0.0
vertex -21.7974151681334 13.0261631603326 5.0
vertex -21.7974151681334 13.0261631603326 0.0
endloop
endfacet
facet normal 7.39622121338693e-16 1.0 0.0
outer loop
vertex -24.3429995804049 6.880578748061 5.0
vertex -23.4112510180359 7.00324577342035 0.0
vertex -24.3429995804049 6.880578748061 0.0
endloop
endfacet
facet normal -0.258819045102521 0.965925826289068 0.0
outer loop
vertex -23.4112510180359 7.00324577342035 0.0
vertex -24.3429995804049 6.880578748061 5.0
vertex -23.4112510180359 7.00324577342035 5.0
endloop
endfacet
facet normal 6.59422132277871e-16 1.0 0.0
outer loop
vertex -24.3429995804049 16.480578748061 5.0
vertex -22.7900853097898 16.2761337057954 0.0
vertex -24.3429995804049 16.480578748061 0.0
endloop
endfacet
facet normal 0.258819045102521 0.965925826289068 0.0
outer loop
vertex -22.7900853097898 16.2761337057954 0.0
vertex -24.3429995804049 16.480578748061 5.0
vertex -22.7900853097898 16.2761337057954 5.0
endloop
endfacet
facet normal -0.866025403784438 -0.5 0.0
outer loop
vertex -29.5391520031116 7.480578748061 5.0
vertex -28.5856402675242 6.23793806094172 0.0
vertex -28.5856402675242 6.23793806094172 5.0
endloop
endfacet
facet normal -0.707106781186547 -0.707106781186548 0.0
outer loop
vertex -28.5856402675242 6.23793806094172 0.0
vertex -29.5391520031116 7.480578748061 5.0
vertex -29.5391520031116 7.480578748061 0.0
endloop
endfacet
facet normal 0.0 0.0 1.0
outer loop
vertex -30.1385545381393 8.92766447744588 5.0
vertex -30.1385545381393 12.0334930186761 5.0
vertex -30.3429995804049 10.480578748061 5.0
endloop
endfacet
facet normal 0.0 0.0 1.0
outer loop
vertex -30.1385545381393 12.0334930186761 5.0
vertex -30.1385545381393 8.92766447744588 5.0
vertex -29.5391520031116 7.480578748061 5.0
endloop
endfacet
facet normal 0.0 0.0 1.0
outer loop
vertex -30.1385545381393 12.0334930186761 5.0
vertex -29.5391520031116 7.480578748061 5.0
vertex -29.5391520031116 13.480578748061 5.0
endloop
endfacet
facet normal 0.0 0.0 1.0
outer loop
vertex -29.5391520031116 13.480578748061 5.0
vertex -29.5391520031116 7.480578748061 5.0
vertex -28.5856402675242 6.23793806094172 5.0
endloop
endfacet
facet normal 0.0 0.0 1.0
outer loop
vertex -29.5391520031116 13.480578748061 5.0
vertex -28.5856402675242 6.23793806094172 5.0
vertex -28.5856402675242 14.7232194351803 5.0
endloop
endfacet
facet normal 0.0 0.0 1.0
outer loop
vertex -28.5856402675242 14.7232194351803 5.0
vertex -28.5856402675242 6.23793806094172 5.0
vertex -27.3429995804049 5.28442632535437 5.0
endloop
endfacet
facet normal 0.0 0.0 1.0
outer loop
vertex -28.5856402675242 14.7232194351803 5.0
vertex -27.3429995804049 5.28442632535437 5.0
vertex -27.9429995804049 10.480578748061 5.0
endloop
endfacet
facet normal 0.0 0.0 1.0
outer loop
vertex -27.9429995804049 10.480578748061 5.0
vertex -27.3429995804049 5.28442632535437 5.0
vertex -27.8203325550456 9.54883018569192 5.0
endloop
endfacet
facet normal 0.0 0.0 1.0
outer loop
vertex -27.8203325550456 9.54883018569192 5.0
vertex -27.3429995804049 5.28442632535437 5.0
vertex -27.4606910340289 8.680578748061 5.0
endloop
endfacet
facet normal 0.0 0.0 1.0
outer loop
vertex -27.4606910340289 8.680578748061 5.0
vertex -27.3429995804049 5.28442632535437 5.0
vertex -26.8885839926765 7.93499433578943 5.0
endloop
endfacet
facet normal 0.0 0.0 1.0
outer loop
vertex -26.8885839926765 7.93499433578943 5.0
vertex -27.3429995804049 5.28442632535437 5.0
vertex -25.8959138510201 4.68502379032659 5.0
endloop
endfacet
facet normal 0.0 0.0 1.0
outer loop
vertex -26.8885839926765 7.93499433578943 5.0
vertex -25.8959138510201 4.68502379032659 5.0
vertex -26.1429995804049 7.36288729443702 5.0
endloop
endfacet
facet normal 0.0 0.0 1.0
outer loop
vertex -26.1429995804049 7.36288729443702 5.0
vertex -25.8959138510201 4.68502379032659 5.0
vertex -25.274748142774 7.00324577342035 5.0
endloop
endfacet
facet normal 0.0 0.0 1.0
outer loop
vertex -25.274748142774 7.00324577342035 5.0
vertex -25.8959138510201 4.68502379032659 5.0
vertex -24.3429995804049 4.480578748061 5.0
endloop
endfacet
facet normal 0.0 0.0 1.0
outer loop
vertex -25.274748142774 7.00324577342035 5.0
vertex -24.3429995804049 4.480578748061 5.0
vertex -24.3429995804049 6.880578748061 5.0
endloop
endfacet
facet normal 0.0 0.0 1.0
outer loop
vertex -24.3429995804049 6.880578748061 5.0
vertex -24.3429995804049 4.480578748061 5.0
vertex -22.7900853097898 4.68502379032659 5.0
endloop
endfacet
facet normal 0.0 0.0 1.0
outer loop
vertex -24.3429995804049 6.880578748061 5.0
vertex -22.7900853097898 4.68502379032659 5.0
vertex -23.4112510180359 7.00324577342035 5.0
endloop
endfacet
facet normal 0.0 0.0 1.0
outer loop
vertex -23.4112510180359 7.00324577342035 5.0
vertex -22.7900853097898 4.68502379032659 5.0
vertex -22.5429995804049 7.36288729443702 5.0
endloop
endfacet
facet normal 0.0 0.0 1.0
outer loop
vertex -22.5429995804049 7.36288729443702 5.0
vertex -22.7900853097898 4.68502379032659 5.0
vertex -21.3429995804049 5.28442632535437 5.0
endloop
endfacet
facet normal 0.0 0.0 1.0
outer loop
vertex -22.5429995804049 7.36288729443702 5.0
vertex -21.3429995804049 5.28442632535437 5.0
vertex -21.7974151681334 7.93499433578943 5.0
endloop
endfacet
facet normal 0.0 0.0 1.0
outer loop
vertex -21.7974151681334 7.93499433578943 5.0
vertex -21.3429995804049 5.28442632535437 5.0
vertex -21.225308126781 8.680578748061 5.0
endloop
endfacet
facet normal 0.0 0.0 1.0
outer loop
vertex -21.225308126781 8.680578748061 5.0
vertex -21.3429995804049 5.28442632535437 5.0
vertex -20.1003588932857 6.23793806094172 5.0
endloop
endfacet
facet normal 0.0 0.0 1.0
outer loop
vertex -21.225308126781 8.680578748061 5.0
vertex -20.1003588932857 6.23793806094172 5.0
vertex -20.8656666057643 9.54883018569192 5.0
endloop
endfacet
facet normal 0.0 0.0 1.0
outer loop
vertex -20.8656666057643 9.54883018569192 5.0
vertex -20.1003588932857 6.23793806094172 5.0
vertex -20.7429995804049 10.480578748061 5.0
endloop
endfacet
facet normal 0.0 0.0 1.0
outer loop
vertex -27.9429995804049 10.480578748061 5.0
vertex -27.3429995804049 15.6767311707676 5.0
vertex -28.5856402675242 14.7232194351803 5.0
endloop
endfacet
facet normal 0.0 0.0 1.0
outer loop
vertex -27.3429995804049 15.6767311707676 5.0
vertex -27.9429995804049 10.480578748061 5.0
vertex -27.8203325550456 11.4123273104301 5.0
endloop
endfacet
facet normal 0.0 0.0 1.0
outer loop
vertex -27.3429995804049 15.6767311707676 5.0
vertex -27.8203325550456 11.4123273104301 5.0
vertex -27.4606910340289 12.280578748061 5.0
endloop
endfacet
facet normal 0.0 0.0 1.0
outer loop
vertex -27.3429995804049 15.6767311707676 5.0
vertex -27.4606910340289 12.280578748061 5.0
vertex -26.8885839926765 13.0261631603326 5.0
endloop
endfacet
facet normal 0.0 0.0 1.0
outer loop
vertex -27.3429995804049 15.6767311707676 5.0
vertex -26.8885839926765 13.0261631603326 5.0
vertex -25.8959138510201 16.2761337057954 5.0
endloop
endfacet
facet normal 0.0 0.0 1.0
outer loop
vertex -25.8959138510201 16.2761337057954 5.0
vertex -26.8885839926765 13.0261631603326 5.0
vertex -26.1429995804049 13.598270201685 5.0
endloop
endfacet
facet normal 0.0 0.0 1.0
outer loop
vertex -25.8959138510201 16.2761337057954 5.0
vertex -26.1429995804049 13.598270201685 5.0
vertex -25.274748142774 13.9579117227016 5.0
endloop
endfacet
facet normal 0.0 0.0 1.0
outer loop
vertex -25.8959138510201 16.2761337057954 5.0
vertex -25.274748142774 13.9579117227016 5.0
vertex -24.3429995804049 16.480578748061 5.0
endloop
endfacet
facet normal 0.0 0.0 1.0
outer loop
vertex -24.3429995804049 16.480578748061 5.0
vertex -25.274748142774 13.9579117227016 5.0
vertex -24.3429995804049 14.080578748061 5.0
endloop
endfacet
facet normal 0.0 0.0 1.0
outer loop
vertex -24.3429995804049 16.480578748061 5.0
vertex -24.3429995804049 14.080578748061 5.0
vertex -23.4112510180359 13.9579117227016 5.0
endloop
endfacet
facet normal 0.0 0.0 1.0
outer loop
vertex -24.3429995804049 16.480578748061 5.0
vertex -23.4112510180359 13.9579117227016 5.0
vertex -22.7900853097898 16.2761337057954 5.0
endloop
endfacet
facet normal 0.0 0.0 1.0
outer loop
vertex -22.7900853097898 16.2761337057954 5.0
vertex -23.4112510180359 13.9579117227016 5.0
vertex -22.5429995804049 13.598270201685 5.0
endloop
endfacet
facet normal 0.0 0.0 1.0
outer loop
vertex -22.7900853097898 16.2761337057954 5.0
vertex -22.5429995804049 13.598270201685 5.0
vertex -21.3429995804049 15.6767311707676 5.0
endloop
endfacet
facet normal 0.0 0.0 1.0
outer loop
vertex -21.3429995804049 15.6767311707676 5.0
vertex -22.5429995804049 13.598270201685 5.0
vertex -21.7974151681334 13.0261631603326 5.0
endloop
endfacet
facet normal 0.0 0.0 1.0
outer loop
vertex -21.3429995804049 15.6767311707676 5.0
vertex -21.7974151681334 13.0261631603326 5.0
vertex -21.225308126781 12.280578748061 5.0
endloop
endfacet
facet normal 0.0 0.0 1.0
outer loop
vertex -21.3429995804049 15.6767311707676 5.0
vertex -21.225308126781 12.280578748061 5.0
vertex -20.1003588932857 14.7232194351803 5.0
endloop
endfacet
facet normal 0.0 0.0 1.0
outer loop
vertex -20.1003588932857 14.7232194351803 5.0
vertex -21.225308126781 12.280578748061 5.0
vertex -20.8656666057643 11.4123273104301 5.0
endloop
endfacet
facet normal 0.0 0.0 1.0
outer loop
vertex -20.1003588932857 14.7232194351803 5.0
vertex -20.8656666057643 11.4123273104301 5.0
vertex -20.7429995804049 10.480578748061 5.0
endloop
endfacet
facet normal 0.0 0.0 1.0
outer loop
vertex -20.1003588932857 14.7232194351803 5.0
vertex -20.7429995804049 10.480578748061 5.0
vertex -20.1003588932857 6.23793806094172 5.0
endloop
endfacet
facet normal 0.0 0.0 1.0
outer loop
vertex -20.1003588932857 14.7232194351803 5.0
vertex -20.1003588932857 6.23793806094172 5.0
vertex -19.1468471576983 7.480578748061 5.0
endloop
endfacet
facet normal 0.0 0.0 1.0
outer loop
vertex -20.1003588932857 14.7232194351803 5.0
vertex -19.1468471576983 7.480578748061 5.0
vertex -19.1468471576983 13.480578748061 5.0
endloop
endfacet
facet normal 0.0 0.0 1.0
outer loop
vertex -19.1468471576983 13.480578748061 5.0
vertex -19.1468471576983 7.480578748061 5.0
vertex -18.5474446226705 8.92766447744587 5.0
endloop
endfacet
facet normal 0.0 0.0 1.0
outer loop
vertex -19.1468471576983 13.480578748061 5.0
vertex -18.5474446226705 8.92766447744587 5.0
vertex -18.5474446226705 12.0334930186761 5.0
endloop
endfacet
facet normal 0.0 0.0 1.0
outer loop
vertex -18.5474446226705 12.0334930186761 5.0
vertex -18.5474446226705 8.92766447744587 5.0
vertex -18.3429995804049 10.480578748061 5.0
endloop
endfacet
facet normal 0.866025403784438 -0.500000000000001 0.0
outer loop
vertex -19.1468471576983 7.480578748061 0.0
vertex -20.1003588932857 6.23793806094172 5.0
vertex -20.1003588932857 6.23793806094172 0.0
endloop
endfacet
facet normal 0.707106781186547 -0.707106781186548 0.0
outer loop
vertex -20.1003588932857 6.23793806094172 5.0
vertex -19.1468471576983 7.480578748061 0.0
vertex -19.1468471576983 7.480578748061 5.0
endloop
endfacet
facet normal 0.5 -0.866025403784439 0.0
outer loop
vertex -21.3429995804049 5.28442632535437 5.0
vertex -22.7900853097898 4.68502379032659 0.0
vertex -21.3429995804049 5.28442632535437 0.0
endloop
endfacet
facet normal 0.25881904510252 -0.965925826289068 0.0
outer loop
vertex -22.7900853097898 4.68502379032659 0.0
vertex -21.3429995804049 5.28442632535437 5.0
vertex -22.7900853097898 4.68502379032659 5.0
endloop
endfacet
facet normal 0.5 0.866025403784438 0.0
outer loop
vertex -21.3429995804049 15.6767311707676 5.0
vertex -20.1003588932857 14.7232194351803 0.0
vertex -21.3429995804049 15.6767311707676 0.0
endloop
endfacet
facet normal 0.707106781186548 0.707106781186547 0.0
outer loop
vertex -20.1003588932857 14.7232194351803 0.0
vertex -21.3429995804049 15.6767311707676 5.0
vertex -20.1003588932857 14.7232194351803 5.0
endloop
endfacet
facet normal -0.5 -0.866025403784439 0.0
outer loop
vertex -27.3429995804049 5.28442632535437 5.0
vertex -28.5856402675242 6.23793806094172 0.0
vertex -27.3429995804049 5.28442632535437 0.0
endloop
endfacet
facet normal -0.707106781186547 -0.707106781186548 0.0
outer loop
vertex -28.5856402675242 6.23793806094172 0.0
vertex -27.3429995804049 5.28442632535437 5.0
vertex -28.5856402675242 6.23793806094172 5.0
endloop
endfacet
facet normal -0.707106781186547 0.707106781186548 0.0
outer loop
vertex -28.5856402675242 14.7232194351803 5.0
vertex -29.5391520031116 13.480578748061 0.0
vertex -29.5391520031116 13.480578748061 5.0
endloop
endfacet
facet normal -0.866025403784438 0.500000000000001 0.0
outer loop
vertex -29.5391520031116 13.480578748061 0.0
vertex -28.5856402675242 14.7232194351803 5.0
vertex -28.5856402675242 14.7232194351803 0.0
endloop
endfacet
facet normal -1.0 -1.78222197912938e-16 0.0
outer loop
vertex -30.3429995804049 10.480578748061 5.0
vertex -30.1385545381393 8.92766447744588 0.0
vertex -30.1385545381393 8.92766447744588 5.0
endloop
endfacet
facet normal -0.965925826289068 -0.25881904510252 0.0
outer loop
vertex -30.1385545381393 8.92766447744588 0.0
vertex -30.3429995804049 10.480578748061 5.0
vertex -30.3429995804049 10.480578748061 0.0
endloop
endfacet
facet normal 0.965925826289069 0.25881904510252 0.0
outer loop
vertex -18.5474446226705 12.0334930186761 0.0
vertex -18.3429995804049 10.480578748061 5.0
vertex -18.3429995804049 10.480578748061 0.0
endloop
endfacet
facet normal 1.0 5.34666593738814e-17 0.0
outer loop
vertex -18.3429995804049 10.480578748061 5.0
vertex -18.5474446226705 12.0334930186761 0.0
vertex -18.5474446226705 12.0334930186761 5.0
endloop
endfacet
facet normal 0.25881904510252 -0.965925826289068 0.0
outer loop
vertex -22.7900853097898 4.68502379032659 5.0
vertex -24.3429995804049 4.480578748061 0.0
vertex -22.7900853097898 4.68502379032659 0.0
endloop
endfacet
facet normal -2.22777747391173e-16 -1.0 0.0
outer loop
vertex -24.3429995804049 4.480578748061 0.0
vertex -22.7900853097898 4.68502379032659 5.0
vertex -24.3429995804049 4.480578748061 5.0
endloop
endfacet
facet normal 0.707106781186548 0.707106781186547 0.0
outer loop
vertex -20.1003588932857 14.7232194351803 0.0
vertex -19.1468471576983 13.480578748061 5.0
vertex -19.1468471576983 13.480578748061 0.0
endloop
endfacet
facet normal 0.866025403784439 0.499999999999999 0.0
outer loop
vertex -19.1468471576983 13.480578748061 5.0
vertex -20.1003588932857 14.7232194351803 0.0
vertex -20.1003588932857 14.7232194351803 5.0
endloop
endfacet
facet normal -0.5 0.866025403784439 0.0
outer loop
vertex -27.3429995804049 15.6767311707676 5.0
vertex -25.8959138510201 16.2761337057954 0.0
vertex -27.3429995804049 15.6767311707676 0.0
endloop
endfacet
facet normal -0.258819045102521 0.965925826289068 0.0
outer loop
vertex -25.8959138510201 16.2761337057954 0.0
vertex -27.3429995804049 15.6767311707676 5.0
vertex -25.8959138510201 16.2761337057954 5.0
endloop
endfacet
facet normal 0.965925826289068 -0.258819045102521 0.0
outer loop
vertex -18.5474446226705 8.92766447744587 0.0
vertex -19.1468471576983 7.480578748061 5.0
vertex -19.1468471576983 7.480578748061 0.0
endloop
endfacet
facet normal 0.866025403784438 -0.500000000000001 0.0
outer loop
vertex -19.1468471576983 7.480578748061 5.0
vertex -18.5474446226705 8.92766447744587 0.0
vertex -18.5474446226705 8.92766447744587 5.0
endloop
endfacet
facet normal -0.965925826289068 0.258819045102522 0.0
outer loop
vertex -30.1385545381393 12.0334930186761 5.0
vertex -30.3429995804049 10.480578748061 0.0
vertex -30.3429995804049 10.480578748061 5.0
endloop
endfacet
facet normal -1.0 -1.78222197912938e-16 0.0
outer loop
vertex -30.3429995804049 10.480578748061 0.0
vertex -30.1385545381393 12.0334930186761 5.0
vertex -30.1385545381393 12.0334930186761 0.0
endloop
endfacet
facet normal 1.0 5.34666593738814e-17 0.0
outer loop
vertex -18.3429995804049 10.480578748061 0.0
vertex -18.5474446226705 8.92766447744587 5.0
vertex -18.5474446226705 8.92766447744587 0.0
endloop
endfacet
facet normal 0.965925826289068 -0.258819045102521 0.0
outer loop
vertex -18.5474446226705 8.92766447744587 5.0
vertex -18.3429995804049 10.480578748061 0.0
vertex -18.3429995804049 10.480578748061 5.0
endloop
endfacet
facet normal 0.866025403784439 0.499999999999999 0.0
outer loop
vertex -19.1468471576983 13.480578748061 0.0
vertex -18.5474446226705 12.0334930186761 5.0
vertex -18.5474446226705 12.0334930186761 0.0
endloop
endfacet
facet normal 0.965925826289069 0.25881904510252 0.0
outer loop
vertex -18.5474446226705 12.0334930186761 5.0
vertex -19.1468471576983 13.480578748061 0.0
vertex -19.1468471576983 13.480578748061 5.0
endloop
endfacet
facet normal -2.22777747391173e-16 -1.0 0.0
outer loop
vertex -24.3429995804049 4.480578748061 5.0
vertex -25.8959138510201 4.68502379032659 0.0
vertex -24.3429995804049 4.480578748061 0.0
endloop
endfacet
facet normal -0.258819045102521 -0.965925826289068 0.0
outer loop
vertex -25.8959138510201 4.68502379032659 0.0
vertex -24.3429995804049 4.480578748061 5.0
vertex -25.8959138510201 4.68502379032659 5.0
endloop
endfacet
facet normal -0.258819045102521 -0.965925826289068 0.0
outer loop
vertex -25.8959138510201 4.68502379032659 5.0
vertex -27.3429995804049 5.28442632535437 0.0
vertex -25.8959138510201 4.68502379032659 0.0
endloop
endfacet
facet normal -0.5 -0.866025403784439 0.0
outer loop
vertex -27.3429995804049 5.28442632535437 0.0
vertex -25.8959138510201 4.68502379032659 5.0
vertex -27.3429995804049 5.28442632535437 5.0
endloop
endfacet
facet normal -0.258819045102521 0.965925826289068 0.0
outer loop
vertex -25.8959138510201 16.2761337057954 5.0
vertex -24.3429995804049 16.480578748061 0.0
vertex -25.8959138510201 16.2761337057954 0.0
endloop
endfacet
facet normal 6.59422132277871e-16 1.0 0.0
outer loop
vertex -24.3429995804049 16.480578748061 0.0
vertex -25.8959138510201 16.2761337057954 5.0
vertex -24.3429995804049 16.480578748061 5.0
endloop
endfacet
endsolid Test Carriage Axles
