solid untitled
facet normal 0.499999999999999 -0.866025403784439 0.0
outer loop
vertex -43.1252000663471 -9.29379486524408 5.0
vertex -43.7314178489962 -9.64379486524408 0.0
vertex -43.1252000663471 -9.29379486524408 0.0
endloop
endfacet
facet normal 0.499999999999999 -0.866025403784439 0.0
outer loop
vertex -43.7314178489962 -9.64379486524408 0.0
vertex -43.1252000663471 -9.29379486524408 5.0
vertex -43.7314178489962 -9.64379486524408 5.0
endloop
endfacet
facet normal 1.0 1.51488868225997e-16 0.0
outer loop
vertex -43.4333416376429 -8.14379486524408 0.0
vertex -43.3549710381077 -8.73907866897988 5.0
vertex -43.3549710381077 -8.73907866897988 0.0
endloop
endfacet
facet normal 0.965925826289068 0.258819045102521 0.0
outer loop
vertex -43.3549710381077 -8.73907866897988 5.0
vertex -43.4333416376429 -8.14379486524408 0.0
vertex -43.4333416376429 -8.14379486524408 5.0
endloop
endfacet
facet normal -1.0 -1.51488868225997e-16 0.0
outer loop
vertex -38.8333416376429 -8.14379486524408 5.0
vertex -38.911712237178 -8.73907866897988 0.0
vertex -38.911712237178 -8.73907866897988 5.0
endloop
endfacet
facet normal -0.965925826289068 0.258819045102521 0.0
outer loop
vertex -38.911712237178 -8.73907866897988 0.0
vertex -38.8333416376429 -8.14379486524408 5.0
vertex -38.8333416376429 -8.14379486524408 0.0
endloop
endfacet
facet normal -0.707106781186549 -0.707106781186546 0.0
outer loop
vertex -39.5069960409138 -6.51744926851503 5.0
vertex -39.1414832089386 -6.99379486524408 0.0
vertex -39.1414832089386 -6.99379486524408 5.0
endloop
endfacet
facet normal -0.866025403784438 -0.500000000000002 0.0
outer loop
vertex -39.1414832089386 -6.99379486524408 0.0
vertex -39.5069960409138 -6.51744926851503 5.0
vertex -39.5069960409138 -6.51744926851503 0.0
endloop
endfacet
facet normal -5.52488813530108e-16 -1.0 0.0
outer loop
vertex -41.1333416376429 -5.84379486524408 5.0
vertex -41.7286254413786 -5.92216546477923 0.0
vertex -41.1333416376429 -5.84379486524408 0.0
endloop
endfacet
facet normal 0.25881904510252 -0.965925826289068 0.0
outer loop
vertex -41.7286254413786 -5.92216546477923 0.0
vertex -41.1333416376429 -5.84379486524408 5.0
vertex -41.7286254413786 -5.92216546477923 5.0
endloop
endfacet
facet normal -0.707106781186549 -0.707106781186546 0.0
outer loop
vertex -39.5069960409138 -6.51744926851503 5.0
vertex -39.9833416376429 -6.15193643653987 0.0
vertex -39.5069960409138 -6.51744926851503 0.0
endloop
endfacet
facet normal -0.500000000000002 -0.866025403784437 0.0
outer loop
vertex -39.9833416376429 -6.15193643653987 0.0
vertex -39.5069960409138 -6.51744926851503 5.0
vertex -39.9833416376429 -6.15193643653987 5.0
endloop
endfacet
facet normal -0.965925826289069 0.25881904510252 0.0
outer loop
vertex -44.0311191165101 -7.36733772993652 5.0
vertex -44.1333416376429 -8.14379486524408 0.0
vertex -44.1333416376429 -8.14379486524408 5.0
endloop
endfacet
facet normal -1.0 -1.24755538539057e-16 0.0
outer loop
vertex -44.1333416376429 -8.14379486524408 0.0
vertex -44.0311191165101 -7.36733772993652 5.0
vertex -44.0311191165101 -7.36733772993652 0.0
endloop
endfacet
facet normal -0.965925826289068 -0.258819045102521 0.0
outer loop
vertex -38.911712237178 -7.54851106150829 5.0
vertex -38.8333416376429 -8.14379486524408 0.0
vertex -38.8333416376429 -8.14379486524408 5.0
endloop
endfacet
facet normal -1.0 -1.51488868225997e-16 0.0
outer loop
vertex -38.8333416376429 -8.14379486524408 0.0
vertex -38.911712237178 -7.54851106150829 5.0
vertex -38.911712237178 -7.54851106150829 0.0
endloop
endfacet
facet normal 0.707106781186548 0.707106781186547 0.0
outer loop
vertex -39.0120212940832 -6.02247452168444 0.0
vertex -38.5352654262895 -6.64379486524408 5.0
vertex -38.5352654262895 -6.64379486524408 0.0
endloop
endfacet
facet normal 0.866025403784439 0.5 0.0
outer loop
vertex -38.5352654262895 -6.64379486524408 5.0
vertex -39.0120212940832 -6.02247452168444 0.0
vertex -39.0120212940832 -6.02247452168444 5.0
endloop
endfacet
facet normal -0.866025403784438 0.500000000000001 0.0
outer loop
vertex -39.1414832089386 -9.29379486524408 5.0
vertex -39.5069960409138 -9.77014046197314 0.0
vertex -39.5069960409138 -9.77014046197314 5.0
endloop
endfacet
facet normal -0.793353340291234 0.608761429008722 0.0
outer loop
vertex -39.5069960409138 -9.77014046197314 0.0
vertex -39.1414832089386 -9.29379486524408 5.0
vertex -39.1414832089386 -9.29379486524408 0.0
endloop
endfacet
facet normal -0.500000000000002 -0.866025403784437 0.0
outer loop
vertex -39.9833416376429 -6.15193643653987 5.0
vertex -40.5380578339071 -5.92216546477923 0.0
vertex -39.9833416376429 -6.15193643653987 0.0
endloop
endfacet
facet normal -0.258819045102521 -0.965925826289068 0.0
outer loop
vertex -40.5380578339071 -5.92216546477923 0.0
vertex -39.9833416376429 -6.15193643653987 5.0
vertex -40.5380578339071 -5.92216546477923 5.0
endloop
endfacet
facet normal 0.866025403784439 0.5 0.0
outer loop
vertex -38.5352654262895 -6.64379486524408 0.0
vertex -38.2355641587756 -7.36733772993652 5.0
vertex -38.2355641587756 -7.36733772993652 0.0
endloop
endfacet
facet normal 0.965925826289069 0.25881904510252 0.0
outer loop
vertex -38.2355641587756 -7.36733772993652 5.0
vertex -38.5352654262895 -6.64379486524408 0.0
vertex -38.5352654262895 -6.64379486524408 5.0
endloop
endfacet
facet normal 0.866025403784437 -0.500000000000002 0.0
outer loop
vertex -43.1252000663471 -6.99379486524408 0.0
vertex -43.3549710381077 -7.54851106150828 5.0
vertex -43.3549710381077 -7.54851106150828 0.0
endloop
endfacet
facet normal 0.965925826289068 -0.258819045102521 0.0
outer loop
vertex -43.3549710381077 -7.54851106150828 5.0
vertex -43.1252000663471 -6.99379486524408 0.0
vertex -43.1252000663471 -6.99379486524408 5.0
endloop
endfacet
facet normal -0.965925826289068 0.258819045102521 0.0
outer loop
vertex -38.911712237178 -8.73907866897988 5.0
vertex -39.1414832089386 -9.29379486524408 0.0
vertex -39.1414832089386 -9.29379486524408 5.0
endloop
endfacet
facet normal -0.866025403784438 0.500000000000001 0.0
outer loop
vertex -39.1414832089386 -9.29379486524408 0.0
vertex -38.911712237178 -8.73907866897988 5.0
vertex -38.911712237178 -8.73907866897988 0.0
endloop
endfacet
facet normal 0.866025403784438 -0.5 0.0
outer loop
vertex -38.5352654262895 -9.64379486524409 0.0
vertex -39.0120212940832 -10.2651152088037 5.0
vertex -39.0120212940832 -10.2651152088037 0.0
endloop
endfacet
facet normal 0.793353340291233 -0.608761429008723 0.0
outer loop
vertex -39.0120212940832 -10.2651152088037 5.0
vertex -38.5352654262895 -9.64379486524409 0.0
vertex -38.5352654262895 -9.64379486524409 5.0
endloop
endfacet
facet normal -0.707106781186546 0.707106781186549 0.0
outer loop
vertex -43.2546619812025 -6.02247452168444 5.0
vertex -42.6333416376429 -5.54571865389077 0.0
vertex -43.2546619812025 -6.02247452168444 0.0
endloop
endfacet
facet normal -0.499999999999999 0.866025403784439 0.0
outer loop
vertex -42.6333416376429 -5.54571865389077 0.0
vertex -43.2546619812025 -6.02247452168444 5.0
vertex -42.6333416376429 -5.54571865389077 5.0
endloop
endfacet
facet normal 0.500000000000001 0.866025403784438 0.0
outer loop
vertex -39.6333416376429 -5.54571865389077 5.0
vertex -39.0120212940832 -6.02247452168444 0.0
vertex -39.6333416376429 -5.54571865389077 0.0
endloop
endfacet
facet normal 0.707106781186548 0.707106781186547 0.0
outer loop
vertex -39.0120212940832 -6.02247452168444 0.0
vertex -39.6333416376429 -5.54571865389077 5.0
vertex -39.0120212940832 -6.02247452168444 5.0
endloop
endfacet
facet normal -0.707106781186546 0.707106781186549 0.0
outer loop
vertex -43.2546619812025 -6.02247452168444 5.0
vertex -43.7314178489962 -6.64379486524408 0.0
vertex -43.7314178489962 -6.64379486524408 5.0
endloop
endfacet
facet normal -0.866025403784438 0.5 0.0
outer loop
vertex -43.7314178489962 -6.64379486524408 0.0
vertex -43.2546619812025 -6.02247452168444 5.0
vertex -43.2546619812025 -6.02247452168444 0.0
endloop
endfacet
facet normal 0.0 0.0 1.0
outer loop
vertex -44.0311191165101 -8.92025200055165 5.0
vertex -44.0311191165101 -7.36733772993652 5.0
vertex -44.1333416376429 -8.14379486524408 5.0
endloop
endfacet
facet normal 0.0 0.0 1.0
outer loop
vertex -44.0311191165101 -7.36733772993652 5.0
vertex -44.0311191165101 -8.92025200055165 5.0
vertex -43.7314178489962 -9.64379486524408 5.0
endloop
endfacet
facet normal 0.0 0.0 1.0
outer loop
vertex -44.0311191165101 -7.36733772993652 5.0
vertex -43.7314178489962 -9.64379486524408 5.0
vertex -43.7314178489962 -6.64379486524408 5.0
endloop
endfacet
facet normal 0.0 0.0 1.0
outer loop
vertex -43.7314178489962 -6.64379486524408 5.0
vertex -43.7314178489962 -9.64379486524408 5.0
vertex -43.3549710381077 -8.73907866897988 5.0
endloop
endfacet
facet normal 0.0 0.0 1.0
outer loop
vertex -43.3549710381077 -8.73907866897988 5.0
vertex -43.7314178489962 -9.64379486524408 5.0
vertex -43.1252000663471 -9.29379486524408 5.0
endloop
endfacet
facet normal 0.0 0.0 1.0
outer loop
vertex -43.7314178489962 -6.64379486524408 5.0
vertex -43.3549710381077 -8.73907866897988 5.0
vertex -43.4333416376429 -8.14379486524408 5.0
endloop
endfacet
facet normal 0.0 0.0 1.0
outer loop
vertex -39.0120212940832 -10.2651152088037 5.0
vertex -39.1414832089386 -9.29379486524408 5.0
vertex -39.5069960409138 -9.77014046197314 5.0
endloop
endfacet
facet normal 0.0 0.0 1.0
outer loop
vertex -39.1414832089386 -9.29379486524408 5.0
vertex -39.0120212940832 -10.2651152088037 5.0
vertex -38.911712237178 -8.73907866897988 5.0
endloop
endfacet
facet normal 0.0 0.0 1.0
outer loop
vertex -38.911712237178 -8.73907866897988 5.0
vertex -39.0120212940832 -10.2651152088037 5.0
vertex -38.5352654262895 -9.64379486524409 5.0
endloop
endfacet
facet normal 0.0 0.0 1.0
outer loop
vertex -38.911712237178 -8.73907866897988 5.0
vertex -38.5352654262895 -9.64379486524409 5.0
vertex -38.8333416376429 -8.14379486524408 5.0
endloop
endfacet
facet normal 0.0 0.0 1.0
outer loop
vertex -43.4333416376429 -8.14379486524408 5.0
vertex -43.2546619812025 -6.02247452168444 5.0
vertex -43.7314178489962 -6.64379486524408 5.0
endloop
endfacet
facet normal 0.0 0.0 1.0
outer loop
vertex -43.2546619812025 -6.02247452168444 5.0
vertex -43.4333416376429 -8.14379486524408 5.0
vertex -43.3549710381077 -7.54851106150828 5.0
endloop
endfacet
facet normal 0.0 0.0 1.0
outer loop
vertex -43.2546619812025 -6.02247452168444 5.0
vertex -43.3549710381077 -7.54851106150828 5.0
vertex -43.1252000663471 -6.99379486524408 5.0
endloop
endfacet
facet normal 0.0 0.0 1.0
outer loop
vertex -43.2546619812025 -6.02247452168444 5.0
vertex -43.1252000663471 -6.99379486524408 5.0
vertex -42.6333416376429 -5.54571865389077 5.0
endloop
endfacet
facet normal 0.0 0.0 1.0
outer loop
vertex -42.6333416376429 -5.54571865389077 5.0
vertex -43.1252000663471 -6.99379486524408 5.0
vertex -42.7596872343719 -6.51744926851502 5.0
endloop
endfacet
facet normal 0.0 0.0 1.0
outer loop
vertex -42.6333416376429 -5.54571865389077 5.0
vertex -42.7596872343719 -6.51744926851502 5.0
vertex -42.2833416376428 -6.15193643653987 5.0
endloop
endfacet
facet normal 0.0 0.0 1.0
outer loop
vertex -42.6333416376429 -5.54571865389077 5.0
vertex -42.2833416376428 -6.15193643653987 5.0
vertex -41.9097987729504 -5.24601738637688 5.0
endloop
endfacet
facet normal 0.0 0.0 1.0
outer loop
vertex -41.9097987729504 -5.24601738637688 5.0
vertex -42.2833416376428 -6.15193643653987 5.0
vertex -41.7286254413786 -5.92216546477923 5.0
endloop
endfacet
facet normal 0.0 0.0 1.0
outer loop
vertex -41.9097987729504 -5.24601738637688 5.0
vertex -41.7286254413786 -5.92216546477923 5.0
vertex -41.1333416376429 -5.14379486524408 5.0
endloop
endfacet
facet normal 0.0 0.0 1.0
outer loop
vertex -41.1333416376429 -5.14379486524408 5.0
vertex -41.7286254413786 -5.92216546477923 5.0
vertex -41.1333416376429 -5.84379486524408 5.0
endloop
endfacet
facet normal 0.0 0.0 1.0
outer loop
vertex -41.1333416376429 -5.14379486524408 5.0
vertex -41.1333416376429 -5.84379486524408 5.0
vertex -40.5380578339071 -5.92216546477923 5.0
endloop
endfacet
facet normal 0.0 0.0 1.0
outer loop
vertex -41.1333416376429 -5.14379486524408 5.0
vertex -40.5380578339071 -5.92216546477923 5.0
vertex -40.3568845023353 -5.24601738637688 5.0
endloop
endfacet
facet normal 0.0 0.0 1.0
outer loop
vertex -40.3568845023353 -5.24601738637688 5.0
vertex -40.5380578339071 -5.92216546477923 5.0
vertex -39.9833416376429 -6.15193643653987 5.0
endloop
endfacet
facet normal 0.0 0.0 1.0
outer loop
vertex -40.3568845023353 -5.24601738637688 5.0
vertex -39.9833416376429 -6.15193643653987 5.0
vertex -39.6333416376429 -5.54571865389077 5.0
endloop
endfacet
facet normal 0.0 0.0 1.0
outer loop
vertex -39.6333416376429 -5.54571865389077 5.0
vertex -39.9833416376429 -6.15193643653987 5.0
vertex -39.5069960409138 -6.51744926851503 5.0
endloop
endfacet
facet normal 0.0 0.0 1.0
outer loop
vertex -39.6333416376429 -5.54571865389077 5.0
vertex -39.5069960409138 -6.51744926851503 5.0
vertex -39.0120212940832 -6.02247452168444 5.0
endloop
endfacet
facet normal 0.0 0.0 1.0
outer loop
vertex -39.0120212940832 -6.02247452168444 5.0
vertex -39.5069960409138 -6.51744926851503 5.0
vertex -39.1414832089386 -6.99379486524408 5.0
endloop
endfacet
facet normal 0.0 0.0 1.0
outer loop
vertex -39.0120212940832 -6.02247452168444 5.0
vertex -39.1414832089386 -6.99379486524408 5.0
vertex -38.911712237178 -7.54851106150829 5.0
endloop
endfacet
facet normal 0.0 0.0 1.0
outer loop
vertex -39.0120212940832 -6.02247452168444 5.0
vertex -38.911712237178 -7.54851106150829 5.0
vertex -38.5352654262895 -6.64379486524408 5.0
endloop
endfacet
facet normal 0.0 0.0 1.0
outer loop
vertex -38.5352654262895 -6.64379486524408 5.0
vertex -38.911712237178 -7.54851106150829 5.0
vertex -38.8333416376429 -8.14379486524408 5.0
endloop
endfacet
facet normal 0.0 0.0 1.0
outer loop
vertex -38.5352654262895 -6.64379486524408 5.0
vertex -38.8333416376429 -8.14379486524408 5.0
vertex -38.5352654262895 -9.64379486524409 5.0
endloop
endfacet
facet normal 0.0 0.0 1.0
outer loop
vertex -38.5352654262895 -6.64379486524408 5.0
vertex -38.5352654262895 -9.64379486524409 5.0
vertex -38.2355641587756 -8.92025200055165 5.0
endloop
endfacet
facet normal 0.0 0.0 1.0
outer loop
vertex -38.5352654262895 -6.64379486524408 5.0
vertex -38.2355641587756 -8.92025200055165 5.0
vertex -38.2355641587756 -7.36733772993652 5.0
endloop
endfacet
facet normal 0.0 0.0 1.0
outer loop
vertex -38.2355641587756 -7.36733772993652 5.0
vertex -38.2355641587756 -8.92025200055165 5.0
vertex -38.1333416376429 -8.14379486524408 5.0
endloop
endfacet
facet normal 0.258819045102521 0.965925826289068 0.0
outer loop
vertex -40.3568845023353 -5.24601738637688 5.0
vertex -39.6333416376429 -5.54571865389077 0.0
vertex -40.3568845023353 -5.24601738637688 0.0
endloop
endfacet
facet normal 0.500000000000001 0.866025403784438 0.0
outer loop
vertex -39.6333416376429 -5.54571865389077 0.0
vertex -40.3568845023353 -5.24601738637688 5.0
vertex -39.6333416376429 -5.54571865389077 5.0
endloop
endfacet
facet normal -0.866025403784438 0.5 0.0
outer loop
vertex -43.7314178489962 -6.64379486524408 5.0
vertex -44.0311191165101 -7.36733772993652 0.0
vertex -44.0311191165101 -7.36733772993652 5.0
endloop
endfacet
facet normal -0.965925826289069 0.25881904510252 0.0
outer loop
vertex -44.0311191165101 -7.36733772993652 0.0
vertex -43.7314178489962 -6.64379486524408 5.0
vertex -43.7314178489962 -6.64379486524408 0.0
endloop
endfacet
facet normal 0.707106781186547 -0.707106781186549 0.0
outer loop
vertex -42.7596872343719 -6.51744926851502 0.0
vertex -43.1252000663471 -6.99379486524408 5.0
vertex -43.1252000663471 -6.99379486524408 0.0
endloop
endfacet
facet normal 0.866025403784437 -0.500000000000002 0.0
outer loop
vertex -43.1252000663471 -6.99379486524408 5.0
vertex -42.7596872343719 -6.51744926851502 0.0
vertex -42.7596872343719 -6.51744926851502 5.0
endloop
endfacet
facet normal -0.499999999999999 0.866025403784439 0.0
outer loop
vertex -42.6333416376429 -5.54571865389077 5.0
vertex -41.9097987729504 -5.24601738637688 0.0
vertex -42.6333416376429 -5.54571865389077 0.0
endloop
endfacet
facet normal -0.258819045102521 0.965925826289068 0.0
outer loop
vertex -41.9097987729504 -5.24601738637688 0.0
vertex -42.6333416376429 -5.54571865389077 5.0
vertex -41.9097987729504 -5.24601738637688 5.0
endloop
endfacet
facet normal -0.866025403784438 -0.500000000000002 0.0
outer loop
vertex -39.1414832089386 -6.99379486524408 5.0
vertex -38.911712237178 -7.54851106150829 0.0
vertex -38.911712237178 -7.54851106150829 5.0
endloop
endfacet
facet normal -0.965925826289068 -0.258819045102521 0.0
outer loop
vertex -38.911712237178 -7.54851106150829 0.0
vertex -39.1414832089386 -6.99379486524408 5.0
vertex -39.1414832089386 -6.99379486524408 0.0
endloop
endfacet
facet normal -1.0 -1.24755538539057e-16 0.0
outer loop
vertex -44.1333416376429 -8.14379486524408 5.0
vertex -44.0311191165101 -8.92025200055165 0.0
vertex -44.0311191165101 -8.92025200055165 5.0
endloop
endfacet
facet normal -0.965925826289068 -0.25881904510252 0.0
outer loop
vertex -44.0311191165101 -8.92025200055165 0.0
vertex -44.1333416376429 -8.14379486524408 5.0
vertex -44.1333416376429 -8.14379486524408 0.0
endloop
endfacet
facet normal -0.258819045102521 -0.965925826289068 0.0
outer loop
vertex -40.5380578339071 -5.92216546477923 5.0
vertex -41.1333416376429 -5.84379486524408 0.0
vertex -40.5380578339071 -5.92216546477923 0.0
endloop
endfacet
facet normal -5.52488813530108e-16 -1.0 0.0
outer loop
vertex -41.1333416376429 -5.84379486524408 0.0
vertex -40.5380578339071 -5.92216546477923 5.0
vertex -41.1333416376429 -5.84379486524408 5.0
endloop
endfacet
facet normal 0.965925826289069 0.25881904510252 0.0
outer loop
vertex -38.2355641587756 -7.36733772993652 0.0
vertex -38.1333416376429 -8.14379486524408 5.0
vertex -38.1333416376429 -8.14379486524408 0.0
endloop
endfacet
facet normal 1.0 1.06933318747763e-16 0.0
outer loop
vertex -38.1333416376429 -8.14379486524408 5.0
vertex -38.2355641587756 -7.36733772993652 0.0
vertex -38.2355641587756 -7.36733772993652 5.0
endloop
endfacet
facet normal -0.258819045102521 0.965925826289068 0.0
outer loop
vertex -41.9097987729504 -5.24601738637688 5.0
vertex -41.1333416376429 -5.14379486524408 0.0
vertex -41.9097987729504 -5.24601738637688 0.0
endloop
endfacet
facet normal 0.0 1.0 0.0
outer loop
vertex -41.1333416376429 -5.14379486524408 0.0
vertex -41.9097987729504 -5.24601738637688 5.0
vertex -41.1333416376429 -5.14379486524408 5.0
endloop
endfacet
facet normal -0.965925826289068 -0.25881904510252 0.0
outer loop
vertex -44.0311191165101 -8.92025200055165 5.0
vertex -43.7314178489962 -9.64379486524408 0.0
vertex -43.7314178489962 -9.64379486524408 5.0
endloop
endfacet
facet normal -0.923879532511287 -0.382683432365088 -0.0
outer loop
vertex -43.7314178489962 -9.64379486524408 0.0
vertex -44.0311191165101 -8.92025200055165 5.0
vertex -44.0311191165101 -8.92025200055165 0.0
endloop
endfacet
facet normal 0.0 1.0 0.0
outer loop
vertex -41.1333416376429 -5.14379486524408 5.0
vertex -40.3568845023353 -5.24601738637688 0.0
vertex -41.1333416376429 -5.14379486524408 0.0
endloop
endfacet
facet normal 0.258819045102521 0.965925826289068 0.0
outer loop
vertex -40.3568845023353 -5.24601738637688 0.0
vertex -41.1333416376429 -5.14379486524408 5.0
vertex -40.3568845023353 -5.24601738637688 5.0
endloop
endfacet
facet normal 0.5 -0.866025403784439 0.0
outer loop
vertex -42.2833416376428 -6.15193643653987 5.0
vertex -42.7596872343719 -6.51744926851502 0.0
vertex -42.2833416376428 -6.15193643653987 0.0
endloop
endfacet
facet normal 0.707106781186547 -0.707106781186549 0.0
outer loop
vertex -42.7596872343719 -6.51744926851502 0.0
vertex -42.2833416376428 -6.15193643653987 5.0
vertex -42.7596872343719 -6.51744926851502 5.0
endloop
endfacet
facet normal -0.707106781186546 -0.707106781186549 -0.0
outer loop
vertex -39.0120212940832 -10.2651152088037 5.0
vertex -39.5069960409138 -9.77014046197314 0.0
vertex -39.0120212940832 -10.2651152088037 0.0
endloop
endfacet
facet normal -0.707106781186546 -0.707106781186549 -0.0
outer loop
vertex -39.5069960409138 -9.77014046197314 0.0
vertex -39.0120212940832 -10.2651152088037 5.0
vertex -39.5069960409138 -9.77014046197314 5.0
endloop
endfacet
facet normal 0.965925826289068 0.258819045102521 0.0
outer loop
vertex -43.3549710381077 -8.73907866897988 0.0
vertex -43.1252000663471 -9.29379486524408 5.0
vertex -43.1252000663471 -9.29379486524408 0.0
endloop
endfacet
facet normal 0.923879532511286 0.382683432365092 0.0
outer loop
vertex -43.1252000663471 -9.29379486524408 5.0
vertex -43.3549710381077 -8.73907866897988 0.0
vertex -43.3549710381077 -8.73907866897988 5.0
endloop
endfacet
facet normal 0.25881904510252 -0.965925826289068 0.0
outer loop
vertex -41.7286254413786 -5.92216546477923 5.0
vertex -42.2833416376428 -6.15193643653987 0.0
vertex -41.7286254413786 -5.92216546477923 0.0
endloop
endfacet
facet normal 0.5 -0.866025403784439 0.0
outer loop
vertex -42.2833416376428 -6.15193643653987 0.0
vertex -41.7286254413786 -5.92216546477923 5.0
vertex -42.2833416376428 -6.15193643653987 5.0
endloop
endfacet
facet normal 0.965925826289068 -0.258819045102521 0.0
outer loop
vertex -43.3549710381077 -7.54851106150828 0.0
vertex -43.4333416376429 -8.14379486524408 5.0
vertex -43.4333416376429 -8.14379486524408 0.0
endloop
endfacet
facet normal 1.0 1.51488868225997e-16 0.0
outer loop
vertex -43.4333416376429 -8.14379486524408 5.0
vertex -43.3549710381077 -7.54851106150828 0.0
vertex -43.3549710381077 -7.54851106150828 5.0
endloop
endfacet
facet normal 0.965925826289069 -0.25881904510252 0.0
outer loop
vertex -38.2355641587756 -8.92025200055165 0.0
vertex -38.5352654262895 -9.64379486524409 5.0
vertex -38.5352654262895 -9.64379486524409 0.0
endloop
endfacet
facet normal 0.866025403784438 -0.5 0.0
outer loop
vertex -38.5352654262895 -9.64379486524409 5.0
vertex -38.2355641587756 -8.92025200055165 0.0
vertex -38.2355641587756 -8.92025200055165 5.0
endloop
endfacet
facet normal 1.0 1.06933318747763e-16 0.0
outer loop
vertex -38.1333416376429 -8.14379486524408 0.0
vertex -38.2355641587756 -8.92025200055165 5.0
vertex -38.2355641587756 -8.92025200055165 0.0
endloop
endfacet
facet normal 0.965925826289069 -0.25881904510252 0.0
outer loop
vertex -38.2355641587756 -8.92025200055165 5.0
vertex -38.1333416376429 -8.14379486524408 0.0
vertex -38.1333416376429 -8.14379486524408 5.0
endloop
endfacet
facet normal 0.0 0.0 -1.0
outer loop
vertex -44.0311191165101 -7.36733772993652 0.0
vertex -44.0311191165101 -8.92025200055165 0.0
vertex -44.1333416376429 -8.14379486524408 0.0
endloop
endfacet
facet normal 0.0 0.0 -1.0
outer loop
vertex -44.0311191165101 -8.92025200055165 0.0
vertex -44.0311191165101 -7.36733772993652 0.0
vertex -43.7314178489962 -6.64379486524408 0.0
endloop
endfacet
facet normal 0.0 0.0 -1.0
outer loop
vertex -44.0311191165101 -8.92025200055165 0.0
vertex -43.7314178489962 -6.64379486524408 0.0
vertex -43.7314178489962 -9.64379486524408 0.0
endloop
endfacet
facet normal 0.0 0.0 -1.0
outer loop
vertex -43.7314178489962 -9.64379486524408 0.0
vertex -43.7314178489962 -6.64379486524408 0.0
vertex -43.2546619812025 -6.02247452168444 0.0
endloop
endfacet
facet normal 0.0 0.0 -1.0
outer loop
vertex -43.7314178489962 -9.64379486524408 0.0
vertex -43.2546619812025 -6.02247452168444 0.0
vertex -43.4333416376429 -8.14379486524408 0.0
endloop
endfacet
facet normal 0.0 0.0 -1.0
outer loop
vertex -43.4333416376429 -8.14379486524408 0.0
vertex -43.2546619812025 -6.02247452168444 0.0
vertex -43.3549710381077 -7.54851106150828 0.0
endloop
endfacet
facet normal 0.0 0.0 -1.0
outer loop
vertex -43.3549710381077 -7.54851106150828 0.0
vertex -43.2546619812025 -6.02247452168444 0.0
vertex -43.1252000663471 -6.99379486524408 0.0
endloop
endfacet
facet normal 0.0 0.0 -1.0
outer loop
vertex -43.1252000663471 -6.99379486524408 0.0
vertex -43.2546619812025 -6.02247452168444 0.0
vertex -42.6333416376429 -5.54571865389077 0.0
endloop
endfacet
facet normal 0.0 0.0 -1.0
outer loop
vertex -43.1252000663471 -6.99379486524408 0.0
vertex -42.6333416376429 -5.54571865389077 0.0
vertex -42.7596872343719 -6.51744926851502 0.0
endloop
endfacet
facet normal 0.0 0.0 -1.0
outer loop
vertex -42.7596872343719 -6.51744926851502 0.0
vertex -42.6333416376429 -5.54571865389077 0.0
vertex -42.2833416376428 -6.15193643653987 0.0
endloop
endfacet
facet normal 0.0 0.0 -1.0
outer loop
vertex -42.2833416376428 -6.15193643653987 0.0
vertex -42.6333416376429 -5.54571865389077 0.0
vertex -41.9097987729504 -5.24601738637688 0.0
endloop
endfacet
facet normal 0.0 0.0 -1.0
outer loop
vertex -42.2833416376428 -6.15193643653987 0.0
vertex -41.9097987729504 -5.24601738637688 0.0
vertex -41.7286254413786 -5.92216546477923 0.0
endloop
endfacet
facet normal 0.0 0.0 -1.0
outer loop
vertex -41.7286254413786 -5.92216546477923 0.0
vertex -41.9097987729504 -5.24601738637688 0.0
vertex -41.1333416376429 -5.14379486524408 0.0
endloop
endfacet
facet normal 0.0 0.0 -1.0
outer loop
vertex -41.7286254413786 -5.92216546477923 0.0
vertex -41.1333416376429 -5.14379486524408 0.0
vertex -41.1333416376429 -5.84379486524408 0.0
endloop
endfacet
facet normal 0.0 0.0 -1.0
outer loop
vertex -41.1333416376429 -5.84379486524408 0.0
vertex -41.1333416376429 -5.14379486524408 0.0
vertex -40.3568845023353 -5.24601738637688 0.0
endloop
endfacet
facet normal 0.0 0.0 -1.0
outer loop
vertex -41.1333416376429 -5.84379486524408 0.0
vertex -40.3568845023353 -5.24601738637688 0.0
vertex -40.5380578339071 -5.92216546477923 0.0
endloop
endfacet
facet normal 0.0 0.0 -1.0
outer loop
vertex -40.5380578339071 -5.92216546477923 0.0
vertex -40.3568845023353 -5.24601738637688 0.0
vertex -39.9833416376429 -6.15193643653987 0.0
endloop
endfacet
facet normal 0.0 0.0 -1.0
outer loop
vertex -39.9833416376429 -6.15193643653987 0.0
vertex -40.3568845023353 -5.24601738637688 0.0
vertex -39.6333416376429 -5.54571865389077 0.0
endloop
endfacet
facet normal 0.0 0.0 -1.0
outer loop
vertex -39.9833416376429 -6.15193643653987 0.0
vertex -39.6333416376429 -5.54571865389077 0.0
vertex -39.5069960409138 -6.51744926851503 0.0
endloop
endfacet
facet normal 0.0 0.0 -1.0
outer loop
vertex -39.5069960409138 -6.51744926851503 0.0
vertex -39.6333416376429 -5.54571865389077 0.0
vertex -39.0120212940832 -6.02247452168444 0.0
endloop
endfacet
facet normal 0.0 0.0 -1.0
outer loop
vertex -39.5069960409138 -6.51744926851503 0.0
vertex -39.0120212940832 -6.02247452168444 0.0
vertex -39.1414832089386 -6.99379486524408 0.0
endloop
endfacet
facet normal 0.0 0.0 -1.0
outer loop
vertex -39.1414832089386 -6.99379486524408 0.0
vertex -39.0120212940832 -6.02247452168444 0.0
vertex -38.911712237178 -7.54851106150829 0.0
endloop
endfacet
facet normal 0.0 0.0 -1.0
outer loop
vertex -38.911712237178 -7.54851106150829 0.0
vertex -39.0120212940832 -6.02247452168444 0.0
vertex -38.5352654262895 -6.64379486524408 0.0
endloop
endfacet
facet normal 0.0 0.0 -1.0
outer loop
vertex -38.911712237178 -7.54851106150829 0.0
vertex -38.5352654262895 -6.64379486524408 0.0
vertex -38.8333416376429 -8.14379486524408 0.0
endloop
endfacet
facet normal 0.0 0.0 -1.0
outer loop
vertex -39.1414832089386 -9.29379486524408 0.0
vertex -39.0120212940832 -10.2651152088037 0.0
vertex -39.5069960409138 -9.77014046197314 0.0
endloop
endfacet
facet normal 0.0 0.0 -1.0
outer loop
vertex -39.0120212940832 -10.2651152088037 0.0
vertex -39.1414832089386 -9.29379486524408 0.0
vertex -38.911712237178 -8.73907866897988 0.0
endloop
endfacet
facet normal 0.0 0.0 -1.0
outer loop
vertex -39.0120212940832 -10.2651152088037 0.0
vertex -38.911712237178 -8.73907866897988 0.0
vertex -38.5352654262895 -9.64379486524409 0.0
endloop
endfacet
facet normal 0.0 0.0 -1.0
outer loop
vertex -38.5352654262895 -9.64379486524409 0.0
vertex -38.911712237178 -8.73907866897988 0.0
vertex -38.8333416376429 -8.14379486524408 0.0
endloop
endfacet
facet normal 0.0 0.0 -1.0
outer loop
vertex -38.5352654262895 -9.64379486524409 0.0
vertex -38.8333416376429 -8.14379486524408 0.0
vertex -38.5352654262895 -6.64379486524408 0.0
endloop
endfacet
facet normal 0.0 0.0 -1.0
outer loop
vertex -38.5352654262895 -9.64379486524409 0.0
vertex -38.5352654262895 -6.64379486524408 0.0
vertex -38.2355641587756 -7.36733772993652 0.0
endloop
endfacet
facet normal 0.0 0.0 -1.0
outer loop
vertex -38.5352654262895 -9.64379486524409 0.0
vertex -38.2355641587756 -7.36733772993652 0.0
vertex -38.2355641587756 -8.92025200055165 0.0
endloop
endfacet
facet normal 0.0 0.0 -1.0
outer loop
vertex -38.2355641587756 -8.92025200055165 0.0
vertex -38.2355641587756 -7.36733772993652 0.0
vertex -38.1333416376429 -8.14379486524408 0.0
endloop
endfacet
facet normal 0.0 0.0 -1.0
outer loop
vertex -43.7314178489962 -9.64379486524408 0.0
vertex -43.3549710381077 -8.73907866897988 0.0
vertex -43.1252000663471 -9.29379486524408 0.0
endloop
endfacet
facet normal 0.0 0.0 -1.0
outer loop
vertex -43.3549710381077 -8.73907866897988 0.0
vertex -43.7314178489962 -9.64379486524408 0.0
vertex -43.4333416376429 -8.14379486524408 0.0
endloop
endfacet
endsolid untitled
