solid Plug Test
facet normal -0.485261683878198 0.870630780156405 -0.0807659755339233
outer loop
vertex 214.18357342297 123.975784078696 -8.44519931205565
vertex 215.682803599573 126.263732388555 7.21039394478769
vertex 215.682803599573 124.8042771069 -8.52205628652871
endloop
endfacet
facet normal -0.485261683878198 0.870630780156405 -0.0807659755339233
outer loop
vertex 215.682803599573 126.263732388555 7.21039394478769
vertex 214.18357342297 123.975784078696 -8.44519931205565
vertex 214.18357342297 125.435239360351 7.28725091926075
endloop
endfacet
facet normal -0.832050294337831 -0.552328685469315 0.0512379829820442
outer loop
vertex 206.837503795798 125.435239360351 7.28725091926075
vertex 206.282803599573 124.8042771069 -8.52205628652871
vertex 206.837503795798 123.975784078696 -8.44519931205565
endloop
endfacet
facet normal -0.832050294337831 -0.552328685469315 0.0512379829820442
outer loop
vertex 206.282803599573 124.8042771069 -8.52205628652871
vertex 206.837503795798 125.435239360351 7.28725091926075
vertex 206.282803599573 126.263732388555 7.21039394478769
endloop
endfacet
facet normal 0.0 0.995724698184583 -0.0923705874465546
outer loop
vertex 202.482803599573 132.770074692376 -9.26102098610115
vertex 205.482803599573 133.499802333204 -1.39479587044296
vertex 209.482803599573 132.770074692376 -9.26102098610115
endloop
endfacet
facet normal 0.0 0.995724698184583 -0.0923705874465546
outer loop
vertex 205.482803599573 133.499802333204 -1.39479587044296
vertex 202.482803599573 132.770074692376 -9.26102098610115
vertex 202.482803599573 134.229529974032 6.47142924521525
endloop
endfacet
facet normal 0.0 0.995724698184583 -0.0923705874465546
outer loop
vertex 209.482803599573 132.770074692376 -9.26102098610115
vertex 205.482803599573 133.499802333204 -1.39479587044296
vertex 207.982803599573 133.099825956748 -5.70641028946017
endloop
endfacet
facet normal 0.0 0.995724698184583 -0.0923705874465546
outer loop
vertex 209.482803599573 132.770074692376 -9.26102098610115
vertex 207.982803599573 133.099825956748 -5.70641028946017
vertex 209.482803599573 132.859840130874 -8.29337894087043
endloop
endfacet
facet normal 0.0 0.995724698184583 -0.0923705874465546
outer loop
vertex 205.482803599573 133.499802333204 -1.39479587044296
vertex 202.482803599573 134.229529974032 6.47142924521525
vertex 207.982803599573 133.89977870966 2.91681854857426
endloop
endfacet
facet normal 0.0 0.995724698184583 -0.0923705874465546
outer loop
vertex 207.982803599573 133.89977870966 2.91681854857426
vertex 202.482803599573 134.229529974032 6.47142924521525
vertex 209.482803599573 134.139764535534 5.50378719998457
endloop
endfacet
facet normal 0.0 0.995724698184583 -0.0923705874465546
outer loop
vertex 209.482803599573 134.139764535534 5.50378719998457
vertex 202.482803599573 134.229529974032 6.47142924521525
vertex 209.482803599573 134.229529974032 6.47142924521525
endloop
endfacet
facet normal 0.471857925532024 0.877905173755224 -0.0814408006249003
outer loop
vertex 205.282803599573 126.263732388555 7.21039394478769
vertex 206.837503795798 123.975784078696 -8.44519931205565
vertex 205.282803599573 124.8042771069 -8.52205628652871
endloop
endfacet
facet normal 0.471857925532024 0.877905173755224 -0.0814408006249003
outer loop
vertex 206.837503795798 123.975784078696 -8.44519931205565
vertex 205.282803599573 126.263732388555 7.21039394478769
vertex 206.837503795798 125.435239360351 7.28725091926075
endloop
endfacet
facet normal 0.0 0.995724698184583 -0.0923705874465546
outer loop
vertex 211.482803599573 132.859840130874 -8.29337894087034
vertex 218.482803599573 132.770074692376 -9.26102098610115
vertex 211.482803599573 132.770074692376 -9.26102098610115
endloop
endfacet
facet normal 0.0 0.995724698184583 -0.0923705874465546
outer loop
vertex 218.482803599573 132.770074692376 -9.26102098610115
vertex 211.482803599573 132.859840130874 -8.29337894087034
vertex 212.982803599573 133.099825956748 -5.70641028946017
endloop
endfacet
facet normal 0.0 0.995724698184583 -0.0923705874465546
outer loop
vertex 218.482803599573 132.770074692376 -9.26102098610115
vertex 212.982803599573 133.099825956748 -5.70641028946017
vertex 215.482803599573 133.499802333204 -1.39479587044296
endloop
endfacet
facet normal 0.0 0.995724698184583 -0.0923705874465546
outer loop
vertex 218.482803599573 132.770074692376 -9.26102098610115
vertex 215.482803599573 133.499802333204 -1.39479587044296
vertex 218.482803599573 134.229529974032 6.47142924521523
endloop
endfacet
facet normal 0.0 0.995724698184583 -0.0923705874465546
outer loop
vertex 218.482803599573 134.229529974032 6.47142924521523
vertex 215.482803599573 133.499802333204 -1.39479587044296
vertex 212.982803599573 133.89977870966 2.91681854857426
endloop
endfacet
facet normal 0.0 0.995724698184583 -0.0923705874465546
outer loop
vertex 218.482803599573 134.229529974032 6.47142924521523
vertex 212.982803599573 133.89977870966 2.91681854857426
vertex 211.482803599573 134.139764535534 5.50378719998446
endloop
endfacet
facet normal 0.0 0.995724698184583 -0.0923705874465546
outer loop
vertex 218.482803599573 134.229529974032 6.47142924521523
vertex 211.482803599573 134.139764535534 5.50378719998446
vertex 211.482803599573 134.229529974032 6.47142924521525
endloop
endfacet
facet normal -0.992277876713667 0.12350444866325 -0.0114571612977831
outer loop
vertex 210.482803599573 125.853985848892 2.79346036434326
vertex 210.857803599573 128.721167030509 1.22286427629842
vertex 210.482803599573 125.733992935955 1.49997603863809
endloop
endfacet
facet normal -0.992277876713667 0.12350444866325 -0.0114571612977831
outer loop
vertex 210.857803599573 128.721167030509 1.22286427629842
vertex 210.482803599573 125.853985848892 2.79346036434326
vertex 210.482803599573 125.933981124183 3.6557832481467
endloop
endfacet
facet normal -0.992277876713667 0.12350444866325 -0.0114571612977831
outer loop
vertex 210.857803599573 128.721167030509 1.22286427629842
vertex 210.482803599573 125.933981124183 3.6557832481467
vertex 210.482803599573 126.263732388555 7.21039394478769
endloop
endfacet
facet normal -0.992277876713667 0.12350444866325 -0.0114571612977831
outer loop
vertex 210.857803599573 128.721167030509 1.22286427629842
vertex 210.482803599573 126.263732388555 7.21039394478769
vertex 210.857803599573 129.101144588142 5.31889797436478
endloop
endfacet
facet normal -0.992277876713667 0.12350444866325 -0.0114571612977831
outer loop
vertex 210.857803599573 129.101144588142 5.31889797436478
vertex 210.482803599573 126.263732388555 7.21039394478769
vertex 211.482803599573 134.229529974032 6.47142924521525
endloop
endfacet
facet normal -0.992277876713667 0.12350444866325 -0.0114571612977831
outer loop
vertex 210.857803599573 129.101144588142 5.31889797436478
vertex 211.482803599573 134.229529974032 6.47142924521525
vertex 211.482803599573 134.139764535534 5.50378719998446
endloop
endfacet
facet normal -0.970142500145332 0.241498712038311 -0.0224031581613233
outer loop
vertex 202.482803599573 124.272282992186 7.39513511968079
vertex 202.982803599573 124.8042771069 -8.52205628652871
vertex 202.482803599573 122.81282771053 -8.33731511163561
endloop
endfacet
facet normal -0.970142500145332 0.241498712038311 -0.0224031581613233
outer loop
vertex 202.982803599573 124.8042771069 -8.52205628652871
vertex 202.482803599573 124.272282992186 7.39513511968079
vertex 202.982803599573 126.263732388555 7.21039394478766
endloop
endfacet
facet normal 0.97014250014533 0.241498712038322 -0.0224031581613243
outer loop
vertex 217.982803599573 124.8042771069 -8.52205628652871
vertex 218.482803599573 124.272282992186 7.39513511968079
vertex 218.482803599573 122.81282771053 -8.33731511163561
endloop
endfacet
facet normal 0.97014250014533 0.241498712038322 -0.0224031581613243
outer loop
vertex 218.482803599573 124.272282992186 7.39513511968079
vertex 217.982803599573 124.8042771069 -8.52205628652871
vertex 217.982803599573 126.263732388555 7.21039394478766
endloop
endfacet
facet normal 0.970339043700029 -0.240714546531723 0.0223304133267009
outer loop
vertex 218.633051740062 131.274016848959 -9.12223589610347
vertex 218.40545350146 131.823834063561 6.69459890734489
vertex 218.40545350146 130.364378781905 -9.03785132397151
endloop
endfacet
facet normal 0.970339043700029 -0.240714546531723 0.0223304133267009
outer loop
vertex 218.40545350146 131.823834063561 6.69459890734489
vertex 218.633051740062 131.274016848959 -9.12223589610347
vertex 218.633051740062 132.733472130615 6.61021433521293
endloop
endfacet
facet normal 0.992277876713668 0.123504448663239 -0.0114571612977814
outer loop
vertex 210.482803599573 124.8042771069 -8.52205628652871
vertex 210.107803599573 127.94121309642 -7.18478384078516
vertex 210.482803599573 125.134028371271 -4.96744558988773
endloop
endfacet
facet normal 0.992277876713668 0.123504448663239 -0.0114571612977814
outer loop
vertex 210.107803599573 127.94121309642 -7.18478384078516
vertex 210.482803599573 124.8042771069 -8.52205628652871
vertex 209.482803599573 132.770074692376 -9.26102098610115
endloop
endfacet
facet normal 0.992277876713668 0.123504448663239 -0.0114571612977814
outer loop
vertex 210.482803599573 125.134028371271 -4.96744558988773
vertex 210.107803599573 127.94121309642 -7.18478384078516
vertex 210.482803599573 125.214023646562 -4.1051227060843
endloop
endfacet
facet normal 0.992277876713668 0.123504448663239 -0.0114571612977814
outer loop
vertex 210.482803599573 125.214023646562 -4.1051227060843
vertex 210.107803599573 127.94121309642 -7.18478384078516
vertex 210.482803599573 125.334016559499 -2.81163838037912
endloop
endfacet
facet normal 0.992277876713668 0.123504448663239 -0.0114571612977814
outer loop
vertex 210.107803599573 127.94121309642 -7.18478384078516
vertex 209.482803599573 132.770074692376 -9.26102098610115
vertex 209.482803599573 132.859840130874 -8.29337894087043
endloop
endfacet
facet normal 0.992277876713668 0.123504448663239 -0.0114571612977814
outer loop
vertex 210.107803599573 128.321190654053 -3.08875014271878
vertex 210.482803599573 125.334016559499 -2.81163838037912
vertex 210.107803599573 127.94121309642 -7.18478384078516
endloop
endfacet
facet normal -0.970339043700035 -0.240714546531698 0.0223304133266986
outer loop
vertex 202.560153697685 131.823834063561 6.69459890734487
vertex 202.332555459083 131.274016848959 -9.12223589610347
vertex 202.560153697685 130.364378781905 -9.03785132397151
endloop
endfacet
facet normal -0.970339043700035 -0.240714546531698 0.0223304133266986
outer loop
vertex 202.332555459083 131.274016848959 -9.12223589610347
vertex 202.560153697685 131.823834063561 6.69459890734487
vertex 202.332555459083 132.733472130615 6.6102143352129
endloop
endfacet
facet normal 0.857492925712535 -0.512296130790338 0.0475242751676009
outer loop
vertex 214.682803599573 124.8042771069 -8.52205628652871
vertex 214.18357342297 125.435239360351 7.28725091926075
vertex 214.18357342297 123.975784078696 -8.44519931205565
endloop
endfacet
facet normal 0.857492925712535 -0.512296130790338 0.0475242751676009
outer loop
vertex 214.18357342297 125.435239360351 7.28725091926075
vertex 214.682803599573 124.8042771069 -8.52205628652871
vertex 214.682803599573 126.263732388555 7.21039394478769
endloop
endfacet
facet normal -0.992277876713667 0.12350444866325 -0.0114571612977833
outer loop
vertex 210.857803599573 128.321190654053 -3.08875014271878
vertex 210.857803599573 127.94121309642 -7.18478384078516
vertex 210.482803599573 125.334016559499 -2.81163838037912
endloop
endfacet
facet normal -0.992277876713667 0.12350444866325 -0.0114571612977833
outer loop
vertex 210.482803599573 124.8042771069 -8.52205628652871
vertex 210.857803599573 127.94121309642 -7.18478384078516
vertex 211.482803599573 132.770074692376 -9.26102098610115
endloop
endfacet
facet normal -0.992277876713667 0.12350444866325 -0.0114571612977833
outer loop
vertex 210.857803599573 127.94121309642 -7.18478384078516
vertex 210.482803599573 124.8042771069 -8.52205628652871
vertex 210.482803599573 125.134028371271 -4.96744558988773
endloop
endfacet
facet normal -0.992277876713667 0.12350444866325 -0.0114571612977833
outer loop
vertex 210.857803599573 127.94121309642 -7.18478384078516
vertex 210.482803599573 125.134028371271 -4.96744558988773
vertex 210.482803599573 125.214023646562 -4.1051227060843
endloop
endfacet
facet normal -0.992277876713667 0.12350444866325 -0.0114571612977833
outer loop
vertex 210.857803599573 127.94121309642 -7.18478384078516
vertex 210.482803599573 125.214023646562 -4.1051227060843
vertex 210.482803599573 125.334016559499 -2.81163838037912
endloop
endfacet
facet normal -0.992277876713667 0.12350444866325 -0.0114571612977833
outer loop
vertex 211.482803599573 132.770074692376 -9.26102098610115
vertex 210.857803599573 127.94121309642 -7.18478384078516
vertex 211.482803599573 132.859840130874 -8.29337894087034
endloop
endfacet
facet normal 0.866025403784441 -0.0461852937232769 -0.497862349092288
outer loop
vertex 207.982803599573 128.521178842281 -0.932942933210189
vertex 209.232803599573 118.664347578845 2.15580720950862
vertex 207.982803599573 118.464359390617 9.86988268891764e-15
endloop
endfacet
facet normal 0.866025403784441 -0.0461852937232769 -0.497862349092288
outer loop
vertex 209.232803599573 118.664347578845 2.15580720950862
vertex 207.982803599573 128.521178842281 -0.932942933210189
vertex 209.232803599573 128.721167030509 1.22286427629842
endloop
endfacet
facet normal 0.992277876713668 0.123504448663239 -0.0114571612977823
outer loop
vertex 210.107803599573 128.721167030509 1.22286427629842
vertex 210.482803599573 125.853985848892 2.79346036434326
vertex 210.482803599573 125.733992935955 1.49997603863809
endloop
endfacet
facet normal 0.992277876713668 0.123504448663239 -0.0114571612977823
outer loop
vertex 210.482803599573 125.853985848892 2.79346036434326
vertex 210.107803599573 128.721167030509 1.22286427629842
vertex 210.482803599573 125.933981124183 3.6557832481467
endloop
endfacet
facet normal 0.992277876713668 0.123504448663239 -0.0114571612977823
outer loop
vertex 210.482803599573 125.933981124183 3.6557832481467
vertex 210.107803599573 128.721167030509 1.22286427629842
vertex 210.482803599573 126.263732388555 7.21039394478769
endloop
endfacet
facet normal 0.992277876713668 0.123504448663239 -0.0114571612977823
outer loop
vertex 210.482803599573 126.263732388555 7.21039394478769
vertex 210.107803599573 128.721167030509 1.22286427629842
vertex 210.107803599573 129.101144588142 5.31889797436478
endloop
endfacet
facet normal 0.992277876713668 0.123504448663239 -0.0114571612977823
outer loop
vertex 210.482803599573 126.263732388555 7.21039394478769
vertex 210.107803599573 129.101144588142 5.31889797436478
vertex 209.482803599573 134.229529974032 6.47142924521525
endloop
endfacet
facet normal 0.992277876713668 0.123504448663239 -0.0114571612977823
outer loop
vertex 209.482803599573 134.229529974032 6.47142924521525
vertex 210.107803599573 129.101144588142 5.31889797436478
vertex 209.482803599573 134.139764535534 5.50378719998457
endloop
endfacet
facet normal -0.866025403784441 -0.0461852937232769 -0.497862349092288
outer loop
vertex 211.732803599573 118.664347578845 2.15580720950862
vertex 212.982803599573 128.521178842281 -0.932942933210189
vertex 212.982803599573 118.464359390617 9.86988268891764e-15
endloop
endfacet
facet normal -0.866025403784441 -0.0461852937232769 -0.497862349092288
outer loop
vertex 212.982803599573 128.521178842281 -0.932942933210189
vertex 211.732803599573 118.664347578845 2.15580720950862
vertex 211.732803599573 128.721167030509 1.22286427629842
endloop
endfacet
facet normal -0.866025403784441 0.0461852937232769 0.497862349092288
outer loop
vertex 212.982803599573 118.464359390617 9.86988268891764e-15
vertex 211.732803599573 128.321190654053 -3.08875014271878
vertex 211.732803599573 118.264371202389 -2.15580720950858
endloop
endfacet
facet normal -0.866025403784441 0.0461852937232769 0.497862349092288
outer loop
vertex 211.732803599573 128.321190654053 -3.08875014271878
vertex 212.982803599573 118.464359390617 9.86988268891764e-15
vertex 212.982803599573 128.521178842281 -0.932942933210189
endloop
endfacet
facet normal 0.995037190209989 0.0990783105904347 -0.00919121697908723
outer loop
vertex 218.482803599573 132.770074692376 -9.26102098610115
vertex 218.633051740062 132.733472130615 6.61021433521293
vertex 218.633051740062 131.274016848959 -9.12223589610347
endloop
endfacet
facet normal 0.995037190209989 0.0990783105904347 -0.00919121697908723
outer loop
vertex 218.633051740062 132.733472130615 6.61021433521293
vertex 218.482803599573 132.770074692376 -9.26102098610115
vertex 218.482803599573 134.229529974032 6.47142924521523
endloop
endfacet
facet normal 0.0 0.995724698184583 -0.0923705874465546
outer loop
vertex 218.482803599573 124.272282992186 7.39513511968079
vertex 220.682803599573 122.81282771053 -8.33731511163561
vertex 218.482803599573 122.81282771053 -8.33731511163561
endloop
endfacet
facet normal 0.0 0.995724698184583 -0.0923705874465546
outer loop
vertex 220.682803599573 122.81282771053 -8.33731511163561
vertex 218.482803599573 124.272282992186 7.39513511968079
vertex 220.682803599573 124.272282992186 7.39513511968079
endloop
endfacet
facet normal 0.85332018598286 0.124426674802354 -0.506322686428138
outer loop
vertex 205.482803599573 133.499802333204 -1.39479587044296
vertex 208.482803599573 128.841159943446 2.5163486020036
vertex 206.482803599573 128.521178842281 -0.932942933210189
endloop
endfacet
facet normal 0.85332018598286 0.124426674802354 -0.506322686428138
outer loop
vertex 208.482803599573 128.841159943446 2.5163486020036
vertex 205.482803599573 133.499802333204 -1.39479587044296
vertex 210.107803599573 129.101144588142 5.31889797436478
endloop
endfacet
facet normal 0.85332018598286 0.124426674802354 -0.506322686428138
outer loop
vertex 210.107803599573 129.101144588142 5.31889797436478
vertex 205.482803599573 133.499802333204 -1.39479587044296
vertex 209.482803599573 134.139764535534 5.50378719998457
endloop
endfacet
facet normal 0.85332018598286 0.124426674802354 -0.506322686428138
outer loop
vertex 209.482803599573 134.139764535534 5.50378719998457
vertex 205.482803599573 133.499802333204 -1.39479587044296
vertex 207.982803599573 133.89977870966 2.91681854857426
endloop
endfacet
facet normal -1.46967094489309e-16 0.0923705874465552 0.995724698184583
outer loop
vertex 202.560153697685 131.823834063561 6.69459890734487
vertex 202.482803599573 134.229529974032 6.47142924521525
vertex 202.332555459083 132.733472130615 6.6102143352129
endloop
endfacet
facet normal -1.46967094489309e-16 0.0923705874465552 0.995724698184583
outer loop
vertex 202.482803599573 134.229529974032 6.47142924521525
vertex 202.560153697685 131.823834063561 6.69459890734487
vertex 209.482803599573 134.229529974032 6.47142924521525
endloop
endfacet
facet normal -1.46967094489309e-16 0.0923705874465552 0.995724698184583
outer loop
vertex 209.482803599573 134.229529974032 6.47142924521525
vertex 202.560153697685 131.823834063561 6.69459890734487
vertex 206.282803599573 126.263732388555 7.21039394478769
endloop
endfacet
facet normal -1.46967094489309e-16 0.0923705874465552 0.995724698184583
outer loop
vertex 209.482803599573 134.229529974032 6.47142924521525
vertex 206.282803599573 126.263732388555 7.21039394478769
vertex 206.837503795798 125.435239360351 7.28725091926075
endloop
endfacet
facet normal -1.46967094489309e-16 0.0923705874465552 0.995724698184583
outer loop
vertex 220.682803599573 119.194087031445 7.86622511565822
vertex 200.282803599573 124.272282992186 7.39513511968079
vertex 200.282803599573 119.194087031445 7.86622511565822
endloop
endfacet
facet normal -1.46967094489309e-16 0.0923705874465552 0.995724698184583
outer loop
vertex 200.282803599573 124.272282992186 7.39513511968079
vertex 220.682803599573 119.194087031445 7.86622511565822
vertex 202.482803599573 124.272282992186 7.39513511968079
endloop
endfacet
facet normal -1.46967094489309e-16 0.0923705874465552 0.995724698184583
outer loop
vertex 202.482803599573 124.272282992186 7.39513511968079
vertex 220.682803599573 119.194087031445 7.86622511565822
vertex 202.982803599573 126.263732388555 7.21039394478766
endloop
endfacet
facet normal -1.46967094489309e-16 0.0923705874465552 0.995724698184583
outer loop
vertex 202.982803599573 126.263732388555 7.21039394478766
vertex 220.682803599573 119.194087031445 7.86622511565822
vertex 206.837503795798 125.435239360351 7.28725091926075
endloop
endfacet
facet normal -1.46967094489309e-16 0.0923705874465552 0.995724698184583
outer loop
vertex 202.982803599573 126.263732388555 7.21039394478766
vertex 206.837503795798 125.435239360351 7.28725091926075
vertex 205.282803599573 126.263732388555 7.21039394478769
endloop
endfacet
facet normal -1.46967094489309e-16 0.0923705874465552 0.995724698184583
outer loop
vertex 206.837503795798 125.435239360351 7.28725091926075
vertex 220.682803599573 119.194087031445 7.86622511565822
vertex 210.482803599573 126.263732388555 7.21039394478769
endloop
endfacet
facet normal -1.46967094489309e-16 0.0923705874465552 0.995724698184583
outer loop
vertex 206.837503795798 125.435239360351 7.28725091926075
vertex 210.482803599573 126.263732388555 7.21039394478769
vertex 209.482803599573 134.229529974032 6.47142924521525
endloop
endfacet
facet normal -1.46967094489309e-16 0.0923705874465552 0.995724698184583
outer loop
vertex 210.482803599573 126.263732388555 7.21039394478769
vertex 220.682803599573 119.194087031445 7.86622511565822
vertex 214.18357342297 125.435239360351 7.28725091926075
endloop
endfacet
facet normal -1.46967094489309e-16 0.0923705874465552 0.995724698184583
outer loop
vertex 210.482803599573 126.263732388555 7.21039394478769
vertex 214.18357342297 125.435239360351 7.28725091926075
vertex 211.482803599573 134.229529974032 6.47142924521525
endloop
endfacet
facet normal -1.46967094489309e-16 0.0923705874465552 0.995724698184583
outer loop
vertex 214.18357342297 125.435239360351 7.28725091926075
vertex 220.682803599573 119.194087031445 7.86622511565822
vertex 215.682803599573 126.263732388555 7.21039394478769
endloop
endfacet
facet normal -1.46967094489309e-16 0.0923705874465552 0.995724698184583
outer loop
vertex 215.682803599573 126.263732388555 7.21039394478769
vertex 220.682803599573 119.194087031445 7.86622511565822
vertex 218.482803599573 124.272282992186 7.39513511968079
endloop
endfacet
facet normal -1.46967094489309e-16 0.0923705874465552 0.995724698184583
outer loop
vertex 215.682803599573 126.263732388555 7.21039394478769
vertex 218.482803599573 124.272282992186 7.39513511968079
vertex 217.982803599573 126.263732388555 7.21039394478766
endloop
endfacet
facet normal -1.46967094489309e-16 0.0923705874465552 0.995724698184583
outer loop
vertex 218.482803599573 124.272282992186 7.39513511968079
vertex 220.682803599573 119.194087031445 7.86622511565822
vertex 220.682803599573 124.272282992186 7.39513511968079
endloop
endfacet
facet normal -1.46967094489309e-16 0.0923705874465552 0.995724698184583
outer loop
vertex 214.18357342297 125.435239360351 7.28725091926075
vertex 218.482803599573 134.229529974032 6.47142924521523
vertex 211.482803599573 134.229529974032 6.47142924521525
endloop
endfacet
facet normal -1.46967094489309e-16 0.0923705874465552 0.995724698184583
outer loop
vertex 218.482803599573 134.229529974032 6.47142924521523
vertex 214.18357342297 125.435239360351 7.28725091926075
vertex 214.682803599573 126.263732388555 7.21039394478769
endloop
endfacet
facet normal -1.46967094489309e-16 0.0923705874465552 0.995724698184583
outer loop
vertex 218.482803599573 134.229529974032 6.47142924521523
vertex 214.682803599573 126.263732388555 7.21039394478769
vertex 218.40545350146 131.823834063561 6.69459890734489
endloop
endfacet
facet normal -1.46967094489309e-16 0.0923705874465552 0.995724698184583
outer loop
vertex 218.482803599573 134.229529974032 6.47142924521523
vertex 218.40545350146 131.823834063561 6.69459890734489
vertex 218.633051740062 132.733472130615 6.61021433521293
endloop
endfacet
facet normal -0.832050294337844 -0.552328685469295 0.0512379829820423
outer loop
vertex 206.282803599573 126.263732388555 7.21039394478769
vertex 202.560153697685 130.364378781905 -9.03785132397151
vertex 206.282803599573 124.8042771069 -8.52205628652871
endloop
endfacet
facet normal -0.832050294337844 -0.552328685469295 0.0512379829820423
outer loop
vertex 202.560153697685 130.364378781905 -9.03785132397151
vertex 206.282803599573 126.263732388555 7.21039394478769
vertex 202.560153697685 131.823834063561 6.69459890734487
endloop
endfacet
facet normal 0.0 0.995724698184583 -0.0923705874465546
outer loop
vertex 215.682803599573 126.263732388555 7.21039394478769
vertex 217.982803599573 124.8042771069 -8.52205628652871
vertex 215.682803599573 124.8042771069 -8.52205628652871
endloop
endfacet
facet normal 0.0 0.995724698184583 -0.0923705874465546
outer loop
vertex 217.982803599573 124.8042771069 -8.52205628652871
vertex 215.682803599573 126.263732388555 7.21039394478769
vertex 217.982803599573 126.263732388555 7.21039394478766
endloop
endfacet
facet normal 0.0 0.995724698184583 -0.0923705874465546
outer loop
vertex 206.482803599573 128.521178842281 -0.932942933210189
vertex 209.232803599573 128.321190654053 -3.08875014271878
vertex 208.482803599573 128.201197741116 -4.38223446842396
endloop
endfacet
facet normal 0.0 0.995724698184583 -0.0923705874465546
outer loop
vertex 209.232803599573 128.321190654053 -3.08875014271878
vertex 206.482803599573 128.521178842281 -0.932942933210189
vertex 207.982803599573 128.521178842281 -0.932942933210189
endloop
endfacet
facet normal 0.0 0.995724698184583 -0.0923705874465546
outer loop
vertex 207.982803599573 128.521178842281 -0.932942933210189
vertex 206.482803599573 128.521178842281 -0.932942933210189
vertex 208.482803599573 128.841159943446 2.5163486020036
endloop
endfacet
facet normal 0.0 0.995724698184583 -0.0923705874465546
outer loop
vertex 207.982803599573 128.521178842281 -0.932942933210189
vertex 208.482803599573 128.841159943446 2.5163486020036
vertex 209.232803599573 128.721167030509 1.22286427629842
endloop
endfacet
facet normal 0.0 0.995724698184583 -0.0923705874465546
outer loop
vertex 209.232803599573 128.721167030509 1.22286427629842
vertex 208.482803599573 128.841159943446 2.5163486020036
vertex 210.107803599573 128.721167030509 1.22286427629842
endloop
endfacet
facet normal 0.0 0.995724698184583 -0.0923705874465546
outer loop
vertex 210.107803599573 128.721167030509 1.22286427629842
vertex 208.482803599573 128.841159943446 2.5163486020036
vertex 210.107803599573 129.101144588142 5.31889797436478
endloop
endfacet
facet normal 0.0 0.995724698184583 -0.0923705874465546
outer loop
vertex 208.482803599573 128.201197741116 -4.38223446842396
vertex 210.107803599573 128.321190654053 -3.08875014271878
vertex 210.107803599573 127.94121309642 -7.18478384078516
endloop
endfacet
facet normal 0.0 0.995724698184583 -0.0923705874465546
outer loop
vertex 210.107803599573 128.321190654053 -3.08875014271878
vertex 208.482803599573 128.201197741116 -4.38223446842396
vertex 209.232803599573 128.321190654053 -3.08875014271878
endloop
endfacet
facet normal -0.853320185982862 0.215442119054677 0.47479401168444
outer loop
vertex 212.482803599573 128.201197741116 -4.38223446842396
vertex 211.482803599573 132.859840130874 -8.29337894087034
vertex 210.857803599573 127.94121309642 -7.18478384078516
endloop
endfacet
facet normal -0.853320185982862 0.215442119054677 0.47479401168444
outer loop
vertex 211.482803599573 132.859840130874 -8.29337894087034
vertex 212.482803599573 128.201197741116 -4.38223446842396
vertex 214.482803599573 128.521178842281 -0.932942933210189
endloop
endfacet
facet normal -0.853320185982862 0.215442119054677 0.47479401168444
outer loop
vertex 211.482803599573 132.859840130874 -8.29337894087034
vertex 214.482803599573 128.521178842281 -0.932942933210189
vertex 215.482803599573 133.499802333204 -1.39479587044296
endloop
endfacet
facet normal -0.853320185982862 0.215442119054677 0.47479401168444
outer loop
vertex 211.482803599573 132.859840130874 -8.29337894087034
vertex 215.482803599573 133.499802333204 -1.39479587044296
vertex 212.982803599573 133.099825956748 -5.70641028946017
endloop
endfacet
facet normal 0.0 0.995724698184583 -0.0923705874465546
outer loop
vertex 202.982803599573 126.263732388555 7.21039394478766
vertex 205.282803599573 124.8042771069 -8.52205628652871
vertex 202.982803599573 124.8042771069 -8.52205628652871
endloop
endfacet
facet normal 0.0 0.995724698184583 -0.0923705874465546
outer loop
vertex 205.282803599573 124.8042771069 -8.52205628652871
vertex 202.982803599573 126.263732388555 7.21039394478766
vertex 205.282803599573 126.263732388555 7.21039394478769
endloop
endfacet
facet normal 0.853320185982859 0.215442119054678 0.474794011684444
outer loop
vertex 209.482803599573 132.859840130874 -8.29337894087043
vertex 208.482803599573 128.201197741116 -4.38223446842396
vertex 210.107803599573 127.94121309642 -7.18478384078516
endloop
endfacet
facet normal 0.853320185982859 0.215442119054678 0.474794011684444
outer loop
vertex 208.482803599573 128.201197741116 -4.38223446842396
vertex 209.482803599573 132.859840130874 -8.29337894087043
vertex 206.482803599573 128.521178842281 -0.932942933210189
endloop
endfacet
facet normal 0.853320185982859 0.215442119054678 0.474794011684444
outer loop
vertex 206.482803599573 128.521178842281 -0.932942933210189
vertex 209.482803599573 132.859840130874 -8.29337894087043
vertex 205.482803599573 133.499802333204 -1.39479587044296
endloop
endfacet
facet normal 0.853320185982859 0.215442119054678 0.474794011684444
outer loop
vertex 205.482803599573 133.499802333204 -1.39479587044296
vertex 209.482803599573 132.859840130874 -8.29337894087043
vertex 207.982803599573 133.099825956748 -5.70641028946017
endloop
endfacet
facet normal 0.832050294337846 -0.552328685469292 0.0512379829820432
outer loop
vertex 218.40545350146 130.364378781905 -9.03785132397151
vertex 214.682803599573 126.263732388555 7.21039394478769
vertex 214.682803599573 124.8042771069 -8.52205628652871
endloop
endfacet
facet normal 0.832050294337846 -0.552328685469292 0.0512379829820432
outer loop
vertex 214.682803599573 126.263732388555 7.21039394478769
vertex 218.40545350146 130.364378781905 -9.03785132397151
vertex 218.40545350146 131.823834063561 6.69459890734489
endloop
endfacet
facet normal 0.866025403784441 0.0461852937232769 0.497862349092288
outer loop
vertex 209.232803599573 128.321190654053 -3.08875014271878
vertex 207.982803599573 118.464359390617 9.86988268891764e-15
vertex 209.232803599573 118.264371202389 -2.15580720950858
endloop
endfacet
facet normal 0.866025403784441 0.0461852937232769 0.497862349092288
outer loop
vertex 207.982803599573 118.464359390617 9.86988268891764e-15
vertex 209.232803599573 128.321190654053 -3.08875014271878
vertex 207.982803599573 128.521178842281 -0.932942933210189
endloop
endfacet
facet normal 0.0 -0.0923705874465546 -0.995724698184583
outer loop
vertex 210.107803599573 128.721167030509 1.22286427629842
vertex 209.232803599573 118.664347578845 2.15580720950862
vertex 209.232803599573 128.721167030509 1.22286427629842
endloop
endfacet
facet normal 0.0 -0.0923705874465546 -0.995724698184583
outer loop
vertex 209.232803599573 118.664347578845 2.15580720950862
vertex 210.107803599573 128.721167030509 1.22286427629842
vertex 210.482803599573 118.664347578845 2.15580720950862
endloop
endfacet
facet normal 0.0 -0.0923705874465546 -0.995724698184583
outer loop
vertex 210.482803599573 118.664347578845 2.15580720950862
vertex 210.107803599573 128.721167030509 1.22286427629842
vertex 210.482803599573 125.733992935955 1.49997603863809
endloop
endfacet
facet normal 0.0 -0.0923705874465546 -0.995724698184583
outer loop
vertex 210.482803599573 118.664347578845 2.15580720950862
vertex 210.482803599573 125.733992935955 1.49997603863809
vertex 210.857803599573 128.721167030509 1.22286427629842
endloop
endfacet
facet normal 0.0 -0.0923705874465546 -0.995724698184583
outer loop
vertex 210.482803599573 118.664347578845 2.15580720950862
vertex 210.857803599573 128.721167030509 1.22286427629842
vertex 211.732803599573 118.664347578845 2.15580720950862
endloop
endfacet
facet normal 0.0 -0.0923705874465546 -0.995724698184583
outer loop
vertex 211.732803599573 118.664347578845 2.15580720950862
vertex 210.857803599573 128.721167030509 1.22286427629842
vertex 211.732803599573 128.721167030509 1.22286427629842
endloop
endfacet
facet normal -0.995037190209989 0.0990783105904347 -0.00919121697908722
outer loop
vertex 202.332555459083 132.733472130615 6.6102143352129
vertex 202.482803599573 132.770074692376 -9.26102098610115
vertex 202.332555459083 131.274016848959 -9.12223589610347
endloop
endfacet
facet normal -0.995037190209989 0.0990783105904347 -0.00919121697908722
outer loop
vertex 202.482803599573 132.770074692376 -9.26102098610115
vertex 202.332555459083 132.733472130615 6.6102143352129
vertex 202.482803599573 134.229529974032 6.47142924521525
endloop
endfacet
facet normal 0.0 0.995724698184583 -0.0923705874465546
outer loop
vertex 200.282803599573 124.272282992186 7.39513511968079
vertex 202.482803599573 122.81282771053 -8.33731511163561
vertex 200.282803599573 122.81282771053 -8.33731511163561
endloop
endfacet
facet normal 0.0 0.995724698184583 -0.0923705874465546
outer loop
vertex 202.482803599573 122.81282771053 -8.33731511163561
vertex 200.282803599573 124.272282992186 7.39513511968079
vertex 202.482803599573 124.272282992186 7.39513511968079
endloop
endfacet
facet normal 0.0 0.995724698184583 -0.0923705874465546
outer loop
vertex 210.857803599573 129.101144588142 5.31889797436478
vertex 211.732803599573 128.721167030509 1.22286427629842
vertex 210.857803599573 128.721167030509 1.22286427629842
endloop
endfacet
facet normal 0.0 0.995724698184583 -0.0923705874465546
outer loop
vertex 211.732803599573 128.721167030509 1.22286427629842
vertex 210.857803599573 129.101144588142 5.31889797436478
vertex 212.482803599573 128.841159943446 2.5163486020036
endloop
endfacet
facet normal 0.0 0.995724698184583 -0.0923705874465546
outer loop
vertex 210.857803599573 128.321190654053 -3.08875014271878
vertex 212.482803599573 128.201197741116 -4.38223446842396
vertex 210.857803599573 127.94121309642 -7.18478384078516
endloop
endfacet
facet normal 0.0 0.995724698184583 -0.0923705874465546
outer loop
vertex 212.482803599573 128.201197741116 -4.38223446842396
vertex 210.857803599573 128.321190654053 -3.08875014271878
vertex 211.732803599573 128.321190654053 -3.08875014271878
endloop
endfacet
facet normal 0.0 0.995724698184583 -0.0923705874465546
outer loop
vertex 212.482803599573 128.201197741116 -4.38223446842396
vertex 211.732803599573 128.321190654053 -3.08875014271878
vertex 214.482803599573 128.521178842281 -0.932942933210189
endloop
endfacet
facet normal 0.0 0.995724698184583 -0.0923705874465546
outer loop
vertex 214.482803599573 128.521178842281 -0.932942933210189
vertex 211.732803599573 128.321190654053 -3.08875014271878
vertex 212.982803599573 128.521178842281 -0.932942933210189
endloop
endfacet
facet normal 0.0 0.995724698184583 -0.0923705874465546
outer loop
vertex 214.482803599573 128.521178842281 -0.932942933210189
vertex 212.982803599573 128.521178842281 -0.932942933210189
vertex 211.732803599573 128.721167030509 1.22286427629842
endloop
endfacet
facet normal 0.0 0.995724698184583 -0.0923705874465546
outer loop
vertex 214.482803599573 128.521178842281 -0.932942933210189
vertex 211.732803599573 128.721167030509 1.22286427629842
vertex 212.482803599573 128.841159943446 2.5163486020036
endloop
endfacet
facet normal -0.853320185982862 0.124426674802353 -0.506322686428134
outer loop
vertex 212.482803599573 128.841159943446 2.5163486020036
vertex 215.482803599573 133.499802333204 -1.39479587044296
vertex 214.482803599573 128.521178842281 -0.932942933210189
endloop
endfacet
facet normal -0.853320185982862 0.124426674802353 -0.506322686428134
outer loop
vertex 215.482803599573 133.499802333204 -1.39479587044296
vertex 212.482803599573 128.841159943446 2.5163486020036
vertex 210.857803599573 129.101144588142 5.31889797436478
endloop
endfacet
facet normal -0.853320185982862 0.124426674802353 -0.506322686428134
outer loop
vertex 215.482803599573 133.499802333204 -1.39479587044296
vertex 210.857803599573 129.101144588142 5.31889797436478
vertex 211.482803599573 134.139764535534 5.50378719998446
endloop
endfacet
facet normal -0.853320185982862 0.124426674802353 -0.506322686428134
outer loop
vertex 215.482803599573 133.499802333204 -1.39479587044296
vertex 211.482803599573 134.139764535534 5.50378719998446
vertex 212.982803599573 133.89977870966 2.91681854857426
endloop
endfacet
facet normal 0.0 0.0923705874465546 0.995724698184583
outer loop
vertex 210.482803599573 118.264371202389 -2.15580720950858
vertex 209.232803599573 128.321190654053 -3.08875014271878
vertex 209.232803599573 118.264371202389 -2.15580720950858
endloop
endfacet
facet normal 0.0 0.0923705874465546 0.995724698184583
outer loop
vertex 209.232803599573 128.321190654053 -3.08875014271878
vertex 210.482803599573 118.264371202389 -2.15580720950858
vertex 210.107803599573 128.321190654053 -3.08875014271878
endloop
endfacet
facet normal 0.0 0.0923705874465546 0.995724698184583
outer loop
vertex 210.107803599573 128.321190654053 -3.08875014271878
vertex 210.482803599573 118.264371202389 -2.15580720950858
vertex 210.482803599573 125.334016559499 -2.81163838037912
endloop
endfacet
facet normal 0.0 0.0923705874465546 0.995724698184583
outer loop
vertex 210.482803599573 125.334016559499 -2.81163838037912
vertex 210.482803599573 118.264371202389 -2.15580720950858
vertex 211.732803599573 118.264371202389 -2.15580720950858
endloop
endfacet
facet normal 0.0 0.0923705874465546 0.995724698184583
outer loop
vertex 210.482803599573 125.334016559499 -2.81163838037912
vertex 211.732803599573 118.264371202389 -2.15580720950858
vertex 210.857803599573 128.321190654053 -3.08875014271878
endloop
endfacet
facet normal 0.0 0.0923705874465546 0.995724698184583
outer loop
vertex 210.857803599573 128.321190654053 -3.08875014271878
vertex 211.732803599573 118.264371202389 -2.15580720950858
vertex 211.732803599573 128.321190654053 -3.08875014271878
endloop
endfacet
facet normal 1.0 0.0 0.0
outer loop
vertex 220.682803599573 122.81282771053 -8.33731511163561
vertex 220.682803599573 119.194087031445 7.86622511565822
vertex 220.682803599573 117.734631749789 -7.86622511565818
endloop
endfacet
facet normal 1.0 0.0 0.0
outer loop
vertex 220.682803599573 119.194087031445 7.86622511565822
vertex 220.682803599573 122.81282771053 -8.33731511163561
vertex 220.682803599573 124.272282992186 7.39513511968079
endloop
endfacet
facet normal 0.0 -0.0923705874465546 -0.995724698184583
outer loop
vertex 202.482803599573 132.770074692376 -9.26102098610115
vertex 202.560153697685 130.364378781905 -9.03785132397151
vertex 202.332555459083 131.274016848959 -9.12223589610347
endloop
endfacet
facet normal 0.0 -0.0923705874465546 -0.995724698184583
outer loop
vertex 202.560153697685 130.364378781905 -9.03785132397151
vertex 202.482803599573 132.770074692376 -9.26102098610115
vertex 209.482803599573 132.770074692376 -9.26102098610115
endloop
endfacet
facet normal 0.0 -0.0923705874465546 -0.995724698184583
outer loop
vertex 202.560153697685 130.364378781905 -9.03785132397151
vertex 209.482803599573 132.770074692376 -9.26102098610115
vertex 206.282803599573 124.8042771069 -8.52205628652871
endloop
endfacet
facet normal 0.0 -0.0923705874465546 -0.995724698184583
outer loop
vertex 206.282803599573 124.8042771069 -8.52205628652871
vertex 209.482803599573 132.770074692376 -9.26102098610115
vertex 206.837503795798 123.975784078696 -8.44519931205565
endloop
endfacet
facet normal 0.0 -0.0923705874465546 -0.995724698184583
outer loop
vertex 218.482803599573 132.770074692376 -9.26102098610115
vertex 214.18357342297 123.975784078696 -8.44519931205565
vertex 211.482803599573 132.770074692376 -9.26102098610115
endloop
endfacet
facet normal 0.0 -0.0923705874465546 -0.995724698184583
outer loop
vertex 214.18357342297 123.975784078696 -8.44519931205565
vertex 218.482803599573 132.770074692376 -9.26102098610115
vertex 214.682803599573 124.8042771069 -8.52205628652871
endloop
endfacet
facet normal 0.0 -0.0923705874465546 -0.995724698184583
outer loop
vertex 214.682803599573 124.8042771069 -8.52205628652871
vertex 218.482803599573 132.770074692376 -9.26102098610115
vertex 218.40545350146 130.364378781905 -9.03785132397151
endloop
endfacet
facet normal 0.0 -0.0923705874465546 -0.995724698184583
outer loop
vertex 218.40545350146 130.364378781905 -9.03785132397151
vertex 218.482803599573 132.770074692376 -9.26102098610115
vertex 218.633051740062 131.274016848959 -9.12223589610347
endloop
endfacet
facet normal 0.0 -0.0923705874465546 -0.995724698184583
outer loop
vertex 202.482803599573 122.81282771053 -8.33731511163561
vertex 200.282803599573 117.734631749789 -7.86622511565818
vertex 200.282803599573 122.81282771053 -8.33731511163561
endloop
endfacet
facet normal 0.0 -0.0923705874465546 -0.995724698184583
outer loop
vertex 200.282803599573 117.734631749789 -7.86622511565818
vertex 202.482803599573 122.81282771053 -8.33731511163561
vertex 220.682803599573 117.734631749789 -7.86622511565818
endloop
endfacet
facet normal 0.0 -0.0923705874465546 -0.995724698184583
outer loop
vertex 220.682803599573 117.734631749789 -7.86622511565818
vertex 202.482803599573 122.81282771053 -8.33731511163561
vertex 202.982803599573 124.8042771069 -8.52205628652871
endloop
endfacet
facet normal 0.0 -0.0923705874465546 -0.995724698184583
outer loop
vertex 220.682803599573 117.734631749789 -7.86622511565818
vertex 202.982803599573 124.8042771069 -8.52205628652871
vertex 206.837503795798 123.975784078696 -8.44519931205565
endloop
endfacet
facet normal 0.0 -0.0923705874465546 -0.995724698184583
outer loop
vertex 206.837503795798 123.975784078696 -8.44519931205565
vertex 202.982803599573 124.8042771069 -8.52205628652871
vertex 205.282803599573 124.8042771069 -8.52205628652871
endloop
endfacet
facet normal 0.0 -0.0923705874465546 -0.995724698184583
outer loop
vertex 220.682803599573 117.734631749789 -7.86622511565818
vertex 206.837503795798 123.975784078696 -8.44519931205565
vertex 210.482803599573 124.8042771069 -8.52205628652871
endloop
endfacet
facet normal 0.0 -0.0923705874465546 -0.995724698184583
outer loop
vertex 210.482803599573 124.8042771069 -8.52205628652871
vertex 206.837503795798 123.975784078696 -8.44519931205565
vertex 209.482803599573 132.770074692376 -9.26102098610115
endloop
endfacet
facet normal 0.0 -0.0923705874465546 -0.995724698184583
outer loop
vertex 220.682803599573 117.734631749789 -7.86622511565818
vertex 210.482803599573 124.8042771069 -8.52205628652871
vertex 214.18357342297 123.975784078696 -8.44519931205565
endloop
endfacet
facet normal 0.0 -0.0923705874465546 -0.995724698184583
outer loop
vertex 214.18357342297 123.975784078696 -8.44519931205565
vertex 210.482803599573 124.8042771069 -8.52205628652871
vertex 211.482803599573 132.770074692376 -9.26102098610115
endloop
endfacet
facet normal 0.0 -0.0923705874465546 -0.995724698184583
outer loop
vertex 220.682803599573 117.734631749789 -7.86622511565818
vertex 214.18357342297 123.975784078696 -8.44519931205565
vertex 215.682803599573 124.8042771069 -8.52205628652871
endloop
endfacet
facet normal 0.0 -0.0923705874465546 -0.995724698184583
outer loop
vertex 220.682803599573 117.734631749789 -7.86622511565818
vertex 215.682803599573 124.8042771069 -8.52205628652871
vertex 218.482803599573 122.81282771053 -8.33731511163561
endloop
endfacet
facet normal 0.0 -0.0923705874465546 -0.995724698184583
outer loop
vertex 218.482803599573 122.81282771053 -8.33731511163561
vertex 215.682803599573 124.8042771069 -8.52205628652871
vertex 217.982803599573 124.8042771069 -8.52205628652871
endloop
endfacet
facet normal 0.0 -0.0923705874465546 -0.995724698184583
outer loop
vertex 220.682803599573 117.734631749789 -7.86622511565818
vertex 218.482803599573 122.81282771053 -8.33731511163561
vertex 220.682803599573 122.81282771053 -8.33731511163561
endloop
endfacet
facet normal 0.0 -0.995724698184583 0.0923705874465546
outer loop
vertex 220.682803599573 117.734631749789 -7.86622511565818
vertex 211.732803599573 118.264371202389 -2.15580720950858
vertex 200.282803599573 117.734631749789 -7.86622511565818
endloop
endfacet
facet normal 0.0 -0.995724698184583 0.0923705874465546
outer loop
vertex 211.732803599573 118.264371202389 -2.15580720950858
vertex 220.682803599573 117.734631749789 -7.86622511565818
vertex 220.682803599573 119.194087031445 7.86622511565822
endloop
endfacet
facet normal 0.0 -0.995724698184583 0.0923705874465546
outer loop
vertex 211.732803599573 118.264371202389 -2.15580720950858
vertex 220.682803599573 119.194087031445 7.86622511565822
vertex 212.982803599573 118.464359390617 9.86988268891764e-15
endloop
endfacet
facet normal 0.0 -0.995724698184583 0.0923705874465546
outer loop
vertex 200.282803599573 117.734631749789 -7.86622511565818
vertex 209.232803599573 118.264371202389 -2.15580720950858
vertex 207.982803599573 118.464359390617 9.86988268891764e-15
endloop
endfacet
facet normal 0.0 -0.995724698184583 0.0923705874465546
outer loop
vertex 209.232803599573 118.264371202389 -2.15580720950858
vertex 200.282803599573 117.734631749789 -7.86622511565818
vertex 211.732803599573 118.264371202389 -2.15580720950858
endloop
endfacet
facet normal 0.0 -0.995724698184583 0.0923705874465546
outer loop
vertex 209.232803599573 118.264371202389 -2.15580720950858
vertex 211.732803599573 118.264371202389 -2.15580720950858
vertex 210.482803599573 118.264371202389 -2.15580720950858
endloop
endfacet
facet normal -1.0 0.0 -0.0
outer loop
vertex 200.282803599573 119.194087031445 7.86622511565822
vertex 200.282803599573 122.81282771053 -8.33731511163561
vertex 200.282803599573 117.734631749789 -7.86622511565818
endloop
endfacet
facet normal -1.0 0.0 -0.0
outer loop
vertex 200.282803599573 122.81282771053 -8.33731511163561
vertex 200.282803599573 119.194087031445 7.86622511565822
vertex 200.282803599573 124.272282992186 7.39513511968079
endloop
endfacet
facet normal 0.0 -0.995724698184583 0.0923705874465546
outer loop
vertex 220.682803599573 119.194087031445 7.86622511565822
vertex 211.732803599573 118.664347578845 2.15580720950862
vertex 212.982803599573 118.464359390617 9.86988268891764e-15
endloop
endfacet
facet normal 0.0 -0.995724698184583 0.0923705874465546
outer loop
vertex 211.732803599573 118.664347578845 2.15580720950862
vertex 220.682803599573 119.194087031445 7.86622511565822
vertex 210.482803599573 118.664347578845 2.15580720950862
endloop
endfacet
facet normal 0.0 -0.995724698184583 0.0923705874465546
outer loop
vertex 210.482803599573 118.664347578845 2.15580720950862
vertex 220.682803599573 119.194087031445 7.86622511565822
vertex 209.232803599573 118.664347578845 2.15580720950862
endloop
endfacet
facet normal 0.0 -0.995724698184583 0.0923705874465546
outer loop
vertex 207.982803599573 118.464359390617 9.86988268891764e-15
vertex 200.282803599573 119.194087031445 7.86622511565822
vertex 200.282803599573 117.734631749789 -7.86622511565818
endloop
endfacet
facet normal 0.0 -0.995724698184583 0.0923705874465546
outer loop
vertex 200.282803599573 119.194087031445 7.86622511565822
vertex 207.982803599573 118.464359390617 9.86988268891764e-15
vertex 209.232803599573 118.664347578845 2.15580720950862
endloop
endfacet
facet normal 0.0 -0.995724698184583 0.0923705874465546
outer loop
vertex 200.282803599573 119.194087031445 7.86622511565822
vertex 209.232803599573 118.664347578845 2.15580720950862
vertex 220.682803599573 119.194087031445 7.86622511565822
endloop
endfacet
endsolid Plug Test
