solid Plug Test
facet normal -0.485261683878198 0.874368971407206 2.51089479003963e-15
outer loop
vertex 214.18357342297 124.732309096279 7.90000000000004
vertex 215.682803599573 125.564359390617 -7.89999999999995
vertex 214.18357342297 124.732309096279 -7.89999999999995
endloop
endfacet
facet normal -0.485261683878198 0.874368971407206 2.51089479003963e-15
outer loop
vertex 215.682803599573 125.564359390617 -7.89999999999995
vertex 214.18357342297 124.732309096279 7.90000000000004
vertex 215.682803599573 125.564359390617 7.90000000000005
endloop
endfacet
facet normal -0.83205029433783 -0.554700196225249 -2.81468031523347e-15
outer loop
vertex 206.282803599573 125.564359390617 7.90000000000005
vertex 206.837503795798 124.732309096279 -7.89999999999995
vertex 206.837503795798 124.732309096279 7.90000000000004
endloop
endfacet
facet normal -0.83205029433783 -0.554700196225249 -2.81468031523347e-15
outer loop
vertex 206.837503795798 124.732309096279 -7.89999999999995
vertex 206.282803599573 125.564359390617 7.90000000000005
vertex 206.282803599573 125.564359390617 -7.89999999999995
endloop
endfacet
facet normal 0.0 1.0 2.93515212135276e-15
outer loop
vertex 202.482803599573 133.564359390617 -7.89999999999993
vertex 205.482803599573 133.564359390617 5.21693799271361e-14
vertex 209.482803599573 133.564359390617 -7.89999999999993
endloop
endfacet
facet normal 0.0 1.0 2.93515212135276e-15
outer loop
vertex 205.482803599573 133.564359390617 5.21693799271361e-14
vertex 202.482803599573 133.564359390617 -7.89999999999993
vertex 202.482803599573 133.564359390617 7.90000000000007
endloop
endfacet
facet normal 0.0 1.0 2.93515212135276e-15
outer loop
vertex 209.482803599573 133.564359390617 -7.89999999999993
vertex 205.482803599573 133.564359390617 5.21693799271361e-14
vertex 207.982803599573 133.564359390617 -4.33012701892214
endloop
endfacet
facet normal 0.0 1.0 2.93515212135276e-15
outer loop
vertex 209.482803599573 133.564359390617 -7.89999999999993
vertex 207.982803599573 133.564359390617 -4.33012701892214
vertex 209.482803599573 133.564359390617 -6.92820323027539
endloop
endfacet
facet normal 0.0 1.0 2.93515212135276e-15
outer loop
vertex 205.482803599573 133.564359390617 5.21693799271361e-14
vertex 202.482803599573 133.564359390617 7.90000000000007
vertex 207.982803599573 133.564359390617 4.33012701892226
endloop
endfacet
facet normal 0.0 1.0 2.93515212135276e-15
outer loop
vertex 207.982803599573 133.564359390617 4.33012701892226
vertex 202.482803599573 133.564359390617 7.90000000000007
vertex 209.482803599573 133.564359390617 6.92820323027556
endloop
endfacet
facet normal 0.0 1.0 2.93515212135276e-15
outer loop
vertex 209.482803599573 133.564359390617 6.92820323027556
vertex 202.482803599573 133.564359390617 7.90000000000007
vertex 209.482803599573 133.564359390617 7.90000000000007
endloop
endfacet
facet normal 0.471857925532024 0.881674598767944 2.58784906891657e-15
outer loop
vertex 205.282803599573 125.564359390617 7.90000000000005
vertex 206.837503795798 124.732309096279 -7.89999999999995
vertex 205.282803599573 125.564359390617 -7.89999999999995
endloop
endfacet
facet normal 0.471857925532024 0.881674598767944 2.58784906891657e-15
outer loop
vertex 206.837503795798 124.732309096279 -7.89999999999995
vertex 205.282803599573 125.564359390617 7.90000000000005
vertex 206.837503795798 124.732309096279 7.90000000000004
endloop
endfacet
facet normal 0.0 1.0 2.93515212135276e-15
outer loop
vertex 211.482803599573 133.564359390617 -6.9282032302753
vertex 218.482803599573 133.564359390617 -7.89999999999993
vertex 211.482803599573 133.564359390617 -7.89999999999993
endloop
endfacet
facet normal 0.0 1.0 2.93515212135276e-15
outer loop
vertex 218.482803599573 133.564359390617 -7.89999999999993
vertex 211.482803599573 133.564359390617 -6.9282032302753
vertex 212.982803599573 133.564359390617 -4.33012701892214
endloop
endfacet
facet normal 0.0 1.0 2.93515212135276e-15
outer loop
vertex 218.482803599573 133.564359390617 -7.89999999999993
vertex 212.982803599573 133.564359390617 -4.33012701892214
vertex 215.482803599573 133.564359390617 5.21693799271361e-14
endloop
endfacet
facet normal 0.0 1.0 2.93515212135276e-15
outer loop
vertex 218.482803599573 133.564359390617 -7.89999999999993
vertex 215.482803599573 133.564359390617 5.21693799271361e-14
vertex 218.482803599573 133.564359390617 7.90000000000004
endloop
endfacet
facet normal 0.0 1.0 2.93515212135276e-15
outer loop
vertex 218.482803599573 133.564359390617 7.90000000000004
vertex 215.482803599573 133.564359390617 5.21693799271361e-14
vertex 212.982803599573 133.564359390617 4.33012701892226
endloop
endfacet
facet normal 0.0 1.0 2.93515212135276e-15
outer loop
vertex 218.482803599573 133.564359390617 7.90000000000004
vertex 212.982803599573 133.564359390617 4.33012701892226
vertex 211.482803599573 133.564359390617 6.92820323027545
endloop
endfacet
facet normal 0.0 1.0 2.93515212135276e-15
outer loop
vertex 218.482803599573 133.564359390617 7.90000000000004
vertex 211.482803599573 133.564359390617 6.92820323027545
vertex 211.482803599573 133.564359390617 7.90000000000007
endloop
endfacet
facet normal -0.992277876713667 0.124034734589214 4.21306689058192e-16
outer loop
vertex 210.482803599573 125.564359390617 7.90000000000005
vertex 210.482803599573 125.564359390617 3.46410161513781
vertex 210.482803599573 125.564359390617 4.33012701892224
endloop
endfacet
facet normal -0.992277876713667 0.124034734589214 4.21306689058192e-16
outer loop
vertex 210.482803599573 125.564359390617 3.46410161513781
vertex 210.482803599573 125.564359390617 7.90000000000005
vertex 210.857803599573 128.564359390617 6.27868417743724
endloop
endfacet
facet normal -0.992277876713667 0.124034734589214 4.21306689058192e-16
outer loop
vertex 210.857803599573 128.564359390617 6.27868417743724
vertex 210.482803599573 125.564359390617 7.90000000000005
vertex 211.482803599573 133.564359390617 7.90000000000007
endloop
endfacet
facet normal -0.992277876713667 0.124034734589214 4.21306689058192e-16
outer loop
vertex 210.482803599573 125.564359390617 3.46410161513781
vertex 210.857803599573 128.564359390617 6.27868417743724
vertex 210.482803599573 125.564359390617 2.16506350946113
endloop
endfacet
facet normal -0.992277876713667 0.124034734589214 4.21306689058192e-16
outer loop
vertex 210.857803599573 128.564359390617 6.27868417743724
vertex 211.482803599573 133.564359390617 7.90000000000007
vertex 211.482803599573 133.564359390617 6.92820323027545
endloop
endfacet
facet normal -0.992277876713667 0.124034734589214 4.21306689058192e-16
outer loop
vertex 210.857803599573 128.564359390617 2.16506350946114
vertex 210.482803599573 125.564359390617 2.16506350946113
vertex 210.857803599573 128.564359390617 6.27868417743724
endloop
endfacet
facet normal -0.970142500145332 0.242535625036332 7.11878954329007e-16
outer loop
vertex 202.982803599573 125.564359390617 7.90000000000002
vertex 202.482803599573 123.564359390617 -7.89999999999995
vertex 202.482803599573 123.564359390617 7.90000000000004
endloop
endfacet
facet normal -0.970142500145332 0.242535625036332 7.11878954329007e-16
outer loop
vertex 202.482803599573 123.564359390617 -7.89999999999995
vertex 202.982803599573 125.564359390617 7.90000000000002
vertex 202.982803599573 125.564359390617 -7.89999999999995
endloop
endfacet
facet normal 0.97014250014533 0.242535625036343 7.25756742136853e-16
outer loop
vertex 218.482803599573 123.564359390617 -7.89999999999995
vertex 217.982803599573 125.564359390617 7.90000000000002
vertex 218.482803599573 123.564359390617 7.90000000000004
endloop
endfacet
facet normal 0.97014250014533 0.242535625036343 7.25756742136853e-16
outer loop
vertex 217.982803599573 125.564359390617 7.90000000000002
vertex 218.482803599573 123.564359390617 -7.89999999999995
vertex 217.982803599573 125.564359390617 -7.89999999999995
endloop
endfacet
facet normal 0.970339043700029 -0.24174809259085 -7.16506320704924e-16
outer loop
vertex 218.40545350146 131.148334243448 -7.89999999999993
vertex 218.633051740062 132.061877985722 7.90000000000006
vertex 218.40545350146 131.148334243448 7.90000000000006
endloop
endfacet
facet normal 0.970339043700029 -0.24174809259085 -7.16506320704924e-16
outer loop
vertex 218.633051740062 132.061877985722 7.90000000000006
vertex 218.40545350146 131.148334243448 -7.89999999999993
vertex 218.633051740062 132.061877985722 -7.89999999999993
endloop
endfacet
facet normal 0.992277876713668 0.124034734589203 1.17591140110807e-15
outer loop
vertex 210.482803599573 125.564359390617 -7.89999999999995
vertex 210.107803599573 128.564359390617 -6.27868417743716
vertex 210.482803599573 125.564359390617 -4.33012701892216
endloop
endfacet
facet normal 0.992277876713668 0.124034734589203 1.17591140110807e-15
outer loop
vertex 210.107803599573 128.564359390617 -6.27868417743716
vertex 210.482803599573 125.564359390617 -7.89999999999995
vertex 209.482803599573 133.564359390617 -7.89999999999993
endloop
endfacet
facet normal 0.992277876713668 0.124034734589203 1.17591140110807e-15
outer loop
vertex 210.482803599573 125.564359390617 -4.33012701892216
vertex 210.107803599573 128.564359390617 -6.27868417743716
vertex 210.107803599573 128.564359390617 -2.16506350946105
endloop
endfacet
facet normal 0.992277876713668 0.124034734589203 1.17591140110807e-15
outer loop
vertex 210.107803599573 128.564359390617 -6.27868417743716
vertex 209.482803599573 133.564359390617 -7.89999999999993
vertex 209.482803599573 133.564359390617 -6.92820323027539
endloop
endfacet
facet normal 0.992277876713668 0.124034734589203 1.17591140110807e-15
outer loop
vertex 210.482803599573 125.564359390617 -4.33012701892216
vertex 210.482803599573 125.564359390617 -2.16506350946105
vertex 210.482803599573 125.564359390617 -3.46410161513773
endloop
endfacet
facet normal 0.992277876713668 0.124034734589203 1.17591140110807e-15
outer loop
vertex 210.482803599573 125.564359390617 -2.16506350946105
vertex 210.482803599573 125.564359390617 -4.33012701892216
vertex 210.107803599573 128.564359390617 -2.16506350946105
endloop
endfacet
facet normal -0.970339043700035 -0.241748092590825 -7.09567426800944e-16
outer loop
vertex 202.332555459083 132.061877985722 7.90000000000004
vertex 202.560153697685 131.148334243448 -7.89999999999993
vertex 202.560153697685 131.148334243448 7.90000000000004
endloop
endfacet
facet normal -0.970339043700035 -0.241748092590825 -7.09567426800944e-16
outer loop
vertex 202.560153697685 131.148334243448 -7.89999999999993
vertex 202.332555459083 132.061877985722 7.90000000000004
vertex 202.332555459083 132.061877985722 -7.89999999999993
endloop
endfacet
facet normal 0.857492925712535 -0.514495755427542 -1.51706220187405e-15
outer loop
vertex 214.18357342297 124.732309096279 -7.89999999999995
vertex 214.682803599573 125.564359390617 7.90000000000005
vertex 214.18357342297 124.732309096279 7.90000000000004
endloop
endfacet
facet normal 0.857492925712535 -0.514495755427542 -1.51706220187405e-15
outer loop
vertex 214.682803599573 125.564359390617 7.90000000000005
vertex 214.18357342297 124.732309096279 -7.89999999999995
vertex 214.682803599573 125.564359390617 -7.89999999999995
endloop
endfacet
facet normal -0.992277876713667 0.124034734589214 2.47834341460511e-16
outer loop
vertex 210.857803599573 128.564359390617 -2.16506350946105
vertex 210.482803599573 125.564359390617 -3.46410161513773
vertex 210.482803599573 125.564359390617 -2.16506350946105
endloop
endfacet
facet normal -0.992277876713667 0.124034734589214 2.47834341460511e-16
outer loop
vertex 210.482803599573 125.564359390617 -3.46410161513773
vertex 210.857803599573 128.564359390617 -2.16506350946105
vertex 210.482803599573 125.564359390617 -4.33012701892216
endloop
endfacet
facet normal -0.992277876713667 0.124034734589214 2.47834341460511e-16
outer loop
vertex 210.482803599573 125.564359390617 -4.33012701892216
vertex 210.857803599573 128.564359390617 -2.16506350946105
vertex 210.482803599573 125.564359390617 -7.89999999999995
endloop
endfacet
facet normal -0.992277876713667 0.124034734589214 2.47834341460511e-16
outer loop
vertex 210.482803599573 125.564359390617 -7.89999999999995
vertex 210.857803599573 128.564359390617 -2.16506350946105
vertex 210.857803599573 128.564359390617 -6.27868417743716
endloop
endfacet
facet normal -0.992277876713667 0.124034734589214 2.47834341460511e-16
outer loop
vertex 210.482803599573 125.564359390617 -7.89999999999995
vertex 210.857803599573 128.564359390617 -6.27868417743716
vertex 211.482803599573 133.564359390617 -7.89999999999993
endloop
endfacet
facet normal -0.992277876713667 0.124034734589214 2.47834341460511e-16
outer loop
vertex 211.482803599573 133.564359390617 -7.89999999999993
vertex 210.857803599573 128.564359390617 -6.27868417743716
vertex 211.482803599573 133.564359390617 -6.9282032302753
endloop
endfacet
facet normal 0.866025403784441 1.43982048506074e-15 -0.499999999999996
outer loop
vertex 207.982803599573 128.564359390617 3.66595642731227e-14
vertex 209.232803599573 118.464359390617 2.16506350946111
vertex 207.982803599573 118.464359390617 1.12798659301916e-14
endloop
endfacet
facet normal 0.866025403784441 1.43982048506074e-15 -0.499999999999996
outer loop
vertex 209.232803599573 118.464359390617 2.16506350946111
vertex 207.982803599573 128.564359390617 3.66595642731227e-14
vertex 209.232803599573 128.564359390617 2.16506350946114
endloop
endfacet
facet normal 0.992277876713668 0.124034734589203 1.97527360657152e-16
outer loop
vertex 210.482803599573 125.564359390617 7.90000000000005
vertex 210.482803599573 125.564359390617 4.33012701892224
vertex 210.482803599573 125.564359390617 3.46410161513781
endloop
endfacet
facet normal 0.992277876713668 0.124034734589203 1.97527360657152e-16
outer loop
vertex 210.107803599573 128.564359390617 2.16506350946114
vertex 210.482803599573 125.564359390617 3.46410161513781
vertex 210.482803599573 125.564359390617 2.16506350946113
endloop
endfacet
facet normal 0.992277876713668 0.124034734589203 1.97527360657152e-16
outer loop
vertex 210.482803599573 125.564359390617 3.46410161513781
vertex 210.107803599573 128.564359390617 2.16506350946114
vertex 210.482803599573 125.564359390617 7.90000000000005
endloop
endfacet
facet normal 0.992277876713668 0.124034734589203 1.97527360657152e-16
outer loop
vertex 210.482803599573 125.564359390617 7.90000000000005
vertex 210.107803599573 128.564359390617 2.16506350946114
vertex 210.107803599573 128.564359390617 6.27868417743724
endloop
endfacet
facet normal 0.992277876713668 0.124034734589203 1.97527360657152e-16
outer loop
vertex 210.107803599573 128.564359390617 6.27868417743724
vertex 209.482803599573 133.564359390617 7.90000000000007
vertex 210.482803599573 125.564359390617 7.90000000000005
endloop
endfacet
facet normal 0.992277876713668 0.124034734589203 1.97527360657152e-16
outer loop
vertex 209.482803599573 133.564359390617 7.90000000000007
vertex 210.107803599573 128.564359390617 6.27868417743724
vertex 209.482803599573 133.564359390617 6.92820323027556
endloop
endfacet
facet normal -0.866025403784441 1.43982048506074e-15 -0.499999999999996
outer loop
vertex 211.732803599573 128.564359390617 2.16506350946114
vertex 212.982803599573 118.464359390617 1.12798659301916e-14
vertex 211.732803599573 118.464359390617 2.16506350946111
endloop
endfacet
facet normal -0.866025403784441 1.43982048506074e-15 -0.499999999999996
outer loop
vertex 212.982803599573 118.464359390617 1.12798659301916e-14
vertex 211.732803599573 128.564359390617 2.16506350946114
vertex 212.982803599573 128.564359390617 3.66595642731227e-14
endloop
endfacet
facet normal -0.866025403784441 -1.43982048506074e-15 0.499999999999996
outer loop
vertex 212.982803599573 128.564359390617 3.66595642731227e-14
vertex 211.732803599573 118.464359390617 -2.16506350946107
vertex 212.982803599573 118.464359390617 1.12798659301916e-14
endloop
endfacet
facet normal -0.866025403784441 -1.43982048506074e-15 0.499999999999996
outer loop
vertex 211.732803599573 118.464359390617 -2.16506350946107
vertex 212.982803599573 128.564359390617 3.66595642731227e-14
vertex 211.732803599573 128.564359390617 -2.16506350946105
endloop
endfacet
facet normal 0.995037190209989 0.099503719021006 2.92058551966994e-16
outer loop
vertex 218.482803599573 133.564359390617 -7.89999999999993
vertex 218.633051740062 132.061877985722 7.90000000000006
vertex 218.633051740062 132.061877985722 -7.89999999999993
endloop
endfacet
facet normal 0.995037190209989 0.099503719021006 2.92058551966994e-16
outer loop
vertex 218.633051740062 132.061877985722 7.90000000000006
vertex 218.482803599573 133.564359390617 -7.89999999999993
vertex 218.482803599573 133.564359390617 7.90000000000004
endloop
endfacet
facet normal 0.0 1.0 2.93515212135276e-15
outer loop
vertex 218.482803599573 123.564359390617 7.90000000000004
vertex 220.682803599573 123.564359390617 -7.89999999999995
vertex 218.482803599573 123.564359390617 -7.89999999999995
endloop
endfacet
facet normal 0.0 1.0 2.93515212135276e-15
outer loop
vertex 220.682803599573 123.564359390617 -7.89999999999995
vertex 218.482803599573 123.564359390617 7.90000000000004
vertex 220.682803599573 123.564359390617 7.90000000000004
endloop
endfacet
facet normal 0.85332018598286 0.170664037196572 -0.492664639082149
outer loop
vertex 205.482803599573 133.564359390617 5.21693799271361e-14
vertex 208.482803599573 128.564359390617 3.46410161513781
vertex 206.482803599573 128.564359390617 3.66595642731227e-14
endloop
endfacet
facet normal 0.85332018598286 0.170664037196572 -0.492664639082149
outer loop
vertex 208.482803599573 128.564359390617 3.46410161513781
vertex 205.482803599573 133.564359390617 5.21693799271361e-14
vertex 210.107803599573 128.564359390617 6.27868417743724
endloop
endfacet
facet normal 0.85332018598286 0.170664037196572 -0.492664639082149
outer loop
vertex 210.107803599573 128.564359390617 6.27868417743724
vertex 205.482803599573 133.564359390617 5.21693799271361e-14
vertex 209.482803599573 133.564359390617 6.92820323027556
endloop
endfacet
facet normal 0.85332018598286 0.170664037196572 -0.492664639082149
outer loop
vertex 209.482803599573 133.564359390617 6.92820323027556
vertex 205.482803599573 133.564359390617 5.21693799271361e-14
vertex 207.982803599573 133.564359390617 4.33012701892226
endloop
endfacet
facet normal -1.46967094489309e-16 -2.33840724561674e-15 1.0
outer loop
vertex 202.560153697685 131.148334243448 7.90000000000004
vertex 202.482803599573 133.564359390617 7.90000000000007
vertex 202.332555459083 132.061877985722 7.90000000000004
endloop
endfacet
facet normal -1.46967094489309e-16 -2.33840724561674e-15 1.0
outer loop
vertex 202.482803599573 133.564359390617 7.90000000000007
vertex 202.560153697685 131.148334243448 7.90000000000004
vertex 209.482803599573 133.564359390617 7.90000000000007
endloop
endfacet
facet normal -1.46967094489309e-16 -2.33840724561674e-15 1.0
outer loop
vertex 209.482803599573 133.564359390617 7.90000000000007
vertex 202.560153697685 131.148334243448 7.90000000000004
vertex 206.282803599573 125.564359390617 7.90000000000005
endloop
endfacet
facet normal -1.46967094489309e-16 -2.33840724561674e-15 1.0
outer loop
vertex 209.482803599573 133.564359390617 7.90000000000007
vertex 206.282803599573 125.564359390617 7.90000000000005
vertex 206.837503795798 124.732309096279 7.90000000000004
endloop
endfacet
facet normal -1.46967094489309e-16 -2.33840724561674e-15 1.0
outer loop
vertex 220.682803599573 118.464359390617 7.90000000000003
vertex 200.282803599573 123.564359390617 7.90000000000004
vertex 200.282803599573 118.464359390617 7.90000000000003
endloop
endfacet
facet normal -1.46967094489309e-16 -2.33840724561674e-15 1.0
outer loop
vertex 200.282803599573 123.564359390617 7.90000000000004
vertex 220.682803599573 118.464359390617 7.90000000000003
vertex 202.482803599573 123.564359390617 7.90000000000004
endloop
endfacet
facet normal -1.46967094489309e-16 -2.33840724561674e-15 1.0
outer loop
vertex 202.482803599573 123.564359390617 7.90000000000004
vertex 220.682803599573 118.464359390617 7.90000000000003
vertex 202.982803599573 125.564359390617 7.90000000000002
endloop
endfacet
facet normal -1.46967094489309e-16 -2.33840724561674e-15 1.0
outer loop
vertex 202.982803599573 125.564359390617 7.90000000000002
vertex 220.682803599573 118.464359390617 7.90000000000003
vertex 206.837503795798 124.732309096279 7.90000000000004
endloop
endfacet
facet normal -1.46967094489309e-16 -2.33840724561674e-15 1.0
outer loop
vertex 202.982803599573 125.564359390617 7.90000000000002
vertex 206.837503795798 124.732309096279 7.90000000000004
vertex 205.282803599573 125.564359390617 7.90000000000005
endloop
endfacet
facet normal -1.46967094489309e-16 -2.33840724561674e-15 1.0
outer loop
vertex 206.837503795798 124.732309096279 7.90000000000004
vertex 220.682803599573 118.464359390617 7.90000000000003
vertex 210.482803599573 125.564359390617 7.90000000000005
endloop
endfacet
facet normal -1.46967094489309e-16 -2.33840724561674e-15 1.0
outer loop
vertex 206.837503795798 124.732309096279 7.90000000000004
vertex 210.482803599573 125.564359390617 7.90000000000005
vertex 209.482803599573 133.564359390617 7.90000000000007
endloop
endfacet
facet normal -1.46967094489309e-16 -2.33840724561674e-15 1.0
outer loop
vertex 210.482803599573 125.564359390617 7.90000000000005
vertex 220.682803599573 118.464359390617 7.90000000000003
vertex 214.18357342297 124.732309096279 7.90000000000004
endloop
endfacet
facet normal -1.46967094489309e-16 -2.33840724561674e-15 1.0
outer loop
vertex 210.482803599573 125.564359390617 7.90000000000005
vertex 214.18357342297 124.732309096279 7.90000000000004
vertex 211.482803599573 133.564359390617 7.90000000000007
endloop
endfacet
facet normal -1.46967094489309e-16 -2.33840724561674e-15 1.0
outer loop
vertex 214.18357342297 124.732309096279 7.90000000000004
vertex 220.682803599573 118.464359390617 7.90000000000003
vertex 215.682803599573 125.564359390617 7.90000000000005
endloop
endfacet
facet normal -1.46967094489309e-16 -2.33840724561674e-15 1.0
outer loop
vertex 215.682803599573 125.564359390617 7.90000000000005
vertex 220.682803599573 118.464359390617 7.90000000000003
vertex 218.482803599573 123.564359390617 7.90000000000004
endloop
endfacet
facet normal -1.46967094489309e-16 -2.33840724561674e-15 1.0
outer loop
vertex 215.682803599573 125.564359390617 7.90000000000005
vertex 218.482803599573 123.564359390617 7.90000000000004
vertex 217.982803599573 125.564359390617 7.90000000000002
endloop
endfacet
facet normal -1.46967094489309e-16 -2.33840724561674e-15 1.0
outer loop
vertex 218.482803599573 123.564359390617 7.90000000000004
vertex 220.682803599573 118.464359390617 7.90000000000003
vertex 220.682803599573 123.564359390617 7.90000000000004
endloop
endfacet
facet normal -1.46967094489309e-16 -2.33840724561674e-15 1.0
outer loop
vertex 214.18357342297 124.732309096279 7.90000000000004
vertex 218.482803599573 133.564359390617 7.90000000000004
vertex 211.482803599573 133.564359390617 7.90000000000007
endloop
endfacet
facet normal -1.46967094489309e-16 -2.33840724561674e-15 1.0
outer loop
vertex 218.482803599573 133.564359390617 7.90000000000004
vertex 214.18357342297 124.732309096279 7.90000000000004
vertex 214.682803599573 125.564359390617 7.90000000000005
endloop
endfacet
facet normal -1.46967094489309e-16 -2.33840724561674e-15 1.0
outer loop
vertex 218.482803599573 133.564359390617 7.90000000000004
vertex 214.682803599573 125.564359390617 7.90000000000005
vertex 218.40545350146 131.148334243448 7.90000000000006
endloop
endfacet
facet normal -1.46967094489309e-16 -2.33840724561674e-15 1.0
outer loop
vertex 218.482803599573 133.564359390617 7.90000000000004
vertex 218.40545350146 131.148334243448 7.90000000000006
vertex 218.633051740062 132.061877985722 7.90000000000006
endloop
endfacet
facet normal -0.832050294337844 -0.554700196225229 -2.84243589084904e-15
outer loop
vertex 202.560153697685 131.148334243448 7.90000000000004
vertex 206.282803599573 125.564359390617 -7.89999999999995
vertex 206.282803599573 125.564359390617 7.90000000000005
endloop
endfacet
facet normal -0.832050294337844 -0.554700196225229 -2.84243589084904e-15
outer loop
vertex 206.282803599573 125.564359390617 -7.89999999999995
vertex 202.560153697685 131.148334243448 7.90000000000004
vertex 202.560153697685 131.148334243448 -7.89999999999993
endloop
endfacet
facet normal 0.0 1.0 2.93515212135276e-15
outer loop
vertex 215.682803599573 125.564359390617 7.90000000000005
vertex 217.982803599573 125.564359390617 -7.89999999999995
vertex 215.682803599573 125.564359390617 -7.89999999999995
endloop
endfacet
facet normal 0.0 1.0 2.93515212135276e-15
outer loop
vertex 217.982803599573 125.564359390617 -7.89999999999995
vertex 215.682803599573 125.564359390617 7.90000000000005
vertex 217.982803599573 125.564359390617 7.90000000000002
endloop
endfacet
facet normal 0.0 1.0 2.93515212135276e-15
outer loop
vertex 206.482803599573 128.564359390617 3.66595642731227e-14
vertex 209.232803599573 128.564359390617 -2.16506350946105
vertex 208.482803599573 128.564359390617 -3.46410161513773
endloop
endfacet
facet normal 0.0 1.0 2.93515212135276e-15
outer loop
vertex 209.232803599573 128.564359390617 -2.16506350946105
vertex 206.482803599573 128.564359390617 3.66595642731227e-14
vertex 207.982803599573 128.564359390617 3.66595642731227e-14
endloop
endfacet
facet normal 0.0 1.0 2.93515212135276e-15
outer loop
vertex 207.982803599573 128.564359390617 3.66595642731227e-14
vertex 206.482803599573 128.564359390617 3.66595642731227e-14
vertex 208.482803599573 128.564359390617 3.46410161513781
endloop
endfacet
facet normal 0.0 1.0 2.93515212135276e-15
outer loop
vertex 207.982803599573 128.564359390617 3.66595642731227e-14
vertex 208.482803599573 128.564359390617 3.46410161513781
vertex 209.232803599573 128.564359390617 2.16506350946114
endloop
endfacet
facet normal 0.0 1.0 2.93515212135276e-15
outer loop
vertex 209.232803599573 128.564359390617 2.16506350946114
vertex 208.482803599573 128.564359390617 3.46410161513781
vertex 210.107803599573 128.564359390617 2.16506350946114
endloop
endfacet
facet normal 0.0 1.0 2.93515212135276e-15
outer loop
vertex 210.107803599573 128.564359390617 2.16506350946114
vertex 208.482803599573 128.564359390617 3.46410161513781
vertex 210.107803599573 128.564359390617 6.27868417743724
endloop
endfacet
facet normal 0.0 1.0 2.93515212135276e-15
outer loop
vertex 208.482803599573 128.564359390617 -3.46410161513773
vertex 210.107803599573 128.564359390617 -2.16506350946105
vertex 210.107803599573 128.564359390617 -6.27868417743716
endloop
endfacet
facet normal 0.0 1.0 2.93515212135276e-15
outer loop
vertex 210.107803599573 128.564359390617 -2.16506350946105
vertex 208.482803599573 128.564359390617 -3.46410161513773
vertex 209.232803599573 128.564359390617 -2.16506350946105
endloop
endfacet
facet normal -0.853320185982862 0.170664037196566 0.492664639082148
outer loop
vertex 215.482803599573 133.564359390617 5.21693799271361e-14
vertex 212.482803599573 128.564359390617 -3.46410161513773
vertex 214.482803599573 128.564359390617 3.66595642731227e-14
endloop
endfacet
facet normal -0.853320185982862 0.170664037196566 0.492664639082148
outer loop
vertex 212.482803599573 128.564359390617 -3.46410161513773
vertex 211.482803599573 133.564359390617 -6.9282032302753
vertex 210.857803599573 128.564359390617 -6.27868417743716
endloop
endfacet
facet normal -0.853320185982862 0.170664037196566 0.492664639082148
outer loop
vertex 211.482803599573 133.564359390617 -6.9282032302753
vertex 212.482803599573 128.564359390617 -3.46410161513773
vertex 215.482803599573 133.564359390617 5.21693799271361e-14
endloop
endfacet
facet normal -0.853320185982862 0.170664037196566 0.492664639082148
outer loop
vertex 211.482803599573 133.564359390617 -6.9282032302753
vertex 215.482803599573 133.564359390617 5.21693799271361e-14
vertex 212.982803599573 133.564359390617 -4.33012701892214
endloop
endfacet
facet normal 0.0 1.0 2.93515212135276e-15
outer loop
vertex 202.982803599573 125.564359390617 7.90000000000002
vertex 205.282803599573 125.564359390617 -7.89999999999995
vertex 202.982803599573 125.564359390617 -7.89999999999995
endloop
endfacet
facet normal 0.0 1.0 2.93515212135276e-15
outer loop
vertex 205.282803599573 125.564359390617 -7.89999999999995
vertex 202.982803599573 125.564359390617 7.90000000000002
vertex 205.282803599573 125.564359390617 7.90000000000005
endloop
endfacet
facet normal 0.853320185982859 0.170664037196567 0.492664639082152
outer loop
vertex 209.482803599573 133.564359390617 -6.92820323027539
vertex 208.482803599573 128.564359390617 -3.46410161513773
vertex 210.107803599573 128.564359390617 -6.27868417743716
endloop
endfacet
facet normal 0.853320185982859 0.170664037196567 0.492664639082152
outer loop
vertex 208.482803599573 128.564359390617 -3.46410161513773
vertex 209.482803599573 133.564359390617 -6.92820323027539
vertex 205.482803599573 133.564359390617 5.21693799271361e-14
endloop
endfacet
facet normal 0.853320185982859 0.170664037196567 0.492664639082152
outer loop
vertex 205.482803599573 133.564359390617 5.21693799271361e-14
vertex 209.482803599573 133.564359390617 -6.92820323027539
vertex 207.982803599573 133.564359390617 -4.33012701892214
endloop
endfacet
facet normal 0.853320185982859 0.170664037196567 0.492664639082152
outer loop
vertex 205.482803599573 133.564359390617 5.21693799271361e-14
vertex 206.482803599573 128.564359390617 3.66595642731227e-14
vertex 208.482803599573 128.564359390617 -3.46410161513773
endloop
endfacet
facet normal 0.832050294337846 -0.554700196225226 -1.63506835156917e-15
outer loop
vertex 214.682803599573 125.564359390617 -7.89999999999995
vertex 218.40545350146 131.148334243448 7.90000000000006
vertex 214.682803599573 125.564359390617 7.90000000000005
endloop
endfacet
facet normal 0.832050294337846 -0.554700196225226 -1.63506835156917e-15
outer loop
vertex 218.40545350146 131.148334243448 7.90000000000006
vertex 214.682803599573 125.564359390617 -7.89999999999995
vertex 218.40545350146 131.148334243448 -7.89999999999993
endloop
endfacet
facet normal 0.866025403784441 -1.43982048506074e-15 0.499999999999996
outer loop
vertex 209.232803599573 128.564359390617 -2.16506350946105
vertex 207.982803599573 118.464359390617 1.12798659301916e-14
vertex 209.232803599573 118.464359390617 -2.16506350946107
endloop
endfacet
facet normal 0.866025403784441 -1.43982048506074e-15 0.499999999999996
outer loop
vertex 207.982803599573 118.464359390617 1.12798659301916e-14
vertex 209.232803599573 128.564359390617 -2.16506350946105
vertex 207.982803599573 128.564359390617 3.66595642731227e-14
endloop
endfacet
facet normal 0.0 2.93515212135276e-15 -1.0
outer loop
vertex 210.107803599573 128.564359390617 2.16506350946114
vertex 209.232803599573 118.464359390617 2.16506350946111
vertex 209.232803599573 128.564359390617 2.16506350946114
endloop
endfacet
facet normal 0.0 2.93515212135276e-15 -1.0
outer loop
vertex 209.232803599573 118.464359390617 2.16506350946111
vertex 210.107803599573 128.564359390617 2.16506350946114
vertex 210.482803599573 118.464359390617 2.16506350946111
endloop
endfacet
facet normal 0.0 2.93515212135276e-15 -1.0
outer loop
vertex 210.482803599573 118.464359390617 2.16506350946111
vertex 210.107803599573 128.564359390617 2.16506350946114
vertex 210.482803599573 125.564359390617 2.16506350946113
endloop
endfacet
facet normal 0.0 2.93515212135276e-15 -1.0
outer loop
vertex 210.482803599573 118.464359390617 2.16506350946111
vertex 210.482803599573 125.564359390617 2.16506350946113
vertex 210.857803599573 128.564359390617 2.16506350946114
endloop
endfacet
facet normal 0.0 2.93515212135276e-15 -1.0
outer loop
vertex 210.482803599573 118.464359390617 2.16506350946111
vertex 210.857803599573 128.564359390617 2.16506350946114
vertex 211.732803599573 118.464359390617 2.16506350946111
endloop
endfacet
facet normal 0.0 2.93515212135276e-15 -1.0
outer loop
vertex 211.732803599573 118.464359390617 2.16506350946111
vertex 210.857803599573 128.564359390617 2.16506350946114
vertex 211.732803599573 128.564359390617 2.16506350946114
endloop
endfacet
facet normal -0.995037190209989 0.099503719021006 2.92058551966994e-16
outer loop
vertex 202.332555459083 132.061877985722 7.90000000000004
vertex 202.482803599573 133.564359390617 -7.89999999999993
vertex 202.332555459083 132.061877985722 -7.89999999999993
endloop
endfacet
facet normal -0.995037190209989 0.099503719021006 2.92058551966994e-16
outer loop
vertex 202.482803599573 133.564359390617 -7.89999999999993
vertex 202.332555459083 132.061877985722 7.90000000000004
vertex 202.482803599573 133.564359390617 7.90000000000007
endloop
endfacet
facet normal 0.0 1.0 2.93515212135276e-15
outer loop
vertex 200.282803599573 123.564359390617 7.90000000000004
vertex 202.482803599573 123.564359390617 -7.89999999999995
vertex 200.282803599573 123.564359390617 -7.89999999999995
endloop
endfacet
facet normal 0.0 1.0 2.93515212135276e-15
outer loop
vertex 202.482803599573 123.564359390617 -7.89999999999995
vertex 200.282803599573 123.564359390617 7.90000000000004
vertex 202.482803599573 123.564359390617 7.90000000000004
endloop
endfacet
facet normal 0.0 1.0 2.93515212135276e-15
outer loop
vertex 210.857803599573 128.564359390617 6.27868417743724
vertex 211.732803599573 128.564359390617 2.16506350946114
vertex 210.857803599573 128.564359390617 2.16506350946114
endloop
endfacet
facet normal 0.0 1.0 2.93515212135276e-15
outer loop
vertex 211.732803599573 128.564359390617 2.16506350946114
vertex 210.857803599573 128.564359390617 6.27868417743724
vertex 212.482803599573 128.564359390617 3.46410161513781
endloop
endfacet
facet normal 0.0 1.0 2.93515212135276e-15
outer loop
vertex 210.857803599573 128.564359390617 -2.16506350946105
vertex 212.482803599573 128.564359390617 -3.46410161513773
vertex 210.857803599573 128.564359390617 -6.27868417743716
endloop
endfacet
facet normal 0.0 1.0 2.93515212135276e-15
outer loop
vertex 212.482803599573 128.564359390617 -3.46410161513773
vertex 210.857803599573 128.564359390617 -2.16506350946105
vertex 211.732803599573 128.564359390617 -2.16506350946105
endloop
endfacet
facet normal 0.0 1.0 2.93515212135276e-15
outer loop
vertex 212.482803599573 128.564359390617 -3.46410161513773
vertex 211.732803599573 128.564359390617 -2.16506350946105
vertex 214.482803599573 128.564359390617 3.66595642731227e-14
endloop
endfacet
facet normal 0.0 1.0 2.93515212135276e-15
outer loop
vertex 214.482803599573 128.564359390617 3.66595642731227e-14
vertex 211.732803599573 128.564359390617 -2.16506350946105
vertex 212.982803599573 128.564359390617 3.66595642731227e-14
endloop
endfacet
facet normal 0.0 1.0 2.93515212135276e-15
outer loop
vertex 214.482803599573 128.564359390617 3.66595642731227e-14
vertex 212.982803599573 128.564359390617 3.66595642731227e-14
vertex 211.732803599573 128.564359390617 2.16506350946114
endloop
endfacet
facet normal 0.0 1.0 2.93515212135276e-15
outer loop
vertex 214.482803599573 128.564359390617 3.66595642731227e-14
vertex 211.732803599573 128.564359390617 2.16506350946114
vertex 212.482803599573 128.564359390617 3.46410161513781
endloop
endfacet
facet normal -0.853320185982862 0.17066403719657 -0.492664639082146
outer loop
vertex 210.857803599573 128.564359390617 6.27868417743724
vertex 214.482803599573 128.564359390617 3.66595642731227e-14
vertex 212.482803599573 128.564359390617 3.46410161513781
endloop
endfacet
facet normal -0.853320185982862 0.17066403719657 -0.492664639082146
outer loop
vertex 214.482803599573 128.564359390617 3.66595642731227e-14
vertex 210.857803599573 128.564359390617 6.27868417743724
vertex 215.482803599573 133.564359390617 5.21693799271361e-14
endloop
endfacet
facet normal -0.853320185982862 0.17066403719657 -0.492664639082146
outer loop
vertex 215.482803599573 133.564359390617 5.21693799271361e-14
vertex 210.857803599573 128.564359390617 6.27868417743724
vertex 211.482803599573 133.564359390617 6.92820323027545
endloop
endfacet
facet normal -0.853320185982862 0.17066403719657 -0.492664639082146
outer loop
vertex 215.482803599573 133.564359390617 5.21693799271361e-14
vertex 211.482803599573 133.564359390617 6.92820323027545
vertex 212.982803599573 133.564359390617 4.33012701892226
endloop
endfacet
facet normal 0.0 -2.93515212135276e-15 1.0
outer loop
vertex 210.482803599573 118.464359390617 -2.16506350946107
vertex 209.232803599573 128.564359390617 -2.16506350946105
vertex 209.232803599573 118.464359390617 -2.16506350946107
endloop
endfacet
facet normal 0.0 -2.93515212135276e-15 1.0
outer loop
vertex 209.232803599573 128.564359390617 -2.16506350946105
vertex 210.482803599573 118.464359390617 -2.16506350946107
vertex 210.107803599573 128.564359390617 -2.16506350946105
endloop
endfacet
facet normal 0.0 -2.93515212135276e-15 1.0
outer loop
vertex 210.107803599573 128.564359390617 -2.16506350946105
vertex 210.482803599573 118.464359390617 -2.16506350946107
vertex 210.482803599573 125.564359390617 -2.16506350946105
endloop
endfacet
facet normal 0.0 -2.93515212135276e-15 1.0
outer loop
vertex 210.482803599573 125.564359390617 -2.16506350946105
vertex 210.482803599573 118.464359390617 -2.16506350946107
vertex 211.732803599573 118.464359390617 -2.16506350946107
endloop
endfacet
facet normal 0.0 -2.93515212135276e-15 1.0
outer loop
vertex 210.482803599573 125.564359390617 -2.16506350946105
vertex 211.732803599573 118.464359390617 -2.16506350946107
vertex 210.857803599573 128.564359390617 -2.16506350946105
endloop
endfacet
facet normal 0.0 -2.93515212135276e-15 1.0
outer loop
vertex 210.857803599573 128.564359390617 -2.16506350946105
vertex 211.732803599573 118.464359390617 -2.16506350946107
vertex 211.732803599573 128.564359390617 -2.16506350946105
endloop
endfacet
facet normal 1.0 0.0 0.0
outer loop
vertex 220.682803599573 118.464359390617 -7.89999999999997
vertex 220.682803599573 123.564359390617 7.90000000000004
vertex 220.682803599573 118.464359390617 7.90000000000003
endloop
endfacet
facet normal 1.0 0.0 0.0
outer loop
vertex 220.682803599573 123.564359390617 7.90000000000004
vertex 220.682803599573 118.464359390617 -7.89999999999997
vertex 220.682803599573 123.564359390617 -7.89999999999995
endloop
endfacet
facet normal 0.0 2.93515212135276e-15 -1.0
outer loop
vertex 202.482803599573 133.564359390617 -7.89999999999993
vertex 202.560153697685 131.148334243448 -7.89999999999993
vertex 202.332555459083 132.061877985722 -7.89999999999993
endloop
endfacet
facet normal 0.0 2.93515212135276e-15 -1.0
outer loop
vertex 202.560153697685 131.148334243448 -7.89999999999993
vertex 202.482803599573 133.564359390617 -7.89999999999993
vertex 209.482803599573 133.564359390617 -7.89999999999993
endloop
endfacet
facet normal 0.0 2.93515212135276e-15 -1.0
outer loop
vertex 202.560153697685 131.148334243448 -7.89999999999993
vertex 209.482803599573 133.564359390617 -7.89999999999993
vertex 206.282803599573 125.564359390617 -7.89999999999995
endloop
endfacet
facet normal 0.0 2.93515212135276e-15 -1.0
outer loop
vertex 206.282803599573 125.564359390617 -7.89999999999995
vertex 209.482803599573 133.564359390617 -7.89999999999993
vertex 206.837503795798 124.732309096279 -7.89999999999995
endloop
endfacet
facet normal 0.0 2.93515212135276e-15 -1.0
outer loop
vertex 218.482803599573 133.564359390617 -7.89999999999993
vertex 214.18357342297 124.732309096279 -7.89999999999995
vertex 211.482803599573 133.564359390617 -7.89999999999993
endloop
endfacet
facet normal 0.0 2.93515212135276e-15 -1.0
outer loop
vertex 214.18357342297 124.732309096279 -7.89999999999995
vertex 218.482803599573 133.564359390617 -7.89999999999993
vertex 214.682803599573 125.564359390617 -7.89999999999995
endloop
endfacet
facet normal 0.0 2.93515212135276e-15 -1.0
outer loop
vertex 214.682803599573 125.564359390617 -7.89999999999995
vertex 218.482803599573 133.564359390617 -7.89999999999993
vertex 218.40545350146 131.148334243448 -7.89999999999993
endloop
endfacet
facet normal 0.0 2.93515212135276e-15 -1.0
outer loop
vertex 218.40545350146 131.148334243448 -7.89999999999993
vertex 218.482803599573 133.564359390617 -7.89999999999993
vertex 218.633051740062 132.061877985722 -7.89999999999993
endloop
endfacet
facet normal 0.0 2.93515212135276e-15 -1.0
outer loop
vertex 202.482803599573 123.564359390617 -7.89999999999995
vertex 200.282803599573 118.464359390617 -7.89999999999997
vertex 200.282803599573 123.564359390617 -7.89999999999995
endloop
endfacet
facet normal 0.0 2.93515212135276e-15 -1.0
outer loop
vertex 200.282803599573 118.464359390617 -7.89999999999997
vertex 202.482803599573 123.564359390617 -7.89999999999995
vertex 220.682803599573 118.464359390617 -7.89999999999997
endloop
endfacet
facet normal 0.0 2.93515212135276e-15 -1.0
outer loop
vertex 220.682803599573 118.464359390617 -7.89999999999997
vertex 202.482803599573 123.564359390617 -7.89999999999995
vertex 202.982803599573 125.564359390617 -7.89999999999995
endloop
endfacet
facet normal 0.0 2.93515212135276e-15 -1.0
outer loop
vertex 220.682803599573 118.464359390617 -7.89999999999997
vertex 202.982803599573 125.564359390617 -7.89999999999995
vertex 206.837503795798 124.732309096279 -7.89999999999995
endloop
endfacet
facet normal 0.0 2.93515212135276e-15 -1.0
outer loop
vertex 206.837503795798 124.732309096279 -7.89999999999995
vertex 202.982803599573 125.564359390617 -7.89999999999995
vertex 205.282803599573 125.564359390617 -7.89999999999995
endloop
endfacet
facet normal 0.0 2.93515212135276e-15 -1.0
outer loop
vertex 220.682803599573 118.464359390617 -7.89999999999997
vertex 206.837503795798 124.732309096279 -7.89999999999995
vertex 210.482803599573 125.564359390617 -7.89999999999995
endloop
endfacet
facet normal 0.0 2.93515212135276e-15 -1.0
outer loop
vertex 210.482803599573 125.564359390617 -7.89999999999995
vertex 206.837503795798 124.732309096279 -7.89999999999995
vertex 209.482803599573 133.564359390617 -7.89999999999993
endloop
endfacet
facet normal 0.0 2.93515212135276e-15 -1.0
outer loop
vertex 220.682803599573 118.464359390617 -7.89999999999997
vertex 210.482803599573 125.564359390617 -7.89999999999995
vertex 214.18357342297 124.732309096279 -7.89999999999995
endloop
endfacet
facet normal 0.0 2.93515212135276e-15 -1.0
outer loop
vertex 214.18357342297 124.732309096279 -7.89999999999995
vertex 210.482803599573 125.564359390617 -7.89999999999995
vertex 211.482803599573 133.564359390617 -7.89999999999993
endloop
endfacet
facet normal 0.0 2.93515212135276e-15 -1.0
outer loop
vertex 220.682803599573 118.464359390617 -7.89999999999997
vertex 214.18357342297 124.732309096279 -7.89999999999995
vertex 215.682803599573 125.564359390617 -7.89999999999995
endloop
endfacet
facet normal 0.0 2.93515212135276e-15 -1.0
outer loop
vertex 220.682803599573 118.464359390617 -7.89999999999997
vertex 215.682803599573 125.564359390617 -7.89999999999995
vertex 218.482803599573 123.564359390617 -7.89999999999995
endloop
endfacet
facet normal 0.0 2.93515212135276e-15 -1.0
outer loop
vertex 218.482803599573 123.564359390617 -7.89999999999995
vertex 215.682803599573 125.564359390617 -7.89999999999995
vertex 217.982803599573 125.564359390617 -7.89999999999995
endloop
endfacet
facet normal 0.0 2.93515212135276e-15 -1.0
outer loop
vertex 220.682803599573 118.464359390617 -7.89999999999997
vertex 218.482803599573 123.564359390617 -7.89999999999995
vertex 220.682803599573 123.564359390617 -7.89999999999995
endloop
endfacet
facet normal -1.0 0.0 0.0
outer loop
vertex 200.282803599573 123.564359390617 7.90000000000004
vertex 200.282803599573 118.464359390617 -7.89999999999997
vertex 200.282803599573 118.464359390617 7.90000000000003
endloop
endfacet
facet normal -1.0 0.0 0.0
outer loop
vertex 200.282803599573 118.464359390617 -7.89999999999997
vertex 200.282803599573 123.564359390617 7.90000000000004
vertex 200.282803599573 123.564359390617 -7.89999999999995
endloop
endfacet
facet normal -6.2593318034188e-18 -1.0 -3.37924133120282e-15
outer loop
vertex 220.682803599573 118.464359390617 -7.89999999999997
vertex 211.732803599573 118.464359390617 -2.16506350946107
vertex 200.282803599573 118.464359390617 -7.89999999999997
endloop
endfacet
facet normal -6.2593318034188e-18 -1.0 -3.37924133120282e-15
outer loop
vertex 211.732803599573 118.464359390617 -2.16506350946107
vertex 220.682803599573 118.464359390617 -7.89999999999997
vertex 220.682803599573 118.464359390617 7.90000000000003
endloop
endfacet
facet normal -6.2593318034188e-18 -1.0 -3.37924133120282e-15
outer loop
vertex 211.732803599573 118.464359390617 -2.16506350946107
vertex 220.682803599573 118.464359390617 7.90000000000003
vertex 212.982803599573 118.464359390617 1.12798659301916e-14
endloop
endfacet
facet normal -6.2593318034188e-18 -1.0 -3.37924133120282e-15
outer loop
vertex 212.982803599573 118.464359390617 1.12798659301916e-14
vertex 220.682803599573 118.464359390617 7.90000000000003
vertex 211.732803599573 118.464359390617 2.16506350946111
endloop
endfacet
facet normal -6.2593318034188e-18 -1.0 -3.37924133120282e-15
outer loop
vertex 211.732803599573 118.464359390617 2.16506350946111
vertex 220.682803599573 118.464359390617 7.90000000000003
vertex 210.482803599573 118.464359390617 2.16506350946111
endloop
endfacet
facet normal -6.2593318034188e-18 -1.0 -3.37924133120282e-15
outer loop
vertex 210.482803599573 118.464359390617 2.16506350946111
vertex 220.682803599573 118.464359390617 7.90000000000003
vertex 209.232803599573 118.464359390617 2.16506350946111
endloop
endfacet
facet normal -6.2593318034188e-18 -1.0 -3.37924133120282e-15
outer loop
vertex 200.282803599573 118.464359390617 -7.89999999999997
vertex 209.232803599573 118.464359390617 -2.16506350946107
vertex 200.282803599573 118.464359390617 7.90000000000003
endloop
endfacet
facet normal -6.2593318034188e-18 -1.0 -3.37924133120282e-15
outer loop
vertex 209.232803599573 118.464359390617 -2.16506350946107
vertex 200.282803599573 118.464359390617 -7.89999999999997
vertex 211.732803599573 118.464359390617 -2.16506350946107
endloop
endfacet
facet normal -6.2593318034188e-18 -1.0 -3.37924133120282e-15
outer loop
vertex 209.232803599573 118.464359390617 -2.16506350946107
vertex 211.732803599573 118.464359390617 -2.16506350946107
vertex 210.482803599573 118.464359390617 -2.16506350946107
endloop
endfacet
facet normal -6.2593318034188e-18 -1.0 -3.37924133120282e-15
outer loop
vertex 200.282803599573 118.464359390617 7.90000000000003
vertex 209.232803599573 118.464359390617 -2.16506350946107
vertex 207.982803599573 118.464359390617 1.12798659301916e-14
endloop
endfacet
facet normal -6.2593318034188e-18 -1.0 -3.37924133120282e-15
outer loop
vertex 200.282803599573 118.464359390617 7.90000000000003
vertex 207.982803599573 118.464359390617 1.12798659301916e-14
vertex 209.232803599573 118.464359390617 2.16506350946111
endloop
endfacet
facet normal -6.2593318034188e-18 -1.0 -3.37924133120282e-15
outer loop
vertex 200.282803599573 118.464359390617 7.90000000000003
vertex 209.232803599573 118.464359390617 2.16506350946111
vertex 220.682803599573 118.464359390617 7.90000000000003
endloop
endfacet
endsolid Plug Test
