solid Plug Test
facet normal -0.970142500145332 -0.242535625036332 4.49293380277993e-16
outer loop
vertex 176.187679755431 281.254872948977 15.8
vertex 175.687679755431 283.254872948977 3.66595642731227e-14
vertex 176.187679755431 281.254872948977 3.38395977905748e-14
endloop
endfacet
facet normal -0.970142500145332 -0.242535625036332 4.49293380277993e-16
outer loop
vertex 175.687679755431 283.254872948977 3.66595642731227e-14
vertex 176.187679755431 281.254872948977 15.8
vertex 175.687679755431 283.254872948977 15.8
endloop
endfacet
facet normal 0.97014250014533 -0.242535625036343 4.18068357710411e-16
outer loop
vertex 191.687679755431 283.254872948977 3.66595642731227e-14
vertex 191.187679755431 281.254872948977 15.8
vertex 191.187679755431 281.254872948977 3.38395977905748e-14
endloop
endfacet
facet normal 0.97014250014533 -0.242535625036343 4.18068357710411e-16
outer loop
vertex 191.187679755431 281.254872948977 15.8
vertex 191.687679755431 283.254872948977 3.66595642731227e-14
vertex 191.687679755431 283.254872948977 15.8
endloop
endfacet
facet normal -9.89493350136612e-17 2.01051771057621e-15 1.0
outer loop
vertex 175.687679755431 273.254872948977 15.8
vertex 175.765029853543 275.670898096146 15.8
vertex 175.537431614941 274.757354353872 15.8
endloop
endfacet
facet normal -9.89493350136612e-17 2.01051771057621e-15 1.0
outer loop
vertex 175.765029853543 275.670898096146 15.8
vertex 175.687679755431 273.254872948977 15.8
vertex 182.687679755431 273.254872948977 15.8
endloop
endfacet
facet normal -9.89493350136612e-17 2.01051771057621e-15 1.0
outer loop
vertex 175.765029853543 275.670898096146 15.8
vertex 182.687679755431 273.254872948977 15.8
vertex 179.487679755431 281.254872948977 15.8
endloop
endfacet
facet normal -9.89493350136612e-17 2.01051771057621e-15 1.0
outer loop
vertex 179.487679755431 281.254872948977 15.8
vertex 182.687679755431 273.254872948977 15.8
vertex 180.042379951656 282.086923243315 15.8
endloop
endfacet
facet normal -9.89493350136612e-17 2.01051771057621e-15 1.0
outer loop
vertex 191.687679755431 273.254872948977 15.8
vertex 187.388449578828 282.086923243315 15.8
vertex 184.687679755431 273.254872948977 15.8
endloop
endfacet
facet normal -9.89493350136612e-17 2.01051771057621e-15 1.0
outer loop
vertex 187.388449578828 282.086923243315 15.8
vertex 191.687679755431 273.254872948977 15.8
vertex 187.887679755431 281.254872948977 15.8
endloop
endfacet
facet normal -9.89493350136612e-17 2.01051771057621e-15 1.0
outer loop
vertex 187.887679755431 281.254872948977 15.8
vertex 191.687679755431 273.254872948977 15.8
vertex 191.610329657318 275.670898096146 15.8
endloop
endfacet
facet normal -9.89493350136612e-17 2.01051771057621e-15 1.0
outer loop
vertex 191.610329657318 275.670898096146 15.8
vertex 191.687679755431 273.254872948977 15.8
vertex 191.83792789592 274.757354353872 15.8
endloop
endfacet
facet normal -9.89493350136612e-17 2.01051771057621e-15 1.0
outer loop
vertex 175.687679755431 283.254872948977 15.8
vertex 173.687679755431 288.354872948977 15.8
vertex 173.687679755431 283.254872948977 15.8
endloop
endfacet
facet normal -9.89493350136612e-17 2.01051771057621e-15 1.0
outer loop
vertex 173.687679755431 288.354872948977 15.8
vertex 175.687679755431 283.254872948977 15.8
vertex 193.687679755431 288.354872948977 15.8
endloop
endfacet
facet normal -9.89493350136612e-17 2.01051771057621e-15 1.0
outer loop
vertex 193.687679755431 288.354872948977 15.8
vertex 175.687679755431 283.254872948977 15.8
vertex 176.187679755431 281.254872948977 15.8
endloop
endfacet
facet normal -9.89493350136612e-17 2.01051771057621e-15 1.0
outer loop
vertex 193.687679755431 288.354872948977 15.8
vertex 176.187679755431 281.254872948977 15.8
vertex 180.042379951656 282.086923243315 15.8
endloop
endfacet
facet normal -9.89493350136612e-17 2.01051771057621e-15 1.0
outer loop
vertex 180.042379951656 282.086923243315 15.8
vertex 176.187679755431 281.254872948977 15.8
vertex 178.487679755431 281.254872948977 15.8
endloop
endfacet
facet normal -9.89493350136612e-17 2.01051771057621e-15 1.0
outer loop
vertex 193.687679755431 288.354872948977 15.8
vertex 180.042379951656 282.086923243315 15.8
vertex 183.687679755431 281.254872948977 15.8
endloop
endfacet
facet normal -9.89493350136612e-17 2.01051771057621e-15 1.0
outer loop
vertex 183.687679755431 281.254872948977 15.8
vertex 180.042379951656 282.086923243315 15.8
vertex 182.687679755431 273.254872948977 15.8
endloop
endfacet
facet normal -9.89493350136612e-17 2.01051771057621e-15 1.0
outer loop
vertex 193.687679755431 288.354872948977 15.8
vertex 183.687679755431 281.254872948977 15.8
vertex 187.388449578828 282.086923243315 15.8
endloop
endfacet
facet normal -9.89493350136612e-17 2.01051771057621e-15 1.0
outer loop
vertex 187.388449578828 282.086923243315 15.8
vertex 183.687679755431 281.254872948977 15.8
vertex 184.687679755431 273.254872948977 15.8
endloop
endfacet
facet normal -9.89493350136612e-17 2.01051771057621e-15 1.0
outer loop
vertex 193.687679755431 288.354872948977 15.8
vertex 187.388449578828 282.086923243315 15.8
vertex 188.887679755431 281.254872948977 15.8
endloop
endfacet
facet normal -9.89493350136612e-17 2.01051771057621e-15 1.0
outer loop
vertex 193.687679755431 288.354872948977 15.8
vertex 188.887679755431 281.254872948977 15.8
vertex 191.687679755431 283.254872948977 15.8
endloop
endfacet
facet normal -9.89493350136612e-17 2.01051771057621e-15 1.0
outer loop
vertex 191.687679755431 283.254872948977 15.8
vertex 188.887679755431 281.254872948977 15.8
vertex 191.187679755431 281.254872948977 15.8
endloop
endfacet
facet normal -9.89493350136612e-17 2.01051771057621e-15 1.0
outer loop
vertex 193.687679755431 288.354872948977 15.8
vertex 191.687679755431 283.254872948977 15.8
vertex 193.687679755431 283.254872948977 15.8
endloop
endfacet
facet normal 0.992277876713668 -0.124034734589203 -5.67254576644416e-16
outer loop
vertex 183.687679755431 281.254872948977 10.0650635094611
vertex 183.312679755431 278.254872948977 14.1786841774372
vertex 183.312679755431 278.254872948977 10.0650635094611
endloop
endfacet
facet normal 0.992277876713668 -0.124034734589203 -5.67254576644416e-16
outer loop
vertex 183.312679755431 278.254872948977 14.1786841774372
vertex 182.687679755431 273.254872948977 15.8
vertex 182.687679755431 273.254872948977 14.8282032302755
endloop
endfacet
facet normal 0.992277876713668 -0.124034734589203 -5.67254576644416e-16
outer loop
vertex 182.687679755431 273.254872948977 15.8
vertex 183.312679755431 278.254872948977 14.1786841774372
vertex 183.687679755431 281.254872948977 15.8
endloop
endfacet
facet normal 0.992277876713668 -0.124034734589203 -5.67254576644416e-16
outer loop
vertex 183.687679755431 281.254872948977 15.8
vertex 183.312679755431 278.254872948977 14.1786841774372
vertex 183.687679755431 281.254872948977 11.3641016151378
endloop
endfacet
facet normal 0.992277876713668 -0.124034734589203 -5.67254576644416e-16
outer loop
vertex 183.687679755431 281.254872948977 11.3641016151378
vertex 183.312679755431 278.254872948977 14.1786841774372
vertex 183.687679755431 281.254872948977 10.0650635094611
endloop
endfacet
facet normal 0.992277876713668 -0.124034734589203 -5.67254576644416e-16
outer loop
vertex 183.687679755431 281.254872948977 15.8
vertex 183.687679755431 281.254872948977 11.3641016151378
vertex 183.687679755431 281.254872948977 12.2301270189223
endloop
endfacet
facet normal -0.853320185982862 -0.170664037196568 -0.492664639082147
outer loop
vertex 184.062679755431 278.254872948977 14.1786841774372
vertex 186.187679755431 273.254872948977 12.2301270189222
vertex 184.687679755431 273.254872948977 14.8282032302754
endloop
endfacet
facet normal -0.853320185982862 -0.170664037196568 -0.492664639082147
outer loop
vertex 186.187679755431 273.254872948977 12.2301270189222
vertex 184.062679755431 278.254872948977 14.1786841774372
vertex 188.687679755431 273.254872948977 7.90000000000001
endloop
endfacet
facet normal -0.853320185982862 -0.170664037196568 -0.492664639082147
outer loop
vertex 188.687679755431 273.254872948977 7.90000000000001
vertex 184.062679755431 278.254872948977 14.1786841774372
vertex 185.687679755431 278.254872948977 11.3641016151378
endloop
endfacet
facet normal -0.853320185982862 -0.170664037196568 -0.492664639082147
outer loop
vertex 187.687679755431 278.254872948977 7.90000000000003
vertex 188.687679755431 273.254872948977 7.90000000000001
vertex 185.687679755431 278.254872948977 11.3641016151378
endloop
endfacet
facet normal 0.0 -1.0 1.84574577843932e-15
outer loop
vertex 191.187679755431 281.254872948977 3.38395977905748e-14
vertex 188.887679755431 281.254872948977 15.8
vertex 188.887679755431 281.254872948977 2.8199664825479e-14
endloop
endfacet
facet normal 0.0 -1.0 1.84574577843932e-15
outer loop
vertex 188.887679755431 281.254872948977 15.8
vertex 191.187679755431 281.254872948977 3.38395977905748e-14
vertex 191.187679755431 281.254872948977 15.8
endloop
endfacet
facet normal 0.0 -1.0 1.84574577843932e-15
outer loop
vertex 187.687679755431 278.254872948977 7.90000000000003
vertex 184.937679755431 278.254872948977 5.73493649053895
vertex 185.687679755431 278.254872948977 4.43589838486229
endloop
endfacet
facet normal 0.0 -1.0 1.84574577843932e-15
outer loop
vertex 184.937679755431 278.254872948977 5.73493649053895
vertex 187.687679755431 278.254872948977 7.90000000000003
vertex 186.187679755431 278.254872948977 7.90000000000003
endloop
endfacet
facet normal 0.0 -1.0 1.84574577843932e-15
outer loop
vertex 186.187679755431 278.254872948977 7.90000000000003
vertex 187.687679755431 278.254872948977 7.90000000000003
vertex 185.687679755431 278.254872948977 11.3641016151378
endloop
endfacet
facet normal 0.0 -1.0 1.84574577843932e-15
outer loop
vertex 186.187679755431 278.254872948977 7.90000000000003
vertex 185.687679755431 278.254872948977 11.3641016151378
vertex 184.937679755431 278.254872948977 10.0650635094611
endloop
endfacet
facet normal 0.0 -1.0 1.84574577843932e-15
outer loop
vertex 184.937679755431 278.254872948977 10.0650635094611
vertex 185.687679755431 278.254872948977 11.3641016151378
vertex 184.062679755431 278.254872948977 10.0650635094611
endloop
endfacet
facet normal 0.0 -1.0 1.84574577843932e-15
outer loop
vertex 184.062679755431 278.254872948977 10.0650635094611
vertex 185.687679755431 278.254872948977 11.3641016151378
vertex 184.062679755431 278.254872948977 14.1786841774372
endloop
endfacet
facet normal 0.0 -1.0 1.84574577843932e-15
outer loop
vertex 185.687679755431 278.254872948977 4.43589838486229
vertex 184.062679755431 278.254872948977 5.73493649053895
vertex 184.062679755431 278.254872948977 1.62131582256282
endloop
endfacet
facet normal 0.0 -1.0 1.84574577843932e-15
outer loop
vertex 184.062679755431 278.254872948977 5.73493649053895
vertex 185.687679755431 278.254872948977 4.43589838486229
vertex 184.937679755431 278.254872948977 5.73493649053895
endloop
endfacet
facet normal 1.0527403289601e-16 -2.84548713750617e-16 -1.0
outer loop
vertex 175.765029853543 275.670898096146 4.79394302033143e-14
vertex 175.687679755431 273.254872948977 1.97397653778353e-14
vertex 175.537431614941 274.757354353872 2.6789681584205e-14
endloop
endfacet
facet normal 1.0527403289601e-16 -2.84548713750617e-16 -1.0
outer loop
vertex 175.687679755431 273.254872948977 1.97397653778353e-14
vertex 175.765029853543 275.670898096146 4.79394302033143e-14
vertex 182.687679755431 273.254872948977 1.97397653778353e-14
endloop
endfacet
facet normal 1.0527403289601e-16 -2.84548713750617e-16 -1.0
outer loop
vertex 182.687679755431 273.254872948977 1.97397653778353e-14
vertex 175.765029853543 275.670898096146 4.79394302033143e-14
vertex 179.487679755431 281.254872948977 2.8199664825479e-14
endloop
endfacet
facet normal 1.0527403289601e-16 -2.84548713750617e-16 -1.0
outer loop
vertex 182.687679755431 273.254872948977 1.97397653778353e-14
vertex 179.487679755431 281.254872948977 2.8199664825479e-14
vertex 180.042379951656 282.086923243315 2.25597318603832e-14
endloop
endfacet
facet normal 1.0527403289601e-16 -2.84548713750617e-16 -1.0
outer loop
vertex 193.687679755431 288.354872948977 1.97397653778353e-14
vertex 173.687679755431 283.254872948977 3.66595642731227e-14
vertex 173.687679755431 288.354872948977 1.97397653778353e-14
endloop
endfacet
facet normal 1.0527403289601e-16 -2.84548713750617e-16 -1.0
outer loop
vertex 173.687679755431 283.254872948977 3.66595642731227e-14
vertex 193.687679755431 288.354872948977 1.97397653778353e-14
vertex 175.687679755431 283.254872948977 3.66595642731227e-14
endloop
endfacet
facet normal 1.0527403289601e-16 -2.84548713750617e-16 -1.0
outer loop
vertex 175.687679755431 283.254872948977 3.66595642731227e-14
vertex 193.687679755431 288.354872948977 1.97397653778353e-14
vertex 176.187679755431 281.254872948977 3.38395977905748e-14
endloop
endfacet
facet normal 1.0527403289601e-16 -2.84548713750617e-16 -1.0
outer loop
vertex 176.187679755431 281.254872948977 3.38395977905748e-14
vertex 193.687679755431 288.354872948977 1.97397653778353e-14
vertex 180.042379951656 282.086923243315 2.25597318603832e-14
endloop
endfacet
facet normal 1.0527403289601e-16 -2.84548713750617e-16 -1.0
outer loop
vertex 176.187679755431 281.254872948977 3.38395977905748e-14
vertex 180.042379951656 282.086923243315 2.25597318603832e-14
vertex 178.487679755431 281.254872948977 2.8199664825479e-14
endloop
endfacet
facet normal 1.0527403289601e-16 -2.84548713750617e-16 -1.0
outer loop
vertex 180.042379951656 282.086923243315 2.25597318603832e-14
vertex 193.687679755431 288.354872948977 1.97397653778353e-14
vertex 183.687679755431 281.254872948977 2.8199664825479e-14
endloop
endfacet
facet normal 1.0527403289601e-16 -2.84548713750617e-16 -1.0
outer loop
vertex 180.042379951656 282.086923243315 2.25597318603832e-14
vertex 183.687679755431 281.254872948977 2.8199664825479e-14
vertex 182.687679755431 273.254872948977 1.97397653778353e-14
endloop
endfacet
facet normal 1.0527403289601e-16 -2.84548713750617e-16 -1.0
outer loop
vertex 183.687679755431 281.254872948977 2.8199664825479e-14
vertex 193.687679755431 288.354872948977 1.97397653778353e-14
vertex 187.388449578828 282.086923243315 2.25597318603832e-14
endloop
endfacet
facet normal 1.0527403289601e-16 -2.84548713750617e-16 -1.0
outer loop
vertex 183.687679755431 281.254872948977 2.8199664825479e-14
vertex 187.388449578828 282.086923243315 2.25597318603832e-14
vertex 184.687679755431 273.254872948977 1.97397653778353e-14
endloop
endfacet
facet normal 1.0527403289601e-16 -2.84548713750617e-16 -1.0
outer loop
vertex 187.388449578828 282.086923243315 2.25597318603832e-14
vertex 193.687679755431 288.354872948977 1.97397653778353e-14
vertex 188.887679755431 281.254872948977 2.8199664825479e-14
endloop
endfacet
facet normal 1.0527403289601e-16 -2.84548713750617e-16 -1.0
outer loop
vertex 188.887679755431 281.254872948977 2.8199664825479e-14
vertex 193.687679755431 288.354872948977 1.97397653778353e-14
vertex 191.687679755431 283.254872948977 3.66595642731227e-14
endloop
endfacet
facet normal 1.0527403289601e-16 -2.84548713750617e-16 -1.0
outer loop
vertex 188.887679755431 281.254872948977 2.8199664825479e-14
vertex 191.687679755431 283.254872948977 3.66595642731227e-14
vertex 191.187679755431 281.254872948977 3.38395977905748e-14
endloop
endfacet
facet normal 1.0527403289601e-16 -2.84548713750617e-16 -1.0
outer loop
vertex 191.687679755431 283.254872948977 3.66595642731227e-14
vertex 193.687679755431 288.354872948977 1.97397653778353e-14
vertex 193.687679755431 283.254872948977 3.66595642731227e-14
endloop
endfacet
facet normal 1.0527403289601e-16 -2.84548713750617e-16 -1.0
outer loop
vertex 187.388449578828 282.086923243315 2.25597318603832e-14
vertex 191.687679755431 273.254872948977 7.33191285462453e-14
vertex 184.687679755431 273.254872948977 1.97397653778353e-14
endloop
endfacet
facet normal 1.0527403289601e-16 -2.84548713750617e-16 -1.0
outer loop
vertex 191.687679755431 273.254872948977 7.33191285462453e-14
vertex 187.388449578828 282.086923243315 2.25597318603832e-14
vertex 187.887679755431 281.254872948977 2.8199664825479e-14
endloop
endfacet
facet normal 1.0527403289601e-16 -2.84548713750617e-16 -1.0
outer loop
vertex 191.687679755431 273.254872948977 7.33191285462453e-14
vertex 187.887679755431 281.254872948977 2.8199664825479e-14
vertex 191.610329657318 275.670898096146 3.66595642731227e-14
endloop
endfacet
facet normal 1.0527403289601e-16 -2.84548713750617e-16 -1.0
outer loop
vertex 191.687679755431 273.254872948977 7.33191285462453e-14
vertex 191.610329657318 275.670898096146 3.66595642731227e-14
vertex 191.83792789592 274.757354353872 0.0
endloop
endfacet
facet normal -1.0 0.0 0.0
outer loop
vertex 173.687679755431 288.354872948977 15.8
vertex 173.687679755431 283.254872948977 3.66595642731227e-14
vertex 173.687679755431 283.254872948977 15.8
endloop
endfacet
facet normal -1.0 0.0 0.0
outer loop
vertex 173.687679755431 283.254872948977 3.66595642731227e-14
vertex 173.687679755431 288.354872948977 15.8
vertex 173.687679755431 288.354872948977 1.97397653778353e-14
endloop
endfacet
facet normal -0.0 1.0 -0.0
outer loop
vertex 173.687679755431 288.354872948977 1.97397653778353e-14
vertex 182.437679755431 288.354872948977 5.73493649053893
vertex 193.687679755431 288.354872948977 1.97397653778353e-14
endloop
endfacet
facet normal -0.0 1.0 -0.0
outer loop
vertex 182.437679755431 288.354872948977 5.73493649053893
vertex 173.687679755431 288.354872948977 1.97397653778353e-14
vertex 173.687679755431 288.354872948977 15.8
endloop
endfacet
facet normal -0.0 1.0 -0.0
outer loop
vertex 182.437679755431 288.354872948977 5.73493649053893
vertex 173.687679755431 288.354872948977 15.8
vertex 181.187679755431 288.354872948977 7.89999999999999
endloop
endfacet
facet normal -0.0 1.0 -0.0
outer loop
vertex 181.187679755431 288.354872948977 7.89999999999999
vertex 173.687679755431 288.354872948977 15.8
vertex 182.437679755431 288.354872948977 10.0650635094611
endloop
endfacet
facet normal -0.0 1.0 -0.0
outer loop
vertex 182.437679755431 288.354872948977 10.0650635094611
vertex 173.687679755431 288.354872948977 15.8
vertex 183.687679755431 288.354872948977 10.0650635094611
endloop
endfacet
facet normal -0.0 1.0 -0.0
outer loop
vertex 183.687679755431 288.354872948977 10.0650635094611
vertex 173.687679755431 288.354872948977 15.8
vertex 184.937679755431 288.354872948977 10.0650635094611
endloop
endfacet
facet normal -0.0 1.0 -0.0
outer loop
vertex 193.687679755431 288.354872948977 1.97397653778353e-14
vertex 184.937679755431 288.354872948977 5.73493649053893
vertex 193.687679755431 288.354872948977 15.8
endloop
endfacet
facet normal -0.0 1.0 -0.0
outer loop
vertex 184.937679755431 288.354872948977 5.73493649053893
vertex 193.687679755431 288.354872948977 1.97397653778353e-14
vertex 182.437679755431 288.354872948977 5.73493649053893
endloop
endfacet
facet normal -0.0 1.0 -0.0
outer loop
vertex 184.937679755431 288.354872948977 5.73493649053893
vertex 182.437679755431 288.354872948977 5.73493649053893
vertex 183.687679755431 288.354872948977 5.73493649053893
endloop
endfacet
facet normal -0.0 1.0 -0.0
outer loop
vertex 193.687679755431 288.354872948977 15.8
vertex 184.937679755431 288.354872948977 5.73493649053893
vertex 186.187679755431 288.354872948977 7.89999999999999
endloop
endfacet
facet normal -0.0 1.0 -0.0
outer loop
vertex 193.687679755431 288.354872948977 15.8
vertex 186.187679755431 288.354872948977 7.89999999999999
vertex 184.937679755431 288.354872948977 10.0650635094611
endloop
endfacet
facet normal -0.0 1.0 -0.0
outer loop
vertex 193.687679755431 288.354872948977 15.8
vertex 184.937679755431 288.354872948977 10.0650635094611
vertex 173.687679755431 288.354872948977 15.8
endloop
endfacet
facet normal -0.866025403784441 -1.07899800205757e-15 -0.499999999999996
outer loop
vertex 184.937679755431 278.254872948977 10.0650635094611
vertex 186.187679755431 288.354872948977 7.89999999999999
vertex 186.187679755431 278.254872948977 7.90000000000003
endloop
endfacet
facet normal -0.866025403784441 -1.07899800205757e-15 -0.499999999999996
outer loop
vertex 186.187679755431 288.354872948977 7.89999999999999
vertex 184.937679755431 278.254872948977 10.0650635094611
vertex 184.937679755431 288.354872948977 10.0650635094611
endloop
endfacet
facet normal -0.866025403784441 1.07899800205757e-15 0.499999999999996
outer loop
vertex 186.187679755431 288.354872948977 7.89999999999999
vertex 184.937679755431 278.254872948977 5.73493649053895
vertex 186.187679755431 278.254872948977 7.90000000000003
endloop
endfacet
facet normal -0.866025403784441 1.07899800205757e-15 0.499999999999996
outer loop
vertex 184.937679755431 278.254872948977 5.73493649053895
vertex 186.187679755431 288.354872948977 7.89999999999999
vertex 184.937679755431 288.354872948977 5.73493649053893
endloop
endfacet
facet normal 0.866025403784441 1.07899800205757e-15 0.499999999999996
outer loop
vertex 182.437679755431 288.354872948977 5.73493649053893
vertex 181.187679755431 278.254872948977 7.90000000000003
vertex 182.437679755431 278.254872948977 5.73493649053895
endloop
endfacet
facet normal 0.866025403784441 1.07899800205757e-15 0.499999999999996
outer loop
vertex 181.187679755431 278.254872948977 7.90000000000003
vertex 182.437679755431 288.354872948977 5.73493649053893
vertex 181.187679755431 288.354872948977 7.89999999999999
endloop
endfacet
facet normal 0.0 -1.0 1.84574577843932e-15
outer loop
vertex 178.487679755431 281.254872948977 15.8
vertex 176.187679755431 281.254872948977 3.38395977905748e-14
vertex 178.487679755431 281.254872948977 2.8199664825479e-14
endloop
endfacet
facet normal 0.0 -1.0 1.84574577843932e-15
outer loop
vertex 176.187679755431 281.254872948977 3.38395977905748e-14
vertex 178.487679755431 281.254872948977 15.8
vertex 176.187679755431 281.254872948977 15.8
endloop
endfacet
facet normal -0.970339043700035 0.241748092590825 -4.9439619065339e-16
outer loop
vertex 175.537431614941 274.757354353872 15.8
vertex 175.765029853543 275.670898096146 4.79394302033143e-14
vertex 175.537431614941 274.757354353872 2.6789681584205e-14
endloop
endfacet
facet normal -0.970339043700035 0.241748092590825 -4.9439619065339e-16
outer loop
vertex 175.765029853543 275.670898096146 4.79394302033143e-14
vertex 175.537431614941 274.757354353872 15.8
vertex 175.765029853543 275.670898096146 15.8
endloop
endfacet
facet normal 0.0 -1.0 1.84574577843932e-15
outer loop
vertex 175.687679755431 283.254872948977 15.8
vertex 173.687679755431 283.254872948977 3.66595642731227e-14
vertex 175.687679755431 283.254872948977 3.66595642731227e-14
endloop
endfacet
facet normal 0.0 -1.0 1.84574577843932e-15
outer loop
vertex 173.687679755431 283.254872948977 3.66595642731227e-14
vertex 175.687679755431 283.254872948977 15.8
vertex 173.687679755431 283.254872948977 15.8
endloop
endfacet
facet normal -0.995037190209989 -0.0995037190210059 2.26381413614973e-16
outer loop
vertex 175.687679755431 273.254872948977 15.8
vertex 175.537431614941 274.757354353872 2.6789681584205e-14
vertex 175.687679755431 273.254872948977 1.97397653778353e-14
endloop
endfacet
facet normal -0.995037190209989 -0.0995037190210059 2.26381413614973e-16
outer loop
vertex 175.537431614941 274.757354353872 2.6789681584205e-14
vertex 175.687679755431 273.254872948977 15.8
vertex 175.537431614941 274.757354353872 15.8
endloop
endfacet
facet normal -0.992277876713667 -0.124034734589214 1.50920942409982e-16
outer loop
vertex 183.687679755431 281.254872948977 5.73493649053896
vertex 184.062679755431 278.254872948977 1.62131582256282
vertex 184.062679755431 278.254872948977 5.73493649053895
endloop
endfacet
facet normal -0.992277876713667 -0.124034734589214 1.50920942409982e-16
outer loop
vertex 184.062679755431 278.254872948977 1.62131582256282
vertex 183.687679755431 281.254872948977 5.73493649053896
vertex 183.687679755431 281.254872948977 4.43589838486224
endloop
endfacet
facet normal -0.992277876713667 -0.124034734589214 1.50920942409982e-16
outer loop
vertex 184.062679755431 278.254872948977 1.62131582256282
vertex 184.687679755431 273.254872948977 1.97397653778353e-14
vertex 184.687679755431 273.254872948977 0.971796769724667
endloop
endfacet
facet normal -0.992277876713667 -0.124034734589214 1.50920942409982e-16
outer loop
vertex 184.687679755431 273.254872948977 1.97397653778353e-14
vertex 184.062679755431 278.254872948977 1.62131582256282
vertex 183.687679755431 281.254872948977 2.8199664825479e-14
endloop
endfacet
facet normal -0.992277876713667 -0.124034734589214 1.50920942409982e-16
outer loop
vertex 183.687679755431 281.254872948977 2.8199664825479e-14
vertex 184.062679755431 278.254872948977 1.62131582256282
vertex 183.687679755431 281.254872948977 4.43589838486224
endloop
endfacet
facet normal -0.992277876713667 -0.124034734589214 1.50920942409982e-16
outer loop
vertex 183.687679755431 281.254872948977 2.8199664825479e-14
vertex 183.687679755431 281.254872948977 4.43589838486224
vertex 183.687679755431 281.254872948977 3.56987298107783
endloop
endfacet
facet normal 1.0 0.0 0.0
outer loop
vertex 193.687679755431 283.254872948977 3.66595642731227e-14
vertex 193.687679755431 288.354872948977 15.8
vertex 193.687679755431 283.254872948977 15.8
endloop
endfacet
facet normal 1.0 0.0 0.0
outer loop
vertex 193.687679755431 288.354872948977 15.8
vertex 193.687679755431 283.254872948977 3.66595642731227e-14
vertex 193.687679755431 288.354872948977 1.97397653778353e-14
endloop
endfacet
facet normal 0.832050294337846 0.554700196225226 -9.8879238130678e-16
outer loop
vertex 187.887679755431 281.254872948977 2.8199664825479e-14
vertex 191.610329657318 275.670898096146 15.8
vertex 191.610329657318 275.670898096146 3.66595642731227e-14
endloop
endfacet
facet normal 0.832050294337846 0.554700196225226 -9.8879238130678e-16
outer loop
vertex 191.610329657318 275.670898096146 15.8
vertex 187.887679755431 281.254872948977 2.8199664825479e-14
vertex 187.887679755431 281.254872948977 15.8
endloop
endfacet
facet normal -0.83205029433783 0.554700196225249 5.89805981832114e-17
outer loop
vertex 179.487679755431 281.254872948977 15.8
vertex 180.042379951656 282.086923243315 2.25597318603832e-14
vertex 179.487679755431 281.254872948977 2.8199664825479e-14
endloop
endfacet
facet normal -0.83205029433783 0.554700196225249 5.89805981832114e-17
outer loop
vertex 180.042379951656 282.086923243315 2.25597318603832e-14
vertex 179.487679755431 281.254872948977 15.8
vertex 180.042379951656 282.086923243315 15.8
endloop
endfacet
facet normal 0.995037190209989 -0.099503719021006 2.21177243187043e-16
outer loop
vertex 191.83792789592 274.757354353872 0.0
vertex 191.687679755431 273.254872948977 15.8
vertex 191.687679755431 273.254872948977 7.33191285462453e-14
endloop
endfacet
facet normal 0.995037190209989 -0.099503719021006 2.21177243187043e-16
outer loop
vertex 191.687679755431 273.254872948977 15.8
vertex 191.83792789592 274.757354353872 0.0
vertex 191.83792789592 274.757354353872 15.8
endloop
endfacet
facet normal 0.0 1.84574577843932e-15 1.0
outer loop
vertex 183.312679755431 278.254872948977 5.73493649053895
vertex 182.437679755431 288.354872948977 5.73493649053893
vertex 182.437679755431 278.254872948977 5.73493649053895
endloop
endfacet
facet normal 0.0 1.84574577843932e-15 1.0
outer loop
vertex 182.437679755431 288.354872948977 5.73493649053893
vertex 183.312679755431 278.254872948977 5.73493649053895
vertex 183.687679755431 288.354872948977 5.73493649053893
endloop
endfacet
facet normal 0.0 1.84574577843932e-15 1.0
outer loop
vertex 183.687679755431 288.354872948977 5.73493649053893
vertex 183.312679755431 278.254872948977 5.73493649053895
vertex 183.687679755431 281.254872948977 5.73493649053896
endloop
endfacet
facet normal 0.0 1.84574577843932e-15 1.0
outer loop
vertex 183.687679755431 288.354872948977 5.73493649053893
vertex 183.687679755431 281.254872948977 5.73493649053896
vertex 184.062679755431 278.254872948977 5.73493649053895
endloop
endfacet
facet normal 0.0 1.84574577843932e-15 1.0
outer loop
vertex 183.687679755431 288.354872948977 5.73493649053893
vertex 184.062679755431 278.254872948977 5.73493649053895
vertex 184.937679755431 288.354872948977 5.73493649053893
endloop
endfacet
facet normal 0.0 1.84574577843932e-15 1.0
outer loop
vertex 184.937679755431 288.354872948977 5.73493649053893
vertex 184.062679755431 278.254872948977 5.73493649053895
vertex 184.937679755431 278.254872948977 5.73493649053895
endloop
endfacet
facet normal 0.0 -1.0 1.84574577843932e-15
outer loop
vertex 183.312679755431 278.254872948977 14.1786841774372
vertex 182.437679755431 278.254872948977 10.0650635094611
vertex 183.312679755431 278.254872948977 10.0650635094611
endloop
endfacet
facet normal 0.0 -1.0 1.84574577843932e-15
outer loop
vertex 182.437679755431 278.254872948977 10.0650635094611
vertex 183.312679755431 278.254872948977 14.1786841774372
vertex 181.687679755431 278.254872948977 11.3641016151378
endloop
endfacet
facet normal 0.0 -1.0 1.84574577843932e-15
outer loop
vertex 183.312679755431 278.254872948977 5.73493649053895
vertex 181.687679755431 278.254872948977 4.43589838486229
vertex 183.312679755431 278.254872948977 1.62131582256282
endloop
endfacet
facet normal 0.0 -1.0 1.84574577843932e-15
outer loop
vertex 181.687679755431 278.254872948977 4.43589838486229
vertex 183.312679755431 278.254872948977 5.73493649053895
vertex 182.437679755431 278.254872948977 5.73493649053895
endloop
endfacet
facet normal 0.0 -1.0 1.84574577843932e-15
outer loop
vertex 181.687679755431 278.254872948977 4.43589838486229
vertex 182.437679755431 278.254872948977 5.73493649053895
vertex 179.687679755431 278.254872948977 7.90000000000003
endloop
endfacet
facet normal 0.0 -1.0 1.84574577843932e-15
outer loop
vertex 179.687679755431 278.254872948977 7.90000000000003
vertex 182.437679755431 278.254872948977 5.73493649053895
vertex 181.187679755431 278.254872948977 7.90000000000003
endloop
endfacet
facet normal 0.0 -1.0 1.84574577843932e-15
outer loop
vertex 179.687679755431 278.254872948977 7.90000000000003
vertex 181.187679755431 278.254872948977 7.90000000000003
vertex 182.437679755431 278.254872948977 10.0650635094611
endloop
endfacet
facet normal 0.0 -1.0 1.84574577843932e-15
outer loop
vertex 179.687679755431 278.254872948977 7.90000000000003
vertex 182.437679755431 278.254872948977 10.0650635094611
vertex 181.687679755431 278.254872948977 11.3641016151378
endloop
endfacet
facet normal -0.992277876713667 -0.124034734589214 3.20056481317721e-16
outer loop
vertex 184.687679755431 273.254872948977 15.8
vertex 184.062679755431 278.254872948977 14.1786841774372
vertex 184.687679755431 273.254872948977 14.8282032302754
endloop
endfacet
facet normal -0.992277876713667 -0.124034734589214 3.20056481317721e-16
outer loop
vertex 184.062679755431 278.254872948977 14.1786841774372
vertex 184.687679755431 273.254872948977 15.8
vertex 183.687679755431 281.254872948977 15.8
endloop
endfacet
facet normal -0.992277876713667 -0.124034734589214 3.20056481317721e-16
outer loop
vertex 184.062679755431 278.254872948977 14.1786841774372
vertex 183.687679755431 281.254872948977 15.8
vertex 184.062679755431 278.254872948977 10.0650635094611
endloop
endfacet
facet normal -0.992277876713667 -0.124034734589214 3.20056481317721e-16
outer loop
vertex 184.062679755431 278.254872948977 10.0650635094611
vertex 183.687679755431 281.254872948977 15.8
vertex 183.687679755431 281.254872948977 11.3641016151378
endloop
endfacet
facet normal -0.992277876713667 -0.124034734589214 3.20056481317721e-16
outer loop
vertex 183.687679755431 281.254872948977 11.3641016151378
vertex 183.687679755431 281.254872948977 15.8
vertex 183.687679755431 281.254872948977 12.2301270189223
endloop
endfacet
facet normal -0.992277876713667 -0.124034734589214 3.20056481317721e-16
outer loop
vertex 183.687679755431 281.254872948977 10.0650635094611
vertex 184.062679755431 278.254872948977 10.0650635094611
vertex 183.687679755431 281.254872948977 11.3641016151378
endloop
endfacet
facet normal 0.857492925712535 0.514495755427542 -9.05525654459893e-16
outer loop
vertex 187.388449578828 282.086923243315 2.25597318603832e-14
vertex 187.887679755431 281.254872948977 15.8
vertex 187.887679755431 281.254872948977 2.8199664825479e-14
endloop
endfacet
facet normal 0.857492925712535 0.514495755427542 -9.05525654459893e-16
outer loop
vertex 187.887679755431 281.254872948977 15.8
vertex 187.388449578828 282.086923243315 2.25597318603832e-14
vertex 187.388449578828 282.086923243315 15.8
endloop
endfacet
facet normal 0.471857925532024 -0.881674598767944 1.61676227961038e-15
outer loop
vertex 180.042379951656 282.086923243315 15.8
vertex 178.487679755431 281.254872948977 2.8199664825479e-14
vertex 180.042379951656 282.086923243315 2.25597318603832e-14
endloop
endfacet
facet normal 0.471857925532024 -0.881674598767944 1.61676227961038e-15
outer loop
vertex 178.487679755431 281.254872948977 2.8199664825479e-14
vertex 180.042379951656 282.086923243315 15.8
vertex 178.487679755431 281.254872948977 15.8
endloop
endfacet
facet normal 0.0 -1.0 1.84574577843932e-15
outer loop
vertex 182.687679755431 273.254872948977 0.971796769724534
vertex 175.687679755431 273.254872948977 1.97397653778353e-14
vertex 182.687679755431 273.254872948977 1.97397653778353e-14
endloop
endfacet
facet normal 0.0 -1.0 1.84574577843932e-15
outer loop
vertex 175.687679755431 273.254872948977 1.97397653778353e-14
vertex 182.687679755431 273.254872948977 0.971796769724534
vertex 178.687679755431 273.254872948977 7.90000000000001
endloop
endfacet
facet normal 0.0 -1.0 1.84574577843932e-15
outer loop
vertex 175.687679755431 273.254872948977 1.97397653778353e-14
vertex 178.687679755431 273.254872948977 7.90000000000001
vertex 175.687679755431 273.254872948977 15.8
endloop
endfacet
facet normal 0.0 -1.0 1.84574577843932e-15
outer loop
vertex 178.687679755431 273.254872948977 7.90000000000001
vertex 182.687679755431 273.254872948977 0.971796769724534
vertex 181.187679755431 273.254872948977 3.56987298107785
endloop
endfacet
facet normal 0.0 -1.0 1.84574577843932e-15
outer loop
vertex 175.687679755431 273.254872948977 15.8
vertex 178.687679755431 273.254872948977 7.90000000000001
vertex 181.187679755431 273.254872948977 12.2301270189222
endloop
endfacet
facet normal 0.0 -1.0 1.84574577843932e-15
outer loop
vertex 175.687679755431 273.254872948977 15.8
vertex 181.187679755431 273.254872948977 12.2301270189222
vertex 182.687679755431 273.254872948977 14.8282032302755
endloop
endfacet
facet normal 0.0 -1.0 1.84574577843932e-15
outer loop
vertex 175.687679755431 273.254872948977 15.8
vertex 182.687679755431 273.254872948977 14.8282032302755
vertex 182.687679755431 273.254872948977 15.8
endloop
endfacet
facet normal 0.853320185982859 -0.170664037196569 -0.492664639082151
outer loop
vertex 178.687679755431 273.254872948977 7.90000000000001
vertex 182.687679755431 273.254872948977 14.8282032302755
vertex 181.187679755431 273.254872948977 12.2301270189222
endloop
endfacet
facet normal 0.853320185982859 -0.170664037196569 -0.492664639082151
outer loop
vertex 182.687679755431 273.254872948977 14.8282032302755
vertex 178.687679755431 273.254872948977 7.90000000000001
vertex 179.687679755431 278.254872948977 7.90000000000003
endloop
endfacet
facet normal 0.853320185982859 -0.170664037196569 -0.492664639082151
outer loop
vertex 182.687679755431 273.254872948977 14.8282032302755
vertex 179.687679755431 278.254872948977 7.90000000000003
vertex 181.687679755431 278.254872948977 11.3641016151378
endloop
endfacet
facet normal 0.853320185982859 -0.170664037196569 -0.492664639082151
outer loop
vertex 182.687679755431 273.254872948977 14.8282032302755
vertex 181.687679755431 278.254872948977 11.3641016151378
vertex 183.312679755431 278.254872948977 14.1786841774372
endloop
endfacet
facet normal 0.992277876713668 -0.124034734589203 3.89445420356793e-16
outer loop
vertex 182.687679755431 273.254872948977 1.97397653778353e-14
vertex 183.312679755431 278.254872948977 1.62131582256282
vertex 182.687679755431 273.254872948977 0.971796769724534
endloop
endfacet
facet normal 0.992277876713668 -0.124034734589203 3.89445420356793e-16
outer loop
vertex 183.312679755431 278.254872948977 1.62131582256282
vertex 182.687679755431 273.254872948977 1.97397653778353e-14
vertex 183.687679755431 281.254872948977 2.8199664825479e-14
endloop
endfacet
facet normal 0.992277876713668 -0.124034734589203 3.89445420356793e-16
outer loop
vertex 183.312679755431 278.254872948977 1.62131582256282
vertex 183.687679755431 281.254872948977 2.8199664825479e-14
vertex 183.312679755431 278.254872948977 5.73493649053895
endloop
endfacet
facet normal 0.992277876713668 -0.124034734589203 3.89445420356793e-16
outer loop
vertex 183.312679755431 278.254872948977 5.73493649053895
vertex 183.687679755431 281.254872948977 2.8199664825479e-14
vertex 183.687679755431 281.254872948977 4.43589838486224
endloop
endfacet
facet normal 0.992277876713668 -0.124034734589203 3.89445420356793e-16
outer loop
vertex 183.687679755431 281.254872948977 4.43589838486224
vertex 183.687679755431 281.254872948977 2.8199664825479e-14
vertex 183.687679755431 281.254872948977 3.56987298107783
endloop
endfacet
facet normal 0.992277876713668 -0.124034734589203 3.89445420356793e-16
outer loop
vertex 183.687679755431 281.254872948977 5.73493649053896
vertex 183.312679755431 278.254872948977 5.73493649053895
vertex 183.687679755431 281.254872948977 4.43589838486224
endloop
endfacet
facet normal 0.970339043700029 0.24174809259085 -4.90926743701436e-16
outer loop
vertex 191.610329657318 275.670898096146 3.66595642731227e-14
vertex 191.83792789592 274.757354353872 15.8
vertex 191.83792789592 274.757354353872 0.0
endloop
endfacet
facet normal 0.970339043700029 0.24174809259085 -4.90926743701436e-16
outer loop
vertex 191.83792789592 274.757354353872 15.8
vertex 191.610329657318 275.670898096146 3.66595642731227e-14
vertex 191.610329657318 275.670898096146 15.8
endloop
endfacet
facet normal -0.485261683878198 -0.874368971407206 1.64451785522601e-15
outer loop
vertex 188.887679755431 281.254872948977 2.8199664825479e-14
vertex 187.388449578828 282.086923243315 15.8
vertex 187.388449578828 282.086923243315 2.25597318603832e-14
endloop
endfacet
facet normal -0.485261683878198 -0.874368971407206 1.64451785522601e-15
outer loop
vertex 187.388449578828 282.086923243315 15.8
vertex 188.887679755431 281.254872948977 2.8199664825479e-14
vertex 188.887679755431 281.254872948977 15.8
endloop
endfacet
facet normal 0.0 -1.84574577843932e-15 -1.0
outer loop
vertex 183.687679755431 288.354872948977 10.0650635094611
vertex 182.437679755431 278.254872948977 10.0650635094611
vertex 182.437679755431 288.354872948977 10.0650635094611
endloop
endfacet
facet normal 0.0 -1.84574577843932e-15 -1.0
outer loop
vertex 182.437679755431 278.254872948977 10.0650635094611
vertex 183.687679755431 288.354872948977 10.0650635094611
vertex 183.312679755431 278.254872948977 10.0650635094611
endloop
endfacet
facet normal 0.0 -1.84574577843932e-15 -1.0
outer loop
vertex 183.312679755431 278.254872948977 10.0650635094611
vertex 183.687679755431 288.354872948977 10.0650635094611
vertex 183.687679755431 281.254872948977 10.0650635094611
endloop
endfacet
facet normal 0.0 -1.84574577843932e-15 -1.0
outer loop
vertex 183.687679755431 281.254872948977 10.0650635094611
vertex 183.687679755431 288.354872948977 10.0650635094611
vertex 184.937679755431 288.354872948977 10.0650635094611
endloop
endfacet
facet normal 0.0 -1.84574577843932e-15 -1.0
outer loop
vertex 183.687679755431 281.254872948977 10.0650635094611
vertex 184.937679755431 288.354872948977 10.0650635094611
vertex 184.062679755431 278.254872948977 10.0650635094611
endloop
endfacet
facet normal 0.0 -1.84574577843932e-15 -1.0
outer loop
vertex 184.062679755431 278.254872948977 10.0650635094611
vertex 184.937679755431 288.354872948977 10.0650635094611
vertex 184.937679755431 278.254872948977 10.0650635094611
endloop
endfacet
facet normal 0.85332018598286 -0.170664037196569 0.49266463908215
outer loop
vertex 183.312679755431 278.254872948977 1.62131582256282
vertex 181.187679755431 273.254872948977 3.56987298107785
vertex 182.687679755431 273.254872948977 0.971796769724534
endloop
endfacet
facet normal 0.85332018598286 -0.170664037196569 0.49266463908215
outer loop
vertex 181.187679755431 273.254872948977 3.56987298107785
vertex 183.312679755431 278.254872948977 1.62131582256282
vertex 178.687679755431 273.254872948977 7.90000000000001
endloop
endfacet
facet normal 0.85332018598286 -0.170664037196569 0.49266463908215
outer loop
vertex 178.687679755431 273.254872948977 7.90000000000001
vertex 183.312679755431 278.254872948977 1.62131582256282
vertex 179.687679755431 278.254872948977 7.90000000000003
endloop
endfacet
facet normal 0.85332018598286 -0.170664037196569 0.49266463908215
outer loop
vertex 179.687679755431 278.254872948977 7.90000000000003
vertex 183.312679755431 278.254872948977 1.62131582256282
vertex 181.687679755431 278.254872948977 4.43589838486229
endloop
endfacet
facet normal 0.0 -1.0 1.84574577843932e-15
outer loop
vertex 191.687679755431 273.254872948977 7.33191285462453e-14
vertex 184.687679755431 273.254872948977 0.971796769724667
vertex 184.687679755431 273.254872948977 1.97397653778353e-14
endloop
endfacet
facet normal 0.0 -1.0 1.84574577843932e-15
outer loop
vertex 184.687679755431 273.254872948977 0.971796769724667
vertex 191.687679755431 273.254872948977 7.33191285462453e-14
vertex 188.687679755431 273.254872948977 7.90000000000001
endloop
endfacet
facet normal 0.0 -1.0 1.84574577843932e-15
outer loop
vertex 188.687679755431 273.254872948977 7.90000000000001
vertex 191.687679755431 273.254872948977 7.33191285462453e-14
vertex 191.687679755431 273.254872948977 15.8
endloop
endfacet
facet normal 0.0 -1.0 1.84574577843932e-15
outer loop
vertex 184.687679755431 273.254872948977 0.971796769724667
vertex 188.687679755431 273.254872948977 7.90000000000001
vertex 186.187679755431 273.254872948977 3.56987298107785
endloop
endfacet
facet normal 0.0 -1.0 1.84574577843932e-15
outer loop
vertex 188.687679755431 273.254872948977 7.90000000000001
vertex 191.687679755431 273.254872948977 15.8
vertex 186.187679755431 273.254872948977 12.2301270189222
endloop
endfacet
facet normal 0.0 -1.0 1.84574577843932e-15
outer loop
vertex 186.187679755431 273.254872948977 12.2301270189222
vertex 191.687679755431 273.254872948977 15.8
vertex 184.687679755431 273.254872948977 14.8282032302754
endloop
endfacet
facet normal 0.0 -1.0 1.84574577843932e-15
outer loop
vertex 184.687679755431 273.254872948977 14.8282032302754
vertex 191.687679755431 273.254872948977 15.8
vertex 184.687679755431 273.254872948977 15.8
endloop
endfacet
facet normal 0.866025403784441 -1.07899800205757e-15 -0.499999999999996
outer loop
vertex 181.187679755431 288.354872948977 7.89999999999999
vertex 182.437679755431 278.254872948977 10.0650635094611
vertex 181.187679755431 278.254872948977 7.90000000000003
endloop
endfacet
facet normal 0.866025403784441 -1.07899800205757e-15 -0.499999999999996
outer loop
vertex 182.437679755431 278.254872948977 10.0650635094611
vertex 181.187679755431 288.354872948977 7.89999999999999
vertex 182.437679755431 288.354872948977 10.0650635094611
endloop
endfacet
facet normal -0.853320185982862 -0.170664037196568 0.492664639082147
outer loop
vertex 188.687679755431 273.254872948977 7.90000000000001
vertex 184.687679755431 273.254872948977 0.971796769724667
vertex 186.187679755431 273.254872948977 3.56987298107785
endloop
endfacet
facet normal -0.853320185982862 -0.170664037196568 0.492664639082147
outer loop
vertex 184.687679755431 273.254872948977 0.971796769724667
vertex 188.687679755431 273.254872948977 7.90000000000001
vertex 184.062679755431 278.254872948977 1.62131582256282
endloop
endfacet
facet normal -0.853320185982862 -0.170664037196568 0.492664639082147
outer loop
vertex 184.062679755431 278.254872948977 1.62131582256282
vertex 188.687679755431 273.254872948977 7.90000000000001
vertex 187.687679755431 278.254872948977 7.90000000000003
endloop
endfacet
facet normal -0.853320185982862 -0.170664037196568 0.492664639082147
outer loop
vertex 184.062679755431 278.254872948977 1.62131582256282
vertex 187.687679755431 278.254872948977 7.90000000000003
vertex 185.687679755431 278.254872948977 4.43589838486229
endloop
endfacet
facet normal -0.832050294337844 0.554700196225229 3.33066907387547e-16
outer loop
vertex 179.487679755431 281.254872948977 15.8
vertex 175.765029853543 275.670898096146 4.79394302033143e-14
vertex 175.765029853543 275.670898096146 15.8
endloop
endfacet
facet normal -0.832050294337844 0.554700196225229 3.33066907387547e-16
outer loop
vertex 175.765029853543 275.670898096146 4.79394302033143e-14
vertex 179.487679755431 281.254872948977 15.8
vertex 179.487679755431 281.254872948977 2.8199664825479e-14
endloop
endfacet
facet normal 0.0 -1.0 1.84574577843932e-15
outer loop
vertex 193.687679755431 283.254872948977 15.8
vertex 191.687679755431 283.254872948977 3.66595642731227e-14
vertex 193.687679755431 283.254872948977 3.66595642731227e-14
endloop
endfacet
facet normal 0.0 -1.0 1.84574577843932e-15
outer loop
vertex 191.687679755431 283.254872948977 3.66595642731227e-14
vertex 193.687679755431 283.254872948977 15.8
vertex 191.687679755431 283.254872948977 15.8
endloop
endfacet
endsolid Plug Test
